<svg width="195" height="48" viewBox="0 0 195 48" fill="none" xmlns="http://www.w3.org/2000/svg">
<path d="M181.536 25.2416C181.272 25.2815 181.005 25.3089 180.747 25.3687C180.579 25.4061 180.507 25.2965 180.395 25.2391C180.357 25.2192 180.317 25.1793 180.283 25.1842C180.021 25.2241 179.76 25.269 179.499 25.3139C179.419 25.4111 179.368 25.5408 179.246 25.5881C179.126 25.633 178.984 25.633 178.851 25.6554C178.675 25.6829 178.499 25.7103 178.323 25.7352C178.235 25.7477 178.163 25.7951 178.134 25.8848C178.128 25.8998 178.187 25.9372 178.219 25.9596C178.326 26.0344 178.43 26.1192 178.547 26.1765C178.659 26.2313 178.798 26.1416 178.918 26.2114C179.187 26.3685 179.19 26.366 179.395 26.3361C179.571 26.3086 179.747 26.2787 179.923 26.2588C179.958 26.2538 179.997 26.2912 180.035 26.3111C180.147 26.366 180.219 26.4906 180.384 26.4433C180.509 26.4059 180.648 26.3984 180.779 26.3784C180.888 26.4507 180.989 26.533 181.107 26.5904C181.216 26.6452 181.248 26.6876 181.189 26.7599C181.136 26.8272 181.061 26.8546 180.963 26.8596C180.875 26.8621 180.787 26.8845 180.699 26.897C180.653 26.9045 180.611 26.9095 180.568 26.917C180.4 26.9444 180.4 26.9444 180.093 26.7848C179.973 26.7225 179.838 26.8097 179.723 26.7499C179.646 26.71 179.579 26.6502 179.504 26.6078C179.472 26.5904 179.422 26.5879 179.382 26.5928C179.248 26.6103 179.115 26.6228 178.987 26.6552C178.896 26.6776 178.843 26.7474 178.854 26.8172C178.856 26.8447 178.92 26.8846 178.958 26.887C179.043 26.892 179.134 26.8571 179.216 26.8746C179.296 26.892 179.379 26.9419 179.438 26.9967C179.558 27.1114 179.693 27.0092 179.808 27.0391C179.928 27.0715 180.027 27.1713 180.141 27.2311C180.171 27.2461 180.227 27.2211 180.272 27.2136C180.403 27.1962 180.533 27.1812 180.664 27.1638C180.773 27.2361 180.891 27.3009 180.989 27.3832C181.168 27.5328 181.36 27.5901 181.592 27.5178C181.723 27.4779 181.851 27.4929 181.955 27.5901C182.061 27.6898 182.184 27.6798 182.32 27.6599C182.445 27.64 182.573 27.5851 182.701 27.6549C182.979 27.8095 182.981 27.817 183.309 27.7571C183.408 27.7397 183.483 27.7347 183.557 27.792C183.627 27.8444 183.701 27.8893 183.773 27.9391C183.904 27.9217 184.037 27.9042 184.168 27.8843C184.336 27.8569 184.429 27.8918 184.469 28.0314C184.493 28.1161 184.504 28.1934 184.562 28.2508C184.632 28.3206 184.706 28.3181 184.808 28.2981C184.904 28.2807 184.973 28.2533 185.013 28.1635C185.029 28.1261 185.061 28.0912 185.09 28.0613C185.114 28.0388 185.152 28.004 185.173 28.0089C185.213 28.0189 185.266 28.0463 185.28 28.0787C185.41 28.3804 185.41 28.3829 185.544 28.4702C185.69 28.5674 185.842 28.6546 185.976 28.7643C186.096 28.8616 186.216 28.8192 186.346 28.8192C186.445 28.8192 186.509 28.884 186.501 28.9488C186.496 28.9862 186.458 29.0411 186.426 29.046C186.165 29.0959 185.901 29.1383 185.637 29.1732C185.605 29.1782 185.565 29.1333 185.528 29.1109C185.453 29.066 185.386 28.9962 185.306 28.9812C185.226 28.9663 185.133 29.0037 185.045 29.0161C184.957 29.0286 184.864 29.061 184.784 29.0411C184.704 29.0211 184.64 28.9488 184.565 28.9015C184.531 28.879 184.483 28.8466 184.453 28.8541C184.259 28.9139 184.115 28.8317 183.976 28.722C183.947 28.6995 183.896 28.6846 183.859 28.6896C183.549 28.7319 183.243 28.7818 182.933 28.8291C182.808 28.8491 182.707 28.7618 182.68 28.6147C182.667 28.5325 182.64 28.4502 182.64 28.3679C182.64 28.2183 182.493 28.1361 182.387 28.1535C182.211 28.1785 182.032 28.1984 181.859 28.2358C181.717 28.2657 181.597 28.2358 181.501 28.146C181.389 28.0438 181.261 28.0638 181.133 28.0912C181.037 28.1111 181.011 28.1934 181.016 28.4003C181.021 28.5674 180.976 28.6197 180.803 28.6472C180.584 28.6821 180.363 28.717 180.141 28.7444C180.107 28.7494 180.067 28.707 180.032 28.6846C179.958 28.6397 179.891 28.5674 179.811 28.5524C179.731 28.535 179.638 28.5724 179.55 28.5873C179.462 28.5998 179.368 28.6347 179.288 28.6172C179.208 28.5998 179.142 28.525 179.07 28.4776C179.035 28.4552 178.992 28.4228 178.958 28.4278C178.782 28.4477 178.606 28.4776 178.43 28.5051C178.232 28.535 178.232 28.535 177.952 28.3804C177.824 28.3106 177.696 28.3655 177.571 28.3854C177.438 28.4053 177.312 28.4153 177.208 28.3156C177.139 28.2508 177.062 28.2109 176.979 28.2233C176.758 28.2533 176.539 28.2907 176.318 28.3206C176.28 28.3256 176.23 28.3131 176.2 28.2907C176.059 28.186 175.92 28.1037 175.723 28.156C175.553 28.2009 175.369 28.2034 175.198 28.2458C175.105 28.2682 175.062 28.348 175.08 28.4103C175.091 28.4427 175.147 28.4801 175.185 28.4801C175.27 28.4826 175.363 28.4452 175.443 28.4602C175.608 28.4901 175.691 28.6995 175.907 28.6422C176.035 28.6073 176.168 28.5948 176.302 28.5848C176.336 28.5823 176.374 28.6297 176.411 28.6546C176.518 28.722 176.611 28.8092 176.766 28.7643C176.894 28.7294 177.03 28.7195 177.16 28.6995C177.368 28.6671 177.368 28.6696 177.638 28.8217C177.766 28.894 177.894 28.8366 178.019 28.8192C178.112 28.8067 178.2 28.7818 178.275 28.8167C178.39 28.8691 178.472 28.9887 178.614 28.9812C178.747 28.9737 178.878 28.9388 179.011 28.9264C179.094 28.9189 179.171 28.9588 179.238 29.0261C179.307 29.0934 179.382 29.1233 179.472 29.1084C179.603 29.0884 179.736 29.0635 179.869 29.051C179.907 29.0485 179.95 29.071 179.984 29.0909C180.059 29.1358 180.131 29.1882 180.203 29.2355C180.333 29.2206 180.467 29.2156 180.595 29.1857C180.693 29.1632 180.763 29.1732 180.843 29.2231C180.944 29.2904 181.027 29.4101 181.192 29.3527C181.275 29.3253 181.371 29.3328 181.453 29.3078C181.555 29.2754 181.624 29.2879 181.696 29.3627C181.832 29.5048 182.003 29.5073 182.179 29.4524C182.371 29.3926 182.515 29.4624 182.659 29.5721C182.811 29.6868 182.811 29.6843 182.928 29.961C182.963 30.0408 183.061 30.0782 183.144 30.0632C183.283 30.0383 183.403 30.0508 183.504 30.1455C183.611 30.2477 183.739 30.2353 183.869 30.2078C184.043 30.1704 184.216 30.138 184.357 30.2826C184.427 30.3524 184.501 30.3699 184.595 30.3524C184.859 30.3075 185.125 30.2802 185.384 30.2253C185.541 30.1904 185.632 30.2702 185.738 30.3375C185.882 30.4297 186.04 30.512 186.04 30.709C186.04 30.7414 186.077 30.7788 186.109 30.8037C186.178 30.856 186.253 30.9009 186.325 30.9508C186.432 31.0256 186.536 31.0879 186.682 31.048C186.81 31.0156 186.946 31.0056 187.077 30.9832C187.208 30.9607 187.328 30.9483 187.445 31.043C187.581 31.1502 187.725 31.2524 187.88 31.3322C187.989 31.3896 188.133 31.2923 188.25 31.3696C188.322 31.417 188.392 31.4718 188.469 31.5117C188.501 31.5292 188.552 31.5167 188.594 31.5117C188.682 31.5017 188.773 31.4943 188.858 31.4694C188.957 31.4419 189.032 31.4469 189.106 31.5043C189.176 31.5566 189.245 31.6289 189.325 31.6439C189.445 31.6663 189.578 31.5666 189.698 31.6813C189.759 31.7386 189.837 31.7935 189.917 31.8109C189.997 31.8284 190.09 31.7909 190.175 31.7934C190.213 31.7934 190.258 31.8333 190.279 31.8657C190.293 31.8832 190.274 31.9306 190.255 31.9555C190.231 31.9854 190.197 32.0253 190.162 32.0303C189.898 32.0752 189.634 32.1126 189.37 32.155C189.213 32.1799 189.213 32.1799 188.896 32.0228C188.821 31.9854 188.738 31.9929 188.645 32.0103C188.52 32.0328 188.392 32.0752 188.261 32.0303C188.09 31.8608 187.88 31.8458 187.656 31.9106C187.562 31.938 187.477 31.938 187.408 31.8907C187.261 31.7959 187.106 31.7087 186.976 31.5965C186.874 31.5092 186.826 31.5018 186.784 31.6214C186.77 31.6588 186.757 31.6987 186.76 31.7336C186.776 31.8583 186.805 31.9804 186.821 32.1051C186.826 32.14 186.805 32.1799 186.792 32.2173C186.749 32.322 186.693 32.3145 186.6 32.2272C186.506 32.14 186.394 32.0827 186.245 32.1225C186.117 32.1574 185.978 32.1525 185.85 32.1899C185.653 32.2447 185.514 32.1649 185.373 32.0577C185.344 32.0353 185.293 32.0228 185.256 32.0278C184.859 32.0851 184.464 32.15 184.067 32.2073C183.981 32.2198 183.904 32.1824 183.837 32.1151C183.768 32.0477 183.691 32.0128 183.605 32.0253C183.253 32.0777 182.901 32.125 182.549 32.1899C182.405 32.2173 182.291 32.1848 182.192 32.0976C182.117 32.0328 182.048 32.0128 181.955 32.0203C181.853 32.0278 181.781 32.0527 181.731 32.125C181.683 32.1948 181.717 32.2372 181.824 32.2921C181.939 32.3519 182.045 32.4292 182.155 32.499C182.243 32.489 182.331 32.4691 182.416 32.4716C182.453 32.4716 182.488 32.5164 182.525 32.5414C182.632 32.6137 182.731 32.686 182.883 32.6461C183.011 32.6112 183.147 32.6037 183.277 32.5813C183.459 32.5538 183.459 32.5538 183.752 32.7109C183.827 32.7508 183.907 32.7483 184.003 32.7259C184.085 32.7084 184.171 32.7433 184.229 32.8181C184.253 32.848 184.245 32.8979 184.195 33.0624C184.195 33.1846 184.251 33.1297 184.269 33.05C184.298 32.9353 184.243 32.8979 184.136 32.9602C184.061 33.0051 184.024 33.0699 184.043 33.1223C184.053 33.1497 184.104 33.1846 184.195 33.0624C184.429 32.9129 184.608 32.8954 184.779 32.8555C184.88 32.8331 184.944 32.843 185.024 32.9078C185.12 32.9851 185.216 33.0674 185.373 33.0275C185.544 32.9827 185.725 32.9777 185.898 32.9403C186.058 32.9054 186.141 33.0151 186.242 33.0799C186.365 33.1572 186.501 33.0699 186.613 33.1148C186.73 33.1597 186.813 33.2694 186.949 33.2893C187.146 33.222 187.272 33.3467 187.421 33.4289C187.538 33.4913 187.677 33.4364 187.802 33.409C187.944 33.379 188.061 33.4065 188.16 33.4962C188.272 33.5985 188.397 33.576 188.525 33.5536C188.824 33.5037 188.834 33.4962 189.008 33.6333C189.133 33.7331 189.253 33.6882 189.378 33.6757C189.488 33.743 189.594 33.8153 189.709 33.8752C189.738 33.8901 189.794 33.8652 189.839 33.8577C189.97 33.8378 190.103 33.8178 190.234 33.7979C190.322 33.7854 190.415 33.748 190.495 33.763C190.575 33.7804 190.642 33.8528 190.714 33.9001C190.786 33.9475 190.861 33.9949 190.93 34.0447C191.037 34.1195 191.138 34.1818 191.287 34.1444C191.415 34.112 191.549 34.1021 191.682 34.0796C191.85 34.0522 191.845 34.0597 192.157 34.2093C192.325 34.2915 192.498 34.1918 192.669 34.1818C192.754 34.1769 192.837 34.2043 192.895 34.2766C192.919 34.3065 192.911 34.3564 192.919 34.3987C192.479 34.4661 192.037 34.5234 191.602 34.6057C191.434 34.6381 191.346 34.5483 191.255 34.4735C191.106 34.3538 190.909 34.5284 190.767 34.3738C190.682 34.2815 190.559 34.2292 190.413 34.2741C190.327 34.299 190.237 34.2965 190.149 34.3189C189.925 34.3738 189.719 34.3763 189.541 34.2043C189.479 34.1444 189.392 34.112 189.328 34.0547C189.253 33.9924 189.181 33.9574 189.093 33.9699C188.696 34.0297 188.301 34.0896 187.906 34.1544C187.872 34.1594 187.837 34.1968 187.808 34.2242C187.733 34.294 187.757 34.3489 187.877 34.3937C187.917 34.4087 187.949 34.4411 187.986 34.466C188.058 34.5134 188.125 34.5882 188.205 34.6057C188.285 34.6231 188.378 34.5882 188.466 34.5757C188.554 34.5633 188.648 34.5259 188.728 34.5408C188.808 34.5583 188.874 34.6306 188.949 34.6755C188.984 34.6979 189.026 34.7353 189.061 34.7328C189.237 34.7178 189.41 34.6904 189.586 34.668C189.695 34.7353 189.789 34.8325 189.919 34.855C190.002 34.8699 190.09 34.8425 190.175 34.8475C190.213 34.85 190.261 34.8874 190.279 34.9198C190.29 34.9397 190.255 34.9896 190.229 35.0145C190.127 35.1093 189.989 35.0918 189.863 35.1217C189.728 35.1541 189.605 35.1442 189.501 35.0469C189.432 34.9821 189.354 34.9472 189.269 34.9597C189.048 34.9921 188.829 35.0295 188.608 35.0569C188.57 35.0619 188.525 35.0395 188.49 35.022C188.21 34.8699 188.21 34.8649 188.013 34.8974C187.722 34.9447 187.722 34.9447 187.528 34.8126C187.49 34.7876 187.45 34.7403 187.418 34.7428C187.109 34.7827 186.802 34.8226 186.496 34.8799C186.394 34.8973 186.325 34.8974 186.25 34.8325C186.186 34.7777 186.112 34.7154 186.032 34.7004C185.949 34.6854 185.858 34.7228 185.77 34.7353C185.682 34.7478 185.589 34.7802 185.512 34.7602C185.432 34.7403 185.362 34.6705 185.293 34.6206C185.221 34.5683 185.144 34.5707 185.045 34.5907C184.741 34.648 184.738 34.6406 184.437 34.486C184.403 34.4685 184.357 34.4486 184.32 34.4536C184.099 34.4835 183.88 34.5209 183.659 34.5508C183.573 34.5633 183.491 34.5309 183.432 34.4586C183.408 34.4287 183.416 34.3788 183.4 34.2815C183.381 34.2591 183.403 34.299 183.408 34.3364C183.448 34.3314 183.496 34.3364 183.525 34.3164C183.6 34.2691 183.637 34.2067 183.619 34.1544C183.608 34.127 183.557 34.0921 183.525 34.0921C183.467 34.0921 183.416 34.1469 183.4 34.2815C183.232 34.3638 183.053 34.3813 182.88 34.4212C182.779 34.4461 182.715 34.4336 182.635 34.3688C182.539 34.289 182.44 34.2117 182.283 34.2516C182.112 34.2965 181.931 34.304 181.755 34.3389C181.552 34.3788 181.464 34.1544 181.293 34.1594C181.117 34.1644 180.941 34.2068 180.765 34.2367C180.611 34.2616 180.611 34.2616 180.291 34.0996C180.173 34.0397 180.035 34.127 179.92 34.0646C179.843 34.0248 179.776 33.9649 179.702 33.9226C179.67 33.9051 179.619 33.9051 179.579 33.9101C179.358 33.94 179.134 33.9599 178.92 34.0148C178.678 34.0796 178.494 34.0098 178.32 33.8627C178.102 33.8901 177.88 33.9051 177.664 33.9525C177.507 33.9874 177.416 33.9051 177.31 33.8378C177.272 33.8154 177.24 33.778 177.2 33.768C177.16 33.758 177.112 33.7779 177.07 33.7854C176.894 33.8128 176.712 33.8253 176.542 33.8702C176.331 33.9275 176.251 33.7231 176.088 33.6982C175.979 33.8203 175.92 33.9874 175.704 33.9998C175.528 34.0098 175.353 34.0497 175.177 34.0771C175.089 34.0896 175.001 34.1046 174.913 34.117C174.771 34.1395 174.705 34.2367 174.734 34.3863C174.75 34.4685 174.763 34.5508 174.777 34.6331C174.803 34.7802 174.737 34.9048 174.625 34.9223C174.315 34.9697 174.009 35.0195 173.699 35.0619C173.617 35.0743 173.537 35.032 173.47 34.9646C173.401 34.8973 173.323 34.8674 173.238 34.8799C172.929 34.9273 172.622 34.9771 172.313 35.0195C172.278 35.0245 172.233 34.9996 172.198 34.9796C172.123 34.9347 172.051 34.8824 171.979 34.835C171.803 34.8575 171.63 34.8724 171.457 34.9023C171.177 34.9472 171.177 34.9497 170.971 34.8126C170.934 34.7876 170.897 34.7403 170.862 34.7428C170.729 34.7528 170.598 34.7777 170.465 34.8001C170.073 34.8649 170.073 34.8649 169.958 34.7901C169.854 34.7203 169.761 34.6356 169.604 34.6755C169.433 34.7203 169.252 34.7353 169.076 34.7602C168.945 34.7777 168.814 34.7976 168.684 34.8026C168.649 34.8051 168.612 34.7577 168.574 34.7328C168.468 34.6555 168.364 34.5932 168.217 34.6356C168.132 34.6605 168.041 34.6655 167.953 34.678C167.724 34.7129 167.724 34.7128 167.348 34.5633C167.31 34.5483 167.265 34.5309 167.228 34.5383C166.918 34.5832 166.612 34.6331 166.302 34.6755C166.265 34.6805 166.22 34.6655 166.182 34.653C165.761 34.5084 165.761 34.5084 165.313 34.5782C165.143 34.6032 165.137 34.6131 164.959 34.481C164.879 34.4237 164.812 34.3962 164.719 34.4137C164.367 34.4735 164.012 34.5134 163.663 34.5832C163.505 34.6131 163.415 34.5383 163.308 34.471C163.271 34.4486 163.231 34.3987 163.199 34.4012C162.847 34.4486 162.495 34.5059 162.143 34.5533C162.111 34.5583 162.071 34.5084 162.033 34.486C161.961 34.4411 161.892 34.3738 161.812 34.3588C161.729 34.3439 161.639 34.3813 161.548 34.3937C161.327 34.4262 161.327 34.4237 161.071 34.2766C161.036 34.2566 160.991 34.2292 160.956 34.2342C160.604 34.284 160.25 34.3264 159.9 34.3987C159.7 34.4386 159.564 34.3663 159.423 34.2616C159.394 34.2392 159.343 34.2292 159.306 34.2342C158.908 34.2915 158.514 34.3563 158.116 34.4137C158.034 34.4262 157.954 34.3838 157.887 34.3189C157.78 34.2167 157.655 34.2292 157.522 34.2516C157.215 34.304 157.212 34.3015 157.031 34.1818C156.994 34.1569 156.962 34.1245 156.922 34.112C156.884 34.0996 156.837 34.107 156.796 34.112C156.621 34.137 156.445 34.1644 156.269 34.1918C156.093 34.2192 155.914 34.2342 155.741 34.2766C155.527 34.3289 155.426 34.1669 155.277 34.0921C155.058 34.1245 154.834 34.1444 154.618 34.1968C154.453 34.2367 154.375 34.127 154.266 34.0696C154.229 34.0497 154.189 34.0073 154.154 34.0123C153.757 34.0671 153.359 34.127 152.965 34.1943C152.869 34.2092 152.805 34.1893 152.725 34.1295C152.546 33.9948 152.538 33.9998 152.239 34.0497C152.109 34.0721 151.983 34.0921 151.871 33.9899C151.773 33.8976 151.653 33.8752 151.512 33.9051C151.338 33.9425 151.16 33.9624 150.984 33.9874C150.808 34.0148 150.632 34.0522 150.456 34.0646C150.314 34.0771 150.229 33.96 150.117 33.9001C150.082 33.8827 150.034 33.8802 149.994 33.8852C149.818 33.9076 149.637 33.925 149.466 33.9674C149.258 34.0198 149.144 33.8827 148.997 33.8029C148.965 33.7854 148.912 33.7954 148.872 33.8029C148.562 33.8478 148.256 33.8976 147.946 33.945C147.837 33.8777 147.725 33.8129 147.616 33.7456C147.44 33.7705 147.264 33.7979 147.088 33.8228C146.954 33.8428 146.818 33.8503 146.693 33.8876C146.531 33.9375 146.451 33.8203 146.341 33.763C146.304 33.743 146.264 33.7007 146.229 33.7057C146.008 33.7331 145.787 33.763 145.568 33.8054C145.36 33.8478 145.277 33.6234 145.107 33.6259C144.931 33.6283 144.749 33.6608 144.579 33.7057C144.381 33.758 144.243 33.6782 144.101 33.571C144.072 33.5486 144.021 33.5361 143.984 33.5411C143.763 33.571 143.544 33.6084 143.323 33.6383C143.285 33.6433 143.24 33.6309 143.203 33.6159C142.781 33.4688 142.781 33.4663 142.598 33.4962C142.467 33.5162 142.334 33.5411 142.2 33.5536C142.163 33.5586 142.117 33.5361 142.083 33.5162C141.806 33.3641 141.805 33.3616 141.606 33.3915C141.43 33.4189 141.254 33.4464 141.078 33.4738C140.968 33.4065 140.856 33.3417 140.747 33.2744C140.528 33.3068 140.304 33.3317 140.088 33.3765C139.987 33.3965 139.92 33.389 139.843 33.3267C139.747 33.2519 139.651 33.1647 139.491 33.207C139.32 33.2519 139.139 33.2569 138.966 33.2943C138.758 33.3392 138.672 33.1123 138.504 33.1148C138.328 33.1173 138.147 33.1497 137.976 33.1946C137.779 33.2469 137.64 33.1672 137.499 33.06C137.47 33.0375 137.419 33.025 137.382 33.03C136.897 33.1023 136.414 33.1746 135.929 33.2519C135.63 33.2993 135.63 33.3018 135.062 33.1646C135.022 33.1547 134.979 33.1447 134.939 33.1497C134.763 33.1721 134.582 33.1896 134.411 33.232C134.203 33.2843 134.089 33.1497 133.942 33.0674C133.91 33.05 133.859 33.0599 133.817 33.0649C133.683 33.0824 133.553 33.1048 133.419 33.1248C133.243 33.1522 133.067 33.1796 132.891 33.207C132.782 33.1422 132.67 33.0749 132.561 33.0101C132.342 33.0425 132.118 33.0599 131.902 33.1123C131.737 33.1522 131.66 33.0475 131.55 32.9876C131.513 32.9677 131.473 32.9253 131.438 32.9278C131.041 32.9827 130.644 33.04 130.249 33.1098C130.086 33.1397 130.012 33.0275 129.902 32.9702C129.865 32.9527 129.822 32.9203 129.788 32.9253C129.524 32.9602 129.26 33.0026 128.996 33.045C128.846 33.0699 128.846 33.0699 128.521 32.9153C128.484 32.8979 128.441 32.8804 128.404 32.8854C127.567 33.0101 126.732 33.1422 125.895 33.2669C125.809 33.2793 125.732 33.2419 125.665 33.1746C125.596 33.1073 125.519 33.0724 125.433 33.0849C125.081 33.1372 124.727 33.1846 124.377 33.2494C124.233 33.2769 124.119 33.2444 124.02 33.1572C123.945 33.0923 123.876 33.0674 123.783 33.0824C123.607 33.1123 123.431 33.1372 123.255 33.1646C123.079 33.1921 122.903 33.2195 122.727 33.2469C122.551 33.2744 122.372 33.2893 122.199 33.3317C121.986 33.384 121.882 33.2295 121.735 33.1522C121.471 33.1896 121.207 33.227 120.946 33.2669C120.594 33.3192 120.242 33.3766 119.89 33.4264C119.858 33.4314 119.818 33.3865 119.78 33.3641C119.671 33.3018 119.591 33.2145 119.428 33.2419C118.639 33.3741 117.845 33.4863 117.053 33.6159C116.887 33.6433 116.815 33.5361 116.703 33.4788C116.666 33.4613 116.623 33.4264 116.589 33.4314C116.149 33.4937 115.709 33.5635 115.269 33.6308C115.09 33.6583 115.09 33.6583 114.791 33.5037C114.757 33.4862 114.711 33.4638 114.674 33.4688C114.101 33.5536 113.53 33.6433 112.957 33.7306C112.872 33.743 112.794 33.7081 112.725 33.6408C112.658 33.5735 112.578 33.5361 112.496 33.5486C111.968 33.6284 111.437 33.7056 110.912 33.7929C110.77 33.8178 110.653 33.7954 110.552 33.7057C110.48 33.6408 110.408 33.6134 110.317 33.6284C109.525 33.7505 108.733 33.8677 107.941 33.9974C107.789 34.0223 107.683 33.9749 107.587 33.8926C107.509 33.8278 107.443 33.8153 107.347 33.8253C107.245 33.8378 107.184 33.8652 107.128 33.94C107.056 34.0372 107.011 34.1594 106.84 34.1669C106.664 34.1744 106.485 34.2043 106.312 34.2467C106.147 34.289 106.069 34.1768 105.965 34.1095C105.888 34.0622 105.816 34.0547 105.717 34.0771C105.627 34.0971 105.571 34.1394 105.517 34.2192C105.4 34.3887 105.389 34.3887 105.245 34.2815C105.168 34.2242 105.099 34.1793 105.013 34.1893C104.661 34.2392 104.31 34.294 103.958 34.3514C103.755 34.3838 103.752 34.3888 103.6 34.2641C103.526 34.2018 103.454 34.1718 103.366 34.1868C102.398 34.3364 101.43 34.481 100.462 34.6381C100.312 34.663 100.211 34.6106 100.104 34.5358C100.07 34.5109 100.035 34.476 99.9952 34.466C99.9552 34.4561 99.9099 34.466 99.8672 34.471C99.1632 34.5782 98.4566 34.6805 97.7553 34.8001C97.5953 34.8275 97.51 34.7478 97.4007 34.683C97.3634 34.6605 97.3313 34.6256 97.2913 34.6156C97.2513 34.6082 97.2033 34.6256 97.1607 34.6331C96.4567 34.7403 95.7501 34.8425 95.0488 34.9622C94.8809 34.9896 94.8088 34.8849 94.6995 34.83C94.6622 34.8101 94.6222 34.7727 94.5875 34.7777C94.3662 34.8051 94.1476 34.8425 93.9263 34.8749C93.3983 34.9572 92.8703 35.0345 92.3423 35.1192C92.1397 35.1517 92.0517 34.9298 91.881 34.9397C91.6597 34.9522 91.4411 35.0021 91.2198 35.037C91.0438 35.0644 90.8678 35.0893 90.6918 35.1192C90.5185 35.1467 90.5185 35.1466 90.0865 35.0021C90.0492 34.9896 90.0039 34.9721 89.9665 34.9771C89.3506 35.0694 88.732 35.1616 88.1187 35.2613C87.9773 35.2838 87.86 35.2713 87.7587 35.1791C87.6867 35.1143 87.612 35.0818 87.5241 35.0968C86.5988 35.2389 85.6761 35.381 84.7509 35.5206C84.7162 35.5256 84.6709 35.5007 84.6362 35.4807C84.5616 35.4359 84.4896 35.3835 84.4176 35.3361C84.3642 35.3935 84.295 35.4458 84.2603 35.5107C84.2123 35.5979 84.1483 35.6228 84.047 35.6378C83.9456 35.6528 83.8817 35.6478 83.8017 35.583C83.7057 35.5032 83.607 35.4408 83.4497 35.4658C82.4817 35.6228 81.5138 35.7649 80.5458 35.9195C80.3858 35.9445 80.3112 35.8347 80.1992 35.7774C80.1619 35.7599 80.1192 35.7325 80.0845 35.7375C79.6872 35.7949 79.2926 35.8572 78.8953 35.917C77.794 36.0866 76.6928 36.2486 75.5942 36.4281C75.3942 36.4605 75.2582 36.3982 75.1169 36.291C75.0876 36.2686 75.0369 36.2561 74.9996 36.2611C73.4584 36.4954 71.9171 36.7323 70.3786 36.9691C70.2959 36.9816 70.2159 36.9417 70.1492 36.8769C70.0799 36.8095 70.0026 36.7771 69.9173 36.7896C69.2133 36.8968 68.5094 37.004 67.8055 37.1137C67.6295 37.1411 67.6268 37.1436 67.4455 37.0239C67.4081 36.999 67.3682 36.9517 67.3388 36.9567C67.2775 36.9691 67.2188 37.0314 67.1761 37.1162C67.1335 37.2059 67.0668 37.2309 66.9681 37.2483C66.8668 37.2658 66.8002 37.2583 66.7229 37.1985C66.6242 37.1237 66.5335 37.0514 66.3735 37.0763C64.3497 37.3954 62.3258 37.7021 60.302 38.0187C60.1393 38.0436 60.0646 37.9389 59.9526 37.8816C59.9153 37.8641 59.878 37.8392 59.838 37.8342C59.7953 37.8292 59.75 37.8442 59.7073 37.8517C56.4062 38.3578 53.1052 38.8664 49.8041 39.3725C49.6067 39.4024 49.6094 39.4024 49.3934 39.6317C49.3667 39.6592 49.3321 39.6965 49.2947 39.7015C48.2841 39.8611 47.2709 40.0157 46.2576 40.1702C45.8177 40.2375 45.3777 40.3074 44.9377 40.3722C44.7804 40.3946 44.7804 40.3946 44.4044 40.6639C44.3724 40.6863 44.3351 40.7162 44.2977 40.7212C42.5379 40.993 40.778 41.2647 39.0154 41.5315C38.8768 41.5514 38.7648 41.5963 38.7008 41.716C38.6555 41.8007 38.5968 41.8506 38.5088 41.8655C37.2769 42.055 36.045 42.247 34.8105 42.4315C34.6638 42.4539 34.5758 42.5237 34.5038 42.6284C34.4798 42.6633 34.4584 42.7032 34.4238 42.7281C34.3918 42.7506 34.3438 42.7581 34.3038 42.7655C33.2479 42.9276 32.192 43.0947 31.1334 43.2492C30.9761 43.2717 30.912 43.3639 30.8347 43.4611C30.808 43.4935 30.7894 43.5384 30.7547 43.5609C30.72 43.5808 30.6694 43.5808 30.6267 43.5858C29.7468 43.7204 28.8669 43.8575 27.9869 43.9922C27.8163 43.9797 27.7789 44.1243 27.6963 44.2116C27.6669 44.2415 27.6456 44.2814 27.611 44.3013C27.5736 44.3212 27.5256 44.3187 27.4803 44.3237C26.7763 44.4309 26.0724 44.5456 25.3658 44.6454C25.2031 44.6678 25.1711 44.7949 25.0831 44.8822C25.0538 44.9096 25.0245 44.952 24.9898 44.9595C24.5498 45.0318 24.1099 45.0991 23.6699 45.1639C23.5233 45.1863 23.5232 45.1839 23.2646 45.4307C23.2353 45.4581 23.2006 45.488 23.1632 45.4955C22.5046 45.6002 21.8433 45.6999 21.1821 45.8022C21.0967 45.8146 21.0381 45.8745 20.9954 45.9592C20.9528 46.044 20.8914 46.0988 20.8061 46.1113C20.2782 46.1936 19.7501 46.2783 19.2222 46.3531C19.0755 46.3731 18.9796 46.4354 18.9156 46.5476C18.8676 46.6323 18.8089 46.6747 18.7156 46.6897C18.1876 46.7695 17.6597 46.8567 17.129 46.9265C16.9744 46.9465 16.8943 47.0312 16.8304 47.1359C16.7797 47.2207 16.721 47.2506 16.6224 47.2656C15.6544 47.4102 14.6839 47.5548 13.7186 47.7143C13.5559 47.7418 13.4733 47.6545 13.3666 47.5922C13.2146 47.5049 13.0733 47.4102 13.0733 47.2157C13.0733 47.1858 13.028 47.1509 12.996 47.126C12.7587 46.939 12.7587 46.939 12.7213 46.7396C12.7 46.6174 12.676 46.4927 12.6573 46.3681C12.6227 46.1637 12.5373 46.1113 12.292 46.1487C12.204 46.1612 12.116 46.1786 12.028 46.1886C11.8974 46.206 11.7987 46.1237 11.7747 45.9742C11.7614 45.8919 11.7454 45.8096 11.7321 45.7273C11.8654 45.7074 11.8627 45.7049 12.0974 45.4033C12.196 45.2761 12.1961 45.2761 12.0067 45.149C11.9347 45.1016 11.8654 45.0492 11.7881 45.0043C11.7534 44.9844 11.7081 44.9719 11.6708 44.9769C11.4494 45.0068 11.2308 45.0417 11.0121 45.0767C10.6602 45.1315 10.6601 45.1315 10.3028 44.8772C10.2735 44.8572 10.2282 44.8199 10.2335 44.7999C10.2628 44.7077 10.3348 44.6678 10.4255 44.6578C10.5588 44.6428 10.6894 44.6179 10.8201 44.598C10.9081 44.5855 10.9961 44.5706 11.0841 44.5581C11.1667 44.4634 11.2521 44.3711 11.3294 44.2739C11.4521 44.1243 11.4521 44.1193 11.2841 44.0146C11.1774 43.9448 11.0627 43.8824 10.9534 43.8176C10.8228 43.8376 10.6894 43.86 10.5588 43.8775C10.3935 43.8999 10.3268 43.8525 10.2841 43.6905C10.2468 43.5484 10.2921 43.4262 10.4201 43.3963C10.5508 43.3664 10.6735 43.3465 10.7402 43.2193C10.8042 43.0971 10.9161 43.0498 11.0548 43.0398C11.1428 43.0323 11.2308 43.0149 11.3188 42.9999C11.4334 42.98 11.4948 42.8528 11.4708 42.7107C11.4574 42.6185 11.4308 42.5412 11.3268 42.5212C10.8655 42.434 10.8601 42.4365 10.6308 42.2669C10.6095 42.252 10.5935 42.2071 10.6015 42.1847C10.6148 42.1473 10.6442 42.0924 10.6762 42.0849C10.9828 42.0301 11.2894 41.9802 11.5961 41.9428C11.6974 41.9304 11.7721 41.9129 11.8067 41.8207C11.8547 41.6935 11.8334 41.5763 11.7401 41.4891C11.7108 41.4617 11.6627 41.4268 11.6307 41.4293C11.2787 41.4741 10.9294 41.5315 10.5775 41.5763C10.5455 41.5813 10.4868 41.539 10.4735 41.5066C10.4468 41.4467 10.4868 41.3669 10.5801 41.3395C10.7028 41.3021 10.8281 41.2996 10.9108 41.175C11.0254 40.9979 11.1667 40.8359 11.2947 40.6664C11.3161 40.6365 11.3508 40.5791 11.3428 40.5741C11.2761 40.5193 11.1988 40.4769 11.1295 40.4245C11.0121 40.3373 11.0121 40.2151 11.0388 40.0979C11.0601 40.0032 11.1401 39.9658 11.2388 39.9658C11.2814 39.9658 11.3347 39.9658 11.3694 39.9434C11.4601 39.8885 11.4894 39.8187 11.4441 39.7663C11.4174 39.7364 11.3694 39.6941 11.3374 39.6991C10.7668 39.7813 10.1935 39.8611 9.62552 39.9633C9.45753 39.9932 9.38026 39.8985 9.27893 39.8312C9.2016 39.7788 9.12957 39.7589 9.03357 39.7963C8.94291 39.8312 8.85495 39.8112 8.79895 39.729C8.75362 39.6617 8.8336 39.6043 9.04959 39.5395C9.08958 39.527 9.1349 39.5195 9.16423 39.4946C9.47354 39.2254 9.47353 39.2229 9.68685 39.188C9.89483 39.1556 9.89488 39.1531 10.0042 39.0085C10.0549 38.9412 10.1108 38.8738 10.1588 38.804C10.1775 38.7766 10.2095 38.7267 10.1989 38.7118C10.1402 38.6345 10.0602 38.6171 9.96684 38.6345C9.75885 38.6769 9.51358 38.642 9.40425 38.8788C9.36159 38.9686 9.29492 38.9935 9.19893 39.0085C8.23366 39.1531 7.26836 39.3076 6.30043 39.4473C6.14311 39.4697 6.07116 39.5619 6.00983 39.6642C5.9565 39.7489 5.89782 39.7738 5.7965 39.7888C5.69517 39.8038 5.61514 39.8112 5.55648 39.729C5.52181 39.6791 5.55115 39.6093 5.63114 39.5395C5.7458 39.4398 5.72446 39.3151 5.68713 39.1979C5.66046 39.1207 5.57781 39.0658 5.48981 39.0708C5.35916 39.0808 5.23386 39.1082 5.12454 39.0085C5.06054 38.9511 4.98053 38.9112 4.90854 38.8614C4.76988 38.7591 4.63122 38.6544 4.43657 38.7218C4.30324 38.6968 4.20992 38.6071 4.10326 38.5373C3.9246 38.4226 3.9086 38.4051 4.0366 38.283C4.18059 38.1459 4.06857 37.9663 4.14857 37.8317C4.23389 37.6871 4.35126 37.56 4.45525 37.4254C4.48192 37.3905 4.50592 37.358 4.53259 37.3231C4.47126 37.2733 4.41527 37.211 4.34328 37.1761C4.24995 37.1312 4.20195 37.0763 4.20729 36.9217C4.18862 36.8993 4.19657 36.9566 4.2179 36.9716C4.2419 36.9866 4.3006 36.9741 4.32993 36.9567C4.4046 36.9093 4.44189 36.847 4.42322 36.7946C4.41256 36.7672 4.36193 36.7323 4.32993 36.7323C4.27127 36.7323 4.22062 36.7871 4.20462 36.9217C3.90597 37.024 3.59661 37.0738 3.2873 37.1137C3.2553 37.1187 3.21533 37.0688 3.178 37.0439C3.05534 36.9591 3.05532 36.9616 2.69535 36.9367C2.65802 36.9342 2.60738 36.8993 2.58872 36.8644C2.51139 36.7123 2.51408 36.5453 2.47674 36.3832C2.54607 36.2785 2.61535 36.1763 2.68734 36.0741C2.83133 35.8672 3.01803 35.6852 3.13002 35.4583C3.10602 35.3361 3.07402 35.214 3.19134 35.1143C3.52465 34.9896 3.52201 34.9896 3.61267 34.8699C3.87132 34.5309 4.12728 34.1893 4.3966 33.8552C4.46859 33.768 4.4686 33.7206 4.34061 33.6832C4.30061 33.6733 4.25789 33.6708 4.21523 33.6757C4.0819 33.6932 3.94858 33.7381 3.81793 33.7281C3.68727 33.7206 3.59128 33.6109 3.48462 33.5436C3.37529 33.4738 3.26597 33.4015 3.15664 33.3292C3.03132 33.3367 2.90602 33.4065 2.78069 33.2943C2.6847 33.207 2.56472 33.1447 2.45539 33.0724C2.53805 32.8829 2.69273 32.7383 2.81272 32.5713C2.92205 32.4192 2.92466 32.4217 3.21797 32.3045C3.35663 32.2497 3.40462 31.968 3.2873 31.8857C3.14598 31.786 2.99668 31.6937 2.85269 31.599C2.72737 31.6065 2.59941 31.6738 2.47941 31.5616C2.38609 31.4768 2.27941 31.4195 2.12475 31.4519C1.86344 31.5067 1.5968 31.5342 1.33282 31.579C1.24215 31.594 1.14347 31.584 1.10347 31.4993C1.0768 31.4394 1.15414 31.3572 1.24213 31.3397C1.37546 31.3148 1.49543 31.2849 1.5621 31.1602C1.62609 31.0356 1.7434 30.9981 1.88206 30.9807C1.91939 30.9757 1.96209 30.9458 1.98075 30.9159C2.07674 30.7713 2.18341 30.6466 2.38873 30.6516C2.47406 30.6018 2.51936 30.5394 2.49269 30.4796C2.4767 30.4472 2.42073 30.4048 2.38873 30.4098C2.16741 30.4347 1.9461 30.4597 1.73012 30.5045C1.62879 30.5245 1.55142 30.5294 1.48743 30.4546C1.4421 30.4048 1.46609 30.3375 1.55142 30.2652C1.62608 30.2028 1.64744 30.1305 1.6421 30.0458C1.62877 29.8488 1.54876 29.7915 1.29278 29.804C1.10879 29.8139 1.06346 29.7815 1.02346 29.612C1.0128 29.5721 0.986178 29.5172 1.00484 29.4898C1.1195 29.3203 1.19417 29.1109 1.41015 29.0311C1.49548 29.0012 1.5861 29.0012 1.63943 28.9364C1.69276 28.8715 1.74078 28.7967 1.79678 28.7344C1.86611 28.6596 1.91406 28.5898 1.88206 28.5425C1.82873 28.4577 1.74343 28.4502 1.64477 28.4801C1.55945 28.5051 1.46879 28.5075 1.38079 28.5225C1.22347 28.5499 1.09551 28.4851 1.07684 28.3754C1.02618 28.0862 0.972835 27.7995 0.927505 27.5103C0.922172 27.4754 0.935468 27.4305 0.9568 27.4006C1.03146 27.2959 1.11149 27.1962 1.18881 27.094C1.27948 26.9768 1.42349 26.9992 1.54615 26.9768C1.71947 26.9444 1.71941 26.9469 1.95139 26.7075C2.04205 26.6128 2.19938 26.6502 2.29271 26.5654C2.32204 26.538 2.36737 26.4931 2.35937 26.4682C2.3487 26.4358 2.2954 26.4108 2.25541 26.3959C2.21808 26.3809 2.17276 26.3735 2.13276 26.3809C1.64746 26.4532 1.16484 26.5305 0.679541 26.6003C0.59688 26.6128 0.506217 26.558 0.476886 26.4807C0.447555 26.4084 0.455528 26.3211 0.450195 26.2388C0.527523 26.1366 0.615483 26.0419 0.682145 25.9322C0.732808 25.8474 0.791481 25.81 0.892807 25.805C1.02613 25.7975 1.1568 25.7676 1.30612 25.7452C1.58344 25.3812 1.8554 24.9998 2.15405 24.6358C2.27404 24.4887 2.24475 24.3391 2.26875 24.182C2.29275 24.0374 2.47139 24.0599 2.59139 24.0175C2.68738 23.9826 2.71933 23.9028 2.682 23.848C2.66067 23.8155 2.6127 23.7781 2.57537 23.7781C2.48738 23.7781 2.39939 23.8006 2.31139 23.813C2.2234 23.8255 2.12208 23.818 2.05008 23.8604C1.98075 23.9003 1.9354 23.9851 1.89007 24.0574C1.8394 24.1371 1.77279 24.1646 1.67146 24.1696C1.54081 24.1746 1.41016 24.197 1.2795 24.2144C1.13551 24.1172 0.986155 24.0225 0.847498 23.9203C0.820833 23.9003 0.815472 23.843 0.818138 23.8056C0.823471 23.7084 0.783484 23.6485 0.69549 23.6011C0.620829 23.5612 0.559495 23.5039 0.490166 23.4541C0.543496 23.3867 0.602179 23.3219 0.644843 23.2496C0.73817 23.0975 0.855508 22.9879 1.05816 22.9928C1.13815 22.8956 1.20213 22.7759 1.30612 22.7086C1.40478 22.6438 1.57278 22.7086 1.64744 22.5615C1.68477 22.4892 1.7408 22.4069 1.81279 22.377C1.92745 22.3297 2.07677 22.3546 2.14344 22.215C2.18343 22.1352 2.24207 22.0629 2.3194 22.043C2.40739 22.0205 2.49803 22.0155 2.56203 21.9682C2.59669 21.9432 2.63403 21.9034 2.63403 21.8685C2.63403 21.846 2.58074 21.8111 2.54341 21.7961C2.50874 21.7787 2.46336 21.7662 2.42336 21.7712C2.29004 21.7862 2.15938 21.8136 2.02606 21.8286C1.98873 21.8335 1.94608 21.8161 1.90608 21.8011C1.78876 21.7612 1.79674 21.7114 1.89007 21.6216C1.98339 21.5344 2.05009 21.4222 2.12742 21.32C2.21275 21.3025 2.31939 21.31 2.37805 21.2626C2.47671 21.1853 2.54602 21.0731 2.62602 20.9759C2.71401 20.9609 2.80467 20.956 2.88733 20.9285C2.92199 20.9186 2.938 20.8637 2.96733 20.8313C3.02066 20.769 3.06603 20.6792 3.13803 20.6493C3.25535 20.6044 3.39934 20.6219 3.46867 20.4848C3.50866 20.405 3.56997 20.3202 3.64463 20.3153C3.85262 20.3053 3.94061 20.1681 4.04727 20.0385C4.12727 19.9413 4.29793 19.9911 4.38592 19.8939C4.44458 19.8316 4.48727 19.7543 4.54593 19.6944C4.56993 19.6695 4.62058 19.6571 4.66057 19.6496C4.87923 19.6122 5.10054 19.5848 5.31919 19.5449C5.35385 19.5374 5.38588 19.5 5.41254 19.4701C5.46854 19.4053 5.50316 19.3155 5.57249 19.2731C5.64182 19.2307 5.74046 19.2308 5.82579 19.2183C6.10044 19.1809 6.12179 19.1908 6.24712 18.9789C6.34844 18.8069 6.59646 18.9291 6.67912 18.7396C6.72711 18.6299 6.81507 18.5402 6.97239 18.5277C7.19371 18.5102 7.41235 18.4629 7.63367 18.4305C7.83099 18.4005 7.82833 18.4005 8.04165 18.1687C8.13764 18.064 8.279 18.0789 8.40432 18.059C8.53764 18.0391 8.66029 18.0091 8.72429 17.8845C8.78828 17.7623 8.90559 17.7224 9.04158 17.705C9.1669 17.6875 9.30826 17.7 9.40692 17.6003C9.6469 17.3609 9.64424 17.3584 9.81223 17.3335C10.0762 17.2936 10.3402 17.2537 10.6042 17.2113C10.7802 17.1839 10.9641 17.1789 11.1295 17.1241C11.2494 17.0842 11.3028 16.9446 11.3801 16.8474C11.5987 16.81 11.8174 16.7725 12.036 16.7376C12.3427 16.6878 12.652 16.6429 12.9613 16.5956C13.0946 16.5008 13.1133 16.2914 13.3373 16.2814C13.4706 16.2764 13.6013 16.244 13.7346 16.2241C13.9559 16.1892 14.1746 16.1443 14.3959 16.1268C14.5639 16.1144 14.5932 15.9797 14.6812 15.895C14.7105 15.8651 14.7372 15.8227 14.7718 15.8152C15.1185 15.7454 15.4758 15.7304 15.8144 15.6282C15.8491 15.6183 15.8811 15.5659 15.8891 15.5285C15.8944 15.5086 15.8491 15.4712 15.8197 15.4537C15.7851 15.4338 15.7398 15.4138 15.7024 15.4188C14.6012 15.5859 13.5 15.7554 12.3987 15.9224C12.244 15.9474 12.244 15.9448 11.8681 16.2191C11.8361 16.2415 11.7987 16.2665 11.7587 16.2739C11.5827 16.3038 11.4041 16.3213 11.2307 16.3587C11.0894 16.3886 10.9721 16.3587 10.8708 16.2689C10.7988 16.2041 10.7241 16.1842 10.6335 16.1892C10.5321 16.1967 10.4655 16.2241 10.4068 16.2914C10.3295 16.3836 10.2895 16.5033 10.1269 16.5282C9.37757 16.6354 8.62825 16.7551 7.88164 16.8698C7.77764 16.8349 7.72699 16.7825 7.75365 16.7202C7.76965 16.6828 7.80166 16.6329 7.83366 16.628C8.1403 16.5756 8.4496 16.5307 8.75625 16.4809C8.79891 16.4734 8.85757 16.4784 8.88157 16.4534C8.99889 16.3412 9.0416 16.1592 9.26292 16.1468C9.39091 16.1393 9.52155 16.1019 9.64421 16.067C9.67887 16.057 9.71088 16.0047 9.71888 15.9673C9.72154 15.9473 9.67887 15.9099 9.64688 15.8925C9.52955 15.8202 9.39359 15.9075 9.27626 15.8576C9.23627 15.8402 9.18023 15.8152 9.17223 15.7853C9.1669 15.7579 9.21224 15.713 9.24424 15.6856C9.27357 15.6606 9.31354 15.6382 9.35354 15.6307C9.70551 15.5734 10.0575 15.5135 10.4095 15.4687C10.5535 15.4512 10.6548 15.3889 10.7188 15.2742C10.7668 15.1894 10.8255 15.1446 10.9161 15.1321C11.5321 15.0399 12.148 14.9376 12.7666 14.8529C12.9213 14.8329 13.0013 14.7507 13.0653 14.6435C13.116 14.5587 13.1747 14.5288 13.2733 14.5138C14.1559 14.3842 15.0332 14.2396 15.9158 14.1149C16.0784 14.0925 16.1264 13.9853 16.2091 13.893C16.2384 13.8606 16.2571 13.8207 16.2944 13.8008C16.3317 13.7809 16.3797 13.7833 16.425 13.7783C17.129 13.6711 17.833 13.5565 18.5396 13.4568C18.7049 13.4343 18.7369 13.3096 18.8222 13.2224C18.8515 13.195 18.8782 13.1501 18.9129 13.1426C19.4408 13.0579 19.9688 12.9781 20.4968 12.8958C20.8487 12.841 21.2007 12.7861 21.5527 12.7338C21.726 12.7088 21.726 12.7063 21.9607 12.4695C21.9873 12.442 22.0247 12.4096 22.0593 12.4022C23.0726 12.2426 24.0832 12.0905 25.0964 11.9335C25.1818 11.921 25.2431 11.8636 25.2857 11.7789C25.3284 11.6941 25.3898 11.6368 25.4725 11.6243C26.2644 11.4997 27.0563 11.3775 27.8509 11.2603C27.9949 11.2404 28.0962 11.1805 28.1602 11.0684C28.2082 10.9836 28.2669 10.9387 28.3575 10.9263C29.1495 10.8066 29.9415 10.6794 30.7361 10.5647C30.8881 10.5423 30.9627 10.4575 31.0374 10.3578C31.064 10.3229 31.0854 10.2656 31.1174 10.2606C31.512 10.1908 31.904 10.1185 32.3013 10.0711C32.4666 10.0512 32.5226 9.94645 32.5893 9.84673C32.6426 9.76695 32.7039 9.73953 32.8053 9.72956C33.0266 9.70712 33.2452 9.66476 33.4612 9.62238C33.4932 9.6149 33.5332 9.56004 33.5359 9.52514C33.5412 9.46032 33.4799 9.41544 33.3785 9.393C32.3226 9.55505 31.264 9.71709 30.2081 9.87914C30.0348 9.90656 30.0348 9.90658 29.8001 10.1434C29.7735 10.1708 29.7361 10.2033 29.6988 10.2107C28.6855 10.3678 27.6749 10.5224 26.6617 10.6794C26.5764 10.6919 26.515 10.7492 26.4724 10.834C26.4297 10.9188 26.3683 10.9761 26.2857 10.9886C25.3177 11.1382 24.3498 11.2903 23.3792 11.4324C23.2352 11.4523 23.1339 11.5096 23.07 11.6243C23.022 11.7091 22.9633 11.754 22.8726 11.7664C21.9474 11.906 21.0247 12.0531 20.0968 12.1877C20.0035 12.2002 19.9342 12.1279 19.9395 12.0606C19.9422 12.0257 19.9821 11.9684 20.0141 11.9634C20.4967 11.8811 20.9768 11.7963 21.4621 11.734C21.6247 11.7141 21.6727 11.6044 21.7553 11.5121C21.782 11.4797 21.8033 11.4373 21.838 11.4199C21.8753 11.3999 21.9233 11.4024 21.9687 11.3975C23.1126 11.2204 24.2565 11.041 25.4031 10.8739C25.5684 10.849 25.6004 10.7268 25.6857 10.6395C25.715 10.6096 25.7417 10.5648 25.7764 10.5598C26.1284 10.4999 26.4803 10.4476 26.8323 10.3952C27.4483 10.3005 28.0642 10.2057 28.6828 10.111C28.8615 10.0836 28.8615 10.0836 29.0908 9.84923C29.1175 9.8218 29.1548 9.78692 29.1895 9.78194C30.8187 9.53013 32.448 9.27833 34.0772 9.02902C34.1625 9.01655 34.2238 8.95921 34.2665 8.87445C34.3092 8.79218 34.3705 8.73234 34.4531 8.71738C36.6556 8.37832 38.8555 8.03924 41.058 7.70517C41.202 7.68273 41.3033 7.63037 41.3673 7.5132C41.4126 7.42843 41.4739 7.38357 41.5646 7.36861C43.9858 6.99714 46.4069 6.62567 48.8308 6.25171C50.46 6.0024 52.0892 5.7481 53.7184 5.50378C53.8678 5.48134 53.9477 5.40404 54.0224 5.30182C54.0464 5.26692 54.0704 5.20958 54.1024 5.20459C54.4517 5.14226 54.801 5.08493 55.1503 5.02759C55.2596 5.0949 55.3689 5.15974 55.4783 5.22705C55.5609 5.13231 55.641 5.03508 55.7236 4.94034C56.2516 4.86804 56.7715 4.75585 57.3048 4.72094C57.3395 4.71845 57.3768 4.76583 57.4141 4.79076C57.6621 4.94782 57.8035 4.93536 57.9608 4.72594C58.0168 4.65114 58.0648 4.58383 58.1501 4.57136C58.4141 4.52649 58.6808 4.49657 58.9421 4.44421C59.0834 4.41679 59.2007 4.44172 59.302 4.53147C59.374 4.59629 59.4487 4.62373 59.5367 4.60877C60.022 4.53397 60.5046 4.46167 60.9899 4.38189C61.0246 4.3769 61.0565 4.3345 61.0832 4.30459C61.1392 4.23977 61.1872 4.16998 61.2406 4.10266C61.3126 4.14504 61.3926 4.17746 61.4512 4.23231C61.5259 4.29713 61.5952 4.29711 61.6965 4.27966C63.6324 3.978 65.5709 3.68382 67.5068 3.37966C67.6721 3.35473 67.7441 3.45945 67.8561 3.5143C67.8934 3.53424 67.9307 3.55916 67.9707 3.56415C68.0134 3.56913 68.0587 3.55419 68.1014 3.54671C69.5546 3.32233 71.0079 3.10043 72.4611 2.87605C72.6531 2.84613 72.6531 2.84613 72.9384 3.0007C72.9731 3.02065 73.0184 3.04309 73.0557 3.03561C73.717 2.93838 74.3783 2.83368 75.0369 2.73396C75.1222 2.72149 75.1943 2.76137 75.2716 2.81871C75.4236 2.9309 75.4342 2.93091 75.5462 2.76637C75.5995 2.68908 75.6555 2.64169 75.7435 2.61925C75.8395 2.59432 75.9169 2.60183 75.9915 2.6467C76.0982 2.70903 76.1755 2.81373 76.3382 2.7863C77.0421 2.66913 77.7487 2.5719 78.45 2.45224C78.61 2.42481 78.6954 2.50957 78.802 2.5719C78.8393 2.59434 78.874 2.62924 78.914 2.63672C78.954 2.6442 79.002 2.62673 79.0446 2.61925C79.9246 2.48463 80.8072 2.35252 81.6844 2.20792C81.8497 2.18049 81.9218 2.28768 82.0338 2.34252C82.0711 2.36247 82.1137 2.39739 82.1484 2.3924C82.6764 2.31512 83.207 2.23282 83.735 2.15055C83.9243 2.12063 83.9243 2.12313 84.2122 2.2752C84.2469 2.29515 84.2923 2.3151 84.3296 2.31011C84.9456 2.21787 85.5642 2.12313 86.1801 2.02839C86.3695 1.99847 86.3695 1.99848 86.9161 2.12812C86.9561 2.13809 86.9987 2.15307 87.0387 2.14808C87.7427 2.04088 88.4493 1.93616 89.1532 1.82148C89.2946 1.79904 89.4119 1.81898 89.5132 1.90873C89.5852 1.97355 89.6599 2.00099 89.7479 1.98603C90.5398 1.86387 91.3344 1.7467 92.1237 1.61705C92.2757 1.59212 92.3743 1.64695 92.481 1.71925C92.5157 1.74418 92.5504 1.77909 92.5904 1.78906C92.6304 1.79904 92.6757 1.78906 92.7183 1.78158C93.5103 1.65942 94.3049 1.54474 95.0942 1.4126C95.2541 1.38518 95.3395 1.46994 95.4462 1.53227C95.4835 1.55471 95.5235 1.59958 95.5555 1.59709C95.8648 1.55471 96.1741 1.51732 96.4807 1.455C96.646 1.42009 96.718 1.53476 96.83 1.5896C96.8674 1.60706 96.91 1.64447 96.9447 1.63948C97.606 1.54225 98.2673 1.44004 98.9259 1.33533C99.0192 1.32038 99.0885 1.34279 99.1632 1.40761C99.2619 1.49487 99.3765 1.52978 99.5205 1.50235C99.8272 1.44501 100.136 1.40513 100.446 1.35776C100.627 1.33034 100.627 1.33035 101.182 1.45999C101.222 1.46996 101.264 1.48491 101.304 1.47992C101.832 1.40014 102.363 1.32286 102.888 1.2356C103.03 1.21067 103.147 1.2331 103.248 1.32286C103.32 1.38768 103.392 1.41512 103.483 1.40016C103.968 1.32536 104.451 1.25057 104.936 1.17577C105.112 1.14835 105.288 1.10097 105.464 1.10097C105.592 1.10346 105.685 1.22312 105.8 1.28296C105.832 1.30041 105.885 1.28049 105.928 1.2755C106.544 1.18076 107.163 1.0935 107.776 0.986295C107.936 0.958871 108.021 1.04363 108.128 1.10596C108.165 1.1284 108.205 1.17327 108.237 1.17078C108.459 1.14336 108.677 1.10596 108.899 1.07355C109.162 1.03366 109.429 1.00374 109.69 0.948892C109.904 0.904017 109.984 1.12091 110.154 1.12839C110.285 1.13587 110.418 1.09349 110.549 1.07355C110.813 1.03366 111.077 0.988787 111.341 0.953883C111.434 0.941418 111.506 0.901511 111.536 0.81176C111.541 0.794308 111.496 0.756928 111.466 0.73449C111.112 0.480194 111.112 0.480182 110.754 0.53503C110.533 0.569933 110.314 0.604843 110.093 0.63476C110.056 0.639746 110.013 0.619803 109.976 0.604844C109.869 0.562461 109.88 0.512604 109.97 0.422853C110.061 0.333102 110.13 0.223415 110.208 0.121198C110.317 0.186019 110.424 0.250816 110.533 0.315637C110.621 0.303171 110.709 0.288235 110.797 0.275769C111.237 0.210949 111.677 0.14363 112.117 0.083796C112.149 0.0788098 112.189 0.128679 112.226 0.15361C112.333 0.22591 112.429 0.28822 112.584 0.260796C112.978 0.188496 113.376 0.136141 113.77 0.0738139C113.943 0.0463898 113.944 0.0463923 114.247 0.200964C114.282 0.218416 114.327 0.238362 114.365 0.233376C114.762 0.176034 115.157 0.113714 115.554 0.0538801C115.639 0.0414146 115.722 0.0738236 115.783 0.146123C115.807 0.17604 115.802 0.225893 115.903 0.63476C116.218 0.966341 116.434 0.931455 116.653 0.901538C116.746 0.889073 116.829 0.876595 116.89 0.826733C116.922 0.799309 116.962 0.759413 116.962 0.727003C116.962 0.702072 116.903 0.662175 116.866 0.657189C116.602 0.607327 116.351 0.712052 116.093 0.73449C115.973 0.744462 115.869 0.657203 115.847 0.515096C115.842 0.475207 115.834 0.432827 115.826 0.392937C115.818 0.353048 115.813 0.310668 115.805 0.270778C115.701 0.258313 115.639 0.303181 115.594 0.387946C115.557 0.457753 115.503 0.537532 115.431 0.574928C115.359 0.614818 115.261 0.607352 115.173 0.619817C115.087 0.632283 114.994 0.664689 114.914 0.647238C114.834 0.627293 114.77 0.554981 114.695 0.510105C114.661 0.487667 114.618 0.455269 114.583 0.460256C114.277 0.502638 113.973 0.545005 113.669 0.599853C113.509 0.62977 113.429 0.525076 113.328 0.460256C113.248 0.410394 113.168 0.422843 113.154 0.537526C113.12 0.811766 113.242 0.926442 113.514 0.874087C113.738 0.829212 113.941 0.821755 114.117 0.991286C114.141 1.01372 114.197 1.02369 114.231 1.01871C114.45 0.988789 114.666 0.951389 114.885 0.921472C114.925 0.916486 114.967 0.926442 115.005 0.936415C115.549 1.07104 115.549 1.07355 115.733 1.04363C115.821 1.02867 115.906 1.01621 115.898 0.637255C116.066 0.230881 116.333 0.203462 116.591 0.143628C116.759 0.106231 116.831 0.215932 116.941 0.273274C116.978 0.293218 117.018 0.3331 117.053 0.328114C117.626 0.245842 118.197 0.158572 118.767 0.0663273C118.863 0.0513687 118.932 0.0663297 119.007 0.13115C119.103 0.213422 119.21 0.265788 119.362 0.235871C119.666 0.176037 119.975 0.138649 120.284 0.088787C120.442 0.0638561 120.442 0.0638306 120.759 0.218402C120.794 0.235854 120.839 0.2558 120.876 0.250814C121.186 0.208431 121.492 0.156092 121.799 0.111216C121.884 0.0987509 121.962 0.133651 122.028 0.200964C122.095 0.268278 122.175 0.303177 122.258 0.290712C122.567 0.245836 122.874 0.19599 123.18 0.151114C123.218 0.146128 123.263 0.163579 123.298 0.18103C123.623 0.335602 123.623 0.335577 123.772 0.310646C123.991 0.273249 124.215 0.255817 124.431 0.205955C124.641 0.156093 124.751 0.300681 124.895 0.38046C125.289 0.323118 125.687 0.275762 126.079 0.205955C126.239 0.176038 126.324 0.258303 126.431 0.323123C126.468 0.345561 126.505 0.392935 126.54 0.390442C126.673 0.380469 126.804 0.35305 126.935 0.333105C127.065 0.313161 127.199 0.293218 127.329 0.273274C127.479 0.345573 127.577 0.515101 127.791 0.45776C127.919 0.422857 128.055 0.415377 128.185 0.395433C128.316 0.375488 128.449 0.355546 128.58 0.335601C128.668 0.323135 128.758 0.315645 128.844 0.293207C129.001 0.255811 129.078 0.377987 129.19 0.432835C129.228 0.450287 129.27 0.480184 129.305 0.475198C129.569 0.440295 129.836 0.41038 130.094 0.353039C130.294 0.308163 130.43 0.382966 130.572 0.487676C130.601 0.510114 130.652 0.522578 130.689 0.517592C130.998 0.475209 131.305 0.42284 131.612 0.377964C131.694 0.365499 131.774 0.405387 131.841 0.470207C131.91 0.537521 131.988 0.569955 132.073 0.55749C132.38 0.512614 132.689 0.462738 132.996 0.417862C133.033 0.412876 133.078 0.432824 133.113 0.452769C133.411 0.607341 133.411 0.609836 133.587 0.579919C133.63 0.57244 133.675 0.567434 133.718 0.559955C133.937 0.525052 134.163 0.512603 134.377 0.452769C134.622 0.385455 134.801 0.470224 134.974 0.612331C135.193 0.582413 135.417 0.564958 135.63 0.515096C135.79 0.4777 135.875 0.572433 135.982 0.63476C136.019 0.657198 136.059 0.702074 136.091 0.697087C136.401 0.654705 136.71 0.617322 137.014 0.554994C137.179 0.520091 137.251 0.63226 137.363 0.689601C137.4 0.709545 137.44 0.744467 137.475 0.739481C137.651 0.719536 137.827 0.689604 138.003 0.66218C138.208 0.62977 138.208 0.632261 138.48 0.784339C138.608 0.856639 138.736 0.799296 138.862 0.781844C138.995 0.761899 139.12 0.746946 139.227 0.849162C139.294 0.913983 139.374 0.953874 139.456 0.943901C139.632 0.921463 139.811 0.899036 139.984 0.86164C140.123 0.831723 140.243 0.851657 140.344 0.943901C140.416 1.00872 140.491 1.04115 140.579 1.02619C140.974 0.966358 141.371 0.904008 141.766 0.846667C141.8 0.841681 141.848 0.864127 141.88 0.886565C141.955 0.931441 142.027 0.981291 142.099 1.03115C142.272 1.00872 142.451 0.998769 142.621 0.963865C142.803 0.928962 142.968 0.916493 143.109 1.05361C143.139 1.08353 143.181 1.12589 143.216 1.1234C143.349 1.11342 143.48 1.0885 143.611 1.06856C143.741 1.04861 143.875 1.02867 144.005 1.00872C144.157 1.07105 144.253 1.25055 144.467 1.19321C144.595 1.15831 144.731 1.15083 144.861 1.13088C144.992 1.11094 145.125 1.0885 145.256 1.07105C145.299 1.06607 145.347 1.05359 145.384 1.06356C145.424 1.07354 145.459 1.10845 145.493 1.13338C145.6 1.20568 145.699 1.27799 145.851 1.2356C145.979 1.2007 146.115 1.19322 146.245 1.17078C146.424 1.14336 146.424 1.14336 146.72 1.30043C146.84 1.36525 146.976 1.28049 147.09 1.33533C147.168 1.37273 147.234 1.43504 147.309 1.47743C147.341 1.49488 147.392 1.50235 147.429 1.49736C147.605 1.47492 147.784 1.4525 147.957 1.4151C148.098 1.38518 148.216 1.4151 148.314 1.50485C148.386 1.56967 148.458 1.59711 148.549 1.58215C148.989 1.51234 149.429 1.45249 149.866 1.3752C150.016 1.34778 150.136 1.39017 150.218 1.47992C150.36 1.63449 150.56 1.4525 150.706 1.57716C150.797 1.65444 150.888 1.7442 151.053 1.7068C151.357 1.64198 151.666 1.60706 151.973 1.56218C152.082 1.6295 152.191 1.69683 152.303 1.76414C152.479 1.73671 152.655 1.70927 152.831 1.68434C152.962 1.6644 153.095 1.64196 153.226 1.62451C153.269 1.61952 153.314 1.60955 153.354 1.62202C153.394 1.63448 153.426 1.6669 153.463 1.69183C153.647 1.81399 153.647 1.8165 153.951 1.76663C154.082 1.7442 154.207 1.72924 154.317 1.82896C154.418 1.92121 154.538 1.93865 154.677 1.91122C154.938 1.86136 155.202 1.82397 155.469 1.78906C155.551 1.7766 155.629 1.81898 155.698 1.8838C155.802 1.98602 155.93 1.97605 156.061 1.94863C156.234 1.91372 156.404 1.87883 156.551 2.01844C156.58 2.04836 156.626 2.09072 156.658 2.08822C156.876 2.06828 157.098 2.05333 157.311 2.00596C157.524 1.95859 157.628 2.11316 157.775 2.18795C157.994 2.15554 158.215 2.12313 158.434 2.09072C158.476 2.08324 158.527 2.06081 158.564 2.07328C158.722 2.12563 158.812 2.31261 159.028 2.25527C159.154 2.22286 159.29 2.2129 159.42 2.20542C159.455 2.20293 159.5 2.24529 159.524 2.2777C159.538 2.29515 159.524 2.34252 159.508 2.36745C159.46 2.43725 159.402 2.50209 159.359 2.57439C159.354 2.58437 159.404 2.62922 159.434 2.64917C159.506 2.69404 159.588 2.68658 159.684 2.66664C159.767 2.64919 159.852 2.68409 159.911 2.75888C159.935 2.7888 159.927 2.83865 159.876 3.0032C159.876 3.12536 159.932 3.0705 159.951 2.99072C159.98 2.87604 159.924 2.83865 159.818 2.90097C159.743 2.94585 159.706 3.01068 159.724 3.06303C159.735 3.09046 159.786 3.12536 159.876 3.0032C160.111 2.85361 160.287 2.8262 160.463 2.79878C160.508 2.7913 160.562 2.76635 160.594 2.78131C160.708 2.84114 160.815 2.91346 160.927 2.98077C161.055 2.96581 161.175 2.9284 161.3 3.02563C161.476 3.16275 161.484 3.15029 161.655 3.12286C161.743 3.1079 161.831 3.09546 161.919 3.083C162.007 3.07053 162.076 3.10792 162.153 3.16526C162.311 3.28243 162.324 3.28242 162.428 3.12286C162.489 3.02563 162.532 2.99323 162.609 3.03811C162.865 3.19018 162.868 3.20015 163.087 3.15527C163.268 3.11788 163.439 3.10791 163.572 3.25001C163.663 3.34974 163.692 3.3273 163.764 3.22259C163.956 2.94586 164.044 2.95084 164.404 3.15028C164.572 3.24502 164.745 3.14281 164.916 3.13035C165.06 3.12038 165.161 3.1802 165.172 3.33727C165.18 3.4345 165.204 3.50431 165.3 3.53672C165.337 3.54919 165.383 3.56664 165.42 3.56165C165.641 3.53173 165.86 3.49682 166.081 3.46192C166.193 3.44447 166.254 3.32731 166.233 3.17274C166.209 3.0082 166.252 2.94834 166.412 2.90097C166.508 2.87355 166.585 2.87856 166.662 2.92343C166.748 2.9733 166.724 3.01817 166.649 3.10792C166.47 3.32731 166.492 3.46192 166.721 3.61399C166.801 3.66635 166.865 3.71374 166.884 3.79103C166.894 3.83091 166.884 3.88327 166.908 3.91318C167.038 4.08022 167.22 4.18744 167.422 4.26721C167.617 4.1999 167.75 4.31207 167.9 4.40182C168.017 4.47163 168.156 4.41181 168.281 4.38688C168.422 4.35945 168.54 4.37939 168.641 4.47163C168.713 4.53646 168.788 4.56636 168.876 4.5539C169.052 4.52647 169.23 4.50903 169.404 4.46914C169.553 4.43424 169.665 4.4841 169.758 4.56887C169.876 4.67607 170.006 4.60376 170.129 4.61872C170.294 4.63617 170.377 4.85805 170.593 4.79821C170.721 4.76331 170.854 4.75085 170.987 4.74088C171.022 4.73839 171.065 4.78078 171.094 4.81069C171.235 4.94781 171.401 4.94033 171.582 4.90044C171.707 4.87302 171.83 4.8481 171.953 4.94283C172.155 5.10239 172.379 5.24201 172.593 5.38911C172.622 5.50379 172.601 5.63839 172.753 5.7057C172.833 5.74061 172.907 5.79298 172.969 5.85032C173.043 5.91764 173.113 5.93509 173.209 5.91764C173.382 5.88274 173.563 5.87523 173.734 5.83036C173.891 5.79047 173.99 5.87277 174.086 5.95005C174.163 6.01238 174.235 6.04228 174.329 5.99741C174.425 5.95502 174.494 5.98244 174.571 6.04975C174.681 6.142 174.689 6.13204 175.051 6.15946C175.089 6.16196 175.134 6.19933 175.155 6.23174C175.166 6.2492 175.142 6.29909 175.123 6.32402C175.099 6.35393 175.062 6.38882 175.027 6.3963C174.633 6.46112 174.235 6.51846 173.841 6.58328C173.801 6.59076 173.758 6.60823 173.729 6.63316C173.697 6.66058 173.657 6.69795 173.657 6.73286C173.657 6.75779 173.71 6.78772 173.747 6.80517C173.865 6.86251 174.003 6.77525 174.118 6.84007C174.195 6.88246 174.259 6.94228 174.337 6.98217C174.369 6.99962 174.419 6.99714 174.459 6.99215C174.593 6.9747 174.723 6.94977 174.857 6.93481C174.894 6.93232 174.937 6.95726 174.971 6.97721C175.227 7.12679 175.227 7.12678 175.449 7.09437C175.536 7.08191 175.63 7.04451 175.712 7.05947C175.792 7.07443 175.862 7.14174 175.934 7.18412C176.083 7.27387 176.224 7.36113 176.235 7.55559C176.24 7.63038 176.328 7.69519 176.416 7.70018C176.502 7.70517 176.592 7.67777 176.68 7.66281C176.888 7.63289 176.888 7.63289 177.158 7.78497C177.232 7.82735 177.312 7.83233 177.408 7.8074C177.446 7.79742 177.491 7.80741 177.531 7.81987C177.662 7.85727 177.662 7.90463 177.576 7.99438C177.456 8.12651 177.467 8.13898 177.803 8.25117C177.931 8.29356 178.03 8.37334 178.136 8.44315C178.31 8.55534 178.307 8.55532 178.192 8.70241C178.166 8.73482 178.142 8.76973 178.115 8.80463C178.038 8.90186 177.976 9.00657 177.816 9.01654C177.64 9.02651 177.464 9.06642 177.288 9.09384C177.118 9.12126 177.072 9.18108 177.088 9.35061C177.107 9.55504 177.142 9.57748 177.448 9.57499C177.536 9.57499 177.614 9.59493 177.68 9.66224C177.648 9.74202 177.59 9.80435 177.504 9.81931C177.286 9.85671 177.064 9.88912 176.846 9.92153C176.67 9.94896 176.494 9.97637 176.318 10.0038C176.208 10.0212 176.139 10.1509 176.168 10.2955C176.184 10.3778 176.198 10.46 176.211 10.5423C176.24 10.7069 176.296 10.7493 176.475 10.7418C176.52 10.7393 176.563 10.7193 176.606 10.7243C176.779 10.7418 176.862 10.9487 177.07 10.9063C177.243 10.8714 177.424 10.8639 177.595 10.819C177.752 10.7792 177.84 10.8689 177.95 10.9362C177.987 10.9587 178.027 11.006 178.059 11.0035C178.28 10.9761 178.502 10.9487 178.718 10.9013C178.819 10.8814 178.88 10.8963 178.96 10.9562C179.152 11.1008 179.158 11.0933 179.443 11.0484C179.651 11.0135 179.654 11.0185 179.92 11.1706C179.995 11.213 180.075 11.213 180.171 11.193C180.296 11.1681 180.427 11.1282 180.557 11.1656C180.597 11.1756 180.648 11.2055 180.661 11.2379C180.669 11.2603 180.632 11.3152 180.6 11.3326C180.366 11.4623 180.091 11.4398 179.835 11.4922C179.755 11.5072 179.675 11.4598 179.608 11.3925C179.539 11.3252 179.464 11.2977 179.374 11.3102C179.198 11.3376 179.019 11.3551 178.846 11.395C178.696 11.4299 178.592 11.3725 178.488 11.2952C178.454 11.2703 178.414 11.2229 178.379 11.2254C177.984 11.2753 177.587 11.3252 177.195 11.395C177.038 11.4249 176.947 11.3451 176.84 11.2778C176.803 11.2554 176.766 11.208 176.731 11.2105C176.598 11.2204 176.467 11.2479 176.334 11.2678C175.848 11.3426 175.366 11.4174 174.881 11.4872C174.849 11.4922 174.809 11.4398 174.771 11.4174C174.699 11.3725 174.625 11.3301 174.55 11.2877C174.417 11.3077 174.286 11.3326 174.153 11.3476C174.057 11.3575 173.971 11.3925 173.958 11.4872C173.95 11.5495 174.038 11.6069 174.131 11.6019C174.222 11.5969 174.313 11.567 174.387 11.5994C174.758 11.7589 174.758 11.7614 174.99 11.729C175.193 11.6991 175.171 11.6742 175.35 11.8113C175.427 11.8711 175.497 11.906 175.584 11.8911C175.803 11.8562 176.024 11.8213 176.246 11.7914C176.28 11.7864 176.326 11.8113 176.36 11.8313C176.622 11.9808 176.622 11.9858 176.838 11.9484C177.12 11.9035 177.131 11.8911 177.32 12.0432C177.451 12.1479 177.571 12.0756 177.696 12.0706C177.84 12.1678 177.998 12.2551 178.128 12.3648C178.283 12.4944 178.446 12.472 178.622 12.4346C178.752 12.4071 178.88 12.3972 178.987 12.4994C179.088 12.5941 179.211 12.6041 179.35 12.5792C179.475 12.5567 179.603 12.5094 179.734 12.5642C179.768 12.5792 179.822 12.6166 179.819 12.639C179.816 12.6739 179.781 12.7238 179.747 12.7387C179.502 12.841 179.232 12.8385 178.974 12.8858C178.939 12.8933 178.894 12.8659 178.859 12.8459C178.784 12.8011 178.712 12.7487 178.64 12.7013C178.51 12.7163 178.376 12.7213 178.248 12.7512C178.15 12.7736 178.075 12.7712 178.003 12.7113C177.936 12.6565 177.864 12.5891 177.784 12.5717C177.704 12.5542 177.611 12.5916 177.523 12.6066C177.435 12.6216 177.334 12.6141 177.264 12.654C177.195 12.6938 177.152 12.7811 177.107 12.8509C177.056 12.9282 176.987 12.9532 176.886 12.9606C176.792 12.9681 176.718 12.9581 176.648 12.8883C176.619 12.8584 176.579 12.836 176.539 12.816C176.502 12.7986 176.459 12.7711 176.424 12.7761C176.027 12.8335 175.632 12.8958 175.235 12.9556C175.038 12.9856 175.041 12.9855 174.63 12.8384C174.593 12.826 174.547 12.8085 174.51 12.8135C174.289 12.8434 174.07 12.8783 173.849 12.9132C173.625 12.9481 173.627 12.9432 173.246 12.7861C173.177 12.7562 173.075 12.7961 172.993 12.7911C172.819 12.7786 172.734 12.5692 172.531 12.6091C172.358 12.644 172.177 12.6515 172.003 12.6963C171.846 12.7362 171.755 12.649 171.649 12.5817C171.611 12.5592 171.571 12.5094 171.539 12.5144C171.142 12.5692 170.747 12.6315 170.22 12.639C170.089 12.639 170.148 12.6914 170.233 12.7088C170.356 12.7363 170.396 12.6839 170.329 12.5842C170.281 12.5144 170.212 12.4794 170.156 12.4969C170.126 12.5069 170.089 12.5542 170.22 12.639C170.358 12.7338 170.35 12.7861 170.374 12.816C170.433 12.8883 170.516 12.9182 170.601 12.9083C170.734 12.8908 170.865 12.8659 170.998 12.8509C171.035 12.8459 171.081 12.8634 171.115 12.8833C171.409 13.0379 171.411 13.0479 171.723 12.9881C171.822 12.9706 171.894 12.9706 171.971 13.018C172.078 13.0828 172.155 13.1925 172.318 13.1576C172.534 13.1102 172.755 13.0828 172.977 13.0554C173.011 13.0504 173.049 13.0953 173.089 13.1152C173.198 13.175 173.278 13.2872 173.441 13.2399C173.566 13.2025 173.702 13.1925 173.835 13.185C173.87 13.1825 173.923 13.2224 173.939 13.2548C173.971 13.3121 173.931 13.3795 173.841 13.4268C173.803 13.4468 173.753 13.4418 173.71 13.4493C173.534 13.4767 173.358 13.5066 173.182 13.529C173.089 13.5415 173.001 13.5789 172.99 13.6712C172.982 13.7335 173.078 13.7883 173.169 13.7833C173.302 13.7759 173.435 13.7559 173.563 13.7235C173.79 13.6687 173.987 13.6836 174.171 13.8407C174.302 13.9504 174.294 13.9105 174.433 14.2346C174.467 14.3169 174.571 14.3243 174.662 14.3194C174.881 14.3069 174.982 14.3443 174.963 14.4216C174.939 14.5163 174.862 14.5462 174.763 14.5587C174.587 14.5786 174.411 14.6111 174.235 14.6385C174.193 14.646 174.145 14.6609 174.105 14.6559C174.065 14.6509 174.027 14.621 173.993 14.5986C173.918 14.5512 173.854 14.4789 173.774 14.4614C173.694 14.444 173.601 14.4814 173.513 14.4964C173.425 14.5088 173.331 14.5462 173.251 14.5288C173.171 14.5113 173.105 14.4365 173.033 14.3917C172.998 14.3692 172.955 14.3343 172.921 14.3368C172.745 14.3567 172.569 14.3892 172.393 14.4141C172.177 14.4465 172.177 14.4465 171.915 14.2919C171.841 14.2471 171.763 14.2496 171.665 14.2695C171.451 14.3094 171.449 14.3019 171.059 14.1573C171.022 14.1423 170.977 14.1249 170.939 14.1324C170.542 14.1897 170.148 14.252 169.753 14.3119C169.414 14.3642 169.414 14.3642 169.228 14.6136C169.089 14.798 169.086 14.798 169.222 14.8828C169.332 14.9526 169.43 15.0548 169.55 15.0922C169.662 15.1271 169.801 15.0149 169.924 15.1296C169.985 15.187 170.065 15.2493 170.142 15.2593C170.265 15.2717 170.396 15.1994 170.513 15.3091C170.572 15.364 170.66 15.4213 170.734 15.4238C170.865 15.4288 170.998 15.3889 171.129 15.3714C171.169 15.3664 171.214 15.3665 171.251 15.3789C171.291 15.3939 171.326 15.4238 171.361 15.4487C171.467 15.5335 171.582 15.5734 171.721 15.531C171.947 15.4612 172.15 15.4961 172.326 15.6557C172.35 15.6781 172.409 15.6806 172.446 15.6706C172.542 15.6457 172.625 15.6432 172.697 15.6906C172.726 15.7105 172.769 15.7454 172.763 15.7678C172.755 15.8052 172.723 15.8551 172.689 15.8676C172.438 15.9523 172.169 15.9623 171.91 16.0072C171.875 16.0122 171.833 15.9797 171.798 15.9573C171.723 15.9124 171.659 15.8377 171.579 15.8202C171.499 15.8028 171.406 15.8352 171.318 15.8476C171.23 15.8601 171.137 15.8975 171.057 15.8825C170.977 15.8651 170.902 15.8027 170.838 15.7479C170.763 15.6856 170.692 15.6781 170.593 15.703C170.465 15.7354 170.332 15.7404 170.201 15.7579C170.129 15.7105 170.057 15.6581 169.982 15.6133C169.948 15.5908 169.905 15.5634 169.868 15.5659C169.692 15.5858 169.516 15.6157 169.34 15.6432C169.164 15.6706 169.164 15.6706 168.865 15.5161C168.83 15.4986 168.785 15.4787 168.748 15.4836C168.526 15.5136 168.308 15.5509 168.086 15.5808C168.001 15.5933 167.924 15.5584 167.854 15.4911C167.788 15.4238 167.708 15.3864 167.625 15.3989C167.273 15.4512 166.921 15.5011 166.569 15.5634C166.428 15.5883 166.308 15.5659 166.212 15.4762C166.1 15.3739 165.975 15.3989 165.844 15.4188C165.548 15.4687 165.545 15.4662 165.356 15.339C165.319 15.3141 165.281 15.2667 165.247 15.2692C164.94 15.3066 164.631 15.3415 164.327 15.4013C164.167 15.4338 164.081 15.3465 163.975 15.2817C163.937 15.2592 163.897 15.2119 163.865 15.2169C163.644 15.2443 163.423 15.2692 163.207 15.3191C162.991 15.3689 162.908 15.1371 162.745 15.1396C162.524 15.1421 162.305 15.1994 162.087 15.2343C161.911 15.2618 161.735 15.2892 161.559 15.3166C161.383 15.344 161.207 15.3664 161.031 15.3989C160.938 15.4163 160.868 15.3939 160.791 15.3315C160.692 15.2493 160.575 15.1845 160.468 15.1097C160.306 15.0025 160.306 15.0025 160.108 15.0324C160.066 15.0399 160.02 15.0448 159.978 15.0523C159.655 15.1072 159.655 15.1022 159.244 14.9451C159.226 14.9376 159.178 14.9651 159.159 14.985C159.103 15.0498 159.052 15.1196 159.002 15.1869C158.93 15.1471 158.842 15.1246 158.794 15.0673C158.658 14.9052 158.444 15.1271 158.306 14.9676C158.255 14.9077 158.167 14.8554 158.087 14.8404C158.004 14.8254 157.911 14.8604 157.826 14.8753C157.604 14.9127 157.604 14.9102 157.415 15.1321C157.319 15.2418 157.18 15.2218 157.055 15.2468C156.924 15.2742 156.799 15.2892 156.69 15.1869C156.591 15.0947 156.471 15.0723 156.33 15.1022C156.157 15.1396 155.978 15.162 155.802 15.1845C155.765 15.1894 155.719 15.177 155.682 15.162C155.274 15.0149 155.274 15.0124 155.077 15.0449C154.989 15.0598 154.898 15.0648 154.813 15.0872C154.669 15.1271 154.559 15.0748 154.455 14.995C154.421 14.97 154.381 14.9227 154.346 14.9252C154.17 14.9377 153.997 14.9601 153.823 14.9825C153.69 15 153.557 15.01 153.429 15.0449C153.215 15.1022 153.111 14.9401 152.965 14.8653C152.746 14.8977 152.525 14.9202 152.306 14.9651C152.205 14.985 152.138 14.9775 152.061 14.9177C151.962 14.8429 151.871 14.7581 151.712 14.7955C151.498 14.8454 151.274 14.8629 151.056 14.8928C150.909 14.8155 150.802 14.6584 150.592 14.7157C150.464 14.7507 150.328 14.7581 150.197 14.7781C150.021 14.8055 149.845 14.8305 149.669 14.8604C149.48 14.8903 149.482 14.8828 149.192 14.7357C149.024 14.6485 148.85 14.7457 148.68 14.7606C148.546 14.7731 148.48 14.8878 148.512 15.0349C148.544 15.182 148.472 15.2966 148.349 15.3166C148.042 15.364 147.733 15.4138 147.426 15.4562C147.389 15.4612 147.344 15.4437 147.309 15.4263C146.981 15.2692 146.981 15.2717 146.835 15.2942C146.616 15.3316 146.392 15.3515 146.176 15.3989C146.027 15.4313 145.917 15.3789 145.821 15.2942C145.747 15.2293 145.677 15.2144 145.581 15.2293C144.525 15.3964 143.469 15.5509 142.416 15.723C142.259 15.7479 142.168 15.6756 142.062 15.6083C142.024 15.5859 141.99 15.5385 141.952 15.5385C141.864 15.5385 141.776 15.5609 141.688 15.5759C141.294 15.6357 140.899 15.708 140.502 15.7529C140.334 15.7728 140.288 15.8875 140.216 15.9823C140.16 16.0546 140.096 16.0845 139.998 16.0944C139.902 16.1044 139.832 16.0919 139.758 16.0271C139.662 15.9424 139.552 15.89 139.403 15.9249C139.23 15.9648 139.054 15.9823 138.875 16.0097C138.784 16.0221 138.715 16.067 138.686 16.1568C138.68 16.1717 138.736 16.2091 138.768 16.2316C138.875 16.3064 138.976 16.3936 139.096 16.446C139.219 16.4983 139.352 16.4385 139.48 16.4235C139.526 16.4185 139.568 16.4036 139.611 16.4061C139.651 16.4086 139.699 16.421 139.728 16.4435C139.867 16.5557 140.014 16.6329 140.206 16.5656C140.371 16.598 140.456 16.805 140.667 16.7501C140.795 16.7177 140.928 16.7028 141.062 16.6903C141.096 16.6878 141.134 16.7327 141.171 16.7551C141.278 16.8174 141.363 16.9172 141.523 16.8748C141.694 16.8299 141.875 16.8224 142.048 16.7875C142.144 16.7676 142.213 16.785 142.288 16.8498C142.384 16.9321 142.493 16.9944 142.643 16.9545C142.771 16.9196 142.907 16.9122 143.037 16.8897C143.208 16.8623 143.208 16.8648 143.512 17.0194C143.547 17.0368 143.592 17.0568 143.629 17.0518C143.851 17.0219 144.069 16.9845 144.291 16.9545C144.376 16.9421 144.459 16.9745 144.517 17.0468C144.541 17.0767 144.533 17.1266 144.541 17.169C144.101 17.2363 143.661 17.2936 143.224 17.3759C143.059 17.4083 142.984 17.3061 142.875 17.2487C142.837 17.2288 142.797 17.1864 142.763 17.1914C142.453 17.2338 142.147 17.2786 141.84 17.3335C141.744 17.3509 141.672 17.341 141.6 17.2687C141.416 17.0767 141.192 17.1814 140.984 17.2088C140.824 17.2288 140.774 17.3061 140.792 17.4706C140.816 17.6651 140.912 17.7249 141.158 17.69C141.246 17.6776 141.334 17.6601 141.422 17.6501C141.507 17.6402 141.584 17.6726 141.654 17.7399C141.72 17.8072 141.8 17.8421 141.883 17.8321C142.059 17.8097 142.237 17.7873 142.408 17.7499C142.549 17.7199 142.667 17.7449 142.765 17.8371C142.875 17.9393 143.003 17.9169 143.131 17.8944C143.429 17.8446 143.432 17.8471 143.619 17.9717C143.656 17.9967 143.693 18.0441 143.728 18.0416C144.035 18.0042 144.344 17.9717 144.645 17.9119C144.803 17.882 144.893 17.9618 144.997 18.0266C145.035 18.049 145.072 18.0989 145.107 18.0939C145.328 18.0665 145.549 18.039 145.765 17.9917C145.867 17.9692 145.928 17.9842 146.011 18.044C146.208 18.1911 146.213 18.1861 146.493 18.1388C146.579 18.1238 146.672 18.0964 146.752 18.1163C146.832 18.1363 146.896 18.2086 146.971 18.2535C147.005 18.2734 147.048 18.3008 147.085 18.2958C147.261 18.2759 147.437 18.246 147.613 18.2186C147.778 18.1911 147.778 18.1936 148.088 18.3482C148.213 18.413 148.344 18.3582 148.469 18.3382C148.605 18.3158 148.728 18.3158 148.832 18.413C148.936 18.5103 149.061 18.5052 149.194 18.4853C149.32 18.4654 149.448 18.4105 149.576 18.4778C149.869 18.6324 149.869 18.6349 150.05 18.605C150.314 18.5626 150.576 18.5227 150.842 18.4853C150.877 18.4803 150.922 18.5102 150.957 18.5302C151.032 18.5751 151.096 18.6498 151.176 18.6673C151.256 18.6872 151.349 18.6573 151.434 18.6424C151.709 18.595 151.728 18.5776 151.911 18.7421C152.066 18.8767 152.258 18.6823 152.402 18.8368C152.485 18.9241 152.597 18.9939 152.751 18.9515C152.879 18.9166 153.013 18.9066 153.146 18.8867C153.357 18.8543 153.357 18.8568 153.623 19.0064C153.658 19.0263 153.703 19.0512 153.738 19.0463C153.914 19.0263 154.093 19.0089 154.263 18.964C154.463 18.9116 154.591 19.0064 154.741 19.0986C154.858 19.1709 154.997 19.1111 155.122 19.0861C155.258 19.0612 155.381 19.0687 155.482 19.1659C155.589 19.2656 155.714 19.2532 155.847 19.2332C155.973 19.2158 156.101 19.1584 156.229 19.2282C156.503 19.3828 156.503 19.3828 156.703 19.3529C156.879 19.3255 157.055 19.2956 157.231 19.2756C157.266 19.2706 157.308 19.303 157.343 19.3255C157.418 19.3704 157.482 19.4452 157.562 19.4626C157.642 19.4801 157.735 19.4477 157.823 19.4352C157.911 19.4227 158.004 19.3853 158.084 19.4003C158.164 19.4152 158.239 19.4776 158.303 19.5324C158.378 19.5972 158.447 19.6047 158.548 19.5798C158.676 19.5474 158.81 19.5399 158.94 19.5224C159.012 19.5698 159.087 19.6172 159.156 19.6695C159.228 19.7244 159.306 19.7194 159.404 19.7019C159.732 19.6421 159.735 19.6496 160.01 19.8042C160.135 19.874 160.266 19.8166 160.391 19.7992C160.524 19.7792 160.65 19.7693 160.754 19.869C160.855 19.9637 160.98 19.9762 161.114 19.9463C161.199 19.9263 161.289 19.9139 161.377 19.9064C161.417 19.9039 161.465 19.9139 161.495 19.9338C161.636 20.0385 161.775 20.1333 161.969 20.0659C162.14 20.0859 162.225 20.2903 162.431 20.2504C162.604 20.2155 162.785 20.208 162.956 20.1632C163.113 20.1233 163.225 20.1931 163.305 20.2803C163.449 20.4349 163.652 20.2255 163.796 20.3776C163.879 20.4648 163.985 20.5346 164.145 20.4972C164.321 20.4574 164.377 20.5097 164.428 20.6668C164.457 20.7565 164.452 20.8288 164.399 20.8986C164.345 20.9709 164.287 20.9585 164.201 20.8762C164.103 20.784 163.985 20.7665 163.844 20.7864C163.705 20.8064 163.62 20.6768 163.505 20.6269C163.391 20.5745 163.255 20.6618 163.135 20.5945C162.852 20.4374 162.852 20.4374 162.66 20.4673C162.529 20.4873 162.393 20.4973 162.265 20.5322C162.113 20.5745 162.015 20.4972 161.911 20.4274C161.873 20.4025 161.836 20.3551 161.804 20.3576C161.497 20.395 161.188 20.4299 160.884 20.4923C160.724 20.5247 160.639 20.4349 160.532 20.3726C160.495 20.3502 160.455 20.3053 160.423 20.3103C160.159 20.3452 159.898 20.39 159.634 20.4324C159.583 20.4997 159.527 20.5645 159.479 20.6368C159.428 20.7116 159.359 20.7441 159.258 20.7416C159.09 20.7416 158.924 20.8463 158.756 20.7141C158.583 20.5795 158.57 20.587 158.402 20.6194C158.188 20.6618 157.962 20.6518 157.762 20.7491C157.727 20.7665 157.69 20.8138 157.69 20.8488C157.687 20.8712 157.743 20.9036 157.778 20.9236C157.895 20.9834 158.031 20.8961 158.148 20.9585C158.226 20.9984 158.29 21.0582 158.367 21.1006C158.399 21.118 158.447 21.1155 158.49 21.113C158.535 21.1105 158.578 21.0931 158.62 21.0956C158.66 21.0981 158.703 21.113 158.735 21.1355C158.882 21.2302 159.036 21.3175 159.167 21.4297C159.295 21.5394 159.415 21.4646 159.543 21.4596C160.055 21.6341 160.055 21.6366 160.399 21.5817C160.484 21.5693 160.572 21.5543 160.66 21.5568C160.698 21.5568 160.732 21.6017 160.77 21.6266C160.876 21.7014 160.978 21.7687 161.127 21.7288C161.255 21.6939 161.391 21.6864 161.521 21.664C161.697 21.6366 161.697 21.6366 161.996 21.7936C162.071 21.8335 162.151 21.8286 162.247 21.8086C162.329 21.7912 162.415 21.8286 162.473 21.9009C162.497 21.9308 162.489 21.9806 162.497 22.023C162.233 22.0629 161.967 22.0903 161.711 22.1502C161.545 22.1876 161.471 22.0804 161.361 22.023C161.324 22.0031 161.284 21.9607 161.25 21.9657C160.988 22.0031 160.727 22.0454 160.466 22.0953C160.434 22.1003 160.394 22.1576 160.391 22.1925C160.386 22.2574 160.452 22.3197 160.548 22.3172C160.676 22.3147 160.802 22.2723 160.916 22.3745C161.012 22.4643 161.132 22.5042 161.273 22.4643C161.359 22.4419 161.45 22.4419 161.535 22.4219C161.761 22.3621 161.967 22.3745 162.137 22.5441C162.268 22.5889 162.396 22.5466 162.521 22.5241C162.615 22.5067 162.705 22.4892 162.772 22.5366C162.913 22.6363 163.052 22.736 163.247 22.6687C163.457 22.7385 163.617 22.8856 163.793 23.0053C163.876 23.0626 163.94 23.0951 164.036 23.0577C164.076 23.0427 164.124 23.0427 164.167 23.0352C164.255 23.0227 164.348 22.9853 164.428 23.0003C164.508 23.0177 164.575 23.0901 164.647 23.1349C164.681 23.1574 164.721 23.1948 164.756 23.1923C164.889 23.1798 165.02 23.1549 165.151 23.1349C165.281 23.1175 165.412 23.1 165.542 23.0826C165.652 23.1474 165.764 23.2122 165.873 23.2771C166.049 23.2496 166.225 23.2222 166.398 23.1973C166.593 23.1673 166.593 23.1698 166.873 23.3244C166.998 23.3942 167.132 23.3493 167.252 23.3169C167.452 23.2646 167.585 23.3593 167.726 23.459C167.756 23.479 167.809 23.4914 167.844 23.4815C167.982 23.4466 168.102 23.474 168.204 23.5662C168.276 23.6311 168.348 23.661 168.436 23.6485C168.742 23.6012 169.049 23.5513 169.356 23.5089C169.393 23.5039 169.436 23.5264 169.47 23.5463C169.742 23.6984 169.745 23.7059 169.945 23.666C170.124 23.6311 170.289 23.6161 170.43 23.7532C170.46 23.7831 170.505 23.8255 170.537 23.823C170.755 23.7981 170.977 23.7707 171.193 23.7283C171.291 23.7083 171.361 23.7158 171.438 23.7732C171.537 23.8455 171.625 23.9327 171.787 23.9003C172.238 23.8081 172.241 23.823 172.774 23.995C172.811 24.0075 172.862 23.9876 172.905 23.9776C172.995 23.9527 173.062 23.9876 173.142 24.0449C173.321 24.1746 173.326 24.1671 173.497 24.1397C173.627 24.1172 173.763 24.1122 173.891 24.0748C174.089 24.02 174.219 24.1172 174.366 24.2095C174.483 24.2818 174.619 24.2219 174.745 24.1995C174.881 24.1746 175.003 24.182 175.105 24.2768C175.174 24.3416 175.248 24.3765 175.336 24.364C175.643 24.3192 175.95 24.2693 176.256 24.2244C176.294 24.2194 176.339 24.2394 176.374 24.2568C176.678 24.4114 176.678 24.4189 176.979 24.3615C177.075 24.3441 177.155 24.3391 177.227 24.3915C177.296 24.4413 177.371 24.4887 177.443 24.536C177.574 24.5186 177.707 24.5136 177.835 24.4837C177.934 24.4613 178.003 24.4712 178.08 24.5236C178.182 24.5909 178.267 24.7081 178.427 24.6507C178.51 24.6233 178.606 24.6308 178.688 24.6059C178.787 24.5735 178.854 24.5934 178.931 24.6582C179.027 24.7355 179.126 24.8153 179.28 24.7754C179.451 24.7305 179.632 24.723 179.805 24.6881C179.901 24.6682 179.968 24.6881 180.046 24.7529C180.141 24.8352 180.251 24.8876 180.4 24.8552C180.704 24.7928 180.707 24.8053 181.003 24.9624C181.077 25.0022 181.157 24.9973 181.253 24.9773C181.336 24.9599 181.421 24.9973 181.48 25.0696C181.536 25.1494 181.531 25.1992 181.536 25.2416ZM157.775 2.75639C157.687 2.76885 157.599 2.78381 157.471 2.56691C157.463 2.52951 157.468 2.48465 157.45 2.45224C157.407 2.38492 157.34 2.33756 157.26 2.33008C157.116 2.3201 156.943 2.40485 156.946 2.46967C156.948 2.52452 156.994 2.57188 157.082 2.61676C157.119 2.63421 157.148 2.66413 157.183 2.68408C157.284 2.74142 157.364 2.85362 157.511 2.79628C157.484 2.64171 157.498 2.719 157.511 2.79628C157.498 2.89102 157.538 2.95834 157.634 2.98576C157.66 2.99324 157.7 2.98824 157.722 2.97328C157.804 2.91844 157.818 2.84366 157.756 2.6467C157.746 2.67911 157.754 2.73644 157.778 2.75139C157.802 2.76635 157.86 2.7539 157.89 2.73645C157.964 2.68908 158.002 2.62675 157.983 2.57439C157.972 2.54697 157.922 2.51207 157.89 2.51207C157.834 2.51207 157.783 2.56691 157.775 2.75639ZM179.336 31.6688C179.142 31.7162 178.918 31.6987 178.723 31.7959C178.688 31.8134 178.654 31.8583 178.651 31.8932C178.648 31.9156 178.702 31.948 178.734 31.9655C178.806 32.0054 178.886 31.9929 178.979 31.9804C179.12 31.963 179.203 32.0777 179.312 32.135C179.347 32.1524 179.392 32.1649 179.43 32.1599C179.646 32.13 179.859 32.0976 180.075 32.0627C180.112 32.0552 180.152 32.0378 180.184 32.0153C180.291 31.943 180.28 31.8957 180.176 31.8408C180.062 31.781 179.971 31.6812 179.854 31.6339C179.686 31.5666 179.515 31.6563 179.336 31.6688ZM164.193 33.4888C164.063 33.5087 163.935 33.5286 163.804 33.5486C163.761 33.5561 163.716 33.5585 163.676 33.5685C163.593 33.586 163.532 33.6383 163.492 33.7206C163.553 33.7854 163.628 33.8228 163.711 33.8153C163.841 33.8004 163.969 33.768 164.1 33.7605C164.241 33.7505 164.324 33.8627 164.433 33.9201C164.468 33.9375 164.511 33.94 164.551 33.9425C164.748 33.9525 164.868 33.8228 164.831 33.6408C164.804 33.4987 164.703 33.414 164.58 33.4314C164.452 33.4489 164.321 33.4688 164.193 33.4888ZM180.248 27.984C180.28 27.9416 180.315 27.9117 180.331 27.8743C180.379 27.7472 180.36 27.6524 180.272 27.5527C180.165 27.4305 180.035 27.5128 179.915 27.5253C179.886 27.5278 179.854 27.5801 179.838 27.6125C179.827 27.635 179.827 27.6823 179.843 27.6948C179.974 27.7945 180.112 27.8868 180.248 27.984ZM157.116 20.6194C156.988 20.6394 156.858 20.6543 156.73 20.6817C156.698 20.6892 156.668 20.7366 156.65 20.769C156.615 20.8288 156.652 20.9111 156.762 20.9186C156.887 20.9285 157.018 20.8862 157.148 20.8662C157.314 20.8413 157.412 20.749 157.351 20.6693C157.292 20.592 157.212 20.577 157.116 20.6194ZM16.7557 15.2917C16.841 15.2792 16.929 15.2692 17.0143 15.2518C17.0943 15.2343 17.1557 15.1795 17.1957 15.0972C17.129 15.0324 17.0543 14.9975 16.9717 15.005C16.841 15.0199 16.713 15.0399 16.5851 15.0648C16.5051 15.0797 16.4278 15.1346 16.4091 15.2194C16.3904 15.2842 16.569 15.3216 16.7557 15.2917ZM145.84 14.9077C145.875 14.9302 145.909 14.975 145.944 14.975C146.029 14.975 146.117 14.9601 146.197 14.9351C146.232 14.9252 146.259 14.8803 146.275 14.8454C146.285 14.823 146.283 14.7831 146.267 14.7631C146.189 14.6435 145.88 14.6858 145.829 14.823C145.824 14.8479 145.837 14.8803 145.84 14.9077ZM137.427 1.25554C137.435 1.29543 137.438 1.33531 137.449 1.3752C137.47 1.44999 137.528 1.50485 137.614 1.54225C137.68 1.47992 137.715 1.41013 137.712 1.33533C137.71 1.29544 137.702 1.25553 137.691 1.21564C137.67 1.14085 137.611 1.08602 137.526 1.04862C137.459 1.10846 137.427 1.17825 137.427 1.25554ZM186.41 33.9226C186.386 33.955 186.362 33.9874 186.336 34.0173C186.408 34.0896 186.474 34.112 186.525 34.0721C186.557 34.0472 186.576 34.0098 186.6 33.9774C186.528 33.9051 186.464 33.8852 186.41 33.9226ZM184.752 34.2616C184.786 34.284 184.819 34.314 184.856 34.3289C184.917 34.3539 184.973 34.3115 185.016 34.2217C184.981 34.1993 184.949 34.1693 184.912 34.1544C184.85 34.1295 184.794 34.1719 184.752 34.2616ZM185.802 33.8054C185.784 33.8652 185.821 33.9151 185.92 33.9575C185.944 33.925 185.976 33.8951 185.992 33.8602C186.018 33.8029 185.973 33.7505 185.877 33.7106C185.85 33.7406 185.826 33.773 185.802 33.8054ZM180.173 31.1178C180.155 31.1777 180.192 31.2275 180.291 31.2699C180.315 31.2375 180.347 31.2076 180.363 31.1727C180.389 31.1153 180.344 31.063 180.248 31.0231C180.221 31.053 180.197 31.0854 180.173 31.1178ZM172.505 13.4767C172.481 13.5091 172.457 13.5415 172.43 13.5714C172.502 13.6437 172.569 13.6662 172.619 13.6263C172.651 13.6013 172.67 13.5639 172.694 13.5315C172.622 13.4592 172.558 13.4393 172.505 13.4767ZM165.159 4.1176C165.223 4.13506 165.276 4.10017 165.321 4.00792C165.287 3.98549 165.255 3.95556 165.217 3.9406C165.156 3.91567 165.1 3.95807 165.057 4.04782C165.092 4.07275 165.127 4.09517 165.159 4.1176ZM161.258 3.53173C161.234 3.56414 161.21 3.59656 161.183 3.62647C161.255 3.69877 161.321 3.7212 161.372 3.68131C161.404 3.65638 161.423 3.61898 161.447 3.58657C161.375 3.51427 161.311 3.49683 161.258 3.53173ZM134.803 1.25304C134.779 1.28545 134.755 1.31786 134.729 1.34778C134.801 1.42008 134.867 1.44251 134.918 1.40262C134.95 1.37769 134.969 1.34029 134.993 1.30788C134.921 1.23558 134.857 1.21814 134.803 1.25304ZM3.08198 21.5368C3.04731 21.5144 3.01268 21.492 2.98068 21.4671C2.90335 21.5344 2.87936 21.5967 2.92203 21.6441C2.94869 21.674 2.98866 21.6914 3.02332 21.7139C3.10332 21.6466 3.12197 21.5867 3.08198 21.5368Z" fill="#FFE492"/>
<path d="M18.5473 12.7332C18.2406 12.7806 17.9367 12.8403 17.63 12.8703C17.4674 12.8852 17.4087 12.9924 17.3421 13.092C17.2888 13.1718 17.2274 13.1967 17.1288 13.2116C16.2968 13.3337 15.4675 13.4633 14.6382 13.5904C14.5342 13.558 14.4836 13.5057 14.5076 13.4434C14.5209 13.406 14.5529 13.3537 14.5849 13.3487C15.1529 13.2565 15.7181 13.1618 16.2888 13.0895C16.4514 13.0696 16.4968 12.96 16.5794 12.8703C16.6061 12.8403 16.6275 12.7955 16.6621 12.7781C16.6968 12.7581 16.7474 12.7606 16.7928 12.7556C17.71 12.6136 18.6273 12.4741 19.5446 12.332C19.6486 12.3644 19.6993 12.4167 19.6753 12.479C19.6619 12.5164 19.6299 12.5688 19.5979 12.5737C19.2459 12.6261 18.8966 12.6784 18.5473 12.7332Z" fill="#FFE492"/>
<path d="M186.445 26.0091C186.307 26.039 186.131 26.0814 185.987 25.9369C185.917 25.8671 185.843 25.8447 185.752 25.8596C185.621 25.8846 185.488 25.9045 185.355 25.9194C185.32 25.9219 185.275 25.8945 185.24 25.8721C185.165 25.8272 185.101 25.7525 185.021 25.7325C184.941 25.7126 184.845 25.7674 184.763 25.755C184.653 25.7375 184.608 25.6702 184.637 25.608C184.653 25.5731 184.685 25.5232 184.72 25.5158C185.213 25.4236 185.216 25.4236 185.355 25.5133C185.461 25.583 185.56 25.6603 185.712 25.6179C185.84 25.583 185.976 25.5755 186.107 25.5531C186.288 25.5232 186.288 25.5257 186.581 25.6827C186.656 25.7226 186.736 25.7201 186.832 25.6977C186.915 25.6802 186.995 25.7201 187.061 25.7874C187.019 25.8721 186.957 25.9269 186.875 25.9419C186.741 25.9668 186.611 25.9842 186.445 26.0091Z" fill="#FFE492"/>
<path d="M181.536 25.2415C181.872 25.1891 182.211 25.1443 182.547 25.0845C182.686 25.0596 182.795 25.087 182.891 25.1717C182.995 25.2639 183.112 25.2565 183.24 25.239C183.32 25.229 183.398 25.2689 183.451 25.3387C183.472 25.3661 183.467 25.4159 183.475 25.4558C183.182 25.5007 182.886 25.548 182.59 25.5878C182.555 25.5928 182.512 25.5679 182.48 25.548C182.408 25.5056 182.347 25.4309 182.27 25.4159C182.104 25.381 181.939 25.4483 181.771 25.4608C181.691 25.4657 181.614 25.4284 181.56 25.3611C181.539 25.3287 181.544 25.2813 181.536 25.2415Z" fill="#FFE492"/>
<path d="M60.1185 3.8055C60.4678 3.75068 60.8171 3.69838 61.1664 3.64355C61.2704 3.67844 61.3184 3.72827 61.2971 3.79057C61.2837 3.82794 61.2517 3.88027 61.2197 3.88526C60.5211 3.99739 59.8225 4.10453 59.1266 4.21168C59.0226 4.17679 58.9746 4.12696 58.9959 4.06466C59.0093 4.02729 59.0413 3.97496 59.0733 3.96997C59.4199 3.91266 59.7692 3.86032 60.1185 3.8055Z" fill="#FFE492"/>
<path d="M6.29217 17.6595C6.13496 17.6645 5.96979 17.7567 5.79392 17.6869C5.75928 17.6745 5.71131 17.6346 5.71397 17.6122C5.7193 17.5748 5.75128 17.5274 5.78592 17.5125C5.9378 17.4502 6.12701 17.4427 6.20428 17.2683C6.24158 17.1786 6.31086 17.1487 6.40412 17.1313C6.50271 17.1113 6.57197 17.1188 6.64924 17.1711C6.7505 17.2384 6.83577 17.363 6.99565 17.2982C7.00364 17.3381 7.02225 17.3829 7.01425 17.4203C7.00626 17.4577 6.97168 17.4926 6.9397 17.52C6.91039 17.5449 6.87039 17.5673 6.83308 17.5748C6.65722 17.6047 6.48135 17.6296 6.29217 17.6595Z" fill="#FFE492"/>
<path d="M144.971 17.1585C145.102 17.1385 145.238 17.1286 145.366 17.0937C145.467 17.0663 145.531 17.0837 145.611 17.1435C145.747 17.2482 145.755 17.2382 146.088 17.2532C146.125 17.2557 146.171 17.293 146.192 17.3254C146.206 17.3429 146.187 17.3902 146.171 17.4152C146.147 17.4475 146.112 17.4899 146.08 17.4899C145.869 17.4974 145.656 17.6444 145.451 17.475C145.347 17.3902 145.232 17.3503 145.091 17.3877C145.006 17.4101 144.915 17.4201 144.827 17.4301C144.742 17.4401 144.654 17.4126 144.6 17.3379C144.523 17.2282 144.568 17.1859 144.707 17.1934C144.795 17.1984 144.883 17.1709 144.971 17.1585Z" fill="#FFE492"/>
<path d="M193.297 34.3444C193.465 34.3195 193.633 34.2896 193.804 34.2696C193.838 34.2647 193.881 34.2921 193.913 34.3095C194.041 34.3843 194.022 34.5113 194.027 34.6235C194.03 34.7406 193.734 34.8353 193.609 34.7555C193.471 34.6658 193.345 34.5637 193.153 34.6185C193.079 34.6384 192.991 34.5936 192.943 34.5213C192.871 34.4167 192.911 34.3743 193.047 34.3818C193.127 34.3867 193.212 34.3593 193.297 34.3444Z" fill="#FFE492"/>
<path d="M108.642 0.410678C108.815 0.383267 108.989 0.340926 109.162 0.338434C109.263 0.335942 109.314 0.418158 109.29 0.477963C109.276 0.515341 109.244 0.567671 109.212 0.572655C108.866 0.632459 108.52 0.682305 108.173 0.737126C108.072 0.70224 108.021 0.649919 108.045 0.590115C108.059 0.552737 108.091 0.502898 108.123 0.495423C108.296 0.460537 108.469 0.438088 108.642 0.410678Z" fill="#FFE492"/>
<path d="M189.972 26.2284C190.14 26.2035 190.31 26.1661 190.478 26.1536C190.566 26.1486 190.636 26.2059 190.646 26.2707C190.652 26.3006 190.609 26.353 190.574 26.3654C190.335 26.4501 190.076 26.4601 189.826 26.5025C189.746 26.5149 189.66 26.4751 189.612 26.4053C189.54 26.2982 189.58 26.2583 189.716 26.2658C189.802 26.2683 189.887 26.2409 189.972 26.2284Z" fill="#FFE492"/>
<path d="M149.376 17.4958C149.461 17.4833 149.549 17.4509 149.631 17.4609C149.719 17.4733 149.775 17.5456 149.802 17.6178C149.831 17.7001 149.829 17.7773 149.802 17.8471C149.759 17.9667 149.717 17.9617 149.618 17.882C149.466 17.7574 149.455 17.7723 149.154 17.7773C149.12 17.7773 149.077 17.7399 149.05 17.7076C149.01 17.6577 149.032 17.5805 149.125 17.5356C149.194 17.5032 149.29 17.5082 149.376 17.4958Z" fill="#FFE492"/>
<path d="M183.725 25.4108C183.851 25.3909 183.976 25.3585 184.101 25.3585C184.189 25.356 184.258 25.4133 184.266 25.4756C184.269 25.5055 184.229 25.5553 184.197 25.5703C184.045 25.6376 183.875 25.6425 183.709 25.665C183.632 25.6749 183.547 25.6351 183.499 25.5653C183.427 25.4606 183.47 25.4133 183.6 25.4282C183.64 25.4332 183.683 25.4183 183.725 25.4108Z" fill="#FFE492"/>
<path d="M164.001 22.3521C163.815 22.382 163.639 22.3447 163.652 22.2799C163.671 22.1952 163.748 22.1403 163.828 22.1254C163.956 22.1004 164.084 22.0805 164.214 22.0656C164.297 22.0556 164.372 22.093 164.438 22.1578C164.398 22.2375 164.337 22.2948 164.257 22.3123C164.174 22.3297 164.086 22.3397 164.001 22.3521Z" fill="#FFE492"/>
<path d="M162.777 22.0334C162.903 22.0134 163.028 21.981 163.153 21.981C163.241 21.9785 163.31 22.0358 163.318 22.0981C163.321 22.128 163.281 22.1779 163.249 22.1928C163.097 22.2601 162.927 22.2651 162.761 22.2875C162.684 22.2975 162.599 22.2576 162.551 22.1878C162.479 22.0832 162.522 22.0359 162.652 22.0508C162.692 22.0558 162.735 22.0408 162.777 22.0334Z" fill="#FFE492"/>
<path d="M147.864 17.4753C147.989 17.4554 148.114 17.423 148.239 17.4205C148.327 17.418 148.396 17.4753 148.404 17.5376C148.407 17.5675 148.367 17.6149 148.335 17.6323C148.183 17.6996 148.013 17.7046 147.848 17.727C147.77 17.737 147.685 17.6971 147.637 17.6273C147.565 17.5227 147.608 17.4753 147.738 17.4903C147.778 17.4953 147.821 17.4803 147.864 17.4753Z" fill="#FFE492"/>
<path d="M147.162 17.3288C147.295 17.3088 147.338 17.2964 147.381 17.2964C147.46 17.2964 147.543 17.3263 147.591 17.3986C147.663 17.5032 147.62 17.5331 147.49 17.5381C147.322 17.5431 147.157 17.5954 146.989 17.6054C146.901 17.6104 146.832 17.5506 146.826 17.4883C146.824 17.4584 146.864 17.406 146.896 17.3961C147.007 17.3587 147.13 17.3363 147.162 17.3288Z" fill="#FFE492"/>
<path d="M161.692 2.66157C161.606 2.67403 161.516 2.70892 161.436 2.69646C161.329 2.67902 161.287 2.61175 161.313 2.54945C161.329 2.51456 161.359 2.46473 161.391 2.45725C161.561 2.42236 161.734 2.39992 161.905 2.375C162.006 2.41238 162.051 2.4647 162.025 2.527C162.009 2.56189 161.98 2.60923 161.948 2.6192C161.865 2.64412 161.777 2.64911 161.692 2.66157Z" fill="#FFE492"/>
<path d="M58.2054 4.10023C58.288 4.09774 58.3626 4.13013 58.4265 4.19243C58.3865 4.27217 58.3279 4.3245 58.248 4.34692C58.208 4.35689 58.1627 4.36436 58.1201 4.36685C58.0375 4.37183 57.9629 4.33695 57.8989 4.27465C57.9389 4.19491 58.0002 4.14258 58.0774 4.12016C58.1174 4.11019 58.1628 4.10771 58.2054 4.10023Z" fill="#FFE492"/>
<path d="M189.061 26.2185C189.059 26.1462 189.221 26.064 189.368 26.0665C189.445 26.069 189.525 26.1039 189.57 26.1711C189.64 26.2733 189.599 26.3131 189.469 26.3057C189.389 26.3007 189.304 26.343 189.224 26.3356C189.133 26.3331 189.08 26.2783 189.061 26.2185Z" fill="#FFE492"/>
<path d="M150.148 17.7966C150.146 17.7692 150.132 17.7368 150.14 17.7119C150.191 17.5749 150.498 17.5325 150.577 17.6521C150.591 17.6746 150.596 17.7119 150.585 17.7343C150.57 17.7692 150.54 17.8141 150.508 17.8241C150.426 17.849 150.34 17.8614 150.255 17.8639C150.218 17.8639 150.183 17.8216 150.148 17.7966Z" fill="#FFE492"/>
<path d="M7.24116 17.2608C6.92674 17.3132 6.92142 17.3082 6.97737 17.1836C7.028 17.0714 7.12127 17.0042 7.25717 17.0042C7.29713 17.0042 7.33975 16.9992 7.37439 17.0092C7.4117 17.0216 7.46502 17.0465 7.47301 17.0764C7.489 17.1337 7.44366 17.196 7.36372 17.2384C7.32908 17.2583 7.2838 17.2534 7.24116 17.2608Z" fill="#FFE492"/>
<path d="M62.1444 3.74881C62.0512 3.79117 61.9713 3.77623 61.9126 3.69649C61.854 3.61675 61.9473 3.52205 62.1098 3.49962C62.1524 3.49464 62.1977 3.47472 62.2377 3.48469C62.2777 3.49216 62.3177 3.52204 62.3417 3.55194C62.3843 3.60178 62.3576 3.66908 62.2724 3.72639C62.2377 3.74882 62.1871 3.74383 62.1444 3.74881Z" fill="#FFE492"/>
<path d="M188.506 26.0312C188.53 25.9988 188.554 25.9664 188.58 25.9365C188.679 25.9789 188.721 26.0287 188.695 26.086C188.679 26.1209 188.647 26.1508 188.623 26.1832C188.524 26.1409 188.484 26.0885 188.506 26.0312Z" fill="#FFE492"/>
<path d="M11.4656 45.6424C11.4656 45.6125 11.5029 45.5652 11.5322 45.5552C11.5881 45.5378 11.6574 45.5727 11.7054 45.6424C11.772 45.7421 11.732 45.7944 11.6095 45.767C11.5242 45.7471 11.4656 45.6973 11.4656 45.6424Z" fill="#FFE492"/>
<path d="M151.234 15.476C151.268 15.4984 151.303 15.5209 151.335 15.5458C151.29 15.638 151.234 15.6778 151.175 15.6529C151.138 15.638 151.106 15.6081 151.071 15.5856C151.117 15.4934 151.17 15.4586 151.234 15.476Z" fill="#FFE492"/>
<path d="M150.312 15.3642C150.365 15.3268 150.429 15.3467 150.504 15.419C150.48 15.4514 150.458 15.4888 150.429 15.5137C150.378 15.5536 150.312 15.5336 150.24 15.4588C150.261 15.4289 150.285 15.3966 150.312 15.3642Z" fill="#FFE492"/>
<path d="M149.605 15.474C149.64 15.4964 149.674 15.5188 149.706 15.5437C149.661 15.6359 149.608 15.6758 149.546 15.6509C149.509 15.6359 149.477 15.606 149.442 15.5836C149.488 15.4914 149.541 15.454 149.605 15.474Z" fill="#FFE492"/>
<path d="M149.084 15.3418C149.124 15.3916 149.103 15.4514 149.026 15.5187C148.991 15.4962 148.951 15.4788 148.925 15.4489C148.882 15.4016 148.903 15.3393 148.983 15.272C149.015 15.2969 149.05 15.3193 149.084 15.3418Z" fill="#FFE492"/>
</svg>
