<svg width="419" height="20" viewBox="0 0 419 20" fill="none" xmlns="http://www.w3.org/2000/svg">
<path d="M391.74 10.6959C391.169 10.7115 390.592 10.7222 390.033 10.7457C389.67 10.7604 389.514 10.7174 389.272 10.6949C389.191 10.6871 389.104 10.6714 389.029 10.6734C388.464 10.689 387.899 10.7066 387.333 10.7242C387.16 10.7623 387.051 10.8131 386.785 10.8317C386.526 10.8493 386.22 10.8493 385.932 10.8581C385.551 10.8689 385.17 10.8796 384.79 10.8894C384.599 10.8943 384.444 10.9128 384.38 10.948C384.369 10.9539 384.495 10.9685 384.565 10.9773C384.795 11.0067 385.02 11.0399 385.274 11.0624C385.516 11.0839 385.816 11.0487 386.076 11.0761C386.659 11.1376 386.664 11.1367 387.109 11.1249C387.489 11.1142 387.87 11.1025 388.251 11.0946C388.326 11.0927 388.412 11.1073 388.493 11.1152C388.735 11.1367 388.891 11.1855 389.249 11.167C389.52 11.1523 389.82 11.1494 390.102 11.1415C390.339 11.1699 390.558 11.2021 390.812 11.2246C391.048 11.2461 391.118 11.2627 390.991 11.2911C390.875 11.3175 390.714 11.3282 390.5 11.3302C390.31 11.3312 390.12 11.34 389.929 11.3448C389.831 11.3478 389.739 11.3497 389.647 11.3527C389.283 11.3634 389.283 11.3634 388.62 11.3009C388.36 11.2764 388.066 11.3106 387.818 11.2872C387.651 11.2715 387.506 11.2481 387.345 11.2315C387.276 11.2246 387.166 11.2236 387.08 11.2256C386.791 11.2324 386.503 11.2373 386.226 11.25C386.03 11.2588 385.914 11.2862 385.938 11.3136C385.943 11.3243 386.082 11.34 386.162 11.3409C386.347 11.3429 386.543 11.3292 386.722 11.336C386.895 11.3429 387.074 11.3624 387.201 11.3839C387.46 11.4289 387.754 11.3888 388.003 11.4006C388.262 11.4133 388.475 11.4524 388.724 11.4758C388.787 11.4817 388.908 11.4719 389.006 11.469C389.289 11.4621 389.572 11.4563 389.854 11.4494C390.091 11.4778 390.345 11.5032 390.558 11.5354C390.944 11.5941 391.36 11.6166 391.862 11.5882C392.144 11.5726 392.421 11.5784 392.646 11.6166C392.877 11.6557 393.142 11.6517 393.436 11.6439C393.707 11.6361 393.984 11.6146 394.261 11.642C394.861 11.7026 394.867 11.7055 395.576 11.682C395.79 11.6752 395.951 11.6733 396.113 11.6957C396.263 11.7163 396.424 11.7338 396.58 11.7534C396.863 11.7466 397.151 11.7397 397.434 11.7319C397.797 11.7211 397.999 11.7348 398.086 11.7896C398.137 11.8228 398.161 11.8531 398.288 11.8756C398.438 11.9029 398.599 11.902 398.818 11.8941C399.026 11.8873 399.176 11.8765 399.262 11.8414C399.297 11.8267 399.366 11.813 399.43 11.8013C399.482 11.7925 399.562 11.7788 399.608 11.7808C399.695 11.7847 399.81 11.7954 399.839 11.8081C400.122 11.9264 400.122 11.9274 400.41 11.9616C400.727 11.9997 401.056 12.0339 401.345 12.0769C401.604 12.115 401.864 12.0984 402.147 12.0984C402.36 12.0984 402.498 12.1238 402.481 12.1492C402.47 12.1639 402.389 12.1854 402.32 12.1874C401.754 12.2069 401.183 12.2235 400.612 12.2372C400.543 12.2392 400.456 12.2216 400.376 12.2128C400.214 12.1952 400.07 12.1678 399.897 12.1619C399.724 12.1561 399.522 12.1707 399.332 12.1756C399.141 12.1805 398.939 12.1932 398.766 12.1854C398.593 12.1776 398.455 12.1492 398.293 12.1307C398.218 12.1219 398.115 12.1092 398.051 12.1121C397.63 12.1356 397.318 12.1033 397.018 12.0603C396.955 12.0515 396.845 12.0456 396.765 12.0476C396.096 12.0642 395.432 12.0837 394.763 12.1023C394.492 12.1101 394.273 12.0759 394.215 12.0183C394.186 11.986 394.129 11.9538 394.129 11.9215C394.129 11.8629 393.811 11.8306 393.581 11.8375C393.2 11.8472 392.813 11.855 392.438 11.8697C392.133 11.8814 391.873 11.8697 391.665 11.8345C391.423 11.7944 391.146 11.8023 390.87 11.813C390.662 11.8208 390.604 11.8531 390.616 11.9342C390.627 11.9997 390.529 12.0202 390.154 12.031C389.681 12.0447 389.202 12.0583 388.724 12.0691C388.649 12.071 388.562 12.0544 388.487 12.0456C388.326 12.028 388.181 11.9997 388.008 11.9938C387.835 11.987 387.633 12.0017 387.443 12.0075C387.253 12.0124 387.051 12.0261 386.878 12.0192C386.705 12.0124 386.56 11.9831 386.405 11.9645C386.33 11.9557 386.237 11.943 386.162 11.945C385.782 11.9528 385.401 11.9645 385.02 11.9753C384.593 11.987 384.593 11.987 383.988 11.9264C383.711 11.899 383.434 11.9205 383.163 11.9284C382.874 11.9362 382.603 11.9401 382.378 11.901C382.228 11.8756 382.061 11.8599 381.882 11.8648C381.404 11.8765 380.931 11.8912 380.452 11.9029C380.371 11.9049 380.262 11.9 380.198 11.8912C379.892 11.8502 379.592 11.8179 379.165 11.8384C378.796 11.856 378.398 11.857 378.029 11.8736C377.827 11.8824 377.735 11.9137 377.775 11.9381C377.798 11.9508 377.919 11.9655 378 11.9655C378.185 11.9665 378.387 11.9518 378.56 11.9577C378.917 11.9694 379.096 12.0515 379.563 12.029C379.84 12.0153 380.129 12.0104 380.417 12.0065C380.492 12.0056 380.573 12.0241 380.654 12.0339C380.884 12.0603 381.086 12.0945 381.421 12.0769C381.698 12.0632 381.992 12.0593 382.275 12.0515C382.724 12.0388 382.725 12.0398 383.307 12.0994C383.584 12.1277 383.861 12.1053 384.132 12.0984C384.334 12.0935 384.524 12.0838 384.686 12.0974C384.934 12.118 385.113 12.1649 385.418 12.1619C385.707 12.159 385.989 12.1453 386.278 12.1404C386.457 12.1375 386.624 12.1531 386.768 12.1795C386.918 12.2059 387.08 12.2177 387.276 12.2118C387.558 12.204 387.847 12.1942 388.135 12.1893C388.216 12.1883 388.308 12.1971 388.383 12.205C388.545 12.2225 388.7 12.2431 388.856 12.2616C389.139 12.2558 389.427 12.2538 389.704 12.2421C389.918 12.2333 390.068 12.2372 390.241 12.2568C390.46 12.2831 390.639 12.3301 390.996 12.3076C391.175 12.2968 391.383 12.2998 391.562 12.29C391.781 12.2773 391.931 12.2822 392.087 12.3115C392.381 12.3672 392.75 12.3682 393.131 12.3467C393.546 12.3232 393.857 12.3506 394.169 12.3936C394.498 12.4386 394.498 12.4376 394.752 12.5461C394.827 12.5773 395.04 12.592 395.219 12.5861C395.519 12.5764 395.778 12.5812 395.997 12.6184C396.228 12.6585 396.505 12.6536 396.788 12.6428C397.163 12.6282 397.538 12.6155 397.843 12.6721C397.993 12.6995 398.155 12.7063 398.357 12.6995C398.928 12.6819 399.505 12.6712 400.064 12.6497C400.405 12.636 400.601 12.6673 400.831 12.6936C401.143 12.7298 401.483 12.7621 401.483 12.8393C401.483 12.852 401.564 12.8666 401.633 12.8764C401.783 12.8969 401.945 12.9145 402.1 12.9341C402.331 12.9634 402.556 12.9878 402.873 12.9722C403.15 12.9595 403.444 12.9556 403.727 12.9468C404.01 12.938 404.269 12.9331 404.523 12.9702C404.817 13.0123 405.129 13.0523 405.463 13.0836C405.7 13.1061 406.011 13.068 406.265 13.0983C406.421 13.1169 406.571 13.1384 406.738 13.154C406.807 13.1608 406.917 13.1559 407.009 13.154C407.2 13.1501 407.396 13.1472 407.58 13.1374C407.794 13.1266 407.955 13.1286 408.117 13.1511C408.267 13.1716 408.417 13.1999 408.59 13.2058C408.849 13.2146 409.138 13.1755 409.397 13.2205C409.53 13.2429 409.697 13.2644 409.87 13.2713C410.043 13.2781 410.245 13.2635 410.43 13.2644C410.511 13.2644 410.609 13.2801 410.655 13.2928C410.684 13.2996 410.643 13.3182 410.603 13.328C410.551 13.3397 410.476 13.3553 410.401 13.3573C409.83 13.3749 409.259 13.3896 408.688 13.4062C408.348 13.4159 408.348 13.4159 407.661 13.3544C407.5 13.3397 407.321 13.3426 407.119 13.3495C406.848 13.3583 406.571 13.3749 406.288 13.3573C405.919 13.2908 405.463 13.285 404.979 13.3104C404.777 13.3211 404.592 13.3211 404.442 13.3026C404.125 13.2654 403.791 13.2312 403.508 13.1872C403.289 13.153 403.185 13.1501 403.093 13.197C403.064 13.2117 403.035 13.2273 403.041 13.241C403.075 13.2899 403.139 13.3377 403.173 13.3866C403.185 13.4003 403.139 13.4159 403.11 13.4306C403.018 13.4717 402.897 13.4687 402.695 13.4345C402.493 13.4003 402.25 13.3778 401.927 13.3935C401.651 13.4071 401.351 13.4052 401.074 13.4199C400.647 13.4414 400.347 13.4101 400.041 13.368C399.978 13.3593 399.868 13.3544 399.787 13.3563C398.928 13.3788 398.074 13.4042 397.215 13.4267C397.03 13.4316 396.863 13.4169 396.719 13.3905C396.569 13.3641 396.401 13.3505 396.217 13.3553C395.455 13.3759 394.694 13.3944 393.932 13.4199C393.621 13.4306 393.373 13.4179 393.16 13.3837C392.998 13.3583 392.848 13.3505 392.646 13.3534C392.427 13.3563 392.271 13.3661 392.162 13.3944C392.058 13.4218 392.133 13.4384 392.363 13.4599C392.611 13.4834 392.842 13.5137 393.079 13.541C393.269 13.5371 393.459 13.5293 393.644 13.5303C393.725 13.5303 393.8 13.5479 393.881 13.5577C394.111 13.586 394.325 13.6143 394.653 13.5987C394.93 13.585 395.224 13.5821 395.507 13.5733C395.899 13.5625 395.899 13.5625 396.534 13.6241C396.695 13.6398 396.868 13.6388 397.076 13.63C397.255 13.6231 397.44 13.6368 397.566 13.6661C397.618 13.6779 397.601 13.6974 397.492 13.7619C397.492 13.8098 397.613 13.7883 397.653 13.757C397.716 13.7121 397.595 13.6974 397.365 13.7219C397.203 13.7395 397.122 13.7649 397.163 13.7854C397.186 13.7961 397.295 13.8098 397.492 13.7619C397.999 13.7033 398.386 13.6964 398.755 13.6808C398.974 13.672 399.112 13.6759 399.285 13.7013C399.493 13.7316 399.701 13.7639 400.041 13.7483C400.41 13.7307 400.803 13.7287 401.177 13.714C401.524 13.7004 401.702 13.7434 401.922 13.7688C402.187 13.7991 402.481 13.7649 402.723 13.7825C402.977 13.8001 403.156 13.8431 403.45 13.8509C403.877 13.8245 404.148 13.8734 404.471 13.9056C404.725 13.93 405.025 13.9085 405.296 13.8978C405.602 13.8861 405.856 13.8968 406.069 13.932C406.311 13.9721 406.582 13.9633 406.859 13.9545C407.505 13.9349 407.528 13.932 407.903 13.9858C408.174 14.0248 408.434 14.0073 408.705 14.0024C408.942 14.0288 409.172 14.0571 409.42 14.0806C409.484 14.0864 409.605 14.0767 409.703 14.0737C409.986 14.0659 410.274 14.0581 410.557 14.0503C410.747 14.0454 410.949 14.0307 411.122 14.0366C411.295 14.0434 411.439 14.0718 411.595 14.0903C411.751 14.1089 411.912 14.1275 412.062 14.147C412.293 14.1763 412.512 14.2008 412.835 14.1861C413.112 14.1734 413.401 14.1695 413.689 14.1607C414.052 14.15 414.041 14.1529 414.716 14.2115C415.079 14.2438 415.454 14.2047 415.823 14.2008C416.008 14.1988 416.187 14.2096 416.314 14.2379C416.366 14.2497 416.348 14.2692 416.366 14.2858C415.414 14.3122 414.456 14.3347 413.516 14.3669C413.152 14.3796 412.962 14.3445 412.766 14.3151C412.443 14.2682 412.016 14.3366 411.71 14.276C411.526 14.2399 411.26 14.2194 410.943 14.237C410.759 14.2467 410.563 14.2457 410.372 14.2545C409.888 14.276 409.443 14.277 409.057 14.2096C408.924 14.1861 408.734 14.1734 408.596 14.1509C408.434 14.1265 408.278 14.1128 408.088 14.1177C407.228 14.1412 406.375 14.1646 405.521 14.19C405.446 14.192 405.371 14.2066 405.308 14.2174C405.146 14.2448 405.198 14.2663 405.458 14.2839C405.544 14.2897 405.613 14.3024 405.694 14.3122C405.85 14.3308 405.994 14.3601 406.167 14.3669C406.34 14.3738 406.542 14.3601 406.732 14.3552C406.923 14.3503 407.125 14.3357 407.298 14.3415C407.471 14.3484 407.615 14.3767 407.776 14.3943C407.851 14.4031 407.944 14.4178 408.019 14.4168C408.4 14.4109 408.774 14.4002 409.155 14.3914C409.392 14.4178 409.594 14.4559 409.876 14.4647C410.055 14.4705 410.245 14.4598 410.43 14.4617C410.511 14.4627 410.614 14.4774 410.655 14.4901C410.678 14.4979 410.603 14.5175 410.545 14.5272C410.326 14.5644 410.026 14.5575 409.755 14.5693C409.461 14.582 409.195 14.5781 408.971 14.5399C408.821 14.5145 408.653 14.5008 408.469 14.5057C407.99 14.5184 407.517 14.5331 407.038 14.5439C406.957 14.5458 406.859 14.537 406.784 14.5302C406.179 14.4705 406.179 14.4686 405.752 14.4813C405.123 14.4999 405.123 14.4999 404.702 14.4481C404.621 14.4383 404.535 14.4197 404.465 14.4207C403.796 14.4363 403.133 14.452 402.47 14.4745C402.25 14.4813 402.1 14.4813 401.939 14.4559C401.8 14.4344 401.639 14.4099 401.466 14.4041C401.287 14.3982 401.091 14.4129 400.901 14.4178C400.71 14.4227 400.508 14.4354 400.341 14.4275C400.168 14.4197 400.018 14.3924 399.868 14.3728C399.712 14.3523 399.545 14.3533 399.332 14.3611C398.674 14.3835 398.668 14.3806 398.016 14.32C397.941 14.3132 397.843 14.3054 397.763 14.3073C397.284 14.319 396.811 14.3337 396.332 14.3454C396.148 14.3503 395.969 14.3376 395.842 14.3093C395.79 14.2975 395.807 14.278 395.773 14.2399C395.732 14.2311 395.778 14.2467 395.79 14.2614C395.876 14.2594 395.98 14.2614 396.044 14.2536C396.205 14.235 396.286 14.2106 396.245 14.19C396.222 14.1793 396.113 14.1656 396.044 14.1656C395.917 14.1656 395.807 14.1871 395.773 14.2399C395.409 14.2721 395.023 14.279 394.648 14.2946C394.428 14.3044 394.29 14.2995 394.117 14.2741C393.909 14.2428 393.696 14.2125 393.356 14.2281C392.986 14.2457 392.594 14.2487 392.213 14.2624C391.775 14.278 391.585 14.19 391.216 14.192C390.835 14.1939 390.454 14.2106 390.073 14.2223C389.739 14.2321 389.739 14.2321 389.047 14.1685C388.793 14.1451 388.493 14.1793 388.245 14.1548C388.078 14.1392 387.933 14.1158 387.772 14.0991C387.703 14.0923 387.593 14.0923 387.507 14.0942C387.028 14.106 386.543 14.1138 386.082 14.1353C385.557 14.1607 385.159 14.1333 384.784 14.0757C384.311 14.0864 383.832 14.0923 383.365 14.1109C383.025 14.1245 382.828 14.0923 382.598 14.0659C382.517 14.0571 382.448 14.0424 382.361 14.0385C382.275 14.0346 382.171 14.0424 382.078 14.0454C381.698 14.0561 381.305 14.061 380.936 14.0786C380.481 14.1011 380.308 14.0209 379.956 14.0112C379.719 14.0591 379.592 14.1245 379.125 14.1294C378.744 14.1333 378.364 14.149 377.983 14.1597C377.793 14.1646 377.602 14.1705 377.412 14.1754C377.106 14.1842 376.962 14.2223 377.025 14.2809C377.06 14.3132 377.089 14.3454 377.118 14.3777C377.175 14.4354 377.031 14.4842 376.789 14.4911C376.12 14.5096 375.456 14.5292 374.787 14.5458C374.608 14.5507 374.435 14.5341 374.291 14.5077C374.141 14.4813 373.974 14.4696 373.789 14.4745C373.12 14.493 372.457 14.5126 371.788 14.5292C371.713 14.5311 371.615 14.5214 371.54 14.5135C371.378 14.496 371.222 14.4754 371.067 14.4569C370.686 14.4657 370.311 14.4715 369.936 14.4832C369.33 14.5008 369.33 14.5018 368.886 14.4481C368.805 14.4383 368.725 14.4197 368.65 14.4207C368.361 14.4246 368.079 14.4344 367.79 14.4432C366.942 14.4686 366.942 14.4686 366.694 14.4393C366.469 14.4119 366.267 14.3787 365.927 14.3943C365.558 14.4119 365.166 14.4178 364.785 14.4275C364.502 14.4344 364.22 14.4422 363.937 14.4442C363.862 14.4451 363.781 14.4266 363.701 14.4168C363.47 14.3865 363.245 14.3621 362.927 14.3787C362.743 14.3884 362.547 14.3904 362.356 14.3953C361.86 14.409 361.86 14.409 361.047 14.3503C360.966 14.3445 360.868 14.3376 360.787 14.3405C360.118 14.3581 359.455 14.3777 358.786 14.3943C358.705 14.3963 358.607 14.3904 358.526 14.3855C357.615 14.3288 357.615 14.3288 356.646 14.3562C356.277 14.366 356.265 14.3699 355.879 14.3181C355.706 14.2956 355.561 14.2848 355.359 14.2917C354.598 14.3151 353.831 14.3308 353.075 14.3581C352.735 14.3699 352.539 14.3405 352.308 14.3142C352.227 14.3054 352.141 14.2858 352.072 14.2868C351.31 14.3054 350.549 14.3278 349.787 14.3464C349.718 14.3484 349.631 14.3288 349.551 14.32C349.395 14.3024 349.245 14.276 349.072 14.2702C348.893 14.2643 348.697 14.279 348.501 14.2839C348.022 14.2966 348.022 14.2956 347.468 14.2379C347.393 14.2301 347.295 14.2194 347.22 14.2213C346.459 14.2409 345.692 14.2575 344.936 14.2858C344.503 14.3015 344.209 14.2731 343.903 14.2321C343.84 14.2233 343.73 14.2194 343.65 14.2213C342.79 14.2438 341.936 14.2692 341.077 14.2917C340.898 14.2966 340.725 14.2799 340.581 14.2545C340.35 14.2145 340.079 14.2193 339.791 14.2281C339.127 14.2487 339.122 14.2477 338.729 14.2008C338.648 14.191 338.579 14.1783 338.493 14.1734C338.412 14.1685 338.308 14.1715 338.222 14.1734C337.841 14.1832 337.46 14.1939 337.08 14.2047C336.699 14.2154 336.312 14.2213 335.937 14.2379C335.476 14.2585 335.257 14.1949 334.934 14.1656C334.461 14.1783 333.976 14.1861 333.509 14.2066C333.151 14.2223 332.984 14.1793 332.748 14.1568C332.667 14.149 332.58 14.1324 332.505 14.1343C331.646 14.1558 330.786 14.1793 329.933 14.2057C329.725 14.2115 329.586 14.2037 329.413 14.1803C329.027 14.1275 329.01 14.1294 328.364 14.149C328.081 14.1578 327.81 14.1656 327.567 14.1255C327.354 14.0894 327.095 14.0806 326.789 14.0923C326.414 14.1069 326.027 14.1148 325.647 14.1245C325.266 14.1353 324.885 14.15 324.505 14.1548C324.199 14.1597 324.014 14.1138 323.772 14.0903C323.697 14.0835 323.593 14.0825 323.507 14.0845C323.126 14.0933 322.734 14.1001 322.365 14.1167C321.915 14.1372 321.667 14.0835 321.349 14.0522C321.28 14.0454 321.165 14.0493 321.078 14.0522C320.409 14.0698 319.746 14.0894 319.076 14.1079C318.84 14.0815 318.598 14.0561 318.361 14.0297C317.98 14.0395 317.6 14.0503 317.219 14.06C316.931 14.0679 316.636 14.0708 316.365 14.0855C316.013 14.105 315.84 14.0591 315.604 14.0366C315.523 14.0288 315.437 14.0121 315.362 14.0141C314.883 14.0249 314.404 14.0366 313.931 14.0532C313.481 14.0698 313.302 13.9818 312.933 13.9828C312.552 13.9838 312.16 13.9965 311.791 14.0141C311.364 14.0346 311.064 14.0033 310.759 13.9613C310.695 13.9525 310.586 13.9476 310.505 13.9496C310.026 13.9613 309.553 13.976 309.074 13.9877C308.993 13.9897 308.895 13.9848 308.815 13.9789C307.903 13.9213 307.903 13.9203 307.505 13.932C307.223 13.9398 306.934 13.9496 306.646 13.9545C306.565 13.9564 306.467 13.9476 306.392 13.9398C305.792 13.8802 305.792 13.8792 305.359 13.891C304.979 13.9017 304.598 13.9124 304.217 13.9232C303.981 13.8968 303.738 13.8714 303.502 13.845C303.029 13.8577 302.544 13.8675 302.077 13.8851C301.858 13.8929 301.714 13.89 301.546 13.8655C301.339 13.8362 301.131 13.802 300.785 13.8186C300.416 13.8362 300.024 13.8382 299.649 13.8528C299.199 13.8704 299.014 13.7815 298.651 13.7825C298.27 13.7834 297.878 13.7961 297.509 13.8137C297.082 13.8343 296.782 13.803 296.476 13.761C296.413 13.7522 296.303 13.7473 296.222 13.7492C295.172 13.7776 294.128 13.8059 293.079 13.8362C292.433 13.8548 292.433 13.8558 291.204 13.802C291.117 13.7981 291.025 13.7942 290.938 13.7961C290.558 13.8049 290.165 13.8118 289.796 13.8284C289.346 13.8489 289.098 13.7961 288.781 13.7639C288.712 13.757 288.602 13.761 288.51 13.7629C288.222 13.7697 287.939 13.7786 287.65 13.7864C287.27 13.7971 286.889 13.8079 286.508 13.8186C286.272 13.7932 286.03 13.7668 285.793 13.7414C285.32 13.7541 284.836 13.761 284.368 13.7815C284.011 13.7971 283.843 13.7561 283.607 13.7326C283.526 13.7248 283.44 13.7082 283.365 13.7092C282.505 13.7307 281.646 13.7531 280.792 13.7805C280.44 13.7922 280.279 13.7482 280.042 13.7258C279.961 13.7189 279.869 13.7062 279.794 13.7082C279.223 13.7219 278.652 13.7385 278.081 13.7551C277.758 13.7649 277.758 13.7649 277.054 13.7043C276.973 13.6974 276.881 13.6906 276.8 13.6925C274.989 13.7414 273.183 13.7932 271.372 13.8421C271.188 13.847 271.02 13.8323 270.876 13.8059C270.726 13.7795 270.559 13.7658 270.374 13.7707C269.613 13.7913 268.846 13.8098 268.09 13.8352C267.779 13.846 267.53 13.8333 267.317 13.7991C267.155 13.7737 267.006 13.7639 266.804 13.7698C266.423 13.7815 266.042 13.7913 265.662 13.802C265.281 13.8128 264.9 13.8235 264.519 13.8343C264.139 13.845 263.752 13.8509 263.377 13.8675C262.916 13.888 262.691 13.8274 262.374 13.7971C261.803 13.8118 261.231 13.8264 260.666 13.8421C259.905 13.8626 259.143 13.8851 258.382 13.9046C258.313 13.9066 258.226 13.889 258.145 13.8802C257.909 13.8558 257.736 13.8216 257.384 13.8323C255.676 13.8841 253.958 13.9281 252.244 13.9789C251.887 13.9897 251.731 13.9476 251.489 13.9252C251.408 13.9183 251.316 13.9046 251.241 13.9066C250.289 13.931 249.337 13.9584 248.385 13.9848C247.999 13.9955 247.999 13.9955 247.353 13.9349C247.278 13.9281 247.18 13.9193 247.099 13.9212C245.859 13.9545 244.624 13.9897 243.384 14.0239C243.2 14.0288 243.032 14.0151 242.882 13.9887C242.738 13.9623 242.565 13.9476 242.386 13.9525C241.244 13.9838 240.096 14.0141 238.96 14.0483C238.654 14.0581 238.4 14.0493 238.181 14.0141C238.025 13.9887 237.87 13.9779 237.674 13.9838C235.96 14.0317 234.247 14.0776 232.534 14.1285C232.205 14.1382 231.974 14.1197 231.767 14.0874C231.599 14.062 231.455 14.0571 231.247 14.061C231.028 14.0659 230.896 14.0766 230.775 14.106C230.619 14.1441 230.521 14.192 230.152 14.1949C229.771 14.1978 229.384 14.2096 229.009 14.2262C228.652 14.2428 228.484 14.1988 228.26 14.1724C228.092 14.1539 227.937 14.1509 227.723 14.1597C227.527 14.1676 227.406 14.1842 227.29 14.2154C227.037 14.2819 227.014 14.2819 226.702 14.2399C226.535 14.2174 226.385 14.1998 226.2 14.2037C225.439 14.2233 224.677 14.2448 223.916 14.2672C223.478 14.2799 223.472 14.2819 223.143 14.233C222.982 14.2086 222.826 14.1969 222.635 14.2027C220.541 14.2614 218.448 14.3181 216.354 14.3796C216.031 14.3894 215.811 14.3689 215.581 14.3396C215.506 14.3298 215.431 14.3161 215.344 14.3122C215.258 14.3083 215.16 14.3122 215.067 14.3142C213.545 14.3562 212.016 14.3963 210.499 14.4432C210.153 14.4539 209.968 14.4227 209.732 14.3972C209.651 14.3884 209.582 14.3748 209.495 14.3709C209.409 14.3679 209.305 14.3748 209.212 14.3777C207.69 14.4197 206.161 14.4598 204.644 14.5067C204.281 14.5175 204.125 14.4764 203.888 14.4549C203.807 14.4471 203.721 14.4324 203.646 14.4344C203.167 14.4451 202.694 14.4598 202.215 14.4725C201.073 14.5047 199.931 14.5351 198.789 14.5683C198.351 14.581 198.16 14.494 197.791 14.4979C197.312 14.5028 196.839 14.5223 196.36 14.536C195.98 14.5468 195.599 14.5566 195.218 14.5683C194.843 14.579 194.843 14.579 193.909 14.5223C193.828 14.5175 193.73 14.5106 193.649 14.5126C192.317 14.5487 190.979 14.5849 189.652 14.624C189.346 14.6328 189.092 14.6279 188.873 14.5917C188.717 14.5663 188.556 14.5536 188.366 14.5595C186.364 14.6152 184.368 14.6709 182.366 14.7256C182.291 14.7276 182.193 14.7178 182.118 14.71C181.957 14.6924 181.801 14.6719 181.645 14.6533C181.53 14.6758 181.38 14.6963 181.305 14.7217C181.201 14.7559 181.063 14.7657 180.844 14.7716C180.624 14.7774 180.486 14.7755 180.313 14.7501C180.105 14.7188 179.892 14.6944 179.552 14.7041C177.458 14.7657 175.364 14.8214 173.27 14.882C172.924 14.8918 172.762 14.8488 172.52 14.8263C172.439 14.8195 172.347 14.8087 172.272 14.8107C171.412 14.8332 170.559 14.8576 169.699 14.881C167.317 14.9475 164.935 15.011 162.558 15.0814C162.125 15.0941 161.831 15.0697 161.525 15.0277C161.462 15.0189 161.352 15.014 161.272 15.0159C157.938 15.1078 154.603 15.2007 151.275 15.2935C151.096 15.2984 150.923 15.2828 150.779 15.2573C150.629 15.231 150.462 15.2182 150.277 15.2231C148.754 15.2652 147.232 15.3072 145.709 15.3502C145.328 15.361 145.322 15.3619 144.93 15.315C144.849 15.3052 144.763 15.2867 144.699 15.2886C144.567 15.2935 144.44 15.3179 144.347 15.3512C144.255 15.3864 144.111 15.3961 143.897 15.403C143.678 15.4098 143.534 15.4069 143.367 15.3834C143.153 15.3541 142.957 15.3258 142.611 15.3355C138.233 15.4606 133.855 15.5809 129.476 15.705C129.125 15.7148 128.963 15.6737 128.721 15.6512C128.64 15.6444 128.559 15.6346 128.473 15.6327C128.38 15.6307 128.282 15.6366 128.19 15.6395C121.049 15.8379 113.908 16.0373 106.767 16.2357C106.34 16.2474 106.345 16.2474 105.878 16.3374C105.82 16.3481 105.745 16.3628 105.665 16.3647C103.478 16.4273 101.287 16.4879 99.0946 16.5485C98.1428 16.5749 97.191 16.6022 96.2393 16.6276C95.8989 16.6364 95.8989 16.6364 95.0856 16.742C95.0164 16.7508 94.9355 16.7625 94.8548 16.7645C91.0477 16.871 87.2405 16.9776 83.4276 17.0821C83.1277 17.09 82.8855 17.1075 82.747 17.1545C82.6489 17.1877 82.5221 17.2072 82.3317 17.2131C79.6667 17.2874 77.0018 17.3626 74.3311 17.435C74.0138 17.4438 73.8234 17.4711 73.6676 17.5122C73.6157 17.5259 73.5695 17.5415 73.4945 17.5513C73.4253 17.5601 73.3215 17.563 73.235 17.5659C70.9507 17.6295 68.6665 17.695 66.3765 17.7556C66.0362 17.7644 65.8976 17.8005 65.7304 17.8386C65.6727 17.8513 65.6323 17.8689 65.5573 17.8777C65.4823 17.8856 65.3727 17.8855 65.2804 17.8875C63.3769 17.9403 61.4734 17.994 59.5698 18.0468C59.2006 18.0419 59.1198 18.0986 58.941 18.1328C58.8775 18.1446 58.8315 18.1602 58.7565 18.168C58.6758 18.1758 58.5718 18.1749 58.4737 18.1768C56.9509 18.2188 55.4281 18.2638 53.8995 18.3029C53.5476 18.3117 53.4783 18.3615 53.288 18.3957C53.2245 18.4065 53.1612 18.4231 53.0862 18.426C52.1344 18.4544 51.1826 18.4808 50.2309 18.5062C49.9136 18.515 49.9136 18.514 49.3541 18.6108C49.2906 18.6215 49.2156 18.6333 49.1348 18.6362C47.71 18.6772 46.2795 18.7163 44.849 18.7564C44.6644 18.7613 44.5375 18.7848 44.4452 18.818C44.3529 18.8512 44.2203 18.8727 44.0357 18.8776C42.8935 18.9099 41.7513 18.9431 40.6092 18.9724C40.2919 18.9802 40.0843 19.0047 39.9459 19.0486C39.842 19.0819 39.7151 19.0985 39.5132 19.1044C38.3711 19.1356 37.229 19.1698 36.0811 19.1972C35.7465 19.205 35.5734 19.2383 35.435 19.2793C35.3254 19.3125 35.1984 19.3243 34.985 19.3301C32.8911 19.3868 30.7915 19.4435 28.7033 19.5061C28.3515 19.5168 28.1726 19.4826 27.9419 19.4582C27.6131 19.424 27.3074 19.3868 27.3074 19.3106C27.3074 19.2989 27.2094 19.2852 27.1401 19.2754C26.6267 19.2021 26.6267 19.2021 26.546 19.1239C26.4998 19.076 26.4479 19.0271 26.4075 18.9783C26.3326 18.8981 26.1479 18.8776 25.6172 18.8923C25.4269 18.8972 25.2365 18.904 25.0461 18.9079C24.7635 18.9147 24.5501 18.8825 24.4982 18.8238C24.4693 18.7916 24.4348 18.7593 24.4059 18.7271C24.6944 18.7193 24.6885 18.7183 25.1961 18.6C25.4096 18.5502 25.4096 18.5502 25.0001 18.5003C24.8444 18.4818 24.6943 18.4612 24.5271 18.4436C24.4521 18.4358 24.354 18.4309 24.2733 18.4329C23.7945 18.4446 23.3215 18.4583 22.8485 18.472C22.0871 18.4935 22.087 18.4935 21.314 18.3938C21.2506 18.386 21.1525 18.3713 21.1641 18.3635C21.2275 18.3273 21.3832 18.3117 21.5794 18.3078C21.8678 18.3019 22.1504 18.2921 22.4331 18.2843C22.6234 18.2794 22.8138 18.2736 23.0041 18.2687C23.1829 18.2316 23.3676 18.1954 23.5349 18.1573C23.8003 18.0986 23.8002 18.0967 23.4368 18.0556C23.206 18.0282 22.958 18.0038 22.7215 17.9784C22.4388 17.9862 22.1504 17.995 21.8678 18.0019C21.5101 18.0106 21.3659 17.9921 21.2736 17.9285C21.1929 17.8728 21.2909 17.825 21.5678 17.8132C21.8505 17.8015 22.1159 17.7937 22.2601 17.7438C22.3986 17.6959 22.6408 17.6774 22.9408 17.6735C23.1311 17.6705 23.3215 17.6637 23.5118 17.6578C23.7599 17.65 23.8926 17.6002 23.8407 17.5444C23.8118 17.5083 23.7541 17.478 23.5291 17.4702C22.5312 17.4359 22.5196 17.4369 22.0235 17.3705C21.9774 17.3646 21.9429 17.347 21.9602 17.3382C21.989 17.3236 22.0525 17.302 22.1217 17.2991C22.7851 17.2776 23.4484 17.2581 24.1117 17.2434C24.3309 17.2385 24.4925 17.2317 24.5675 17.1955C24.6713 17.1457 24.6252 17.0997 24.4233 17.0655C24.3598 17.0548 24.2559 17.0411 24.1867 17.0421C23.4252 17.0597 22.6696 17.0821 21.9082 17.0997C21.839 17.1017 21.7121 17.0851 21.6833 17.0724C21.6256 17.0489 21.7121 17.0176 21.914 17.0069C22.1793 16.9922 22.4504 16.9912 22.6292 16.9424C22.8773 16.873 23.183 16.8094 23.4599 16.743C23.506 16.7313 23.5811 16.7088 23.5638 16.7068C23.4196 16.6853 23.2523 16.6687 23.1023 16.6482C22.8485 16.614 22.8484 16.5661 22.9061 16.5201C22.9523 16.483 23.1253 16.4683 23.3387 16.4683C23.431 16.4683 23.5464 16.4683 23.6214 16.4595C23.8175 16.438 23.881 16.4107 23.7829 16.3901C23.7252 16.3784 23.6215 16.3618 23.5522 16.3638C22.3178 16.396 21.0775 16.4273 19.8489 16.4674C19.4854 16.4791 19.3183 16.4419 19.0991 16.4155C18.9318 16.395 18.776 16.3872 18.5683 16.4019C18.3722 16.4155 18.1819 16.4077 18.0607 16.3755C17.9627 16.3491 18.1357 16.3266 18.6029 16.3012C18.6895 16.2963 18.7875 16.2934 18.8509 16.2836C19.5201 16.178 19.52 16.1771 19.9815 16.1634C20.4314 16.1507 20.4316 16.1497 20.6681 16.093C20.7777 16.0666 20.8987 16.0402 21.0025 16.0129C21.0429 16.0021 21.1122 15.9826 21.0891 15.9767C20.9622 15.9464 20.7891 15.9396 20.5872 15.9464C20.1373 15.963 19.6067 15.9493 19.3702 16.0422C19.2779 16.0774 19.1337 16.0872 18.926 16.093C16.8379 16.1497 14.7496 16.2103 12.6557 16.265C12.3154 16.2738 12.1597 16.31 12.0271 16.3501C11.9117 16.3833 11.7848 16.3931 11.5656 16.3989C11.3464 16.4048 11.1732 16.4077 11.0463 16.3755C10.9714 16.3559 11.0348 16.3286 11.2079 16.3012C11.4559 16.2621 11.4097 16.2132 11.329 16.1673C11.2713 16.137 11.0925 16.1155 10.9021 16.1175C10.6195 16.1214 10.3484 16.1321 10.1119 16.093C9.9735 16.0705 9.80042 16.0549 9.64467 16.0353C9.34472 15.9953 9.04475 15.9542 8.62366 15.9806C8.33524 15.9708 8.13335 15.9357 7.90262 15.9083C7.51614 15.8633 7.48153 15.8565 7.75841 15.8086C8.0699 15.7548 7.82758 15.6845 8.00063 15.6317C8.18522 15.575 8.43911 15.5252 8.66408 15.4724C8.72176 15.4587 8.7737 15.446 8.83138 15.4323C8.69871 15.4128 8.5776 15.3883 8.42185 15.3746C8.21996 15.357 8.11613 15.3355 8.12766 15.2749C8.08728 15.2661 8.10447 15.2886 8.15062 15.2945C8.20253 15.3003 8.32953 15.2955 8.39298 15.2886C8.5545 15.2701 8.63517 15.2456 8.59479 15.2251C8.57172 15.2143 8.4622 15.2007 8.39298 15.2007C8.26608 15.2007 8.1565 15.2222 8.12189 15.2749C7.47583 15.315 6.8066 15.3346 6.13747 15.3502C6.06825 15.3522 5.98177 15.3326 5.90101 15.3228C5.63567 15.2896 5.63564 15.2906 4.85691 15.2808C4.77615 15.2798 4.66661 15.2661 4.62623 15.2525C4.45895 15.1928 4.46476 15.1274 4.38401 15.0638C4.53398 15.0228 4.68384 14.9827 4.83959 14.9426C5.15108 14.8615 5.55495 14.7902 5.79722 14.7012C5.74531 14.6533 5.67608 14.6054 5.92988 14.5663C6.65093 14.5175 6.64521 14.5175 6.84133 14.4705C7.40086 14.3376 7.95459 14.2037 8.53719 14.0727C8.69294 14.0385 8.69296 14.02 8.41608 14.0053C8.32955 14.0014 8.23714 14.0004 8.14484 14.0024C7.85642 14.0092 7.56801 14.0268 7.28536 14.0229C7.00271 14.02 6.79505 13.977 6.56432 13.9506C6.32782 13.9232 6.09133 13.8949 5.85482 13.8665C5.58371 13.8694 5.31265 13.8968 5.04154 13.8528C4.83388 13.8186 4.57432 13.7942 4.33781 13.7658C4.51663 13.6916 4.85125 13.6349 5.11082 13.5694C5.34733 13.5098 5.35296 13.5107 5.98748 13.4648C6.28744 13.4433 6.39127 13.3329 6.13747 13.3006C5.83174 13.2615 5.50878 13.2253 5.19729 13.1882C4.92618 13.1911 4.64936 13.2175 4.38978 13.1735C4.18789 13.1403 3.95711 13.1178 3.62254 13.1305C3.05724 13.152 2.48043 13.1628 1.90936 13.1804C1.71323 13.1862 1.49974 13.1823 1.41322 13.1491C1.35554 13.1257 1.52283 13.0934 1.71318 13.0866C2.0016 13.0768 2.26115 13.0651 2.40536 13.0162C2.5438 12.9673 2.79758 12.9527 3.09753 12.9458C3.17829 12.9439 3.27065 12.9321 3.31103 12.9204C3.51869 12.8637 3.74944 12.8148 4.1936 12.8168C4.37819 12.7972 4.47619 12.7728 4.41851 12.7494C4.3839 12.7366 4.26283 12.72 4.1936 12.722C3.71483 12.7318 3.23607 12.7415 2.76884 12.7591C2.54964 12.767 2.38227 12.7689 2.24383 12.7396C2.14577 12.72 2.19768 12.6936 2.38226 12.6653C2.54378 12.6409 2.58997 12.6125 2.57844 12.5793C2.5496 12.5021 2.37651 12.4796 1.82275 12.4845C1.42473 12.4884 1.32667 12.4757 1.24014 12.4092C1.21707 12.3936 1.15948 12.3721 1.19986 12.3613C1.4479 12.2949 1.60943 12.2128 2.07666 12.1815C2.26125 12.1698 2.4573 12.1698 2.57266 12.1444C2.68803 12.1189 2.79191 12.0896 2.91305 12.0652C3.06302 12.0359 3.16675 12.0085 3.09753 11.9899C2.98217 11.9567 2.79764 11.9538 2.58421 11.9655C2.39962 11.9753 2.20351 11.9762 2.01315 11.9821C1.67282 11.9929 1.396 11.9674 1.35562 11.9244C1.24602 11.8111 1.13062 11.6987 1.03256 11.5853C1.02102 11.5716 1.04978 11.554 1.09593 11.5423C1.25744 11.5012 1.43056 11.4621 1.59785 11.4221C1.79397 11.3761 2.10551 11.3849 2.37086 11.3761C2.7458 11.3634 2.74567 11.3644 3.24752 11.2706C3.44364 11.2334 3.78399 11.2481 3.98588 11.2149C4.04933 11.2041 4.1474 11.1865 4.13009 11.1767C4.10702 11.164 3.99171 11.1542 3.90519 11.1484C3.82443 11.1425 3.72639 11.1396 3.63987 11.1425C2.59002 11.1709 1.54598 11.2012 0.49614 11.2285C0.317321 11.2334 0.121192 11.2119 0.0577399 11.1816C-0.00571202 11.1533 0.0115367 11.1191 0 11.0868C0.167282 11.0467 0.357565 11.0096 0.501774 10.9666C0.611372 10.9334 0.738299 10.9187 0.957496 10.9167C1.24591 10.9138 1.52859 10.9021 1.85162 10.8933C2.45153 10.7506 3.03986 10.6011 3.68592 10.4584C3.94549 10.4007 3.88214 10.342 3.93406 10.2805C3.98597 10.2238 4.37243 10.2326 4.63201 10.216C4.83967 10.2023 4.9088 10.171 4.82804 10.1495C4.78189 10.1368 4.67812 10.1221 4.59736 10.1221C4.40701 10.1221 4.21666 10.1309 4.0263 10.1358C3.83594 10.1407 3.61676 10.1378 3.46101 10.1544C3.31104 10.17 3.21292 10.2032 3.11485 10.2316C3.00526 10.2629 2.86115 10.2736 2.64195 10.2756C2.3593 10.2775 2.07667 10.2863 1.79402 10.2932C1.48253 10.255 1.15943 10.2179 0.859479 10.1778C0.801796 10.17 0.790197 10.1475 0.795965 10.1329C0.807502 10.0948 0.720999 10.0713 0.530644 10.0527C0.36913 10.0371 0.236446 10.0146 0.086469 9.99507C0.201836 9.96868 0.328785 9.94326 0.421079 9.91492C0.622971 9.8553 0.876807 9.8123 1.3152 9.81425C1.48825 9.77614 1.62665 9.72922 1.85162 9.70283C2.06505 9.67742 2.42847 9.70282 2.58999 9.64516C2.67074 9.61681 2.79195 9.58456 2.94769 9.57283C3.19573 9.55426 3.51875 9.56404 3.66296 9.50931C3.74949 9.47803 3.87634 9.44968 4.04362 9.44186C4.23398 9.43307 4.43005 9.43112 4.56849 9.41255C4.64348 9.40277 4.72425 9.38713 4.72425 9.37345C4.72425 9.36465 4.60897 9.35097 4.52821 9.3451C4.45323 9.33826 4.35505 9.33337 4.26853 9.33533C3.98011 9.34119 3.69746 9.35194 3.40905 9.35781C3.32829 9.35976 3.23602 9.35292 3.1495 9.34706C2.89569 9.33142 2.91296 9.31188 3.11485 9.27669C3.31675 9.24248 3.46104 9.19849 3.62832 9.15842C3.8129 9.15158 4.0436 9.15451 4.17051 9.13594C4.38394 9.10564 4.53388 9.06165 4.70693 9.02354C4.89728 9.01767 5.09339 9.01572 5.27221 9.00497C5.3472 9.00106 5.38184 8.97956 5.44529 8.96685C5.56066 8.94242 5.6588 8.90723 5.81455 8.8955C6.06835 8.87791 6.37984 8.88475 6.52982 8.83099C6.61634 8.79972 6.74896 8.76649 6.91048 8.76454C7.36041 8.76063 7.55077 8.70686 7.7815 8.65604C7.95455 8.61792 8.32374 8.63747 8.5141 8.59935C8.641 8.57492 8.73335 8.54461 8.86025 8.52116C8.91217 8.51138 9.02173 8.5065 9.10825 8.50357C9.58126 8.48891 10.06 8.47815 10.533 8.46251C10.608 8.45958 10.6773 8.44493 10.735 8.4332C10.8561 8.40779 10.931 8.3726 11.081 8.35598C11.231 8.33937 11.4444 8.33937 11.629 8.33448C12.2231 8.31982 12.2693 8.32372 12.5404 8.24064C12.7596 8.1732 13.2961 8.2211 13.4749 8.14682C13.5788 8.10381 13.769 8.06863 14.1094 8.06374C14.5881 8.0569 15.0611 8.03833 15.5399 8.02562C15.9668 8.01389 15.961 8.01389 16.4225 7.92299C16.6301 7.88194 16.9359 7.88781 17.207 7.87999C17.4955 7.87217 17.7608 7.86045 17.8992 7.81158C18.0377 7.76369 18.2914 7.74804 18.5856 7.7412C18.8567 7.73436 19.1625 7.73925 19.376 7.70016C19.8951 7.60633 19.8893 7.60534 20.2528 7.59557C20.8238 7.57993 21.3949 7.56429 21.9659 7.54768C22.3466 7.53693 22.7446 7.53497 23.1023 7.51347C23.3619 7.49783 23.4772 7.4431 23.6445 7.40498C24.1175 7.39032 24.5905 7.37565 25.0635 7.36197C25.7268 7.34242 26.3959 7.32483 27.0651 7.30626C27.3535 7.26912 27.394 7.18702 27.8785 7.18311C28.1669 7.18116 28.4496 7.16845 28.738 7.16063C29.2168 7.14695 29.6897 7.12936 30.1685 7.12251C30.5319 7.11763 30.5953 7.06484 30.7856 7.03161C30.8491 7.01988 30.9068 7.00327 30.9818 7.00034C31.7317 6.97297 32.5046 6.96711 33.2372 6.92704C33.3122 6.92313 33.3814 6.9026 33.3987 6.88794C33.4102 6.88012 33.3122 6.86547 33.2487 6.85862C33.1737 6.8508 33.0757 6.84298 32.995 6.84494C30.6126 6.91042 28.2304 6.97689 25.848 7.04237C25.5135 7.05215 25.5135 7.05116 24.7001 7.15868C24.6309 7.16747 24.5501 7.17725 24.4635 7.18018C24.0828 7.19191 23.6964 7.19876 23.3214 7.21342C23.0157 7.22515 22.762 7.21341 22.5428 7.17822C22.387 7.15281 22.2254 7.14499 22.0293 7.14695C21.8101 7.14988 21.666 7.16064 21.5391 7.18703C21.3718 7.22319 21.2852 7.2701 20.9334 7.27987C19.3125 7.3219 17.6915 7.36881 16.0763 7.41377C15.8514 7.40009 15.7418 7.37957 15.7995 7.35513C15.8341 7.34047 15.9033 7.32093 15.9725 7.31897C16.6359 7.29845 17.305 7.28086 17.9684 7.26131C18.0607 7.25838 18.1875 7.26032 18.2395 7.25055C18.4933 7.20656 18.5857 7.13522 19.0644 7.13033C19.3413 7.1274 19.6239 7.11274 19.8893 7.09906C19.9643 7.09515 20.0335 7.07462 20.0508 7.05996C20.0566 7.05214 19.9643 7.03748 19.895 7.03063C19.6412 7.00229 19.3471 7.03651 19.0933 7.01696C19.0068 7.01012 18.8856 7.00034 18.8683 6.98861C18.8567 6.97786 18.9548 6.96027 19.024 6.94951C19.0875 6.93974 19.1739 6.93095 19.2605 6.92801C20.0219 6.90553 20.7834 6.88207 21.5449 6.86448C21.8563 6.85764 22.0755 6.8332 22.2139 6.78824C22.3178 6.75501 22.4447 6.73742 22.6408 6.73254C23.9733 6.69637 25.3057 6.6563 26.644 6.62307C26.9786 6.61525 27.1517 6.583 27.2901 6.54097C27.3997 6.50774 27.5266 6.49601 27.7401 6.49015C29.6494 6.43932 31.5471 6.38263 33.4565 6.33377C33.8083 6.32497 33.9122 6.28294 34.091 6.24678C34.1545 6.23407 34.1948 6.21843 34.2755 6.21061C34.3563 6.20279 34.4601 6.20376 34.5582 6.20181C36.081 6.15978 37.604 6.11483 39.1326 6.07573C39.4902 6.06694 39.5593 6.01806 39.7439 5.98385C39.8074 5.9731 39.8651 5.95551 39.9401 5.95258C41.0822 5.91935 42.2243 5.88807 43.3664 5.85582C44.1279 5.83432 44.8893 5.81281 45.6507 5.79229C46.0256 5.78251 46.0257 5.78153 46.5333 5.68868C46.591 5.67793 46.6718 5.66522 46.7468 5.66229C48.9387 5.59973 51.1249 5.54012 53.3169 5.47855C53.5014 5.47366 53.6341 5.45117 53.7264 5.41794C53.8187 5.38471 53.9515 5.36223 54.1303 5.35734C55.8435 5.30847 57.5566 5.26058 59.2756 5.21464C59.5871 5.20683 59.8062 5.18337 59.9447 5.13938C60.0485 5.10615 60.1754 5.08856 60.3715 5.08368C62.0847 5.03676 63.798 4.98691 65.517 4.94195C65.8458 4.93315 66.0072 4.89993 66.1688 4.86083C66.2264 4.84715 66.2726 4.82466 66.3418 4.82271C67.1956 4.79534 68.0435 4.767 68.903 4.74843C69.2606 4.74061 69.3818 4.69956 69.526 4.66046C69.6414 4.62918 69.7741 4.61843 69.9933 4.61452C70.472 4.60573 70.945 4.58912 71.4122 4.5725C71.4815 4.56957 71.568 4.54807 71.5738 4.53438C71.5853 4.50897 71.4526 4.49138 71.2334 4.48258C68.9491 4.54611 66.6592 4.60964 64.3749 4.67317C63.9999 4.68392 63.9999 4.68392 63.4923 4.77678C63.4346 4.78753 63.3538 4.80023 63.273 4.80317C61.0811 4.86474 58.8949 4.92534 56.7029 4.98692C56.5184 4.9918 56.3857 5.01428 56.2934 5.04751C56.2011 5.08075 56.0683 5.10323 55.8895 5.10811C53.7956 5.16676 51.7018 5.22638 49.6021 5.28209C49.2906 5.28991 49.0714 5.31238 48.933 5.35734C48.8292 5.39057 48.7023 5.40817 48.5061 5.41306C46.5045 5.46779 44.5086 5.52545 42.5012 5.57823C42.2993 5.58312 42.1494 5.55477 42.1609 5.52838C42.1667 5.5147 42.2531 5.49223 42.3223 5.49028C43.3664 5.45802 44.4048 5.42479 45.4547 5.40035C45.8065 5.39253 45.9103 5.34953 46.0891 5.31336C46.1468 5.30066 46.193 5.28404 46.2679 5.2772C46.3487 5.26938 46.4525 5.27036 46.5506 5.26841C49.0252 5.19901 51.4999 5.12864 53.9803 5.06316C54.3379 5.05338 54.4071 5.00548 54.5916 4.97128C54.6551 4.95955 54.7128 4.94196 54.7878 4.94C55.5492 4.91655 56.3106 4.89602 57.0721 4.87549C58.4045 4.83835 59.737 4.80121 61.0753 4.76407C61.4617 4.75332 61.4618 4.75331 61.9578 4.66144C62.0155 4.65069 62.0963 4.63701 62.1713 4.63506C65.6958 4.53634 69.2203 4.43762 72.7448 4.33988C72.9294 4.335 73.062 4.31252 73.1543 4.27929C73.2466 4.24703 73.3792 4.22357 73.5581 4.21771C78.3227 4.08478 83.0816 3.95185 87.8463 3.82088C88.1578 3.81209 88.3769 3.79156 88.5154 3.74562C88.6134 3.71239 88.7461 3.6948 88.9422 3.68894C94.1799 3.54331 99.4175 3.39768 104.661 3.25107C108.185 3.15333 111.71 3.05364 115.234 2.95785C115.557 2.94905 115.73 2.91875 115.892 2.87868C115.944 2.86499 115.996 2.84251 116.065 2.84056C116.821 2.81612 117.576 2.79365 118.332 2.77117C118.568 2.79756 118.805 2.82297 119.041 2.84936C119.22 2.81222 119.393 2.7741 119.572 2.73696C120.714 2.70862 121.839 2.66463 122.993 2.65095C123.068 2.64997 123.149 2.66854 123.229 2.67832C123.766 2.73989 124.071 2.73501 124.412 2.65291C124.533 2.62358 124.637 2.59719 124.821 2.59231C125.392 2.57471 125.969 2.56299 126.535 2.54246C126.84 2.53171 127.094 2.54148 127.313 2.57667C127.469 2.60208 127.631 2.61284 127.821 2.60697C128.871 2.57765 129.915 2.5493 130.965 2.51803C131.04 2.51607 131.109 2.49945 131.167 2.48772C131.288 2.46231 131.392 2.43495 131.507 2.40856C131.663 2.42517 131.836 2.43788 131.963 2.45938C132.124 2.4848 132.274 2.48479 132.493 2.47795C136.681 2.35968 140.875 2.24435 145.063 2.12511C145.42 2.11534 145.576 2.15639 145.818 2.17789C145.899 2.18571 145.98 2.19548 146.066 2.19744C146.159 2.19939 146.257 2.19353 146.349 2.1906C149.493 2.10264 152.636 2.01564 155.78 1.92768C156.196 1.91595 156.196 1.91595 156.813 1.97655C156.888 1.98437 156.986 1.99316 157.067 1.99023C158.497 1.95211 159.928 1.91107 161.352 1.87197C161.537 1.86708 161.693 1.88272 161.86 1.9052C162.189 1.94918 162.212 1.94919 162.454 1.88468C162.569 1.85438 162.691 1.8358 162.881 1.827C163.089 1.81723 163.256 1.82017 163.417 1.83776C163.648 1.8622 163.816 1.90324 164.167 1.89249C165.69 1.84655 167.219 1.80844 168.736 1.76153C169.082 1.75077 169.267 1.784 169.497 1.80844C169.578 1.81723 169.653 1.83092 169.74 1.83385C169.826 1.83678 169.93 1.82993 170.022 1.827C171.926 1.77422 173.835 1.72243 175.733 1.66574C176.09 1.65499 176.246 1.69701 176.489 1.71851C176.569 1.72633 176.662 1.74002 176.737 1.73807C177.879 1.70777 179.027 1.67551 180.169 1.64325C180.578 1.63152 180.578 1.6325 181.201 1.69212C181.276 1.69994 181.374 1.70776 181.455 1.70581C182.788 1.66964 184.126 1.6325 185.458 1.59536C185.868 1.58363 185.868 1.58364 187.05 1.63446C187.137 1.63837 187.229 1.64424 187.316 1.64229C188.839 1.60026 190.367 1.5592 191.89 1.51424C192.196 1.50545 192.45 1.51326 192.669 1.54845C192.825 1.57386 192.986 1.58462 193.176 1.57875C194.89 1.53086 196.609 1.48493 198.316 1.4341C198.645 1.42433 198.858 1.44582 199.089 1.47417C199.164 1.48394 199.239 1.49763 199.326 1.50154C199.412 1.50545 199.51 1.50153 199.602 1.4986C201.316 1.45071 203.034 1.40575 204.742 1.35395C205.088 1.3432 205.273 1.37643 205.503 1.40086C205.584 1.40966 205.671 1.42725 205.74 1.42627C206.409 1.40966 207.078 1.395 207.741 1.37057C208.099 1.35688 208.255 1.40184 208.497 1.42334C208.578 1.43018 208.67 1.44485 208.745 1.44289C210.176 1.40478 211.606 1.36471 213.031 1.32366C213.233 1.31779 213.383 1.32658 213.544 1.35199C213.758 1.3862 214.006 1.39988 214.317 1.38913C214.981 1.36665 215.65 1.35102 216.319 1.33245C216.711 1.3217 216.711 1.3217 217.911 1.37253C217.998 1.37643 218.09 1.38229 218.176 1.38034C219.319 1.34906 220.466 1.31877 221.603 1.28456C221.909 1.27478 222.162 1.28358 222.382 1.31876C222.537 1.34418 222.693 1.35493 222.889 1.34907C223.939 1.31975 224.983 1.29042 226.033 1.2611C226.414 1.25035 226.794 1.23177 227.175 1.23177C227.452 1.23275 227.654 1.27966 227.902 1.30312C227.971 1.30996 228.087 1.30215 228.179 1.3002C229.511 1.26306 230.85 1.22885 232.176 1.18682C232.522 1.17607 232.707 1.2093 232.938 1.23373C233.018 1.24253 233.105 1.26012 233.174 1.25914C233.653 1.24839 234.126 1.23373 234.605 1.22102C235.176 1.20539 235.753 1.19366 236.318 1.17216C236.779 1.15456 236.952 1.23959 237.322 1.24252C237.604 1.24546 237.893 1.22884 238.175 1.22102C238.746 1.20539 239.317 1.1878 239.888 1.17411C240.09 1.16922 240.246 1.15358 240.31 1.11839C240.321 1.11155 240.223 1.0969 240.16 1.0881C239.393 0.988407 239.392 0.988402 238.619 1.0099C238.141 1.02359 237.668 1.03727 237.189 1.049C237.108 1.05096 237.016 1.04314 236.935 1.03727C236.704 1.02066 236.727 1.00111 236.924 0.965927C237.12 0.930741 237.27 0.887739 237.437 0.847666C237.673 0.873079 237.904 0.898482 238.141 0.923894C238.331 0.919007 238.521 0.913151 238.712 0.908264C239.664 0.882852 240.615 0.856461 241.567 0.833003C241.636 0.831048 241.723 0.850599 241.804 0.860373C242.034 0.888717 242.242 0.913145 242.577 0.902394C243.43 0.87405 244.29 0.853525 245.143 0.82909C245.518 0.818338 245.518 0.818339 246.176 0.878938C246.251 0.885779 246.349 0.893599 246.43 0.891644C247.289 0.869164 248.143 0.844732 249.002 0.821275C249.187 0.816388 249.366 0.829094 249.499 0.857438C249.551 0.869167 249.539 0.888711 249.758 1.049C250.439 1.179 250.906 1.16532 251.379 1.15359C251.581 1.1487 251.76 1.14381 251.892 1.12426C251.962 1.11351 252.048 1.09787 252.048 1.08517C252.048 1.07539 251.921 1.05975 251.841 1.0578C251.27 1.03825 250.727 1.0793 250.168 1.0881C249.908 1.09201 249.683 1.0578 249.637 1.00209C249.626 0.986452 249.608 0.969837 249.591 0.954199C249.574 0.93856 249.562 0.921946 249.545 0.906307C249.32 0.901421 249.187 0.919011 249.089 0.952242C249.008 0.979609 248.893 1.01089 248.737 1.02555C248.581 1.04118 248.368 1.03826 248.178 1.04314C247.993 1.04803 247.791 1.06074 247.618 1.05389C247.445 1.04608 247.307 1.01773 247.145 1.00013C247.07 0.991337 246.978 0.978635 246.903 0.98059C246.24 0.997206 245.582 1.01382 244.924 1.03532C244.578 1.04705 244.405 1.006 244.186 0.98059C244.013 0.961042 243.84 0.965923 243.811 1.01088C243.736 1.1184 244.001 1.16335 244.59 1.14283C245.074 1.12524 245.513 1.12231 245.893 1.18878C245.945 1.19757 246.066 1.20148 246.141 1.19952C246.614 1.1878 247.082 1.17313 247.555 1.16141C247.641 1.15945 247.734 1.16335 247.814 1.16726C248.991 1.22004 248.991 1.22103 249.389 1.2093C249.579 1.20343 249.764 1.19854 249.747 1.04998C250.11 0.890666 250.687 0.879917 251.246 0.85646C251.61 0.841799 251.766 0.884806 252.002 0.907286C252.083 0.915105 252.169 0.93074 252.244 0.928786C253.485 0.896532 254.719 0.862318 255.953 0.826155C256.161 0.82029 256.311 0.826156 256.472 0.851568C256.68 0.883822 256.911 0.904351 257.24 0.892623C257.897 0.869165 258.566 0.854508 259.236 0.83496C259.576 0.825186 259.576 0.825176 260.262 0.885774C260.337 0.892616 260.435 0.900435 260.516 0.898481C261.185 0.881865 261.849 0.861346 262.512 0.843753C262.697 0.838866 262.864 0.852548 263.008 0.878938C263.152 0.905327 263.325 0.919009 263.504 0.914122C264.173 0.896529 264.837 0.876988 265.5 0.859395C265.581 0.85744 265.679 0.864281 265.754 0.871123C266.458 0.931721 266.458 0.931711 266.781 0.921937C267.254 0.907276 267.738 0.900442 268.205 0.880894C268.661 0.861347 268.898 0.91803 269.209 0.949307C270.063 0.926827 270.922 0.908261 271.77 0.880894C272.116 0.869166 272.301 0.901417 272.532 0.926829C272.612 0.935625 272.693 0.954198 272.768 0.95322C273.056 0.949311 273.339 0.938561 273.622 0.930742C273.905 0.922923 274.193 0.915105 274.476 0.907286C274.799 0.93563 275.012 1.00209 275.474 0.979612C275.75 0.965928 276.045 0.962996 276.327 0.955177C276.61 0.947358 276.898 0.93954 277.181 0.931721C277.371 0.926834 277.567 0.923897 277.752 0.915101C278.092 0.90044 278.26 0.948338 278.502 0.96984C278.583 0.976682 278.675 0.988403 278.75 0.986448C279.321 0.972765 279.898 0.961037 280.457 0.938557C280.89 0.920964 281.184 0.95029 281.49 0.99134C281.553 1.00014 281.663 1.00502 281.744 1.00307C282.413 0.986453 283.076 0.965922 283.74 0.948329C283.918 0.943442 284.091 0.959079 284.236 0.984492C284.386 1.01088 284.553 1.0236 284.737 1.01871C285.401 1.00112 286.07 0.981563 286.733 0.96397C286.814 0.962015 286.912 0.969836 286.987 0.977655C287.633 1.03825 287.633 1.03923 288.014 1.0275C288.106 1.02457 288.204 1.02261 288.297 1.01968C288.77 1.00599 289.26 1.00111 289.721 0.977655C290.252 0.951266 290.639 0.984498 291.013 1.04021C291.486 1.02848 291.971 1.02164 292.432 1.00209C292.779 0.987429 292.963 1.02457 293.194 1.049C293.275 1.0578 293.361 1.07539 293.43 1.07344C294.099 1.05682 294.769 1.04217 295.426 1.01773C295.784 1.00405 295.94 1.04802 296.182 1.0705C296.263 1.07832 296.349 1.09201 296.424 1.09006C296.805 1.08224 297.186 1.0705 297.566 1.05975C298.011 1.04705 298.01 1.04802 298.599 1.10764C298.876 1.13599 299.153 1.11351 299.424 1.10667C299.712 1.09885 299.983 1.09298 300.214 1.13306C300.358 1.15847 300.531 1.17411 300.71 1.1702C301.091 1.1614 301.477 1.15261 301.852 1.13795C302.152 1.12622 302.412 1.13403 302.631 1.1702C302.787 1.19561 302.948 1.20832 303.139 1.20246C303.992 1.179 304.852 1.15456 305.705 1.13208C305.78 1.13012 305.884 1.13892 305.953 1.14772C306.115 1.16531 306.271 1.18486 306.426 1.2044C306.801 1.19561 307.188 1.19171 307.557 1.17803C307.949 1.16434 308.307 1.15945 308.613 1.21321C308.676 1.22494 308.768 1.24155 308.843 1.24057C309.132 1.23666 309.414 1.22689 309.697 1.21907C309.98 1.21125 310.268 1.20343 310.551 1.19561C310.88 1.22005 311.087 1.29042 311.549 1.26794C311.826 1.25425 312.12 1.25132 312.403 1.2435C312.685 1.23568 312.974 1.22689 313.256 1.22005C313.349 1.21809 313.452 1.2132 313.533 1.21711C313.62 1.22102 313.695 1.23471 313.77 1.24448C314 1.27283 314.214 1.30117 314.543 1.28456C314.819 1.27087 315.114 1.26794 315.396 1.25914C315.783 1.24839 315.783 1.24839 316.423 1.30997C316.683 1.33538 316.977 1.30215 317.225 1.32366C317.392 1.33832 317.536 1.36275 317.698 1.37936C317.767 1.3862 317.877 1.38913 317.957 1.38718C318.338 1.37838 318.725 1.36959 319.1 1.35493C319.405 1.3432 319.659 1.35493 319.873 1.39011C320.028 1.41552 320.184 1.42628 320.38 1.42042C321.332 1.39305 322.284 1.36958 323.23 1.33929C323.553 1.32853 323.812 1.34515 323.991 1.38034C324.297 1.44094 324.729 1.36959 325.047 1.41846C325.243 1.44876 325.439 1.48395 325.797 1.46929C326.454 1.44387 327.123 1.43018 327.787 1.41259C328.023 1.43898 328.26 1.46537 328.502 1.49176C328.883 1.48101 329.263 1.47025 329.644 1.46048C329.927 1.45266 330.215 1.44387 330.498 1.43702C330.59 1.43507 330.688 1.43116 330.775 1.43605C330.861 1.44093 330.931 1.45364 331.011 1.46342C331.409 1.51131 331.409 1.51229 332.067 1.49274C332.349 1.48395 332.621 1.47808 332.857 1.51718C333.076 1.55334 333.336 1.56018 333.636 1.54943C334.201 1.52988 334.772 1.51522 335.349 1.50154C335.528 1.49665 335.695 1.51326 335.845 1.53868C336.07 1.57875 336.347 1.57484 336.63 1.56409C337.005 1.55041 337.374 1.53673 337.691 1.59146C337.754 1.60319 337.853 1.6198 337.922 1.61882C338.395 1.611 338.874 1.60514 339.335 1.58657C339.796 1.568 340.021 1.62859 340.339 1.65792C340.812 1.64521 341.29 1.6325 341.763 1.6198C341.856 1.61686 341.965 1.60807 342.046 1.61296C342.386 1.63348 342.583 1.70679 343.05 1.68431C343.321 1.6716 343.615 1.6677 343.898 1.66476C343.973 1.66379 344.071 1.68039 344.123 1.6931C344.152 1.69994 344.123 1.71851 344.088 1.72829C343.984 1.75565 343.857 1.78107 343.765 1.80942C343.753 1.81333 343.863 1.83091 343.927 1.83873C344.082 1.85632 344.261 1.8534 344.469 1.84558C344.648 1.83874 344.832 1.85242 344.959 1.88174C345.011 1.89347 344.994 1.91302 344.884 1.97752C344.884 2.02542 345.005 2.00391 345.046 1.97263C345.109 1.92767 344.988 1.91301 344.757 1.93745C344.596 1.95504 344.515 1.98046 344.555 2.00098C344.578 2.01173 344.688 2.02542 344.884 1.97752C345.392 1.91888 345.772 1.90814 346.153 1.89738C346.251 1.89445 346.367 1.88467 346.436 1.89054C346.684 1.91399 346.915 1.94234 347.157 1.96873C347.434 1.96287 347.693 1.9482 347.964 1.98632C348.345 2.04007 348.362 2.03519 348.732 2.02444C348.922 2.01857 349.112 2.01369 349.303 2.00881C349.493 2.00392 349.643 2.01858 349.81 2.04106C350.151 2.08699 350.179 2.08699 350.404 2.02444C350.537 1.98632 350.629 1.97362 350.797 1.99121C351.35 2.05083 351.356 2.05474 351.829 2.03714C352.221 2.02248 352.591 2.01857 352.879 2.07429C353.075 2.11338 353.139 2.10459 353.294 2.06354C353.71 1.95505 353.9 1.957 354.679 2.03519C355.042 2.07233 355.417 2.03226 355.786 2.02737C356.098 2.02346 356.317 2.04692 356.34 2.10849C356.357 2.14661 356.409 2.17398 356.617 2.18669C356.698 2.19157 356.796 2.19841 356.876 2.19646C357.355 2.18473 357.828 2.17104 358.307 2.15736C358.549 2.15052 358.682 2.10459 358.636 2.04399C358.584 1.97948 358.676 1.95602 359.022 1.93745C359.23 1.9267 359.397 1.92866 359.565 1.94625C359.749 1.9658 359.697 1.98339 359.536 2.01858C359.149 2.10459 359.195 2.15736 359.691 2.21698C359.865 2.23751 360.003 2.25608 360.043 2.28638C360.066 2.30202 360.043 2.32255 360.095 2.33428C360.378 2.39976 360.77 2.44179 361.209 2.47307C361.63 2.44668 361.918 2.49065 362.241 2.52584C362.495 2.55321 362.795 2.52976 363.066 2.51998C363.372 2.50923 363.625 2.51705 363.845 2.55321C364 2.57862 364.162 2.59035 364.352 2.58546C364.733 2.57471 365.119 2.56787 365.494 2.55223C365.817 2.53855 366.06 2.5581 366.262 2.59133C366.515 2.63336 366.798 2.60501 367.063 2.61087C367.421 2.61771 367.6 2.7047 368.067 2.68124C368.344 2.66756 368.632 2.66267 368.921 2.65876C368.996 2.65779 369.088 2.6744 369.152 2.68613C369.457 2.73989 369.815 2.73696 370.207 2.72132C370.478 2.71057 370.744 2.7008 371.009 2.73794C371.447 2.80049 371.932 2.85523 372.393 2.91289C372.457 2.95785 372.411 3.01062 372.739 3.03701C372.913 3.0507 373.074 3.07123 373.207 3.09371C373.368 3.1201 373.518 3.12694 373.726 3.1201C374.101 3.10642 374.493 3.10348 374.862 3.08588C375.203 3.07025 375.416 3.10251 375.624 3.13281C375.791 3.15724 375.947 3.16897 376.149 3.15137C376.356 3.13476 376.506 3.1455 376.674 3.17189C376.91 3.20806 376.927 3.20415 377.712 3.21491C377.793 3.21588 377.891 3.23054 377.937 3.24324C377.96 3.25008 377.908 3.26964 377.868 3.27942C377.816 3.29115 377.735 3.30482 377.66 3.30775C376.806 3.33317 375.947 3.35565 375.093 3.38106C375.006 3.38399 374.914 3.39084 374.851 3.40061C374.782 3.41136 374.695 3.42602 374.695 3.4397C374.695 3.44947 374.81 3.46121 374.891 3.46805C375.145 3.49053 375.445 3.45632 375.693 3.48173C375.86 3.49835 375.999 3.5218 376.166 3.53744C376.235 3.54428 376.345 3.54331 376.431 3.54135C376.72 3.53451 377.002 3.52474 377.291 3.51887C377.372 3.5179 377.464 3.52767 377.539 3.53549C378.093 3.59414 378.093 3.59413 378.571 3.58143C378.762 3.57654 378.964 3.56188 379.142 3.56774C379.315 3.57361 379.465 3.6 379.621 3.61661C379.944 3.6518 380.25 3.68601 380.273 3.76224C380.284 3.79156 380.475 3.81697 380.665 3.81893C380.85 3.82088 381.046 3.81014 381.236 3.80428C381.686 3.79255 381.686 3.79255 382.269 3.85217C382.43 3.86878 382.603 3.87073 382.811 3.86096C382.892 3.85705 382.99 3.86096 383.076 3.86585C383.359 3.88051 383.359 3.89908 383.174 3.93426C382.915 3.98607 382.938 3.99096 383.665 4.03494C383.942 4.05155 384.155 4.08283 384.386 4.1102C384.761 4.15418 384.755 4.15417 384.507 4.21184C384.449 4.22455 384.397 4.23823 384.34 4.25192C384.172 4.29003 384.04 4.33108 383.694 4.33499C383.313 4.3389 382.932 4.35455 382.551 4.3653C382.182 4.37605 382.084 4.3995 382.119 4.46596C382.159 4.54611 382.234 4.5549 382.898 4.55393C383.088 4.55393 383.255 4.56174 383.399 4.58813C383.33 4.61941 383.203 4.64385 383.019 4.64971C382.546 4.66437 382.067 4.67708 381.594 4.68979C381.213 4.70054 380.833 4.71128 380.452 4.72204C380.215 4.72888 380.065 4.77971 380.129 4.83639C380.163 4.86865 380.192 4.9009 380.221 4.93316C380.284 4.99766 380.406 5.01428 380.792 5.01135C380.89 5.01037 380.982 5.00255 381.075 5.0045C381.45 5.01134 381.628 5.09247 382.078 5.07585C382.453 5.06217 382.846 5.05924 383.215 5.04164C383.555 5.02601 383.745 5.0612 383.982 5.08759C384.063 5.09639 384.149 5.11495 384.219 5.11397C384.697 5.10322 385.176 5.09248 385.643 5.07391C385.863 5.06609 385.995 5.07195 386.168 5.09541C386.584 5.15209 386.595 5.14916 387.212 5.13157C387.662 5.11789 387.668 5.11984 388.245 5.17946C388.406 5.19608 388.579 5.19607 388.787 5.18825C389.058 5.17848 389.341 5.16284 389.623 5.1775C389.71 5.18141 389.82 5.19315 389.848 5.20585C389.866 5.21465 389.785 5.23615 389.716 5.24299C389.208 5.29382 388.614 5.28502 388.06 5.30555C387.887 5.31141 387.714 5.29284 387.57 5.26645C387.42 5.24006 387.258 5.22931 387.062 5.2342C386.682 5.24495 386.295 5.25179 385.92 5.26743C385.597 5.28111 385.372 5.25863 385.147 5.22833C385.072 5.21856 384.986 5.19998 384.911 5.20096C384.057 5.22051 383.198 5.24006 382.35 5.26743C382.009 5.27916 381.813 5.24788 381.582 5.22149C381.502 5.2127 381.421 5.19412 381.346 5.1951C381.058 5.19901 380.775 5.20976 380.486 5.21758C379.437 5.2469 378.392 5.27622 377.343 5.30359C377.273 5.30555 377.187 5.28502 377.106 5.27622C376.95 5.25863 376.789 5.24201 376.627 5.22539C376.339 5.23321 376.056 5.24299 375.768 5.24885C375.56 5.25276 375.376 5.26645 375.347 5.30359C375.329 5.32803 375.52 5.3505 375.722 5.34855C375.918 5.34659 376.114 5.33486 376.276 5.34757C377.077 5.41012 377.077 5.4111 377.579 5.39839C378.018 5.38667 377.971 5.37689 378.358 5.43064C378.525 5.4541 378.675 5.46779 378.866 5.46193C379.339 5.44824 379.817 5.43456 380.296 5.42283C380.371 5.42087 380.469 5.43065 380.544 5.43847C381.109 5.49711 381.109 5.49907 381.577 5.48441C382.188 5.46681 382.211 5.46193 382.621 5.52155C382.903 5.5626 383.163 5.53425 383.434 5.5323C383.745 5.57042 384.086 5.60463 384.369 5.64763C384.703 5.69846 385.055 5.68965 385.436 5.67499C385.718 5.66424 385.995 5.66033 386.226 5.70041C386.445 5.73755 386.71 5.74146 387.01 5.73169C387.281 5.72289 387.558 5.70432 387.841 5.72582C387.916 5.73168 388.031 5.74635 388.026 5.75515C388.02 5.76883 387.945 5.78838 387.87 5.79424C387.339 5.83432 386.757 5.83334 386.197 5.85191C386.122 5.85484 386.024 5.84408 385.949 5.83626C385.788 5.81867 385.632 5.79815 385.476 5.77958C385.193 5.78544 384.905 5.78739 384.628 5.79912C384.415 5.80792 384.253 5.80695 384.097 5.78349C383.953 5.76199 383.797 5.7356 383.624 5.72875C383.451 5.72191 383.249 5.73657 383.059 5.74244C382.869 5.7483 382.65 5.74537 382.5 5.761C382.35 5.77664 382.257 5.81085 382.159 5.83822C382.05 5.86852 381.9 5.8783 381.68 5.88123C381.479 5.88416 381.317 5.88025 381.167 5.85288C381.104 5.84116 381.017 5.83236 380.93 5.82454C380.85 5.81769 380.757 5.80694 380.682 5.80889C379.823 5.83137 378.969 5.85582 378.11 5.87928C377.683 5.891 377.689 5.891 376.8 5.83333C376.72 5.82844 376.622 5.8216 376.541 5.82356C376.062 5.83529 375.589 5.84897 375.11 5.86266C374.626 5.87634 374.632 5.87438 373.807 5.81281C373.657 5.80108 373.438 5.81672 373.259 5.81476C372.884 5.80988 372.699 5.72778 372.261 5.74342C371.886 5.7571 371.493 5.76003 371.118 5.77762C370.778 5.79326 370.582 5.75906 370.351 5.73267C370.271 5.72387 370.184 5.70432 370.115 5.70628C369.255 5.72778 368.402 5.75221 367.26 5.75515C366.977 5.75515 367.104 5.77567 367.288 5.78252C367.554 5.79327 367.64 5.77274 367.496 5.73365C367.392 5.70628 367.242 5.69259 367.121 5.69943C367.058 5.70334 366.977 5.72191 367.26 5.75515C367.559 5.79229 367.542 5.81281 367.594 5.82454C367.721 5.85288 367.9 5.86461 368.085 5.8607C368.373 5.85386 368.656 5.84409 368.944 5.83822C369.025 5.83627 369.123 5.84311 369.198 5.85093C369.832 5.91153 369.838 5.91544 370.513 5.89198C370.726 5.88514 370.882 5.88514 371.049 5.90371C371.28 5.92912 371.447 5.97212 371.799 5.95844C372.267 5.93987 372.745 5.92912 373.224 5.91837C373.299 5.91642 373.38 5.93401 373.466 5.94183C373.703 5.96529 373.876 6.00927 374.228 5.9907C374.499 5.97604 374.793 5.97212 375.081 5.96919C375.156 5.96821 375.272 5.98385 375.306 5.99656C375.376 6.01904 375.289 6.04543 375.093 6.064C375.012 6.07182 374.903 6.06987 374.81 6.0728C374.43 6.08355 374.049 6.09527 373.668 6.10407C373.466 6.10896 373.276 6.12362 373.253 6.15979C373.236 6.18422 373.443 6.20572 373.639 6.20376C373.928 6.20083 374.216 6.19301 374.493 6.18031C374.983 6.15881 375.41 6.16467 375.808 6.22624C376.091 6.26925 376.074 6.25362 376.374 6.38068C376.449 6.41293 376.674 6.41586 376.87 6.41391C377.343 6.40902 377.562 6.42368 377.521 6.45398C377.47 6.49112 377.302 6.50284 377.089 6.50773C376.708 6.51555 376.327 6.52826 375.947 6.53901C375.854 6.54195 375.751 6.54781 375.664 6.54585C375.578 6.5439 375.497 6.53217 375.422 6.52337C375.26 6.5048 375.122 6.47645 374.949 6.46961C374.776 6.46277 374.574 6.47743 374.383 6.4833C374.193 6.48818 373.991 6.50285 373.818 6.496C373.645 6.48916 373.501 6.45985 373.345 6.44225C373.27 6.43346 373.178 6.41976 373.103 6.42074C372.722 6.42856 372.342 6.44127 371.961 6.45105C371.494 6.46375 371.494 6.46375 370.928 6.40316C370.767 6.38556 370.599 6.38654 370.386 6.39436C369.925 6.41 369.919 6.40706 369.077 6.35037C368.996 6.34451 368.898 6.33767 368.817 6.3406C367.957 6.36308 367.104 6.38751 366.25 6.41097C365.517 6.4315 365.517 6.4315 365.114 6.52924C364.814 6.60157 364.808 6.60157 365.102 6.6348C365.339 6.66216 365.552 6.70223 365.812 6.7169C366.054 6.73058 366.354 6.6866 366.619 6.73156C366.752 6.75404 366.925 6.77847 367.092 6.78238C367.358 6.78727 367.64 6.75892 367.894 6.80193C368.021 6.82343 368.211 6.84592 368.373 6.8469C368.656 6.84885 368.944 6.8332 369.227 6.82636C369.313 6.82441 369.411 6.82441 369.492 6.8293C369.578 6.83516 369.653 6.84689 369.728 6.85667C369.959 6.8899 370.207 6.90553 370.507 6.88892C370.997 6.86155 371.436 6.87523 371.817 6.93779C371.869 6.94658 371.995 6.94757 372.076 6.94366C372.284 6.93388 372.463 6.9329 372.618 6.95147C372.682 6.95929 372.774 6.97297 372.763 6.98176C372.745 6.99643 372.676 7.01598 372.601 7.02086C372.059 7.05409 371.476 7.05801 370.917 7.0756C370.842 7.07756 370.749 7.06484 370.674 7.05605C370.513 7.03845 370.374 7.00914 370.201 7.0023C370.028 6.99546 369.827 7.00816 369.636 7.01305C369.446 7.01793 369.244 7.0326 369.071 7.02673C368.898 7.01989 368.736 6.99545 368.598 6.97395C368.436 6.94951 368.281 6.94659 368.067 6.95636C367.79 6.96907 367.502 6.97102 367.219 6.97786C367.064 6.95929 366.908 6.93876 366.746 6.92117C366.671 6.91237 366.579 6.90162 366.498 6.9026C366.117 6.91042 365.737 6.92214 365.356 6.93289C364.975 6.94365 364.975 6.94366 364.329 6.88306C364.254 6.87622 364.156 6.8684 364.075 6.87035C363.597 6.88208 363.124 6.89673 362.645 6.90846C362.46 6.91335 362.293 6.89966 362.143 6.87328C361.999 6.84689 361.826 6.83223 361.647 6.83711C360.885 6.85764 360.124 6.87719 359.363 6.90162C359.057 6.9114 358.797 6.9026 358.59 6.86742C358.347 6.82734 358.076 6.83712 357.794 6.84494C357.153 6.86449 357.148 6.8635 356.738 6.81366C356.657 6.80388 356.577 6.78531 356.502 6.78629C355.838 6.80095 355.169 6.81463 354.512 6.83809C354.165 6.8508 353.981 6.81659 353.75 6.79118C353.669 6.78238 353.583 6.76381 353.514 6.76576C353.035 6.77652 352.556 6.78629 352.089 6.80584C351.621 6.82539 351.443 6.73449 351.091 6.73547C350.612 6.73645 350.139 6.75893 349.666 6.77261C349.285 6.78336 348.905 6.79411 348.524 6.80486C348.143 6.81561 347.763 6.82441 347.382 6.83711C347.18 6.84395 347.03 6.83516 346.863 6.81072C346.649 6.77847 346.395 6.75307 346.165 6.72374C345.813 6.68172 345.813 6.68171 345.386 6.69344C345.294 6.69637 345.196 6.69832 345.103 6.70125C344.405 6.72276 344.405 6.72081 343.517 6.65923C343.477 6.6563 343.373 6.66705 343.332 6.67487C343.211 6.70029 343.102 6.72765 342.992 6.75404C342.836 6.7384 342.646 6.7296 342.542 6.70712C342.248 6.64359 341.786 6.73058 341.487 6.66803C341.377 6.64457 341.187 6.62404 341.014 6.61818C340.835 6.61231 340.633 6.626 340.448 6.63186C339.969 6.64652 339.969 6.64555 339.56 6.73254C339.352 6.77554 339.052 6.76772 338.781 6.77749C338.499 6.78824 338.227 6.79411 337.991 6.75404C337.777 6.71787 337.518 6.70908 337.212 6.72081C336.837 6.73547 336.451 6.74426 336.07 6.75306C335.989 6.75501 335.891 6.75013 335.81 6.74426C334.928 6.6866 334.928 6.68562 334.501 6.69833C334.311 6.70419 334.115 6.70614 333.93 6.71494C333.618 6.73058 333.382 6.71005 333.157 6.67878C333.082 6.669 332.995 6.65044 332.921 6.65142C332.54 6.6563 332.165 6.6651 331.79 6.6739C331.501 6.68074 331.213 6.68465 330.936 6.69833C330.475 6.72081 330.25 6.65727 329.933 6.62795C329.46 6.64066 328.981 6.64945 328.508 6.66705C328.289 6.67487 328.144 6.67194 327.977 6.64848C327.764 6.61916 327.568 6.58593 327.221 6.60059C326.76 6.62014 326.275 6.62698 325.802 6.63871C325.485 6.60841 325.254 6.54683 324.799 6.56931C324.522 6.58299 324.228 6.58592 323.945 6.59374C323.564 6.60449 323.184 6.61428 322.803 6.626C322.393 6.63773 322.399 6.6348 321.77 6.57713C321.407 6.54293 321.032 6.58104 320.663 6.58691C320.374 6.59179 320.23 6.63675 320.299 6.69442C320.369 6.75208 320.213 6.79704 319.947 6.80486C319.284 6.82343 318.615 6.84297 317.952 6.85959C317.871 6.86155 317.773 6.8547 317.698 6.84786C316.988 6.78629 316.988 6.78727 316.671 6.79607C316.198 6.81073 315.714 6.81854 315.246 6.83711C314.923 6.84982 314.687 6.8293 314.479 6.79607C314.318 6.77066 314.168 6.76479 313.96 6.77066C311.676 6.83614 309.391 6.89674 307.113 6.96418C306.773 6.97395 306.577 6.94561 306.346 6.91922C306.265 6.91043 306.19 6.89185 306.109 6.89185C305.919 6.89185 305.728 6.90065 305.538 6.90652C304.684 6.92997 303.831 6.95831 302.971 6.97591C302.608 6.98373 302.51 7.02869 302.354 7.06583C302.233 7.09417 302.095 7.1059 301.881 7.10981C301.673 7.11372 301.523 7.10883 301.362 7.08342C301.154 7.05019 300.918 7.02966 300.595 7.04334C300.22 7.05898 299.839 7.06583 299.452 7.07658C299.256 7.08147 299.106 7.09906 299.043 7.13424C299.031 7.14011 299.153 7.15477 299.222 7.16357C299.453 7.19289 299.672 7.2271 299.931 7.24762C300.197 7.26815 300.485 7.24468 300.762 7.23882C300.86 7.23686 300.952 7.231 301.045 7.23198C301.131 7.23296 301.235 7.23785 301.298 7.24664C301.598 7.29063 301.916 7.32093 302.331 7.29454C302.689 7.30724 302.873 7.38836 303.329 7.36686C303.606 7.35416 303.894 7.34829 304.183 7.34341C304.258 7.34243 304.338 7.36002 304.419 7.36882C304.65 7.39325 304.834 7.43235 305.181 7.41573C305.55 7.39814 305.942 7.39521 306.317 7.38153C306.525 7.37371 306.674 7.38055 306.836 7.40596C307.044 7.43821 307.28 7.46264 307.603 7.447C307.88 7.43332 308.174 7.43039 308.457 7.42159C308.826 7.41084 308.826 7.41182 309.484 7.47242C309.559 7.47926 309.657 7.48708 309.738 7.48512C310.216 7.47339 310.689 7.45873 311.168 7.447C311.353 7.44212 311.532 7.45482 311.658 7.48317C311.71 7.49489 311.693 7.51445 311.71 7.53107C310.758 7.55746 309.807 7.57993 308.861 7.61219C308.503 7.62489 308.342 7.58482 308.105 7.56234C308.024 7.55452 307.938 7.53791 307.863 7.53986C307.194 7.55648 306.53 7.57407 305.867 7.59557C305.659 7.60241 305.504 7.5985 305.348 7.57016C304.95 7.4949 304.465 7.53595 304.015 7.5467C303.669 7.55452 303.56 7.58482 303.6 7.64933C303.652 7.72557 303.86 7.74902 304.39 7.73534C304.581 7.73045 304.771 7.72361 304.961 7.7197C305.146 7.71579 305.313 7.72849 305.463 7.75488C305.607 7.78127 305.78 7.79496 305.959 7.79105C306.34 7.78225 306.726 7.77346 307.096 7.7588C307.401 7.74707 307.655 7.75684 307.869 7.793C308.105 7.83308 308.382 7.82428 308.659 7.81548C309.305 7.79593 309.311 7.79692 309.714 7.84579C309.795 7.85556 309.876 7.87413 309.951 7.87316C310.614 7.8585 311.283 7.84579 311.935 7.82233C312.276 7.8106 312.472 7.84187 312.697 7.86729C312.777 7.87608 312.858 7.89563 312.933 7.89368C313.412 7.88293 313.891 7.87217 314.358 7.8536C314.577 7.8448 314.71 7.85067 314.889 7.87412C315.315 7.93179 315.327 7.92983 315.933 7.91126C316.117 7.9054 316.319 7.89465 316.492 7.90247C316.665 7.91029 316.804 7.93864 316.965 7.95623C317.04 7.96405 317.133 7.97479 317.213 7.97284C317.594 7.96502 317.975 7.9533 318.355 7.94255C318.713 7.9318 318.713 7.93278 319.382 7.99337C319.653 8.01879 319.936 7.99728 320.207 7.98946C320.501 7.98066 320.767 7.98067 320.992 8.01879C321.217 8.0569 321.488 8.05494 321.776 8.04712C322.047 8.0393 322.324 8.01781 322.601 8.0442C323.235 8.1048 323.236 8.10576 323.628 8.09404C324.199 8.07742 324.764 8.06178 325.341 8.04712C325.416 8.04517 325.514 8.0569 325.589 8.06472C325.75 8.08231 325.889 8.11163 326.062 8.11847C326.235 8.12629 326.437 8.11456 326.621 8.1087C327.216 8.09013 327.256 8.08329 327.654 8.1478C327.989 8.20058 328.404 8.12434 328.715 8.18494C328.894 8.21915 329.136 8.24651 329.471 8.22989C329.748 8.21621 330.036 8.2123 330.325 8.20448C330.78 8.19178 330.78 8.19276 331.357 8.25141C331.432 8.25923 331.53 8.26899 331.605 8.26704C331.986 8.25922 332.373 8.25238 332.742 8.23479C333.174 8.21426 333.451 8.25141 333.774 8.28757C334.028 8.31591 334.328 8.29245 334.599 8.28268C334.893 8.2729 335.159 8.27583 335.378 8.31395C335.609 8.35304 335.88 8.34816 336.168 8.34034C336.439 8.3335 336.716 8.31102 336.993 8.33838C337.587 8.39898 337.587 8.39898 338.02 8.38725C338.4 8.3765 338.781 8.36478 339.162 8.35696C339.237 8.35501 339.329 8.36771 339.404 8.3765C339.566 8.3941 339.704 8.42342 339.877 8.43026C340.05 8.43711 340.252 8.4244 340.442 8.41951C340.633 8.41463 340.835 8.39997 341.008 8.40583C341.181 8.41169 341.342 8.43613 341.481 8.45763C341.642 8.48305 341.792 8.48597 342.011 8.4762C342.288 8.46349 342.577 8.46056 342.859 8.45372C343.015 8.47229 343.177 8.49086 343.327 8.51138C343.482 8.53289 343.65 8.53093 343.863 8.52409C344.573 8.50063 344.578 8.50357 345.172 8.56417C345.444 8.59153 345.726 8.56905 345.997 8.56221C346.286 8.55439 346.557 8.55048 346.782 8.58958C347.001 8.62672 347.272 8.6316 347.561 8.61987C347.745 8.61205 347.941 8.60718 348.132 8.60424C348.218 8.60327 348.322 8.60717 348.385 8.61499C348.691 8.65604 348.991 8.69319 349.412 8.6668C349.781 8.67462 349.966 8.75476 350.41 8.73912C350.785 8.72544 351.177 8.7225 351.547 8.70491C351.887 8.68927 352.129 8.71664 352.302 8.75085C352.614 8.81145 353.052 8.72935 353.364 8.78897C353.542 8.82318 353.773 8.85054 354.119 8.83588C354.5 8.82025 354.621 8.84076 354.731 8.90234C354.794 8.93753 354.783 8.96588 354.667 8.99324C354.552 9.02159 354.425 9.0167 354.24 8.98445C354.027 8.94829 353.773 8.94143 353.467 8.94925C353.167 8.95707 352.983 8.90626 352.735 8.88671C352.487 8.86619 352.193 8.90039 351.933 8.874C351.322 8.81243 351.322 8.81243 350.906 8.82416C350.624 8.83197 350.329 8.83589 350.053 8.84957C349.724 8.86619 349.51 8.83588 349.285 8.80851C349.205 8.79874 349.124 8.78017 349.055 8.78114C348.391 8.79581 347.722 8.80949 347.065 8.83393C346.718 8.84663 346.534 8.81145 346.303 8.78701C346.222 8.77822 346.136 8.76063 346.067 8.76258C345.496 8.77626 344.93 8.79386 344.359 8.81047C344.25 8.83686 344.128 8.86227 344.025 8.89061C343.915 8.91993 343.765 8.93264 343.546 8.93167C343.182 8.93167 342.825 8.97272 342.461 8.92092C342.086 8.86814 342.058 8.87107 341.694 8.88378C341.233 8.90039 340.742 8.89648 340.31 8.9346C340.235 8.94144 340.154 8.96 340.154 8.97369C340.148 8.98248 340.269 8.9952 340.344 9.00301C340.598 9.02647 340.892 8.99226 341.146 9.0167C341.313 9.03234 341.452 9.05579 341.619 9.07241C341.688 9.07925 341.792 9.07827 341.885 9.0773C341.983 9.07632 342.075 9.06948 342.167 9.07046C342.254 9.07144 342.346 9.07729 342.415 9.08609C342.733 9.12323 343.067 9.15744 343.35 9.20143C343.627 9.24443 343.886 9.21511 344.163 9.21316C345.271 9.28157 345.271 9.28255 346.015 9.26105C346.199 9.25616 346.39 9.2503 346.58 9.25128C346.661 9.25128 346.736 9.26886 346.816 9.27863C347.047 9.30796 347.266 9.33435 347.59 9.31871C347.866 9.30503 348.161 9.30209 348.443 9.2933C348.824 9.28255 348.824 9.28255 349.47 9.34412C349.632 9.35976 349.805 9.35781 350.012 9.34999C350.191 9.34315 350.376 9.35781 350.502 9.38616C350.554 9.39789 350.537 9.41743 350.554 9.43405C349.983 9.44969 349.407 9.46044 348.853 9.4839C348.495 9.49856 348.334 9.45653 348.097 9.43405C348.016 9.42623 347.93 9.40961 347.855 9.41157C347.29 9.42623 346.724 9.44284 346.159 9.46238C346.09 9.46434 346.003 9.48682 345.997 9.5005C345.986 9.52592 346.13 9.55035 346.338 9.54937C346.615 9.5484 346.886 9.53178 347.134 9.57185C347.341 9.60704 347.601 9.62269 347.907 9.60705C348.091 9.59825 348.288 9.59825 348.472 9.59043C348.962 9.56697 349.406 9.57186 349.776 9.63832C350.058 9.65591 350.335 9.6393 350.606 9.6305C350.808 9.62366 351.004 9.61681 351.149 9.63538C351.454 9.67448 351.754 9.71358 352.175 9.68719C352.631 9.71456 352.977 9.77222 353.358 9.81913C353.537 9.84161 353.675 9.85433 353.883 9.83967C353.969 9.8338 354.073 9.83379 354.165 9.83086C354.356 9.82598 354.558 9.81131 354.731 9.81718C354.904 9.82402 355.048 9.85237 355.204 9.86996C355.279 9.87876 355.365 9.89342 355.44 9.89244C355.729 9.88755 356.011 9.87778 356.294 9.86996C356.577 9.86312 356.859 9.85628 357.142 9.84944C357.378 9.87485 357.621 9.90027 357.857 9.92568C358.238 9.91493 358.619 9.90417 358.994 9.89439C359.415 9.88267 359.415 9.88365 360.02 9.94424C360.291 9.97161 360.58 9.95401 360.839 9.94131C361.272 9.92078 361.56 9.95793 361.866 9.99703C361.93 10.0048 362.045 10.0097 362.12 10.0058C362.42 9.99214 362.679 10.0029 362.899 10.039C363.054 10.0645 363.21 10.0762 363.401 10.0713C364.064 10.0527 364.727 10.0332 365.391 10.0166C365.471 10.0146 365.564 10.0234 365.639 10.0312C366.227 10.0909 366.233 10.0938 366.665 10.0781C367.052 10.0645 367.41 10.0586 367.715 10.1124C367.779 10.1241 367.877 10.1407 367.946 10.1397C368.419 10.1299 368.898 10.1192 369.365 10.1026C369.578 10.0948 369.728 10.0977 369.896 10.1202C370.109 10.1485 370.3 10.1827 370.651 10.17C371.626 10.1339 371.632 10.1397 372.786 10.2072C372.866 10.212 372.976 10.2042 373.068 10.2003C373.264 10.1905 373.409 10.2042 373.582 10.2267C373.968 10.2775 373.98 10.2746 374.349 10.2639C374.632 10.2551 374.926 10.2531 375.203 10.2384C375.629 10.2169 375.912 10.2551 376.229 10.2912C376.483 10.3196 376.777 10.2961 377.048 10.2873C377.343 10.2775 377.608 10.2805 377.827 10.3176C377.977 10.343 378.139 10.3567 378.329 10.3518C378.992 10.3342 379.656 10.3147 380.319 10.2971C380.4 10.2951 380.498 10.3029 380.573 10.3098C381.231 10.3704 381.231 10.3733 381.882 10.3508C382.09 10.344 382.263 10.342 382.419 10.3626C382.569 10.3821 382.73 10.4007 382.886 10.4193C383.169 10.4124 383.457 10.4105 383.734 10.3987C383.947 10.3899 384.097 10.3938 384.265 10.4144C384.484 10.4408 384.668 10.4867 385.015 10.4642C385.193 10.4535 385.401 10.4564 385.58 10.4466C385.793 10.4339 385.938 10.4417 386.105 10.4671C386.312 10.4974 386.526 10.5287 386.86 10.5131C387.23 10.4955 387.622 10.4926 387.997 10.4789C388.204 10.4711 388.349 10.4789 388.516 10.5043C388.724 10.5365 388.96 10.5571 389.283 10.5444C389.941 10.5199 389.946 10.5248 390.587 10.5864C390.748 10.602 390.921 10.6001 391.129 10.5923C391.308 10.5854 391.492 10.6001 391.619 10.6284C391.74 10.6597 391.729 10.6792 391.74 10.6959ZM340.339 1.88076C340.148 1.88565 339.958 1.89151 339.681 1.80648C339.664 1.79182 339.675 1.77423 339.635 1.76153C339.543 1.73514 339.398 1.71657 339.225 1.71363C338.914 1.70972 338.539 1.74295 338.545 1.76836C338.55 1.78986 338.648 1.80843 338.839 1.82602C338.92 1.83287 338.983 1.8446 339.058 1.85242C339.277 1.8749 339.45 1.91889 339.768 1.89641C339.71 1.83581 339.739 1.86611 339.768 1.89641C339.739 1.93355 339.825 1.95994 340.033 1.97069C340.091 1.97362 340.177 1.97166 340.223 1.9658C340.402 1.94429 340.431 1.91498 340.298 1.83776C340.275 1.85047 340.293 1.87294 340.344 1.87881C340.396 1.88467 340.523 1.87979 340.587 1.87295C340.748 1.85438 340.829 1.82994 340.789 1.80942C340.766 1.79866 340.656 1.78498 340.587 1.78498C340.466 1.78498 340.356 1.80648 340.339 1.88076ZM386.981 13.2156C386.56 13.2341 386.076 13.2273 385.655 13.2654C385.58 13.2723 385.505 13.2899 385.499 13.3035C385.493 13.3123 385.609 13.325 385.678 13.3319C385.834 13.3475 386.007 13.3426 386.209 13.3377C386.514 13.3309 386.693 13.3759 386.93 13.3983C387.005 13.4052 387.103 13.4101 387.183 13.4081C387.651 13.3964 388.112 13.3837 388.579 13.37C388.66 13.3671 388.747 13.3602 388.816 13.3514C389.047 13.3231 389.024 13.3045 388.799 13.283C388.551 13.2596 388.354 13.2205 388.101 13.2019C387.737 13.1755 387.368 13.2107 386.981 13.2156ZM354.223 13.9291C353.94 13.9369 353.663 13.9447 353.381 13.9525C353.289 13.9555 353.19 13.9564 353.104 13.9603C352.925 13.9672 352.793 13.9877 352.706 14.02C352.839 14.0454 353 14.06 353.179 14.0571C353.462 14.0512 353.739 14.0385 354.021 14.0356C354.327 14.0317 354.506 14.0757 354.742 14.0982C354.817 14.105 354.909 14.106 354.996 14.1069C355.423 14.1109 355.682 14.06 355.602 13.9887C355.544 13.933 355.325 13.8997 355.06 13.9066C354.783 13.9134 354.5 13.9213 354.223 13.9291ZM388.954 11.771C389.024 11.7544 389.099 11.7426 389.133 11.728C389.237 11.6781 389.197 11.641 389.006 11.6019C388.775 11.554 388.493 11.5863 388.233 11.5911C388.17 11.5921 388.101 11.6126 388.066 11.6254C388.043 11.6341 388.043 11.6527 388.078 11.6576C388.36 11.6967 388.66 11.7329 388.954 11.771ZM338.914 8.88378C338.637 8.89159 338.354 8.89746 338.078 8.90821C338.008 8.91114 337.945 8.92971 337.904 8.94242C337.829 8.96587 337.91 8.99813 338.147 9.00106C338.418 9.00497 338.7 8.98836 338.983 8.98054C339.341 8.97076 339.554 8.9346 339.421 8.90332C339.295 8.87302 339.122 8.86716 338.914 8.88378ZM35.2734 6.79509C35.458 6.7902 35.6484 6.78629 35.8329 6.77945C36.006 6.77261 36.1388 6.75111 36.2253 6.71885C36.0811 6.69344 35.9195 6.67976 35.7407 6.68269C35.458 6.68855 35.1812 6.69637 34.9043 6.70614C34.7313 6.71201 34.564 6.73351 34.5237 6.76674C34.4833 6.79215 34.8696 6.80682 35.2734 6.79509ZM314.52 6.64457C314.594 6.65337 314.669 6.67096 314.744 6.67096C314.929 6.67096 315.119 6.66509 315.293 6.65532C315.367 6.65141 315.425 6.63382 315.46 6.62013C315.483 6.61134 315.477 6.5957 315.443 6.58788C315.275 6.54097 314.606 6.55758 314.496 6.61134C314.485 6.62111 314.514 6.63382 314.52 6.64457ZM296.32 1.29237C296.338 1.30801 296.343 1.32365 296.367 1.33929C296.413 1.36861 296.539 1.39011 296.724 1.40477C296.868 1.38034 296.943 1.35298 296.938 1.32366C296.932 1.30802 296.914 1.29237 296.891 1.27673C296.845 1.24741 296.718 1.22591 296.534 1.21125C296.39 1.23471 296.32 1.26207 296.32 1.29237ZM402.285 14.0991C402.233 14.1118 402.181 14.1245 402.123 14.1363C402.279 14.1646 402.423 14.1734 402.533 14.1578C402.602 14.148 402.643 14.1333 402.695 14.1206C402.539 14.0923 402.4 14.0845 402.285 14.0991ZM398.697 14.2321C398.772 14.2409 398.841 14.2526 398.922 14.2585C399.055 14.2682 399.176 14.2516 399.268 14.2164C399.193 14.2076 399.124 14.1959 399.043 14.19C398.911 14.1803 398.789 14.1969 398.697 14.2321ZM400.97 14.0532C400.929 14.0767 401.01 14.0962 401.224 14.1128C401.276 14.1001 401.345 14.0884 401.379 14.0747C401.437 14.0522 401.339 14.0317 401.131 14.0161C401.074 14.0278 401.022 14.0405 400.97 14.0532ZM388.793 12.9996C388.752 13.023 388.833 13.0426 389.047 13.0592C389.099 13.0465 389.168 13.0348 389.202 13.0211C389.26 12.9986 389.162 12.9781 388.954 12.9624C388.897 12.9742 388.845 12.9869 388.793 12.9996ZM372.203 6.08355C372.151 6.09625 372.099 6.10896 372.042 6.12069C372.197 6.14903 372.341 6.15783 372.451 6.14219C372.52 6.13241 372.561 6.11775 372.613 6.10505C372.457 6.0767 372.318 6.06889 372.203 6.08355ZM356.311 2.41442C356.45 2.42126 356.565 2.40758 356.663 2.37142C356.588 2.36262 356.519 2.35089 356.438 2.34502C356.305 2.33525 356.184 2.35187 356.092 2.38706C356.167 2.39683 356.242 2.40562 356.311 2.41442ZM347.872 2.18473C347.82 2.19744 347.768 2.21014 347.711 2.22187C347.866 2.25022 348.011 2.25901 348.12 2.24337C348.189 2.2336 348.23 2.21894 348.282 2.20623C348.126 2.17789 347.988 2.17105 347.872 2.18473ZM290.644 1.29139C290.592 1.3041 290.54 1.31681 290.483 1.32854C290.639 1.35688 290.783 1.36567 290.892 1.35004C290.962 1.34026 291.002 1.3256 291.054 1.31289C290.898 1.28455 290.76 1.27771 290.644 1.29139ZM5.69329 9.24345C5.6183 9.23465 5.54338 9.22587 5.47416 9.21609C5.30688 9.24248 5.25498 9.26691 5.34728 9.28548C5.40496 9.29721 5.49142 9.30406 5.56641 9.31285C5.73946 9.28646 5.77982 9.263 5.69329 9.24345Z" fill="#FFE492"/>
<path d="M39.1504 5.79237C38.487 5.81094 37.8295 5.83439 37.1661 5.84612C36.8142 5.85198 36.6874 5.89401 36.5432 5.93311C36.4279 5.96438 36.2952 5.97416 36.0817 5.98002C34.282 6.02791 32.488 6.07874 30.694 6.12859C30.4691 6.11588 30.3595 6.09536 30.4114 6.07092C30.4402 6.05626 30.5095 6.03574 30.5787 6.03378C31.8074 5.99762 33.0302 5.96047 34.2646 5.93213C34.6165 5.92431 34.7146 5.8813 34.8934 5.84612C34.9511 5.83439 34.9973 5.8168 35.0723 5.80995C35.1473 5.80214 35.2569 5.80312 35.3549 5.80116C37.3392 5.74545 39.3236 5.69072 41.3079 5.63501C41.5329 5.64772 41.6425 5.66824 41.5905 5.69267C41.5617 5.70733 41.4925 5.72786 41.4232 5.72981C40.6618 5.75034 39.906 5.77087 39.1504 5.79237Z" fill="#FFE492"/>
<path d="M402.746 10.9972C402.446 11.0089 402.065 11.0255 401.754 10.9688C401.604 10.9415 401.442 10.9327 401.246 10.9386C400.963 10.9483 400.675 10.9561 400.386 10.962C400.311 10.963 400.213 10.9522 400.138 10.9434C399.977 10.9258 399.838 10.8965 399.665 10.8887C399.492 10.8809 399.285 10.9024 399.106 10.8975C398.869 10.8907 398.771 10.8643 398.835 10.8398C398.869 10.8262 398.939 10.8066 399.014 10.8037C400.081 10.7675 400.086 10.7675 400.386 10.8027C400.617 10.8301 400.831 10.8604 401.159 10.8437C401.436 10.8301 401.731 10.8271 402.013 10.8183C402.405 10.8066 402.405 10.8076 403.04 10.8692C403.201 10.8848 403.374 10.8838 403.582 10.875C403.761 10.8682 403.934 10.8838 404.078 10.9102C403.986 10.9434 403.853 10.9649 403.674 10.9708C403.386 10.9806 403.103 10.9874 402.746 10.9972Z" fill="#FFE492"/>
<path d="M391.52 10.6959C392.247 10.6754 392.98 10.6578 393.706 10.6343C394.006 10.6246 394.243 10.6353 394.451 10.6685C394.676 10.7047 394.929 10.7018 395.206 10.6949C395.379 10.691 395.547 10.7066 395.662 10.734C395.708 10.7448 395.697 10.7643 395.714 10.78C395.079 10.7975 394.439 10.8161 393.799 10.8317C393.724 10.8337 393.632 10.8239 393.562 10.8161C393.407 10.7995 393.274 10.7702 393.107 10.7643C392.749 10.7506 392.391 10.777 392.028 10.7819C391.855 10.7839 391.688 10.7692 391.572 10.7428C391.526 10.7301 391.538 10.7115 391.52 10.6959Z" fill="#FFE492"/>
<path d="M128.891 2.29234C129.647 2.27084 130.403 2.25032 131.158 2.22882C131.383 2.2425 131.487 2.26205 131.441 2.28648C131.412 2.30114 131.343 2.32167 131.273 2.32362C129.762 2.36761 128.251 2.40963 126.745 2.45166C126.52 2.43797 126.417 2.41843 126.463 2.39399C126.492 2.37933 126.561 2.35881 126.63 2.35685C127.38 2.33437 128.136 2.31384 128.891 2.29234Z" fill="#FFE492"/>
<path d="M12.1937 7.72358C11.8534 7.72554 11.4958 7.7617 11.1151 7.73433C11.0401 7.72944 10.9362 7.7138 10.942 7.705C10.9535 7.69034 11.0228 7.67177 11.0978 7.66591C11.4266 7.64147 11.8361 7.63854 12.0034 7.57012C12.0842 7.53494 12.2342 7.52322 12.4361 7.51637C12.6495 7.50856 12.7994 7.51148 12.9667 7.532C13.1859 7.55839 13.3705 7.60726 13.7166 7.58185C13.7339 7.59749 13.7742 7.61508 13.7569 7.62974C13.7396 7.6444 13.6647 7.65809 13.5955 7.66884C13.532 7.67862 13.4454 7.68741 13.3647 7.69034C12.984 7.70207 12.6032 7.71185 12.1937 7.72358Z" fill="#FFE492"/>
<path d="M312.152 7.52714C312.434 7.51932 312.728 7.51541 313.005 7.50172C313.224 7.49097 313.363 7.49781 313.536 7.52127C313.83 7.56232 313.847 7.55841 314.568 7.56428C314.649 7.56525 314.747 7.57991 314.793 7.59261C314.822 7.59945 314.782 7.61804 314.747 7.62781C314.695 7.64052 314.62 7.65712 314.551 7.65712C314.095 7.66006 313.634 7.71773 313.19 7.65127C312.965 7.61803 312.717 7.60239 312.411 7.61705C312.226 7.62584 312.03 7.62976 311.84 7.63367C311.655 7.63758 311.465 7.62683 311.35 7.5975C311.182 7.5545 311.28 7.53789 311.58 7.54082C311.771 7.54277 311.961 7.53202 312.152 7.52714Z" fill="#FFE492"/>
<path d="M416.68 14.2647C417.044 14.2549 417.407 14.2432 417.776 14.2353C417.851 14.2334 417.943 14.2441 418.013 14.251C418.29 14.2803 418.249 14.3301 418.261 14.3741C418.266 14.4201 417.626 14.4572 417.355 14.4259C417.055 14.3907 416.784 14.3507 416.369 14.3722C416.207 14.38 416.017 14.3624 415.913 14.3341C415.757 14.293 415.844 14.2764 416.138 14.2793C416.311 14.2813 416.496 14.2705 416.68 14.2647Z" fill="#FFE492"/>
<path d="M233.541 0.961097C233.916 0.950346 234.291 0.933738 234.666 0.932761C234.885 0.931784 234.995 0.964031 234.943 0.987489C234.914 1.00215 234.845 1.02268 234.775 1.02463C234.025 1.04809 233.276 1.06764 232.526 1.08914C232.306 1.07546 232.197 1.05494 232.249 1.03148C232.278 1.01682 232.347 0.997269 232.416 0.994337C232.791 0.980654 233.166 0.971849 233.541 0.961097Z" fill="#FFE492"/>
<path d="M409.396 11.0831C409.76 11.0733 410.129 11.0587 410.492 11.0538C410.683 11.0518 410.833 11.0743 410.856 11.0997C410.867 11.1114 410.775 11.132 410.7 11.1368C410.181 11.1701 409.621 11.174 409.079 11.1906C408.906 11.1955 408.721 11.1799 408.618 11.1525C408.462 11.1105 408.549 11.0948 408.843 11.0978C409.027 11.0987 409.212 11.088 409.396 11.0831Z" fill="#FFE492"/>
<path d="M321.742 7.6592C321.927 7.65431 322.117 7.6416 322.296 7.64551C322.486 7.6504 322.607 7.67874 322.665 7.70709C322.728 7.73934 322.723 7.76964 322.665 7.79701C322.573 7.84393 322.48 7.84197 322.267 7.8107C321.938 7.76183 321.915 7.76769 321.263 7.76964C321.188 7.76964 321.096 7.75498 321.038 7.74227C320.952 7.72272 320.998 7.69243 321.2 7.67484C321.35 7.66213 321.557 7.66408 321.742 7.6592Z" fill="#FFE492"/>
<path d="M396.949 10.7624C397.22 10.7546 397.491 10.7419 397.762 10.7419C397.952 10.7409 398.102 10.7634 398.12 10.7878C398.125 10.7995 398.039 10.8191 397.97 10.8249C397.641 10.8513 397.272 10.8533 396.914 10.8621C396.747 10.866 396.562 10.8503 396.458 10.823C396.303 10.7819 396.395 10.7633 396.678 10.7692C396.764 10.7712 396.856 10.7653 396.949 10.7624Z" fill="#FFE492"/>
<path d="M353.367 9.56322C352.963 9.57495 352.582 9.5603 352.611 9.53489C352.652 9.50166 352.819 9.48014 352.992 9.47428C353.269 9.4645 353.546 9.45669 353.828 9.45082C354.007 9.44691 354.169 9.46157 354.313 9.48699C354.226 9.51826 354.094 9.54074 353.921 9.54758C353.742 9.55442 353.551 9.55834 353.367 9.56322Z" fill="#FFE492"/>
<path d="M350.745 9.43815C351.016 9.43034 351.287 9.41763 351.558 9.41763C351.749 9.41666 351.899 9.43913 351.916 9.46357C351.922 9.4753 351.835 9.49484 351.766 9.50071C351.437 9.5271 351.068 9.52905 350.711 9.53785C350.543 9.54176 350.359 9.52612 350.255 9.49875C350.099 9.4577 350.191 9.43914 350.474 9.445C350.561 9.44696 350.653 9.44109 350.745 9.43815Z" fill="#FFE492"/>
<path d="M319.13 7.65149C319.401 7.64367 319.672 7.63095 319.943 7.62997C320.134 7.629 320.284 7.65149 320.301 7.67592C320.307 7.68765 320.22 7.70622 320.151 7.71306C319.822 7.73945 319.453 7.74141 319.095 7.7502C318.928 7.75411 318.744 7.73847 318.64 7.71111C318.484 7.67006 318.576 7.65148 318.859 7.65734C318.945 7.6593 319.038 7.65344 319.13 7.65149Z" fill="#FFE492"/>
<path d="M316.861 7.59358C317.15 7.58576 317.242 7.58087 317.334 7.58087C317.507 7.58087 317.686 7.5926 317.79 7.62095C317.946 7.662 317.854 7.67373 317.571 7.67569C317.207 7.67764 316.85 7.69817 316.486 7.70208C316.296 7.70403 316.146 7.68057 316.135 7.65613C316.129 7.6444 316.215 7.62388 316.285 7.61997C316.527 7.60531 316.792 7.59651 316.861 7.59358Z" fill="#FFE492"/>
<path d="M348.582 1.84385C348.398 1.84873 348.202 1.86242 348.029 1.85753C347.798 1.85069 347.706 1.8243 347.763 1.79987C347.798 1.78619 347.861 1.76664 347.931 1.76371C348.3 1.75002 348.675 1.74122 349.044 1.73145C349.263 1.74611 349.361 1.76663 349.303 1.79106C349.269 1.80475 349.205 1.82332 349.136 1.82723C348.957 1.837 348.767 1.83896 348.582 1.84385Z" fill="#FFE492"/>
<path d="M124.686 2.40746C124.865 2.40648 125.026 2.41919 125.164 2.44363C125.078 2.4749 124.951 2.49543 124.778 2.50422C124.692 2.50813 124.593 2.51106 124.501 2.51204C124.322 2.51399 124.161 2.50031 124.022 2.47587C124.109 2.4446 124.241 2.42407 124.409 2.41528C124.495 2.41137 124.593 2.41039 124.686 2.40746Z" fill="#FFE492"/>
<path d="M408.541 11.0791C408.536 11.0507 408.887 11.0185 409.205 11.0194C409.372 11.0204 409.545 11.0341 409.643 11.0605C409.793 11.1006 409.707 11.1162 409.424 11.1133C409.251 11.1113 409.066 11.1279 408.893 11.125C408.697 11.124 408.582 11.1025 408.541 11.0791Z" fill="#FFE492"/>
<path d="M323.453 7.77729C323.447 7.76654 323.418 7.75384 323.436 7.74407C323.545 7.69031 324.209 7.67369 324.382 7.72061C324.41 7.72941 324.422 7.74406 324.399 7.75286C324.364 7.76654 324.301 7.78413 324.232 7.78804C324.053 7.79782 323.868 7.80271 323.684 7.80368C323.603 7.80368 323.528 7.78707 323.453 7.77729Z" fill="#FFE492"/>
<path d="M15.2211 7.56735C14.5404 7.58787 14.5289 7.58591 14.65 7.53704C14.7596 7.49306 14.9615 7.46667 15.2557 7.46667C15.3423 7.46667 15.4345 7.46472 15.5095 7.46863C15.5903 7.47352 15.7057 7.48328 15.723 7.49501C15.7576 7.51749 15.6595 7.54193 15.4864 7.55854C15.4114 7.56636 15.3134 7.56442 15.2211 7.56735Z" fill="#FFE492"/>
<path d="M133.074 2.26984C132.872 2.28645 132.699 2.28059 132.572 2.24932C132.445 2.21804 132.647 2.1809 132.999 2.1721C133.091 2.17014 133.189 2.16233 133.276 2.16624C133.362 2.16917 133.449 2.18089 133.501 2.19262C133.593 2.21217 133.535 2.23857 133.351 2.26105C133.276 2.26984 133.166 2.26788 133.074 2.26984Z" fill="#FFE492"/>
<path d="M407.337 11.0056C407.389 10.9929 407.441 10.9802 407.499 10.9685C407.712 10.9851 407.804 11.0047 407.747 11.0271C407.712 11.0408 407.643 11.0526 407.591 11.0653C407.377 11.0487 407.291 11.0281 407.337 11.0056Z" fill="#FFE492"/>
<path d="M24.3168 18.6936C24.3168 18.6819 24.3975 18.6633 24.461 18.6594C24.5821 18.6526 24.732 18.6662 24.8359 18.6936C24.9801 18.7327 24.8936 18.7532 24.6283 18.7425C24.4437 18.7347 24.3168 18.7151 24.3168 18.6936Z" fill="#FFE492"/>
<path d="M326.212 6.86742C326.287 6.87622 326.362 6.88502 326.431 6.89479C326.333 6.93096 326.212 6.94659 326.085 6.93682C326.004 6.93095 325.935 6.91922 325.86 6.91042C325.958 6.87426 326.073 6.86058 326.212 6.86742Z" fill="#FFE492"/>
<path d="M324.799 6.82352C324.914 6.80886 325.053 6.81669 325.214 6.84503C325.162 6.85774 325.116 6.8724 325.053 6.88218C324.943 6.89781 324.799 6.88999 324.643 6.86066C324.689 6.84893 324.741 6.83623 324.799 6.82352Z" fill="#FFE492"/>
<path d="M322.565 6.86649C322.64 6.87528 322.715 6.88408 322.785 6.89386C322.687 6.93002 322.571 6.94565 322.439 6.93588C322.358 6.93001 322.289 6.91828 322.214 6.90949C322.312 6.87332 322.427 6.85867 322.565 6.86649Z" fill="#FFE492"/>
<path d="M321.389 6.81454C321.476 6.83409 321.43 6.85754 321.262 6.88393C321.187 6.87513 321.101 6.8683 321.043 6.85657C320.951 6.838 320.997 6.81356 321.17 6.78717C321.239 6.79694 321.314 6.80574 321.389 6.81454Z" fill="#FFE492"/>
</svg>
