<svg width="219" height="441" viewBox="0 0 219 441" fill="none" xmlns="http://www.w3.org/2000/svg">
<g style="mix-blend-mode:multiply" opacity="0.2">
<path d="M-56.1654 440.965C-61.344 440.965 -67.5304 439.609 -75.7674 436.536C-97.6284 428.205 -120.046 403.184 -143.714 376.724C-156.747 362.193 -170.197 347.164 -183.717 334.847C-203.458 312.594 -236.928 297.26 -269.319 282.397C-292.988 271.547 -315.335 261.279 -332.643 248.602L-332.678 248.574C-345.677 238.721 -351.759 229.2 -351.272 219.485C-350.334 200.525 -324.372 183.642 -294.274 164.101L-291.389 162.219C-269.076 147.66 -241.063 128.175 -200.504 99.0852L-197.063 96.7049C-160.779 71.5732 -115.597 40.2969 -57.0691 21.3375C60.1604 -22.5877 162.758 11.4287 195.15 48.2959C228.932 91.3907 226.013 137.143 184.028 223.249C140.063 313.009 42.6785 382.398 2.84897 408.056C-13.4512 416.525 -23.6693 424.026 -31.1069 429.506C-40.5603 436.426 -46.712 440.965 -56.1654 440.965ZM-329.585 245.945C-312.659 258.345 -290.52 268.503 -267.095 279.27C-234.321 294.299 -200.4 309.854 -180.242 332.605C-166.687 344.922 -153.167 360.034 -140.099 374.62C-116.744 400.693 -94.6742 425.327 -73.8906 433.27C-53.3502 440.882 -48.5193 437.339 -34.1653 426.821C-26.5887 421.258 -16.1969 413.619 0.207611 405.094C39.5505 379.713 136.24 310.85 179.823 221.893C221.216 137.032 224.24 92.1103 191.396 50.2334C159.943 14.4733 59.7434 -18.519 -55.2617 24.5758C-113.199 43.3692 -158.068 74.424 -194.109 99.3619L-197.515 101.742C-238.109 130.86 -266.157 150.373 -288.539 164.959L-291.424 166.841C-320.688 185.828 -345.92 202.241 -346.789 219.568C-347.206 228.231 -341.576 236.839 -329.585 245.945Z" fill="#CCCCCC"/>
<path d="M-62.911 415.888C-70.0706 415.888 -77.6473 414.062 -88.0738 410.823L-88.2824 410.768C-108.301 402.769 -124.15 383.477 -140.902 363.078C-152.336 349.129 -164.188 334.736 -178.438 322.198C-198.526 301.855 -223.793 286.023 -248.191 270.717C-264.596 260.448 -280.097 250.733 -293.616 239.994L-293.86 239.773C-321.386 209.908 -301.645 196.733 -265.847 172.792C-261.954 170.19 -257.853 167.45 -253.578 164.516C-245.168 159.562 -236.201 154.026 -226.678 148.158C-184.381 122.058 -126.409 86.3253 -44.6298 57.3187C55.3264 26.8451 132.553 48.8769 164.805 84.2218C197.128 121.061 184.581 165.402 148.262 239.468C108.467 314.365 35.8287 362.857 -3.20145 388.902L-7.54587 391.808C-36.5665 408.969 -49.0089 415.888 -62.911 415.888ZM-86.3361 407.502C-57.8715 416.303 -53.0405 414.2 -10.3263 389.013L-6.08615 386.19C32.6312 360.338 104.714 312.206 144.091 238.167C179.82 165.346 192.297 121.836 161.156 86.353C129.946 52.1429 54.7355 30.9138 -42.892 60.6678C-124.08 89.453 -181.774 125.047 -223.932 151.009C-233.455 156.877 -242.422 162.412 -250.763 167.339C-254.934 170.19 -259.035 172.93 -262.928 175.559C-298.76 199.529 -315.165 210.489 -290.315 237.558C-277.003 248.104 -261.642 257.708 -245.411 267.894C-220.769 283.31 -195.329 299.28 -174.997 319.873C-160.608 332.522 -148.652 347.053 -137.114 361.113C-120.744 381.042 -105.243 399.89 -86.3361 407.502Z" fill="#CCCCCC"/>
<path d="M-68.7397 394.965C-77.8803 394.965 -86.3606 392.363 -96.9262 387.934C-114.582 379.465 -128.762 361.945 -143.776 343.428C-152.674 332.412 -161.919 321.036 -172.484 310.602C-187.255 294.216 -204.772 280.211 -221.663 266.649C-235.53 255.522 -248.633 245.032 -258.955 234.21L-259.094 234.044C-280.017 205.979 -258.399 192.887 -219.126 169.111L-218.674 168.835L-211.41 164.877C-170.051 142.43 -113.4 111.679 -35.7917 89.3986C55.8231 66.1213 114.142 89.8414 136.282 117.187C159.95 146.36 154.146 185.525 116.263 252.367C88.6668 298.949 43.6241 340.826 -17.58 376.835C-41.2483 389.623 -55.6717 394.965 -68.7397 394.965ZM-255.306 232.079C-245.157 242.68 -232.194 253.087 -218.465 264.075C-201.435 277.72 -183.814 291.864 -168.904 308.388C-158.235 318.878 -148.955 330.364 -139.988 341.463C-125.287 359.647 -111.384 376.808 -94.7019 384.807C-70.6512 394.937 -58.6607 394.743 -20.1866 373.902C40.3571 338.252 84.9133 296.846 112.161 250.845C149.315 185.275 155.223 147.107 132.493 119.097C109.52 90.7271 49.0459 71.5739 -34.3668 92.7476C-111.35 114.862 -167.723 145.447 -208.873 167.811L-216.415 171.935C-255.966 195.876 -274.074 206.837 -255.306 232.079Z" fill="#CCCCCC"/>
<path d="M-72.0046 375.922C-82.2226 375.922 -91.8151 373.127 -102.52 367.647L-102.589 367.619C-118.716 358.817 -131.714 342.266 -145.477 324.773C-151.837 316.664 -158.441 308.305 -165.601 300.334C-175.158 288.653 -185.759 277.859 -196.011 267.452C-208.593 254.665 -220.514 242.569 -228.299 230.834C-241.888 206.062 -222.008 193.109 -187.67 174.647C-152.289 157.21 -97.6192 132.355 -30.6111 117.686C33.3734 107.196 81.3008 115.61 104.483 141.351C129.506 169.084 123.285 213.065 87.4178 262.027C49.8473 319.653 -9.54938 353.448 -26.8575 362.416C-45.2778 371.494 -59.1452 375.922 -72.0046 375.922ZM-100.087 364.63C-80.0678 374.843 -64.3585 376.67 -29.2904 359.371C-12.2603 350.542 46.3718 317.19 83.4557 260.283C118.419 212.539 124.745 169.97 100.799 143.454C78.6942 118.931 32.4002 111.043 -29.6032 121.201C-95.9162 135.732 -150.204 160.393 -185.272 177.692C-220.618 196.679 -236.015 207.972 -224.302 229.312C-216.76 240.632 -204.978 252.589 -192.501 265.265C-182.179 275.755 -171.509 286.578 -161.916 298.341C-154.722 306.312 -148.119 314.754 -141.724 322.891C-128.169 340.024 -115.414 356.243 -100.087 364.63Z" fill="#CCCCCC"/>
<path d="M-74.162 358.539C-85.0057 358.539 -94.9804 355.577 -105.338 349.654L-105.616 349.46C-145.271 317.492 -192.156 244.284 -201.158 229.946L-201.297 229.614C-208.317 209.077 -192.469 197.01 -160.807 181.925C-130.987 168.584 -83.8935 150.981 -28.7022 142.76C22.11 136.395 60.167 144.975 78.5178 166.923C98.8844 191.308 92.6632 228.369 61.4878 268.613C34.0311 307.417 -6.42406 335.345 -35.1319 348.519C-50.1462 355.217 -62.6581 358.539 -74.162 358.539ZM-102.557 346.831C-82.7118 358.096 -65.0214 357.709 -37.391 345.392C-9.20445 332.466 30.5208 305.009 57.5952 266.786C87.4152 228.286 93.8101 191.723 74.7642 168.916C57.4561 148.185 20.9631 140.131 -27.9375 146.303C-82.4685 154.441 -129.041 171.878 -158.548 185.053C-188.854 199.473 -203.139 210.184 -197.022 228.535C-171.164 269.72 -132.829 322.364 -102.557 346.831Z" fill="#CCCCCC"/>
<path d="M-75.7488 342.515C-87.357 342.515 -97.4013 339.443 -105.013 333.492C-135.458 309.993 -167.155 260.422 -176.504 230.612C-178.033 223.721 -175.844 216.995 -170.075 210.573C-152.28 190.784 -99.5561 173.706 -29.0029 164.905C10.7918 161.832 40.4728 170.33 54.653 188.846C70.7099 209.826 64.9405 240.355 38.8393 272.572C4.88341 313.342 -35.7454 339.36 -69.8403 342.238C-71.8561 342.432 -73.8372 342.515 -75.7488 342.515ZM-13.5021 167.866C-18.2983 167.866 -23.2683 168.06 -28.4121 168.475C-97.6445 177.111 -149.291 193.634 -166.356 212.677C-171.43 218.323 -173.341 224.108 -172.056 229.893C-162.88 259.093 -131.739 307.862 -101.815 330.945C-93.9258 337.09 -83.0126 339.775 -70.2922 338.695C-37.518 335.928 1.89445 310.491 35.0857 270.635C59.8315 240.078 65.7399 210.214 50.8298 190.728C39.3954 175.81 16.8392 167.866 -13.5021 167.866Z" fill="#CCCCCC"/>
<path d="M-74.8203 327.29C-85.5945 327.29 -95.0827 324.523 -102.486 319.153C-128.9 300.083 -153.332 259.756 -154.723 232.881V232.825C-154.896 208.053 -103.181 187.71 -31.7934 184.499C-1.38251 183.918 21.1737 192 31.774 207.334C43.9384 224.909 38.9336 249.294 18.0457 274.259C-7.7775 304.594 -40.0999 324.301 -68.4602 326.986C-70.6498 327.18 -72.7698 327.29 -74.8203 327.29ZM-150.205 232.77C-148.814 258.843 -125.111 297.979 -99.4271 316.496C-91.6071 322.17 -81.1111 324.55 -69.0162 323.416C-41.9419 320.842 -10.8011 301.716 14.2921 272.239C34.2069 248.436 39.1422 225.38 27.8119 209.022C18.0457 194.934 -3.01601 187.461 -31.6196 188.042C-99.3228 191.114 -150.344 210.351 -150.205 232.77Z" fill="#CCCCCC"/>
<path d="M-74.0442 312.871C-83.4628 312.871 -91.8736 310.574 -98.6509 306.062C-122.458 290.313 -139.384 258.428 -135.665 236.397C-131.634 215.25 -88.2938 200.083 -37.1341 201.827C-14.6822 202.851 1.8613 210.213 9.50746 222.53C18.2658 236.646 14.2689 255.384 -1.50995 273.9C-20.1388 295.572 -44.7107 309.993 -67.2322 312.484C-69.5608 312.76 -71.8198 312.871 -74.0442 312.871ZM-45.2321 205.286C-90.6224 205.286 -127.706 218.655 -131.182 236.922C-134.657 257.487 -118.114 288.514 -95.7662 303.322C-88.3981 308.193 -78.7709 310.131 -67.8577 308.941C-46.5527 306.588 -23.1624 292.721 -5.22873 271.88C9.61176 254.47 13.5043 237.061 5.47585 224.107C-1.4057 213.009 -16.6285 206.366 -37.3426 205.397C-39.984 205.342 -42.6254 205.286 -45.2321 205.286Z" fill="#CCCCCC"/>
</g>
</svg>
