<svg width="492" height="32" viewBox="0 0 492 32" fill="none" xmlns="http://www.w3.org/2000/svg">
<path d="M459.705 16.8942C459.035 16.9206 458.359 16.9387 457.703 16.9782C457.277 17.0029 457.095 16.9304 456.811 16.8926C456.716 16.8794 456.615 16.8531 456.527 16.8564C455.864 16.8827 455.201 16.9123 454.539 16.942C454.336 17.0062 454.207 17.0918 453.896 17.123C453.592 17.1527 453.234 17.1527 452.895 17.1675C452.449 17.1856 452.003 17.2037 451.556 17.2202C451.333 17.2284 451.151 17.2597 451.076 17.3189C451.063 17.3288 451.211 17.3535 451.293 17.3683C451.563 17.4177 451.827 17.4737 452.124 17.5115C452.408 17.5477 452.76 17.4885 453.064 17.5346C453.747 17.6383 453.754 17.6366 454.275 17.6169C454.721 17.5988 455.168 17.579 455.614 17.5659C455.702 17.5626 455.803 17.5872 455.898 17.6004C456.182 17.6366 456.364 17.7189 456.784 17.6877C457.102 17.663 457.453 17.658 457.785 17.6449C458.062 17.6926 458.319 17.7469 458.616 17.7848C458.894 17.821 458.975 17.849 458.826 17.8967C458.691 17.9412 458.501 17.9593 458.251 17.9626C458.028 17.9642 457.805 17.979 457.582 17.9873C457.467 17.9922 457.358 17.9955 457.25 18.0004C456.824 18.0185 456.824 18.0185 456.047 17.9132C455.742 17.872 455.397 17.9296 455.107 17.8901C454.911 17.8638 454.741 17.8243 454.552 17.7963C454.471 17.7848 454.343 17.7831 454.241 17.7864C453.903 17.798 453.565 17.8062 453.24 17.8276C453.01 17.8424 452.875 17.8885 452.902 17.9346C452.909 17.9527 453.071 17.979 453.166 17.9807C453.382 17.984 453.612 17.9609 453.822 17.9724C454.025 17.984 454.234 18.0169 454.383 18.0531C454.687 18.1288 455.032 18.0613 455.323 18.0811C455.627 18.1025 455.877 18.1683 456.168 18.2078C456.243 18.2177 456.385 18.2013 456.5 18.1963C456.831 18.1848 457.162 18.1749 457.494 18.1634C457.771 18.2111 458.069 18.2539 458.319 18.3083C458.772 18.407 459.259 18.4449 459.847 18.3971C460.178 18.3708 460.503 18.3807 460.767 18.4449C461.037 18.5107 461.348 18.5041 461.693 18.491C462.011 18.4778 462.336 18.4416 462.66 18.4877C463.363 18.5897 463.37 18.5947 464.202 18.5552C464.452 18.5437 464.641 18.5404 464.831 18.5782C465.007 18.6128 465.196 18.6424 465.379 18.6753C465.71 18.6638 466.048 18.6523 466.379 18.6391C466.805 18.621 467.042 18.6441 467.143 18.7362C467.204 18.7922 467.231 18.8432 467.38 18.8811C467.556 18.9272 467.745 18.9255 468.002 18.9124C468.246 18.9009 468.422 18.8828 468.523 18.8235C468.564 18.7988 468.645 18.7758 468.719 18.756C468.78 18.7412 468.875 18.7181 468.929 18.7214C469.03 18.728 469.165 18.7461 469.199 18.7675C469.531 18.9667 469.531 18.9684 469.869 19.026C470.241 19.0902 470.626 19.1478 470.964 19.2202C471.269 19.2844 471.573 19.2564 471.904 19.2564C472.154 19.2564 472.317 19.2992 472.296 19.342C472.283 19.3667 472.188 19.4029 472.107 19.4062C471.444 19.4391 470.775 19.4671 470.105 19.4902C470.024 19.4935 469.923 19.4638 469.828 19.449C469.639 19.4194 469.47 19.3733 469.267 19.3634C469.064 19.3535 468.827 19.3782 468.604 19.3865C468.381 19.3947 468.144 19.4161 467.942 19.4029C467.739 19.3898 467.576 19.342 467.387 19.3107C467.299 19.2959 467.177 19.2745 467.103 19.2795C466.609 19.319 466.244 19.2647 465.893 19.1922C465.818 19.1774 465.69 19.1675 465.595 19.1708C464.811 19.1988 464.033 19.2317 463.249 19.263C462.931 19.2762 462.674 19.2186 462.606 19.1214C462.572 19.0671 462.505 19.0128 462.505 18.9585C462.505 18.8597 462.133 18.8054 461.862 18.8169C461.416 18.8334 460.963 18.8465 460.523 18.8712C460.165 18.891 459.861 18.8712 459.617 18.812C459.333 18.7445 459.009 18.7576 458.684 18.7758C458.441 18.7889 458.373 18.8432 458.386 18.9799C458.4 19.0902 458.285 19.1247 457.845 19.1428C457.291 19.1659 456.73 19.1889 456.168 19.207C456.08 19.2103 455.979 19.1824 455.891 19.1675C455.702 19.1379 455.533 19.0902 455.33 19.0803C455.127 19.0688 454.89 19.0935 454.667 19.1033C454.444 19.1116 454.207 19.1346 454.004 19.1231C453.801 19.1116 453.632 19.0622 453.45 19.0309C453.362 19.0161 453.254 18.9947 453.166 18.998C452.72 19.0111 452.273 19.0309 451.827 19.049C451.326 19.0688 451.326 19.0688 450.616 18.9667C450.292 18.9206 449.967 18.9568 449.649 18.97C449.311 18.9832 448.993 18.9898 448.73 18.9239C448.554 18.8811 448.358 18.8548 448.148 18.863C447.587 18.8828 447.032 18.9075 446.471 18.9272C446.377 18.9305 446.248 18.9223 446.174 18.9075C445.815 18.8383 445.464 18.784 444.963 18.8186C444.53 18.8482 444.064 18.8498 443.631 18.8778C443.394 18.8926 443.286 18.9453 443.333 18.9865C443.36 19.0079 443.503 19.0326 443.597 19.0326C443.814 19.0342 444.05 19.0095 444.253 19.0194C444.672 19.0391 444.882 19.1774 445.43 19.1395C445.754 19.1165 446.092 19.1083 446.431 19.1017C446.518 19.1 446.613 19.1313 446.708 19.1478C446.978 19.1922 447.215 19.2498 447.607 19.2202C447.932 19.1972 448.277 19.1906 448.608 19.1774C449.135 19.156 449.135 19.1577 449.819 19.2581C450.143 19.3058 450.468 19.268 450.785 19.2564C451.022 19.2482 451.245 19.2317 451.435 19.2548C451.725 19.2894 451.935 19.3684 452.293 19.3634C452.632 19.3585 452.963 19.3354 453.301 19.3272C453.511 19.3223 453.707 19.3486 453.876 19.3931C454.052 19.4375 454.241 19.4572 454.471 19.4474C454.802 19.4342 455.14 19.4177 455.478 19.4095C455.573 19.4079 455.681 19.4227 455.769 19.4359C455.959 19.4655 456.141 19.5 456.324 19.5313C456.655 19.5214 456.993 19.5182 457.318 19.4984C457.568 19.4836 457.744 19.4902 457.947 19.5231C458.204 19.5676 458.413 19.6466 458.833 19.6087C459.042 19.5906 459.286 19.5955 459.495 19.5791C459.752 19.5577 459.928 19.5659 460.111 19.6153C460.456 19.7091 460.888 19.7108 461.335 19.6745C461.822 19.635 462.187 19.6811 462.552 19.7536C462.937 19.8293 462.937 19.8276 463.235 20.0104C463.323 20.063 463.573 20.0877 463.783 20.0779C464.134 20.0614 464.439 20.0696 464.696 20.1322C464.966 20.1997 465.291 20.1914 465.622 20.1733C466.062 20.1486 466.501 20.1272 466.86 20.2227C467.035 20.2688 467.225 20.2803 467.461 20.2688C468.131 20.2392 468.807 20.2211 469.463 20.1849C469.862 20.1618 470.092 20.2145 470.362 20.2589C470.728 20.3198 471.127 20.3741 471.127 20.5042C471.127 20.5256 471.221 20.5503 471.302 20.5667C471.478 20.6013 471.668 20.6309 471.85 20.6639C472.121 20.7132 472.384 20.7544 472.756 20.7281C473.081 20.7067 473.426 20.7001 473.757 20.6853C474.088 20.6705 474.393 20.6622 474.69 20.7248C475.035 20.7956 475.4 20.8631 475.793 20.9157C476.07 20.9536 476.435 20.8894 476.733 20.9404C476.915 20.9717 477.091 21.0079 477.287 21.0342C477.368 21.0458 477.497 21.0375 477.605 21.0342C477.828 21.0277 478.058 21.0227 478.274 21.0063C478.525 20.9882 478.714 20.9915 478.903 21.0293C479.079 21.0639 479.255 21.1116 479.458 21.1215C479.762 21.1363 480.1 21.0705 480.404 21.1462C480.56 21.1841 480.756 21.2203 480.959 21.2318C481.162 21.2433 481.399 21.2186 481.615 21.2203C481.71 21.2203 481.825 21.2466 481.879 21.268C481.912 21.2795 481.865 21.3108 481.818 21.3273C481.757 21.347 481.669 21.3734 481.581 21.3767C480.912 21.4063 480.242 21.431 479.573 21.459C479.174 21.4754 479.174 21.4754 478.369 21.3717C478.18 21.347 477.97 21.3519 477.733 21.3635C477.416 21.3783 477.091 21.4063 476.76 21.3767C476.327 21.2647 475.793 21.2548 475.225 21.2976C474.988 21.3157 474.771 21.3157 474.596 21.2845C474.224 21.2219 473.832 21.1643 473.5 21.0902C473.243 21.0326 473.121 21.0277 473.013 21.1067C472.979 21.1314 472.946 21.1577 472.952 21.1808C472.993 21.2631 473.067 21.3437 473.108 21.426C473.121 21.4491 473.067 21.4754 473.034 21.5001C472.925 21.5693 472.783 21.5643 472.547 21.5067C472.31 21.4491 472.026 21.4112 471.647 21.4376C471.323 21.4606 470.971 21.4573 470.646 21.482C470.146 21.5182 469.794 21.4655 469.436 21.3948C469.362 21.3799 469.233 21.3717 469.139 21.375C468.131 21.4129 467.13 21.4557 466.123 21.4935C465.906 21.5018 465.71 21.4771 465.541 21.4326C465.365 21.3882 465.169 21.3651 464.953 21.3734C464.06 21.4079 463.167 21.4392 462.275 21.482C461.909 21.5001 461.619 21.4787 461.369 21.4211C461.179 21.3783 461.003 21.3651 460.767 21.3701C460.51 21.375 460.327 21.3915 460.199 21.4392C460.077 21.4853 460.165 21.5133 460.435 21.5495C460.726 21.589 460.997 21.64 461.274 21.6861C461.497 21.6795 461.72 21.6664 461.937 21.668C462.031 21.668 462.119 21.6976 462.214 21.7141C462.484 21.7618 462.734 21.8096 463.12 21.7832C463.445 21.7602 463.789 21.7553 464.121 21.7404C464.581 21.7223 464.581 21.7223 465.324 21.826C465.514 21.8524 465.717 21.8507 465.96 21.8359C466.17 21.8244 466.386 21.8474 466.535 21.8968C466.596 21.9166 466.576 21.9495 466.447 22.0582C466.447 22.1388 466.589 22.1026 466.636 22.0499C466.711 21.9742 466.569 21.9495 466.298 21.9907C466.109 22.0203 466.014 22.0631 466.062 22.0977C466.089 22.1158 466.217 22.1388 466.447 22.0582C467.042 21.9594 467.495 21.9479 467.928 21.9215C468.185 21.9067 468.347 21.9133 468.55 21.9561C468.794 22.0071 469.037 22.0614 469.436 22.0351C469.869 22.0055 470.329 22.0022 470.768 21.9775C471.174 21.9544 471.384 22.0269 471.641 22.0697C471.952 22.1207 472.296 22.0631 472.58 22.0927C472.878 22.1223 473.088 22.1948 473.432 22.2079C473.933 22.1635 474.251 22.2458 474.629 22.3001C474.927 22.3413 475.279 22.3051 475.596 22.2869C475.955 22.2672 476.252 22.2853 476.503 22.3446C476.787 22.4121 477.105 22.3973 477.429 22.3824C478.186 22.3495 478.213 22.3446 478.653 22.4351C478.971 22.5009 479.275 22.4713 479.593 22.4631C479.87 22.5075 480.141 22.5553 480.432 22.5948C480.506 22.6047 480.648 22.5882 480.763 22.5833C481.094 22.5701 481.432 22.5569 481.764 22.5438C481.987 22.5355 482.224 22.5108 482.426 22.5207C482.629 22.5322 482.798 22.58 482.981 22.6113C483.164 22.6425 483.353 22.6738 483.529 22.7067C483.799 22.7561 484.056 22.7973 484.435 22.7726C484.759 22.7512 485.098 22.7446 485.436 22.7298C485.862 22.7117 485.848 22.7166 486.639 22.8154C487.065 22.8697 487.505 22.8039 487.938 22.7973C488.154 22.794 488.364 22.8121 488.513 22.8598C488.573 22.8796 488.553 22.9125 488.573 22.9405C487.458 22.9849 486.335 23.0228 485.233 23.0771C484.807 23.0985 484.584 23.0392 484.354 22.9899C483.975 22.9108 483.475 23.0261 483.116 22.924C482.9 22.8631 482.589 22.8285 482.217 22.8582C482 22.8746 481.77 22.873 481.547 22.8878C480.979 22.924 480.459 22.9257 480.005 22.8121C479.85 22.7726 479.627 22.7512 479.465 22.7133C479.275 22.6722 479.093 22.6491 478.869 22.6573C477.862 22.6968 476.861 22.7363 475.86 22.7791C475.772 22.7824 475.684 22.8071 475.61 22.8252C475.421 22.8713 475.481 22.9076 475.786 22.9372C475.887 22.9471 475.968 22.9684 476.063 22.9849C476.246 23.0162 476.415 23.0656 476.618 23.0771C476.82 23.0886 477.057 23.0656 477.28 23.0573C477.504 23.0491 477.74 23.0244 477.943 23.0343C478.146 23.0458 478.315 23.0936 478.504 23.1232C478.592 23.138 478.7 23.1627 478.788 23.1611C479.235 23.1512 479.674 23.1331 480.121 23.1183C480.398 23.1627 480.634 23.2269 480.966 23.2417C481.175 23.2516 481.399 23.2335 481.615 23.2368C481.71 23.2384 481.831 23.2631 481.879 23.2845C481.906 23.2977 481.818 23.3306 481.75 23.3471C481.493 23.4096 481.142 23.3981 480.824 23.4178C480.479 23.4392 480.168 23.4327 479.904 23.3685C479.728 23.3257 479.532 23.3026 479.316 23.3109C478.754 23.3323 478.2 23.357 477.639 23.3751C477.544 23.3784 477.429 23.3635 477.341 23.352C476.631 23.2516 476.631 23.2483 476.131 23.2697C475.394 23.301 475.394 23.301 474.9 23.2137C474.805 23.1973 474.704 23.166 474.623 23.1676C473.838 23.194 473.061 23.2203 472.283 23.2582C472.026 23.2697 471.85 23.2697 471.661 23.2269C471.499 23.1907 471.309 23.1495 471.106 23.1397C470.897 23.1298 470.667 23.1545 470.444 23.1627C470.22 23.1709 469.984 23.1923 469.788 23.1792C469.585 23.166 469.409 23.1199 469.233 23.087C469.051 23.0524 468.854 23.054 468.604 23.0672C467.833 23.1051 467.827 23.1001 467.062 22.9981C466.975 22.9866 466.86 22.9734 466.765 22.9767C466.204 22.9964 465.649 23.0211 465.088 23.0409C464.871 23.0491 464.662 23.0277 464.513 22.98C464.452 22.9602 464.473 22.9273 464.432 22.8631C464.385 22.8483 464.439 22.8746 464.452 22.8993C464.554 22.896 464.675 22.8993 464.75 22.8861C464.939 22.8549 465.034 22.8137 464.986 22.7791C464.959 22.761 464.831 22.738 464.75 22.738C464.601 22.738 464.473 22.7742 464.432 22.8631C464.006 22.9174 463.553 22.929 463.113 22.9553C462.856 22.9718 462.694 22.9635 462.491 22.9207C462.248 22.868 461.997 22.817 461.598 22.8433C461.166 22.873 460.706 22.8779 460.259 22.901C459.746 22.9273 459.522 22.7791 459.09 22.7824C458.643 22.7857 458.197 22.8137 457.751 22.8335C457.358 22.8499 457.358 22.8499 456.547 22.7429C456.249 22.7034 455.898 22.761 455.607 22.7199C455.411 22.6935 455.242 22.654 455.053 22.6261C454.971 22.6145 454.843 22.6145 454.741 22.6178C454.18 22.6376 453.612 22.6508 453.071 22.687C452.456 22.7298 451.989 22.6837 451.55 22.5866C450.995 22.6047 450.434 22.6145 449.886 22.6458C449.487 22.6689 449.257 22.6145 448.987 22.5701C448.892 22.5553 448.811 22.5306 448.71 22.524C448.608 22.5174 448.486 22.5306 448.378 22.5355C447.932 22.5536 447.472 22.5619 447.039 22.5915C446.505 22.6294 446.302 22.4944 445.89 22.4779C445.612 22.5586 445.464 22.6689 444.916 22.6771C444.47 22.6837 444.023 22.71 443.577 22.7281C443.354 22.7364 443.131 22.7462 442.907 22.7545C442.549 22.7693 442.38 22.8335 442.454 22.9322C442.495 22.9866 442.529 23.0409 442.563 23.0952C442.63 23.1923 442.461 23.2746 442.177 23.2862C441.393 23.3174 440.615 23.3504 439.831 23.3783C439.621 23.3866 439.418 23.3586 439.249 23.3141C439.073 23.2697 438.877 23.2499 438.661 23.2582C437.876 23.2894 437.099 23.3224 436.314 23.3504C436.226 23.3537 436.111 23.3372 436.023 23.324C435.834 23.2944 435.651 23.2598 435.469 23.2286C435.023 23.2434 434.583 23.2532 434.143 23.273C433.433 23.3026 433.433 23.3043 432.913 23.2137C432.818 23.1973 432.723 23.166 432.635 23.1676C432.297 23.1742 431.966 23.1907 431.628 23.2055C430.634 23.2483 430.634 23.2483 430.343 23.1989C430.079 23.1528 429.843 23.0969 429.444 23.1232C429.011 23.1528 428.551 23.1627 428.105 23.1792C427.773 23.1907 427.442 23.2039 427.111 23.2072C427.023 23.2088 426.928 23.1775 426.833 23.1611C426.563 23.11 426.299 23.0689 425.927 23.0969C425.711 23.1133 425.481 23.1166 425.258 23.1248C424.676 23.1479 424.676 23.1479 423.723 23.0491C423.628 23.0392 423.513 23.0277 423.418 23.0327C422.634 23.0623 421.856 23.0952 421.072 23.1232C420.977 23.1265 420.862 23.1166 420.768 23.1084C419.699 23.0129 419.699 23.0129 418.563 23.059C418.13 23.0755 418.117 23.082 417.664 22.9948C417.461 22.9569 417.292 22.9388 417.055 22.9503C416.162 22.9899 415.263 23.0162 414.377 23.0623C413.978 23.082 413.748 23.0326 413.478 22.9882C413.383 22.9734 413.282 22.9405 413.201 22.9421C412.308 22.9734 411.415 23.0113 410.523 23.0425C410.441 23.0458 410.34 23.0129 410.245 22.9981C410.063 22.9685 409.887 22.924 409.684 22.9141C409.474 22.9043 409.245 22.929 409.015 22.9372C408.453 22.9586 408.453 22.9569 407.804 22.8598C407.716 22.8467 407.601 22.8285 407.513 22.8318C406.621 22.8648 405.721 22.8927 404.836 22.9405C404.328 22.9668 403.983 22.9191 403.625 22.8499C403.551 22.8351 403.422 22.8285 403.328 22.8318C402.32 22.8697 401.319 22.9125 400.312 22.9503C400.102 22.9586 399.899 22.9306 399.73 22.8878C399.459 22.8203 399.142 22.8285 398.804 22.8433C398.026 22.8779 398.019 22.8763 397.559 22.7973C397.465 22.7808 397.383 22.7594 397.282 22.7512C397.187 22.7429 397.066 22.7479 396.964 22.7512C396.518 22.7676 396.072 22.7857 395.625 22.8038C395.179 22.8219 394.726 22.8318 394.286 22.8598C393.745 22.8944 393.488 22.7874 393.11 22.738C392.555 22.7594 391.987 22.7726 391.439 22.8071C391.02 22.8335 390.824 22.761 390.547 22.7232C390.452 22.71 390.351 22.682 390.263 22.6853C389.255 22.7215 388.248 22.761 387.247 22.8055C387.003 22.8154 386.841 22.8022 386.638 22.7627C386.185 22.6738 386.165 22.6771 385.407 22.71C385.076 22.7248 384.758 22.738 384.474 22.6705C384.224 22.6096 383.92 22.5948 383.561 22.6145C383.122 22.6392 382.669 22.6524 382.222 22.6689C381.776 22.687 381.33 22.7117 380.883 22.7199C380.525 22.7281 380.309 22.6508 380.025 22.6113C379.937 22.5997 379.815 22.5981 379.714 22.6014C379.267 22.6162 378.807 22.6277 378.375 22.6557C377.847 22.6903 377.556 22.5997 377.184 22.5471C377.103 22.5355 376.968 22.5421 376.866 22.5471C376.082 22.5767 375.304 22.6096 374.52 22.6409C374.243 22.5964 373.959 22.5536 373.681 22.5092C373.235 22.5257 372.789 22.5438 372.343 22.5602C372.004 22.5734 371.66 22.5783 371.342 22.603C370.929 22.6359 370.726 22.5586 370.449 22.5207C370.354 22.5075 370.253 22.4796 370.165 22.4828C369.604 22.501 369.043 22.5207 368.488 22.5487C367.961 22.5767 367.751 22.4285 367.318 22.4302C366.872 22.4318 366.412 22.4532 365.979 22.4828C365.479 22.5174 365.127 22.4647 364.769 22.394C364.694 22.3791 364.566 22.3709 364.471 22.3742C363.91 22.394 363.355 22.4186 362.794 22.4384C362.7 22.4417 362.585 22.4335 362.49 22.4236C361.422 22.3265 361.421 22.3248 360.955 22.3446C360.624 22.3577 360.285 22.3742 359.947 22.3824C359.853 22.3857 359.738 22.3709 359.65 22.3577C358.946 22.2573 358.946 22.2557 358.439 22.2754C357.993 22.2935 357.547 22.3116 357.1 22.3298C356.823 22.2853 356.539 22.2425 356.262 22.1981C355.707 22.2195 355.139 22.2359 354.591 22.2655C354.334 22.2787 354.165 22.2738 353.969 22.2326C353.726 22.1833 353.482 22.1256 353.077 22.1536C352.644 22.1833 352.184 22.1865 351.745 22.2112C351.217 22.2409 351.001 22.0911 350.575 22.0927C350.128 22.0944 349.669 22.1158 349.236 22.1454C348.735 22.18 348.384 22.1273 348.025 22.0565C347.951 22.0417 347.822 22.0335 347.728 22.0368C346.497 22.0845 345.273 22.1322 344.042 22.1832C343.285 22.2145 343.285 22.2162 341.845 22.1256C341.743 22.119 341.635 22.1125 341.533 22.1158C341.087 22.1306 340.627 22.1421 340.194 22.1701C339.667 22.2046 339.376 22.1158 339.004 22.0614C338.923 22.0499 338.795 22.0565 338.686 22.0598C338.348 22.0713 338.017 22.0861 337.679 22.0993C337.233 22.1174 336.786 22.1355 336.34 22.1536C336.063 22.1108 335.779 22.0664 335.501 22.0236C334.947 22.045 334.379 22.0565 333.831 22.0911C333.412 22.1174 333.216 22.0483 332.938 22.0088C332.844 21.9956 332.742 21.9676 332.655 21.9693C331.647 22.0055 330.639 22.0433 329.639 22.0894C329.226 22.1092 329.037 22.0351 328.759 21.9972C328.665 21.9857 328.557 21.9643 328.469 21.9676C327.799 21.9907 327.13 22.0186 326.46 22.0466C326.082 22.0631 326.082 22.0631 325.257 21.961C325.162 21.9495 325.054 21.938 324.959 21.9413C322.836 22.0236 320.719 22.1108 318.596 22.1931C318.379 22.2014 318.183 22.1767 318.014 22.1322C317.838 22.0878 317.642 22.0647 317.426 22.073C316.533 22.1075 315.634 22.1388 314.748 22.1816C314.383 22.1997 314.092 22.1783 313.842 22.1207C313.652 22.0779 313.477 22.0614 313.24 22.0713C312.794 22.0911 312.347 22.1075 311.901 22.1256C311.455 22.1437 311.008 22.1619 310.562 22.18C310.116 22.1981 309.663 22.2079 309.223 22.2359C308.682 22.2705 308.418 22.1684 308.046 22.1174C307.377 22.1421 306.707 22.1668 306.045 22.1931C305.152 22.2277 304.259 22.2656 303.367 22.2985C303.286 22.3018 303.184 22.2721 303.09 22.2573C302.812 22.2162 302.609 22.1586 302.197 22.1767C300.195 22.2639 298.18 22.338 296.172 22.4236C295.753 22.4417 295.57 22.3709 295.286 22.333C295.191 22.3215 295.083 22.2985 294.995 22.3018C293.879 22.3429 292.764 22.389 291.648 22.4335C291.195 22.4516 291.195 22.4516 290.437 22.3495C290.349 22.338 290.234 22.3232 290.14 22.3265C288.686 22.3824 287.239 22.4417 285.785 22.4993C285.568 22.5075 285.372 22.4845 285.197 22.44C285.027 22.3956 284.825 22.3709 284.615 22.3791C283.276 22.4318 281.93 22.4828 280.598 22.5405C280.24 22.5569 279.942 22.5421 279.685 22.4828C279.503 22.4401 279.32 22.4219 279.09 22.4318C277.082 22.5125 275.073 22.5899 273.065 22.6755C272.679 22.6919 272.409 22.6606 272.166 22.6063C271.969 22.5635 271.8 22.5553 271.557 22.5619C271.3 22.5701 271.144 22.5882 271.002 22.6376C270.82 22.7018 270.705 22.7824 270.272 22.7874C269.826 22.7923 269.373 22.8121 268.933 22.8401C268.514 22.8681 268.318 22.794 268.054 22.7495C267.858 22.7182 267.675 22.7133 267.425 22.7281C267.195 22.7413 267.053 22.7693 266.918 22.8219C266.62 22.9339 266.593 22.9339 266.228 22.8631C266.032 22.8252 265.856 22.7956 265.64 22.8022C264.747 22.8351 263.855 22.8713 262.962 22.9092C262.448 22.9306 262.441 22.9339 262.056 22.8516C261.867 22.8104 261.684 22.7907 261.461 22.8005C259.006 22.8993 256.551 22.9948 254.097 23.0985C253.718 23.115 253.461 23.0804 253.19 23.031C253.103 23.0145 253.015 22.9915 252.913 22.9849C252.812 22.9783 252.697 22.9849 252.589 22.9882C250.803 23.059 249.011 23.1265 247.233 23.2055C246.827 23.2236 246.611 23.1709 246.334 23.1281C246.239 23.1133 246.158 23.0903 246.056 23.0837C245.955 23.0788 245.833 23.0903 245.725 23.0952C243.94 23.166 242.148 23.2335 240.369 23.3125C239.943 23.3306 239.76 23.2615 239.483 23.2253C239.389 23.2121 239.287 23.1874 239.199 23.1907C238.638 23.2088 238.083 23.2335 237.522 23.2549C236.183 23.3092 234.844 23.3602 233.505 23.4162C232.991 23.4376 232.768 23.2911 232.335 23.2977C231.774 23.3059 231.22 23.3388 230.658 23.3619C230.212 23.38 229.766 23.3965 229.319 23.4162C228.88 23.4343 228.88 23.4343 227.784 23.3388C227.69 23.3306 227.575 23.3191 227.48 23.3224C225.918 23.3833 224.349 23.4442 222.794 23.51C222.435 23.5248 222.138 23.5166 221.881 23.4557C221.698 23.4129 221.509 23.3915 221.286 23.4014C218.939 23.4952 216.599 23.5891 214.253 23.6812C214.165 23.6845 214.05 23.6681 213.962 23.6549C213.773 23.6253 213.59 23.5907 213.408 23.5594C213.272 23.5973 213.097 23.6318 213.009 23.6746C212.887 23.7323 212.725 23.7487 212.468 23.7586C212.211 23.7685 212.049 23.7652 211.846 23.7224C211.602 23.6697 211.352 23.6285 210.953 23.645C208.498 23.7487 206.043 23.8426 203.589 23.9446C203.183 23.9611 202.994 23.8886 202.71 23.8508C202.615 23.8393 202.507 23.8212 202.419 23.8245C201.411 23.8623 200.41 23.9035 199.403 23.943C196.61 24.0549 193.817 24.1619 191.031 24.2804C190.524 24.3018 190.179 24.2607 189.821 24.1899C189.746 24.1751 189.618 24.1668 189.523 24.1701C185.615 24.3249 181.706 24.4812 177.804 24.6376C177.594 24.6459 177.391 24.6195 177.222 24.5767C177.047 24.5323 176.851 24.5109 176.634 24.5191C174.849 24.5899 173.064 24.6607 171.279 24.7331C170.832 24.7512 170.825 24.7529 170.366 24.6738C170.271 24.6574 170.169 24.6261 170.095 24.6294C169.94 24.6376 169.791 24.6788 169.683 24.7347C169.574 24.794 169.405 24.8105 169.155 24.822C168.898 24.8335 168.729 24.8286 168.533 24.7891C168.283 24.7397 168.053 24.692 167.647 24.7084C162.514 24.9191 157.382 25.1216 152.249 25.3306C151.837 25.3471 151.647 25.278 151.363 25.2401C151.269 25.2286 151.174 25.2121 151.073 25.2088C150.964 25.2055 150.849 25.2154 150.741 25.2204C142.369 25.5545 133.998 25.8903 125.626 26.2245C125.126 26.2443 125.132 26.2443 124.585 26.3957C124.517 26.4138 124.429 26.4385 124.334 26.4418C121.771 26.5471 119.202 26.6492 116.632 26.7513C115.516 26.7957 114.401 26.8418 113.285 26.8846C112.886 26.8994 112.886 26.8994 111.932 27.0772C111.851 27.092 111.756 27.1118 111.662 27.1151C107.199 27.2945 102.735 27.4739 98.2656 27.6501C97.9139 27.6632 97.6299 27.6929 97.4676 27.7719C97.3527 27.8278 97.2039 27.8608 96.9808 27.8706C93.8566 27.9957 90.7325 28.1225 87.6015 28.2443C87.2296 28.2591 87.0063 28.3052 86.8238 28.3744C86.7629 28.3974 86.7088 28.4237 86.6208 28.4402C86.5397 28.455 86.418 28.46 86.3166 28.4649C83.6387 28.5719 80.9609 28.6822 78.2763 28.7843C77.8773 28.7991 77.7149 28.86 77.5188 28.9242C77.4512 28.9456 77.4038 28.9752 77.3159 28.99C77.228 29.0032 77.0995 29.0032 76.9913 29.0065C74.7597 29.0954 72.5282 29.1859 70.2967 29.2748C69.8639 29.2666 69.7692 29.362 69.5595 29.4197C69.4851 29.4394 69.4312 29.4657 69.3433 29.4789C69.2486 29.4921 69.1267 29.4904 69.0117 29.4937C67.2265 29.5645 65.4413 29.6402 63.6493 29.7061C63.2368 29.7209 63.1556 29.8048 62.9324 29.8625C62.858 29.8806 62.7837 29.9086 62.6958 29.9135C61.5801 29.9612 60.4643 30.0057 59.3485 30.0485C58.9766 30.0633 58.9766 30.0616 58.3206 30.2246C58.2462 30.2427 58.1582 30.2625 58.0636 30.2674C56.3933 30.3366 54.7163 30.4024 53.0392 30.4699C52.8228 30.4781 52.6741 30.5176 52.5659 30.5736C52.4577 30.6296 52.3022 30.6658 52.0858 30.674C50.7468 30.7283 49.4078 30.7843 48.0688 30.8337C47.6969 30.8468 47.4535 30.888 47.2912 30.9621C47.1695 31.018 47.0208 31.046 46.7841 31.0559C45.4451 31.1086 44.1062 31.1662 42.7605 31.2123C42.3683 31.2255 42.1654 31.2814 42.0031 31.3506C41.8746 31.4065 41.7258 31.4263 41.4756 31.4362C39.0209 31.5316 36.5594 31.6271 34.1115 31.7325C33.699 31.7506 33.4893 31.693 33.2188 31.6518C32.8334 31.5942 32.4751 31.5316 32.4751 31.4032C32.4751 31.3835 32.3601 31.3604 32.2789 31.344C31.6771 31.2205 31.6771 31.2205 31.5824 31.0888C31.5283 31.0082 31.4674 30.9259 31.4201 30.8436C31.3322 30.7086 31.1157 30.674 30.4936 30.6987C30.2704 30.7069 30.0473 30.7184 29.8241 30.725C29.4928 30.7366 29.2426 30.6822 29.1817 30.5835C29.1479 30.5291 29.1074 30.4748 29.0736 30.4205C29.4117 30.4073 29.4049 30.4057 29.9999 30.2065C30.2501 30.1226 30.2502 30.1226 29.7701 30.0386C29.5875 30.0073 29.4117 29.9727 29.2156 29.9431C29.1277 29.9299 29.0127 29.9217 28.9181 29.925C28.3568 29.9448 27.8023 29.9678 27.2478 29.9909C26.3552 30.0271 26.3551 30.0271 25.4489 29.8592C25.3745 29.846 25.2596 29.8213 25.2731 29.8081C25.3475 29.7472 25.53 29.7209 25.7599 29.7143C26.0981 29.7044 26.4294 29.688 26.7608 29.6748C26.9839 29.6666 27.2071 29.6567 27.4302 29.6485C27.6399 29.5859 27.8564 29.525 28.0525 29.4608C28.3635 29.362 28.3634 29.3587 27.9374 29.2896C27.6669 29.2435 27.3761 29.2024 27.0989 29.1596C26.7675 29.1727 26.4294 29.1875 26.0981 29.1991C25.6788 29.2139 25.5097 29.1826 25.4015 29.0756C25.3069 28.9818 25.4218 28.9011 25.7464 28.8814C26.0778 28.8616 26.389 28.8485 26.558 28.7645C26.7203 28.6838 27.0043 28.6525 27.3559 28.646C27.5791 28.641 27.8022 28.6295 28.0254 28.6196C28.3162 28.6065 28.4718 28.5225 28.4109 28.4287C28.3771 28.3678 28.3094 28.3167 28.0457 28.3036C26.8758 28.246 26.8622 28.2476 26.2807 28.1357C26.2266 28.1258 26.1861 28.0962 26.2064 28.0813C26.2402 28.0567 26.3146 28.0204 26.3957 28.0155C27.1734 27.9793 27.951 27.9464 28.7287 27.9217C28.9857 27.9134 29.175 27.9019 29.263 27.841C29.3847 27.757 29.3306 27.6797 29.0939 27.6221C29.0195 27.604 28.8977 27.5809 28.8165 27.5826C27.9239 27.6122 27.0381 27.6501 26.1454 27.6797C26.0643 27.683 25.9156 27.655 25.8818 27.6336C25.8142 27.5941 25.9155 27.5414 26.1522 27.5233C26.4633 27.4986 26.7811 27.497 26.9907 27.4147C27.2815 27.2978 27.6399 27.1908 27.9645 27.0789C28.0186 27.0591 28.1066 27.0212 28.0863 27.0179C27.9173 26.9817 27.7211 26.9537 27.5453 26.9192C27.2478 26.8616 27.2477 26.7809 27.3153 26.7035C27.3694 26.641 27.5723 26.6163 27.8225 26.6163C27.9307 26.6163 28.0659 26.6163 28.1538 26.6015C28.3838 26.5653 28.4582 26.5192 28.3432 26.4846C28.2756 26.4648 28.1539 26.4369 28.0728 26.4402C26.6256 26.4945 25.1716 26.5471 23.7313 26.6146C23.3052 26.6344 23.1092 26.5718 22.8523 26.5274C22.6562 26.4928 22.4735 26.4796 22.23 26.5043C22.0001 26.5274 21.777 26.5142 21.635 26.4599C21.5201 26.4155 21.7229 26.3776 22.2706 26.3348C22.3721 26.3266 22.487 26.3216 22.5614 26.3052C23.3458 26.1274 23.3458 26.1257 23.8868 26.1027C24.4142 26.0813 24.4144 26.0797 24.6916 25.9842C24.8201 25.9397 24.962 25.8953 25.0837 25.8492C25.1311 25.8311 25.2123 25.7982 25.1852 25.7883C25.0365 25.7372 24.8335 25.7257 24.5968 25.7373C24.0694 25.7652 23.4473 25.7422 23.1701 25.8986C23.0619 25.9578 22.8928 25.9743 22.6494 25.9842C20.2014 26.0797 17.7534 26.1817 15.2987 26.2739C14.8997 26.2887 14.7172 26.3496 14.5617 26.4171C14.4264 26.4731 14.2776 26.4895 14.0206 26.4994C13.7637 26.5093 13.5607 26.5142 13.4119 26.4599C13.324 26.427 13.3984 26.3809 13.6013 26.3348C13.8921 26.269 13.838 26.1867 13.7433 26.1093C13.6757 26.0583 13.466 26.022 13.2429 26.0253C12.9115 26.0319 12.5938 26.05 12.3165 25.9842C12.1542 25.9463 11.9513 25.92 11.7687 25.887C11.4171 25.8195 11.0654 25.7504 10.5718 25.7949C10.2337 25.7784 9.997 25.7191 9.72651 25.6731C9.27343 25.5973 9.23286 25.5858 9.55745 25.5051C9.92262 25.4146 9.63854 25.2961 9.84141 25.2072C10.0578 25.1117 10.3554 25.0278 10.6192 24.9389C10.6868 24.9158 10.7477 24.8944 10.8153 24.8714C10.6598 24.8385 10.5178 24.7973 10.3352 24.7743C10.0985 24.7446 9.97681 24.7084 9.99033 24.6064C9.94299 24.5915 9.96314 24.6294 10.0172 24.6393C10.0781 24.6492 10.227 24.6409 10.3014 24.6294C10.4907 24.5981 10.5853 24.557 10.538 24.5224C10.5109 24.5043 10.3825 24.4813 10.3014 24.4813C10.1526 24.4813 10.0241 24.5175 9.98356 24.6064C9.22618 24.6739 8.44163 24.7068 7.6572 24.7331C7.57605 24.7364 7.47467 24.7035 7.38 24.687C7.06893 24.6311 7.06889 24.6327 6.15598 24.6162C6.06131 24.6146 5.93289 24.5916 5.88555 24.5685C5.68945 24.4681 5.69626 24.3578 5.60159 24.2508C5.77741 24.1817 5.95309 24.1142 6.13567 24.0467C6.50084 23.91 6.97431 23.7899 7.25833 23.6401C7.19746 23.5594 7.1163 23.4788 7.41385 23.4129C8.25914 23.3306 8.25243 23.3306 8.48235 23.2516C9.13829 23.0277 9.78743 22.8022 10.4704 22.5816C10.653 22.524 10.653 22.4927 10.3284 22.468C10.227 22.4615 10.1187 22.4598 10.0105 22.4631C9.67236 22.4746 9.33425 22.5042 9.00289 22.4977C8.67154 22.4927 8.4281 22.4203 8.1576 22.3758C7.88035 22.3298 7.60311 22.282 7.32585 22.2343C7.00802 22.2392 6.69025 22.2853 6.37242 22.2112C6.12898 22.1536 5.82469 22.1125 5.54744 22.0647C5.75707 21.9396 6.14934 21.8441 6.45365 21.7339C6.7309 21.6334 6.73751 21.6351 7.48137 21.5577C7.83301 21.5215 7.95474 21.3355 7.6572 21.2812C7.29879 21.2153 6.92018 21.1544 6.55502 21.0919C6.23719 21.0968 5.91266 21.1413 5.60836 21.0672C5.37168 21.0112 5.10113 20.9733 4.70892 20.9947C4.04621 21.031 3.37 21.0491 2.70053 21.0787C2.47061 21.0886 2.22033 21.082 2.11889 21.026C2.05127 20.9865 2.24739 20.9322 2.47055 20.9207C2.80866 20.9042 3.11294 20.8845 3.28199 20.8022C3.44429 20.7198 3.7418 20.6951 4.09344 20.6836C4.18811 20.6803 4.29639 20.6606 4.34372 20.6408C4.58717 20.5453 4.85768 20.463 5.37838 20.4663C5.59477 20.4334 5.70966 20.3923 5.64204 20.3527C5.60146 20.3313 5.45953 20.3034 5.37838 20.3067C4.81711 20.3231 4.25585 20.3396 3.70811 20.3692C3.45114 20.3824 3.25492 20.3857 3.09263 20.3363C2.97767 20.3034 3.03852 20.2589 3.25492 20.2112C3.44426 20.17 3.49842 20.1223 3.4849 20.0663C3.45109 19.9363 3.24818 19.8984 2.59899 19.9066C2.13239 19.9132 2.01743 19.8918 1.91599 19.7799C1.88894 19.7536 1.82144 19.7173 1.86877 19.6992C2.15955 19.5873 2.34891 19.449 2.89666 19.3964C3.11305 19.3766 3.34288 19.3766 3.47813 19.3338C3.61337 19.291 3.73516 19.2416 3.87716 19.2004C4.05298 19.1511 4.17459 19.105 4.09344 19.0737C3.95819 19.0177 3.74187 19.0128 3.49167 19.0326C3.27527 19.049 3.04536 19.0507 2.8222 19.0605C2.42323 19.0786 2.09871 19.0358 2.05137 18.9634C1.92289 18.7725 1.7876 18.5832 1.67264 18.3922C1.65912 18.3692 1.69283 18.3395 1.74693 18.3198C1.93628 18.2506 2.13923 18.1848 2.33533 18.1173C2.56525 18.0399 2.93048 18.0548 3.24155 18.0399C3.6811 18.0185 3.68094 18.0202 4.26927 17.8621C4.49919 17.7996 4.89818 17.8243 5.13486 17.7683C5.20925 17.7502 5.32421 17.7206 5.30392 17.7041C5.27687 17.6827 5.1417 17.6663 5.04026 17.6564C4.94559 17.6465 4.83066 17.6416 4.72922 17.6465C3.49848 17.6942 2.27453 17.7453 1.04379 17.7914C0.834159 17.7996 0.604233 17.7634 0.529847 17.7124C0.455462 17.6646 0.475683 17.607 0.462158 17.5527C0.658266 17.4852 0.881336 17.4226 1.05039 17.3502C1.17888 17.2942 1.32768 17.2695 1.58464 17.2662C1.92276 17.2613 2.25415 17.2416 2.63284 17.2267C3.33612 16.9864 4.02583 16.7346 4.78321 16.4942C5.08751 16.3971 5.01325 16.2983 5.07411 16.1946C5.13497 16.0991 5.58802 16.114 5.89232 16.086C6.13577 16.0629 6.21681 16.0102 6.12214 15.974C6.06804 15.9526 5.94638 15.9279 5.85171 15.9279C5.62855 15.9279 5.4054 15.9428 5.18225 15.951C4.95909 15.9592 4.70213 15.9543 4.51955 15.9823C4.34373 16.0086 4.22871 16.0646 4.11375 16.1123C3.98526 16.165 3.81632 16.1831 3.55935 16.1864C3.228 16.1897 2.89667 16.2045 2.56531 16.216C2.20015 16.1518 1.82138 16.0893 1.46974 16.0218C1.40211 16.0086 1.38852 15.9708 1.39528 15.9461C1.4088 15.8819 1.3074 15.8423 1.08424 15.8111C0.894894 15.7847 0.739347 15.7469 0.563527 15.714C0.698773 15.6695 0.847597 15.6267 0.955795 15.579C1.19248 15.4785 1.49005 15.4061 2.00399 15.4094C2.20686 15.3452 2.36911 15.2662 2.63284 15.2218C2.88304 15.179 3.30909 15.2217 3.49843 15.1246C3.59311 15.0769 3.7352 15.0226 3.91778 15.0028C4.20856 14.9715 4.58724 14.988 4.7563 14.8958C4.85773 14.8432 5.00645 14.7954 5.20255 14.7822C5.42571 14.7674 5.65557 14.7641 5.81786 14.7329C5.90578 14.7164 6.00046 14.6901 6.00046 14.667C6.00046 14.6522 5.86532 14.6291 5.77065 14.6193C5.68274 14.6077 5.56765 14.5995 5.46621 14.6028C5.12809 14.6127 4.79675 14.6308 4.45863 14.6407C4.36396 14.644 4.25579 14.6324 4.15436 14.6226C3.85682 14.5962 3.87707 14.5633 4.11375 14.504C4.35043 14.4464 4.51958 14.3723 4.71569 14.3049C4.93208 14.2933 5.20253 14.2983 5.3513 14.267C5.60151 14.216 5.77728 14.1419 5.98015 14.0777C6.20331 14.0678 6.43322 14.0645 6.64285 14.0464C6.73076 14.0398 6.77137 14.0036 6.84575 13.9822C6.981 13.9411 7.09605 13.8818 7.27863 13.8621C7.57617 13.8324 7.94133 13.8439 8.11715 13.7534C8.21859 13.7007 8.37406 13.6448 8.56341 13.6415C9.09087 13.6349 9.31403 13.5443 9.58453 13.4587C9.78739 13.3945 10.2202 13.4275 10.4434 13.3633C10.5921 13.3221 10.7004 13.2711 10.8492 13.2316C10.91 13.2151 11.0385 13.2069 11.1399 13.202C11.6944 13.1773 12.2557 13.1591 12.8102 13.1328C12.8981 13.1279 12.9793 13.1032 13.0469 13.0834C13.1889 13.0406 13.2767 12.9814 13.4526 12.9534C13.6284 12.9254 13.8785 12.9254 14.0949 12.9172C14.7915 12.8925 14.8456 12.8991 15.1634 12.7591C15.4204 12.6455 16.0494 12.7262 16.259 12.6011C16.3807 12.5287 16.6038 12.4694 17.0028 12.4612C17.564 12.4497 18.1185 12.4184 18.6798 12.397C19.1802 12.3772 19.1735 12.3772 19.7145 12.2241C19.9579 12.155 20.3164 12.1649 20.6342 12.1517C20.9723 12.1385 21.2834 12.1188 21.4457 12.0365C21.608 11.9558 21.9055 11.9295 22.2503 11.918C22.5682 11.9064 22.9267 11.9147 23.1769 11.8488C23.7855 11.6908 23.7787 11.6891 24.2047 11.6727C24.8742 11.6463 25.5437 11.62 26.2131 11.592C26.6594 11.5739 27.126 11.5706 27.5453 11.5344C27.8496 11.5081 27.9848 11.4159 28.1809 11.3517C28.7354 11.327 29.2899 11.3023 29.8444 11.2793C30.6221 11.2463 31.4065 11.2167 32.1909 11.1854C32.529 11.1229 32.5765 10.9846 33.1445 10.978C33.4826 10.9747 33.814 10.9533 34.1521 10.9402C34.7134 10.9171 35.2679 10.8875 35.8291 10.876C36.2552 10.8677 36.3294 10.7788 36.5526 10.7229C36.627 10.7031 36.6947 10.6751 36.7826 10.6702C37.6617 10.6241 38.5678 10.6142 39.4266 10.5467C39.5145 10.5402 39.5957 10.5056 39.6159 10.4809C39.6295 10.4677 39.5145 10.443 39.4401 10.4315C39.3522 10.4183 39.2373 10.4052 39.1426 10.4085C36.3498 10.5188 33.557 10.6307 30.7642 10.741C30.372 10.7575 30.372 10.7558 29.4185 10.9369C29.3373 10.9517 29.2425 10.9681 29.1411 10.9731C28.6948 10.9928 28.2417 11.0044 27.8022 11.0291C27.4438 11.0488 27.1463 11.029 26.8894 10.9698C26.7068 10.927 26.5173 10.9138 26.2874 10.9171C26.0305 10.9221 25.8615 10.9402 25.7127 10.9846C25.5166 11.0455 25.4152 11.1245 25.0027 11.141C23.1024 11.2118 21.2021 11.2908 19.3087 11.3665C19.0449 11.3435 18.9165 11.3089 18.9841 11.2677C19.0247 11.2431 19.1058 11.2101 19.187 11.2068C19.9647 11.1723 20.7491 11.1426 21.5267 11.1097C21.6349 11.1048 21.7837 11.1081 21.8445 11.0916C22.1421 11.0175 22.2504 10.8974 22.8117 10.8891C23.1363 10.8842 23.4676 10.8595 23.7786 10.8365C23.8665 10.8299 23.9477 10.7953 23.968 10.7706C23.9748 10.7574 23.8666 10.7327 23.7854 10.7212C23.4879 10.6735 23.1431 10.7311 22.8455 10.6982C22.7441 10.6867 22.602 10.6702 22.5817 10.6504C22.5682 10.6323 22.6831 10.6027 22.7643 10.5846C22.8387 10.5681 22.94 10.5533 23.0415 10.5484C23.9341 10.5105 24.8269 10.471 25.7195 10.4414C26.0847 10.4299 26.3416 10.3887 26.5039 10.313C26.6256 10.257 26.7744 10.2274 27.0043 10.2192C28.5664 10.1583 30.1284 10.0908 31.6973 10.0348C32.0895 10.0216 32.2925 9.96731 32.4547 9.89652C32.5832 9.84056 32.732 9.8208 32.9822 9.81092C35.2206 9.72532 37.4453 9.62985 39.6836 9.54754C40.0961 9.53273 40.2179 9.46194 40.4276 9.40104C40.5019 9.37964 40.5492 9.3533 40.6438 9.34013C40.7385 9.32696 40.8602 9.32859 40.9752 9.3253C42.7604 9.25452 44.5458 9.17881 46.3378 9.11296C46.7571 9.09815 46.8381 9.01583 47.0545 8.95822C47.1289 8.94011 47.1966 8.91049 47.2845 8.90555C48.6234 8.84958 49.9623 8.79691 51.3013 8.74258C52.1939 8.70637 53.0865 8.67015 53.9791 8.63558C54.4187 8.61912 54.4187 8.61746 55.0138 8.46108C55.0814 8.44297 55.1761 8.42157 55.264 8.41663C57.8337 8.31128 60.3966 8.21088 62.9663 8.10718C63.1827 8.09895 63.3382 8.06107 63.4464 8.0051C63.5546 7.94913 63.7102 7.91127 63.9199 7.90304C65.9283 7.82073 67.9366 7.74008 69.9518 7.66271C70.317 7.64954 70.5739 7.61003 70.7362 7.53595C70.8579 7.47999 71.0067 7.45036 71.2366 7.44213C73.245 7.36312 75.2535 7.27915 77.2687 7.20343C77.6541 7.18862 77.8434 7.13266 78.0327 7.06681C78.1004 7.04377 78.1545 7.0059 78.2356 7.00261C79.2365 6.95652 80.2305 6.90878 81.2381 6.8775C81.6573 6.86433 81.7994 6.79519 81.9685 6.72935C82.1037 6.67667 82.2593 6.65857 82.5162 6.65198C83.0775 6.63717 83.632 6.60919 84.1797 6.58121C84.2609 6.57627 84.3624 6.54005 84.3691 6.51701C84.3826 6.47421 84.227 6.44457 83.9701 6.42976C81.2922 6.53676 78.6076 6.64375 75.9297 6.75075C75.4902 6.76885 75.4902 6.76886 74.8951 6.92525C74.8275 6.94335 74.7327 6.96476 74.638 6.96969C72.0684 7.0734 69.5055 7.17546 66.9358 7.27917C66.7194 7.2874 66.5639 7.32526 66.4557 7.38123C66.3475 7.4372 66.1919 7.47506 65.9822 7.48329C63.5275 7.58206 61.0728 7.68247 58.6114 7.7763C58.2462 7.78947 57.9893 7.82732 57.827 7.90304C57.7053 7.95901 57.5565 7.98865 57.3266 7.99688C54.9801 8.08906 52.6402 8.18618 50.2869 8.27507C50.0502 8.2833 49.8745 8.23556 49.888 8.19111C49.8948 8.16807 49.9961 8.13022 50.0772 8.12693C51.3012 8.07261 52.5186 8.01663 53.7493 7.97548C54.1618 7.96231 54.2834 7.88988 54.493 7.82897C54.5607 7.80757 54.6148 7.77959 54.7027 7.76807C54.7974 7.7549 54.9191 7.75655 55.0341 7.75326C57.9351 7.63638 60.8362 7.51786 63.744 7.40757C64.1633 7.39111 64.2443 7.31044 64.4607 7.25282C64.5351 7.23307 64.6028 7.20345 64.6907 7.20016C65.5833 7.16065 66.4759 7.12608 67.3685 7.09151C68.9306 7.02895 70.4927 6.9664 72.0616 6.90385C72.5146 6.88574 72.5146 6.88573 73.0962 6.73099C73.1638 6.71289 73.2586 6.68986 73.3465 6.68656C77.4783 6.52031 81.6101 6.35404 85.7419 6.18943C85.9583 6.1812 86.1138 6.14334 86.222 6.08737C86.3302 6.03305 86.4857 5.99354 86.6953 5.98366C92.281 5.75979 97.8599 5.5359 103.446 5.31532C103.811 5.30051 104.068 5.26594 104.23 5.18857C104.345 5.1326 104.5 5.10298 104.73 5.0931C110.871 4.84783 117.011 4.60255 123.158 4.35564C127.289 4.19102 131.421 4.02312 135.553 3.86179C135.932 3.84698 136.135 3.79594 136.324 3.72845C136.385 3.7054 136.446 3.66754 136.527 3.66425C137.413 3.62309 138.299 3.58524 139.184 3.54738C139.462 3.59182 139.739 3.63463 140.016 3.67908C140.226 3.61652 140.429 3.55232 140.638 3.48977C141.977 3.44203 143.296 3.36795 144.648 3.34491C144.736 3.34326 144.831 3.37454 144.926 3.391C145.554 3.49471 145.913 3.48648 146.312 3.3482C146.454 3.29882 146.576 3.25437 146.792 3.24614C147.461 3.21651 148.138 3.19676 148.801 3.16219C149.159 3.14408 149.456 3.16054 149.713 3.2198C149.896 3.2626 150.085 3.28072 150.309 3.27084C151.539 3.22146 152.763 3.17371 153.994 3.12104C154.082 3.11774 154.163 3.08975 154.231 3.07C154.373 3.0272 154.494 2.98111 154.63 2.93667C154.812 2.96465 155.015 2.98606 155.164 3.02227C155.353 3.06507 155.529 3.06506 155.786 3.05354C160.695 2.85436 165.612 2.66011 170.521 2.45929C170.94 2.44283 171.123 2.51197 171.407 2.54818C171.502 2.56135 171.596 2.57781 171.698 2.5811C171.806 2.58439 171.921 2.57452 172.029 2.56958C175.714 2.42143 179.4 2.27492 183.085 2.12676C183.572 2.10701 183.572 2.10701 184.296 2.20907C184.384 2.22224 184.499 2.23706 184.593 2.23212C186.271 2.16792 187.948 2.09879 189.618 2.03294C189.834 2.02471 190.017 2.05105 190.213 2.08891C190.598 2.16298 190.625 2.16299 190.909 2.05434C191.045 2.00331 191.187 1.97202 191.41 1.95721C191.653 1.94075 191.849 1.9457 192.039 1.97533C192.309 2.01649 192.505 2.08561 192.918 2.06751C194.703 1.99014 196.495 1.92594 198.274 1.84693C198.679 1.82882 198.896 1.88479 199.166 1.92594C199.261 1.94076 199.349 1.9638 199.45 1.96874C199.552 1.97368 199.673 1.96215 199.782 1.95721C202.013 1.86832 204.251 1.78109 206.476 1.68561C206.896 1.6675 207.078 1.73827 207.362 1.77449C207.457 1.78766 207.565 1.81072 207.653 1.80742C208.992 1.75639 210.338 1.70206 211.677 1.64773C212.157 1.62798 212.157 1.62963 212.887 1.73004C212.975 1.74321 213.09 1.75638 213.185 1.75309C214.747 1.69218 216.316 1.62963 217.878 1.56708C218.358 1.54732 218.358 1.54733 219.744 1.63292C219.845 1.63951 219.954 1.6494 220.055 1.64611C221.84 1.57532 223.632 1.50618 225.418 1.43045C225.776 1.41564 226.074 1.4288 226.331 1.48806C226.513 1.53086 226.702 1.54898 226.926 1.5391C228.934 1.45844 230.949 1.38108 232.951 1.29548C233.336 1.27902 233.586 1.31522 233.857 1.36296C233.945 1.37942 234.033 1.40247 234.134 1.40905C234.236 1.41564 234.351 1.40905 234.459 1.40411C236.467 1.32345 238.482 1.24773 240.484 1.16049C240.89 1.14238 241.106 1.19834 241.377 1.2395C241.471 1.25431 241.573 1.28394 241.654 1.2823C242.438 1.25431 243.223 1.22963 244 1.18848C244.42 1.16543 244.602 1.24114 244.886 1.27735C244.981 1.28888 245.089 1.31358 245.177 1.31029C246.854 1.24609 248.531 1.1786 250.202 1.10947C250.438 1.09959 250.614 1.11439 250.803 1.15719C251.054 1.2148 251.344 1.23785 251.71 1.21974C252.487 1.18188 253.272 1.15555 254.056 1.12428C254.516 1.10617 254.516 1.10617 255.922 1.19177C256.024 1.19836 256.132 1.20823 256.233 1.20493C257.572 1.15226 258.918 1.10123 260.25 1.04362C260.609 1.02715 260.906 1.04197 261.163 1.10123C261.346 1.14403 261.528 1.16214 261.758 1.15227C262.989 1.10288 264.213 1.05349 265.444 1.00411C265.89 0.986003 266.336 0.954719 266.783 0.954719C267.107 0.956365 267.344 1.03538 267.635 1.07488C267.716 1.08641 267.851 1.07325 267.959 1.06996C269.522 1.00741 271.09 0.949787 272.646 0.879003C273.051 0.860896 273.268 0.916861 273.538 0.958014C273.633 0.972829 273.734 1.00246 273.816 1.00082C274.377 0.982708 274.931 0.958013 275.493 0.936614C276.162 0.910276 276.838 0.890522 277.501 0.854307C278.042 0.824677 278.245 0.967885 278.678 0.972824C279.009 0.977762 279.347 0.949783 279.678 0.936614C280.348 0.910276 281.017 0.880648 281.687 0.857602C281.923 0.849372 282.106 0.823022 282.181 0.763762C282.194 0.752239 282.079 0.727557 282.005 0.712742C281.105 0.544836 281.105 0.544828 280.199 0.581043C279.638 0.604089 279.083 0.627139 278.522 0.646893C278.427 0.650185 278.319 0.637017 278.225 0.62714C277.954 0.599156 277.981 0.566236 278.211 0.506975C278.441 0.447715 278.617 0.375291 278.813 0.3078C279.09 0.350599 279.361 0.393383 279.638 0.436183C279.861 0.427952 280.084 0.41809 280.307 0.409859C281.423 0.36706 282.539 0.322611 283.655 0.283104C283.736 0.279811 283.837 0.312739 283.932 0.3292C284.202 0.376938 284.446 0.41808 284.838 0.399973C285.839 0.352235 286.847 0.317666 287.847 0.276513C288.287 0.258405 288.287 0.258407 289.058 0.360467C289.146 0.37199 289.261 0.38516 289.355 0.381868C290.363 0.344007 291.364 0.302858 292.371 0.263351C292.588 0.25512 292.797 0.276519 292.953 0.324257C293.014 0.344011 293 0.376927 293.257 0.646893C294.055 0.865828 294.603 0.842794 295.157 0.82304C295.394 0.814809 295.604 0.806571 295.759 0.773648C295.84 0.755541 295.942 0.729198 295.942 0.707799C295.942 0.691337 295.793 0.664994 295.698 0.661702C295.029 0.62878 294.393 0.697927 293.737 0.712742C293.433 0.719326 293.169 0.661711 293.115 0.567881C293.102 0.541543 293.081 0.513561 293.061 0.487223C293.041 0.460884 293.027 0.432902 293.007 0.406564C292.743 0.398333 292.588 0.427959 292.473 0.483927C292.378 0.530019 292.243 0.582695 292.06 0.607387C291.878 0.633725 291.627 0.628796 291.404 0.637026C291.188 0.645257 290.951 0.666654 290.748 0.655131C290.546 0.641962 290.383 0.594216 290.194 0.564586C290.106 0.549771 289.998 0.528379 289.91 0.531671C289.132 0.559656 288.361 0.587629 287.59 0.623844C287.185 0.643598 286.982 0.574471 286.725 0.531671C286.522 0.498749 286.319 0.506969 286.285 0.582691C286.197 0.763766 286.508 0.839484 287.198 0.804915C287.766 0.775285 288.28 0.770361 288.726 0.882298C288.787 0.897114 288.929 0.903696 289.017 0.900403C289.572 0.88065 290.119 0.855956 290.674 0.836202C290.775 0.83291 290.884 0.839484 290.978 0.846068C292.358 0.934959 292.358 0.936614 292.824 0.916861C293.048 0.906984 293.264 0.898753 293.244 0.64854C293.67 0.380221 294.346 0.362116 295.002 0.322609C295.428 0.297917 295.61 0.37035 295.888 0.408211C295.982 0.42138 296.084 0.447714 296.172 0.444421C297.626 0.390099 299.073 0.332476 300.52 0.271569C300.763 0.261693 300.939 0.271571 301.128 0.314371C301.372 0.368693 301.642 0.403269 302.028 0.383515C302.799 0.344008 303.583 0.319322 304.368 0.286399C304.767 0.269938 304.767 0.269921 305.571 0.371981C305.659 0.383504 305.774 0.396674 305.869 0.393382C306.653 0.365397 307.431 0.330839 308.209 0.301209C308.425 0.292978 308.621 0.316022 308.79 0.360467C308.959 0.404913 309.162 0.427956 309.372 0.419725C310.156 0.390095 310.934 0.357183 311.712 0.327552C311.806 0.32426 311.921 0.335782 312.009 0.347305C312.834 0.449366 312.834 0.449349 313.213 0.432887C313.767 0.408195 314.335 0.396685 314.883 0.363763C315.417 0.33084 315.695 0.426308 316.06 0.478984C317.061 0.441123 318.068 0.409854 319.062 0.363763C319.468 0.344009 319.684 0.398327 319.955 0.441126C320.049 0.455941 320.144 0.487221 320.232 0.485575C320.57 0.47899 320.902 0.460886 321.233 0.447717C321.564 0.434548 321.902 0.42138 322.234 0.408211C322.613 0.455949 322.863 0.567885 323.404 0.530024C323.728 0.506978 324.073 0.502039 324.404 0.48887C324.736 0.475701 325.074 0.462534 325.405 0.449365C325.628 0.441134 325.858 0.436188 326.075 0.421373C326.474 0.396681 326.67 0.477351 326.954 0.513566C327.049 0.525089 327.157 0.54483 327.245 0.541538C327.914 0.518492 328.59 0.49874 329.246 0.460879C329.753 0.431248 330.098 0.480639 330.457 0.549776C330.531 0.564592 330.66 0.572821 330.754 0.569529C331.539 0.541545 332.316 0.506967 333.094 0.477336C333.304 0.469105 333.507 0.495443 333.676 0.538242C333.851 0.582688 334.047 0.604104 334.264 0.595873C335.042 0.566243 335.826 0.53331 336.604 0.50368C336.698 0.500388 336.813 0.513559 336.901 0.526728C337.659 0.628788 337.659 0.630436 338.105 0.610683C338.213 0.605744 338.328 0.602439 338.436 0.597501C338.991 0.574455 339.566 0.566235 340.107 0.526728C340.729 0.482283 341.182 0.538253 341.621 0.632083C342.176 0.612329 342.744 0.600804 343.285 0.567881C343.691 0.543189 343.907 0.605739 344.178 0.646893C344.272 0.661708 344.374 0.691338 344.455 0.688046C345.239 0.660062 346.024 0.635379 346.794 0.594225C347.214 0.571179 347.396 0.645242 347.68 0.683103C347.775 0.696272 347.876 0.71933 347.964 0.716037C348.411 0.702868 348.857 0.683105 349.303 0.664998C349.824 0.643598 349.824 0.645242 350.514 0.745657C350.838 0.793394 351.163 0.755532 351.481 0.744009C351.819 0.73084 352.137 0.720966 352.407 0.788458C352.576 0.831257 352.779 0.857596 352.989 0.851012C353.435 0.836196 353.888 0.821388 354.328 0.796696C354.679 0.776943 354.984 0.790105 355.241 0.851012C355.423 0.893811 355.613 0.915224 355.836 0.905347C356.837 0.86584 357.844 0.824671 358.845 0.78681C358.933 0.783518 359.055 0.798338 359.136 0.813154C359.325 0.842784 359.508 0.875699 359.69 0.908622C360.13 0.893807 360.583 0.887239 361.016 0.864193C361.475 0.841148 361.895 0.832915 362.253 0.923452C362.328 0.943205 362.436 0.971174 362.524 0.969528C362.862 0.962944 363.193 0.946487 363.524 0.933318C363.856 0.920149 364.194 0.906982 364.525 0.893813C364.911 0.934966 365.154 1.05349 365.695 1.01562C366.02 0.992579 366.365 0.987641 366.696 0.974472C367.027 0.961302 367.366 0.946489 367.697 0.934966C367.805 0.931674 367.927 0.923438 368.021 0.930023C368.123 0.936607 368.211 0.959658 368.299 0.976119C368.569 1.02386 368.819 1.0716 369.205 1.04362C369.529 1.02057 369.874 1.01563 370.206 1.00082C370.659 0.982708 370.659 0.982711 371.409 1.08642C371.714 1.12922 372.059 1.07325 372.349 1.10947C372.545 1.13416 372.715 1.1753 372.904 1.20329C372.985 1.21481 373.113 1.21974 373.208 1.21645C373.654 1.20163 374.108 1.18683 374.547 1.16213C374.905 1.14238 375.203 1.16213 375.453 1.22139C375.636 1.26419 375.818 1.28231 376.048 1.27243C377.164 1.22634 378.28 1.18682 379.389 1.13579C379.768 1.11768 380.072 1.14567 380.281 1.20493C380.64 1.30699 381.147 1.18683 381.519 1.26914C381.749 1.32017 381.979 1.37943 382.398 1.35474C383.169 1.31194 383.953 1.28888 384.731 1.25925C385.008 1.30369 385.286 1.34815 385.57 1.3926C386.016 1.37449 386.462 1.35637 386.909 1.33991C387.24 1.32674 387.578 1.31193 387.909 1.3004C388.018 1.29711 388.133 1.29052 388.234 1.29875C388.335 1.30699 388.417 1.32839 388.511 1.34485C388.978 1.42551 388.978 1.42717 389.749 1.39424C390.08 1.37943 390.398 1.36955 390.675 1.4354C390.932 1.4963 391.236 1.50782 391.588 1.48971C392.251 1.45679 392.92 1.4321 393.597 1.40905C393.806 1.40082 394.002 1.42881 394.178 1.47161C394.442 1.5391 394.766 1.53252 395.098 1.51441C395.537 1.49136 395.97 1.46832 396.342 1.5605C396.416 1.58026 396.531 1.60823 396.613 1.60658C397.167 1.59341 397.728 1.58354 398.269 1.55227C398.81 1.52099 399.074 1.62305 399.446 1.67243C400 1.65103 400.562 1.62963 401.116 1.60823C401.224 1.60329 401.353 1.58848 401.448 1.59671C401.847 1.63128 402.076 1.75474 402.624 1.71688C402.942 1.69548 403.287 1.6889 403.618 1.68396C403.706 1.68232 403.821 1.71029 403.882 1.73169C403.916 1.74321 403.882 1.77449 403.841 1.79095C403.72 1.83704 403.571 1.87985 403.463 1.92759C403.449 1.93417 403.578 1.96379 403.652 1.97696C403.835 2.00659 404.044 2.00166 404.288 1.98849C404.497 1.97697 404.714 2.00002 404.863 2.0494C404.923 2.06915 404.903 2.10207 404.775 2.21072C404.775 2.29138 404.917 2.25516 404.964 2.20248C405.038 2.12676 404.896 2.10207 404.626 2.14322C404.436 2.17285 404.342 2.21566 404.389 2.25022C404.416 2.26833 404.545 2.29138 404.775 2.21072C405.37 2.11195 405.816 2.09385 406.262 2.07574C406.377 2.07081 406.513 2.05433 406.594 2.06421C406.885 2.10372 407.155 2.15146 407.439 2.19591C407.764 2.18603 408.068 2.16133 408.386 2.22553C408.832 2.31607 408.852 2.30784 409.285 2.28973C409.508 2.27985 409.731 2.27164 409.955 2.26341C410.178 2.25518 410.354 2.27986 410.55 2.31772C410.949 2.39509 410.982 2.39508 411.246 2.28973C411.402 2.22553 411.51 2.20414 411.706 2.23377C412.355 2.33418 412.362 2.34076 412.916 2.31113C413.376 2.28644 413.809 2.27986 414.147 2.37368C414.377 2.43953 414.452 2.42472 414.634 2.35558C415.121 2.17286 415.344 2.17614 416.257 2.30784C416.683 2.37039 417.123 2.3029 417.555 2.29467C417.921 2.28809 418.178 2.32759 418.205 2.4313C418.225 2.49549 418.286 2.54159 418.529 2.56299C418.624 2.57122 418.739 2.58274 418.833 2.57945C419.395 2.5597 419.949 2.53665 420.511 2.5136C420.795 2.50208 420.95 2.42473 420.896 2.32266C420.835 2.21402 420.943 2.1745 421.349 2.14322C421.592 2.12511 421.789 2.12842 421.985 2.15805C422.201 2.19097 422.14 2.2206 421.951 2.27986C421.498 2.42472 421.552 2.5136 422.134 2.61401C422.336 2.64858 422.499 2.67987 422.546 2.7309C422.573 2.75724 422.546 2.79181 422.607 2.81156C422.938 2.92185 423.398 2.99264 423.912 3.04532C424.406 3.00087 424.744 3.07494 425.122 3.1342C425.42 3.18029 425.772 3.14079 426.089 3.12433C426.448 3.10622 426.745 3.11939 427.002 3.18029C427.185 3.22309 427.374 3.24284 427.597 3.23461C428.044 3.2165 428.497 3.20498 428.936 3.17865C429.315 3.1556 429.599 3.18853 429.836 3.2445C430.133 3.31528 430.465 3.26753 430.776 3.27741C431.195 3.28893 431.405 3.43543 431.953 3.39593C432.277 3.37288 432.615 3.36465 432.953 3.35807C433.041 3.35642 433.149 3.38441 433.224 3.40417C433.582 3.4947 434.001 3.48976 434.461 3.46342C434.779 3.44532 435.09 3.42886 435.401 3.49142C435.915 3.59677 436.483 3.68896 437.024 3.78608C437.099 3.8618 437.044 3.95068 437.43 3.99512C437.633 4.01817 437.822 4.05275 437.978 4.09061C438.167 4.13506 438.343 4.14658 438.586 4.13506C439.026 4.11201 439.486 4.10706 439.919 4.07743C440.318 4.05109 440.568 4.10543 440.811 4.15646C441.007 4.19761 441.19 4.21736 441.427 4.18773C441.67 4.15974 441.846 4.17784 442.042 4.22229C442.319 4.2832 442.339 4.27662 443.259 4.29473C443.354 4.29637 443.469 4.32105 443.523 4.34245C443.55 4.35398 443.489 4.38692 443.442 4.40338C443.381 4.42313 443.286 4.44617 443.198 4.4511C442.197 4.4939 441.19 4.53176 440.189 4.57456C440.088 4.5795 439.979 4.59104 439.905 4.6075C439.824 4.62561 439.722 4.65028 439.722 4.67333C439.722 4.68979 439.858 4.70955 439.952 4.72107C440.25 4.75893 440.602 4.70132 440.892 4.74412C441.088 4.7721 441.251 4.8116 441.447 4.83794C441.528 4.84946 441.656 4.84782 441.758 4.84453C442.096 4.83301 442.427 4.81655 442.765 4.80667C442.86 4.80503 442.968 4.8215 443.056 4.83467C443.705 4.93343 443.705 4.93343 444.267 4.91203C444.49 4.9038 444.727 4.8791 444.936 4.88898C445.139 4.89886 445.315 4.9433 445.497 4.97129C445.876 5.03055 446.234 5.08816 446.262 5.21656C446.275 5.26594 446.498 5.30874 446.721 5.31203C446.938 5.31532 447.168 5.29723 447.391 5.28735C447.918 5.2676 447.918 5.2676 448.601 5.36801C448.791 5.396 448.993 5.39928 449.237 5.38282C449.332 5.37624 449.447 5.38283 449.548 5.39106C449.879 5.41575 449.879 5.44702 449.663 5.50628C449.359 5.59353 449.386 5.60176 450.238 5.67584C450.562 5.70382 450.812 5.7565 451.083 5.80259C451.523 5.87667 451.516 5.87665 451.225 5.97378C451.158 5.99518 451.097 6.01823 451.029 6.04127C450.833 6.10547 450.677 6.17461 450.272 6.18119C449.825 6.18778 449.379 6.21412 448.933 6.23223C448.5 6.25034 448.385 6.28983 448.425 6.40177C448.473 6.53675 448.561 6.55157 449.338 6.54992C449.562 6.54992 449.758 6.56309 449.927 6.60753C449.845 6.66021 449.697 6.70136 449.48 6.71124C448.926 6.73593 448.365 6.75734 447.81 6.77874C447.364 6.79685 446.918 6.81495 446.471 6.83305C446.194 6.84458 446.018 6.93018 446.092 7.02566C446.133 7.07998 446.167 7.1343 446.201 7.18862C446.275 7.29727 446.417 7.32526 446.87 7.32032C446.985 7.31868 447.093 7.3055 447.201 7.30879C447.641 7.32031 447.851 7.45694 448.378 7.42895C448.818 7.40591 449.278 7.40097 449.71 7.37134C450.109 7.345 450.332 7.40428 450.61 7.44873C450.704 7.46354 450.806 7.4948 450.887 7.49315C451.448 7.47505 452.01 7.45695 452.557 7.42568C452.814 7.41251 452.97 7.42238 453.173 7.46189C453.659 7.55736 453.673 7.55242 454.397 7.52279C454.924 7.49975 454.931 7.50304 455.607 7.60345C455.796 7.63144 455.999 7.63143 456.243 7.61826C456.561 7.6018 456.892 7.57546 457.223 7.60016C457.325 7.60674 457.453 7.6265 457.487 7.6479C457.507 7.66272 457.413 7.69893 457.332 7.71045C456.736 7.79605 456.04 7.78124 455.391 7.81581C455.188 7.82569 454.985 7.79441 454.816 7.74996C454.64 7.70551 454.451 7.68741 454.221 7.69564C453.774 7.71375 453.321 7.72527 452.882 7.75161C452.503 7.77465 452.239 7.73679 451.976 7.68576C451.888 7.6693 451.786 7.63802 451.698 7.63966C450.698 7.67258 449.69 7.70552 448.696 7.75161C448.297 7.77136 448.067 7.71869 447.797 7.67424C447.702 7.65943 447.607 7.62815 447.519 7.6298C447.181 7.63638 446.85 7.65448 446.512 7.66765C445.281 7.71704 444.057 7.76642 442.826 7.81251C442.745 7.81581 442.644 7.78123 442.549 7.76642C442.366 7.73679 442.177 7.7088 441.988 7.68082C441.65 7.69398 441.318 7.71044 440.98 7.72032C440.737 7.72691 440.52 7.74996 440.486 7.81251C440.466 7.85367 440.689 7.89152 440.926 7.88823C441.156 7.88494 441.386 7.86518 441.575 7.88658C442.515 7.99193 442.515 7.99358 443.104 7.97218C443.617 7.95243 443.563 7.93596 444.016 8.0265C444.212 8.06601 444.388 8.08906 444.612 8.07919C445.166 8.05614 445.727 8.03309 446.289 8.01334C446.376 8.01005 446.491 8.02651 446.579 8.03968C447.242 8.13845 447.242 8.14174 447.79 8.11704C448.507 8.08741 448.534 8.07918 449.014 8.1796C449.345 8.24874 449.649 8.201 449.967 8.1977C450.332 8.2619 450.731 8.31953 451.063 8.39196C451.455 8.47756 451.867 8.46272 452.314 8.43803C452.645 8.41992 452.97 8.41334 453.24 8.48083C453.497 8.54339 453.808 8.54998 454.16 8.53352C454.478 8.51871 454.802 8.48742 455.134 8.52363C455.222 8.53351 455.357 8.55821 455.35 8.57303C455.343 8.59607 455.255 8.629 455.167 8.63888C454.545 8.70637 453.862 8.70472 453.206 8.73599C453.119 8.74093 453.004 8.72282 452.916 8.70965C452.726 8.68002 452.544 8.64546 452.361 8.61418C452.03 8.62406 451.692 8.62734 451.367 8.64709C451.117 8.66191 450.927 8.66028 450.745 8.62077C450.576 8.58456 450.393 8.5401 450.19 8.52858C449.988 8.51705 449.751 8.54175 449.528 8.55163C449.305 8.5615 449.048 8.55655 448.872 8.58289C448.696 8.60923 448.588 8.66685 448.473 8.71294C448.344 8.76397 448.168 8.78045 447.911 8.78538C447.675 8.79032 447.486 8.78373 447.31 8.73764C447.235 8.71789 447.134 8.70306 447.032 8.6899C446.938 8.67837 446.83 8.66026 446.742 8.66355C445.734 8.70141 444.733 8.74258 443.726 8.78209C443.225 8.80184 443.232 8.80183 442.191 8.70471C442.096 8.69648 441.981 8.68496 441.886 8.68825C441.325 8.708 440.771 8.73105 440.209 8.7541C439.641 8.77714 439.648 8.77385 438.681 8.67014C438.505 8.65039 438.248 8.67673 438.039 8.67344C437.599 8.66521 437.383 8.52694 436.869 8.55327C436.429 8.57632 435.969 8.58125 435.53 8.61088C435.131 8.63722 434.901 8.57961 434.63 8.53517C434.536 8.52035 434.434 8.48743 434.353 8.49072C433.345 8.52693 432.345 8.56809 431.006 8.57303C430.674 8.57303 430.823 8.6076 431.04 8.61912C431.351 8.63723 431.452 8.60266 431.283 8.53682C431.161 8.49072 430.985 8.46766 430.843 8.47919C430.769 8.48577 430.674 8.51706 431.006 8.57303C431.357 8.63558 431.337 8.67014 431.398 8.6899C431.547 8.73763 431.756 8.75739 431.973 8.7508C432.311 8.73928 432.642 8.72282 432.98 8.71294C433.075 8.70965 433.19 8.72118 433.278 8.73434C434.022 8.8364 434.029 8.843 434.82 8.80349C435.07 8.79197 435.252 8.79197 435.449 8.82324C435.719 8.86604 435.915 8.93846 436.328 8.91541C436.875 8.88414 437.437 8.86605 437.998 8.84794C438.086 8.84465 438.181 8.87427 438.282 8.88744C438.559 8.92695 438.762 9.00103 439.175 8.96975C439.492 8.94506 439.837 8.93846 440.175 8.93352C440.263 8.93187 440.398 8.95822 440.439 8.97962C440.52 9.01748 440.419 9.06193 440.189 9.09321C440.094 9.10638 439.966 9.10308 439.858 9.10802C439.411 9.12613 438.965 9.14587 438.519 9.16069C438.282 9.16892 438.059 9.19362 438.032 9.25453C438.012 9.29568 438.255 9.33189 438.485 9.3286C438.823 9.32366 439.161 9.31049 439.486 9.28909C440.06 9.25288 440.561 9.26275 441.027 9.36645C441.359 9.43888 441.339 9.41256 441.69 9.62656C441.778 9.68088 442.042 9.68581 442.272 9.68252C442.826 9.67429 443.083 9.69899 443.036 9.75002C442.975 9.81257 442.779 9.83231 442.529 9.84054C442.082 9.85371 441.636 9.87512 441.19 9.89323C441.082 9.89817 440.96 9.90804 440.858 9.90474C440.757 9.90145 440.662 9.8817 440.574 9.86689C440.385 9.83561 440.223 9.78786 440.02 9.77634C439.817 9.76482 439.58 9.78951 439.357 9.79939C439.134 9.80762 438.897 9.83231 438.695 9.82079C438.492 9.80927 438.323 9.75989 438.14 9.73026C438.052 9.71545 437.944 9.69239 437.856 9.69403C437.41 9.7072 436.963 9.72861 436.517 9.74507C435.969 9.76647 435.969 9.76647 435.307 9.66441C435.117 9.63478 434.921 9.63643 434.671 9.6496C434.13 9.67594 434.123 9.67099 433.136 9.57552C433.041 9.56564 432.926 9.55412 432.831 9.55906C431.824 9.59692 430.823 9.63807 429.822 9.67758C428.963 9.71214 428.963 9.71216 428.49 9.87677C428.138 9.99858 428.132 9.99858 428.477 10.0545C428.754 10.1006 429.004 10.1681 429.308 10.1928C429.592 10.2159 429.944 10.1418 430.255 10.2175C430.411 10.2554 430.613 10.2965 430.81 10.3031C431.121 10.3113 431.452 10.2636 431.75 10.336C431.898 10.3722 432.122 10.4101 432.311 10.4118C432.642 10.4151 432.98 10.3887 433.312 10.3772C433.413 10.3739 433.528 10.3739 433.623 10.3821C433.724 10.392 433.812 10.4118 433.9 10.4282C434.17 10.4842 434.461 10.5105 434.813 10.4825C435.388 10.4364 435.902 10.4595 436.348 10.5648C436.409 10.5797 436.558 10.5813 436.652 10.5747C436.896 10.5583 437.105 10.5566 437.288 10.5879C437.362 10.6011 437.47 10.6241 437.457 10.6389C437.437 10.6636 437.355 10.6965 437.268 10.7048C436.632 10.7607 435.949 10.7673 435.293 10.797C435.205 10.8002 435.097 10.7788 435.009 10.764C434.82 10.7344 434.657 10.685 434.455 10.6735C434.252 10.662 434.015 10.6834 433.792 10.6916C433.569 10.6998 433.332 10.7245 433.129 10.7146C432.926 10.7031 432.737 10.662 432.575 10.6257C432.385 10.5846 432.203 10.5797 431.953 10.5961C431.628 10.6175 431.29 10.6208 430.958 10.6323C430.776 10.6011 430.593 10.5665 430.404 10.5369C430.316 10.522 430.208 10.5039 430.113 10.5056C429.667 10.5188 429.22 10.5385 428.774 10.5566C428.328 10.5747 428.328 10.5747 427.571 10.4727C427.483 10.4611 427.368 10.448 427.273 10.4513C426.712 10.471 426.157 10.4957 425.596 10.5155C425.379 10.5237 425.183 10.5006 425.008 10.4562C424.839 10.4117 424.636 10.3871 424.426 10.3953C423.533 10.4299 422.641 10.4628 421.748 10.5039C421.39 10.5204 421.085 10.5056 420.842 10.4463C420.558 10.3788 420.24 10.3953 419.909 10.4085C419.158 10.4414 419.151 10.4397 418.671 10.3558C418.577 10.3393 418.482 10.308 418.394 10.3097C417.616 10.3344 416.832 10.3574 416.061 10.3969C415.655 10.4183 415.439 10.3607 415.168 10.3179C415.074 10.3031 414.972 10.2718 414.891 10.2751C414.33 10.2932 413.768 10.3097 413.221 10.3426C412.673 10.3755 412.463 10.2225 412.051 10.2241C411.49 10.2257 410.935 10.2636 410.381 10.2867C409.934 10.3048 409.488 10.3229 409.042 10.341C408.595 10.3591 408.149 10.3739 407.703 10.3953C407.466 10.4068 407.29 10.392 407.094 10.3508C406.844 10.2965 406.546 10.2537 406.276 10.2044C405.863 10.1336 405.863 10.1336 405.363 10.1533C405.255 10.1582 405.14 10.1615 405.032 10.1665C404.213 10.2027 404.213 10.1994 403.172 10.0957C403.125 10.0908 403.003 10.1089 402.956 10.122C402.814 10.1648 402.685 10.2109 402.557 10.2554C402.374 10.229 402.151 10.2142 402.029 10.1764C401.684 10.0694 401.143 10.2159 400.792 10.1105C400.663 10.071 400.44 10.0364 400.237 10.0266C400.027 10.0167 399.791 10.0397 399.574 10.0496C399.013 10.0743 399.013 10.0727 398.533 10.2192C398.29 10.2916 397.938 10.2784 397.62 10.2949C397.289 10.313 396.971 10.3229 396.694 10.2554C396.443 10.1945 396.139 10.1797 395.781 10.1994C395.341 10.2241 394.888 10.2389 394.442 10.2537C394.347 10.257 394.232 10.2488 394.137 10.2389C393.103 10.1418 393.103 10.1401 392.602 10.1615C392.379 10.1714 392.149 10.1747 391.933 10.1895C391.568 10.2159 391.291 10.1813 391.027 10.1286C390.939 10.1122 390.837 10.0809 390.75 10.0825C390.303 10.0908 389.864 10.1056 389.424 10.1204C389.086 10.1319 388.748 10.1385 388.423 10.1615C387.882 10.1994 387.619 10.0924 387.247 10.043C386.692 10.0644 386.131 10.0792 385.576 10.1089C385.319 10.122 385.15 10.1171 384.954 10.0776C384.704 10.0282 384.474 9.97224 384.068 9.99694C383.527 10.0299 382.959 10.0414 382.405 10.0611C382.033 10.0101 381.763 9.90639 381.228 9.94425C380.904 9.96729 380.559 9.97223 380.228 9.9854C379.781 10.0035 379.335 10.02 378.889 10.0397C378.408 10.0595 378.415 10.0546 377.678 9.95743C377.252 9.89982 376.812 9.96401 376.38 9.97389C376.042 9.98212 375.873 10.0578 375.954 10.155C376.035 10.2521 375.852 10.3278 375.541 10.341C374.763 10.3722 373.979 10.4052 373.201 10.4331C373.107 10.4364 372.992 10.4249 372.904 10.4134C372.072 10.3097 372.072 10.3113 371.7 10.3262C371.146 10.3509 370.578 10.364 370.03 10.3953C369.651 10.4167 369.374 10.3821 369.13 10.3262C368.941 10.2834 368.765 10.2735 368.522 10.2834C365.844 10.3937 363.166 10.4957 360.495 10.6093C360.096 10.6258 359.866 10.578 359.596 10.5336C359.501 10.5188 359.413 10.4875 359.318 10.4875C359.095 10.4875 358.872 10.5023 358.649 10.5122C357.648 10.5517 356.647 10.5994 355.64 10.629C355.214 10.6422 355.099 10.7179 354.916 10.7805C354.774 10.8282 354.612 10.848 354.362 10.8546C354.118 10.8611 353.942 10.8529 353.753 10.8101C353.509 10.7541 353.232 10.7196 352.854 10.7426C352.414 10.769 351.968 10.7805 351.515 10.7986C351.285 10.8068 351.109 10.8365 351.034 10.8957C351.021 10.9056 351.163 10.9303 351.244 10.9451C351.515 10.9945 351.772 11.0521 352.076 11.0867C352.387 11.1212 352.725 11.0817 353.05 11.0718C353.165 11.0686 353.273 11.0587 353.381 11.0603C353.482 11.062 353.604 11.0702 353.679 11.085C354.03 11.1591 354.402 11.2101 354.889 11.1657C355.308 11.1871 355.525 11.3237 356.059 11.2875C356.384 11.2661 356.722 11.2562 357.06 11.248C357.148 11.2463 357.242 11.276 357.337 11.2908C357.607 11.3319 357.824 11.3978 358.23 11.3698C358.662 11.3402 359.122 11.3352 359.562 11.3122C359.805 11.299 359.981 11.3105 360.17 11.3533C360.414 11.4077 360.691 11.4488 361.07 11.4225C361.394 11.3994 361.739 11.3945 362.071 11.3797C362.503 11.3616 362.503 11.3632 363.274 11.4653C363.362 11.4768 363.477 11.49 363.572 11.4867C364.133 11.4669 364.688 11.4422 365.249 11.4225C365.465 11.4142 365.675 11.4356 365.824 11.4834C365.885 11.5031 365.864 11.5361 365.884 11.5641C364.769 11.6085 363.653 11.6464 362.544 11.7007C362.125 11.7221 361.935 11.6546 361.658 11.6167C361.563 11.6036 361.462 11.5756 361.374 11.5789C360.59 11.6069 359.812 11.6365 359.034 11.6727C358.791 11.6842 358.608 11.6776 358.426 11.6299C357.959 11.5031 357.391 11.5723 356.864 11.5904C356.458 11.6035 356.329 11.6546 356.377 11.7632C356.438 11.8916 356.681 11.9311 357.303 11.9081C357.526 11.8999 357.749 11.8883 357.973 11.8817C358.189 11.8752 358.385 11.8966 358.561 11.941C358.73 11.9855 358.933 12.0085 359.142 12.0019C359.589 11.9871 360.042 11.9723 360.475 11.9476C360.833 11.9278 361.131 11.9443 361.381 12.0052C361.658 12.0727 361.983 12.0579 362.307 12.0431C363.065 12.0101 363.071 12.0118 363.545 12.0941C363.639 12.1106 363.734 12.1418 363.822 12.1402C364.6 12.1155 365.384 12.0941 366.148 12.0546C366.547 12.0348 366.777 12.0875 367.041 12.1303C367.136 12.1451 367.23 12.1781 367.318 12.1748C367.879 12.1567 368.441 12.1385 368.988 12.1073C369.245 12.0925 369.401 12.1023 369.611 12.1418C370.111 12.239 370.125 12.2357 370.835 12.2044C371.051 12.1945 371.288 12.1764 371.49 12.1896C371.693 12.2027 371.856 12.2505 372.045 12.2801C372.133 12.2933 372.241 12.3114 372.336 12.3081C372.782 12.2949 373.228 12.2752 373.675 12.2571C374.094 12.239 374.094 12.2406 374.878 12.3427C375.196 12.3855 375.528 12.3493 375.846 12.3361C376.19 12.3213 376.501 12.3213 376.765 12.3855C377.029 12.4497 377.347 12.4464 377.685 12.4332C378.003 12.42 378.327 12.3838 378.652 12.4283C379.396 12.5303 379.396 12.532 379.856 12.5122C380.525 12.4842 381.188 12.4579 381.864 12.4332C381.952 12.4299 382.067 12.4497 382.155 12.4628C382.344 12.4925 382.506 12.5418 382.709 12.5534C382.912 12.5665 383.149 12.5468 383.365 12.5369C384.062 12.5056 384.109 12.4941 384.576 12.6028C384.968 12.6916 385.455 12.5632 385.82 12.6653C386.03 12.7229 386.313 12.769 386.706 12.741C387.03 12.718 387.368 12.7114 387.707 12.6982C388.241 12.6768 388.241 12.6785 388.917 12.7773C389.005 12.7904 389.12 12.8069 389.208 12.8036C389.654 12.7904 390.107 12.7789 390.54 12.7493C391.047 12.7147 391.372 12.7773 391.75 12.8382C392.048 12.8859 392.4 12.8464 392.717 12.8299C393.062 12.8135 393.373 12.8184 393.63 12.8826C393.901 12.9484 394.219 12.9402 394.557 12.927C394.875 12.9155 395.199 12.8777 395.524 12.9237C396.22 13.0258 396.22 13.0258 396.728 13.0061C397.174 12.9879 397.62 12.9682 398.066 12.955C398.154 12.9517 398.262 12.9731 398.35 12.9879C398.54 13.0176 398.702 13.067 398.905 13.0785C399.108 13.09 399.344 13.0686 399.568 13.0604C399.791 13.0522 400.027 13.0275 400.23 13.0373C400.433 13.0472 400.623 13.0884 400.785 13.1246C400.974 13.1674 401.15 13.1723 401.407 13.1559C401.732 13.1345 402.07 13.1295 402.401 13.118C402.584 13.1493 402.773 13.1805 402.949 13.2151C403.131 13.2513 403.327 13.248 403.578 13.2365C404.409 13.197 404.416 13.202 405.113 13.304C405.431 13.3501 405.762 13.3122 406.08 13.3007C406.418 13.2875 406.736 13.281 406.999 13.3468C407.256 13.4094 407.574 13.4176 407.912 13.3978C408.129 13.3847 408.359 13.3764 408.582 13.3715C408.683 13.3699 408.805 13.3764 408.879 13.3896C409.238 13.4587 409.589 13.5213 410.083 13.4769C410.516 13.49 410.732 13.625 411.253 13.5987C411.693 13.5756 412.152 13.5707 412.585 13.541C412.984 13.5147 413.268 13.5608 413.471 13.6184C413.836 13.7205 414.35 13.5822 414.715 13.6826C414.925 13.7402 415.195 13.7863 415.601 13.7616C416.047 13.7353 416.189 13.7699 416.318 13.8736C416.392 13.9328 416.379 13.9806 416.244 14.0267C416.108 14.0744 415.96 14.0662 415.743 14.0119C415.493 13.9509 415.195 13.9394 414.837 13.9526C414.485 13.9657 414.269 13.8802 413.978 13.8472C413.687 13.8127 413.343 13.8703 413.038 13.8258C412.322 13.7221 412.321 13.7221 411.835 13.7419C411.503 13.7551 411.158 13.7616 410.834 13.7847C410.448 13.8127 410.198 13.7616 409.934 13.7155C409.84 13.6991 409.745 13.6678 409.664 13.6694C408.886 13.6941 408.102 13.7172 407.331 13.7583C406.925 13.7797 406.709 13.7205 406.438 13.6793C406.344 13.6645 406.242 13.6349 406.161 13.6382C405.491 13.6612 404.829 13.6909 404.159 13.7188C404.031 13.7633 403.889 13.8061 403.767 13.8538C403.639 13.9032 403.463 13.9246 403.206 13.923C402.78 13.923 402.36 13.9921 401.934 13.9049C401.495 13.816 401.461 13.8209 401.035 13.8423C400.494 13.8703 399.919 13.8637 399.412 13.9279C399.324 13.9394 399.23 13.9707 399.23 13.9937C399.223 14.0085 399.365 14.03 399.453 14.0431C399.75 14.0826 400.095 14.025 400.393 14.0662C400.589 14.0925 400.751 14.132 400.947 14.16C401.028 14.1715 401.15 14.1699 401.258 14.1682C401.373 14.1666 401.481 14.1551 401.59 14.1567C401.691 14.1584 401.799 14.1682 401.88 14.183C402.252 14.2456 402.645 14.3032 402.976 14.3773C403.3 14.4497 403.605 14.4003 403.929 14.397C405.228 14.5123 405.228 14.5139 406.1 14.4777C406.317 14.4695 406.54 14.4596 406.763 14.4612C406.858 14.4612 406.945 14.4909 407.04 14.5073C407.311 14.5567 407.568 14.6012 407.946 14.5748C408.271 14.5518 408.616 14.5468 408.947 14.532C409.393 14.5139 409.393 14.5139 410.151 14.6176C410.34 14.644 410.543 14.6407 410.786 14.6275C410.996 14.616 411.212 14.6407 411.361 14.6884C411.422 14.7082 411.402 14.7411 411.422 14.7691C410.753 14.7954 410.076 14.8135 409.427 14.853C409.008 14.8777 408.819 14.8069 408.541 14.7691C408.447 14.7559 408.345 14.7279 408.257 14.7312C407.595 14.7559 406.932 14.7839 406.269 14.8168C406.188 14.8201 406.087 14.858 406.08 14.881C406.066 14.9238 406.235 14.965 406.479 14.9633C406.803 14.9617 407.121 14.9337 407.412 15.0012C407.655 15.0604 407.96 15.0868 408.318 15.0604C408.534 15.0456 408.765 15.0456 408.981 15.0324C409.556 14.9929 410.076 15.0012 410.509 15.1131C410.84 15.1427 411.165 15.1148 411.483 15.0999C411.72 15.0884 411.949 15.0769 412.119 15.1082C412.477 15.174 412.829 15.2399 413.322 15.1954C413.857 15.2415 414.262 15.3386 414.709 15.4176C414.918 15.4555 415.08 15.4769 415.324 15.4522C415.425 15.4423 415.547 15.4423 415.655 15.4374C415.878 15.4292 416.115 15.4045 416.318 15.4143C416.521 15.4259 416.69 15.4736 416.872 15.5032C416.96 15.5181 417.062 15.5427 417.15 15.5411C417.488 15.5329 417.819 15.5164 418.15 15.5032C418.482 15.4917 418.813 15.4802 419.145 15.4687C419.422 15.5115 419.706 15.5543 419.983 15.5971C420.429 15.579 420.876 15.5609 421.315 15.5444C421.809 15.5246 421.809 15.5263 422.519 15.6283C422.837 15.6744 423.175 15.6448 423.479 15.6234C423.986 15.5888 424.325 15.6514 424.683 15.7172C424.757 15.7304 424.893 15.7386 424.98 15.7321C425.332 15.709 425.636 15.7271 425.893 15.788C426.076 15.8308 426.259 15.8506 426.482 15.8424C427.259 15.8111 428.037 15.7781 428.815 15.7502C428.909 15.7469 429.018 15.7617 429.105 15.7749C429.795 15.8753 429.802 15.8802 430.309 15.8539C430.762 15.8308 431.182 15.8209 431.54 15.9115C431.614 15.9312 431.729 15.9592 431.81 15.9576C432.365 15.9411 432.926 15.923 433.474 15.895C433.724 15.8819 433.9 15.8868 434.096 15.9247C434.346 15.9724 434.57 16.03 434.982 16.0086C436.125 15.9477 436.132 15.9576 437.484 16.0711C437.579 16.0794 437.707 16.0662 437.815 16.0596C438.045 16.0432 438.214 16.0662 438.417 16.1041C438.87 16.1897 438.884 16.1847 439.317 16.1666C439.648 16.1518 439.993 16.1485 440.317 16.1238C440.818 16.0876 441.149 16.1518 441.521 16.2127C441.819 16.2605 442.163 16.221 442.481 16.2061C442.826 16.1897 443.137 16.1946 443.394 16.2572C443.57 16.3 443.759 16.323 443.983 16.3148C444.76 16.2852 445.538 16.2522 446.316 16.2226C446.41 16.2193 446.525 16.2325 446.613 16.244C447.384 16.3461 447.384 16.351 448.148 16.3131C448.392 16.3016 448.595 16.2983 448.777 16.3329C448.953 16.3658 449.142 16.3971 449.325 16.4284C449.656 16.4168 449.994 16.4136 450.319 16.3938C450.569 16.379 450.745 16.3856 450.941 16.4201C451.198 16.4646 451.414 16.5419 451.82 16.5041C452.03 16.486 452.273 16.4909 452.483 16.4745C452.733 16.4531 452.902 16.4662 453.098 16.509C453.342 16.5601 453.592 16.6127 453.984 16.5864C454.417 16.5568 454.877 16.5518 455.316 16.5288C455.56 16.5156 455.729 16.5288 455.925 16.5716C456.168 16.6259 456.446 16.6605 456.824 16.6391C457.595 16.5979 457.602 16.6061 458.352 16.7099C458.542 16.7362 458.745 16.7329 458.988 16.7197C459.198 16.7082 459.414 16.7329 459.563 16.7806C459.705 16.8333 459.691 16.8662 459.705 16.8942ZM399.446 2.04775C399.223 2.05598 399 2.06586 398.675 1.92265C398.655 1.89795 398.668 1.86833 398.621 1.84693C398.513 1.80248 398.344 1.77121 398.141 1.76627C397.776 1.75969 397.336 1.81564 397.343 1.85844C397.35 1.89466 397.465 1.92593 397.688 1.95556C397.782 1.96708 397.857 1.98684 397.945 2.00001C398.202 2.03787 398.405 2.11196 398.777 2.0741C398.709 1.97204 398.743 2.02307 398.777 2.0741C398.743 2.13665 398.844 2.1811 399.088 2.1992C399.155 2.20414 399.257 2.20084 399.311 2.19097C399.52 2.15475 399.554 2.10538 399.399 1.97533C399.372 1.99673 399.392 2.03458 399.453 2.04446C399.514 2.05433 399.662 2.04611 399.737 2.03459C399.926 2.00331 400.021 1.96216 399.973 1.92759C399.946 1.90948 399.818 1.88644 399.737 1.88644C399.595 1.88644 399.466 1.92265 399.446 2.04775ZM454.126 21.138C453.632 21.1692 453.064 21.1577 452.571 21.2219C452.483 21.2334 452.395 21.2631 452.388 21.2861C452.381 21.3009 452.517 21.3223 452.598 21.3339C452.78 21.3602 452.983 21.3519 453.22 21.3437C453.578 21.3322 453.788 21.4079 454.065 21.4458C454.153 21.4573 454.268 21.4655 454.363 21.4622C454.911 21.4425 455.451 21.4211 455.999 21.3981C456.094 21.3931 456.195 21.3816 456.277 21.3668C456.547 21.319 456.52 21.2878 456.256 21.2515C455.965 21.212 455.736 21.1462 455.438 21.1149C455.012 21.0705 454.579 21.1297 454.126 21.138ZM415.723 22.3396C415.392 22.3528 415.067 22.366 414.736 22.3791C414.627 22.3841 414.512 22.3857 414.411 22.3923C414.201 22.4038 414.046 22.4384 413.944 22.4927C414.1 22.5355 414.289 22.5602 414.499 22.5553C414.83 22.5454 415.155 22.524 415.486 22.5191C415.845 22.5125 416.054 22.5866 416.331 22.6244C416.419 22.6359 416.528 22.6376 416.629 22.6392C417.129 22.6458 417.434 22.5602 417.339 22.44C417.271 22.3462 417.014 22.2903 416.703 22.3018C416.379 22.3133 416.048 22.3265 415.723 22.3396ZM456.439 18.705C456.52 18.677 456.608 18.6572 456.649 18.6325C456.77 18.5486 456.723 18.486 456.5 18.4202C456.229 18.3395 455.898 18.3938 455.594 18.4021C455.519 18.4037 455.438 18.4383 455.397 18.4597C455.37 18.4745 455.37 18.5058 455.411 18.514C455.742 18.5799 456.094 18.6408 456.439 18.705ZM397.776 13.8423C397.451 13.8555 397.12 13.8653 396.795 13.8835C396.714 13.8884 396.64 13.9197 396.592 13.9411C396.504 13.9806 396.599 14.0349 396.876 14.0398C397.194 14.0464 397.525 14.0184 397.857 14.0053C398.276 13.9888 398.526 13.9279 398.371 13.8752C398.222 13.8242 398.019 13.8143 397.776 13.8423ZM41.8137 10.3245C42.0301 10.3163 42.2532 10.3097 42.4696 10.2982C42.6725 10.2866 42.8281 10.2504 42.9296 10.1961C42.7605 10.1533 42.5711 10.1303 42.3615 10.1352C42.0301 10.1451 41.7056 10.1582 41.381 10.1747C41.1781 10.1846 40.9821 10.2208 40.9347 10.2768C40.8874 10.3196 41.3403 10.3443 41.8137 10.3245ZM369.178 10.071C369.266 10.0858 369.354 10.1155 369.441 10.1155C369.658 10.1155 369.881 10.1056 370.084 10.0891C370.172 10.0825 370.239 10.0529 370.28 10.0299C370.307 10.015 370.3 9.9887 370.26 9.97554C370.064 9.89652 369.279 9.9245 369.151 10.015C369.137 10.0315 369.171 10.0529 369.178 10.071ZM347.843 1.05678C347.863 1.08312 347.87 1.10945 347.897 1.13579C347.951 1.18517 348.1 1.2214 348.316 1.24609C348.485 1.20493 348.573 1.15885 348.566 1.10947C348.56 1.08313 348.539 1.05677 348.512 1.03043C348.458 0.98105 348.309 0.944848 348.093 0.920156C347.924 0.959664 347.843 1.00575 347.843 1.05678ZM472.066 22.6261C472.006 22.6475 471.945 22.6689 471.877 22.6886C472.06 22.7364 472.229 22.7512 472.357 22.7248C472.439 22.7084 472.486 22.6837 472.547 22.6623C472.364 22.6145 472.202 22.6014 472.066 22.6261ZM467.86 22.8499C467.948 22.8647 468.029 22.8845 468.124 22.8944C468.28 22.9108 468.422 22.8829 468.53 22.8236C468.442 22.8088 468.361 22.789 468.266 22.7791C468.111 22.7627 467.969 22.7907 467.86 22.8499ZM470.525 22.5487C470.477 22.5882 470.572 22.6211 470.822 22.6491C470.883 22.6277 470.964 22.608 471.005 22.5849C471.073 22.547 470.957 22.5125 470.714 22.4861C470.646 22.5059 470.586 22.5273 470.525 22.5487ZM456.249 20.7742C456.202 20.8137 456.297 20.8466 456.547 20.8746C456.608 20.8532 456.689 20.8334 456.73 20.8104C456.797 20.7725 456.682 20.7379 456.439 20.7116C456.371 20.7314 456.31 20.7528 456.249 20.7742ZM436.801 9.12613C436.74 9.14752 436.679 9.16893 436.612 9.18868C436.794 9.23642 436.963 9.25123 437.092 9.22489C437.173 9.20843 437.22 9.18373 437.281 9.16234C437.099 9.1146 436.936 9.10143 436.801 9.12613ZM418.171 2.94654C418.333 2.95806 418.468 2.93502 418.583 2.87412C418.495 2.8593 418.414 2.83954 418.32 2.82967C418.164 2.81321 418.022 2.8412 417.914 2.90046C418.002 2.91692 418.09 2.93172 418.171 2.94654ZM408.278 2.5597C408.217 2.5811 408.156 2.6025 408.088 2.62225C408.271 2.66999 408.44 2.6848 408.568 2.65846C408.649 2.642 408.697 2.61731 408.758 2.59591C408.575 2.54817 408.413 2.53665 408.278 2.5597ZM341.189 1.05513C341.128 1.07653 341.067 1.09793 340.999 1.11768C341.182 1.16542 341.351 1.18023 341.479 1.15389C341.561 1.13743 341.608 1.11274 341.669 1.09134C341.486 1.0436 341.324 1.03208 341.189 1.05513ZM7.13649 14.4481C7.04857 14.4332 6.96074 14.4184 6.8796 14.402C6.68349 14.4464 6.62265 14.4876 6.73084 14.5189C6.79847 14.5386 6.89982 14.5501 6.98773 14.565C7.1906 14.5205 7.23792 14.481 7.13649 14.4481Z" fill="#FFE492"/>
<path d="M46.3577 8.63556C45.58 8.66683 44.8091 8.70633 44.0315 8.72608C43.619 8.73596 43.4703 8.80675 43.3012 8.87259C43.166 8.92527 43.0104 8.94173 42.7602 8.9516C40.6504 9.03226 38.5472 9.11787 36.4442 9.20182C36.1804 9.18042 36.0519 9.14586 36.1128 9.1047C36.1466 9.08001 36.2278 9.04544 36.3089 9.04215C37.7493 8.98124 39.1829 8.91868 40.63 8.87094C41.0425 8.85777 41.1575 8.78534 41.3671 8.72608C41.4348 8.70633 41.4889 8.6767 41.5768 8.66518C41.6647 8.65201 41.7932 8.65366 41.9082 8.65037C44.2344 8.55654 46.5607 8.46436 48.8869 8.37053C49.1507 8.39193 49.2791 8.4265 49.2183 8.46765C49.1845 8.49234 49.1033 8.52691 49.0221 8.5302C48.1295 8.56477 47.2435 8.59934 46.3577 8.63556Z" fill="#FFE492"/>
<path d="M472.153 17.4013C471.801 17.4211 471.355 17.449 470.99 17.3536C470.814 17.3075 470.624 17.2927 470.394 17.3025C470.063 17.319 469.725 17.3322 469.387 17.342C469.299 17.3437 469.184 17.3256 469.096 17.3108C468.907 17.2811 468.744 17.2318 468.542 17.2186C468.339 17.2054 468.095 17.2416 467.886 17.2334C467.608 17.2219 467.493 17.1774 467.568 17.1363C467.608 17.1132 467.69 17.0803 467.777 17.0754C469.028 17.0145 469.035 17.0145 469.387 17.0737C469.657 17.1198 469.908 17.1708 470.293 17.1429C470.618 17.1198 470.962 17.1149 471.294 17.1001C471.754 17.0803 471.754 17.0819 472.498 17.1857C472.687 17.212 472.89 17.2104 473.133 17.1955C473.343 17.184 473.546 17.2104 473.715 17.2548C473.607 17.3108 473.451 17.347 473.241 17.3569C472.903 17.3733 472.572 17.3848 472.153 17.4013Z" fill="#FFE492"/>
<path d="M459.702 16.8941C460.554 16.8596 461.413 16.83 462.265 16.7905C462.616 16.774 462.894 16.7921 463.137 16.8481C463.401 16.909 463.698 16.904 464.023 16.8925C464.226 16.8859 464.422 16.9122 464.557 16.9583C464.611 16.9764 464.598 17.0094 464.618 17.0357C463.874 17.0654 463.124 17.0966 462.373 17.123C462.285 17.1262 462.177 17.1098 462.096 17.0966C461.913 17.0686 461.757 17.0193 461.561 17.0094C461.142 16.9863 460.723 17.0308 460.297 17.039C460.094 17.0423 459.898 17.0176 459.763 16.9732C459.708 16.9518 459.722 16.9205 459.702 16.8941Z" fill="#FFE492"/>
<path d="M151.785 2.74102C152.671 2.7048 153.557 2.67025 154.443 2.63403C154.706 2.65708 154.828 2.69 154.774 2.73115C154.74 2.75584 154.659 2.79041 154.578 2.7937C152.806 2.86778 151.034 2.93855 149.269 3.00934C149.006 2.98629 148.884 2.95337 148.938 2.91222C148.972 2.88753 149.053 2.85296 149.134 2.84967C150.013 2.81181 150.899 2.77723 151.785 2.74102Z" fill="#FFE492"/>
<path d="M15.2777 11.8882C14.8787 11.8915 14.4595 11.9524 14.0132 11.9063C13.9253 11.8981 13.8036 11.8718 13.8103 11.8569C13.8239 11.8323 13.905 11.801 13.9929 11.7911C14.3784 11.7499 14.8585 11.745 15.0547 11.6298C15.1493 11.5705 15.3251 11.5508 15.5618 11.5393C15.812 11.5261 15.9878 11.531 16.1839 11.5656C16.4409 11.61 16.6573 11.6923 17.063 11.6495C17.0833 11.6759 17.1306 11.7055 17.1103 11.7302C17.09 11.7549 17.0022 11.7779 16.9211 11.796C16.8467 11.8125 16.7451 11.8273 16.6505 11.8322C16.2042 11.852 15.7578 11.8685 15.2777 11.8882Z" fill="#FFE492"/>
<path d="M366.973 11.5571C367.304 11.544 367.649 11.5374 367.973 11.5143C368.23 11.4962 368.393 11.5077 368.595 11.5472C368.94 11.6164 368.961 11.6098 369.806 11.6197C369.901 11.6213 370.016 11.646 370.07 11.6674C370.104 11.6789 370.056 11.7102 370.016 11.7267C369.955 11.7481 369.867 11.7761 369.786 11.7761C369.251 11.781 368.711 11.8781 368.19 11.7662C367.926 11.7102 367.635 11.6839 367.277 11.7086C367.06 11.7234 366.831 11.73 366.607 11.7366C366.391 11.7431 366.168 11.725 366.033 11.6756C365.837 11.6032 365.951 11.5752 366.303 11.5802C366.526 11.5835 366.749 11.5654 366.973 11.5571Z" fill="#FFE492"/>
<path d="M489.533 22.9047C489.959 22.8882 490.385 22.8685 490.817 22.8553C490.905 22.852 491.014 22.8701 491.095 22.8816C491.419 22.931 491.372 23.015 491.385 23.089C491.392 23.1664 490.642 23.229 490.324 23.1763C489.972 23.117 489.654 23.0495 489.167 23.0858C488.978 23.0989 488.755 23.0693 488.633 23.0216C488.451 22.9524 488.552 22.9244 488.897 22.9294C489.1 22.9327 489.316 22.9145 489.533 22.9047Z" fill="#FFE492"/>
<path d="M274.841 0.498513C275.281 0.480406 275.721 0.452435 276.16 0.450789C276.417 0.449143 276.546 0.503455 276.485 0.542962C276.451 0.567654 276.37 0.602223 276.289 0.605516C275.409 0.645023 274.53 0.677951 273.651 0.714166C273.394 0.69112 273.266 0.656557 273.327 0.61705C273.361 0.592358 273.442 0.559434 273.523 0.554496C273.962 0.53145 274.402 0.51662 274.841 0.498513Z" fill="#FFE492"/>
<path d="M481.101 17.546C481.527 17.5295 481.96 17.5048 482.386 17.4966C482.609 17.4933 482.785 17.5312 482.812 17.574C482.825 17.5937 482.717 17.6283 482.629 17.6365C482.021 17.6925 481.365 17.6991 480.729 17.7271C480.526 17.7353 480.31 17.709 480.188 17.6629C480.005 17.5921 480.107 17.5657 480.452 17.5707C480.668 17.5723 480.885 17.5542 481.101 17.546Z" fill="#FFE492"/>
<path d="M378.15 11.7794C378.366 11.7712 378.589 11.7498 378.799 11.7564C379.022 11.7646 379.164 11.8124 379.232 11.8601C379.306 11.9144 379.299 11.9655 379.232 12.0116C379.123 12.0906 379.015 12.0873 378.765 12.0346C378.379 11.9523 378.352 11.9622 377.588 11.9655C377.5 11.9655 377.392 11.9408 377.325 11.9194C377.223 11.8864 377.277 11.8354 377.514 11.8058C377.69 11.7844 377.933 11.7877 378.15 11.7794Z" fill="#FFE492"/>
<path d="M465.254 17.0058C465.572 16.9926 465.89 16.9712 466.208 16.9712C466.431 16.9696 466.607 17.0074 466.627 17.0486C466.634 17.0683 466.532 17.1013 466.451 17.1111C466.066 17.1556 465.633 17.1589 465.214 17.1737C465.018 17.1803 464.801 17.1539 464.679 17.1078C464.497 17.0387 464.605 17.0074 464.937 17.0173C465.038 17.0206 465.146 17.0107 465.254 17.0058Z" fill="#FFE492"/>
<path d="M415.236 14.9863C414.763 15.006 414.316 14.9814 414.35 14.9386C414.398 14.8826 414.594 14.8464 414.796 14.8365C415.121 14.82 415.446 14.8068 415.777 14.797C415.987 14.7904 416.176 14.8151 416.345 14.8579C416.244 14.9106 416.088 14.9484 415.885 14.9599C415.676 14.9715 415.452 14.978 415.236 14.9863Z" fill="#FFE492"/>
<path d="M412.134 14.7759C412.452 14.7627 412.769 14.7413 413.087 14.7413C413.31 14.7397 413.486 14.7775 413.507 14.8187C413.513 14.8384 413.412 14.8713 413.331 14.8812C412.945 14.9257 412.512 14.929 412.093 14.9438C411.897 14.9504 411.681 14.924 411.559 14.8779C411.376 14.8088 411.485 14.7775 411.816 14.7874C411.917 14.7907 412.026 14.7808 412.134 14.7759Z" fill="#FFE492"/>
<path d="M374.312 11.7665C374.63 11.7534 374.948 11.732 375.265 11.7303C375.489 11.7287 375.664 11.7665 375.685 11.8077C375.691 11.8275 375.59 11.8587 375.509 11.8703C375.124 11.9147 374.691 11.918 374.271 11.9328C374.075 11.9394 373.859 11.913 373.737 11.867C373.555 11.7978 373.663 11.7665 373.994 11.7764C374.095 11.7797 374.204 11.7698 374.312 11.7665Z" fill="#FFE492"/>
<path d="M372.53 11.6692C372.868 11.656 372.976 11.6478 373.085 11.6478C373.288 11.6478 373.497 11.6675 373.619 11.7153C373.802 11.7844 373.693 11.8042 373.362 11.8075C372.936 11.8107 372.517 11.8453 372.091 11.8519C371.867 11.8552 371.692 11.8157 371.678 11.7745C371.671 11.7548 371.773 11.7202 371.854 11.7136C372.138 11.6889 372.449 11.6741 372.53 11.6692Z" fill="#FFE492"/>
<path d="M409.381 1.98511C409.165 1.99334 408.935 2.01639 408.732 2.00816C408.462 1.99663 408.353 1.95219 408.421 1.91104C408.462 1.88799 408.536 1.85507 408.617 1.85013C409.05 1.82709 409.489 1.81226 409.922 1.7958C410.179 1.82049 410.294 1.85506 410.226 1.89621C410.186 1.91926 410.111 1.95053 410.03 1.95712C409.821 1.97358 409.598 1.97688 409.381 1.98511Z" fill="#FFE492"/>
<path d="M146.935 2.935C147.145 2.93336 147.334 2.95475 147.496 2.99591C147.395 3.04858 147.246 3.08315 147.043 3.09797C146.942 3.10455 146.827 3.10948 146.719 3.11113C146.509 3.11442 146.32 3.09138 146.157 3.05022C146.259 2.99755 146.414 2.96298 146.61 2.94816C146.712 2.94158 146.827 2.93994 146.935 2.935Z" fill="#FFE492"/>
<path d="M478.788 17.5396C478.782 17.4919 479.194 17.4376 479.566 17.4392C479.762 17.4409 479.965 17.4639 480.08 17.5084C480.256 17.5759 480.154 17.6022 479.823 17.5972C479.62 17.5939 479.404 17.6219 479.201 17.617C478.971 17.6153 478.836 17.5791 478.788 17.5396Z" fill="#FFE492"/>
<path d="M380.105 11.9789C380.098 11.9608 380.064 11.9394 380.085 11.923C380.213 11.8324 380.991 11.8044 381.194 11.8834C381.228 11.8983 381.241 11.9229 381.214 11.9378C381.174 11.9608 381.099 11.9904 381.018 11.997C380.808 12.0135 380.592 12.0217 380.376 12.0234C380.281 12.0234 380.193 11.9954 380.105 11.9789Z" fill="#FFE492"/>
<path d="M17.6842 11.6248C16.8863 11.6593 16.8728 11.656 17.0148 11.5737C17.1433 11.4997 17.38 11.4552 17.7248 11.4552C17.8263 11.4552 17.9344 11.4519 18.0224 11.4585C18.117 11.4668 18.2524 11.4832 18.2726 11.5029C18.3132 11.5408 18.1981 11.582 17.9953 11.61C17.9074 11.6231 17.7924 11.6198 17.6842 11.6248Z" fill="#FFE492"/>
<path d="M156.925 2.70319C156.688 2.73118 156.486 2.72131 156.337 2.66863C156.188 2.61595 156.425 2.55339 156.837 2.53858C156.946 2.53529 157.06 2.52213 157.162 2.52871C157.263 2.53365 157.365 2.55339 157.426 2.57314C157.534 2.60606 157.466 2.65052 157.25 2.68838C157.162 2.7032 157.033 2.6999 156.925 2.70319Z" fill="#FFE492"/>
<path d="M477.379 17.4162C477.44 17.3948 477.501 17.3734 477.569 17.3537C477.82 17.3816 477.928 17.4146 477.86 17.4524C477.819 17.4755 477.738 17.4952 477.677 17.5166C477.427 17.4886 477.325 17.4541 477.379 17.4162Z" fill="#FFE492"/>
<path d="M28.3972 30.3643C28.3972 30.3446 28.4921 30.3133 28.5666 30.3067C28.7088 30.2952 28.8849 30.3183 29.0068 30.3643C29.1762 30.4302 29.0747 30.4648 28.7631 30.4466C28.5463 30.4335 28.3972 30.4006 28.3972 30.3643Z" fill="#FFE492"/>
<path d="M382.86 10.4465C382.948 10.4613 383.037 10.4761 383.118 10.4926C383.003 10.5535 382.86 10.5798 382.711 10.5633C382.616 10.5535 382.535 10.5337 382.447 10.5189C382.562 10.458 382.698 10.4349 382.86 10.4465Z" fill="#FFE492"/>
<path d="M380.521 10.3724C380.656 10.3477 380.819 10.3609 381.008 10.4086C380.947 10.43 380.893 10.4547 380.819 10.4712C380.69 10.4975 380.521 10.4843 380.338 10.4349C380.392 10.4152 380.453 10.3938 380.521 10.3724Z" fill="#FFE492"/>
<path d="M378.727 10.4447C378.815 10.4595 378.904 10.4744 378.985 10.4908C378.87 10.5517 378.734 10.5781 378.578 10.5616C378.483 10.5517 378.402 10.532 378.314 10.5171C378.429 10.4562 378.565 10.4316 378.727 10.4447Z" fill="#FFE492"/>
<path d="M377.406 10.3577C377.508 10.3906 377.454 10.4301 377.257 10.4745C377.169 10.4597 377.068 10.4482 377 10.4285C376.892 10.3972 376.946 10.356 377.149 10.3116C377.23 10.328 377.318 10.3429 377.406 10.3577Z" fill="#FFE492"/>
</svg>
