<svg width="336" height="31" viewBox="0 0 336 31" fill="none" xmlns="http://www.w3.org/2000/svg">
<path d="M313.769 16.3897C313.313 16.4149 312.852 16.4323 312.405 16.47C312.114 16.4937 311.99 16.4244 311.796 16.3882C311.731 16.3756 311.662 16.3504 311.602 16.3535C311.15 16.3787 310.699 16.4071 310.247 16.4354C310.108 16.4968 310.021 16.5787 309.809 16.6086C309.601 16.637 309.357 16.637 309.126 16.6512C308.822 16.6685 308.518 16.6858 308.213 16.7016C308.061 16.7094 307.937 16.7394 307.886 16.7961C307.877 16.8055 307.978 16.8291 308.034 16.8433C308.218 16.8905 308.398 16.9441 308.601 16.9803C308.794 17.0149 309.034 16.9583 309.242 17.0023C309.707 17.1016 309.712 17.1 310.067 17.0811C310.371 17.0638 310.676 17.0449 310.98 17.0323C311.04 17.0291 311.109 17.0527 311.173 17.0653C311.367 17.1 311.492 17.1787 311.778 17.1488C311.994 17.1252 312.234 17.1205 312.46 17.1079C312.649 17.1535 312.824 17.2055 313.027 17.2417C313.216 17.2764 313.271 17.3032 313.17 17.3488C313.078 17.3914 312.949 17.4087 312.778 17.4118C312.626 17.4134 312.474 17.4276 312.322 17.4354C312.243 17.4402 312.169 17.4433 312.096 17.448C311.805 17.4654 311.805 17.4654 311.275 17.3646C311.067 17.3252 310.832 17.3803 310.634 17.3425C310.5 17.3173 310.385 17.2795 310.256 17.2528C310.201 17.2417 310.113 17.2402 310.044 17.2433C309.813 17.2543 309.583 17.2622 309.361 17.2827C309.205 17.2969 309.112 17.341 309.131 17.385C309.136 17.4024 309.246 17.4276 309.311 17.4291C309.458 17.4323 309.615 17.4102 309.758 17.4213C309.896 17.4323 310.039 17.4638 310.141 17.4984C310.348 17.5709 310.583 17.5063 310.782 17.5252C310.989 17.5457 311.16 17.6087 311.358 17.6465C311.409 17.6559 311.505 17.6402 311.584 17.6354C311.81 17.6244 312.036 17.615 312.262 17.604C312.451 17.6496 312.654 17.6906 312.824 17.7425C313.133 17.837 313.465 17.8732 313.866 17.8276C314.092 17.8024 314.313 17.8118 314.493 17.8733C314.678 17.9362 314.89 17.93 315.125 17.9174C315.342 17.9048 315.563 17.8701 315.784 17.9142C316.264 18.0118 316.268 18.0166 316.836 17.9788C317.006 17.9678 317.135 17.9646 317.264 18.0008C317.384 18.0339 317.513 18.0622 317.638 18.0937C317.864 18.0827 318.094 18.0717 318.32 18.0591C318.611 18.0418 318.772 18.0638 318.841 18.152C318.883 18.2056 318.901 18.2544 319.003 18.2906C319.122 18.3347 319.252 18.3331 319.427 18.3205C319.593 18.3095 319.713 18.2922 319.782 18.2355C319.809 18.2119 319.865 18.1898 319.916 18.1709C319.957 18.1567 320.022 18.1347 320.059 18.1378C320.128 18.1441 320.22 18.1614 320.243 18.1819C320.469 18.3725 320.469 18.3741 320.699 18.4292C320.953 18.4906 321.216 18.5457 321.446 18.615C321.654 18.6764 321.861 18.6497 322.087 18.6497C322.258 18.6497 322.368 18.6906 322.355 18.7316C322.345 18.7552 322.281 18.7898 322.226 18.793C321.774 18.8245 321.317 18.8512 320.861 18.8733C320.805 18.8764 320.736 18.8481 320.672 18.8339C320.543 18.8056 320.427 18.7615 320.289 18.752C320.151 18.7426 319.989 18.7662 319.837 18.7741C319.685 18.7819 319.524 18.8024 319.385 18.7898C319.247 18.7772 319.136 18.7316 319.007 18.7016C318.947 18.6875 318.864 18.667 318.814 18.6717C318.477 18.7095 318.228 18.6575 317.988 18.5882C317.938 18.5741 317.85 18.5646 317.785 18.5678C317.251 18.5945 316.72 18.626 316.185 18.656C315.969 18.6686 315.793 18.6134 315.747 18.5205C315.724 18.4685 315.678 18.4166 315.678 18.3646C315.678 18.2701 315.425 18.2181 315.24 18.2292C314.936 18.2449 314.627 18.2575 314.327 18.2811C314.083 18.3 313.875 18.2811 313.709 18.2244C313.516 18.1599 313.294 18.1725 313.073 18.1898C312.907 18.2024 312.861 18.2544 312.87 18.3851C312.879 18.4906 312.801 18.5237 312.501 18.541C312.123 18.563 311.741 18.5851 311.358 18.6024C311.298 18.6056 311.229 18.5788 311.169 18.5646C311.04 18.5363 310.924 18.4906 310.786 18.4811C310.648 18.4701 310.486 18.4937 310.334 18.5032C310.182 18.5111 310.021 18.5331 309.882 18.5221C309.744 18.5111 309.629 18.4638 309.504 18.4339C309.444 18.4197 309.371 18.3993 309.311 18.4024C309.006 18.415 308.702 18.4339 308.398 18.4512C308.057 18.4701 308.057 18.4701 307.572 18.3725C307.351 18.3284 307.13 18.363 306.913 18.3756C306.683 18.3882 306.466 18.3945 306.286 18.3315C306.166 18.2906 306.032 18.2654 305.89 18.2733C305.507 18.2922 305.129 18.3158 304.746 18.3347C304.681 18.3378 304.594 18.33 304.543 18.3158C304.299 18.2497 304.059 18.1977 303.718 18.2307C303.423 18.2591 303.105 18.2607 302.81 18.2874C302.648 18.3016 302.574 18.352 302.607 18.3914C302.625 18.4119 302.722 18.4355 302.786 18.4355C302.934 18.4371 303.095 18.4134 303.234 18.4229C303.52 18.4418 303.663 18.5741 304.036 18.5378C304.257 18.5158 304.488 18.5079 304.718 18.5016C304.778 18.5 304.843 18.53 304.907 18.5457C305.092 18.5882 305.253 18.6434 305.521 18.615C305.742 18.593 305.977 18.5867 306.203 18.5741C306.563 18.5536 306.563 18.5552 307.028 18.6512C307.25 18.6969 307.471 18.6607 307.688 18.6497C307.849 18.6418 308.001 18.626 308.13 18.6481C308.329 18.6812 308.472 18.7567 308.716 18.752C308.946 18.7473 309.172 18.7252 309.403 18.7174C309.546 18.7127 309.68 18.7379 309.795 18.7804C309.915 18.8229 310.044 18.8418 310.201 18.8323C310.426 18.8197 310.657 18.804 310.888 18.7961C310.952 18.7945 311.026 18.8087 311.086 18.8213C311.215 18.8497 311.339 18.8827 311.464 18.9127C311.69 18.9032 311.92 18.9001 312.142 18.8812C312.312 18.867 312.432 18.8733 312.571 18.9048C312.746 18.9473 312.889 19.0229 313.175 18.9867C313.318 18.9694 313.484 18.9741 313.626 18.9583C313.802 18.9379 313.922 18.9457 314.046 18.993C314.281 19.0827 314.576 19.0843 314.881 19.0497C315.213 19.0119 315.462 19.056 315.711 19.1253C315.973 19.1977 315.973 19.1961 316.176 19.3709C316.236 19.4213 316.407 19.445 316.55 19.4355C316.789 19.4198 316.997 19.4276 317.172 19.4875C317.357 19.5521 317.578 19.5442 317.804 19.5269C318.103 19.5032 318.403 19.4828 318.648 19.5741C318.767 19.6182 318.897 19.6292 319.058 19.6182C319.514 19.5898 319.976 19.5725 320.423 19.5379C320.695 19.5158 320.852 19.5662 321.036 19.6087C321.285 19.667 321.557 19.719 321.557 19.8434C321.557 19.8639 321.622 19.8875 321.677 19.9032C321.797 19.9363 321.926 19.9647 322.05 19.9962C322.235 20.0434 322.415 20.0828 322.668 20.0576C322.889 20.0371 323.125 20.0308 323.351 20.0166C323.577 20.0025 323.784 19.9946 323.987 20.0544C324.222 20.1221 324.471 20.1867 324.738 20.2371C324.927 20.2733 325.177 20.2119 325.379 20.2607C325.504 20.2907 325.624 20.3253 325.757 20.3505C325.813 20.3615 325.9 20.3537 325.974 20.3505C326.126 20.3442 326.283 20.3395 326.431 20.3237C326.601 20.3064 326.73 20.3096 326.859 20.3458C326.979 20.3789 327.099 20.4245 327.238 20.434C327.445 20.4481 327.676 20.3852 327.883 20.4576C327.989 20.4938 328.123 20.5285 328.261 20.5395C328.399 20.5505 328.561 20.5269 328.708 20.5285C328.773 20.5285 328.851 20.5537 328.888 20.5741C328.911 20.5852 328.879 20.6151 328.847 20.6308C328.805 20.6497 328.745 20.6749 328.685 20.6781C328.229 20.7064 327.772 20.7301 327.316 20.7568C327.044 20.7726 327.044 20.7726 326.495 20.6734C326.366 20.6497 326.223 20.6544 326.062 20.6655C325.845 20.6796 325.624 20.7064 325.398 20.6781C325.103 20.571 324.738 20.5615 324.351 20.6025C324.19 20.6198 324.042 20.6198 323.922 20.5899C323.669 20.53 323.401 20.4749 323.175 20.4041C323 20.3489 322.917 20.3442 322.843 20.4198C322.82 20.4434 322.797 20.4686 322.802 20.4907C322.83 20.5694 322.88 20.6466 322.908 20.7253C322.917 20.7474 322.88 20.7726 322.857 20.7962C322.784 20.8623 322.687 20.8576 322.525 20.8025C322.364 20.7474 322.17 20.7112 321.912 20.7364C321.691 20.7584 321.451 20.7553 321.23 20.7789C320.888 20.8135 320.649 20.7631 320.404 20.6954C320.354 20.6812 320.266 20.6734 320.201 20.6765C319.514 20.7127 318.832 20.7537 318.145 20.7899C317.998 20.7978 317.864 20.7741 317.748 20.7316C317.629 20.6891 317.495 20.6671 317.347 20.6749C316.739 20.708 316.13 20.7379 315.521 20.7789C315.272 20.7962 315.074 20.7757 314.904 20.7206C314.775 20.6796 314.655 20.6671 314.493 20.6718C314.318 20.6765 314.194 20.6923 314.106 20.7379C314.023 20.782 314.083 20.8088 314.267 20.8434C314.466 20.8812 314.65 20.9301 314.839 20.9742C314.991 20.9679 315.143 20.9552 315.291 20.9568C315.355 20.9568 315.415 20.9852 315.48 21.0009C315.664 21.0466 315.835 21.0923 316.098 21.0671C316.319 21.045 316.554 21.0403 316.78 21.0261C317.094 21.0088 317.094 21.0088 317.601 21.108C317.73 21.1332 317.868 21.1316 318.034 21.1175C318.177 21.1064 318.325 21.1285 318.426 21.1757C318.468 21.1946 318.454 21.2261 318.366 21.3301C318.366 21.4072 318.463 21.3726 318.495 21.3222C318.546 21.2498 318.449 21.2261 318.265 21.2655C318.136 21.2939 318.071 21.3348 318.104 21.3679C318.122 21.3852 318.21 21.4072 318.366 21.3301C318.772 21.2356 319.081 21.2246 319.376 21.1994C319.551 21.1852 319.662 21.1915 319.8 21.2324C319.966 21.2812 320.132 21.3332 320.404 21.308C320.699 21.2797 321.013 21.2765 321.313 21.2529C321.589 21.2308 321.732 21.3001 321.907 21.3411C322.12 21.3899 322.355 21.3348 322.548 21.3631C322.751 21.3915 322.894 21.4608 323.129 21.4734C323.47 21.4309 323.687 21.5096 323.945 21.5616C324.148 21.601 324.388 21.5663 324.605 21.549C324.849 21.5301 325.052 21.5474 325.223 21.6041C325.416 21.6687 325.633 21.6545 325.854 21.6403C326.371 21.6088 326.389 21.6041 326.689 21.6907C326.905 21.7537 327.113 21.7254 327.33 21.7175C327.519 21.76 327.703 21.8057 327.901 21.8435C327.952 21.8529 328.049 21.8372 328.127 21.8324C328.353 21.8199 328.584 21.8073 328.81 21.7947C328.962 21.7868 329.123 21.7632 329.262 21.7726C329.4 21.7836 329.515 21.8293 329.64 21.8592C329.764 21.8892 329.893 21.9191 330.013 21.9506C330.198 21.9978 330.373 22.0372 330.631 22.0136C330.852 21.9931 331.083 21.9868 331.313 21.9726C331.604 21.9553 331.595 21.96 332.134 22.0545C332.425 22.1065 332.724 22.0435 333.019 22.0372C333.167 22.034 333.31 22.0514 333.411 22.097C333.453 22.1159 333.439 22.1474 333.453 22.1742C332.692 22.2167 331.927 22.2529 331.175 22.3049C330.885 22.3254 330.733 22.2687 330.576 22.2214C330.318 22.1458 329.976 22.2561 329.732 22.1584C329.584 22.1002 329.372 22.0671 329.119 22.0955C328.971 22.1112 328.814 22.1096 328.662 22.1238C328.275 22.1584 327.92 22.16 327.611 22.0514C327.505 22.0136 327.353 21.9931 327.242 21.9569C327.113 21.9175 326.989 21.8954 326.836 21.9033C326.149 21.9411 325.467 21.9789 324.785 22.0198C324.725 22.023 324.665 22.0466 324.614 22.0639C324.485 22.108 324.526 22.1427 324.734 22.171C324.803 22.1805 324.858 22.201 324.923 22.2167C325.047 22.2466 325.163 22.2939 325.301 22.3049C325.439 22.3159 325.601 22.2939 325.753 22.286C325.905 22.2781 326.066 22.2545 326.205 22.264C326.343 22.275 326.458 22.3207 326.587 22.349C326.647 22.3632 326.721 22.3868 326.781 22.3852C327.085 22.3758 327.385 22.3585 327.689 22.3443C327.878 22.3868 328.04 22.4482 328.266 22.4624C328.409 22.4718 328.561 22.4545 328.708 22.4577C328.773 22.4592 328.856 22.4829 328.888 22.5033C328.907 22.5159 328.847 22.5474 328.801 22.5632C328.625 22.623 328.386 22.612 328.169 22.6309C327.934 22.6514 327.722 22.6451 327.542 22.5837C327.422 22.5427 327.288 22.5207 327.141 22.5285C326.758 22.549 326.38 22.5726 325.997 22.59C325.933 22.5931 325.854 22.5789 325.794 22.5679C325.31 22.4718 325.31 22.4687 324.969 22.4892C324.466 22.5191 324.466 22.5191 324.13 22.4356C324.065 22.4199 323.996 22.39 323.941 22.3915C323.406 22.4167 322.876 22.4419 322.345 22.4781C322.17 22.4892 322.05 22.4892 321.921 22.4482C321.811 22.4136 321.681 22.3742 321.543 22.3648C321.4 22.3553 321.243 22.3789 321.091 22.3868C320.939 22.3947 320.778 22.4151 320.644 22.4025C320.506 22.3899 320.386 22.3459 320.266 22.3144C320.141 22.2813 320.008 22.2829 319.837 22.2954C319.312 22.3317 319.307 22.327 318.786 22.2293C318.726 22.2183 318.648 22.2057 318.583 22.2088C318.2 22.2277 317.822 22.2514 317.44 22.2703C317.292 22.2781 317.149 22.2577 317.048 22.212C317.006 22.1931 317.02 22.1616 316.992 22.1002C316.96 22.086 316.997 22.1112 317.006 22.1348C317.075 22.1317 317.158 22.1348 317.209 22.1222C317.338 22.0923 317.403 22.0529 317.37 22.0198C317.352 22.0025 317.264 21.9805 317.209 21.9805C317.108 21.9805 317.02 22.0151 316.992 22.1002C316.702 22.1521 316.393 22.1632 316.093 22.1884C315.918 22.2041 315.807 22.1962 315.669 22.1553C315.503 22.1049 315.332 22.0561 315.06 22.0813C314.765 22.1096 314.452 22.1144 314.147 22.1364C313.797 22.1616 313.645 22.0199 313.35 22.023C313.045 22.0262 312.741 22.0529 312.437 22.0718C312.169 22.0876 312.169 22.0876 311.616 21.9852C311.413 21.9474 311.174 22.0025 310.975 21.9632C310.842 21.938 310.726 21.9002 310.597 21.8734C310.542 21.8624 310.454 21.8624 310.385 21.8655C310.002 21.8844 309.615 21.897 309.246 21.9317C308.827 21.9726 308.508 21.9285 308.209 21.8356C307.831 21.8529 307.448 21.8624 307.075 21.8923C306.802 21.9143 306.646 21.8624 306.461 21.8199C306.397 21.8057 306.341 21.7821 306.272 21.7758C306.203 21.7695 306.12 21.782 306.046 21.7868C305.742 21.8041 305.428 21.812 305.133 21.8403C304.769 21.8766 304.631 21.7474 304.349 21.7317C304.16 21.8088 304.059 21.9143 303.686 21.9222C303.381 21.9285 303.077 21.9537 302.773 21.971C302.62 21.9789 302.468 21.9884 302.316 21.9962C302.072 22.0104 301.957 22.0718 302.007 22.1663C302.035 22.2183 302.058 22.2703 302.081 22.3222C302.127 22.4151 302.012 22.4939 301.818 22.5049C301.283 22.5348 300.753 22.5663 300.218 22.5931C300.075 22.601 299.937 22.5742 299.822 22.5317C299.702 22.4892 299.568 22.4703 299.421 22.4781C298.886 22.5081 298.355 22.5396 297.821 22.5663C297.761 22.5695 297.682 22.5537 297.622 22.5411C297.493 22.5128 297.369 22.4797 297.244 22.4498C296.94 22.464 296.64 22.4734 296.341 22.4923C295.856 22.5207 295.856 22.5222 295.501 22.4356C295.437 22.4199 295.372 22.39 295.312 22.3915C295.082 22.3978 294.856 22.4136 294.625 22.4278C293.948 22.4687 293.948 22.4687 293.749 22.4214C293.569 22.3773 293.408 22.3238 293.136 22.349C292.841 22.3774 292.527 22.3868 292.223 22.4025C291.997 22.4136 291.771 22.4262 291.545 22.4293C291.485 22.4309 291.421 22.401 291.356 22.3852C291.172 22.3364 290.992 22.297 290.738 22.3238C290.591 22.3396 290.434 22.3427 290.282 22.3506C289.885 22.3726 289.885 22.3726 289.235 22.2781C289.171 22.2687 289.092 22.2577 289.028 22.2624C288.493 22.2907 287.963 22.3222 287.428 22.349C287.363 22.3522 287.285 22.3427 287.22 22.3348C286.492 22.2435 286.492 22.2435 285.717 22.2876C285.422 22.3033 285.413 22.3096 285.104 22.2262C284.966 22.1899 284.85 22.1726 284.689 22.1836C284.08 22.2214 283.467 22.2466 282.863 22.2907C282.591 22.3096 282.434 22.2624 282.25 22.2199C282.185 22.2057 282.116 22.1742 282.061 22.1758C281.452 22.2057 280.844 22.2419 280.235 22.2718C280.18 22.275 280.111 22.2435 280.046 22.2293C279.921 22.201 279.802 22.1584 279.663 22.149C279.52 22.1395 279.364 22.1632 279.207 22.171C278.824 22.1915 278.824 22.19 278.381 22.097C278.321 22.0844 278.243 22.0671 278.183 22.0703C277.575 22.1018 276.961 22.1285 276.357 22.1742C276.012 22.1994 275.776 22.1537 275.532 22.0876C275.481 22.0734 275.394 22.0671 275.329 22.0703C274.642 22.1065 273.96 22.1474 273.273 22.1836C273.13 22.1915 272.991 22.1647 272.876 22.1238C272.692 22.0592 272.475 22.0671 272.245 22.0813C271.714 22.1143 271.71 22.1128 271.396 22.0372C271.332 22.0214 271.276 22.001 271.207 21.9931C271.143 21.9852 271.06 21.9899 270.99 21.9931C270.686 22.0088 270.382 22.0262 270.077 22.0435C269.773 22.0608 269.464 22.0703 269.164 22.097C268.796 22.1301 268.62 22.0277 268.362 21.9805C267.984 22.0009 267.597 22.0136 267.223 22.0466C266.937 22.0718 266.804 22.0025 266.615 21.9663C266.55 21.9537 266.481 21.9269 266.421 21.9301C265.734 21.9647 265.047 22.0025 264.365 22.0451C264.199 22.0545 264.088 22.0419 263.95 22.0041C263.641 21.9191 263.627 21.9222 263.111 21.9537C262.885 21.9679 262.668 21.9805 262.474 21.9159C262.304 21.8577 262.096 21.8435 261.852 21.8624C261.552 21.886 261.243 21.8986 260.939 21.9143C260.635 21.9317 260.33 21.9553 260.026 21.9632C259.782 21.971 259.634 21.897 259.44 21.8592C259.38 21.8482 259.297 21.8466 259.228 21.8498C258.924 21.8639 258.61 21.875 258.315 21.9017C257.956 21.9348 257.757 21.8482 257.504 21.7978C257.448 21.7868 257.356 21.7931 257.287 21.7978C256.752 21.8262 256.222 21.8576 255.687 21.8876C255.498 21.845 255.304 21.8041 255.115 21.7616C254.811 21.7773 254.507 21.7947 254.202 21.8104C253.972 21.823 253.737 21.8277 253.52 21.8513C253.239 21.8828 253.1 21.8088 252.911 21.7726C252.847 21.76 252.778 21.7332 252.718 21.7364C252.335 21.7537 251.952 21.7726 251.574 21.7994C251.215 21.8262 251.072 21.6844 250.777 21.686C250.472 21.6876 250.159 21.708 249.864 21.7364C249.522 21.7695 249.283 21.7191 249.038 21.6513C248.988 21.6372 248.9 21.6293 248.835 21.6324C248.453 21.6513 248.075 21.675 247.692 21.6939C247.627 21.697 247.549 21.6891 247.485 21.6797C246.756 21.5868 246.756 21.5852 246.438 21.6041C246.212 21.6167 245.981 21.6324 245.751 21.6403C245.686 21.6435 245.608 21.6293 245.548 21.6167C245.068 21.5206 245.068 21.5191 244.723 21.538C244.418 21.5553 244.114 21.5726 243.81 21.5899C243.621 21.5474 243.427 21.5065 243.238 21.4639C242.86 21.4844 242.473 21.5001 242.099 21.5285C241.924 21.5411 241.809 21.5364 241.675 21.497C241.509 21.4498 241.343 21.3946 241.066 21.4214C240.771 21.4498 240.458 21.4529 240.158 21.4765C239.798 21.5049 239.651 21.3616 239.36 21.3631C239.056 21.3647 238.742 21.3852 238.447 21.4135C238.106 21.4466 237.866 21.3962 237.622 21.3285C237.571 21.3143 237.484 21.3065 237.419 21.3096C236.58 21.3553 235.745 21.4009 234.906 21.4498C234.39 21.4797 234.39 21.4813 233.408 21.3946C233.339 21.3883 233.265 21.382 233.196 21.3852C232.891 21.3994 232.578 21.4104 232.283 21.4372C231.923 21.4702 231.725 21.3852 231.471 21.3332C231.416 21.3222 231.328 21.3285 231.254 21.3316C231.024 21.3427 230.798 21.3569 230.567 21.3694C230.263 21.3868 229.959 21.4041 229.654 21.4214C229.465 21.3805 229.272 21.3379 229.083 21.297C228.705 21.3175 228.317 21.3285 227.944 21.3616C227.658 21.3868 227.524 21.3206 227.335 21.2828C227.271 21.2702 227.202 21.2435 227.142 21.245C226.455 21.2797 225.768 21.3159 225.085 21.36C224.804 21.3789 224.675 21.308 224.486 21.2718C224.421 21.2608 224.348 21.2403 224.288 21.2435C223.831 21.2655 223.375 21.2923 222.918 21.319C222.66 21.3348 222.66 21.3348 222.097 21.2371C222.033 21.2261 221.959 21.2151 221.895 21.2183C220.447 21.297 219.004 21.3805 217.556 21.4592C217.408 21.4671 217.275 21.4435 217.159 21.4009C217.039 21.3584 216.906 21.3364 216.758 21.3442C216.149 21.3773 215.536 21.4072 214.932 21.4482C214.683 21.4655 214.485 21.445 214.314 21.3899C214.185 21.349 214.065 21.3332 213.904 21.3427C213.6 21.3616 213.295 21.3773 212.991 21.3946C212.687 21.412 212.382 21.4293 212.078 21.4466C211.774 21.4639 211.465 21.4734 211.165 21.5002C210.796 21.5332 210.617 21.4356 210.363 21.3868C209.906 21.4104 209.45 21.434 208.998 21.4592C208.389 21.4923 207.781 21.5285 207.172 21.56C207.117 21.5632 207.048 21.5348 206.983 21.5206C206.794 21.4813 206.656 21.4261 206.375 21.4435C205.01 21.5269 203.636 21.5978 202.266 21.6797C201.98 21.697 201.856 21.6293 201.662 21.5931C201.598 21.582 201.524 21.56 201.464 21.5632C200.703 21.6025 199.943 21.6466 199.182 21.6891C198.873 21.7065 198.873 21.7065 198.356 21.6088C198.296 21.5978 198.218 21.5836 198.153 21.5868C197.162 21.6403 196.175 21.697 195.184 21.7521C195.037 21.76 194.903 21.738 194.783 21.6954C194.668 21.6529 194.529 21.6293 194.386 21.6372C193.474 21.6876 192.556 21.7364 191.648 21.7915C191.403 21.8073 191.2 21.7931 191.025 21.7364C190.901 21.6954 190.776 21.6781 190.619 21.6876C189.25 21.7647 187.881 21.8388 186.511 21.9207C186.248 21.9364 186.064 21.9065 185.898 21.8545C185.764 21.8136 185.649 21.8057 185.483 21.812C185.308 21.8198 185.202 21.8372 185.105 21.8844C184.98 21.9458 184.902 22.023 184.607 22.0277C184.303 22.0325 183.994 22.0514 183.694 22.0781C183.408 22.1049 183.274 22.034 183.095 21.9915C182.961 21.9616 182.836 21.9569 182.666 21.971C182.509 21.9836 182.412 22.0104 182.32 22.0608C182.117 22.1679 182.099 22.1679 181.85 22.1002C181.716 22.0639 181.596 22.0356 181.449 22.0419C180.84 22.0734 180.231 22.108 179.623 22.1443C179.272 22.1647 179.268 22.1679 179.005 22.0892C178.876 22.0498 178.751 22.0309 178.599 22.0403C176.925 22.1348 175.252 22.2262 173.578 22.3254C173.32 22.3411 173.145 22.3081 172.96 22.2608C172.9 22.2451 172.84 22.223 172.771 22.2167C172.702 22.2104 172.624 22.2167 172.55 22.2199C171.333 22.2876 170.111 22.3522 168.898 22.4278C168.621 22.4451 168.474 22.3947 168.285 22.3537C168.22 22.3396 168.165 22.3175 168.096 22.3112C168.027 22.3065 167.944 22.3175 167.87 22.3222C166.652 22.3899 165.431 22.4545 164.218 22.5301C163.928 22.5474 163.803 22.4813 163.614 22.4466C163.549 22.434 163.48 22.4104 163.42 22.4136C163.038 22.4309 162.66 22.4545 162.277 22.475C161.364 22.527 160.451 22.5758 159.538 22.6293C159.188 22.6498 159.035 22.5096 158.74 22.5159C158.358 22.5238 157.98 22.5553 157.597 22.5774C157.293 22.5947 156.988 22.6104 156.684 22.6293C156.384 22.6467 156.384 22.6466 155.637 22.5553C155.573 22.5474 155.494 22.5364 155.43 22.5396C154.365 22.5978 153.295 22.6561 152.235 22.7191C151.99 22.7333 151.787 22.7254 151.612 22.6671C151.488 22.6262 151.359 22.6057 151.206 22.6152C149.606 22.7049 148.011 22.7947 146.411 22.8829C146.351 22.886 146.273 22.8703 146.213 22.8577C146.084 22.8293 145.959 22.7963 145.835 22.7663C145.742 22.8026 145.623 22.8356 145.563 22.8766C145.48 22.9317 145.369 22.9475 145.194 22.9569C145.019 22.9664 144.908 22.9632 144.77 22.9223C144.604 22.8719 144.433 22.8325 144.161 22.8482C142.487 22.9474 140.814 23.0372 139.14 23.1349C138.863 23.1506 138.734 23.0813 138.541 23.0451C138.476 23.0341 138.402 23.0168 138.342 23.0199C137.655 23.0561 136.973 23.0955 136.286 23.1333C134.382 23.2404 132.477 23.3427 130.578 23.4561C130.232 23.4766 129.997 23.4372 129.752 23.3695C129.702 23.3553 129.614 23.3475 129.549 23.3506C126.884 23.4987 124.219 23.6483 121.559 23.7979C121.416 23.8057 121.278 23.7805 121.162 23.7396C121.042 23.6971 120.909 23.6766 120.761 23.6845C119.544 23.7522 118.327 23.8199 117.11 23.8892C116.805 23.9065 116.801 23.9081 116.487 23.8325C116.422 23.8168 116.353 23.7869 116.303 23.79C116.197 23.7979 116.095 23.8372 116.021 23.8908C115.948 23.9475 115.832 23.9632 115.662 23.9743C115.486 23.9853 115.371 23.9806 115.238 23.9428C115.067 23.8955 114.91 23.8498 114.633 23.8656C111.134 24.0672 107.634 24.2609 104.135 24.4609C103.853 24.4766 103.724 24.4105 103.531 24.3743C103.466 24.3633 103.402 24.3475 103.332 24.3443C103.259 24.3412 103.18 24.3507 103.106 24.3554C97.3983 24.6751 91.6902 24.9963 85.982 25.316C85.6408 25.3349 85.6454 25.3349 85.2719 25.4798C85.2258 25.4972 85.1658 25.5208 85.1012 25.5239C83.3538 25.6247 81.6017 25.7223 79.8496 25.82C79.0888 25.8625 78.3281 25.9066 77.5673 25.9476C77.2952 25.9617 77.2952 25.9617 76.6451 26.1318C76.5898 26.146 76.5252 26.1649 76.4606 26.168C73.4175 26.3397 70.3743 26.5114 67.3266 26.6799C67.0868 26.6925 66.8932 26.7208 66.7825 26.7964C66.7042 26.85 66.6027 26.8814 66.4506 26.8909C64.3204 27.0106 62.1903 27.1319 60.0555 27.2484C59.8019 27.2626 59.6496 27.3067 59.5252 27.3728C59.4837 27.3949 59.4467 27.42 59.3868 27.4358C59.3315 27.45 59.2485 27.4547 59.1793 27.4594C57.3535 27.5618 55.5276 27.6673 53.6971 27.7649C53.4251 27.7791 53.3144 27.8374 53.1807 27.8988C53.1346 27.9193 53.1023 27.9476 53.0423 27.9618C52.9824 27.9744 52.8948 27.9744 52.821 27.9776C51.2995 28.0626 49.7779 28.1492 48.2564 28.2343C47.9613 28.2264 47.8967 28.3177 47.7538 28.3728C47.703 28.3917 47.6662 28.4169 47.6063 28.4295C47.5417 28.4421 47.4586 28.4406 47.3803 28.4437C46.163 28.5114 44.9458 28.5839 43.7239 28.6469C43.4427 28.661 43.3873 28.7414 43.2352 28.7965C43.1844 28.8138 43.1338 28.8406 43.0738 28.8453C42.3131 28.891 41.5523 28.9335 40.7915 28.9744C40.5379 28.9886 40.5379 28.987 40.0907 29.143C40.04 29.1603 39.9799 29.1792 39.9154 29.1839C38.7765 29.25 37.6331 29.313 36.4896 29.3776C36.3421 29.3855 36.2406 29.4233 36.1669 29.4768C36.0931 29.5304 35.9871 29.565 35.8395 29.5729C34.9266 29.6249 34.0136 29.6784 33.1006 29.7256C32.847 29.7382 32.6811 29.7776 32.5704 29.8485C32.4874 29.902 32.386 29.9288 32.2246 29.9382C31.3117 29.9886 30.3988 30.0438 29.4812 30.0879C29.2138 30.1005 29.0754 30.154 28.9647 30.2201C28.8771 30.2737 28.7757 30.2926 28.6051 30.302C26.9314 30.3934 25.2531 30.4847 23.584 30.5855C23.3027 30.6028 23.1598 30.5477 22.9753 30.5083C22.7125 30.4532 22.4682 30.3934 22.4682 30.2705C22.4682 30.2516 22.3898 30.2296 22.3345 30.2138C21.9241 30.0957 21.9241 30.0957 21.8595 29.9698C21.8227 29.8926 21.7812 29.8138 21.7489 29.7351C21.6889 29.606 21.5413 29.5729 21.1172 29.5965C20.965 29.6044 20.8128 29.6154 20.6607 29.6217C20.4348 29.6327 20.2642 29.5808 20.2227 29.4863C20.1996 29.4343 20.172 29.3823 20.149 29.3304C20.3795 29.3178 20.3748 29.3162 20.7806 29.1256C20.9512 29.0453 20.9512 29.0453 20.6239 28.965C20.4994 28.9351 20.3795 28.902 20.2458 28.8736C20.1858 28.861 20.1075 28.8532 20.0429 28.8563C19.6602 28.8752 19.2821 28.8973 18.9041 28.9193C18.2954 28.954 18.2954 28.954 17.6775 28.7933C17.6268 28.7807 17.5484 28.7571 17.5576 28.7445C17.6083 28.6862 17.7328 28.661 17.8896 28.6547C18.1201 28.6453 18.3461 28.6295 18.572 28.6169C18.7241 28.6091 18.8763 28.5996 19.0284 28.5918C19.1714 28.5319 19.319 28.4736 19.4527 28.4122C19.6648 28.3177 19.6647 28.3146 19.3743 28.2484C19.1898 28.2043 18.9916 28.1649 18.8025 28.124C18.5766 28.1366 18.3461 28.1508 18.1201 28.1618C17.8343 28.176 17.719 28.146 17.6452 28.0437C17.5807 27.9539 17.659 27.8768 17.8804 27.8579C18.1063 27.839 18.3185 27.8264 18.4337 27.7461C18.5444 27.6689 18.738 27.6389 18.9778 27.6326C19.1299 27.6279 19.2821 27.6169 19.4343 27.6075C19.6325 27.5949 19.7386 27.5145 19.6971 27.4248C19.674 27.3665 19.6279 27.3177 19.4481 27.3051C18.6504 27.25 18.6412 27.2515 18.2446 27.1444C18.2077 27.135 18.1801 27.1067 18.194 27.0925C18.217 27.0689 18.2678 27.0342 18.3231 27.0295C18.8533 26.9948 19.3836 26.9633 19.9138 26.9397C20.089 26.9319 20.2181 26.9208 20.2781 26.8625C20.3611 26.7822 20.3242 26.7082 20.1628 26.6531C20.1121 26.6358 20.029 26.6137 19.9737 26.6153C19.3651 26.6436 18.7611 26.6799 18.1524 26.7082C18.0971 26.7114 17.9957 26.6846 17.9727 26.6641C17.9266 26.6263 17.9957 26.5759 18.1571 26.5586C18.3692 26.535 18.5859 26.5334 18.7288 26.4547C18.9271 26.3428 19.1714 26.2405 19.3927 26.1334C19.4296 26.1145 19.4896 26.0783 19.4758 26.0751C19.3605 26.0405 19.2268 26.0137 19.1069 25.9806C18.904 25.9255 18.904 25.8483 18.9501 25.7743C18.987 25.7145 19.1253 25.6909 19.2959 25.6909C19.3697 25.6909 19.4619 25.6909 19.5218 25.6767C19.6786 25.642 19.7293 25.5979 19.6509 25.5649C19.6048 25.546 19.5219 25.5192 19.4666 25.5224C18.4799 25.5743 17.4885 25.6247 16.5064 25.6893C16.2159 25.7082 16.0822 25.6483 15.907 25.6058C15.7733 25.5727 15.6488 25.5601 15.4828 25.5838C15.326 25.6058 15.1739 25.5932 15.0771 25.5413C14.9987 25.4987 15.137 25.4625 15.5105 25.4216C15.5796 25.4137 15.658 25.409 15.7087 25.3932C16.2435 25.2231 16.2435 25.2215 16.6124 25.1995C16.972 25.179 16.9721 25.1775 17.1612 25.0861C17.2488 25.0436 17.3455 25.0011 17.4285 24.957C17.4608 24.9396 17.5162 24.9081 17.4977 24.8987C17.3963 24.8499 17.2579 24.8389 17.0965 24.8499C16.7369 24.8767 16.3128 24.8546 16.1237 25.0042C16.05 25.0609 15.9347 25.0767 15.7687 25.0861C14.0996 25.1775 12.4304 25.2751 10.7567 25.3633C10.4847 25.3775 10.3602 25.4357 10.2542 25.5003C10.162 25.5538 10.0605 25.5696 9.8853 25.579C9.71009 25.5885 9.5717 25.5932 9.47026 25.5413C9.41032 25.5098 9.46106 25.4657 9.59938 25.4216C9.79764 25.3586 9.76074 25.2798 9.69619 25.2058C9.65008 25.157 9.50715 25.1223 9.35499 25.1255C9.12907 25.1318 8.91242 25.1491 8.72337 25.0861C8.61271 25.0499 8.47436 25.0247 8.34987 24.9932C8.11011 24.9286 7.87034 24.8625 7.53375 24.905C7.30321 24.8893 7.14183 24.8326 6.9574 24.7885C6.64848 24.716 6.62081 24.705 6.84213 24.6278C7.09111 24.5412 6.89742 24.4278 7.03575 24.3428C7.18329 24.2514 7.38624 24.1711 7.56606 24.0861C7.61217 24.064 7.65368 24.0436 7.69979 24.0215C7.59374 23.99 7.49693 23.9506 7.37244 23.9286C7.21106 23.9002 7.12806 23.8656 7.13728 23.768C7.10501 23.7538 7.11875 23.79 7.15563 23.7994C7.19713 23.8089 7.29864 23.801 7.34936 23.79C7.47847 23.7601 7.54295 23.7207 7.51067 23.6876C7.49223 23.6703 7.40469 23.6483 7.34936 23.6483C7.24793 23.6483 7.16033 23.6829 7.13267 23.768C6.61626 23.8325 6.08132 23.864 5.54647 23.8892C5.49114 23.8924 5.42202 23.8609 5.35747 23.8451C5.14537 23.7916 5.14534 23.7931 4.52288 23.7774C4.45833 23.7758 4.37077 23.7538 4.3385 23.7317C4.20478 23.6357 4.20943 23.5301 4.14488 23.4278C4.26476 23.3616 4.38455 23.2971 4.50904 23.2325C4.75802 23.1018 5.08085 22.9868 5.2745 22.8435C5.23301 22.7663 5.17767 22.6892 5.38054 22.6262C5.95689 22.5474 5.95232 22.5474 6.10909 22.4719C6.55633 22.2577 6.99894 22.0419 7.46463 21.8309C7.58913 21.7758 7.58914 21.7458 7.36782 21.7222C7.29866 21.7159 7.22479 21.7143 7.15102 21.7175C6.92048 21.7285 6.68994 21.7569 6.46401 21.7506C6.23808 21.7458 6.07209 21.6765 5.88766 21.634C5.69862 21.5899 5.50959 21.5443 5.32054 21.4986C5.10384 21.5033 4.88717 21.5474 4.67046 21.4765C4.50447 21.4214 4.297 21.382 4.10796 21.3364C4.25089 21.2167 4.51836 21.1253 4.72584 21.0198C4.91489 20.9237 4.91939 20.9253 5.42658 20.8513C5.66634 20.8167 5.74934 20.6387 5.54647 20.5867C5.3021 20.5237 5.04394 20.4655 4.79496 20.4056C4.57825 20.4103 4.35698 20.4529 4.14949 20.382C3.98812 20.3285 3.80365 20.2922 3.53622 20.3127C3.08436 20.3474 2.6233 20.3647 2.16683 20.393C2.01006 20.4025 1.83941 20.3962 1.77025 20.3426C1.72414 20.3048 1.85786 20.2529 2.01002 20.2418C2.24056 20.2261 2.44802 20.2072 2.56329 20.1285C2.67395 20.0497 2.87681 20.0261 3.11657 20.0151C3.18112 20.0119 3.25494 19.993 3.28722 19.9741C3.45321 19.8828 3.63765 19.804 3.99269 19.8072C4.14023 19.7757 4.21857 19.7363 4.17246 19.6985C4.14479 19.678 4.04802 19.6513 3.99269 19.6544C3.60999 19.6702 3.22731 19.6859 2.85383 19.7143C2.67862 19.7269 2.54484 19.73 2.43418 19.6828C2.35579 19.6513 2.39729 19.6087 2.54483 19.5631C2.67393 19.5237 2.71086 19.478 2.70164 19.4245C2.67859 19.3001 2.54023 19.2639 2.0976 19.2717C1.77945 19.278 1.70106 19.2576 1.6319 19.1505C1.61346 19.1253 1.56743 19.0906 1.59971 19.0733C1.79797 18.9662 1.92708 18.8339 2.30056 18.7835C2.4481 18.7646 2.60481 18.7646 2.69702 18.7237C2.78924 18.6827 2.87228 18.6355 2.9691 18.5961C3.08898 18.5489 3.1719 18.5048 3.11657 18.4749C3.02435 18.4213 2.87685 18.4166 2.70625 18.4355C2.55871 18.4512 2.40195 18.4528 2.24979 18.4622C1.97775 18.4796 1.75648 18.4386 1.72421 18.3693C1.6366 18.1867 1.54436 18.0055 1.46598 17.8229C1.45675 17.8008 1.47975 17.7725 1.51663 17.7536C1.64573 17.6874 1.78411 17.6244 1.91783 17.5599C2.07459 17.4858 2.32362 17.5 2.53571 17.4858C2.83542 17.4654 2.83531 17.4669 3.23645 17.3157C3.39322 17.2559 3.66527 17.2795 3.82665 17.226C3.87737 17.2087 3.95575 17.1803 3.94192 17.1646C3.92348 17.1441 3.83131 17.1283 3.76215 17.1189C3.6976 17.1094 3.61923 17.1047 3.55007 17.1094C2.7109 17.1551 1.87637 17.2039 1.0372 17.248C0.894269 17.2559 0.737497 17.2213 0.686778 17.1724C0.636059 17.1268 0.649847 17.0716 0.640625 17.0197C0.774338 16.9551 0.926436 16.8953 1.04171 16.826C1.12931 16.7724 1.23077 16.7488 1.40598 16.7456C1.63652 16.7409 1.86247 16.722 2.12067 16.7079C2.6002 16.4779 3.07047 16.237 3.58688 16.007C3.79436 15.9141 3.74373 15.8196 3.78522 15.7204C3.82672 15.6291 4.13563 15.6433 4.34311 15.6165C4.5091 15.5944 4.56436 15.544 4.49981 15.5094C4.46292 15.4889 4.37997 15.4653 4.31542 15.4653C4.16326 15.4653 4.01111 15.4795 3.85896 15.4873C3.7068 15.4952 3.5316 15.4905 3.40711 15.5173C3.28723 15.5425 3.2088 15.596 3.13041 15.6417C3.04281 15.6921 2.92762 15.7094 2.75241 15.7126C2.52648 15.7157 2.30056 15.7299 2.07463 15.7409C1.82565 15.6795 1.56739 15.6196 1.32763 15.5551C1.28152 15.5425 1.27225 15.5062 1.27686 15.4826C1.28608 15.4212 1.21694 15.3834 1.06478 15.3535C0.93568 15.3283 0.829623 15.2921 0.709742 15.2606C0.801958 15.218 0.903432 15.1771 0.977205 15.1314C1.13858 15.0354 1.34148 14.9661 1.6919 14.9692C1.83023 14.9078 1.94085 14.8322 2.12067 14.7897C2.29127 14.7487 2.58177 14.7897 2.71087 14.6968C2.77542 14.6511 2.8723 14.5991 2.99679 14.5802C3.19506 14.5503 3.45326 14.5661 3.56853 14.4779C3.63769 14.4275 3.73909 14.3818 3.8728 14.3692C4.02496 14.355 4.18168 14.3519 4.29234 14.322C4.35228 14.3062 4.41684 14.281 4.41684 14.259C4.41684 14.2448 4.3247 14.2227 4.26015 14.2133C4.20021 14.2023 4.12174 14.1944 4.05257 14.1975C3.82203 14.207 3.59611 14.2243 3.36557 14.2338C3.30102 14.2369 3.22727 14.2259 3.1581 14.2164C2.95523 14.1912 2.96903 14.1597 3.13041 14.103C3.29179 14.0479 3.40712 13.977 3.54084 13.9125C3.68838 13.9015 3.87279 13.9062 3.97423 13.8763C4.14482 13.8274 4.26467 13.7566 4.403 13.6951C4.55515 13.6857 4.71191 13.6826 4.85485 13.6652C4.91479 13.6589 4.94248 13.6243 4.99319 13.6038C5.08541 13.5644 5.16386 13.5077 5.28835 13.4889C5.49122 13.4605 5.7402 13.4715 5.86008 13.3849C5.92925 13.3345 6.03525 13.281 6.16436 13.2778C6.524 13.2715 6.67616 13.1849 6.86059 13.103C6.99892 13.0416 7.29402 13.0731 7.44617 13.0117C7.54761 12.9723 7.62143 12.9235 7.72287 12.8857C7.76436 12.8699 7.85194 12.8621 7.9211 12.8573C8.29918 12.8337 8.68187 12.8164 9.05995 12.7912C9.11989 12.7865 9.17527 12.7628 9.22138 12.7439C9.3182 12.703 9.37808 12.6463 9.49796 12.6195C9.61784 12.5928 9.78841 12.5928 9.93596 12.5849C10.4109 12.5613 10.4478 12.5675 10.6645 12.4337C10.8397 12.325 11.2686 12.4022 11.4115 12.2825C11.4945 12.2132 11.6466 12.1565 11.9186 12.1486C12.3013 12.1376 12.6794 12.1077 13.0621 12.0872C13.4033 12.0683 13.3987 12.0683 13.7676 11.9219C13.9336 11.8557 14.178 11.8652 14.3947 11.8526C14.6252 11.84 14.8373 11.8211 14.948 11.7423C15.0586 11.6652 15.2615 11.64 15.4966 11.6289C15.7133 11.6179 15.9577 11.6258 16.1283 11.5628C16.5433 11.4116 16.5387 11.41 16.8292 11.3943C17.2857 11.3691 17.7421 11.3439 18.1986 11.3171C18.5029 11.2998 18.821 11.2966 19.1069 11.262C19.3144 11.2368 19.4066 11.1486 19.5403 11.0872C19.9184 11.0636 20.2964 11.0399 20.6745 11.0179C21.2048 10.9864 21.7396 10.9581 22.2745 10.9281C22.505 10.8683 22.5374 10.736 22.9247 10.7297C23.1552 10.7265 23.3811 10.7061 23.6117 10.6935C23.9944 10.6714 24.3724 10.6431 24.7551 10.6321C25.0456 10.6242 25.0963 10.5391 25.2484 10.4856C25.2991 10.4667 25.3453 10.4399 25.4052 10.4352C26.0046 10.3911 26.6224 10.3817 27.208 10.3171C27.2679 10.3108 27.3233 10.2777 27.3371 10.2541C27.3463 10.2415 27.268 10.2179 27.2172 10.2069C27.1573 10.1943 27.0789 10.1817 27.0144 10.1848C25.1101 10.2903 23.2059 10.3974 21.3017 10.5029C21.0342 10.5187 21.0342 10.5171 20.3841 10.6903C20.3288 10.7045 20.2642 10.7202 20.195 10.725C19.8907 10.7439 19.5818 10.7549 19.2821 10.7785C19.0377 10.7974 18.8349 10.7785 18.6597 10.7218C18.5352 10.6809 18.406 10.6683 18.2492 10.6714C18.074 10.6762 17.9588 10.6935 17.8574 10.736C17.7237 10.7943 17.6545 10.8699 17.3732 10.8856C16.0776 10.9533 14.7819 11.0289 13.4909 11.1014C13.311 11.0793 13.2235 11.0462 13.2696 11.0069C13.2972 10.9832 13.3526 10.9518 13.4079 10.9486C13.9381 10.9155 14.473 10.8872 15.0032 10.8557C15.077 10.851 15.1784 10.8541 15.2199 10.8384C15.4228 10.7675 15.4966 10.6525 15.8793 10.6446C16.1007 10.6399 16.3266 10.6163 16.5387 10.5943C16.5986 10.588 16.6539 10.5549 16.6678 10.5313C16.6724 10.5187 16.5986 10.495 16.5433 10.484C16.3404 10.4383 16.1053 10.4935 15.9024 10.462C15.8333 10.451 15.7364 10.4352 15.7225 10.4163C15.7133 10.399 15.7917 10.3706 15.847 10.3533C15.8978 10.3376 15.9669 10.3234 16.036 10.3187C16.6447 10.2824 17.2534 10.2446 17.862 10.2163C18.111 10.2053 18.2862 10.1659 18.3968 10.0934C18.4798 10.0399 18.5813 10.0116 18.738 10.0037C19.8031 9.94542 20.8682 9.88085 21.9379 9.8273C22.2053 9.8147 22.3437 9.76274 22.4544 9.69502C22.542 9.64148 22.6434 9.62257 22.814 9.61313C24.3402 9.53123 25.8571 9.43989 27.3833 9.36115C27.6645 9.34698 27.7476 9.27926 27.8905 9.22099C27.9412 9.20051 27.9734 9.17532 28.038 9.16272C28.1025 9.15012 28.1855 9.15168 28.2639 9.14853C29.4811 9.08081 30.6985 9.00838 31.9203 8.94539C32.2062 8.93121 32.2615 8.85246 32.409 8.79734C32.4597 8.78002 32.5059 8.75168 32.5658 8.74695C33.4787 8.69341 34.3917 8.64301 35.3046 8.59104C35.9132 8.5564 36.5218 8.52175 37.1305 8.48867C37.4302 8.47293 37.4302 8.47134 37.8359 8.32173C37.882 8.30441 37.9466 8.28393 38.0066 8.27921C39.7587 8.17841 41.5061 8.08237 43.2582 7.98315C43.4058 7.97528 43.5118 7.93904 43.5856 7.88549C43.6594 7.83195 43.7655 7.79572 43.9084 7.78785C45.2778 7.70911 46.6472 7.63195 48.0212 7.55793C48.2702 7.54533 48.4454 7.50753 48.556 7.43666C48.639 7.38311 48.7405 7.35478 48.8972 7.3469C50.2666 7.27131 51.6361 7.19098 53.0101 7.11854C53.273 7.10436 53.402 7.05082 53.5311 6.98783C53.5772 6.96578 53.6141 6.92956 53.6695 6.92641C54.3519 6.88231 55.0296 6.83664 55.7166 6.80672C56.0025 6.79412 56.0994 6.72797 56.2146 6.66498C56.3068 6.61458 56.4129 6.59726 56.5881 6.59096C56.9708 6.57679 57.3489 6.55003 57.7224 6.52325C57.7777 6.51853 57.8469 6.48388 57.8515 6.46183C57.8607 6.42089 57.7546 6.39253 57.5794 6.37836C55.7535 6.48072 53.9231 6.58308 52.0972 6.68545C51.7975 6.70277 51.7975 6.70278 51.3917 6.85239C51.3456 6.86972 51.281 6.89019 51.2165 6.89492C49.4644 6.99413 47.7169 7.09178 45.9648 7.19099C45.8173 7.19887 45.7113 7.23509 45.6375 7.28863C45.5637 7.34218 45.4576 7.3784 45.3146 7.38627C43.6409 7.48076 41.9672 7.57684 40.2889 7.6666C40.0399 7.6792 39.8647 7.71541 39.7541 7.78785C39.6711 7.8414 39.5697 7.86975 39.4129 7.87763C37.8129 7.96582 36.2175 8.05873 34.613 8.14377C34.4516 8.15164 34.3318 8.10597 34.341 8.06345C34.3456 8.0414 34.4147 8.0052 34.47 8.00205C35.3046 7.95008 36.1346 7.89653 36.9738 7.85715C37.255 7.84455 37.3379 7.77526 37.4809 7.71699C37.527 7.69652 37.5639 7.66974 37.6238 7.65872C37.6884 7.64612 37.7714 7.6477 37.8498 7.64455C39.8278 7.53274 41.8059 7.41935 43.7885 7.31384C44.0744 7.29809 44.1297 7.22091 44.2772 7.16579C44.3279 7.14689 44.3741 7.11855 44.434 7.1154C45.0426 7.0776 45.6512 7.04453 46.2599 7.01146C47.325 6.95161 48.39 6.89176 49.4597 6.83192C49.7687 6.8146 49.7687 6.81459 50.1652 6.66655C50.2113 6.64923 50.2759 6.6272 50.3359 6.62405C53.1531 6.46499 55.9703 6.30592 58.7875 6.14844C58.935 6.14056 59.0411 6.10434 59.1148 6.0508C59.1886 5.99883 59.2946 5.96103 59.4376 5.95158C63.2461 5.7374 67.05 5.52321 70.8585 5.31218C71.1075 5.298 71.2827 5.26493 71.3933 5.19091C71.4717 5.13736 71.5778 5.10902 71.7345 5.09957C75.9212 4.86492 80.1078 4.63027 84.299 4.39404C87.1162 4.23655 89.9334 4.07592 92.7506 3.92158C93.0088 3.90741 93.1471 3.85858 93.2762 3.79401C93.3177 3.77196 93.3592 3.73574 93.4145 3.73259C94.0186 3.69322 94.6225 3.657 95.2266 3.62078C95.4156 3.6633 95.6046 3.70425 95.7937 3.74678C95.9366 3.68693 96.075 3.62551 96.2179 3.56566C97.1309 3.51999 98.03 3.44912 98.9521 3.42708C99.0121 3.4255 99.0766 3.45543 99.1411 3.47118C99.5699 3.57039 99.8143 3.56252 100.086 3.43023C100.183 3.38298 100.266 3.34046 100.414 3.33259C100.87 3.30424 101.331 3.28534 101.783 3.25227C102.028 3.23494 102.23 3.25069 102.406 3.30738C102.53 3.34833 102.659 3.36566 102.811 3.35621C103.651 3.30897 104.485 3.26329 105.324 3.2129C105.384 3.20975 105.439 3.18297 105.486 3.16407C105.582 3.12312 105.665 3.07903 105.758 3.03651C105.882 3.06329 106.021 3.08376 106.122 3.11841C106.251 3.15936 106.371 3.15935 106.546 3.14832C109.894 2.95776 113.246 2.77193 116.593 2.5798C116.879 2.56405 117.003 2.6302 117.197 2.66485C117.262 2.67745 117.326 2.69319 117.395 2.69634C117.469 2.69949 117.547 2.69005 117.621 2.68532C120.134 2.54359 122.647 2.40341 125.16 2.26168C125.492 2.24278 125.492 2.24278 125.985 2.34042C126.045 2.35302 126.124 2.36719 126.188 2.36247C127.332 2.30105 128.475 2.23491 129.614 2.17192C129.761 2.16404 129.886 2.18924 130.02 2.22546C130.283 2.29633 130.301 2.29633 130.495 2.19239C130.587 2.14357 130.684 2.11363 130.836 2.09946C131.002 2.08371 131.136 2.08845 131.265 2.1168C131.449 2.15617 131.583 2.22231 131.864 2.20498C133.081 2.13096 134.303 2.06955 135.516 1.99396C135.792 1.97663 135.94 2.03018 136.124 2.06955C136.189 2.08372 136.249 2.10577 136.318 2.1105C136.387 2.11522 136.47 2.10419 136.544 2.09946C138.066 2.01442 139.592 1.93097 141.109 1.83962C141.395 1.8223 141.519 1.89001 141.713 1.92465C141.777 1.93725 141.851 1.95931 141.911 1.95616C142.824 1.90734 143.742 1.85536 144.654 1.80339C144.982 1.78449 144.982 1.78606 145.48 1.88213C145.54 1.89473 145.618 1.90733 145.683 1.90418C146.748 1.84591 147.817 1.78606 148.883 1.72622C149.21 1.70732 149.21 1.70733 150.155 1.78922C150.224 1.79552 150.298 1.80498 150.367 1.80183C151.584 1.73411 152.806 1.66796 154.023 1.59551C154.268 1.58134 154.471 1.59393 154.646 1.65063C154.77 1.69158 154.9 1.70891 155.052 1.69946C156.421 1.62229 157.795 1.54828 159.16 1.46638C159.423 1.45064 159.593 1.48527 159.778 1.53094C159.838 1.54669 159.898 1.56874 159.967 1.57504C160.036 1.58134 160.114 1.57503 160.188 1.57031C161.558 1.49314 162.932 1.4207 164.296 1.33723C164.573 1.31991 164.721 1.37345 164.905 1.41282C164.97 1.427 165.039 1.45535 165.094 1.45377C165.629 1.427 166.164 1.40339 166.694 1.36401C166.98 1.34197 167.104 1.4144 167.298 1.44904C167.363 1.46007 167.436 1.4837 167.496 1.48055C168.64 1.41913 169.783 1.35457 170.922 1.28842C171.084 1.27897 171.203 1.29314 171.332 1.33408C171.503 1.3892 171.701 1.41125 171.95 1.39393C172.481 1.35771 173.015 1.33251 173.55 1.30259C173.864 1.28527 173.864 1.28527 174.823 1.36717C174.892 1.37347 174.966 1.38291 175.035 1.37976C175.948 1.32936 176.865 1.28055 177.774 1.22543C178.018 1.20968 178.221 1.22385 178.396 1.28054C178.521 1.32149 178.645 1.33882 178.802 1.32937C179.641 1.28213 180.476 1.23488 181.315 1.18763C181.619 1.17031 181.924 1.14038 182.228 1.14038C182.449 1.14195 182.611 1.21754 182.809 1.25534C182.864 1.26636 182.956 1.25378 183.03 1.25063C184.095 1.19078 185.165 1.13566 186.225 1.06794C186.502 1.05062 186.65 1.10416 186.834 1.14353C186.899 1.1577 186.968 1.18605 187.023 1.18448C187.406 1.16715 187.784 1.14353 188.167 1.12306C188.623 1.09786 189.084 1.07896 189.536 1.04431C189.905 1.01597 190.043 1.15297 190.338 1.1577C190.564 1.16242 190.795 1.13565 191.021 1.12306C191.477 1.09786 191.933 1.06951 192.39 1.04747C192.551 1.03959 192.676 1.01438 192.727 0.957688C192.736 0.946664 192.657 0.923051 192.607 0.908877C191.994 0.748242 191.993 0.748234 191.376 0.782881C190.993 0.804929 190.615 0.826981 190.232 0.845879C190.168 0.849029 190.094 0.836431 190.029 0.826982C189.845 0.800209 189.863 0.768715 190.02 0.71202C190.177 0.655325 190.297 0.586037 190.43 0.521468C190.619 0.562415 190.804 0.603346 190.993 0.644293C191.145 0.636418 191.297 0.626983 191.449 0.619109C192.21 0.578162 192.971 0.535638 193.732 0.497842C193.787 0.494692 193.856 0.526194 193.921 0.541942C194.105 0.587613 194.271 0.626974 194.539 0.60965C195.221 0.563979 195.908 0.530907 196.59 0.491536C196.89 0.474212 196.89 0.474214 197.416 0.571855C197.476 0.582879 197.554 0.595479 197.619 0.592329C198.306 0.556107 198.988 0.516741 199.675 0.478944C199.823 0.47107 199.966 0.491542 200.072 0.537213C200.113 0.556111 200.104 0.587602 200.279 0.845879C200.823 1.05534 201.197 1.0333 201.575 1.0144C201.736 1.00653 201.879 0.998644 201.985 0.967146C202.04 0.949823 202.11 0.924621 202.11 0.904148C202.11 0.8884 202.008 0.863197 201.944 0.860048C201.487 0.82855 201.054 0.894704 200.606 0.908877C200.399 0.915177 200.219 0.860056 200.182 0.770289C200.173 0.745091 200.159 0.71832 200.145 0.693122C200.132 0.667925 200.122 0.641154 200.109 0.615956C199.929 0.608082 199.823 0.636424 199.744 0.68997C199.68 0.734066 199.587 0.784461 199.463 0.808084C199.338 0.833282 199.168 0.828566 199.016 0.83644C198.868 0.844314 198.707 0.864785 198.568 0.853761C198.43 0.841162 198.319 0.795484 198.19 0.767136C198.13 0.752962 198.057 0.732497 197.997 0.735647C197.467 0.762419 196.941 0.789182 196.415 0.823829C196.139 0.842727 196 0.776593 195.825 0.735647C195.687 0.70415 195.548 0.712014 195.525 0.784457C195.465 0.957692 195.678 1.03013 196.148 0.997059C196.535 0.968712 196.886 0.964002 197.19 1.07109C197.231 1.08527 197.328 1.09156 197.388 1.08841C197.766 1.06952 198.14 1.04589 198.518 1.02699C198.587 1.02384 198.661 1.03013 198.725 1.03643C199.666 1.12147 199.666 1.12306 199.984 1.10416C200.136 1.09471 200.284 1.08683 200.27 0.847456C200.56 0.590754 201.021 0.573433 201.469 0.535637C201.759 0.512014 201.884 0.581311 202.073 0.617532C202.137 0.630131 202.206 0.655324 202.266 0.652175C203.258 0.600204 204.244 0.545077 205.231 0.486807C205.397 0.477358 205.517 0.486808 205.646 0.527755C205.812 0.579725 205.996 0.612804 206.259 0.593906C206.785 0.556109 207.32 0.532491 207.855 0.500994C208.127 0.485246 208.127 0.48523 208.675 0.582871C208.735 0.593895 208.814 0.606494 208.878 0.603345C209.413 0.576572 209.943 0.54351 210.474 0.515163C210.621 0.507288 210.755 0.529334 210.87 0.571855C210.985 0.614376 211.124 0.636422 211.267 0.628548C211.802 0.6002 212.332 0.568713 212.862 0.540366C212.927 0.537216 213.005 0.548239 213.065 0.559263C213.627 0.656905 213.627 0.656888 213.886 0.64114C214.264 0.617517 214.651 0.606505 215.024 0.575008C215.389 0.543511 215.578 0.634845 215.827 0.68524C216.509 0.649019 217.196 0.619104 217.874 0.575008C218.151 0.55611 218.298 0.608075 218.483 0.649022C218.547 0.663196 218.612 0.693121 218.672 0.691546C218.902 0.685247 219.128 0.667926 219.354 0.655327C219.58 0.642729 219.81 0.630131 220.036 0.617532C220.295 0.663203 220.465 0.770292 220.834 0.73407C221.055 0.712022 221.291 0.707298 221.516 0.694699C221.742 0.6821 221.973 0.669503 222.199 0.656904C222.351 0.649029 222.508 0.644298 222.655 0.630124C222.927 0.606501 223.061 0.683679 223.255 0.718326C223.319 0.72935 223.393 0.748236 223.453 0.745086C223.909 0.723038 224.371 0.704141 224.818 0.667919C225.164 0.639572 225.399 0.686824 225.643 0.752968C225.694 0.767142 225.781 0.775015 225.846 0.771865C226.381 0.745093 226.911 0.712012 227.441 0.683664C227.584 0.67579 227.723 0.700987 227.838 0.741933C227.958 0.784454 228.091 0.804943 228.239 0.797069C228.769 0.768721 229.304 0.737215 229.834 0.708867C229.899 0.705718 229.977 0.718319 230.037 0.730918C230.554 0.828559 230.554 0.830135 230.858 0.811237C230.932 0.806512 231.01 0.80335 231.084 0.798626C231.462 0.776578 231.854 0.768714 232.223 0.730918C232.647 0.688396 232.956 0.741944 233.256 0.831711C233.634 0.812813 234.021 0.801786 234.39 0.770289C234.666 0.746666 234.814 0.806508 234.998 0.845879C235.063 0.860053 235.132 0.8884 235.187 0.885251C235.722 0.858478 236.257 0.834864 236.783 0.795492C237.069 0.773444 237.193 0.8443 237.387 0.880521C237.451 0.89312 237.52 0.91518 237.58 0.91203C237.885 0.899431 238.189 0.880524 238.493 0.8632C238.849 0.842727 238.848 0.8443 239.319 0.940367C239.54 0.986038 239.761 0.949814 239.978 0.93879C240.209 0.926192 240.425 0.916746 240.61 0.981315C240.725 1.02226 240.863 1.04746 241.006 1.04116C241.311 1.02699 241.62 1.01282 241.919 0.989197C242.159 0.970298 242.366 0.98289 242.542 1.04116C242.666 1.08211 242.795 1.10259 242.947 1.09314C243.63 1.05535 244.317 1.01596 244.999 0.979738C245.059 0.976589 245.142 0.990768 245.197 1.00494C245.327 1.03329 245.451 1.06478 245.576 1.09628C245.875 1.0821 246.184 1.07582 246.479 1.05377C246.793 1.03172 247.079 1.02385 247.323 1.11046C247.374 1.12936 247.448 1.15612 247.507 1.15455C247.738 1.14825 247.964 1.1325 248.19 1.1199C248.416 1.1073 248.646 1.09471 248.872 1.08211C249.135 1.12148 249.301 1.23487 249.67 1.19865C249.891 1.1766 250.127 1.17187 250.352 1.15927C250.578 1.14668 250.809 1.1325 251.035 1.12148C251.109 1.11833 251.192 1.11045 251.256 1.11675C251.325 1.12305 251.385 1.1451 251.445 1.16085C251.63 1.20652 251.8 1.2522 252.063 1.22543C252.284 1.20338 252.519 1.19865 252.745 1.18448C253.054 1.16715 253.054 1.16716 253.566 1.26637C253.774 1.30732 254.009 1.25378 254.207 1.28842C254.341 1.31205 254.456 1.35141 254.585 1.37818C254.64 1.38921 254.728 1.39392 254.793 1.39077C255.097 1.3766 255.406 1.36243 255.706 1.33881C255.95 1.31991 256.153 1.33881 256.323 1.3955C256.448 1.43645 256.572 1.45378 256.729 1.44433C257.49 1.40024 258.251 1.36243 259.007 1.31361C259.265 1.29628 259.473 1.32306 259.615 1.37976C259.86 1.4774 260.206 1.36244 260.459 1.44118C260.616 1.49 260.773 1.5467 261.059 1.52308C261.584 1.48213 262.119 1.46007 262.649 1.43172C262.838 1.47424 263.027 1.51677 263.221 1.55929C263.525 1.54197 263.83 1.52464 264.134 1.50889C264.36 1.49629 264.591 1.48212 264.816 1.47109C264.89 1.46794 264.969 1.46164 265.038 1.46952C265.107 1.47739 265.162 1.49787 265.227 1.51362C265.545 1.59079 265.545 1.59237 266.071 1.56087C266.297 1.5467 266.513 1.53725 266.702 1.60024C266.878 1.65851 267.085 1.66953 267.325 1.65221C267.777 1.62071 268.233 1.59709 268.694 1.57504C268.837 1.56717 268.971 1.59394 269.091 1.63489C269.271 1.69945 269.492 1.69316 269.718 1.67583C270.018 1.65378 270.313 1.63174 270.566 1.71993C270.617 1.73883 270.695 1.76559 270.751 1.76401C271.129 1.75142 271.511 1.74197 271.88 1.71205C272.249 1.68213 272.429 1.77977 272.683 1.82701C273.061 1.80654 273.443 1.78606 273.821 1.76559C273.895 1.76087 273.983 1.7467 274.047 1.75458C274.319 1.78765 274.476 1.90576 274.85 1.86954C275.066 1.84906 275.301 1.84277 275.527 1.83805C275.587 1.83647 275.666 1.86323 275.707 1.88371C275.73 1.89473 275.707 1.92465 275.68 1.9404C275.597 1.98449 275.495 2.02545 275.421 2.07112C275.412 2.07742 275.5 2.10576 275.55 2.11836C275.675 2.14671 275.818 2.14199 275.984 2.12939C276.127 2.11837 276.274 2.14042 276.376 2.18766C276.417 2.20656 276.403 2.23805 276.316 2.342C276.316 2.41916 276.413 2.38451 276.445 2.33411C276.496 2.26167 276.399 2.23805 276.214 2.27742C276.085 2.30577 276.021 2.34672 276.053 2.37979C276.071 2.39711 276.159 2.41916 276.316 2.342C276.722 2.2475 277.026 2.23019 277.33 2.21287C277.409 2.20814 277.501 2.19238 277.556 2.20183C277.754 2.23963 277.939 2.28531 278.133 2.32783C278.354 2.31838 278.561 2.29474 278.778 2.35616C279.082 2.44278 279.096 2.43491 279.391 2.41759C279.543 2.40814 279.696 2.40028 279.848 2.3924C280 2.38453 280.12 2.40814 280.253 2.44436C280.525 2.51838 280.549 2.51838 280.728 2.41759C280.834 2.35617 280.908 2.3357 281.042 2.36405C281.484 2.46011 281.489 2.46641 281.867 2.43806C282.181 2.41444 282.476 2.40814 282.706 2.4979C282.863 2.5609 282.914 2.54673 283.038 2.48058C283.37 2.30577 283.522 2.30892 284.145 2.43491C284.435 2.49475 284.735 2.43019 285.03 2.42231C285.279 2.41602 285.454 2.4538 285.473 2.55302C285.487 2.61444 285.528 2.65854 285.694 2.67902C285.759 2.68689 285.837 2.69791 285.902 2.69476C286.284 2.67586 286.662 2.65381 287.045 2.63176C287.239 2.62074 287.345 2.54674 287.308 2.44909C287.266 2.34515 287.34 2.30734 287.617 2.27742C287.783 2.2601 287.917 2.26326 288.05 2.29161C288.198 2.32311 288.156 2.35145 288.027 2.40815C287.718 2.54673 287.755 2.63176 288.152 2.72783C288.29 2.7609 288.401 2.79084 288.433 2.83966C288.451 2.86485 288.433 2.89792 288.475 2.91682C288.7 3.02234 289.014 3.09006 289.364 3.14046C289.701 3.09794 289.932 3.16879 290.19 3.22549C290.393 3.26958 290.632 3.2318 290.849 3.21605C291.093 3.19873 291.296 3.21132 291.472 3.26959C291.596 3.31054 291.725 3.32943 291.877 3.32155C292.182 3.30423 292.49 3.29321 292.79 3.26801C293.048 3.24597 293.242 3.27747 293.403 3.33101C293.606 3.39873 293.832 3.35305 294.044 3.3625C294.33 3.37352 294.473 3.51368 294.847 3.47589C295.068 3.45384 295.299 3.44597 295.529 3.43967C295.589 3.43809 295.663 3.46487 295.713 3.48377C295.958 3.57038 296.244 3.56566 296.557 3.54046C296.774 3.52314 296.986 3.5074 297.198 3.56724C297.549 3.66803 297.936 3.75623 298.305 3.84915C298.355 3.92159 298.319 4.00662 298.581 4.04914C298.72 4.07118 298.849 4.10427 298.955 4.14049C299.084 4.18301 299.204 4.19404 299.37 4.18302C299.669 4.16097 299.983 4.15623 300.278 4.12788C300.55 4.10268 300.721 4.15467 300.887 4.20349C301.02 4.24286 301.145 4.26175 301.306 4.2334C301.472 4.20663 301.592 4.22395 301.726 4.26647C301.915 4.32474 301.929 4.31845 302.556 4.33577C302.62 4.33735 302.699 4.36096 302.736 4.38143C302.754 4.39245 302.713 4.42397 302.68 4.43972C302.639 4.45862 302.574 4.48065 302.514 4.48538C301.832 4.52632 301.145 4.56254 300.463 4.60349C300.393 4.60821 300.32 4.61925 300.269 4.635C300.214 4.65232 300.144 4.67593 300.144 4.69798C300.144 4.71373 300.237 4.73263 300.301 4.74365C300.504 4.77988 300.744 4.72476 300.942 4.76571C301.076 4.79248 301.186 4.83027 301.32 4.85546C301.375 4.86649 301.463 4.86492 301.532 4.86177C301.763 4.85075 301.989 4.835 302.219 4.82555C302.284 4.82398 302.358 4.83973 302.418 4.85233C302.86 4.94682 302.86 4.94682 303.243 4.92634C303.395 4.91847 303.556 4.89484 303.699 4.90429C303.838 4.91374 303.958 4.95626 304.082 4.98304C304.34 5.03973 304.585 5.09485 304.603 5.21769C304.612 5.26493 304.764 5.30587 304.917 5.30902C305.064 5.31217 305.221 5.29487 305.373 5.28542C305.733 5.26652 305.733 5.26652 306.198 5.36258C306.328 5.38936 306.466 5.3925 306.632 5.37675C306.696 5.37045 306.775 5.37676 306.844 5.38463C307.07 5.40826 307.07 5.43817 306.922 5.49487C306.715 5.57833 306.733 5.58621 307.314 5.65708C307.535 5.68385 307.706 5.73425 307.891 5.77835C308.19 5.84922 308.186 5.8492 307.987 5.94212C307.941 5.96259 307.9 5.98465 307.854 6.00669C307.72 6.06811 307.614 6.13425 307.337 6.14055C307.033 6.14685 306.729 6.17206 306.424 6.18938C306.129 6.20671 306.051 6.24449 306.079 6.35158C306.111 6.48072 306.171 6.4949 306.701 6.49332C306.853 6.49332 306.987 6.50592 307.102 6.54844C307.047 6.59883 306.945 6.6382 306.798 6.64765C306.42 6.67128 306.037 6.69176 305.659 6.71223C305.355 6.72955 305.05 6.74687 304.746 6.76419C304.557 6.77522 304.437 6.85712 304.488 6.94846C304.515 7.00043 304.538 7.0524 304.562 7.10437C304.612 7.20831 304.709 7.23509 305.018 7.23036C305.096 7.22879 305.17 7.21618 305.244 7.21933C305.544 7.23035 305.687 7.36106 306.046 7.33429C306.346 7.31224 306.66 7.30752 306.955 7.27917C307.227 7.25398 307.379 7.31069 307.568 7.35321C307.632 7.36738 307.702 7.39729 307.757 7.39571C308.14 7.37839 308.522 7.36108 308.896 7.33116C309.071 7.31856 309.177 7.328 309.315 7.3658C309.647 7.45714 309.657 7.45242 310.15 7.42407C310.51 7.40202 310.514 7.40517 310.975 7.50123C311.104 7.52801 311.243 7.528 311.409 7.5154C311.625 7.49965 311.851 7.47446 312.077 7.49808C312.146 7.50438 312.234 7.52329 312.257 7.54376C312.271 7.55793 312.206 7.59258 312.151 7.6036C311.745 7.6855 311.27 7.67133 310.828 7.7044C310.689 7.71385 310.551 7.68392 310.436 7.6414C310.316 7.59888 310.187 7.58156 310.03 7.58944C309.726 7.60676 309.417 7.61778 309.117 7.64298C308.859 7.66502 308.679 7.6288 308.499 7.57998C308.439 7.56423 308.37 7.5343 308.31 7.53588C307.628 7.56737 306.941 7.59888 306.263 7.64298C305.991 7.66187 305.834 7.61148 305.65 7.56896C305.585 7.55479 305.521 7.52486 305.461 7.52644C305.23 7.53274 305.004 7.55006 304.774 7.56266C303.935 7.6099 303.1 7.65715 302.261 7.70124C302.205 7.70439 302.136 7.67132 302.072 7.65714C301.947 7.6288 301.818 7.60202 301.689 7.57525C301.458 7.58785 301.233 7.60359 301.002 7.61304C300.836 7.61934 300.689 7.6414 300.665 7.70124C300.652 7.74062 300.804 7.77683 300.965 7.77368C301.122 7.77053 301.279 7.75163 301.408 7.77211C302.049 7.8729 302.049 7.87447 302.45 7.854C302.8 7.8351 302.763 7.81935 303.072 7.90596C303.206 7.94376 303.326 7.96582 303.478 7.95637C303.856 7.93432 304.239 7.91227 304.622 7.89337C304.681 7.89022 304.76 7.90598 304.82 7.91858C305.272 8.01307 305.272 8.01621 305.645 7.99259C306.134 7.96424 306.152 7.95637 306.48 8.05243C306.706 8.11858 306.913 8.07291 307.13 8.06976C307.379 8.13118 307.651 8.1863 307.877 8.2556C308.144 8.33749 308.425 8.3233 308.73 8.29968C308.956 8.28236 309.177 8.27606 309.361 8.34063C309.537 8.40047 309.749 8.40678 309.988 8.39103C310.205 8.37686 310.427 8.34693 310.653 8.38158C310.712 8.39102 310.805 8.41465 310.8 8.42883C310.795 8.45088 310.735 8.48238 310.675 8.49183C310.251 8.5564 309.786 8.55482 309.338 8.58474C309.278 8.58946 309.2 8.57213 309.14 8.55954C309.011 8.53119 308.887 8.49812 308.762 8.4682C308.536 8.47765 308.306 8.48079 308.084 8.49969C307.914 8.51386 307.784 8.5123 307.66 8.47451C307.545 8.43986 307.42 8.39733 307.282 8.3863C307.144 8.37528 306.982 8.39891 306.83 8.40835C306.678 8.4178 306.503 8.41307 306.383 8.43827C306.263 8.46347 306.189 8.51859 306.111 8.56269C306.023 8.61151 305.903 8.62727 305.728 8.63199C305.567 8.63672 305.438 8.63041 305.318 8.58631C305.267 8.56742 305.198 8.55324 305.129 8.54064C305.064 8.52961 304.99 8.51228 304.93 8.51543C304.243 8.55166 303.561 8.59104 302.874 8.62884C302.533 8.64774 302.537 8.64772 301.827 8.55481C301.763 8.54693 301.684 8.53591 301.62 8.53906C301.237 8.55796 300.859 8.58001 300.476 8.60206C300.089 8.62411 300.094 8.62096 299.434 8.52174C299.315 8.50284 299.139 8.52804 298.996 8.52489C298.697 8.51702 298.549 8.38473 298.199 8.40993C297.899 8.43198 297.585 8.4367 297.286 8.46505C297.014 8.49024 296.857 8.43513 296.673 8.39261C296.608 8.37844 296.539 8.34694 296.483 8.35009C295.796 8.38473 295.114 8.4241 294.201 8.42883C293.975 8.42883 294.077 8.46191 294.224 8.47293C294.436 8.49025 294.505 8.45718 294.39 8.39419C294.307 8.35009 294.187 8.32803 294.09 8.33905C294.04 8.34535 293.975 8.37528 294.201 8.42883C294.441 8.48867 294.427 8.52174 294.469 8.54064C294.57 8.58631 294.713 8.60521 294.861 8.59891C295.091 8.58788 295.317 8.57214 295.548 8.56269C295.612 8.55954 295.69 8.57056 295.75 8.58316C296.258 8.6808 296.262 8.68711 296.802 8.64931C296.972 8.63829 297.097 8.63829 297.23 8.66821C297.415 8.70916 297.549 8.77844 297.83 8.75639C298.203 8.72647 298.586 8.70916 298.969 8.69184C299.029 8.68869 299.093 8.71703 299.162 8.72963C299.351 8.76743 299.49 8.8383 299.771 8.80838C299.988 8.78475 300.223 8.77844 300.453 8.77371C300.513 8.77214 300.605 8.79734 300.633 8.81781C300.688 8.85404 300.619 8.89657 300.463 8.92649C300.398 8.93909 300.31 8.93593 300.237 8.94066C299.932 8.95798 299.628 8.97687 299.324 8.99104C299.162 8.99892 299.01 9.02255 298.992 9.08082C298.978 9.12019 299.144 9.15483 299.301 9.15168C299.531 9.14696 299.762 9.13436 299.983 9.11389C300.375 9.07924 300.716 9.08869 301.034 9.1879C301.26 9.2572 301.246 9.23201 301.486 9.43674C301.546 9.48871 301.726 9.49343 301.883 9.49028C302.261 9.48241 302.436 9.50604 302.404 9.55486C302.362 9.6147 302.229 9.63359 302.058 9.64146C301.754 9.65406 301.449 9.67455 301.145 9.69187C301.071 9.69659 300.988 9.70603 300.919 9.70288C300.85 9.69973 300.785 9.68084 300.725 9.66667C300.596 9.63674 300.486 9.59106 300.347 9.58004C300.209 9.56902 300.048 9.59264 299.895 9.60209C299.743 9.60997 299.582 9.63359 299.444 9.62256C299.305 9.61154 299.19 9.56431 299.066 9.53596C299.006 9.52178 298.932 9.49972 298.872 9.5013C298.568 9.5139 298.263 9.53438 297.959 9.55013C297.585 9.5706 297.585 9.5706 297.134 9.47296C297.005 9.44461 296.871 9.44619 296.7 9.45879C296.331 9.48399 296.327 9.47925 295.654 9.38791C295.589 9.37846 295.511 9.36744 295.446 9.37217C294.759 9.40839 294.077 9.44776 293.394 9.48555C292.809 9.51862 292.809 9.51864 292.486 9.67612C292.246 9.79266 292.242 9.79266 292.477 9.8462C292.666 9.8903 292.836 9.95486 293.044 9.97848C293.237 10.0005 293.477 9.92967 293.689 10.0021C293.795 10.0383 293.934 10.0777 294.067 10.084C294.279 10.0919 294.505 10.0462 294.708 10.1155C294.81 10.1501 294.962 10.1864 295.091 10.188C295.317 10.1911 295.548 10.1659 295.773 10.1549C295.843 10.1517 295.921 10.1517 295.986 10.1596C296.055 10.169 296.115 10.1879 296.175 10.2037C296.359 10.2572 296.557 10.2824 296.797 10.2557C297.189 10.2116 297.539 10.2336 297.844 10.3344C297.885 10.3486 297.987 10.3502 298.051 10.3439C298.217 10.3281 298.36 10.3265 298.485 10.3565C298.535 10.3691 298.609 10.3911 298.6 10.4053C298.586 10.4289 298.531 10.4604 298.471 10.4683C298.037 10.5218 297.572 10.5281 297.124 10.5565C297.064 10.5596 296.991 10.5391 296.931 10.525C296.802 10.4966 296.691 10.4494 296.553 10.4383C296.414 10.4273 296.253 10.4478 296.101 10.4557C295.949 10.4635 295.787 10.4872 295.649 10.4777C295.511 10.4667 295.382 10.4273 295.271 10.3927C295.142 10.3533 295.017 10.3486 294.847 10.3643C294.625 10.3848 294.395 10.388 294.169 10.399C294.044 10.3691 293.92 10.336 293.791 10.3076C293.731 10.2935 293.657 10.2761 293.593 10.2777C293.288 10.2903 292.984 10.3092 292.68 10.3265C292.375 10.3438 292.375 10.3439 291.859 10.2462C291.799 10.2352 291.72 10.2226 291.656 10.2257C291.273 10.2446 290.895 10.2683 290.512 10.2872C290.365 10.295 290.231 10.273 290.111 10.2305C289.996 10.1879 289.858 10.1643 289.715 10.1722C289.106 10.2053 288.498 10.2368 287.889 10.2761C287.645 10.2919 287.437 10.2777 287.271 10.221C287.077 10.1564 286.861 10.1722 286.635 10.1848C286.123 10.2163 286.118 10.2147 285.791 10.1344C285.726 10.1186 285.662 10.0887 285.602 10.0903C285.072 10.1139 284.537 10.136 284.011 10.1738C283.735 10.1942 283.587 10.1391 283.403 10.0982C283.338 10.084 283.269 10.0541 283.214 10.0572C282.831 10.0746 282.448 10.0903 282.075 10.1218C281.701 10.1533 281.558 10.0068 281.277 10.0084C280.894 10.01 280.516 10.0462 280.138 10.0683C279.834 10.0856 279.53 10.1029 279.225 10.1202C278.921 10.1375 278.617 10.1517 278.312 10.1722C278.151 10.1832 278.031 10.169 277.897 10.1297C277.727 10.0777 277.524 10.0368 277.339 9.98952C277.058 9.9218 277.058 9.92179 276.717 9.94069C276.643 9.94541 276.565 9.94856 276.491 9.95328C275.933 9.98793 275.933 9.98479 275.223 9.88557C275.191 9.88085 275.108 9.89818 275.076 9.91078C274.979 9.95172 274.891 9.99581 274.804 10.0383C274.679 10.0131 274.527 9.99896 274.444 9.96274C274.209 9.86037 273.84 10.0005 273.6 9.89974C273.512 9.86195 273.36 9.82887 273.222 9.81942C273.079 9.80997 272.918 9.83202 272.77 9.84147C272.387 9.8651 272.387 9.86353 272.06 10.0037C271.894 10.073 271.654 10.0604 271.438 10.0761C271.212 10.0934 270.995 10.1029 270.806 10.0383C270.635 9.98006 270.428 9.96589 270.184 9.98479C269.884 10.0084 269.575 10.0226 269.271 10.0368C269.206 10.0399 269.128 10.032 269.063 10.0226C268.358 9.92967 268.358 9.9281 268.016 9.94857C267.864 9.95802 267.707 9.96116 267.56 9.97533C267.311 10.0005 267.122 9.96746 266.942 9.91706C266.882 9.90131 266.813 9.87141 266.753 9.87298C266.449 9.88086 266.149 9.89503 265.849 9.9092C265.619 9.92022 265.388 9.92652 265.167 9.94857C264.798 9.98479 264.618 9.88241 264.365 9.83517C263.987 9.85564 263.604 9.86982 263.226 9.89816C263.051 9.91076 262.935 9.90605 262.802 9.86825C262.631 9.82101 262.474 9.76746 262.198 9.79109C261.829 9.82258 261.441 9.83361 261.063 9.85251C260.81 9.80369 260.625 9.70446 260.261 9.74068C260.04 9.76273 259.805 9.76745 259.579 9.78005C259.274 9.79737 258.97 9.81314 258.666 9.83203C258.338 9.85093 258.343 9.84621 257.84 9.75329C257.55 9.69817 257.25 9.75959 256.955 9.76904C256.724 9.77691 256.609 9.84935 256.665 9.94227C256.72 10.0352 256.595 10.1076 256.383 10.1202C255.853 10.1501 255.318 10.1816 254.788 10.2084C254.723 10.2116 254.645 10.2005 254.585 10.1895C254.018 10.0903 254.018 10.0919 253.764 10.1061C253.386 10.1297 252.999 10.1423 252.626 10.1722C252.367 10.1927 252.178 10.1596 252.012 10.1061C251.883 10.0651 251.763 10.0557 251.597 10.0651C249.771 10.1706 247.946 10.2683 246.124 10.3769C245.852 10.3927 245.696 10.347 245.511 10.3045C245.447 10.2903 245.387 10.2604 245.322 10.2604C245.17 10.2604 245.018 10.2746 244.866 10.284C244.183 10.3218 243.501 10.3675 242.814 10.3958C242.523 10.4084 242.445 10.4809 242.32 10.5407C242.224 10.5864 242.113 10.6053 241.942 10.6116C241.776 10.6179 241.656 10.61 241.527 10.5691C241.361 10.5155 241.172 10.4824 240.914 10.5045C240.614 10.5297 240.31 10.5407 240.001 10.558C239.844 10.5659 239.724 10.5943 239.674 10.651C239.665 10.6604 239.761 10.684 239.817 10.6982C240.001 10.7455 240.176 10.8006 240.384 10.8336C240.596 10.8667 240.826 10.8289 241.048 10.8195C241.126 10.8163 241.2 10.8069 241.274 10.8084C241.343 10.81 241.426 10.8179 241.477 10.8321C241.716 10.9029 241.97 10.9518 242.302 10.9092C242.588 10.9297 242.735 11.0604 243.1 11.0258C243.321 11.0053 243.552 10.9958 243.782 10.988C243.842 10.9864 243.906 11.0147 243.971 11.0289C244.155 11.0683 244.303 11.1313 244.58 11.1045C244.875 11.0762 245.188 11.0714 245.488 11.0494C245.654 11.0368 245.774 11.0478 245.903 11.0888C246.069 11.1407 246.258 11.1801 246.516 11.1549C246.738 11.1329 246.973 11.1281 247.199 11.114C247.494 11.0966 247.494 11.0982 248.019 11.1958C248.079 11.2069 248.158 11.2195 248.222 11.2163C248.605 11.1974 248.983 11.1738 249.366 11.1549C249.513 11.147 249.656 11.1675 249.758 11.2132C249.799 11.2321 249.785 11.2636 249.799 11.2904C249.038 11.3329 248.278 11.3691 247.521 11.4211C247.235 11.4415 247.106 11.377 246.917 11.3407C246.853 11.3281 246.784 11.3014 246.724 11.3045C246.189 11.3313 245.659 11.3596 245.128 11.3943C244.962 11.4053 244.838 11.399 244.713 11.3533C244.395 11.2321 244.008 11.2982 243.648 11.3155C243.372 11.3281 243.284 11.377 243.316 11.4809C243.358 11.6037 243.524 11.6415 243.948 11.6195C244.1 11.6116 244.252 11.6006 244.404 11.5943C244.552 11.588 244.686 11.6085 244.806 11.651C244.921 11.6935 245.059 11.7156 245.202 11.7093C245.506 11.6951 245.815 11.6809 246.11 11.6573C246.355 11.6384 246.558 11.6541 246.728 11.7124C246.917 11.777 247.139 11.7628 247.36 11.7486C247.876 11.7171 247.881 11.7187 248.204 11.7975C248.268 11.8132 248.333 11.8431 248.393 11.8416C248.923 11.8179 249.458 11.7975 249.979 11.7597C250.251 11.7408 250.408 11.7911 250.588 11.8321C250.652 11.8463 250.717 11.8778 250.777 11.8746C251.159 11.8573 251.542 11.84 251.915 11.81C252.091 11.7959 252.197 11.8053 252.34 11.8431C252.681 11.936 252.69 11.9329 253.174 11.903C253.322 11.8935 253.483 11.8762 253.621 11.8888C253.76 11.9014 253.87 11.9471 254 11.9754C254.059 11.988 254.133 12.0053 254.198 12.0022C254.502 11.9896 254.806 11.9707 255.111 11.9534C255.397 11.936 255.397 11.9376 255.931 12.0353C256.148 12.0762 256.374 12.0416 256.591 12.029C256.826 12.0148 257.038 12.0148 257.218 12.0762C257.398 12.1376 257.614 12.1345 257.845 12.1219C258.062 12.1093 258.283 12.0746 258.504 12.1172C259.012 12.2148 259.012 12.2164 259.325 12.1975C259.782 12.1707 260.233 12.1455 260.694 12.1219C260.754 12.1187 260.833 12.1376 260.893 12.1502C261.022 12.1786 261.132 12.2258 261.271 12.2368C261.409 12.2494 261.57 12.2305 261.718 12.2211C262.193 12.1912 262.225 12.1801 262.543 12.2841C262.811 12.3691 263.143 12.2463 263.392 12.3439C263.535 12.399 263.728 12.4431 263.996 12.4164C264.217 12.3943 264.448 12.388 264.678 12.3754C265.042 12.3549 265.042 12.3565 265.503 12.451C265.563 12.4636 265.642 12.4794 265.702 12.4762C266.006 12.4636 266.315 12.4526 266.61 12.4242C266.956 12.3912 267.177 12.451 267.435 12.5093C267.638 12.555 267.878 12.5172 268.095 12.5014C268.33 12.4857 268.542 12.4904 268.717 12.5518C268.902 12.6148 269.118 12.6069 269.349 12.5943C269.566 12.5833 269.787 12.5471 270.008 12.5912C270.483 12.6888 270.483 12.6888 270.829 12.6699C271.133 12.6526 271.438 12.6337 271.742 12.6211C271.802 12.618 271.876 12.6384 271.936 12.6526C272.065 12.6809 272.175 12.7282 272.314 12.7392C272.452 12.7502 272.613 12.7298 272.765 12.7219C272.918 12.714 273.079 12.6904 273.217 12.6998C273.356 12.7093 273.485 12.7487 273.595 12.7833C273.725 12.8243 273.844 12.829 274.02 12.8132C274.241 12.7928 274.471 12.788 274.697 12.777C274.822 12.8069 274.951 12.8369 275.071 12.8699C275.195 12.9046 275.329 12.9014 275.5 12.8904C276.067 12.8526 276.071 12.8573 276.546 12.955C276.763 12.9991 276.989 12.9628 277.206 12.9518C277.436 12.9392 277.653 12.9329 277.833 12.9959C278.008 13.0558 278.225 13.0636 278.455 13.0447C278.603 13.0321 278.76 13.0243 278.912 13.0195C278.981 13.018 279.064 13.0243 279.115 13.0369C279.359 13.103 279.599 13.1629 279.935 13.1203C280.23 13.1329 280.378 13.2621 280.733 13.2369C281.033 13.2148 281.346 13.2101 281.641 13.1817C281.913 13.1565 282.107 13.2007 282.245 13.2558C282.494 13.3534 282.845 13.2211 283.094 13.3172C283.237 13.3723 283.421 13.4164 283.698 13.3928C284.002 13.3676 284.099 13.4007 284.186 13.4999C284.237 13.5566 284.228 13.6022 284.136 13.6463C284.044 13.692 283.942 13.6841 283.795 13.6322C283.624 13.5739 283.421 13.5629 283.177 13.5755C282.937 13.5881 282.789 13.5062 282.591 13.4747C282.393 13.4416 282.158 13.4967 281.95 13.4542C281.462 13.355 281.462 13.355 281.13 13.3739C280.904 13.3865 280.668 13.3928 280.447 13.4148C280.184 13.4416 280.014 13.3928 279.834 13.3487C279.769 13.3329 279.705 13.303 279.649 13.3046C279.119 13.3282 278.584 13.3503 278.059 13.3896C277.782 13.4101 277.635 13.3534 277.45 13.314C277.386 13.2999 277.316 13.2715 277.261 13.2747C276.805 13.2967 276.353 13.3251 275.896 13.3518C275.809 13.3944 275.712 13.4353 275.629 13.481C275.541 13.5282 275.421 13.5487 275.246 13.5471C274.956 13.5471 274.67 13.6133 274.379 13.5298C274.08 13.4448 274.057 13.4495 273.766 13.47C273.397 13.4967 273.005 13.4904 272.659 13.5518C272.599 13.5629 272.535 13.5928 272.535 13.6148C272.53 13.629 272.627 13.6495 272.687 13.6621C272.89 13.6999 273.125 13.6448 273.328 13.6841C273.462 13.7093 273.572 13.7471 273.706 13.7739C273.761 13.7849 273.844 13.7833 273.918 13.7818C273.997 13.7802 274.07 13.7692 274.144 13.7708C274.213 13.7723 274.287 13.7818 274.342 13.7959C274.596 13.8558 274.863 13.9109 275.089 13.9818C275.311 14.0511 275.518 14.0038 275.739 14.0007C276.625 14.1109 276.625 14.1125 277.22 14.0778C277.367 14.07 277.519 14.0605 277.671 14.0621C277.736 14.0621 277.796 14.0904 277.86 14.1062C278.045 14.1534 278.22 14.196 278.478 14.1708C278.7 14.1487 278.935 14.144 279.161 14.1298C279.465 14.1125 279.465 14.1125 279.981 14.2117C280.111 14.2369 280.249 14.2338 280.415 14.2212C280.558 14.2101 280.705 14.2338 280.807 14.2794C280.848 14.2983 280.834 14.3298 280.848 14.3566C280.392 14.3818 279.931 14.3991 279.488 14.4369C279.202 14.4605 279.073 14.3928 278.884 14.3566C278.819 14.344 278.75 14.3172 278.69 14.3204C278.239 14.344 277.787 14.3708 277.335 14.4023C277.28 14.4054 277.21 14.4416 277.206 14.4637C277.197 14.5046 277.312 14.544 277.478 14.5424C277.699 14.5408 277.916 14.5141 278.114 14.5786C278.28 14.6353 278.487 14.6606 278.732 14.6354C278.879 14.6212 279.036 14.6212 279.184 14.6086C279.576 14.5708 279.931 14.5786 280.226 14.6857C280.452 14.7141 280.673 14.6873 280.89 14.6731C281.051 14.6621 281.208 14.6511 281.323 14.681C281.568 14.744 281.807 14.807 282.144 14.7645C282.508 14.8086 282.785 14.9015 283.089 14.9771C283.232 15.0133 283.343 15.0338 283.509 15.0102C283.578 15.0007 283.661 15.0007 283.735 14.996C283.887 14.9881 284.048 14.9645 284.186 14.9739C284.325 14.985 284.44 15.0306 284.565 15.059C284.625 15.0732 284.694 15.0968 284.754 15.0952C284.984 15.0873 285.21 15.0716 285.436 15.059C285.662 15.048 285.888 15.0369 286.114 15.0259C286.303 15.0669 286.496 15.1078 286.685 15.1488C286.99 15.1314 287.294 15.1141 287.594 15.0984C287.93 15.0795 287.93 15.081 288.415 15.1787C288.631 15.2228 288.862 15.1944 289.069 15.1739C289.415 15.1409 289.646 15.2007 289.89 15.2637C289.941 15.2763 290.033 15.2842 290.093 15.2779C290.333 15.2558 290.54 15.2732 290.715 15.3314C290.84 15.3724 290.964 15.3913 291.116 15.3834C291.647 15.3535 292.177 15.322 292.707 15.2952C292.772 15.2921 292.845 15.3062 292.905 15.3188C293.376 15.4149 293.38 15.4196 293.726 15.3944C294.035 15.3724 294.321 15.3629 294.565 15.4495C294.616 15.4684 294.694 15.4952 294.75 15.4936C295.128 15.4779 295.511 15.4606 295.884 15.4338C296.055 15.4212 296.175 15.4259 296.308 15.4622C296.479 15.5078 296.631 15.5629 296.912 15.5425C297.692 15.4842 297.696 15.4936 298.618 15.6023C298.683 15.6102 298.77 15.5976 298.844 15.5913C299.001 15.5755 299.116 15.5976 299.255 15.6338C299.563 15.7157 299.573 15.711 299.868 15.6937C300.094 15.6795 300.329 15.6763 300.55 15.6527C300.891 15.6181 301.117 15.6795 301.371 15.7378C301.574 15.7834 301.809 15.7456 302.026 15.7314C302.261 15.7157 302.473 15.7204 302.648 15.7803C302.768 15.8212 302.897 15.8433 303.049 15.8354C303.579 15.807 304.11 15.7755 304.64 15.7472C304.705 15.744 304.783 15.7566 304.843 15.7677C305.368 15.8653 305.368 15.87 305.89 15.8338C306.056 15.8228 306.194 15.8196 306.318 15.8527C306.438 15.8842 306.567 15.9141 306.692 15.944C306.918 15.933 307.148 15.9299 307.37 15.911C307.54 15.8968 307.66 15.9031 307.794 15.9362C307.969 15.9787 308.117 16.0527 308.393 16.0165C308.536 15.9992 308.702 16.0039 308.845 15.9882C309.016 15.9677 309.131 15.9803 309.265 16.0212C309.431 16.07 309.601 16.1204 309.869 16.0952C310.164 16.0669 310.477 16.0622 310.777 16.0401C310.943 16.0275 311.058 16.0401 311.192 16.0811C311.358 16.133 311.547 16.1661 311.805 16.1456C312.331 16.1063 312.335 16.1141 312.847 16.2133C312.976 16.2385 313.115 16.2354 313.281 16.2228C313.424 16.2118 313.571 16.2354 313.672 16.2811C313.769 16.3315 313.76 16.363 313.769 16.3897ZM272.683 2.18609C272.53 2.19396 272.378 2.20341 272.157 2.06639C272.143 2.04277 272.152 2.01443 272.12 1.99396C272.046 1.95144 271.931 1.92152 271.793 1.91679C271.544 1.91049 271.244 1.96403 271.249 2.00497C271.253 2.03962 271.332 2.06954 271.484 2.09788C271.548 2.10891 271.599 2.12781 271.659 2.14041C271.834 2.17663 271.972 2.24751 272.226 2.21129C272.18 2.11365 272.203 2.16247 272.226 2.21129C272.203 2.27113 272.272 2.31366 272.438 2.33098C272.484 2.3357 272.553 2.33255 272.59 2.3231C272.733 2.28845 272.756 2.24121 272.65 2.1168C272.632 2.13727 272.646 2.17348 272.687 2.18293C272.729 2.19238 272.83 2.18452 272.881 2.17349C273.01 2.14357 273.074 2.1042 273.042 2.07112C273.024 2.0538 272.936 2.03175 272.881 2.03175C272.784 2.03175 272.696 2.0664 272.683 2.18609ZM309.965 20.4497C309.629 20.4796 309.242 20.4686 308.905 20.53C308.845 20.5411 308.785 20.5694 308.78 20.5915C308.776 20.6056 308.868 20.6261 308.923 20.6371C309.048 20.6623 309.186 20.6545 309.348 20.6466C309.592 20.6356 309.735 20.708 309.924 20.7442C309.984 20.7552 310.062 20.7631 310.127 20.76C310.5 20.7411 310.869 20.7206 311.243 20.6986C311.307 20.6938 311.376 20.6828 311.432 20.6686C311.616 20.623 311.598 20.593 311.418 20.5584C311.22 20.5206 311.063 20.4576 310.86 20.4277C310.569 20.3851 310.274 20.4418 309.965 20.4497ZM283.781 21.5994C283.555 21.612 283.333 21.6246 283.107 21.6372C283.034 21.6419 282.955 21.6435 282.886 21.6498C282.743 21.6608 282.637 21.6939 282.568 21.7458C282.674 21.7868 282.803 21.8104 282.946 21.8057C283.172 21.7962 283.393 21.7758 283.619 21.771C283.864 21.7647 284.007 21.8356 284.196 21.8718C284.256 21.8828 284.329 21.8844 284.399 21.886C284.74 21.8923 284.947 21.8104 284.883 21.6954C284.837 21.6057 284.661 21.5521 284.449 21.5632C284.228 21.5742 284.002 21.5868 283.781 21.5994ZM311.542 18.1221C311.598 18.0953 311.658 18.0764 311.685 18.0528C311.768 17.9725 311.736 17.9126 311.584 17.8496C311.399 17.7725 311.173 17.8244 310.966 17.8323C310.915 17.8339 310.86 17.8669 310.832 17.8874C310.814 17.9016 310.814 17.9315 310.842 17.9394C311.067 18.0024 311.307 18.0607 311.542 18.1221ZM271.544 13.47C271.322 13.4826 271.096 13.492 270.875 13.5093C270.82 13.514 270.769 13.544 270.737 13.5644C270.677 13.6022 270.741 13.6542 270.93 13.6589C271.147 13.6652 271.373 13.6385 271.599 13.6259C271.885 13.6101 272.055 13.5518 271.949 13.5014C271.848 13.4526 271.71 13.4432 271.544 13.47ZM28.8356 10.1045C28.9832 10.0966 29.1353 10.0903 29.2829 10.0793C29.4212 10.0683 29.5273 10.0336 29.5965 9.98164C29.4812 9.94069 29.3521 9.91864 29.2091 9.92337C28.9832 9.93282 28.7619 9.94541 28.5406 9.96116C28.4023 9.97061 28.2686 10.0053 28.2363 10.0588C28.204 10.0997 28.5129 10.1234 28.8356 10.1045ZM252.045 9.86195C252.105 9.87612 252.164 9.90447 252.224 9.90447C252.372 9.90447 252.524 9.89502 252.662 9.87927C252.722 9.87297 252.768 9.84462 252.796 9.82257C252.815 9.8084 252.81 9.78321 252.782 9.77061C252.649 9.69502 252.114 9.72179 252.026 9.80841C252.017 9.82415 252.04 9.84462 252.045 9.86195ZM237.497 1.23802C237.511 1.26322 237.516 1.28841 237.534 1.31361C237.571 1.36085 237.673 1.39551 237.82 1.41913C237.935 1.37976 237.995 1.33567 237.991 1.28842C237.986 1.26323 237.972 1.23801 237.954 1.21281C237.917 1.16557 237.816 1.13093 237.668 1.10731C237.553 1.14511 237.497 1.1892 237.497 1.23802ZM322.198 21.8734C322.156 21.8939 322.115 21.9143 322.069 21.9332C322.193 21.9789 322.309 21.9931 322.396 21.9679C322.452 21.9521 322.484 21.9285 322.525 21.908C322.401 21.8624 322.29 21.8498 322.198 21.8734ZM319.33 22.0876C319.39 22.1017 319.445 22.1207 319.51 22.1301C319.616 22.1458 319.713 22.1191 319.786 22.0624C319.726 22.0482 319.671 22.0293 319.607 22.0198C319.501 22.0041 319.404 22.0309 319.33 22.0876ZM321.147 21.7994C321.114 21.8372 321.179 21.8687 321.35 21.8954C321.391 21.875 321.446 21.8561 321.474 21.834C321.52 21.7978 321.442 21.7647 321.276 21.7395C321.23 21.7584 321.188 21.7789 321.147 21.7994ZM311.413 20.1017C311.381 20.1395 311.445 20.171 311.616 20.1977C311.658 20.1773 311.713 20.1584 311.741 20.1363C311.787 20.1001 311.708 20.067 311.542 20.0418C311.496 20.0607 311.455 20.0812 311.413 20.1017ZM298.153 8.95798C298.111 8.97845 298.07 8.99893 298.023 9.01782C298.148 9.06349 298.263 9.07766 298.351 9.05247C298.406 9.03672 298.438 9.01309 298.48 8.99262C298.355 8.94695 298.245 8.93436 298.153 8.95798ZM285.45 3.04595C285.56 3.05698 285.653 3.03494 285.731 2.97667C285.671 2.96249 285.616 2.94359 285.551 2.93414C285.445 2.9184 285.348 2.94518 285.275 3.00187C285.335 3.01762 285.394 3.03178 285.45 3.04595ZM278.704 2.67586C278.663 2.69634 278.621 2.71681 278.575 2.73571C278.7 2.78138 278.815 2.79555 278.902 2.77035C278.958 2.7546 278.99 2.73098 279.032 2.71051C278.907 2.66484 278.796 2.65382 278.704 2.67586ZM232.961 1.23644C232.919 1.25691 232.878 1.27739 232.831 1.29629C232.956 1.34196 233.071 1.35613 233.159 1.33093C233.214 1.31518 233.246 1.29156 233.288 1.27108C233.163 1.22541 233.053 1.21439 232.961 1.23644ZM5.19143 14.0495C5.13149 14.0353 5.0716 14.0212 5.01627 14.0054C4.88256 14.0479 4.84107 14.0873 4.91485 14.1172C4.96095 14.1361 5.03006 14.1471 5.09 14.1613C5.22833 14.1188 5.26059 14.081 5.19143 14.0495Z" fill="#FFE492"/>
<path d="M31.933 8.48835C31.4027 8.51827 30.8771 8.55606 30.3469 8.57496C30.0656 8.58441 29.9643 8.65213 29.849 8.71512C29.7568 8.76552 29.6507 8.78126 29.4801 8.79071C28.0415 8.86788 26.6075 8.94978 25.1736 9.03009C24.9938 9.00962 24.9062 8.97655 24.9477 8.93718C24.9707 8.91356 25.0261 8.88049 25.0814 8.87734C26.0635 8.81907 27.0409 8.75922 28.0276 8.71355C28.3089 8.70095 28.3873 8.63165 28.5303 8.57496C28.5764 8.55606 28.6133 8.52771 28.6732 8.51669C28.7332 8.50409 28.8208 8.50567 28.8992 8.50252C30.4853 8.41275 32.0714 8.32457 33.6575 8.2348C33.8373 8.25528 33.925 8.28834 33.8835 8.32771C33.8604 8.35134 33.8051 8.38441 33.7497 8.38756C33.1411 8.42063 32.537 8.45371 31.933 8.48835Z" fill="#FFE492"/>
<path d="M322.258 16.875C322.018 16.8939 321.714 16.9207 321.465 16.8293C321.345 16.7852 321.216 16.7711 321.059 16.7805C320.833 16.7963 320.603 16.8089 320.372 16.8183C320.312 16.8199 320.234 16.8026 320.174 16.7884C320.045 16.76 319.934 16.7128 319.796 16.7002C319.658 16.6876 319.492 16.7222 319.349 16.7144C319.16 16.7033 319.081 16.6608 319.132 16.6215C319.16 16.5994 319.215 16.5679 319.275 16.5632C320.128 16.5049 320.133 16.5049 320.372 16.5616C320.557 16.6057 320.727 16.6545 320.99 16.6277C321.212 16.6057 321.447 16.601 321.673 16.5868C321.986 16.5679 321.986 16.5695 322.493 16.6687C322.622 16.6939 322.761 16.6923 322.927 16.6782C323.07 16.6671 323.208 16.6923 323.323 16.7348C323.25 16.7884 323.143 16.823 323 16.8325C322.77 16.8482 322.544 16.8593 322.258 16.875Z" fill="#FFE492"/>
<path d="M313.77 16.3896C314.351 16.3565 314.936 16.3282 315.517 16.2904C315.757 16.2746 315.946 16.2919 316.112 16.3455C316.292 16.4038 316.495 16.399 316.716 16.388C316.854 16.3817 316.988 16.4069 317.08 16.451C317.117 16.4683 317.108 16.4998 317.122 16.525C316.615 16.5534 316.103 16.5833 315.591 16.6085C315.531 16.6116 315.457 16.5959 315.402 16.5833C315.278 16.5565 315.171 16.5093 315.038 16.4998C314.752 16.4778 314.466 16.5203 314.176 16.5282C314.037 16.5313 313.904 16.5077 313.811 16.4652C313.774 16.4447 313.784 16.4148 313.77 16.3896Z" fill="#FFE492"/>
<path d="M103.817 2.84905C104.421 2.81441 105.025 2.78135 105.629 2.7467C105.809 2.76875 105.892 2.80024 105.855 2.83962C105.832 2.86324 105.776 2.89631 105.721 2.89946C104.513 2.97033 103.305 3.03804 102.102 3.10576C101.922 3.08371 101.839 3.05222 101.876 3.01285C101.899 2.98922 101.954 2.95615 102.01 2.953C102.609 2.91678 103.213 2.8837 103.817 2.84905Z" fill="#FFE492"/>
<path d="M10.7439 11.6007C10.4718 11.6039 10.186 11.6621 9.88169 11.618C9.82175 11.6102 9.73874 11.585 9.74335 11.5708C9.75257 11.5472 9.80791 11.5172 9.86785 11.5078C10.1307 11.4684 10.4581 11.4637 10.5918 11.3535C10.6563 11.2968 10.7762 11.2779 10.9376 11.2669C11.1082 11.2543 11.228 11.259 11.3617 11.292C11.537 11.3346 11.6845 11.4133 11.9612 11.3724C11.975 11.3976 12.0072 11.4259 11.9934 11.4495C11.9795 11.4732 11.9197 11.4952 11.8644 11.5125C11.8136 11.5283 11.7444 11.5424 11.6799 11.5472C11.3755 11.5661 11.0712 11.5818 10.7439 11.6007Z" fill="#FFE492"/>
<path d="M250.541 11.2843C250.767 11.2717 251.003 11.2654 251.224 11.2434C251.399 11.2261 251.51 11.2371 251.648 11.2749C251.883 11.341 251.897 11.3347 252.473 11.3442C252.538 11.3458 252.616 11.3694 252.653 11.3899C252.676 11.4009 252.644 11.4308 252.616 11.4466C252.575 11.467 252.515 11.4938 252.46 11.4938C252.095 11.4985 251.726 11.5914 251.371 11.4844C251.192 11.4308 250.993 11.4056 250.749 11.4292C250.601 11.4434 250.445 11.4497 250.292 11.456C250.145 11.4623 249.993 11.445 249.901 11.3977C249.767 11.3284 249.845 11.3017 250.085 11.3064C250.237 11.3095 250.389 11.2922 250.541 11.2843Z" fill="#FFE492"/>
<path d="M334.108 22.1394C334.398 22.1237 334.689 22.1048 334.984 22.0922C335.044 22.089 335.118 22.1064 335.173 22.1174C335.394 22.1646 335.362 22.2449 335.371 22.3158C335.376 22.3898 334.864 22.4497 334.647 22.3993C334.407 22.3426 334.191 22.278 333.859 22.3127C333.73 22.3253 333.578 22.2969 333.495 22.2512C333.37 22.1851 333.439 22.1583 333.674 22.163C333.813 22.1662 333.96 22.1489 334.108 22.1394Z" fill="#FFE492"/>
<path d="M187.724 0.704323C188.024 0.687 188.323 0.66024 188.623 0.658665C188.798 0.65709 188.886 0.709051 188.844 0.746847C188.821 0.77047 188.766 0.803543 188.711 0.806693C188.111 0.844489 187.512 0.875992 186.912 0.910639C186.737 0.888591 186.65 0.855524 186.691 0.817728C186.714 0.794105 186.769 0.762607 186.825 0.757882C187.125 0.735834 187.424 0.721647 187.724 0.704323Z" fill="#FFE492"/>
<path d="M328.358 17.0133C328.648 16.9976 328.943 16.9739 329.234 16.9661C329.386 16.9629 329.506 16.9991 329.524 17.0401C329.533 17.059 329.46 17.0921 329.4 17.0999C328.985 17.1535 328.537 17.1598 328.104 17.1866C327.966 17.1944 327.818 17.1692 327.735 17.1251C327.611 17.0574 327.68 17.0322 327.915 17.037C328.062 17.0385 328.21 17.0212 328.358 17.0133Z" fill="#FFE492"/>
<path d="M258.158 11.4967C258.306 11.4889 258.458 11.4684 258.601 11.4747C258.753 11.4826 258.85 11.5282 258.896 11.5739C258.946 11.6259 258.942 11.6747 258.896 11.7188C258.822 11.7944 258.748 11.7913 258.578 11.7409C258.315 11.6621 258.296 11.6716 257.775 11.6747C257.715 11.6747 257.642 11.6511 257.595 11.6306C257.526 11.5991 257.563 11.5503 257.725 11.5219C257.844 11.5015 258.01 11.5046 258.158 11.4967Z" fill="#FFE492"/>
<path d="M317.555 16.4968C317.772 16.4842 317.988 16.4637 318.205 16.4637C318.357 16.4622 318.477 16.4984 318.491 16.5377C318.495 16.5566 318.426 16.5881 318.371 16.5976C318.108 16.6401 317.813 16.6433 317.527 16.6574C317.393 16.6637 317.246 16.6385 317.163 16.5944C317.038 16.5283 317.112 16.4984 317.338 16.5078C317.407 16.511 317.481 16.5015 317.555 16.4968Z" fill="#FFE492"/>
<path d="M283.449 14.5646C283.126 14.5835 282.822 14.5599 282.845 14.519C282.877 14.4654 283.011 14.4308 283.149 14.4213C283.371 14.4056 283.592 14.393 283.818 14.3835C283.961 14.3772 284.09 14.4008 284.205 14.4418C284.136 14.4922 284.03 14.5284 283.892 14.5394C283.749 14.5505 283.597 14.5568 283.449 14.5646Z" fill="#FFE492"/>
<path d="M281.331 14.3629C281.548 14.3503 281.764 14.3298 281.981 14.3298C282.133 14.3282 282.253 14.3645 282.267 14.4038C282.272 14.4227 282.202 14.4542 282.147 14.4637C281.884 14.5062 281.589 14.5094 281.303 14.5235C281.17 14.5298 281.022 14.5046 280.939 14.4605C280.815 14.3944 280.888 14.3645 281.114 14.3739C281.183 14.3771 281.257 14.3676 281.331 14.3629Z" fill="#FFE492"/>
<path d="M255.545 11.4841C255.762 11.4715 255.978 11.451 256.195 11.4495C256.347 11.4479 256.467 11.4841 256.481 11.5235C256.485 11.5424 256.416 11.5723 256.361 11.5833C256.098 11.6259 255.803 11.629 255.517 11.6432C255.383 11.6495 255.236 11.6243 255.153 11.5802C255.028 11.514 255.102 11.4841 255.328 11.4936C255.397 11.4967 255.471 11.4873 255.545 11.4841Z" fill="#FFE492"/>
<path d="M254.33 11.3911C254.561 11.3785 254.635 11.3707 254.709 11.3707C254.847 11.3707 254.99 11.3896 255.073 11.4352C255.197 11.5014 255.124 11.5203 254.898 11.5234C254.607 11.5266 254.321 11.5597 254.031 11.566C253.879 11.5691 253.759 11.5313 253.749 11.4919C253.745 11.473 253.814 11.44 253.869 11.4337C254.063 11.41 254.275 11.3959 254.33 11.3911Z" fill="#FFE492"/>
<path d="M279.455 2.12624C279.307 2.13412 279.15 2.15617 279.012 2.14829C278.828 2.13727 278.754 2.09475 278.8 2.05538C278.828 2.03333 278.878 2.00184 278.934 1.99711C279.229 1.97506 279.528 1.96088 279.824 1.94513C279.999 1.96875 280.077 2.00182 280.031 2.04119C280.003 2.06324 279.953 2.09316 279.897 2.09946C279.754 2.11521 279.602 2.11837 279.455 2.12624Z" fill="#FFE492"/>
<path d="M100.51 3.035C100.653 3.03342 100.782 3.05389 100.893 3.09327C100.824 3.14366 100.722 3.17673 100.584 3.19091C100.515 3.19721 100.436 3.20192 100.363 3.2035C100.22 3.20665 100.091 3.1846 99.98 3.14523C100.049 3.09483 100.155 3.06176 100.289 3.04759C100.358 3.04129 100.437 3.03972 100.51 3.035Z" fill="#FFE492"/>
<path d="M326.782 17.0071C326.777 16.9614 327.058 16.9095 327.312 16.911C327.446 16.9126 327.584 16.9347 327.662 16.9772C327.782 17.0418 327.713 17.067 327.487 17.0622C327.349 17.0591 327.201 17.0858 327.063 17.0811C326.906 17.0795 326.814 17.0449 326.782 17.0071Z" fill="#FFE492"/>
<path d="M259.494 11.6874C259.489 11.6701 259.466 11.6496 259.48 11.6339C259.568 11.5472 260.098 11.5205 260.236 11.5961C260.259 11.6102 260.269 11.6338 260.25 11.648C260.223 11.6701 260.172 11.6984 260.117 11.7047C259.974 11.7205 259.826 11.7283 259.679 11.7299C259.614 11.7299 259.554 11.7031 259.494 11.6874Z" fill="#FFE492"/>
<path d="M12.3839 11.3485C11.8398 11.3816 11.8306 11.3785 11.9274 11.2997C12.015 11.2288 12.1764 11.1863 12.4116 11.1863C12.4807 11.1863 12.5545 11.1832 12.6144 11.1895C12.679 11.1974 12.7712 11.2131 12.7851 11.232C12.8127 11.2682 12.7343 11.3076 12.5959 11.3344C12.536 11.347 12.4576 11.3438 12.3839 11.3485Z" fill="#FFE492"/>
<path d="M107.322 2.81301C107.161 2.83979 107.022 2.83034 106.921 2.77995C106.819 2.72955 106.981 2.6697 107.262 2.65553C107.336 2.65238 107.414 2.63979 107.483 2.64609C107.553 2.65081 107.622 2.6697 107.663 2.68859C107.737 2.72009 107.691 2.76262 107.543 2.79885C107.483 2.81302 107.396 2.80986 107.322 2.81301Z" fill="#FFE492"/>
<path d="M325.821 16.8888C325.863 16.8683 325.904 16.8478 325.951 16.8289C326.121 16.8557 326.195 16.8872 326.149 16.9234C326.121 16.9455 326.066 16.9644 326.024 16.9848C325.854 16.9581 325.785 16.925 325.821 16.8888Z" fill="#FFE492"/>
<path d="M19.6868 29.277C19.6868 29.2581 19.7513 29.2282 19.802 29.2219C19.8989 29.2108 20.0187 29.2329 20.1017 29.277C20.217 29.34 20.1479 29.373 19.9358 29.3557C19.7882 29.3431 19.6868 29.3116 19.6868 29.277Z" fill="#FFE492"/>
<path d="M261.373 10.2209C261.433 10.2351 261.493 10.2493 261.549 10.265C261.47 10.3233 261.373 10.3485 261.272 10.3328C261.207 10.3233 261.152 10.3044 261.092 10.2902C261.17 10.232 261.263 10.2099 261.373 10.2209Z" fill="#FFE492"/>
<path d="M259.777 10.1499C259.869 10.1263 259.98 10.1389 260.109 10.1846C260.067 10.205 260.03 10.2287 259.98 10.2444C259.892 10.2696 259.777 10.257 259.652 10.2098C259.689 10.1909 259.731 10.1704 259.777 10.1499Z" fill="#FFE492"/>
<path d="M258.553 10.2194C258.613 10.2335 258.673 10.2477 258.728 10.2635C258.65 10.3217 258.558 10.3469 258.452 10.3312C258.387 10.3217 258.332 10.3028 258.272 10.2886C258.35 10.2304 258.443 10.2068 258.553 10.2194Z" fill="#FFE492"/>
<path d="M257.657 10.1358C257.726 10.1673 257.689 10.2051 257.555 10.2476C257.495 10.2335 257.426 10.2225 257.38 10.2036C257.306 10.1736 257.343 10.1343 257.481 10.0917C257.537 10.1075 257.597 10.1217 257.657 10.1358Z" fill="#FFE492"/>
</svg>
