<svg width="517" height="39" viewBox="0 0 517 39" fill="none" xmlns="http://www.w3.org/2000/svg">
<path d="M482.818 19.9788C482.116 20.0114 481.406 20.0346 480.718 20.0824C480.272 20.1124 480.079 20.029 479.78 19.9861C479.68 19.9711 479.573 19.9409 479.481 19.945C478.786 19.9776 478.091 20.014 477.395 20.0505C477.184 20.1255 477.05 20.2251 476.724 20.2623C476.405 20.2976 476.029 20.2987 475.674 20.3169C475.206 20.3393 474.738 20.3617 474.27 20.3822C474.036 20.3925 473.844 20.4293 473.767 20.4982C473.753 20.5096 473.91 20.5378 473.995 20.5547C474.28 20.611 474.558 20.675 474.871 20.718C475.17 20.759 475.538 20.6893 475.858 20.7417C476.577 20.8597 476.584 20.8578 477.131 20.8332C477.599 20.8108 478.067 20.7866 478.535 20.7699C478.627 20.7658 478.734 20.7941 478.834 20.809C479.133 20.8501 479.326 20.9449 479.766 20.9073C480.099 20.8777 480.468 20.8709 480.815 20.8546C481.107 20.909 481.378 20.9711 481.691 21.014C481.983 21.0551 482.068 21.0873 481.913 21.1431C481.772 21.195 481.573 21.2166 481.311 21.2212C481.077 21.2238 480.843 21.2416 480.608 21.2519C480.488 21.258 480.374 21.2621 480.261 21.2682C479.814 21.2905 479.814 21.2905 478.996 21.1709C478.675 21.1242 478.315 21.192 478.009 21.1472C477.802 21.1173 477.624 21.0721 477.425 21.0402C477.339 21.0272 477.204 21.0256 477.098 21.0298C476.743 21.0442 476.388 21.0548 476.048 21.0806C475.807 21.0985 475.666 21.1523 475.695 21.2057C475.702 21.2266 475.873 21.2566 475.973 21.2582C476.2 21.2614 476.441 21.2339 476.661 21.2466C476.874 21.2593 477.095 21.2968 477.252 21.3383C477.573 21.425 477.933 21.3458 478.239 21.3677C478.559 21.3916 478.823 21.4671 479.129 21.5119C479.207 21.5231 479.356 21.5036 479.476 21.4975C479.824 21.4831 480.172 21.4706 480.519 21.4562C480.811 21.5107 481.124 21.5593 481.388 21.6215C481.865 21.7345 482.377 21.7768 482.994 21.7196C483.341 21.688 483.682 21.6985 483.96 21.772C484.245 21.8474 484.572 21.8388 484.934 21.8225C485.267 21.8062 485.607 21.7632 485.949 21.8156C486.689 21.9316 486.696 21.9373 487.568 21.8889C487.831 21.8748 488.03 21.8704 488.229 21.9136C488.414 21.9531 488.614 21.9869 488.806 22.0244C489.153 22.01 489.508 21.9956 489.856 21.9793C490.303 21.957 490.552 21.9829 490.66 22.0894C490.725 22.1541 490.754 22.2131 490.911 22.2565C491.096 22.3093 491.295 22.3068 491.564 22.2907C491.82 22.2766 492.004 22.2551 492.109 22.1861C492.152 22.1574 492.236 22.1304 492.314 22.1073C492.378 22.0899 492.477 22.063 492.534 22.0666C492.64 22.0739 492.782 22.0944 492.818 22.1191C493.17 22.3488 493.17 22.3508 493.526 22.4164C493.917 22.4896 494.323 22.5552 494.679 22.638C495 22.7114 495.319 22.6781 495.667 22.677C495.929 22.6762 496.1 22.7253 496.08 22.775C496.066 22.8036 495.967 22.8458 495.882 22.8499C495.187 22.8901 494.485 22.9247 493.782 22.9535C493.697 22.9576 493.59 22.9236 493.491 22.9067C493.291 22.873 493.113 22.8201 492.9 22.8093C492.687 22.7985 492.439 22.8279 492.205 22.8381C491.971 22.8483 491.722 22.8739 491.509 22.8593C491.296 22.8447 491.125 22.7899 490.925 22.7542C490.833 22.7373 490.705 22.7129 490.627 22.7189C490.109 22.7662 489.725 22.7044 489.355 22.6216C489.276 22.6047 489.141 22.5937 489.042 22.5978C488.219 22.6327 487.403 22.6733 486.58 22.712C486.247 22.7283 485.976 22.6623 485.903 22.55C485.867 22.4872 485.795 22.4245 485.794 22.3615C485.792 22.2471 485.401 22.1853 485.117 22.1996C484.649 22.22 484.173 22.2367 483.712 22.2667C483.336 22.2907 483.016 22.2688 482.76 22.2009C482.461 22.1236 482.12 22.1399 481.78 22.1619C481.524 22.178 481.454 22.2411 481.471 22.3994C481.487 22.5271 481.367 22.5675 480.906 22.5899C480.324 22.6183 479.735 22.6468 479.146 22.6696C479.054 22.6736 478.947 22.6415 478.855 22.6247C478.655 22.5909 478.477 22.5361 478.264 22.5253C478.051 22.5126 477.803 22.542 477.568 22.5541C477.334 22.5644 477.086 22.5918 476.873 22.5791C476.66 22.5664 476.482 22.5098 476.289 22.4741C476.197 22.4572 476.083 22.4327 475.991 22.4368C475.522 22.4535 475.054 22.4778 474.586 22.5002C474.061 22.5247 474.061 22.5247 473.314 22.4087C472.972 22.3563 472.632 22.3993 472.299 22.4155C471.944 22.4319 471.61 22.4405 471.332 22.365C471.147 22.316 470.941 22.2861 470.721 22.2963C470.132 22.321 469.55 22.3513 468.961 22.376C468.862 22.3801 468.727 22.371 468.649 22.3541C468.271 22.2751 467.901 22.2133 467.376 22.2549C466.923 22.2906 466.433 22.294 465.979 22.3278C465.731 22.3457 465.618 22.4071 465.668 22.4546C465.697 22.4793 465.847 22.5075 465.946 22.5072C466.173 22.5084 466.421 22.479 466.635 22.4898C467.075 22.5114 467.298 22.6709 467.872 22.6253C468.212 22.5976 468.567 22.587 468.922 22.5783C469.014 22.5761 469.114 22.612 469.214 22.6308C469.498 22.6814 469.748 22.7474 470.159 22.7119C470.5 22.6841 470.861 22.6754 471.209 22.6591C471.762 22.6327 471.762 22.6346 472.481 22.7488C472.823 22.803 473.163 22.7582 473.496 22.7438C473.745 22.7335 473.979 22.7137 474.178 22.7398C474.484 22.779 474.705 22.8698 475.081 22.863C475.436 22.8562 475.784 22.8284 476.138 22.8178C476.358 22.8115 476.565 22.8413 476.743 22.8923C476.928 22.9432 477.127 22.9655 477.369 22.9534C477.716 22.937 478.071 22.9169 478.426 22.9063C478.525 22.9041 478.639 22.9209 478.732 22.9359C478.931 22.9696 479.123 23.0091 479.315 23.0448C479.663 23.0323 480.018 23.0274 480.358 23.0035C480.621 22.9855 480.805 22.9926 481.019 23.0301C481.29 23.0808 481.511 23.1717 481.951 23.1265C482.17 23.1048 482.426 23.1098 482.646 23.09C482.915 23.0644 483.1 23.0734 483.292 23.1301C483.656 23.2377 484.11 23.2382 484.578 23.1948C485.089 23.1475 485.473 23.1998 485.858 23.2825C486.264 23.3691 486.264 23.3671 486.579 23.5779C486.672 23.6386 486.935 23.6665 487.155 23.6544C487.524 23.6342 487.844 23.6427 488.115 23.7144C488.4 23.7917 488.74 23.7812 489.088 23.7592C489.549 23.7292 490.01 23.703 490.388 23.8125C490.573 23.8653 490.772 23.878 491.021 23.8639C491.723 23.8275 492.432 23.8044 493.12 23.7604C493.539 23.7324 493.781 23.7927 494.066 23.8433C494.45 23.9127 494.87 23.9744 494.872 24.1251C494.873 24.1499 494.973 24.1782 495.058 24.197C495.243 24.2365 495.443 24.2702 495.635 24.3078C495.92 24.3641 496.197 24.411 496.587 24.3793C496.928 24.3535 497.289 24.3448 497.637 24.3265C497.985 24.3083 498.304 24.2978 498.617 24.3694C498.981 24.4503 499.365 24.5273 499.778 24.5871C500.07 24.6301 500.452 24.5546 500.765 24.6128C500.957 24.6484 501.143 24.6898 501.349 24.7197C501.434 24.7328 501.569 24.7228 501.683 24.7187C501.917 24.7104 502.158 24.7039 502.385 24.6842C502.647 24.6624 502.846 24.6656 503.046 24.7089C503.231 24.7484 503.416 24.8031 503.629 24.8139C503.949 24.8301 504.303 24.7528 504.624 24.8395C504.788 24.8829 504.994 24.9242 505.207 24.937C505.42 24.9497 505.668 24.9203 505.896 24.9215C505.995 24.9212 506.116 24.9514 506.173 24.976C506.209 24.9892 506.16 25.0256 506.111 25.0448C506.047 25.0679 505.955 25.0987 505.863 25.1028C505.161 25.1393 504.458 25.17 503.756 25.2045C503.337 25.2249 503.337 25.2249 502.491 25.1073C502.292 25.0792 502.072 25.0856 501.823 25.0997C501.49 25.1179 501.15 25.1513 500.801 25.1181C500.345 24.9898 499.784 24.98 499.188 25.0314C498.94 25.0531 498.713 25.0538 498.528 25.0181C498.136 24.9468 497.724 24.8813 497.374 24.7965C497.104 24.7306 496.976 24.7253 496.864 24.8171C496.829 24.8459 496.794 24.8765 496.801 24.9031C496.845 24.9984 496.925 25.0916 496.969 25.1868C496.983 25.2135 496.927 25.2442 496.892 25.2729C496.78 25.3533 496.63 25.348 496.381 25.282C496.131 25.216 495.833 25.1731 495.436 25.2048C495.095 25.2325 494.726 25.2298 494.386 25.2595C493.861 25.303 493.491 25.2431 493.113 25.1622C493.035 25.1453 492.9 25.1361 492.801 25.1403C491.744 25.1873 490.694 25.2401 489.637 25.2871C489.41 25.2973 489.203 25.2693 489.025 25.2184C488.84 25.1674 488.633 25.1414 488.406 25.1516C487.47 25.1945 486.533 25.2335 485.597 25.2859C485.214 25.3081 484.908 25.2842 484.645 25.2182C484.445 25.1692 484.26 25.1545 484.012 25.161C483.742 25.1675 483.551 25.1872 483.417 25.2429C483.29 25.2967 483.383 25.3288 483.667 25.3699C483.973 25.4148 484.258 25.4731 484.55 25.5256C484.784 25.5172 485.018 25.5013 485.245 25.5025C485.345 25.5022 485.438 25.5362 485.537 25.555C485.822 25.6095 486.086 25.664 486.49 25.6323C486.83 25.6045 487.192 25.5977 487.54 25.5795C488.022 25.5571 488.022 25.5571 488.805 25.6749C489.004 25.7048 489.217 25.7022 489.472 25.6843C489.692 25.6703 489.92 25.6963 490.077 25.753C490.141 25.7757 490.12 25.814 489.987 25.9402C489.989 26.0337 490.137 25.9913 490.186 25.9301C490.263 25.8421 490.113 25.814 489.83 25.8625C489.632 25.8974 489.533 25.9473 489.583 25.9872C489.612 26.0081 489.747 26.0344 489.987 25.9402C490.61 25.8239 491.086 25.8091 491.54 25.7772C491.809 25.7593 491.98 25.7664 492.193 25.8153C492.45 25.8737 492.706 25.9359 493.125 25.9041C493.579 25.8684 494.061 25.8631 494.522 25.8331C494.948 25.8051 495.169 25.8884 495.44 25.9372C495.767 25.9953 496.128 25.9275 496.427 25.9609C496.74 25.9943 496.961 26.0775 497.323 26.0917C497.848 26.0386 498.183 26.133 498.581 26.1947C498.894 26.2414 499.263 26.1984 499.596 26.1764C499.972 26.1524 500.285 26.1724 500.549 26.2403C500.848 26.3176 501.181 26.2994 501.522 26.2812C502.316 26.2407 502.345 26.2349 502.808 26.3384C503.142 26.4136 503.462 26.3784 503.795 26.3678C504.087 26.4184 504.372 26.4729 504.678 26.5177C504.756 26.5289 504.905 26.5094 505.025 26.5033C505.373 26.487 505.728 26.4707 506.075 26.4544C506.309 26.4442 506.557 26.4148 506.77 26.4256C506.984 26.4383 507.162 26.4931 507.354 26.5288C507.546 26.5644 507.746 26.6 507.931 26.6376C508.216 26.694 508.486 26.7409 508.883 26.7111C509.224 26.6852 509.579 26.6765 509.933 26.6583C510.38 26.636 510.366 26.6417 511.198 26.7537C511.647 26.8153 512.107 26.7376 512.561 26.7286C512.788 26.7241 513.009 26.7444 513.166 26.7992C513.23 26.8219 513.209 26.8601 513.231 26.8925C512.06 26.9475 510.883 26.9949 509.726 27.0613C509.279 27.0875 509.044 27.0195 508.802 26.963C508.403 26.8727 507.88 27.0078 507.502 26.8907C507.273 26.8208 506.946 26.7817 506.556 26.8172C506.329 26.837 506.088 26.8358 505.854 26.8537C505.258 26.8974 504.712 26.901 504.234 26.7708C504.07 26.7256 503.836 26.7015 503.665 26.6581C503.465 26.611 503.273 26.5849 503.039 26.5951C501.982 26.6441 500.932 26.693 499.882 26.7458C499.79 26.7499 499.698 26.7788 499.62 26.8C499.422 26.854 499.487 26.8958 499.807 26.9291C499.913 26.9402 499.999 26.9648 500.099 26.9835C500.291 27.0192 500.469 27.0759 500.682 27.0886C500.895 27.1013 501.144 27.0739 501.378 27.0636C501.612 27.0534 501.86 27.024 502.073 27.0348C502.286 27.0475 502.464 27.1023 502.664 27.136C502.756 27.1529 502.87 27.1812 502.963 27.179C503.431 27.1661 503.892 27.1438 504.36 27.1252C504.652 27.1758 504.902 27.2494 505.25 27.2656C505.47 27.2763 505.704 27.2546 505.931 27.2578C506.031 27.2594 506.159 27.2876 506.209 27.3123C506.238 27.3274 506.146 27.3659 506.075 27.3851C505.807 27.4584 505.437 27.4462 505.104 27.4701C504.742 27.4959 504.416 27.4893 504.138 27.4158C503.952 27.3667 503.746 27.3407 503.519 27.3509C502.93 27.3775 502.348 27.4078 501.759 27.4306C501.66 27.4347 501.539 27.4179 501.447 27.4048C500.7 27.2907 500.699 27.2869 500.174 27.3133C499.401 27.3518 499.401 27.3518 498.882 27.2523C498.782 27.2335 498.675 27.1976 498.59 27.1998C497.767 27.2328 496.951 27.2658 496.135 27.3121C495.865 27.3262 495.681 27.3268 495.481 27.2778C495.31 27.2364 495.111 27.1893 494.898 27.1785C494.677 27.1677 494.436 27.1971 494.202 27.2073C493.968 27.2175 493.72 27.2431 493.514 27.2284C493.301 27.2138 493.115 27.161 492.93 27.1234C492.738 27.0839 492.532 27.0864 492.27 27.1025C491.461 27.1488 491.454 27.1431 490.65 27.0273C490.557 27.0142 490.437 26.9993 490.337 27.0034C489.748 27.0281 489.167 27.0584 488.578 27.0831C488.351 27.0933 488.13 27.0692 487.973 27.0144C487.909 26.9917 487.93 26.9534 487.886 26.8792C487.836 26.8622 487.893 26.8925 487.908 26.9211C488.014 26.917 488.142 26.9204 488.22 26.9049C488.418 26.8681 488.517 26.8201 488.467 26.7802C488.438 26.7593 488.303 26.733 488.218 26.7332C488.061 26.7337 487.927 26.7761 487.886 26.8792C487.44 26.9435 486.964 26.9583 486.503 26.9902C486.234 27.0101 486.063 27.001 485.85 26.9521C485.593 26.8918 485.33 26.8335 484.911 26.8653C484.457 26.901 483.975 26.9082 483.507 26.9363C482.968 26.9684 482.731 26.7975 482.276 26.8026C481.808 26.8079 481.34 26.8417 480.872 26.866C480.46 26.8863 480.46 26.8863 479.606 26.7649C479.293 26.7201 478.925 26.7879 478.619 26.7412C478.413 26.7113 478.235 26.6661 478.035 26.6342C477.95 26.6211 477.815 26.6215 477.709 26.6257C477.12 26.6503 476.524 26.6674 475.957 26.7111C475.311 26.7626 474.821 26.7107 474.358 26.5995C473.776 26.6223 473.187 26.6355 472.612 26.6735C472.194 26.7014 471.951 26.6392 471.667 26.5886C471.567 26.5717 471.481 26.5434 471.375 26.536C471.268 26.5287 471.141 26.5444 471.027 26.5504C470.559 26.5728 470.076 26.5838 469.622 26.6195C469.062 26.6651 468.847 26.5093 468.414 26.4916C468.124 26.5859 467.97 26.7141 467.395 26.7254C466.927 26.7344 466.458 26.7664 465.99 26.7888C465.756 26.799 465.522 26.8112 465.288 26.8214C464.912 26.8397 464.736 26.9146 464.815 27.0288C464.859 27.0916 464.895 27.1544 464.932 27.2173C465.005 27.3296 464.829 27.4255 464.531 27.4397C463.708 27.4784 462.892 27.519 462.069 27.5539C461.849 27.5641 461.635 27.5323 461.457 27.4814C461.272 27.4304 461.066 27.4082 460.839 27.4184C460.016 27.4571 459.2 27.4977 458.377 27.5326C458.285 27.5367 458.164 27.518 458.071 27.503C457.872 27.4693 457.68 27.4298 457.487 27.3942C457.019 27.4128 456.558 27.4256 456.097 27.4498C455.352 27.4864 455.352 27.4883 454.804 27.3851C454.704 27.3663 454.604 27.3304 454.512 27.3326C454.157 27.3413 453.809 27.3614 453.455 27.3796C452.412 27.4324 452.412 27.4323 452.106 27.376C451.828 27.3235 451.579 27.2594 451.16 27.2912C450.706 27.3269 450.224 27.3398 449.756 27.3602C449.408 27.3746 449.06 27.391 448.713 27.3958C448.62 27.398 448.52 27.3621 448.421 27.3433C448.136 27.285 447.858 27.2382 447.468 27.2718C447.241 27.2915 447 27.2961 446.766 27.3063C446.156 27.3349 446.156 27.3348 445.153 27.2234C445.054 27.2123 444.933 27.1993 444.833 27.2053C444.01 27.2421 443.195 27.2827 442.372 27.3176C442.272 27.3218 442.152 27.3107 442.052 27.3014C440.929 27.1942 440.929 27.1942 439.737 27.2512C439.283 27.2716 439.269 27.2793 438.791 27.1797C438.578 27.1364 438.4 27.116 438.152 27.1301C437.215 27.1787 436.272 27.212 435.343 27.2683C434.924 27.2924 434.682 27.2359 434.397 27.1853C434.297 27.1684 434.19 27.1306 434.105 27.1328C433.169 27.1718 432.232 27.2185 431.296 27.2576C431.211 27.2616 431.104 27.2238 431.004 27.2069C430.812 27.1732 430.626 27.1222 430.413 27.1114C430.193 27.1007 429.952 27.13 429.711 27.1403C429.122 27.1668 429.122 27.1649 428.439 27.0545C428.346 27.0395 428.225 27.0189 428.133 27.023C427.196 27.0639 426.253 27.0992 425.324 27.1573C424.792 27.1894 424.429 27.1352 424.051 27.0562C423.973 27.0393 423.838 27.0321 423.739 27.0362C422.682 27.0832 421.632 27.136 420.575 27.183C420.355 27.1932 420.141 27.1615 419.963 27.1124C419.678 27.0351 419.344 27.0456 418.99 27.0638C418.174 27.1063 418.167 27.1045 417.683 27.0144C417.583 26.9956 417.497 26.9711 417.391 26.9619C417.291 26.9526 417.164 26.9587 417.057 26.9629C416.589 26.9833 416.121 27.0057 415.652 27.0281C415.184 27.0505 414.709 27.0634 414.248 27.0972C413.68 27.139 413.409 27.0158 413.01 26.9598C412.429 26.9863 411.833 27.0034 411.258 27.0452C410.818 27.077 410.611 26.9937 410.32 26.9507C410.22 26.9358 410.113 26.9037 410.021 26.9078C408.964 26.9529 407.907 27.0019 406.857 27.0565C406.601 27.0687 406.431 27.054 406.217 27.0089C405.74 26.9073 405.719 26.9112 404.924 26.9517C404.576 26.9699 404.243 26.9862 403.944 26.9089C403.68 26.8391 403.36 26.8229 402.984 26.8469C402.523 26.8769 402.048 26.8936 401.58 26.9141C401.112 26.9365 400.643 26.9665 400.175 26.9775C399.799 26.9881 399.57 26.8992 399.272 26.8543C399.179 26.8413 399.051 26.8397 398.945 26.8439C398.477 26.8624 397.994 26.8772 397.54 26.911C396.987 26.9527 396.68 26.8488 396.289 26.7889C396.203 26.7758 396.061 26.7839 395.955 26.7899C395.132 26.8267 394.316 26.8673 393.493 26.906C393.202 26.8554 392.903 26.8068 392.611 26.7561C392.143 26.7766 391.674 26.799 391.206 26.8195C390.851 26.8358 390.489 26.8426 390.156 26.8722C389.724 26.9117 389.509 26.8227 389.218 26.7797C389.118 26.7647 389.011 26.7326 388.919 26.7367C388.33 26.7595 387.741 26.7842 387.159 26.8183C386.606 26.8524 386.384 26.6814 385.929 26.6847C385.461 26.688 384.978 26.7143 384.525 26.75C384 26.7916 383.63 26.7317 383.252 26.6508C383.174 26.6339 383.039 26.6248 382.94 26.6289C382.351 26.6535 381.769 26.6839 381.18 26.7085C381.081 26.7127 380.96 26.7035 380.86 26.6924C379.737 26.5832 379.737 26.5813 379.248 26.6057C378.9 26.622 378.545 26.6421 378.191 26.6527C378.091 26.6568 377.97 26.64 377.878 26.625C377.138 26.5109 377.137 26.509 376.605 26.5335C376.137 26.5559 375.669 26.5783 375.201 26.6007C374.909 26.5501 374.61 26.5014 374.318 26.4508C373.736 26.4773 373.14 26.4982 372.566 26.5342C372.296 26.5503 372.119 26.5451 371.912 26.4981C371.656 26.4416 371.399 26.3756 370.974 26.4093C370.52 26.445 370.037 26.4503 369.576 26.4803C369.023 26.5163 368.793 26.3434 368.346 26.3467C367.878 26.35 367.395 26.3762 366.941 26.4119C366.417 26.4536 366.047 26.3937 365.669 26.3128C365.591 26.2959 365.456 26.2867 365.356 26.2909C364.065 26.3501 362.781 26.4092 361.49 26.4722C360.696 26.5109 360.696 26.5128 359.182 26.4124C359.075 26.4051 358.961 26.3979 358.855 26.402C358.387 26.4206 357.904 26.4354 357.45 26.4691C356.897 26.5109 356.59 26.4088 356.199 26.347C356.114 26.3339 355.979 26.342 355.865 26.3461C355.511 26.3605 355.163 26.3788 354.808 26.3951C354.34 26.4175 353.872 26.4399 353.404 26.4623C353.112 26.4136 352.813 26.363 352.521 26.3143C351.939 26.3408 351.343 26.3559 350.769 26.3977C350.329 26.4296 350.122 26.3501 349.83 26.3052C349.731 26.2902 349.624 26.2581 349.531 26.2603C348.474 26.3055 347.417 26.3525 346.367 26.4091C345.935 26.4333 345.735 26.348 345.443 26.305C345.343 26.292 345.229 26.2676 345.137 26.2717C344.435 26.3005 343.732 26.335 343.03 26.3695C342.633 26.3898 342.633 26.3898 341.765 26.2742C341.665 26.2611 341.552 26.2481 341.452 26.2522C339.225 26.3543 337.004 26.4621 334.777 26.5642C334.549 26.5744 334.343 26.5464 334.165 26.4954C333.98 26.4445 333.773 26.4184 333.546 26.4286C332.61 26.4715 331.666 26.5106 330.737 26.563C330.354 26.5851 330.048 26.5612 329.785 26.4953C329.585 26.4463 329.4 26.4278 329.152 26.44C328.684 26.4643 328.216 26.4847 327.747 26.5071C327.279 26.5295 326.811 26.5519 326.343 26.5743C325.875 26.5967 325.399 26.6096 324.938 26.6434C324.371 26.6851 324.092 26.5677 323.701 26.5098C322.998 26.5405 322.296 26.5712 321.601 26.6038C320.664 26.6467 319.728 26.6934 318.791 26.7344C318.706 26.7384 318.599 26.7044 318.5 26.6876C318.208 26.6408 317.994 26.5747 317.561 26.5969C315.461 26.7043 313.347 26.7965 311.24 26.9021C310.8 26.9244 310.607 26.8429 310.309 26.8C310.209 26.7869 310.095 26.7606 310.003 26.7647C308.832 26.8159 307.662 26.8728 306.491 26.9278C306.016 26.9502 306.016 26.9502 305.219 26.8344C305.127 26.8213 305.005 26.8045 304.906 26.8086C303.381 26.878 301.863 26.9513 300.337 27.0226C300.11 27.0329 299.904 27.0068 299.719 26.9558C299.541 26.9049 299.327 26.8769 299.107 26.8871C297.703 26.9524 296.291 27.0157 294.893 27.0867C294.517 27.1069 294.205 27.0907 293.934 27.0229C293.741 26.9738 293.549 26.9534 293.308 26.9656C291.201 27.0654 289.094 27.1614 286.987 27.2669C286.583 27.2872 286.298 27.2518 286.042 27.1897C285.835 27.1407 285.658 27.1317 285.402 27.1401C285.133 27.1504 284.97 27.1719 284.821 27.2296C284.631 27.3045 284.512 27.3983 284.057 27.4054C283.589 27.4126 283.114 27.4369 282.653 27.4707C282.213 27.5045 282.006 27.4192 281.728 27.3686C281.522 27.333 281.33 27.3278 281.068 27.3458C280.827 27.3618 280.678 27.3946 280.537 27.4561C280.227 27.5867 280.198 27.5868 279.814 27.5059C279.607 27.4627 279.422 27.4289 279.195 27.4372C278.258 27.4782 277.322 27.523 276.385 27.5697C275.846 27.5961 275.839 27.5999 275.433 27.5058C275.234 27.4587 275.042 27.4364 274.808 27.4485C272.232 27.5707 269.657 27.6891 267.082 27.817C266.685 27.8373 266.414 27.7981 266.13 27.7417C266.037 27.7229 265.944 27.6965 265.838 27.6892C265.731 27.6819 265.611 27.6899 265.497 27.694C263.624 27.7817 261.744 27.8655 259.878 27.9627C259.453 27.985 259.225 27.9246 258.933 27.8759C258.833 27.8591 258.748 27.8326 258.641 27.8253C258.534 27.8199 258.407 27.8336 258.293 27.8397C256.42 27.9273 254.54 28.0112 252.675 28.1084C252.228 28.1307 252.035 28.0512 251.743 28.0101C251.644 27.9951 251.537 27.9668 251.445 27.9709C250.856 27.9937 250.274 28.0241 249.685 28.0506C248.28 28.1178 246.876 28.1812 245.471 28.2502C244.932 28.2767 244.695 28.1076 244.241 28.1166C243.652 28.1279 243.07 28.1678 242.481 28.1963C242.013 28.2187 241.545 28.2392 241.077 28.2635C240.616 28.2858 240.616 28.2858 239.464 28.1787C239.364 28.1694 239.244 28.1565 239.144 28.1606C237.505 28.2361 235.86 28.3116 234.228 28.3928C233.852 28.4111 233.539 28.4025 233.269 28.3328C233.076 28.2838 232.877 28.2596 232.643 28.2717C230.181 28.3878 227.727 28.504 225.265 28.6182C225.173 28.6223 225.052 28.6035 224.959 28.5886C224.76 28.5548 224.567 28.5154 224.375 28.4797C224.234 28.524 224.05 28.5646 223.959 28.6145C223.832 28.6816 223.662 28.7012 223.392 28.7134C223.123 28.7257 222.952 28.7224 222.738 28.6735C222.482 28.6132 222.218 28.5663 221.8 28.5866C219.225 28.7145 216.649 28.831 214.074 28.957C213.649 28.9774 213.449 28.8941 213.15 28.8511C213.05 28.838 212.936 28.8174 212.844 28.8215C211.787 28.8686 210.737 28.9194 209.68 28.9684C206.75 29.1069 203.82 29.2397 200.897 29.3858C200.365 29.4122 200.003 29.3656 199.625 29.2847C199.547 29.2678 199.412 29.2587 199.312 29.2628C195.212 29.4544 191.111 29.648 187.018 29.8415C186.798 29.8517 186.585 29.8218 186.406 29.7727C186.221 29.7218 186.015 29.6976 185.788 29.7079C183.915 29.7955 182.042 29.8832 180.169 29.9727C179.701 29.9951 179.694 29.997 179.21 29.9069C179.11 29.8882 179.003 29.8523 178.925 29.8563C178.762 29.8664 178.606 29.9145 178.494 29.9797C178.381 30.0487 178.204 30.0683 177.942 30.0824C177.672 30.0966 177.495 30.0914 177.288 30.0463C177.024 29.9898 176.782 29.9353 176.357 29.9556C170.972 30.216 165.587 30.4667 160.203 30.7252C159.77 30.7456 159.57 30.6661 159.271 30.6231C159.172 30.6101 159.072 30.5913 158.966 30.5878C158.852 30.5843 158.732 30.5961 158.618 30.6022C149.835 31.0158 141.053 31.4313 132.27 31.845C131.745 31.8694 131.752 31.8694 131.18 32.0466C131.109 32.0678 131.017 32.0967 130.918 32.1008C128.229 32.2309 125.533 32.3573 122.838 32.4837C121.667 32.5387 120.497 32.5956 119.326 32.6488C118.907 32.6672 118.907 32.6672 117.91 32.8762C117.825 32.8936 117.726 32.9168 117.626 32.9209C112.944 33.1429 108.262 33.3649 103.572 33.5831C103.204 33.5994 102.906 33.6347 102.737 33.7267C102.617 33.7919 102.462 33.8305 102.228 33.8427C98.9501 33.9975 95.6727 34.1542 92.388 34.3053C91.9978 34.3236 91.7642 34.3777 91.5738 34.4584C91.5103 34.4853 91.4539 34.516 91.3619 34.5353C91.277 34.5527 91.1494 34.5588 91.0429 34.5649C88.2336 34.6973 85.4244 34.8336 82.6079 34.9603C82.1894 34.9787 82.02 35.0498 81.8152 35.1248C81.7446 35.1498 81.6954 35.1843 81.6034 35.2017C81.5113 35.2173 81.3765 35.2177 81.2629 35.2218C78.9218 35.3319 76.5808 35.4438 74.2397 35.5539C73.7852 35.5457 73.6875 35.6566 73.4684 35.724C73.3907 35.7472 73.3345 35.7778 73.2424 35.7934C73.1433 35.8089 73.0153 35.8074 72.8947 35.8116C71.0218 35.8992 69.149 35.9926 67.269 36.0746C66.8362 36.093 66.7524 36.1905 66.5192 36.258C66.4414 36.2792 66.3639 36.3119 66.2717 36.3179C65.1012 36.3767 63.9307 36.4317 62.7601 36.4848C62.3699 36.5032 62.3699 36.5013 61.6842 36.6922C61.6064 36.7134 61.5144 36.7366 61.4151 36.7426C59.6628 36.828 57.9035 36.9095 56.1441 36.993C55.9171 37.0033 55.7617 37.0495 55.6491 37.1147C55.5365 37.1799 55.3739 37.2223 55.1468 37.2325C53.7422 37.2997 52.3374 37.3688 50.9327 37.4302C50.5425 37.4467 50.2877 37.4951 50.1187 37.5814C49.9919 37.6467 49.8362 37.6796 49.5879 37.6917C48.1832 37.757 46.7787 37.828 45.3668 37.8857C44.9553 37.9022 44.7432 37.9676 44.574 38.0483C44.4402 38.1135 44.2843 38.1369 44.0218 38.1491C41.4466 38.2675 38.8643 38.3859 36.2963 38.5157C35.8636 38.5379 35.6424 38.4719 35.3577 38.425C34.9521 38.3595 34.5748 38.2882 34.5726 38.1394C34.5722 38.1165 34.4511 38.0902 34.3656 38.0714C33.7316 37.9302 33.7316 37.9302 33.6299 37.778C33.5717 37.6847 33.5063 37.5895 33.4552 37.4943C33.3605 37.3382 33.1326 37.2989 32.48 37.3294C32.2458 37.3397 32.0118 37.3537 31.7776 37.362C31.43 37.3764 31.1664 37.3143 31.1007 37.2001C31.0643 37.1372 31.0208 37.0744 30.9843 37.0116C31.3391 36.9953 31.3318 36.9934 31.953 36.7608C32.2142 36.6627 32.2143 36.6627 31.7088 36.5669C31.5166 36.5313 31.3313 36.4918 31.1249 36.4581C31.0324 36.4431 30.9116 36.4339 30.8123 36.438C30.2234 36.4627 29.6418 36.4912 29.06 36.5196C28.1236 36.5644 28.1235 36.5644 27.1693 36.3727C27.0909 36.3577 26.9698 36.3295 26.9838 36.3142C27.0608 36.2434 27.252 36.2123 27.4932 36.2039C27.848 36.1914 28.1955 36.1713 28.5432 36.155C28.7773 36.1447 29.0114 36.1326 29.2455 36.1224C29.4645 36.0492 29.6907 35.978 29.8954 35.903C30.2202 35.7876 30.22 35.7837 29.7716 35.705C29.4868 35.6524 29.1808 35.6057 28.889 35.557C28.5414 35.5733 28.1867 35.5915 27.8391 35.6059C27.3992 35.6244 27.2211 35.5887 27.1057 35.4651C27.0046 35.3567 27.1239 35.2629 27.4643 35.2389C27.8118 35.215 28.1382 35.1988 28.3142 35.101C28.4832 35.007 28.7807 34.9699 29.1498 34.9611C29.384 34.9547 29.618 34.9406 29.8521 34.9285C30.1571 34.9123 30.319 34.8146 30.2534 34.706C30.2168 34.6356 30.1449 34.5767 29.8678 34.5623C28.6387 34.4992 28.6244 34.5012 28.0119 34.3733C27.955 34.362 27.9119 34.3278 27.933 34.3106C27.968 34.2819 28.0455 34.2397 28.1306 34.2337C28.9464 34.1893 29.7621 34.1487 30.5781 34.1176C30.8477 34.1073 31.0463 34.0933 31.1375 34.0225C31.2638 33.9248 31.2056 33.8354 30.9562 33.7694C30.8777 33.7486 30.7494 33.7223 30.6643 33.7245C29.7277 33.7616 28.7985 33.8083 27.8619 33.8454C27.7768 33.8495 27.6202 33.8176 27.5843 33.7929C27.5126 33.7473 27.6181 33.686 27.8663 33.6643C28.1924 33.6347 28.526 33.6317 28.7446 33.5357C29.0478 33.3994 29.4221 33.2743 29.7609 33.1436C29.8173 33.1206 29.9091 33.0764 29.8877 33.0726C29.7096 33.0312 29.5032 32.9994 29.318 32.9599C29.0046 32.8941 29.0032 32.8007 29.0728 32.7108C29.1285 32.6382 29.341 32.6089 29.6037 32.6081C29.7172 32.6078 29.8592 32.6074 29.9512 32.5899C30.192 32.5472 30.2693 32.4936 30.148 32.4539C30.0766 32.4312 29.9484 32.3992 29.8633 32.4033C28.3451 32.4708 26.8196 32.5364 25.3087 32.6192C24.8618 32.6434 24.655 32.5715 24.3844 32.5209C24.1779 32.4814 23.9859 32.4667 23.7308 32.4961C23.4898 32.5236 23.2554 32.509 23.1053 32.4465C22.9839 32.3954 23.1961 32.3509 23.7704 32.2996C23.8767 32.2897 23.9973 32.2836 24.0751 32.2643C24.8954 32.0559 24.8954 32.054 25.4629 32.0256C26.0162 31.9991 26.0163 31.9972 26.3057 31.8857C26.4398 31.8338 26.588 31.7818 26.7149 31.7281C26.7643 31.7069 26.849 31.6685 26.8205 31.6572C26.6634 31.5985 26.4501 31.5858 26.2019 31.5999C25.6486 31.634 24.9952 31.6093 24.7069 31.7913C24.5944 31.8603 24.4172 31.8799 24.1618 31.8922C21.5936 32.0105 19.0255 32.1365 16.4502 32.2511C16.0316 32.2695 15.8411 32.3406 15.679 32.4193C15.538 32.4846 15.3821 32.5041 15.1125 32.5164C14.8429 32.5286 14.63 32.535 14.4728 32.4725C14.3799 32.4347 14.4572 32.381 14.6694 32.327C14.9735 32.2498 14.9152 32.1546 14.8145 32.0653C14.7426 32.0064 14.5219 31.9651 14.2877 31.9696C13.9399 31.9783 13.6067 32.0002 13.3144 31.9248C13.1434 31.8815 12.9299 31.8516 12.7377 31.814C12.3673 31.7369 11.9969 31.658 11.4795 31.711C11.1243 31.693 10.8747 31.6251 10.59 31.5726C10.113 31.4863 10.0702 31.473 10.4095 31.3786C10.7913 31.2725 10.491 31.1361 10.7023 31.0325C10.9278 30.9212 11.2388 30.823 11.5141 30.7192C11.5847 30.6923 11.6482 30.6673 11.7188 30.6403C11.5549 30.6027 11.4052 30.5555 11.2131 30.5293C10.9641 30.4958 10.8357 30.4542 10.8481 30.3359C10.7981 30.3189 10.8199 30.3627 10.8769 30.374C10.941 30.3852 11.0971 30.3752 11.175 30.3616C11.3732 30.3248 11.4718 30.2768 11.4215 30.2369C11.3927 30.216 11.2576 30.1897 11.1724 30.19C11.0162 30.1904 10.882 30.2328 10.8409 30.3359C10.047 30.4165 9.22401 30.4571 8.40099 30.4901C8.31586 30.4942 8.20886 30.4564 8.10918 30.4376C7.78163 30.3737 7.78162 30.3756 6.82296 30.3595C6.72354 30.3579 6.58832 30.3316 6.53822 30.305C6.33058 30.1893 6.33578 30.0615 6.2345 29.9378C6.41785 29.8572 6.60109 29.7784 6.79157 29.6997C7.1725 29.5402 7.66741 29.3995 7.96292 29.225C7.8976 29.1318 7.81098 29.0386 8.12217 28.9614C9.00809 28.8633 9.00105 28.8634 9.24102 28.7711C9.92566 28.5096 10.6031 28.2463 11.3162 27.9886C11.5069 27.9213 11.5064 27.885 11.1652 27.8575C11.0586 27.8501 10.9448 27.8486 10.8313 27.8527C10.4765 27.8671 10.1221 27.9025 9.77414 27.896C9.42621 27.8913 9.16936 27.8081 8.88461 27.7575C8.59274 27.705 8.30085 27.6506 8.00894 27.5961C7.67537 27.6029 7.3426 27.6573 7.00763 27.5724C6.75105 27.5065 6.43088 27.4597 6.13898 27.4053C6.35684 27.2597 6.76695 27.1478 7.08446 27.0191C7.37374 26.9019 7.38071 26.9038 8.16024 26.8118C8.52874 26.7687 8.65324 26.5528 8.33993 26.4908C7.96251 26.4157 7.56397 26.3463 7.17952 26.275C6.84595 26.2817 6.50605 26.3343 6.18529 26.2494C5.93583 26.1853 5.65114 26.1423 5.23978 26.1683C4.54471 26.2124 3.83515 26.2355 3.13287 26.2719C2.89168 26.2841 2.62882 26.2773 2.52135 26.2127C2.44966 26.1672 2.65458 26.1036 2.88865 26.0896C3.24331 26.0694 3.56238 26.0456 3.7384 25.9497C3.90732 25.8538 4.21921 25.8243 4.58815 25.8098C4.68748 25.8057 4.8008 25.7825 4.85014 25.7594C5.10402 25.648 5.38654 25.5518 5.93323 25.554C6.15981 25.5152 6.27969 25.4671 6.208 25.4216C6.16503 25.3969 6.01553 25.3649 5.9304 25.369C5.34148 25.3899 4.75257 25.4107 4.17807 25.4468C3.90854 25.4628 3.70262 25.4673 3.53137 25.4106C3.4101 25.3728 3.4732 25.3211 3.69952 25.2651C3.89757 25.2168 3.95358 25.1613 3.93839 25.0965C3.90059 24.946 3.68691 24.9028 3.00555 24.9144C2.51583 24.9235 2.39476 24.899 2.2863 24.7697C2.25744 24.7392 2.18593 24.6975 2.2353 24.6764C2.53858 24.5458 2.73492 24.385 3.30901 24.3222C3.53583 24.2986 3.7771 24.2979 3.91832 24.2479C4.05955 24.1979 4.18652 24.1403 4.33487 24.0921C4.51857 24.0344 4.64541 23.9806 4.55967 23.9446C4.4167 23.8802 4.18952 23.8752 3.92721 23.8989C3.70033 23.9186 3.459 23.9212 3.22491 23.9334C2.80638 23.9556 2.46495 23.9071 2.41397 23.8233C2.27572 23.6025 2.13034 23.3836 2.00628 23.1627C1.99168 23.1361 2.02655 23.1016 2.08299 23.0786C2.28054 22.9979 2.49243 22.9209 2.69711 22.8421C2.93711 22.7518 3.32078 22.7678 3.64707 22.7496C4.10813 22.7234 4.108 22.7253 4.72282 22.5404C4.96308 22.4672 5.38238 22.4946 5.62986 22.429C5.70763 22.4077 5.82779 22.373 5.8062 22.354C5.77742 22.3293 5.63523 22.3107 5.52857 22.2996C5.42901 22.2884 5.30826 22.2831 5.20187 22.2891C3.91069 22.3483 2.6267 22.4113 1.33549 22.4686C1.11557 22.4788 0.873554 22.4376 0.794562 22.3787C0.715628 22.3236 0.735837 22.2568 0.720678 22.1939C0.925355 22.1151 1.15843 22.0419 1.33462 21.9575C1.46851 21.8922 1.62428 21.8631 1.89399 21.8585C2.24885 21.8517 2.59639 21.8278 2.99367 21.8094C3.72772 21.5287 4.44732 21.2348 5.23816 20.9539C5.55589 20.8405 5.47618 20.7262 5.53824 20.6059C5.60044 20.4951 6.07631 20.5108 6.39527 20.4775C6.65043 20.45 6.73457 20.3887 6.63455 20.347C6.57738 20.3224 6.44923 20.2942 6.34984 20.2945C6.11557 20.2952 5.88157 20.3131 5.64745 20.3233C5.41333 20.3336 5.14349 20.3287 4.95231 20.3617C4.76821 20.3927 4.64844 20.4579 4.5286 20.5136C4.39465 20.575 4.21762 20.5965 3.94792 20.6012C3.60012 20.606 3.25255 20.6242 2.90491 20.6386C2.52042 20.5654 2.12169 20.4941 1.75134 20.4171C1.68012 20.402 1.66518 20.3582 1.67184 20.3296C1.6849 20.2552 1.57774 20.2097 1.34292 20.1742C1.14368 20.1442 0.979723 20.1009 0.794566 20.0633C0.935761 20.0114 1.09124 19.9613 1.20398 19.9057C1.45067 19.7886 1.76178 19.7037 2.30136 19.7059C2.5132 19.6309 2.68213 19.5388 2.9582 19.4865C3.22011 19.4361 3.66813 19.4844 3.86518 19.3712C3.96372 19.3156 4.11193 19.2523 4.30325 19.2288C4.60795 19.1916 5.00578 19.2095 5.18163 19.1022C5.28718 19.0408 5.44245 18.9851 5.64809 18.9692C5.8821 18.9513 6.12335 18.9468 6.29317 18.91C6.38517 18.8907 6.4841 18.8599 6.48369 18.8332C6.48343 18.816 6.34115 18.7897 6.24159 18.7786C6.1491 18.7655 6.02813 18.7563 5.92171 18.7605C5.56693 18.773 5.2194 18.795 4.86463 18.8075C4.7653 18.8116 4.65155 18.7986 4.54488 18.7875C4.23206 18.7579 4.25273 18.7197 4.50015 18.6503C4.7476 18.5828 4.92386 18.4965 5.12854 18.4176C5.3555 18.4036 5.63951 18.4085 5.79514 18.3718C6.0569 18.3119 6.24011 18.2255 6.45195 18.1505C6.68604 18.1383 6.92734 18.1338 7.14709 18.1121C7.23926 18.1042 7.28125 18.0621 7.35896 18.0371C7.50021 17.989 7.61994 17.92 7.81127 17.8965C8.1231 17.8613 8.50664 17.8734 8.68962 17.768C8.79517 17.7066 8.9574 17.6413 9.15611 17.6369C9.70972 17.6276 9.94239 17.522 10.2248 17.422C10.4367 17.3469 10.8916 17.3837 11.1247 17.3086C11.2802 17.2605 11.3929 17.201 11.5484 17.1548C11.612 17.1355 11.7467 17.1256 11.8531 17.1195C12.4348 17.0892 13.0237 17.0664 13.6053 17.0342C13.6975 17.0282 13.7823 16.9993 13.853 16.9762C14.0013 16.9262 14.0924 16.8572 14.2765 16.8242C14.4606 16.7913 14.7232 16.7905 14.9503 16.7803C15.681 16.7495 15.738 16.7569 16.0692 16.5938C16.3369 16.4614 16.9986 16.5528 17.2165 16.4072C17.343 16.3229 17.5761 16.2536 17.9948 16.2428C18.5838 16.2277 19.1654 16.1897 19.7542 16.1631C20.2792 16.1386 20.2721 16.1386 20.8373 15.9596C21.0917 15.8787 21.4682 15.889 21.8016 15.8728C22.1563 15.8564 22.4825 15.8326 22.6514 15.7367C22.8203 15.6427 23.1322 15.6113 23.494 15.5968C23.8275 15.5825 24.204 15.5909 24.4655 15.5138C25.1016 15.3288 25.0945 15.3269 25.5414 15.3065C26.2438 15.2738 26.9461 15.2412 27.6484 15.2067C28.1166 15.1843 28.6064 15.179 29.0459 15.1357C29.3648 15.1042 29.5052 14.997 29.7099 14.922C30.2916 14.8917 30.8732 14.8613 31.4549 14.8328C32.2707 14.7922 33.0937 14.7554 33.9166 14.7167C34.2705 14.6432 34.3178 14.4828 34.914 14.4734C35.2689 14.4685 35.6164 14.4427 35.9711 14.4264C36.5599 14.3979 37.1415 14.3618 37.7305 14.3467C38.1776 14.3358 38.254 14.2326 38.4873 14.167C38.565 14.1439 38.6356 14.1113 38.7278 14.1053C39.6498 14.0491 40.6009 14.0348 41.5013 13.9539C41.5934 13.946 41.678 13.9056 41.6989 13.877C41.7128 13.8617 41.5917 13.8334 41.5134 13.8203C41.4209 13.8054 41.3 13.7905 41.2007 13.7946C38.2708 13.9312 35.3409 14.0697 32.411 14.2063C31.9995 14.2266 31.9995 14.2247 31.0017 14.4375C30.9168 14.4549 30.8176 14.4743 30.7112 14.4803C30.243 14.5046 29.7676 14.5194 29.3066 14.5494C28.9307 14.5734 28.6181 14.5515 28.3473 14.4836C28.1549 14.4346 27.9557 14.42 27.7144 14.4245C27.4448 14.4311 27.2677 14.4526 27.1123 14.5045C26.9075 14.5757 26.8024 14.6676 26.3697 14.688C24.3761 14.776 22.3825 14.8735 20.3961 14.9672C20.1189 14.9414 19.9834 14.9017 20.0537 14.8538C20.0958 14.8251 20.1805 14.7867 20.2656 14.7826C21.0814 14.7401 21.9043 14.7033 22.7201 14.6627C22.8336 14.6567 22.9898 14.66 23.0534 14.6407C23.3645 14.554 23.476 14.4144 24.0651 14.4031C24.4058 14.3963 24.7532 14.3667 25.0793 14.339C25.1715 14.3311 25.2561 14.2908 25.2769 14.2621C25.2838 14.2468 25.1698 14.2186 25.0844 14.2055C24.7712 14.1511 24.4102 14.219 24.0973 14.1818C23.9906 14.1687 23.8411 14.1501 23.8195 14.1273C23.805 14.1063 23.9251 14.0716 24.01 14.0504C24.0878 14.0311 24.194 14.0136 24.3003 14.0076C25.2368 13.9609 26.1733 13.9123 27.1098 13.8751C27.493 13.8606 27.7619 13.8121 27.931 13.7239C28.0578 13.6587 28.2134 13.6239 28.4546 13.6136C30.0934 13.5381 31.7321 13.455 33.3781 13.3852C33.7896 13.3687 34.0017 13.3051 34.1708 13.2226C34.3047 13.1573 34.4605 13.134 34.723 13.1218C37.0713 13.0155 39.4051 12.8979 41.7534 12.7954C42.1862 12.777 42.3128 12.6946 42.5318 12.6233C42.6095 12.5983 42.6586 12.5676 42.7578 12.5521C42.8569 12.5365 42.9847 12.538 43.1053 12.5339C44.9782 12.4462 46.8512 12.3528 48.7312 12.2709C49.1711 12.2524 49.2547 12.1568 49.4809 12.0893C49.5586 12.0681 49.6292 12.0336 49.7214 12.0276C51.126 11.9585 52.5306 11.8933 53.9353 11.8261C54.8717 11.7813 55.8081 11.7365 56.7446 11.6937C57.2057 11.6732 57.2057 11.6713 57.8276 11.4882C57.8983 11.467 57.9974 11.4419 58.0896 11.4359C60.7854 11.3057 63.4741 11.1813 66.1699 11.053C66.3969 11.0428 66.5595 10.9984 66.6721 10.9333C66.7846 10.8681 66.9474 10.8237 67.1673 10.8135C69.2743 10.7118 71.3812 10.612 73.4953 10.516C73.8785 10.4996 74.1475 10.453 74.3165 10.3667C74.4433 10.3014 74.599 10.2667 74.8402 10.2564C76.9472 10.1585 79.0542 10.0549 81.1684 9.96077C81.5728 9.94239 81.7705 9.87696 81.9681 9.80007C82.0387 9.77316 82.0948 9.72912 82.18 9.72505C83.2298 9.66848 84.2725 9.61003 85.3297 9.57061C85.7696 9.55403 85.9175 9.47347 86.0938 9.39665C86.2349 9.33519 86.3979 9.31373 86.6675 9.30529C87.2565 9.28635 87.8381 9.25219 88.4126 9.21803C88.4977 9.21206 88.6036 9.16977 88.6103 9.14305C88.6237 9.09343 88.4598 9.05958 88.1898 9.04323C85.3805 9.17566 82.5641 9.30811 79.7548 9.44054C79.2937 9.46291 79.2937 9.46292 78.6717 9.64598C78.6011 9.66717 78.502 9.69227 78.4027 9.69829C75.7069 9.82657 73.0182 9.95292 70.3224 10.0812C70.0954 10.0914 69.9328 10.1358 69.8202 10.201C69.7076 10.2661 69.5449 10.3105 69.325 10.3207C66.7498 10.4429 64.1747 10.567 61.5923 10.6835C61.2092 10.6999 60.9401 10.7445 60.7711 10.8328C60.6443 10.898 60.4886 10.9328 60.2474 10.9431C57.7857 11.0573 55.331 11.1772 52.8621 11.2876C52.6138 11.2979 52.4285 11.2432 52.4419 11.1916C52.4486 11.1649 52.5543 11.1208 52.6394 11.1167C53.9234 11.0499 55.2003 10.9812 56.4916 10.9296C56.9244 10.913 57.0508 10.8287 57.2698 10.7575C57.3404 10.7325 57.3968 10.6999 57.4889 10.6863C57.588 10.6707 57.7158 10.6723 57.8364 10.6681C60.8799 10.5235 63.9233 10.377 66.974 10.24C67.4138 10.2197 67.4974 10.1259 67.7236 10.0585C67.8013 10.0354 67.8719 10.0008 67.9641 9.99675C68.9005 9.94816 69.8369 9.90528 70.7734 9.86241C72.4121 9.78499 74.0509 9.70758 75.6967 9.63015C76.172 9.60774 76.1721 9.60773 76.7798 9.42662C76.8505 9.40542 76.9496 9.37844 77.0418 9.37435C81.3764 9.16866 85.711 8.96297 90.0456 8.75919C90.2726 8.74897 90.4352 8.70462 90.5478 8.63943C90.6604 8.57615 90.8229 8.52989 91.0428 8.51778C96.9027 8.24075 102.755 7.96372 108.615 7.6905C108.998 7.67218 109.267 7.63132 109.437 7.54117C109.556 7.47596 109.719 7.44115 109.96 7.42898C116.402 7.1254 122.843 6.82182 129.292 6.51631C133.627 6.31253 137.961 6.10494 142.296 5.90497C142.693 5.88661 142.905 5.82683 143.103 5.74804C143.166 5.72115 143.229 5.67709 143.314 5.67302C144.244 5.62254 145.173 5.57588 146.102 5.52921C146.394 5.57983 146.686 5.62855 146.978 5.67917C147.197 5.60603 147.409 5.53101 147.628 5.45787C149.032 5.39833 150.415 5.30834 151.835 5.27736C151.927 5.27518 152.027 5.31112 152.127 5.32989C152.789 5.44805 153.165 5.43738 153.581 5.27592C153.729 5.21826 153.856 5.16638 154.083 5.15616C154.786 5.11971 155.495 5.09469 156.19 5.05254C156.566 5.03043 156.879 5.04855 157.15 5.1164C157.342 5.16541 157.541 5.1858 157.775 5.17365C159.067 5.11254 160.351 5.05336 161.642 4.98844C161.734 4.98435 161.819 4.95166 161.889 4.92856C162.038 4.87852 162.165 4.82475 162.306 4.77283C162.498 4.80467 162.711 4.82883 162.868 4.87032C163.068 4.9193 163.252 4.91874 163.522 4.90457C168.672 4.65828 173.83 4.4177 178.98 4.1695C179.42 4.1491 179.613 4.22863 179.912 4.26969C180.011 4.28465 180.111 4.30341 180.217 4.30691C180.331 4.31038 180.452 4.29858 180.565 4.29252C184.431 4.10922 188.298 3.92782 192.164 3.74452C192.675 3.7201 192.675 3.7201 193.436 3.83605C193.529 3.85103 193.65 3.86783 193.749 3.86181C195.509 3.78213 197.268 3.69674 199.02 3.61517C199.247 3.60495 199.439 3.63488 199.646 3.67812C200.052 3.76273 200.08 3.76265 200.376 3.63588C200.517 3.57633 200.666 3.53963 200.9 3.52176C201.155 3.50192 201.361 3.50704 201.561 3.54077C201.845 3.58759 202.052 3.66706 202.485 3.64477C204.358 3.54949 206.238 3.46946 208.104 3.37229C208.529 3.35003 208.757 3.41418 209.042 3.461C209.142 3.47787 209.234 3.50429 209.341 3.50969C209.448 3.51509 209.575 3.50135 209.689 3.49528C212.03 3.38524 214.378 3.2771 216.712 3.15945C217.152 3.13715 217.345 3.21856 217.643 3.25962C217.743 3.27458 217.857 3.30095 217.949 3.29686C219.354 3.2335 220.766 3.16629 222.17 3.09912C222.674 3.07472 222.674 3.07663 223.442 3.19065C223.535 3.20563 223.656 3.22053 223.755 3.21642C225.394 3.14091 227.04 3.06348 228.679 2.98607C229.182 2.96166 229.182 2.96167 230.639 3.05646C230.746 3.06376 230.86 3.07488 230.966 3.07074C232.839 2.98309 234.719 2.89731 236.592 2.80394C236.968 2.78564 237.28 2.79995 237.551 2.8678C237.744 2.91681 237.943 2.9372 238.177 2.92505C240.284 2.82525 242.398 2.72924 244.498 2.62374C244.902 2.60345 245.165 2.6446 245.45 2.69905C245.543 2.71785 245.635 2.74427 245.742 2.75158C245.849 2.75889 245.969 2.75089 246.083 2.74483C248.19 2.64503 250.304 2.55093 252.404 2.44352C252.829 2.42126 253.057 2.48541 253.342 2.53224C253.442 2.5491 253.549 2.58311 253.634 2.58095C254.457 2.54605 255.28 2.51497 256.096 2.46483C256.535 2.43681 256.728 2.52394 257.027 2.565C257.127 2.57805 257.241 2.60633 257.333 2.60224C259.092 2.52256 260.852 2.43907 262.604 2.35368C262.852 2.34149 263.037 2.35808 263.237 2.40707C263.5 2.47303 263.806 2.49881 264.189 2.47668C265.005 2.43036 265.828 2.39737 266.651 2.35865C267.133 2.33622 267.133 2.33623 268.611 2.43095C268.718 2.43826 268.832 2.44935 268.938 2.44522C270.343 2.37995 271.754 2.31658 273.152 2.24562C273.528 2.22541 273.841 2.24163 274.111 2.30948C274.304 2.35848 274.496 2.3789 274.737 2.36673C276.028 2.30562 277.312 2.24453 278.603 2.18342C279.072 2.16103 279.54 2.12338 280.008 2.12197C280.349 2.12285 280.599 2.21364 280.905 2.25849C280.99 2.27158 281.132 2.25592 281.245 2.25176C282.884 2.17435 284.53 2.10263 286.162 2.01571C286.587 1.99344 286.815 2.0576 287.1 2.10442C287.2 2.12129 287.307 2.1553 287.392 2.15313C287.981 2.13038 288.562 2.10002 289.151 2.07345C289.854 2.04082 290.563 2.01579 291.258 1.97174C291.826 1.9357 292.041 2.10098 292.496 2.10533C292.843 2.11 293.198 2.07652 293.546 2.06021C294.248 2.02758 294.95 1.99114 295.653 1.96232C295.901 1.95204 296.092 1.92093 296.169 1.85204C296.183 1.83865 296.062 1.81042 295.984 1.79349C295.037 1.6018 295.037 1.60179 294.086 1.64662C293.497 1.67509 292.915 1.70355 292.327 1.72821C292.227 1.73232 292.113 1.71741 292.014 1.70626C291.729 1.6747 291.757 1.63647 291.997 1.56709C292.238 1.49771 292.421 1.41324 292.626 1.33443C292.918 1.38314 293.202 1.43185 293.494 1.48056C293.728 1.47032 293.962 1.45819 294.197 1.44795C295.367 1.39483 296.538 1.33981 297.708 1.29051C297.793 1.28644 297.9 1.32426 298 1.34304C298.285 1.39749 298.541 1.44438 298.953 1.42216C300.003 1.36369 301.06 1.32046 302.11 1.26961C302.571 1.24724 302.571 1.24725 303.382 1.36305C303.474 1.37612 303.595 1.39102 303.694 1.3869C304.752 1.33985 305.801 1.28902 306.859 1.24006C307.086 1.22984 307.306 1.25397 307.47 1.30878C307.534 1.33148 307.521 1.36965 307.795 1.68161C308.637 1.93274 309.212 1.90432 309.793 1.87968C310.042 1.8694 310.261 1.85919 310.424 1.82056C310.509 1.79932 310.615 1.76848 310.615 1.74369C310.614 1.72462 310.458 1.69457 310.358 1.69105C309.655 1.65503 308.989 1.73715 308.3 1.75639C307.981 1.76498 307.703 1.69906 307.645 1.59052C307.63 1.56005 307.608 1.5277 307.587 1.49725C307.565 1.4668 307.55 1.43442 307.528 1.40397C307.251 1.39527 307.089 1.43008 306.969 1.49529C306.87 1.54899 306.729 1.61044 306.538 1.63963C306.347 1.67072 306.084 1.6658 305.85 1.67604C305.623 1.68626 305.375 1.7118 305.162 1.69909C304.949 1.68448 304.777 1.62967 304.578 1.59594C304.485 1.57906 304.372 1.55462 304.279 1.55871C303.463 1.59359 302.655 1.62844 301.846 1.67283C301.42 1.697 301.206 1.61755 300.936 1.56878C300.722 1.53128 300.509 1.54144 300.475 1.62928C300.386 1.83934 300.714 1.92608 301.437 1.88385C302.033 1.84773 302.573 1.8404 303.043 1.96867C303.107 1.98564 303.256 1.99282 303.349 1.98873C303.93 1.96409 304.505 1.93375 305.087 1.90911C305.193 1.90497 305.307 1.91225 305.407 1.91958C306.856 2.0182 306.856 2.02012 307.346 1.99576C307.58 1.98361 307.807 1.97339 307.781 1.68357C308.224 1.37135 308.933 1.34824 309.621 1.30039C310.068 1.27044 310.261 1.35378 310.553 1.39677C310.652 1.41173 310.759 1.44191 310.851 1.43782C312.377 1.37029 313.895 1.29895 315.413 1.22381C315.668 1.2116 315.853 1.22249 316.053 1.27148C316.309 1.33364 316.594 1.37284 316.998 1.34874C317.807 1.30053 318.63 1.26945 319.453 1.22883C319.871 1.20849 319.871 1.20847 320.718 1.32417C320.81 1.33724 320.931 1.35214 321.03 1.34802C321.853 1.31312 322.669 1.27063 323.485 1.23384C323.712 1.22362 323.918 1.24969 324.097 1.30065C324.275 1.35161 324.488 1.37767 324.708 1.36747C325.531 1.33066 326.347 1.29007 327.163 1.25328C327.262 1.24917 327.383 1.26215 327.476 1.27523C328.344 1.39086 328.344 1.39084 328.741 1.37057C329.322 1.34021 329.919 1.32508 330.493 1.2852C331.053 1.24537 331.346 1.3551 331.73 1.41497C332.78 1.36795 333.837 1.32853 334.88 1.27199C335.306 1.24782 335.534 1.31007 335.819 1.3588C335.918 1.37566 336.018 1.4116 336.11 1.40942C336.465 1.40072 336.813 1.3787 337.161 1.36239C337.508 1.34609 337.863 1.32976 338.21 1.31346C338.609 1.36757 338.874 1.49646 339.441 1.45088C339.781 1.42316 340.143 1.41635 340.491 1.40004C340.838 1.38374 341.193 1.36741 341.541 1.35111C341.775 1.34087 342.016 1.33441 342.243 1.31656C342.661 1.28669 342.869 1.37953 343.167 1.42059C343.267 1.43364 343.381 1.45617 343.473 1.45208C344.176 1.42326 344.885 1.39824 345.573 1.3523C346.105 1.31637 346.468 1.3725 346.845 1.45147C346.924 1.4684 347.059 1.47752 347.158 1.47341C347.981 1.43851 348.797 1.39599 349.613 1.3592C349.833 1.349 350.046 1.37887 350.224 1.42792C350.41 1.47886 350.616 1.50305 350.843 1.49283C351.659 1.45605 352.482 1.41541 353.298 1.37862C353.397 1.37451 353.518 1.38941 353.61 1.40438C354.407 1.52023 354.407 1.52214 354.875 1.49784C354.989 1.49178 355.11 1.48759 355.223 1.48152C355.805 1.45307 356.408 1.44173 356.975 1.39425C357.628 1.34079 358.104 1.4042 358.567 1.51152C359.149 1.48688 359.745 1.47173 360.313 1.43188C360.738 1.40199 360.966 1.47377 361.251 1.52059C361.351 1.53746 361.458 1.57147 361.543 1.5674C362.366 1.53249 363.189 1.50142 363.997 1.4513C364.437 1.42327 364.63 1.5085 364.929 1.55147C365.029 1.56643 365.135 1.59282 365.228 1.58873C365.696 1.57206 366.164 1.54775 366.632 1.52536C367.179 1.49892 367.179 1.50083 367.904 1.61498C368.246 1.66926 368.586 1.62437 368.92 1.61001C369.274 1.59369 369.608 1.58124 369.893 1.65858C370.071 1.70763 370.285 1.73751 370.505 1.72922C370.973 1.71064 371.448 1.69205 371.909 1.66205C372.278 1.63806 372.598 1.65234 372.869 1.72209C373.061 1.7711 373.26 1.79531 373.494 1.78316C374.544 1.73423 375.601 1.68334 376.651 1.63632C376.744 1.63222 376.871 1.64901 376.957 1.66592C377.156 1.69965 377.349 1.7372 377.541 1.77477C378.002 1.75622 378.477 1.74717 378.931 1.71911C379.414 1.69095 379.854 1.68009 380.232 1.78385C380.31 1.8065 380.424 1.83856 380.516 1.83637C380.871 1.82768 381.219 1.80756 381.566 1.79126C381.914 1.77495 382.269 1.75863 382.616 1.74232C383.022 1.78878 383.279 1.92533 383.847 1.87975C384.187 1.85202 384.549 1.84521 384.897 1.82891C385.244 1.8126 385.599 1.79437 385.947 1.77997C386.06 1.77582 386.188 1.76589 386.287 1.77322C386.394 1.78053 386.486 1.80695 386.579 1.82575C386.864 1.8802 387.127 1.93472 387.532 1.90108C387.872 1.87336 388.234 1.86654 388.581 1.84833C389.057 1.82592 389.057 1.82592 389.847 1.9437C390.167 1.99232 390.528 1.92639 390.834 1.96743C391.04 1.99542 391.218 2.04255 391.418 2.07437C391.503 2.08747 391.638 2.09277 391.737 2.08866C392.205 2.07008 392.681 2.0515 393.142 2.0215C393.518 1.99748 393.83 2.01942 394.094 2.08729C394.287 2.1363 394.479 2.15671 394.72 2.14454C395.89 2.08761 397.061 2.03829 398.224 1.97567C398.622 1.95349 398.941 1.98496 399.163 2.05295C399.541 2.17006 400.071 2.02924 400.463 2.12342C400.705 2.18182 400.948 2.24975 401.387 2.21982C402.196 2.16779 403.019 2.1386 403.835 2.10181C404.127 2.15243 404.418 2.20305 404.717 2.25365C405.186 2.23126 405.654 2.20885 406.122 2.18837C406.47 2.17207 406.824 2.15384 407.172 2.13944C407.285 2.13528 407.406 2.12729 407.513 2.1365C407.619 2.14572 407.705 2.17026 407.805 2.18903C408.296 2.28101 408.296 2.28292 409.105 2.24234C409.452 2.22413 409.786 2.21168 410.078 2.28709C410.349 2.35684 410.668 2.36922 411.037 2.34713C411.732 2.30689 412.435 2.27617 413.144 2.24733C413.364 2.23713 413.57 2.26894 413.756 2.31797C414.034 2.39532 414.375 2.38667 414.722 2.36464C415.183 2.33656 415.637 2.30849 416.029 2.41412C416.107 2.43677 416.229 2.46881 416.314 2.46664C416.896 2.44963 417.485 2.43642 418.052 2.39848C418.62 2.36053 418.898 2.47794 419.29 2.53397C419.871 2.50743 420.46 2.48086 421.042 2.45431C421.155 2.44825 421.29 2.43069 421.389 2.43992C421.809 2.47871 422.052 2.62102 422.627 2.57542C422.96 2.54962 423.322 2.54091 423.67 2.53414C423.762 2.53196 423.883 2.564 423.948 2.5886C423.983 2.60184 423.948 2.63818 423.906 2.65738C423.779 2.71117 423.624 2.76124 423.511 2.81689C423.497 2.82456 423.632 2.85847 423.71 2.87349C423.903 2.90724 424.123 2.90087 424.378 2.88484C424.598 2.87083 424.825 2.89685 424.983 2.95359C425.047 2.97628 425.026 3.01449 424.893 3.14077C424.894 3.23422 425.043 3.1918 425.092 3.13062C425.168 3.04266 425.019 3.0145 424.736 3.06304C424.537 3.09796 424.439 3.14785 424.489 3.18775C424.518 3.20865 424.653 3.23494 424.893 3.14077C425.516 3.02445 425.984 3.00207 426.453 2.97968C426.573 2.9736 426.715 2.95409 426.8 2.96527C427.106 3.01013 427.391 3.06459 427.69 3.11518C428.03 3.10271 428.349 3.07313 428.684 3.1465C429.154 3.24999 429.176 3.24039 429.63 3.21804C429.864 3.20589 430.098 3.19567 430.332 3.18543C430.566 3.17519 430.751 3.20323 430.957 3.24647C431.378 3.33485 431.413 3.33473 431.688 3.21184C431.85 3.13697 431.964 3.11184 432.17 3.14555C432.853 3.25983 432.86 3.26743 433.442 3.23135C433.924 3.20129 434.379 3.19229 434.735 3.29993C434.978 3.37549 435.056 3.3581 435.246 3.27742C435.754 3.06418 435.988 3.06729 436.949 3.21697C437.397 3.2881 437.858 3.20852 438.312 3.19762C438.695 3.18883 438.965 3.23378 438.996 3.35385C439.018 3.42816 439.083 3.48138 439.339 3.5054C439.438 3.51464 439.559 3.52762 439.658 3.52351C440.247 3.49885 440.829 3.47039 441.418 3.44191C441.716 3.42767 441.878 3.33755 441.819 3.21948C441.753 3.0938 441.866 3.04767 442.292 3.01015C442.547 2.98841 442.753 2.99162 442.959 3.02532C443.187 3.06278 443.124 3.0973 442.926 3.16656C442.453 3.33582 442.511 3.43862 443.123 3.55311C443.337 3.59252 443.508 3.62826 443.558 3.68723C443.587 3.71766 443.56 3.7578 443.624 3.78049C443.974 3.90722 444.458 3.98778 444.998 4.04719C445.515 3.99413 445.872 4.07887 446.27 4.14633C446.584 4.19879 446.952 4.15192 447.285 4.13184C447.661 4.10973 447.974 4.12404 448.245 4.19379C448.437 4.2428 448.636 4.26508 448.87 4.25484C449.339 4.23245 449.814 4.21767 450.275 4.18577C450.672 4.15787 450.971 4.19512 451.22 4.25921C451.534 4.34028 451.881 4.28391 452.208 4.29437C452.648 4.3064 452.871 4.47546 453.445 4.42796C453.785 4.40023 454.14 4.38963 454.495 4.38094C454.587 4.37875 454.701 4.41084 454.78 4.43349C455.158 4.53725 455.598 4.5302 456.08 4.49823C456.413 4.47624 456.74 4.4562 457.067 4.52768C457.609 4.64812 458.207 4.75313 458.776 4.86394C458.856 4.95143 458.8 5.05457 459.206 5.10484C459.419 5.1309 459.619 5.17037 459.783 5.21374C459.982 5.26464 460.167 5.27743 460.422 5.26331C460.883 5.23522 461.366 5.22803 461.82 5.19233C462.238 5.16056 462.502 5.22272 462.758 5.28107C462.965 5.32813 463.157 5.35043 463.405 5.31535C463.66 5.28216 463.845 5.30258 464.051 5.35345C464.344 5.42314 464.365 5.41546 465.331 5.43353C465.43 5.43513 465.551 5.46336 465.608 5.48798C465.637 5.50125 465.574 5.53961 465.524 5.55883C465.461 5.5819 465.362 5.60889 465.269 5.61489C464.219 5.66764 463.162 5.71469 462.112 5.76744C462.006 5.77348 461.893 5.78719 461.815 5.80649C461.73 5.82773 461.624 5.85664 461.624 5.88334C461.625 5.90241 461.767 5.92488 461.867 5.93793C462.18 5.98085 462.548 5.91299 462.854 5.96166C463.06 5.99346 463.231 6.03871 463.437 6.0686C463.523 6.0817 463.658 6.07939 463.764 6.07525C464.119 6.06083 464.467 6.04072 464.821 6.02821C464.921 6.026 465.035 6.04474 465.127 6.05972C465.81 6.17209 465.81 6.17209 466.399 6.14552C466.633 6.13528 466.881 6.10592 467.102 6.1167C467.315 6.1275 467.5 6.17844 467.692 6.21028C468.091 6.27774 468.468 6.34336 468.499 6.49203C468.514 6.5492 468.749 6.59807 468.983 6.60118C469.21 6.60431 469.451 6.58262 469.686 6.57048C470.239 6.54592 470.239 6.54592 470.958 6.6601C471.157 6.69192 471.37 6.69509 471.625 6.67524C471.725 6.66732 471.845 6.67459 471.952 6.68381C472.3 6.71136 472.301 6.74759 472.075 6.81693C471.757 6.91897 471.785 6.92843 472.681 7.01156C473.022 7.04295 473.286 7.10319 473.571 7.15574C474.033 7.24017 474.026 7.24018 473.723 7.35362C473.652 7.37862 473.589 7.40552 473.518 7.43244C473.313 7.50744 473.151 7.58802 472.726 7.59694C472.257 7.60597 471.789 7.63791 471.321 7.6603C470.867 7.68265 470.747 7.72877 470.791 7.85832C470.843 8.01456 470.936 8.03145 471.752 8.02709C471.987 8.02638 472.193 8.04101 472.371 8.09197C472.287 8.15326 472.131 8.20141 471.904 8.21353C471.323 8.24389 470.734 8.27047 470.152 8.29701C469.684 8.3194 469.216 8.34179 468.747 8.36418C468.457 8.3784 468.274 8.47814 468.353 8.58852C468.397 8.65133 468.433 8.71415 468.47 8.77698C468.55 8.90262 468.699 8.9346 469.175 8.92745C469.295 8.92518 469.409 8.90956 469.522 8.91303C469.984 8.925 470.207 9.08262 470.76 9.04853C471.221 9.02044 471.704 9.01327 472.157 8.97757C472.576 8.9458 472.811 9.01377 473.103 9.06438C473.203 9.08125 473.31 9.11714 473.395 9.11498C473.984 9.09223 474.573 9.06949 475.147 9.03152C475.417 9.01545 475.58 9.0264 475.794 9.07153C476.307 9.1806 476.321 9.17484 477.08 9.13822C477.633 9.10985 477.64 9.11364 478.352 9.22784C478.551 9.25966 478.764 9.25902 479.019 9.24299C479.353 9.22291 479.7 9.19135 480.048 9.21891C480.155 9.22622 480.29 9.24871 480.326 9.27339C480.348 9.29049 480.249 9.33275 480.164 9.34636C479.541 9.44741 478.809 9.43245 478.128 9.47456C477.916 9.48664 477.702 9.45104 477.524 9.40008C477.338 9.34915 477.139 9.32877 476.898 9.33904C476.43 9.36143 475.955 9.3762 475.494 9.40811C475.096 9.43601 474.819 9.39297 474.541 9.33468C474.449 9.31589 474.342 9.27997 474.249 9.28215C473.199 9.32346 472.142 9.3648 471.099 9.42134C470.681 9.44549 470.438 9.38519 470.154 9.33456C470.054 9.31769 469.954 9.28175 469.862 9.28394C469.507 9.29263 469.16 9.31466 468.805 9.33098C467.514 9.39209 466.23 9.45318 464.938 9.51047C464.853 9.51454 464.746 9.47481 464.647 9.45794C464.454 9.42419 464.255 9.39236 464.056 9.36054C463.701 9.37687 463.353 9.39698 462.999 9.4095C462.743 9.41789 462.516 9.44529 462.482 9.51787C462.462 9.56561 462.697 9.60876 462.945 9.6042C463.186 9.59966 463.427 9.57604 463.626 9.60024C464.615 9.71932 464.615 9.72123 465.232 9.69458C465.771 9.67007 465.714 9.65116 466.192 9.75462C466.398 9.79977 466.583 9.82593 466.817 9.81378C467.399 9.78533 467.988 9.75685 468.577 9.73219C468.669 9.72809 468.79 9.74681 468.882 9.76179C469.58 9.87412 469.58 9.87793 470.154 9.84759C470.906 9.811 470.935 9.80137 471.441 9.91619C471.79 9.99525 472.108 9.93897 472.442 9.93415C472.826 10.0074 473.246 10.0729 473.595 10.1557C474.009 10.2537 474.441 10.2352 474.909 10.2052C475.257 10.1831 475.598 10.1745 475.883 10.2518C476.154 10.3235 476.48 10.3301 476.849 10.31C477.182 10.2918 477.523 10.2545 477.871 10.2954C477.964 10.3066 478.106 10.3348 478.099 10.352C478.093 10.3787 478.001 10.4171 477.909 10.4288C477.257 10.509 476.54 10.5092 475.852 10.5476C475.76 10.5536 475.639 10.5329 475.546 10.518C475.347 10.4842 475.154 10.4448 474.962 10.4091C474.615 10.4216 474.26 10.4265 473.919 10.4504C473.657 10.4683 473.458 10.467 473.266 10.4218C473.087 10.3804 472.895 10.3295 472.682 10.3168C472.469 10.3041 472.221 10.3334 471.987 10.3456C471.753 10.3577 471.483 10.3528 471.299 10.3839C471.115 10.415 471.002 10.4821 470.882 10.5358C470.748 10.5953 470.564 10.615 470.294 10.6215C470.046 10.628 469.847 10.621 469.661 10.5681C469.583 10.5455 469.476 10.5286 469.369 10.5137C469.27 10.5006 469.156 10.48 469.064 10.4841C468.007 10.5311 466.957 10.582 465.9 10.6309C465.375 10.6554 465.382 10.6554 464.287 10.5461C464.187 10.5369 464.066 10.5239 463.967 10.528C463.378 10.5527 462.797 10.5812 462.208 10.6096C461.612 10.6381 461.619 10.6343 460.602 10.5172C460.417 10.4949 460.148 10.5262 459.928 10.523C459.466 10.5149 459.236 10.3554 458.697 10.3875C458.236 10.4156 457.753 10.4228 457.293 10.4585C456.874 10.4903 456.632 10.4243 456.347 10.3736C456.248 10.3568 456.14 10.3189 456.055 10.323C454.998 10.3682 453.948 10.419 452.543 10.4289C452.195 10.43 452.352 10.4696 452.579 10.4822C452.906 10.5022 453.012 10.4619 452.833 10.3861C452.705 10.3331 452.52 10.3069 452.371 10.3207C452.293 10.3286 452.194 10.3652 452.543 10.4289C452.913 10.5003 452.892 10.5404 452.957 10.5631C453.114 10.6179 453.334 10.6402 453.561 10.6319C453.916 10.6174 454.263 10.5973 454.618 10.5848C454.718 10.5807 454.838 10.5937 454.931 10.6087C455.714 10.7246 455.721 10.7322 456.551 10.6839C456.813 10.6698 457.005 10.6692 457.211 10.7048C457.496 10.7535 457.703 10.8368 458.136 10.8088C458.71 10.7708 459.299 10.7481 459.888 10.7253C459.98 10.7212 460.08 10.7553 460.187 10.7702C460.479 10.8151 460.693 10.9003 461.125 10.8627C461.459 10.8331 461.821 10.8244 462.175 10.8176C462.268 10.8154 462.41 10.8455 462.453 10.8702C462.539 10.9138 462.433 10.9656 462.192 11.0026C462.093 11.0181 461.958 11.0147 461.845 11.0208C461.377 11.0432 460.908 11.0675 460.44 11.086C460.192 11.0963 459.958 11.1256 459.931 11.1963C459.91 11.244 460.166 11.2852 460.408 11.2807C460.762 11.2739 461.117 11.2576 461.458 11.2317C462.06 11.188 462.586 11.1978 463.078 11.3165C463.427 11.3994 463.405 11.3689 463.778 11.6157C463.871 11.6784 464.148 11.6833 464.389 11.6787C464.971 11.6674 465.242 11.6953 465.193 11.7545C465.13 11.8272 464.924 11.8507 464.662 11.861C464.194 11.8777 463.725 11.9039 463.257 11.9263C463.144 11.9323 463.016 11.9442 462.91 11.9407C462.803 11.9372 462.703 11.9146 462.611 11.8977C462.411 11.8621 462.24 11.8073 462.027 11.7946C461.814 11.7818 461.566 11.8112 461.332 11.8234C461.098 11.8336 460.85 11.863 460.636 11.8502C460.423 11.8375 460.245 11.7809 460.053 11.7471C459.96 11.7302 459.846 11.7039 459.754 11.706C459.286 11.7227 458.817 11.7489 458.349 11.7694C457.775 11.7959 457.775 11.7959 457.077 11.6798C456.878 11.6461 456.672 11.6486 456.41 11.6646C455.842 11.6969 455.835 11.6912 454.797 11.5837C454.697 11.5725 454.576 11.5595 454.477 11.5656C453.42 11.6126 452.37 11.6634 451.32 11.7124C450.419 11.7551 450.419 11.7552 449.925 11.9474C449.558 12.0896 449.551 12.0896 449.914 12.1534C450.206 12.2059 450.47 12.2833 450.789 12.3109C451.088 12.3367 451.456 12.2498 451.784 12.3366C451.948 12.3799 452.161 12.427 452.367 12.434C452.694 12.4425 453.041 12.3862 453.355 12.4691C453.512 12.5106 453.747 12.5538 453.945 12.5551C454.293 12.5579 454.648 12.5263 454.996 12.5119C455.102 12.5077 455.223 12.5074 455.322 12.5166C455.429 12.5277 455.521 12.5504 455.614 12.5692C455.899 12.6331 456.205 12.6627 456.573 12.6292C457.176 12.574 457.716 12.5991 458.186 12.7197C458.25 12.7367 458.407 12.7381 458.506 12.7302C458.761 12.7104 458.981 12.7078 459.173 12.7434C459.252 12.7585 459.366 12.7848 459.352 12.802C459.331 12.8307 459.246 12.8691 459.154 12.8789C458.488 12.9457 457.771 12.9555 457.083 12.9919C456.991 12.996 456.877 12.9716 456.784 12.9547C456.585 12.921 456.414 12.8643 456.2 12.8516C455.987 12.8389 455.739 12.8644 455.505 12.8746C455.271 12.8849 455.023 12.9142 454.81 12.9034C454.597 12.8907 454.397 12.8436 454.226 12.8022C454.027 12.7551 453.835 12.75 453.572 12.7698C453.232 12.7957 452.877 12.8005 452.53 12.8149C452.337 12.7793 452.145 12.7398 451.946 12.7061C451.853 12.6892 451.739 12.6686 451.64 12.6708C451.172 12.6874 450.703 12.7117 450.235 12.7341C449.767 12.7565 449.767 12.7565 448.97 12.6407C448.878 12.6276 448.757 12.6127 448.657 12.6168C448.068 12.6415 447.487 12.6718 446.898 12.6965C446.671 12.7067 446.465 12.6806 446.279 12.6297C446.101 12.5787 445.888 12.5508 445.668 12.561C444.731 12.6038 443.795 12.6448 442.858 12.6953C442.482 12.7155 442.163 12.6993 441.906 12.6314C441.607 12.5541 441.273 12.5742 440.926 12.5905C440.138 12.631 440.131 12.6291 439.626 12.5334C439.526 12.5146 439.426 12.4787 439.334 12.4809C438.518 12.5119 437.695 12.5411 436.886 12.5893C436.461 12.6154 436.232 12.5493 435.948 12.5006C435.848 12.4837 435.741 12.4478 435.656 12.4519C435.067 12.4746 434.478 12.4955 433.904 12.5354C433.329 12.5752 433.106 12.3986 432.673 12.4018C432.084 12.4054 431.503 12.4511 430.921 12.4795C430.453 12.5019 429.985 12.5243 429.516 12.5467C429.048 12.5691 428.58 12.5876 428.112 12.6138C427.863 12.6279 427.679 12.6113 427.472 12.5643C427.208 12.5021 426.895 12.4535 426.611 12.3971C426.176 12.3164 426.176 12.3164 425.651 12.3409C425.538 12.347 425.417 12.3511 425.304 12.3572C424.445 12.4017 424.445 12.3979 423.35 12.2811C423.3 12.2755 423.173 12.2969 423.123 12.3123C422.975 12.3623 422.841 12.4161 422.707 12.468C422.515 12.4381 422.28 12.4216 422.152 12.3781C421.788 12.2553 421.223 12.4267 420.851 12.3058C420.716 12.2604 420.481 12.2211 420.268 12.2102C420.048 12.1995 419.8 12.2269 419.573 12.239C418.984 12.2694 418.984 12.2675 418.482 12.4388C418.228 12.5235 417.859 12.5093 417.525 12.5294C417.178 12.5514 416.844 12.5639 416.552 12.4865C416.288 12.4168 415.969 12.4006 415.593 12.4246C415.132 12.4546 414.656 12.4732 414.188 12.4918C414.089 12.4959 413.968 12.4867 413.868 12.4756C412.78 12.3663 412.78 12.3644 412.255 12.3908C412.021 12.4029 411.78 12.4075 411.553 12.4253C411.17 12.457 410.879 12.4178 410.601 12.3576C410.508 12.3388 410.401 12.3029 410.309 12.3051C409.84 12.3161 409.379 12.3346 408.918 12.3532C408.563 12.3676 408.209 12.3763 407.868 12.404C407.301 12.4496 407.022 12.3264 406.631 12.2704C406.049 12.2969 405.46 12.3159 404.879 12.352C404.609 12.368 404.432 12.3629 404.225 12.3177C403.962 12.2613 403.719 12.1972 403.294 12.2271C402.726 12.2669 402.13 12.2821 401.548 12.3067C401.157 12.2488 400.871 12.1294 400.311 12.175C399.971 12.2027 399.609 12.2095 399.261 12.2258C398.793 12.2482 398.325 12.2687 397.857 12.293C397.353 12.3174 397.36 12.3117 396.584 12.2015C396.136 12.1361 395.676 12.2119 395.222 12.2247C394.867 12.2353 394.691 12.3235 394.778 12.4358C394.864 12.5481 394.674 12.6364 394.348 12.6526C393.532 12.6913 392.709 12.7319 391.893 12.7668C391.794 12.7709 391.673 12.7579 391.58 12.7449C390.705 12.6273 390.705 12.6293 390.315 12.6476C389.734 12.678 389.138 12.695 388.563 12.733C388.166 12.759 387.874 12.7198 387.618 12.6557C387.418 12.6067 387.233 12.5959 386.978 12.6081C384.169 12.7443 381.359 12.871 378.557 13.0111C378.139 13.0314 377.896 12.9768 377.612 12.9262C377.512 12.9093 377.419 12.8734 377.32 12.8737C377.085 12.8744 376.851 12.8922 376.617 12.9044C375.567 12.9533 374.518 13.0118 373.46 13.0493C373.013 13.0659 372.894 13.154 372.703 13.2271C372.555 13.2828 372.385 13.3062 372.123 13.3146C371.867 13.323 371.683 13.314 371.483 13.265C371.226 13.201 370.935 13.1618 370.538 13.1897C370.077 13.2216 369.608 13.2364 369.133 13.2588C368.892 13.269 368.708 13.3039 368.631 13.3728C368.617 13.3843 368.766 13.4125 368.852 13.4294C369.137 13.4857 369.407 13.5517 369.727 13.5908C370.054 13.6298 370.409 13.583 370.749 13.5705C370.87 13.5663 370.983 13.5545 371.097 13.5561C371.203 13.5577 371.331 13.5669 371.41 13.5838C371.78 13.6685 372.172 13.7264 372.682 13.6734C373.122 13.6969 373.352 13.8545 373.912 13.8108C374.253 13.785 374.607 13.7725 374.962 13.7619C375.055 13.7597 375.154 13.7937 375.254 13.8106C375.539 13.8574 375.767 13.933 376.193 13.8993C376.646 13.8636 377.129 13.8565 377.59 13.8284C377.845 13.8123 378.03 13.8251 378.23 13.8741C378.486 13.9363 378.778 13.9831 379.175 13.9514C379.515 13.9236 379.877 13.9168 380.225 13.8986C380.679 13.8763 380.679 13.8782 381.49 13.994C381.583 14.007 381.703 14.0219 381.803 14.0178C382.392 13.9932 382.973 13.9628 383.562 13.9381C383.789 13.9279 384.01 13.9521 384.167 14.0069C384.231 14.0296 384.21 14.0678 384.232 14.1002C383.061 14.1552 381.891 14.2026 380.727 14.269C380.288 14.2951 380.088 14.2175 379.796 14.1746C379.696 14.1596 379.589 14.1275 379.497 14.1316C378.674 14.1665 377.858 14.2033 377.043 14.2477C376.787 14.2618 376.596 14.2548 376.403 14.2C375.911 14.0546 375.316 14.1365 374.762 14.1592C374.337 14.1757 374.203 14.2353 374.254 14.361C374.321 14.5096 374.577 14.5546 375.229 14.5259C375.464 14.5157 375.698 14.5016 375.932 14.4933C376.159 14.4849 376.365 14.5091 376.55 14.56C376.729 14.611 376.942 14.6371 377.162 14.6288C377.63 14.6102 378.106 14.5916 378.56 14.5616C378.935 14.5376 379.248 14.5557 379.512 14.6255C379.804 14.7028 380.145 14.6846 380.485 14.6664C381.28 14.6259 381.287 14.6278 381.785 14.7217C381.885 14.7404 381.985 14.7764 382.077 14.7742C382.893 14.7431 383.716 14.7158 384.518 14.6677C384.936 14.6435 385.178 14.7038 385.456 14.7526C385.556 14.7694 385.656 14.8073 385.748 14.8032C386.337 14.7804 386.926 14.7577 387.5 14.7197C387.77 14.7017 387.933 14.7127 388.154 14.7578C388.681 14.8687 388.695 14.8649 389.44 14.8264C389.667 14.8142 389.915 14.7925 390.128 14.8071C390.341 14.8218 390.513 14.8766 390.712 14.9103C390.804 14.9253 390.918 14.9459 391.018 14.9418C391.486 14.9251 391.954 14.9008 392.422 14.8784C392.862 14.8561 392.862 14.858 393.687 14.9738C394.022 15.0224 394.369 14.9794 394.703 14.9631C395.064 14.9449 395.391 14.9439 395.669 15.0174C395.947 15.091 396.281 15.0861 396.635 15.0698C396.969 15.0535 397.309 15.0106 397.65 15.061C398.433 15.1769 398.433 15.1788 398.915 15.1545C399.618 15.1199 400.313 15.0873 401.022 15.0566C401.115 15.0525 401.236 15.075 401.328 15.09C401.527 15.1237 401.699 15.1804 401.912 15.1931C402.125 15.2078 402.373 15.1841 402.6 15.172C403.331 15.1336 403.38 15.1201 403.872 15.2445C404.285 15.3462 404.794 15.1959 405.18 15.313C405.401 15.3791 405.699 15.4316 406.111 15.3979C406.451 15.3702 406.806 15.3615 407.161 15.3452C407.721 15.3187 407.721 15.3206 408.433 15.4329C408.525 15.4479 408.646 15.4666 408.738 15.4625C409.207 15.4458 409.682 15.431 410.136 15.3953C410.668 15.3537 411.01 15.4251 411.408 15.4945C411.721 15.5489 412.09 15.502 412.423 15.4819C412.785 15.4617 413.112 15.4665 413.383 15.54C413.668 15.6155 414.001 15.6049 414.356 15.5886C414.689 15.5742 415.03 15.5294 415.371 15.5817C416.104 15.6978 416.104 15.6978 416.636 15.6733C417.104 15.6509 417.573 15.6266 418.041 15.6099C418.133 15.6058 418.247 15.6303 418.34 15.6472C418.539 15.6809 418.71 15.7376 418.923 15.7503C419.137 15.763 419.385 15.7375 419.619 15.7272C419.853 15.717 420.101 15.6876 420.314 15.6984C420.527 15.7093 420.727 15.7563 420.898 15.7978C421.097 15.8468 421.282 15.8519 421.551 15.832C421.892 15.8062 422.247 15.7994 422.594 15.785C422.786 15.8207 422.986 15.8563 423.171 15.8958C423.363 15.9372 423.569 15.9328 423.831 15.9186C424.704 15.8702 424.711 15.8759 425.444 15.992C425.779 16.0444 426.126 15.9994 426.459 15.9851C426.814 15.9688 427.148 15.9601 427.426 16.0356C427.696 16.1072 428.03 16.1158 428.385 16.0918C428.612 16.0759 428.853 16.0656 429.087 16.0592C429.194 16.057 429.322 16.0642 429.4 16.0792C429.777 16.1582 430.148 16.2296 430.665 16.1765C431.12 16.1904 431.349 16.3461 431.895 16.3139C432.356 16.2858 432.839 16.2787 433.293 16.243C433.711 16.2112 434.01 16.2637 434.224 16.3298C434.609 16.4469 435.147 16.2851 435.532 16.4003C435.753 16.4663 436.037 16.5189 436.463 16.489C436.931 16.4571 437.081 16.4967 437.217 16.6164C437.297 16.6848 437.283 16.7402 437.142 16.794C437.001 16.8497 436.845 16.8407 436.617 16.7784C436.353 16.7087 436.04 16.6962 435.664 16.7126C435.295 16.729 435.067 16.6305 434.761 16.5933C434.455 16.5542 434.094 16.622 433.774 16.5715C433.019 16.4536 433.019 16.4536 432.508 16.478C432.161 16.4943 431.799 16.503 431.459 16.5308C431.054 16.5644 430.791 16.5061 430.513 16.4535C430.413 16.4347 430.313 16.3988 430.228 16.401C429.412 16.432 428.589 16.4612 427.781 16.5113C427.355 16.5374 427.127 16.4694 426.842 16.4226C426.743 16.4057 426.636 16.3717 426.55 16.3758C425.848 16.4046 425.153 16.441 424.451 16.4756C424.317 16.5275 424.168 16.5775 424.041 16.6332C423.907 16.6908 423.723 16.7162 423.453 16.7151C423.006 16.7164 422.567 16.7979 422.118 16.6981C421.655 16.5965 421.62 16.6024 421.173 16.6285C420.606 16.6626 420.002 16.6568 419.471 16.7328C419.379 16.7464 419.28 16.783 419.28 16.8097C419.273 16.8268 419.423 16.8512 419.515 16.8662C419.829 16.911 420.189 16.8432 420.503 16.8899C420.709 16.9198 420.88 16.965 421.086 16.9968C421.172 17.0099 421.3 17.0077 421.413 17.0054C421.534 17.0031 421.647 16.9895 421.761 16.991C421.867 16.9926 421.981 17.0037 422.067 17.0206C422.458 17.0919 422.871 17.1574 423.22 17.2422C423.562 17.3251 423.88 17.2669 424.221 17.2621C425.586 17.3915 425.586 17.3934 426.502 17.3486C426.729 17.3384 426.963 17.3263 427.197 17.3275C427.296 17.3272 427.389 17.3612 427.489 17.38C427.774 17.4363 428.044 17.487 428.441 17.4553C428.782 17.4276 429.144 17.4208 429.491 17.4026C429.959 17.3802 429.959 17.3802 430.756 17.4979C430.956 17.5279 431.168 17.5234 431.424 17.5074C431.644 17.4934 431.871 17.5213 432.028 17.5761C432.092 17.5988 432.072 17.637 432.094 17.6694C431.391 17.702 430.682 17.7251 430.001 17.773C429.561 17.8029 429.361 17.7215 429.069 17.6785C428.97 17.6635 428.863 17.6314 428.771 17.6355C428.075 17.6662 427.38 17.7007 426.685 17.741C426.6 17.745 426.494 17.7892 426.487 17.8159C426.474 17.8656 426.652 17.9127 426.908 17.91C427.248 17.9071 427.582 17.8737 427.888 17.951C428.145 18.0188 428.464 18.0484 428.84 18.0168C429.067 17.9989 429.309 17.9982 429.536 17.9822C430.138 17.9347 430.685 17.9425 431.141 18.0709C431.49 18.1041 431.83 18.0707 432.163 18.0525C432.412 18.0384 432.653 18.0243 432.831 18.06C433.208 18.1352 433.579 18.2104 434.096 18.1573C434.658 18.209 435.085 18.3203 435.555 18.4104C435.776 18.4536 435.947 18.4779 436.202 18.4485C436.308 18.4368 436.436 18.4363 436.549 18.4303C436.784 18.42 437.032 18.3907 437.245 18.4015C437.458 18.4142 437.636 18.469 437.828 18.5027C437.921 18.5196 438.028 18.5479 438.12 18.5457C438.475 18.5351 438.822 18.515 439.17 18.4987C439.518 18.4843 439.865 18.4699 440.213 18.4555C440.505 18.5042 440.804 18.5529 441.095 18.6016C441.564 18.5792 442.032 18.5568 442.493 18.5364C443.011 18.5119 443.011 18.5138 443.758 18.6298C444.093 18.6822 444.447 18.6468 444.766 18.6211C445.298 18.5794 445.654 18.6508 446.032 18.726C446.11 18.741 446.252 18.7501 446.344 18.7422C446.713 18.7144 447.033 18.7344 447.303 18.8041C447.496 18.8531 447.688 18.8755 447.922 18.8652C448.738 18.8265 449.554 18.7859 450.37 18.751C450.469 18.7469 450.583 18.7638 450.675 18.7787C451.401 18.8929 451.408 18.8986 451.94 18.8665C452.416 18.8383 452.856 18.8256 453.233 18.9293C453.312 18.952 453.433 18.984 453.518 18.9819C454.1 18.961 454.689 18.9383 455.263 18.9041C455.526 18.8881 455.711 18.8933 455.917 18.9365C456.181 18.991 456.416 19.0571 456.849 19.031C458.047 18.9568 458.054 18.9682 459.476 19.0955C459.576 19.1047 459.71 19.0891 459.824 19.0811C460.065 19.0613 460.243 19.0875 460.456 19.1307C460.934 19.2285 460.948 19.2227 461.402 19.2003C461.749 19.1821 462.111 19.1772 462.452 19.1476C462.976 19.104 463.325 19.1774 463.717 19.2468C464.03 19.3011 464.391 19.2543 464.725 19.2361C465.087 19.2159 465.413 19.2207 465.684 19.2923C465.869 19.3414 466.069 19.3675 466.303 19.3572C467.119 19.3204 467.934 19.2798 468.75 19.243C468.85 19.2389 468.971 19.2538 469.063 19.2669C469.874 19.3827 469.874 19.3884 470.676 19.3422C470.931 19.328 471.144 19.3236 471.336 19.363C471.521 19.4006 471.721 19.4363 471.913 19.4719C472.261 19.4575 472.616 19.4526 472.956 19.4287C473.218 19.4108 473.403 19.4179 473.609 19.4573C473.88 19.508 474.109 19.5969 474.534 19.5518C474.754 19.5301 475.009 19.5351 475.229 19.5153C475.491 19.4898 475.669 19.5045 475.876 19.5534C476.132 19.6118 476.396 19.672 476.807 19.6403C477.261 19.6046 477.743 19.5974 478.204 19.5693C478.46 19.5533 478.638 19.568 478.844 19.617C479.101 19.6791 479.392 19.7183 479.79 19.6923C480.598 19.6422 480.605 19.6517 481.395 19.7695C481.594 19.7994 481.807 19.795 482.063 19.7789C482.283 19.7649 482.51 19.7928 482.667 19.8477C482.817 19.9083 482.803 19.9464 482.818 19.9788ZM419.296 2.96881C419.062 2.97905 418.828 2.9912 418.485 2.8263C418.463 2.79776 418.477 2.76339 418.427 2.73875C418.312 2.6876 418.134 2.6519 417.921 2.64682C417.538 2.64035 417.077 2.70657 417.085 2.75613C417.093 2.79807 417.214 2.83393 417.449 2.86756C417.548 2.88061 417.627 2.90326 417.719 2.91824C417.99 2.96129 418.204 3.04649 418.594 3.00145C418.521 2.88342 418.557 2.94243 418.594 3.00145C418.559 3.07403 418.667 3.1252 418.923 3.14541C418.994 3.15092 419.1 3.14677 419.157 3.13516C419.376 3.09254 419.411 3.03523 419.245 2.88506C419.217 2.90993 419.239 2.95372 419.303 2.96497C419.367 2.97622 419.523 2.96623 419.601 2.95264C419.799 2.91581 419.898 2.86782 419.848 2.82792C419.819 2.80703 419.684 2.78074 419.599 2.78099C419.449 2.78144 419.315 2.8238 419.296 2.96881ZM477.037 24.9131C476.519 24.9509 475.922 24.9393 475.405 25.0153C475.313 25.0289 475.221 25.0635 475.215 25.0902C475.208 25.1074 475.35 25.1318 475.436 25.1449C475.628 25.1748 475.841 25.1646 476.089 25.1543C476.465 25.1399 476.686 25.2269 476.978 25.2699C477.071 25.283 477.191 25.2922 477.291 25.288C477.865 25.2634 478.433 25.2369 479.008 25.2085C479.107 25.2025 479.213 25.1888 479.298 25.1714C479.581 25.1152 479.552 25.0791 479.275 25.038C478.969 24.9931 478.726 24.9175 478.413 24.8822C477.965 24.8321 477.512 24.9021 477.037 24.9131ZM436.743 26.4268C436.395 26.4431 436.054 26.4593 435.707 26.4756C435.593 26.4817 435.473 26.484 435.366 26.4919C435.146 26.5059 434.984 26.5465 434.878 26.6097C435.042 26.6588 435.241 26.6868 435.461 26.6804C435.809 26.668 436.149 26.6421 436.497 26.6354C436.873 26.6266 437.095 26.7118 437.386 26.7548C437.479 26.7678 437.592 26.7694 437.699 26.771C438.224 26.777 438.542 26.6769 438.441 26.538C438.368 26.4295 438.098 26.3655 437.771 26.3798C437.431 26.3942 437.083 26.4105 436.743 26.4268ZM479.421 22.087C479.506 22.0543 479.598 22.0312 479.64 22.0024C479.767 21.9048 479.716 21.8325 479.48 21.7569C479.195 21.6643 478.848 21.7283 478.529 21.7388C478.451 21.7409 478.366 21.7812 478.324 21.8061C478.296 21.8234 478.296 21.8596 478.339 21.869C478.688 21.9443 479.058 22.0137 479.421 22.087ZM417.751 16.6388C417.411 16.6551 417.063 16.6676 416.723 16.6896C416.638 16.6956 416.56 16.732 416.511 16.757C416.419 16.803 416.519 16.8657 416.811 16.8705C417.144 16.8771 417.492 16.8437 417.839 16.8274C418.279 16.807 418.541 16.7356 418.377 16.6751C418.219 16.6164 418.006 16.6056 417.751 16.6388ZM44.0033 13.6889C44.2303 13.6786 44.4645 13.6703 44.6914 13.6563C44.9042 13.6423 45.0669 13.5998 45.1725 13.5366C44.9942 13.4875 44.795 13.4614 44.575 13.4678C44.2273 13.4803 43.8868 13.4966 43.5464 13.5167C43.3336 13.5288 43.1284 13.5713 43.0797 13.6363C43.0308 13.6861 43.5067 13.7132 44.0033 13.6889ZM387.663 12.36C387.755 12.3768 387.848 12.4109 387.94 12.4106C388.168 12.4099 388.402 12.3978 388.614 12.3781C388.707 12.3702 388.777 12.3356 388.819 12.3088C388.847 12.2915 388.84 12.2611 388.797 12.2459C388.59 12.155 387.767 12.1899 387.633 12.2952C387.62 12.3143 387.655 12.339 387.663 12.36ZM365.106 1.98388C365.128 2.01433 365.135 2.04482 365.164 2.07525C365.222 2.13229 365.379 2.17379 365.606 2.20171C365.783 2.1535 365.874 2.09983 365.866 2.04264C365.859 2.01214 365.837 1.98167 365.808 1.95124C365.751 1.8942 365.594 1.85273 365.366 1.82481C365.189 1.87111 365.105 1.92476 365.106 1.98388ZM495.897 26.5804C495.833 26.6054 495.77 26.6304 495.699 26.6535C495.891 26.7082 496.069 26.7249 496.204 26.6939C496.289 26.6746 496.338 26.6458 496.401 26.6209C496.209 26.5661 496.038 26.5514 495.897 26.5804ZM491.485 26.8531C491.578 26.87 491.663 26.8926 491.763 26.9038C491.926 26.9223 492.075 26.8895 492.187 26.8205C492.095 26.8036 492.009 26.7809 491.91 26.7698C491.746 26.7512 491.598 26.7841 491.485 26.8531ZM494.277 26.4957C494.228 26.5416 494.328 26.5794 494.591 26.6111C494.654 26.5861 494.739 26.5629 494.781 26.5361C494.852 26.492 494.73 26.4523 494.474 26.4226C494.404 26.4457 494.34 26.4707 494.277 26.4957ZM479.259 24.4849C479.21 24.5308 479.31 24.5687 479.573 24.6003C479.637 24.5753 479.722 24.5522 479.764 24.5253C479.834 24.4813 479.713 24.4416 479.457 24.4118C479.386 24.4349 479.323 24.4599 479.259 24.4849ZM458.636 11.0514C458.573 11.0764 458.509 11.1014 458.439 11.1245C458.631 11.1792 458.809 11.1958 458.943 11.1649C459.028 11.1456 459.078 11.1168 459.141 11.0919C458.949 11.0371 458.778 11.0224 458.636 11.0514ZM438.969 3.95089C439.14 3.96373 439.281 3.93661 439.401 3.86569C439.309 3.8488 439.223 3.82617 439.123 3.81502C438.96 3.79644 438.811 3.82932 438.699 3.89832C438.791 3.91712 438.884 3.93399 438.969 3.95089ZM428.577 3.534C428.513 3.55899 428.45 3.58397 428.379 3.60707C428.571 3.6618 428.749 3.67843 428.884 3.64751C428.968 3.62818 429.018 3.59942 429.081 3.57444C428.889 3.51971 428.718 3.50687 428.577 3.534ZM358.121 2.00301C358.057 2.028 357.994 2.05299 357.923 2.07609C358.115 2.13082 358.293 2.14744 358.428 2.11652C358.512 2.09719 358.562 2.06843 358.625 2.04345C358.433 1.98872 358.262 1.97589 358.121 2.00301ZM7.67241 18.5759C7.57986 18.559 7.48739 18.5421 7.40191 18.5233C7.19683 18.5754 7.13368 18.6233 7.24782 18.6592C7.31916 18.6819 7.42577 18.6949 7.51832 18.7118C7.7305 18.6597 7.77947 18.6137 7.67241 18.5759Z" fill="#FFE492"/>
<path d="M48.6974 11.5322C47.8815 11.5708 47.073 11.619 46.2569 11.6444C45.8241 11.6571 45.6693 11.7396 45.4929 11.8164C45.3519 11.8778 45.1889 11.8974 44.9264 11.9096C42.7129 12.0097 40.5065 12.1155 38.3002 12.2194C38.023 12.1955 37.8875 12.1559 37.9506 12.108C37.9857 12.0793 38.0703 12.039 38.1554 12.0349C39.6665 11.9598 41.1703 11.8828 42.6886 11.8229C43.1215 11.8064 43.2409 11.7221 43.4599 11.6528C43.5306 11.6297 43.5869 11.5952 43.679 11.5816C43.771 11.566 43.9059 11.5675 44.0266 11.5634C46.467 11.4473 48.9075 11.3332 51.3479 11.2171C51.6252 11.2411 51.7607 11.2807 51.6975 11.3286C51.6624 11.3573 51.5778 11.3976 51.4927 11.4017C50.5562 11.4446 49.6267 11.4874 48.6974 11.5322Z" fill="#FFE492"/>
<path d="M495.989 20.6715C495.62 20.6955 495.152 20.7294 494.767 20.6199C494.581 20.5671 494.382 20.5505 494.141 20.5627C493.793 20.5828 493.439 20.5991 493.084 20.6116C492.992 20.6138 492.871 20.5932 492.778 20.5763C492.579 20.5426 492.408 20.4859 492.194 20.4713C491.981 20.4567 491.726 20.4994 491.506 20.4905C491.215 20.478 491.093 20.4269 491.171 20.379C491.213 20.3522 491.297 20.3138 491.39 20.3078C492.702 20.2333 492.709 20.2333 493.079 20.3008C493.364 20.3533 493.628 20.4117 494.032 20.378C494.372 20.3503 494.734 20.3435 495.082 20.3253C495.564 20.3009 495.564 20.3028 496.347 20.4206C496.546 20.4505 496.759 20.448 497.014 20.4301C497.234 20.4161 497.448 20.4459 497.626 20.4969C497.513 20.5621 497.35 20.6045 497.131 20.6166C496.776 20.6367 496.428 20.6511 495.989 20.6715Z" fill="#FFE492"/>
<path d="M482.915 20.115C483.809 20.0722 484.71 20.0352 485.603 19.9867C485.972 19.9665 486.264 19.9866 486.52 20.0507C486.798 20.1205 487.11 20.1138 487.451 20.0994C487.664 20.0911 487.87 20.121 488.013 20.174C488.07 20.1948 488.056 20.2331 488.078 20.2635C487.298 20.3002 486.51 20.3388 485.723 20.3717C485.631 20.3758 485.517 20.3571 485.431 20.3421C485.239 20.3102 485.075 20.2535 484.869 20.2427C484.428 20.2173 483.989 20.2701 483.542 20.281C483.329 20.2855 483.123 20.2575 482.98 20.2064C482.923 20.1818 482.937 20.1454 482.915 20.115Z" fill="#FFE492"/>
<path d="M159.37 4.37857C160.299 4.33382 161.228 4.29099 162.158 4.24623C162.435 4.27209 162.563 4.30984 162.507 4.35769C162.472 4.3864 162.388 4.42671 162.302 4.43078C160.444 4.5222 158.585 4.60979 156.734 4.69738C156.456 4.67151 156.328 4.63376 156.384 4.58591C156.419 4.5572 156.504 4.5169 156.589 4.51282C157.511 4.46618 158.44 4.42333 159.37 4.37857Z" fill="#FFE492"/>
<path d="M16.0919 15.4109C15.6733 15.416 15.2345 15.4882 14.7654 15.436C14.673 15.4268 14.5447 15.3965 14.5516 15.3793C14.5653 15.3505 14.6499 15.3139 14.742 15.3021C15.1458 15.2531 15.6496 15.2458 15.8533 15.1112C15.9516 15.042 16.1357 15.0185 16.3839 15.0044C16.6462 14.9883 16.8308 14.9934 17.0372 15.033C17.3076 15.0838 17.5362 15.1788 17.9612 15.1278C17.983 15.1583 18.033 15.1926 18.0122 15.2214C17.9913 15.2501 17.8996 15.2772 17.8148 15.2985C17.737 15.3179 17.6308 15.3354 17.5315 15.3415C17.0635 15.3659 16.5954 15.3864 16.0919 15.4109Z" fill="#FFE492"/>
<path d="M385.467 14.1215C385.814 14.1051 386.176 14.0964 386.516 14.0686C386.786 14.0468 386.956 14.0597 387.17 14.1048C387.533 14.1839 387.554 14.1762 388.442 14.185C388.541 14.1866 388.663 14.2149 388.72 14.2395C388.755 14.2528 388.706 14.2892 388.664 14.3084C388.6 14.3335 388.509 14.3662 388.423 14.3664C387.863 14.3739 387.297 14.4882 386.748 14.3601C386.47 14.296 386.164 14.2663 385.789 14.2961C385.562 14.314 385.321 14.3224 385.086 14.3307C384.859 14.339 384.625 14.3187 384.482 14.2619C384.275 14.1785 384.395 14.1457 384.764 14.1503C384.999 14.1534 385.233 14.1317 385.467 14.1215Z" fill="#FFE492"/>
<path d="M514.297 27.0549C514.743 27.0344 515.19 27.0101 515.644 26.9934C515.736 26.9893 515.85 27.01 515.936 27.0232C516.277 27.0795 516.229 27.1772 516.244 27.2633C516.253 27.3532 515.466 27.4283 515.132 27.3681C514.762 27.3004 514.427 27.2229 513.917 27.2666C513.718 27.2825 513.484 27.2488 513.355 27.1937C513.162 27.1139 513.268 27.081 513.63 27.0857C513.843 27.0888 514.07 27.0671 514.297 27.0549Z" fill="#FFE492"/>
<path d="M288.588 1.44459C289.049 1.42219 289.51 1.38833 289.971 1.38502C290.241 1.3823 290.377 1.44491 290.313 1.49094C290.278 1.5197 290.194 1.56007 290.109 1.56415C289.187 1.61279 288.264 1.65379 287.342 1.69861C287.072 1.67269 286.937 1.63299 287 1.58696C287.035 1.5582 287.12 1.51974 287.205 1.51375C287.666 1.48561 288.127 1.467 288.588 1.44459Z" fill="#FFE492"/>
<path d="M505.396 20.8197C505.843 20.7993 506.296 20.7692 506.743 20.7583C506.977 20.7538 507.163 20.7972 507.192 20.8468C507.206 20.8696 507.094 20.9101 507.001 20.9199C506.364 20.9868 505.675 20.9966 505.008 21.0311C504.796 21.0413 504.568 21.0114 504.439 20.9583C504.247 20.8767 504.353 20.8458 504.715 20.8505C504.942 20.8517 505.169 20.83 505.396 20.8197Z" fill="#FFE492"/>
<path d="M397.207 14.3514C397.434 14.3411 397.667 14.3155 397.887 14.3225C398.122 14.3313 398.271 14.3864 398.343 14.4418C398.422 14.5047 398.416 14.5641 398.346 14.618C398.234 14.7103 398.12 14.7068 397.857 14.6463C397.451 14.5518 397.423 14.5633 396.621 14.5696C396.529 14.5699 396.415 14.5415 396.344 14.5168C396.237 14.4789 396.293 14.4193 396.54 14.3841C396.724 14.3586 396.98 14.3617 397.207 14.3514Z" fill="#FFE492"/>
<path d="M488.746 20.2302C489.08 20.2139 489.413 20.1881 489.746 20.187C489.981 20.1844 490.166 20.2278 490.188 20.2756C490.195 20.2985 490.089 20.337 490.004 20.3488C489.601 20.4016 489.147 20.4068 488.707 20.4254C488.501 20.4337 488.273 20.4037 488.145 20.3506C487.952 20.2709 488.065 20.2342 488.413 20.2446C488.52 20.2481 488.633 20.2363 488.746 20.2302Z" fill="#FFE492"/>
<path d="M436.189 17.9995C435.693 18.024 435.224 17.9967 435.259 17.9469C435.307 17.8818 435.513 17.839 435.725 17.8269C436.066 17.8068 436.406 17.7904 436.754 17.7779C436.973 17.7696 437.173 17.7977 437.351 17.8468C437.245 17.9083 437.083 17.9528 436.87 17.9668C436.65 17.9809 436.416 17.9893 436.189 17.9995Z" fill="#FFE492"/>
<path d="M432.926 17.7625C433.26 17.7461 433.593 17.7203 433.926 17.7193C434.161 17.7166 434.346 17.76 434.368 17.8078C434.375 17.8307 434.27 17.8693 434.185 17.881C433.781 17.9339 433.327 17.9391 432.887 17.9576C432.681 17.9659 432.454 17.936 432.325 17.8828C432.132 17.8031 432.245 17.7664 432.593 17.7769C432.7 17.7804 432.813 17.7685 432.926 17.7625Z" fill="#FFE492"/>
<path d="M393.171 14.3459C393.504 14.3296 393.838 14.3037 394.171 14.3008C394.405 14.2982 394.59 14.3416 394.612 14.3893C394.62 14.4123 394.514 14.4489 394.429 14.4626C394.025 14.5154 393.571 14.5206 393.131 14.5392C392.926 14.5474 392.698 14.5175 392.57 14.4644C392.377 14.3847 392.49 14.348 392.838 14.3584C392.944 14.3619 393.058 14.3501 393.171 14.3459Z" fill="#FFE492"/>
<path d="M391.303 14.2375C391.658 14.2211 391.771 14.2112 391.885 14.2108C392.098 14.2102 392.318 14.2325 392.447 14.2875C392.64 14.3673 392.526 14.3906 392.179 14.3954C391.731 14.4006 391.292 14.4421 390.845 14.4511C390.611 14.4557 390.426 14.4103 390.411 14.3626C390.403 14.3396 390.509 14.2992 390.594 14.2913C390.892 14.2617 391.218 14.2435 391.303 14.2375Z" fill="#FFE492"/>
<path d="M429.914 2.8331C429.687 2.84336 429.446 2.87089 429.233 2.86197C428.949 2.84944 428.835 2.79814 428.905 2.75009C428.947 2.72318 429.025 2.68467 429.11 2.67867C429.564 2.6505 430.025 2.63186 430.479 2.61134C430.749 2.63922 430.87 2.67903 430.8 2.72707C430.757 2.75399 430.68 2.79058 430.595 2.79849C430.375 2.8183 430.141 2.82284 429.914 2.8331Z" fill="#FFE492"/>
<path d="M154.276 4.61821C154.496 4.61563 154.695 4.6399 154.866 4.68724C154.761 4.74882 154.605 4.7895 154.393 4.80738C154.286 4.81536 154.166 4.82146 154.052 4.82372C153.833 4.82822 153.633 4.80203 153.462 4.7547C153.568 4.69312 153.73 4.65242 153.936 4.63456C154.042 4.62658 154.163 4.6243 154.276 4.61821Z" fill="#FFE492"/>
<path d="M502.963 20.8175C502.955 20.762 503.386 20.6975 503.777 20.6982C503.983 20.6995 504.196 20.7257 504.317 20.777C504.503 20.8549 504.397 20.8858 504.049 20.8812C503.836 20.878 503.61 20.9112 503.397 20.9061C503.155 20.9049 503.013 20.8633 502.963 20.8175Z" fill="#FFE492"/>
<path d="M399.262 14.578C399.255 14.5569 399.219 14.5321 399.24 14.5129C399.373 14.4072 400.188 14.3721 400.402 14.4634C400.438 14.4805 400.453 14.5092 400.425 14.5265C400.383 14.5535 400.305 14.5882 400.22 14.5961C400 14.6159 399.774 14.6262 399.547 14.6288C399.447 14.6291 399.354 14.5969 399.262 14.578Z" fill="#FFE492"/>
<path d="M18.6153 15.0972C17.7787 15.14 17.7645 15.1362 17.912 15.04C18.0455 14.9534 18.2931 14.9009 18.6549 14.8998C18.7613 14.8995 18.8747 14.8953 18.9671 14.9027C19.0666 14.912 19.2088 14.9307 19.2305 14.9536C19.2737 14.9975 19.1537 15.0457 18.9414 15.0789C18.8494 15.0945 18.7287 15.0911 18.6153 15.0972Z" fill="#FFE492"/>
<path d="M164.765 4.32105C164.517 4.35437 164.304 4.34354 164.147 4.28272C163.99 4.2219 164.238 4.14833 164.67 4.12977C164.784 4.12559 164.904 4.1099 165.01 4.11724C165.117 4.12266 165.224 4.1453 165.288 4.16809C165.402 4.20606 165.332 4.25801 165.106 4.30277C165.014 4.32029 164.879 4.31687 164.765 4.32105Z" fill="#FFE492"/>
<path d="M501.483 20.6776C501.546 20.6525 501.609 20.6273 501.68 20.6041C501.942 20.6359 502.056 20.6739 501.985 20.7183C501.943 20.7453 501.859 20.7685 501.796 20.7937C501.534 20.7619 501.427 20.7219 501.483 20.6776Z" fill="#FFE492"/>
<path d="M30.0553 36.9526C30.0549 36.9296 30.1534 36.8929 30.2312 36.885C30.3796 36.8711 30.5639 36.8973 30.6921 36.9506C30.8701 37.0268 30.7647 37.0674 30.4389 37.0473C30.2122 37.0326 30.0559 36.9948 30.0553 36.9526Z" fill="#FFE492"/>
<path d="M402.133 12.7825C402.225 12.7995 402.317 12.8165 402.402 12.8354C402.283 12.9066 402.135 12.9377 401.979 12.9191C401.88 12.9079 401.794 12.8851 401.702 12.8682C401.821 12.7969 401.962 12.7696 402.133 12.7825Z" fill="#FFE492"/>
<path d="M399.678 12.7021C399.819 12.6729 399.989 12.6877 400.188 12.7427C400.125 12.7678 400.069 12.7967 399.991 12.8161C399.857 12.8472 399.68 12.8324 399.488 12.7755C399.544 12.7523 399.608 12.7272 399.678 12.7021Z" fill="#FFE492"/>
<path d="M397.795 12.791C397.887 12.808 397.98 12.825 398.065 12.8439C397.946 12.9151 397.805 12.9462 397.641 12.9276C397.542 12.9164 397.457 12.8936 397.365 12.8767C397.484 12.8054 397.625 12.7762 397.795 12.791Z" fill="#FFE492"/>
<path d="M396.405 12.6921C396.512 12.7302 396.456 12.7764 396.252 12.8288C396.159 12.8119 396.053 12.7988 395.982 12.776C395.868 12.7399 395.924 12.6917 396.136 12.6392C396.221 12.6582 396.313 12.6752 396.405 12.6921Z" fill="#FFE492"/>
</svg>
