<svg width="339" height="44" viewBox="0 0 339 44" fill="none" xmlns="http://www.w3.org/2000/svg">
<path d="M316.456 23.1543C315.994 23.1898 315.529 23.2142 315.077 23.2675C314.783 23.3009 314.658 23.2032 314.462 23.1521C314.397 23.1343 314.327 23.0988 314.266 23.1032C313.81 23.1387 313.353 23.1787 312.897 23.2187C312.757 23.3053 312.669 23.4208 312.454 23.463C312.245 23.503 311.998 23.503 311.765 23.523C311.458 23.5474 311.15 23.5719 310.843 23.5941C310.689 23.6052 310.563 23.6474 310.512 23.7273C310.503 23.7406 310.605 23.7739 310.661 23.7939C310.847 23.8606 311.029 23.9361 311.234 23.9872C311.43 24.036 311.672 23.9561 311.882 24.0183C312.352 24.1582 312.357 24.156 312.715 24.1293C313.023 24.1049 313.33 24.0782 313.638 24.0605C313.698 24.056 313.768 24.0893 313.833 24.1071C314.029 24.156 314.155 24.267 314.443 24.2248C314.662 24.1915 314.905 24.1848 315.133 24.1671C315.324 24.2315 315.501 24.3048 315.706 24.3559C315.897 24.4047 315.953 24.4425 315.85 24.5069C315.757 24.5669 315.627 24.5913 315.454 24.5957C315.3 24.598 315.147 24.6179 314.993 24.629C314.914 24.6357 314.839 24.6402 314.765 24.6468C314.471 24.6713 314.471 24.6713 313.936 24.5291C313.726 24.4736 313.489 24.5513 313.288 24.498C313.153 24.4625 313.037 24.4092 312.906 24.3714C312.85 24.3559 312.762 24.3536 312.692 24.3581C312.459 24.3736 312.226 24.3847 312.003 24.4136C311.844 24.4336 311.751 24.4958 311.77 24.558C311.774 24.5824 311.886 24.618 311.951 24.6202C312.1 24.6246 312.259 24.5935 312.403 24.6091C312.543 24.6246 312.687 24.669 312.79 24.7179C312.999 24.8201 313.237 24.729 313.437 24.7557C313.647 24.7845 313.819 24.8734 314.019 24.9267C314.071 24.94 314.169 24.9178 314.248 24.9111C314.476 24.8956 314.704 24.8823 314.933 24.8667C315.124 24.9311 315.328 24.9889 315.501 25.0622C315.813 25.1954 316.148 25.2465 316.554 25.1821C316.782 25.1465 317.005 25.1599 317.187 25.2465C317.373 25.3353 317.588 25.3265 317.825 25.3087C318.044 25.2909 318.268 25.2421 318.491 25.3042C318.976 25.4419 318.98 25.4486 319.553 25.3953C319.726 25.3798 319.856 25.3753 319.986 25.4264C320.108 25.4731 320.238 25.513 320.364 25.5574C320.592 25.5419 320.825 25.5264 321.053 25.5086C321.347 25.4842 321.51 25.5152 321.579 25.6396C321.621 25.7151 321.64 25.784 321.743 25.8351C321.864 25.8973 321.994 25.895 322.171 25.8773C322.339 25.8617 322.46 25.8373 322.53 25.7573C322.558 25.724 322.614 25.6929 322.665 25.6663C322.707 25.6463 322.772 25.6152 322.809 25.6196C322.879 25.6285 322.972 25.6529 322.996 25.6818C323.224 25.9506 323.224 25.9528 323.457 26.0305C323.713 26.1171 323.978 26.1949 324.211 26.2926C324.421 26.3792 324.63 26.3415 324.859 26.3415C325.031 26.3415 325.143 26.3992 325.129 26.457C325.12 26.4903 325.054 26.5391 324.998 26.5436C324.542 26.588 324.081 26.6258 323.62 26.6568C323.564 26.6613 323.494 26.6213 323.429 26.6013C323.298 26.5613 323.182 26.4991 323.042 26.4858C322.902 26.4725 322.739 26.5058 322.586 26.5169C322.432 26.528 322.269 26.5569 322.129 26.5392C321.989 26.5214 321.878 26.457 321.747 26.4148C321.687 26.3948 321.603 26.3659 321.552 26.3726C321.212 26.4259 320.96 26.3526 320.718 26.2549C320.667 26.2349 320.578 26.2215 320.513 26.226C319.973 26.2637 319.437 26.3081 318.897 26.3503C318.678 26.3681 318.501 26.2904 318.454 26.1593C318.431 26.086 318.384 26.0128 318.384 25.9395C318.384 25.8062 318.128 25.7329 317.942 25.7485C317.634 25.7707 317.322 25.7884 317.019 25.8217C316.772 25.8484 316.563 25.8217 316.395 25.7418C316.199 25.6507 315.976 25.6685 315.752 25.6929C315.585 25.7107 315.538 25.784 315.547 25.9683C315.557 26.1171 315.477 26.1638 315.175 26.1882C314.793 26.2193 314.406 26.2504 314.019 26.2748C313.959 26.2793 313.889 26.2415 313.829 26.2215C313.698 26.1816 313.582 26.1171 313.442 26.1038C313.302 26.0883 313.139 26.1216 312.985 26.1349C312.832 26.146 312.669 26.1771 312.529 26.1616C312.389 26.146 312.273 26.0794 312.147 26.0372C312.086 26.0172 312.012 25.9883 311.951 25.9928C311.644 26.0105 311.336 26.0372 311.029 26.0616C310.684 26.0883 310.684 26.0883 310.195 25.9506C309.972 25.8884 309.748 25.9373 309.529 25.955C309.296 25.9728 309.077 25.9817 308.896 25.8928C308.775 25.8351 308.64 25.7995 308.495 25.8106C308.109 25.8373 307.727 25.8706 307.34 25.8973C307.275 25.9017 307.186 25.8906 307.135 25.8706C306.888 25.7773 306.646 25.704 306.301 25.7507C306.003 25.7907 305.682 25.7929 305.384 25.8306C305.221 25.8506 305.146 25.9217 305.179 25.9772C305.197 26.0061 305.295 26.0394 305.36 26.0394C305.509 26.0416 305.672 26.0083 305.812 26.0216C306.101 26.0483 306.245 26.2348 306.623 26.1838C306.846 26.1527 307.079 26.1416 307.312 26.1327C307.373 26.1305 307.438 26.1727 307.503 26.1949C307.689 26.2548 307.852 26.3326 308.122 26.2926C308.346 26.2615 308.584 26.2526 308.812 26.2349C309.175 26.206 309.175 26.2082 309.646 26.3437C309.869 26.4081 310.093 26.357 310.312 26.3415C310.475 26.3304 310.628 26.3082 310.759 26.3393C310.959 26.3859 311.104 26.4925 311.35 26.4858C311.583 26.4792 311.812 26.4481 312.044 26.437C312.189 26.4303 312.324 26.4658 312.44 26.5258C312.562 26.5858 312.692 26.6124 312.85 26.5991C313.079 26.5813 313.311 26.5591 313.544 26.548C313.61 26.5458 313.684 26.5658 313.745 26.5836C313.875 26.6235 314.001 26.6702 314.127 26.7124C314.355 26.699 314.588 26.6946 314.811 26.668C314.984 26.648 315.105 26.6569 315.245 26.7013C315.422 26.7612 315.566 26.8679 315.855 26.8168C315.999 26.7923 316.167 26.799 316.311 26.7768C316.488 26.7479 316.609 26.759 316.735 26.8256C316.973 26.9522 317.271 26.9545 317.578 26.9056C317.914 26.8523 318.165 26.9145 318.417 27.0122C318.682 27.1144 318.682 27.1122 318.887 27.3587C318.948 27.4298 319.12 27.4631 319.264 27.4498C319.507 27.4276 319.716 27.4387 319.893 27.5231C320.08 27.6141 320.303 27.603 320.531 27.5786C320.834 27.5453 321.137 27.5164 321.384 27.6452C321.505 27.7074 321.635 27.7229 321.798 27.7074C322.26 27.6674 322.725 27.643 323.177 27.5941C323.452 27.563 323.61 27.6341 323.797 27.6941C324.048 27.7763 324.323 27.8495 324.323 28.025C324.323 28.0539 324.388 28.0872 324.444 28.1094C324.565 28.156 324.696 28.196 324.822 28.2404C325.008 28.3071 325.189 28.3626 325.446 28.3271C325.669 28.2982 325.907 28.2893 326.135 28.2693C326.363 28.2493 326.573 28.2382 326.778 28.3226C327.015 28.4181 327.267 28.5092 327.537 28.5803C327.728 28.6313 327.98 28.5447 328.185 28.6136C328.31 28.6558 328.431 28.7046 328.566 28.7402C328.622 28.7557 328.711 28.7446 328.786 28.7402C328.939 28.7313 329.098 28.7246 329.247 28.7024C329.419 28.678 329.549 28.6824 329.68 28.7335C329.801 28.7802 329.922 28.8446 330.062 28.8579C330.271 28.8779 330.504 28.789 330.714 28.8912C330.821 28.9423 330.956 28.9912 331.096 29.0067C331.236 29.0223 331.399 28.9889 331.548 28.9912C331.613 28.9912 331.692 29.0267 331.729 29.0556C331.753 29.0711 331.72 29.1133 331.687 29.1355C331.646 29.1622 331.585 29.1977 331.524 29.2022C331.063 29.2421 330.602 29.2755 330.141 29.3132C329.866 29.3354 329.866 29.3354 329.312 29.1955C329.181 29.1622 329.037 29.1688 328.874 29.1844C328.655 29.2044 328.432 29.2421 328.203 29.2022C327.905 29.0511 327.537 29.0378 327.146 29.0955C326.983 29.12 326.834 29.12 326.713 29.0778C326.456 28.9934 326.186 28.9157 325.958 28.8157C325.781 28.738 325.697 28.7313 325.623 28.8379C325.599 28.8712 325.576 28.9068 325.581 28.9378C325.609 29.0489 325.66 29.1577 325.688 29.2688C325.697 29.2999 325.66 29.3354 325.637 29.3687C325.562 29.462 325.464 29.4553 325.301 29.3776C325.138 29.2999 324.943 29.2488 324.682 29.2843C324.458 29.3154 324.216 29.311 323.992 29.3443C323.648 29.3932 323.405 29.3221 323.159 29.2266C323.107 29.2066 323.019 29.1955 322.954 29.1999C322.26 29.251 321.57 29.3088 320.876 29.3598C320.727 29.371 320.592 29.3376 320.476 29.2777C320.354 29.2177 320.219 29.1866 320.07 29.1977C319.455 29.2444 318.841 29.2866 318.226 29.3443C317.974 29.3687 317.774 29.3398 317.602 29.2621C317.471 29.2044 317.35 29.1866 317.187 29.1933C317.01 29.1999 316.884 29.2222 316.796 29.2866C316.712 29.3488 316.772 29.3865 316.959 29.4354C317.159 29.4887 317.345 29.5575 317.536 29.6197C317.69 29.6108 317.844 29.593 317.993 29.5953C318.058 29.5953 318.119 29.6353 318.184 29.6575C318.37 29.7219 318.542 29.7863 318.808 29.7508C319.032 29.7197 319.269 29.713 319.497 29.693C319.814 29.6686 319.814 29.6686 320.326 29.8085C320.457 29.844 320.597 29.8418 320.764 29.8218C320.909 29.8063 321.058 29.8374 321.16 29.904C321.202 29.9306 321.188 29.9751 321.1 30.1217C321.1 30.2305 321.197 30.1816 321.23 30.1106C321.281 30.0084 321.184 29.9751 320.997 30.0306C320.867 30.0706 320.802 30.1283 320.834 30.175C320.853 30.1994 320.941 30.2305 321.1 30.1217C321.51 29.9884 321.822 29.9728 322.12 29.9373C322.297 29.9173 322.409 29.9262 322.548 29.9839C322.716 30.0528 322.884 30.1261 323.159 30.0906C323.457 30.0506 323.773 30.0461 324.076 30.0128C324.356 29.9817 324.5 30.0795 324.677 30.1372C324.891 30.2061 325.129 30.1283 325.325 30.1683C325.529 30.2083 325.674 30.306 325.911 30.3238C326.256 30.2638 326.475 30.3749 326.736 30.4482C326.941 30.5037 327.183 30.4548 327.402 30.4304C327.649 30.4037 327.854 30.4282 328.026 30.5081C328.222 30.5992 328.441 30.5792 328.664 30.5592C329.186 30.5148 329.205 30.5081 329.507 30.6303C329.726 30.7191 329.936 30.6791 330.155 30.668C330.346 30.728 330.532 30.7924 330.733 30.8457C330.784 30.859 330.882 30.8368 330.961 30.8302C331.189 30.8124 331.422 30.7946 331.65 30.7769C331.804 30.7658 331.967 30.7324 332.107 30.7458C332.246 30.7613 332.363 30.8257 332.489 30.8679C332.614 30.9101 332.745 30.9523 332.866 30.9967C333.052 31.0634 333.229 31.1189 333.49 31.0856C333.714 31.0567 333.947 31.0478 334.179 31.0278C334.473 31.0034 334.464 31.0101 335.009 31.1433C335.302 31.2166 335.605 31.1278 335.903 31.1189C336.052 31.1145 336.196 31.1389 336.299 31.2033C336.341 31.23 336.327 31.2744 336.341 31.3121C335.572 31.3721 334.799 31.4232 334.04 31.4965C333.746 31.5254 333.593 31.4454 333.434 31.3788C333.173 31.2722 332.829 31.4276 332.582 31.2899C332.433 31.2077 332.218 31.1611 331.962 31.2011C331.813 31.2233 331.655 31.2211 331.501 31.2411C331.11 31.2899 330.751 31.2922 330.439 31.1389C330.332 31.0856 330.178 31.0567 330.066 31.0056C329.936 30.9501 329.81 30.919 329.656 30.9301C328.962 30.9834 328.273 31.0367 327.584 31.0945C327.523 31.0989 327.463 31.1322 327.411 31.1567C327.281 31.2188 327.323 31.2677 327.532 31.3077C327.602 31.321 327.658 31.3499 327.723 31.3721C327.849 31.4143 327.966 31.4809 328.105 31.4965C328.245 31.512 328.408 31.4809 328.562 31.4698C328.716 31.4587 328.879 31.4254 329.018 31.4387C329.158 31.4543 329.275 31.5187 329.405 31.5587C329.466 31.5787 329.54 31.612 329.601 31.6098C329.908 31.5964 330.211 31.572 330.518 31.552C330.709 31.612 330.872 31.6986 331.101 31.7186C331.245 31.7319 331.399 31.7075 331.548 31.7119C331.613 31.7141 331.697 31.7475 331.729 31.7763C331.748 31.7941 331.687 31.8385 331.641 31.8607C331.464 31.9451 331.222 31.9296 331.003 31.9562C330.765 31.9851 330.551 31.9762 330.369 31.8896C330.248 31.8319 330.113 31.8008 329.964 31.8119C329.577 31.8408 329.195 31.8741 328.809 31.8985C328.743 31.9029 328.664 31.8829 328.604 31.8674C328.115 31.7319 328.115 31.7275 327.77 31.7564C327.262 31.7986 327.262 31.7985 326.922 31.6808C326.857 31.6586 326.787 31.6164 326.731 31.6186C326.191 31.6542 325.655 31.6897 325.12 31.7408C324.943 31.7563 324.822 31.7563 324.691 31.6986C324.579 31.6497 324.449 31.5942 324.309 31.5809C324.165 31.5676 324.006 31.6009 323.853 31.612C323.699 31.6231 323.536 31.652 323.401 31.6342C323.261 31.6164 323.14 31.5542 323.019 31.5098C322.893 31.4632 322.758 31.4654 322.586 31.4831C322.055 31.5342 322.05 31.5276 321.524 31.3899C321.463 31.3743 321.384 31.3566 321.319 31.361C320.932 31.3877 320.55 31.421 320.164 31.4476C320.014 31.4587 319.87 31.4299 319.768 31.3654C319.726 31.3388 319.74 31.2944 319.712 31.2077C319.679 31.1877 319.716 31.2233 319.726 31.2566C319.795 31.2522 319.879 31.2566 319.931 31.2388C320.061 31.1966 320.126 31.1411 320.094 31.0945C320.075 31.07 319.987 31.0389 319.931 31.0389C319.828 31.0389 319.74 31.0878 319.712 31.2077C319.418 31.281 319.106 31.2966 318.803 31.3321C318.626 31.3543 318.515 31.3432 318.375 31.2855C318.207 31.2144 318.035 31.1455 317.76 31.1811C317.462 31.2211 317.145 31.2277 316.838 31.2588C316.484 31.2944 316.33 31.0945 316.032 31.0989C315.724 31.1033 315.417 31.1411 315.109 31.1678C314.839 31.19 314.839 31.19 314.28 31.0456C314.075 30.9923 313.833 31.07 313.633 31.0145C313.498 30.979 313.381 30.9257 313.251 30.8879C313.195 30.8724 313.107 30.8724 313.037 30.8768C312.65 30.9035 312.259 30.9212 311.886 30.9701C311.462 31.0278 311.141 30.9657 310.838 30.8346C310.456 30.859 310.07 30.8724 309.692 30.9146C309.417 30.9457 309.259 30.8724 309.073 30.8124C309.008 30.7924 308.952 30.7591 308.882 30.7502C308.812 30.7413 308.728 30.7591 308.653 30.7658C308.346 30.7902 308.029 30.8013 307.731 30.8413C307.363 30.8924 307.223 30.7102 306.939 30.688C306.748 30.7969 306.646 30.9457 306.269 30.9568C305.961 30.9656 305.654 31.0012 305.346 31.0256C305.193 31.0367 305.039 31.0501 304.885 31.0612C304.638 31.0812 304.522 31.1678 304.573 31.301C304.601 31.3743 304.624 31.4476 304.648 31.5209C304.694 31.652 304.578 31.763 304.382 31.7786C303.842 31.8208 303.306 31.8652 302.766 31.9029C302.621 31.914 302.482 31.8763 302.365 31.8163C302.244 31.7563 302.109 31.7297 301.96 31.7408C301.42 31.783 300.884 31.8274 300.344 31.8652C300.283 31.8696 300.204 31.8474 300.143 31.8296C300.013 31.7897 299.887 31.743 299.761 31.7008C299.454 31.7208 299.151 31.7341 298.848 31.7608C298.359 31.8007 298.359 31.803 298.001 31.6808C297.935 31.6586 297.87 31.6164 297.81 31.6186C297.577 31.6275 297.349 31.6497 297.116 31.6697C296.431 31.7275 296.431 31.7275 296.23 31.6608C296.049 31.5986 295.886 31.5231 295.611 31.5587C295.313 31.5987 294.996 31.612 294.689 31.6342C294.46 31.6497 294.232 31.6675 294.004 31.672C293.943 31.6742 293.878 31.632 293.813 31.6098C293.627 31.5409 293.445 31.4854 293.189 31.5231C293.04 31.5453 292.881 31.5498 292.728 31.5609C292.327 31.592 292.327 31.592 291.67 31.4587C291.605 31.4454 291.526 31.4298 291.461 31.4365C290.92 31.4765 290.385 31.5209 289.844 31.5587C289.779 31.5631 289.7 31.5498 289.635 31.5387C288.899 31.4098 288.899 31.4099 288.116 31.4721C287.818 31.4943 287.809 31.5031 287.497 31.3854C287.357 31.3343 287.241 31.3099 287.078 31.3255C286.463 31.3788 285.843 31.4143 285.233 31.4765C284.958 31.5032 284.8 31.4365 284.613 31.3765C284.548 31.3565 284.478 31.3121 284.422 31.3144C283.808 31.3566 283.193 31.4076 282.578 31.4498C282.522 31.4543 282.452 31.4099 282.387 31.3899C282.261 31.3499 282.14 31.2899 282 31.2766C281.856 31.2633 281.697 31.2966 281.539 31.3077C281.152 31.3366 281.152 31.3344 280.705 31.2033C280.645 31.1855 280.566 31.1611 280.505 31.1656C279.89 31.21 279.271 31.2477 278.66 31.3121C278.311 31.3477 278.074 31.2833 277.827 31.19C277.775 31.17 277.687 31.1611 277.622 31.1656C276.928 31.2166 276.238 31.2744 275.544 31.3255C275.4 31.3366 275.26 31.2988 275.144 31.2411C274.957 31.15 274.738 31.1611 274.506 31.1811C273.97 31.2277 273.965 31.2255 273.648 31.1189C273.583 31.0967 273.527 31.0678 273.457 31.0567C273.392 31.0456 273.308 31.0523 273.239 31.0567C272.931 31.0789 272.624 31.1034 272.316 31.1278C272.009 31.1522 271.697 31.1656 271.394 31.2033C271.021 31.25 270.844 31.1056 270.583 31.0389C270.201 31.0678 269.81 31.0856 269.433 31.1322C269.144 31.1678 269.009 31.07 268.818 31.019C268.753 31.0012 268.683 30.9634 268.622 30.9679C267.928 31.0167 267.234 31.07 266.545 31.13C266.377 31.1433 266.266 31.1256 266.126 31.0723C265.814 30.9523 265.8 30.9568 265.278 31.0012C265.05 31.0212 264.831 31.039 264.635 30.9479C264.463 30.8657 264.253 30.8457 264.006 30.8724C263.704 30.9057 263.391 30.9235 263.084 30.9457C262.777 30.9701 262.469 31.0034 262.162 31.0145C261.915 31.0256 261.766 30.9212 261.57 30.8679C261.51 30.8524 261.426 30.8502 261.356 30.8546C261.048 30.8746 260.732 30.8901 260.434 30.9279C260.07 30.9745 259.87 30.8524 259.614 30.7813C259.558 30.7658 259.465 30.7747 259.395 30.7813C258.854 30.8213 258.319 30.8657 257.779 30.9079C257.588 30.8479 257.392 30.7902 257.201 30.7302C256.893 30.7524 256.586 30.7769 256.279 30.7991C256.046 30.8168 255.808 30.8235 255.589 30.8568C255.305 30.9012 255.165 30.7969 254.974 30.7458C254.909 30.728 254.839 30.6903 254.779 30.6947C254.392 30.7191 254.006 30.7458 253.624 30.7835C253.26 30.8213 253.116 30.6214 252.818 30.6236C252.51 30.6258 252.194 30.6547 251.895 30.6947C251.551 30.7413 251.309 30.6703 251.062 30.5747C251.01 30.5548 250.922 30.5437 250.857 30.5481C250.47 30.5747 250.088 30.6081 249.702 30.6347C249.636 30.6392 249.557 30.6281 249.492 30.6147C248.756 30.4837 248.756 30.4815 248.435 30.5081C248.206 30.5259 247.973 30.5481 247.741 30.5592C247.675 30.5637 247.596 30.5437 247.535 30.5259C247.051 30.3904 247.051 30.3882 246.702 30.4148C246.394 30.4393 246.087 30.4637 245.779 30.4881C245.588 30.4282 245.393 30.3704 245.202 30.3105C244.82 30.3393 244.429 30.3615 244.051 30.4015C243.874 30.4193 243.758 30.4126 243.623 30.3571C243.455 30.2905 243.287 30.2127 243.008 30.2505C242.71 30.2905 242.393 30.2949 242.09 30.3282C241.727 30.3682 241.578 30.1661 241.284 30.1683C240.977 30.1705 240.66 30.1994 240.362 30.2394C240.017 30.286 239.775 30.215 239.528 30.1195C239.477 30.0995 239.389 30.0884 239.323 30.0928C238.476 30.1572 237.633 30.2216 236.785 30.2904C236.263 30.3326 236.263 30.3349 235.271 30.2127C235.201 30.2038 235.126 30.195 235.057 30.1994C234.749 30.2194 234.432 30.2349 234.134 30.2727C233.771 30.3193 233.571 30.1994 233.315 30.1261C233.259 30.1105 233.17 30.1194 233.096 30.1239C232.863 30.1394 232.634 30.1594 232.402 30.1772C232.094 30.2016 231.787 30.2261 231.479 30.2505C231.288 30.1927 231.093 30.1328 230.902 30.075C230.52 30.1039 230.128 30.1194 229.751 30.1661C229.462 30.2016 229.327 30.1083 229.136 30.055C229.071 30.0373 229.001 29.9995 228.941 30.0017C228.247 30.0506 227.553 30.1017 226.863 30.1639C226.579 30.1905 226.449 30.0906 226.258 30.0395C226.192 30.0239 226.118 29.9951 226.057 29.9995C225.596 30.0306 225.135 30.0684 224.674 30.1061C224.413 30.1283 224.413 30.1283 223.845 29.9906C223.78 29.9751 223.705 29.9595 223.64 29.964C222.177 30.075 220.719 30.1927 219.257 30.3038C219.108 30.3149 218.973 30.2816 218.856 30.2216C218.735 30.1616 218.6 30.1306 218.451 30.1417C217.836 30.1883 217.216 30.2305 216.606 30.2883C216.355 30.3127 216.154 30.2838 215.982 30.206C215.852 30.1483 215.731 30.1261 215.568 30.1394C215.26 30.1661 214.953 30.1883 214.645 30.2127C214.338 30.2372 214.03 30.2616 213.723 30.286C213.416 30.3105 213.103 30.3238 212.801 30.3615C212.428 30.4082 212.246 30.2705 211.99 30.2016C211.529 30.2349 211.068 30.2683 210.611 30.3038C209.996 30.3504 209.382 30.4015 208.767 30.4459C208.711 30.4504 208.641 30.4104 208.576 30.3904C208.385 30.3349 208.245 30.2572 207.961 30.2816C206.582 30.3993 205.194 30.4992 203.811 30.6147C203.522 30.6392 203.396 30.5437 203.2 30.4926C203.135 30.477 203.061 30.4459 203 30.4504C202.232 30.5059 201.463 30.5681 200.694 30.628C200.382 30.6525 200.382 30.6525 199.861 30.5148C199.8 30.4992 199.721 30.4792 199.656 30.4837C198.654 30.5592 197.657 30.6392 196.656 30.7169C196.507 30.728 196.372 30.6969 196.251 30.6369C196.134 30.577 195.994 30.5437 195.85 30.5548C194.928 30.6258 194.001 30.6947 193.083 30.7724C192.836 30.7946 192.631 30.7746 192.454 30.6947C192.329 30.6369 192.203 30.6125 192.044 30.6258C190.661 30.7347 189.278 30.8391 187.894 30.9546C187.629 30.9768 187.442 30.9346 187.275 30.8613C187.14 30.8035 187.023 30.7924 186.855 30.8013C186.678 30.8124 186.571 30.8368 186.474 30.9035C186.348 30.9901 186.269 31.0989 185.97 31.1056C185.663 31.1122 185.351 31.1389 185.048 31.1767C184.759 31.2144 184.624 31.1145 184.443 31.0545C184.307 31.0123 184.182 31.0056 184.009 31.0256C183.851 31.0434 183.753 31.0811 183.66 31.1522C183.455 31.3032 183.436 31.3032 183.185 31.2077C183.05 31.1567 182.929 31.1167 182.78 31.1256C182.165 31.17 181.55 31.2188 180.935 31.2699C180.581 31.2988 180.576 31.3033 180.311 31.1922C180.181 31.1367 180.055 31.11 179.901 31.1233C178.21 31.2566 176.519 31.3854 174.828 31.5254C174.568 31.5476 174.391 31.5009 174.204 31.4343C174.144 31.4121 174.083 31.381 174.013 31.3721C173.943 31.3632 173.864 31.3721 173.79 31.3765C172.56 31.472 171.326 31.5631 170.1 31.6697C169.821 31.6942 169.672 31.6231 169.481 31.5653C169.416 31.5454 169.36 31.5143 169.29 31.5054C169.22 31.4987 169.136 31.5142 169.062 31.5209C167.832 31.6164 166.598 31.7075 165.373 31.8141C165.079 31.8385 164.953 31.7452 164.762 31.6964C164.697 31.6786 164.627 31.6453 164.567 31.6497C164.18 31.6742 163.798 31.7075 163.412 31.7363C162.489 31.8096 161.567 31.8785 160.645 31.954C160.291 31.9829 160.137 31.7852 159.839 31.7941C159.452 31.8052 159.07 31.8496 158.684 31.8807C158.376 31.9051 158.069 31.9274 157.761 31.954C157.459 31.9785 157.459 31.9784 156.704 31.8496C156.639 31.8385 156.56 31.823 156.494 31.8274C155.418 31.9096 154.338 31.9918 153.266 32.0806C153.02 32.1006 152.815 32.0895 152.638 32.0073C152.512 31.9496 152.381 31.9207 152.228 31.934C150.611 32.0606 149 32.1872 147.383 32.3116C147.323 32.3161 147.244 32.2938 147.183 32.2761C147.053 32.2361 146.927 32.1895 146.801 32.1473C146.708 32.1983 146.587 32.245 146.526 32.3027C146.442 32.3805 146.331 32.4027 146.154 32.416C145.977 32.4293 145.865 32.4249 145.725 32.3671C145.557 32.2961 145.385 32.2405 145.11 32.2627C143.419 32.4027 141.728 32.5293 140.038 32.667C139.758 32.6892 139.628 32.5914 139.432 32.5404C139.367 32.5248 139.292 32.5004 139.232 32.5048C138.538 32.5559 137.848 32.6114 137.154 32.6647C135.231 32.8158 133.307 32.9602 131.388 33.1201C131.038 33.1489 130.801 33.0934 130.554 32.9979C130.503 32.9779 130.414 32.9668 130.349 32.9712C127.657 33.18 124.964 33.391 122.277 33.602C122.132 33.6131 121.992 33.5776 121.876 33.5198C121.755 33.4599 121.62 33.431 121.471 33.4421C120.241 33.5376 119.011 33.6331 117.782 33.7309C117.474 33.7553 117.47 33.7575 117.153 33.6509C117.088 33.6287 117.018 33.5865 116.966 33.5909C116.859 33.602 116.757 33.6575 116.682 33.733C116.608 33.813 116.491 33.8352 116.319 33.8508C116.142 33.8663 116.026 33.8597 115.89 33.8064C115.718 33.7397 115.56 33.6753 115.28 33.6975C111.745 33.9818 108.209 34.255 104.674 34.5371C104.39 34.5593 104.259 34.466 104.064 34.4149C103.998 34.3994 103.933 34.3771 103.863 34.3727C103.789 34.3683 103.71 34.3816 103.635 34.3883C97.8685 34.8391 92.1019 35.2922 86.3353 35.7431C85.9906 35.7697 85.9952 35.7698 85.618 35.9741C85.5714 35.9985 85.5108 36.0318 85.4455 36.0363C83.6802 36.1784 81.9102 36.3161 80.1401 36.4538C79.3715 36.5138 78.603 36.576 77.8344 36.6337C77.5596 36.6537 77.5596 36.6537 76.9028 36.8936C76.8469 36.9136 76.7816 36.9402 76.7164 36.9447C73.6421 37.1868 70.5678 37.4289 67.4888 37.6665C67.2466 37.6843 67.051 37.7243 66.9392 37.8309C66.86 37.9064 66.7576 37.9508 66.6039 37.9641C64.4519 38.1329 62.2999 38.3039 60.1432 38.4683C59.887 38.4883 59.7333 38.5505 59.6075 38.6438C59.5656 38.6749 59.5283 38.7104 59.4677 38.7326C59.4118 38.7526 59.328 38.7593 59.2581 38.7659C57.4136 38.9103 55.569 39.0591 53.7198 39.1968C53.445 39.2168 53.3331 39.299 53.198 39.3856C53.1515 39.4145 53.1188 39.4544 53.0583 39.4744C52.9977 39.4922 52.9092 39.4922 52.8347 39.4966C51.2976 39.6166 49.7605 39.7387 48.2233 39.8587C47.9252 39.8476 47.8599 39.9764 47.7155 40.0541C47.6643 40.0808 47.6271 40.1163 47.5666 40.1341C47.5014 40.1518 47.4174 40.1496 47.3382 40.1541C46.1085 40.2496 44.8788 40.3517 43.6444 40.4406C43.3603 40.4606 43.3044 40.5738 43.1507 40.6516C43.0994 40.676 43.0482 40.7138 42.9877 40.7204C42.2191 40.7848 41.4506 40.8448 40.682 40.9025C40.4258 40.9225 40.4258 40.9203 39.974 41.1402C39.9227 41.1646 39.8621 41.1913 39.7969 41.198C38.6464 41.2912 37.4912 41.3801 36.336 41.4711C36.187 41.4822 36.0845 41.5356 36.01 41.6111C35.9355 41.6866 35.8283 41.7354 35.6793 41.7465C34.757 41.8198 33.8346 41.8953 32.9123 41.962C32.6561 41.9797 32.4885 42.0353 32.3767 42.1352C32.2929 42.2107 32.1904 42.2485 32.0273 42.2618C31.1051 42.3329 30.1828 42.4106 29.2558 42.4728C28.9857 42.4906 28.8459 42.5661 28.7341 42.6594C28.6456 42.7349 28.5431 42.7616 28.3708 42.7749C26.6799 42.9037 24.9844 43.0325 23.2982 43.1747C23.0141 43.1991 22.8696 43.1214 22.6833 43.0658C22.4178 42.9881 22.171 42.9037 22.171 42.7304C22.171 42.7038 22.0918 42.6727 22.0359 42.6505C21.6213 42.4839 21.6213 42.4839 21.5561 42.3063C21.5189 42.1974 21.4769 42.0864 21.4443 41.9753C21.3838 41.7932 21.2347 41.7466 20.8061 41.7799C20.6524 41.791 20.4987 41.8065 20.345 41.8154C20.1167 41.8309 19.9444 41.7576 19.9025 41.6244C19.8792 41.5511 19.8513 41.4778 19.828 41.4045C20.0609 41.3867 20.0562 41.3845 20.4661 41.1158C20.6384 41.0025 20.6385 41.0025 20.3078 40.8892C20.182 40.847 20.0609 40.8004 19.9258 40.7604C19.8653 40.7426 19.7861 40.7315 19.7209 40.736C19.3343 40.7626 18.9523 40.7937 18.5704 40.8248C17.9555 40.8737 17.9554 40.8737 17.3313 40.6471C17.28 40.6294 17.2008 40.5961 17.2101 40.5783C17.2614 40.4961 17.3871 40.4606 17.5455 40.4517C17.7784 40.4383 18.0066 40.4161 18.2349 40.3984C18.3886 40.3873 18.5423 40.374 18.696 40.3628C18.8404 40.2785 18.9896 40.1963 19.1246 40.1096C19.3389 39.9764 19.3388 39.9719 19.0454 39.8787C18.8591 39.8165 18.6588 39.7609 18.4678 39.7032C18.2395 39.721 18.0066 39.7409 17.7784 39.7565C17.4896 39.7765 17.3731 39.7343 17.2986 39.5899C17.2334 39.4633 17.3126 39.3545 17.5362 39.3278C17.7644 39.3012 17.9788 39.2834 18.0952 39.1702C18.207 39.0613 18.4026 39.0191 18.6448 39.0102C18.7986 39.0036 18.9523 38.988 19.106 38.9747C19.3063 38.9569 19.4135 38.8437 19.3715 38.7171C19.3482 38.6349 19.3016 38.566 19.12 38.5483C18.3141 38.4705 18.3048 38.4727 17.9042 38.3217C17.8669 38.3084 17.839 38.2684 17.853 38.2484C17.8763 38.2151 17.9275 38.1662 17.9834 38.1596C18.5191 38.1107 19.0548 38.0663 19.5904 38.033C19.7674 38.0219 19.8979 38.0063 19.9584 37.9241C20.0423 37.8109 20.005 37.7065 19.842 37.6287C19.7908 37.6043 19.7068 37.5732 19.6509 37.5754C19.0361 37.6154 18.4259 37.6665 17.811 37.7065C17.7551 37.7109 17.6527 37.6732 17.6294 37.6443C17.5829 37.591 17.6527 37.5199 17.8157 37.4955C18.03 37.4622 18.2489 37.4599 18.3933 37.3489C18.5936 37.1912 18.8404 37.0469 19.064 36.8958C19.1013 36.8692 19.1619 36.8181 19.148 36.8136C19.0315 36.7648 18.8964 36.727 18.7753 36.6804C18.5703 36.6026 18.5703 36.4938 18.6169 36.3894C18.6541 36.305 18.7939 36.2717 18.9662 36.2717C19.0408 36.2717 19.1339 36.2717 19.1945 36.2517C19.3528 36.2029 19.4041 36.1406 19.3249 36.094C19.2783 36.0674 19.1945 36.0296 19.1386 36.0341C18.1418 36.1074 17.1403 36.1784 16.1481 36.2695C15.8546 36.2961 15.7196 36.2117 15.5426 36.1518C15.4076 36.1051 15.2817 36.0873 15.114 36.1207C14.9557 36.1518 14.802 36.134 14.7042 36.0607C14.625 36.0007 14.7647 35.9497 15.142 35.8919C15.2119 35.8808 15.291 35.8741 15.3423 35.8519C15.8826 35.612 15.8826 35.6098 16.2552 35.5787C16.6185 35.5499 16.6186 35.5476 16.8096 35.4188C16.8981 35.3589 16.9959 35.2989 17.0797 35.2367C17.1123 35.2123 17.1683 35.1678 17.1496 35.1545C17.0472 35.0857 16.9074 35.0701 16.7443 35.0857C16.381 35.1234 15.9525 35.0923 15.7616 35.3033C15.687 35.3833 15.5706 35.4055 15.4029 35.4188C13.7167 35.5476 12.0304 35.6854 10.3396 35.8097C10.0647 35.8297 9.93904 35.9119 9.8319 36.003C9.73874 36.0785 9.63624 36.1007 9.45924 36.114C9.28223 36.1273 9.14242 36.134 9.03995 36.0607C8.97939 36.0163 9.03064 35.9541 9.17038 35.8919C9.37068 35.8031 9.3334 35.692 9.26818 35.5876C9.2216 35.5188 9.07721 35.4699 8.9235 35.4744C8.69525 35.4832 8.47638 35.5077 8.28541 35.4188C8.17361 35.3677 8.03384 35.3322 7.90808 35.2878C7.66586 35.1967 7.42363 35.1034 7.0836 35.1634C6.8507 35.1412 6.68767 35.0612 6.50134 34.9991C6.18926 34.8969 6.16131 34.8813 6.38489 34.7725C6.63643 34.6503 6.44075 34.4904 6.58049 34.3705C6.72955 34.2417 6.93457 34.1284 7.11624 34.0085C7.16282 33.9774 7.20476 33.9485 7.25134 33.9174C7.1442 33.873 7.0464 33.8175 6.92064 33.7864C6.7576 33.7464 6.67376 33.6975 6.68307 33.5598C6.65047 33.5398 6.66434 33.5909 6.70161 33.6042C6.74353 33.6176 6.84608 33.6065 6.89732 33.5909C7.02775 33.5487 7.09289 33.4932 7.06029 33.4466C7.04165 33.4221 6.95322 33.391 6.89732 33.391C6.79485 33.391 6.70636 33.4399 6.67841 33.5598C6.15671 33.6509 5.61629 33.6953 5.07596 33.7309C5.02007 33.7353 4.95024 33.6909 4.88502 33.6687C4.67075 33.5931 4.67073 33.5954 4.04189 33.5731C3.97668 33.5709 3.88822 33.5398 3.85562 33.5087C3.72054 33.3733 3.72523 33.2244 3.66002 33.0801C3.78113 32.9868 3.90214 32.8957 4.02791 32.8047C4.27944 32.6203 4.60557 32.4582 4.80121 32.2561C4.75929 32.1473 4.70338 32.0384 4.90834 31.9496C5.49059 31.8385 5.48597 31.8385 5.64434 31.7319C6.09617 31.4299 6.54331 31.1256 7.01377 30.8279C7.13954 30.7502 7.13956 30.708 6.91597 30.6747C6.8461 30.6658 6.77147 30.6636 6.69695 30.668C6.46404 30.6836 6.23115 30.7236 6.0029 30.7147C5.77466 30.708 5.60697 30.6103 5.42065 30.5503C5.22967 30.4881 5.0387 30.4237 4.84772 30.3593C4.6288 30.366 4.40991 30.4282 4.19098 30.3282C4.02329 30.2505 3.8137 30.195 3.62272 30.1305C3.76712 29.9617 4.03732 29.8329 4.24693 29.6841C4.43791 29.5486 4.44247 29.5509 4.95485 29.4465C5.19707 29.3976 5.28091 29.1466 5.07596 29.0733C4.82909 28.9845 4.56829 28.9023 4.31676 28.8179C4.09783 28.8246 3.87429 28.8846 3.66468 28.7846C3.50165 28.7091 3.31529 28.658 3.04513 28.6869C2.58864 28.7357 2.12285 28.7602 1.66171 28.8001C1.50333 28.8135 1.33094 28.8046 1.26107 28.7291C1.21449 28.6758 1.34958 28.6025 1.50329 28.5869C1.73619 28.5647 1.94578 28.5381 2.06223 28.427C2.17403 28.316 2.37896 28.2826 2.62117 28.2671C2.68639 28.2627 2.76097 28.236 2.79358 28.2093C2.96126 28.0805 3.1476 27.9695 3.50627 27.9739C3.65532 27.9295 3.73446 27.874 3.68788 27.8207C3.65993 27.7918 3.56216 27.7541 3.50627 27.7585C3.11965 27.7807 2.73305 27.8029 2.35575 27.8429C2.17874 27.8607 2.04359 27.8651 1.93179 27.7985C1.85261 27.754 1.89453 27.6941 2.04358 27.6297C2.17401 27.5741 2.21131 27.5097 2.202 27.4342C2.17871 27.2587 2.03894 27.2077 1.59177 27.2188C1.27036 27.2277 1.19117 27.1988 1.1213 27.0477C1.10267 27.0122 1.05617 26.9634 1.08878 26.9389C1.28907 26.7879 1.41951 26.6013 1.79681 26.5303C1.94586 26.5036 2.10417 26.5036 2.19733 26.4459C2.29049 26.3881 2.37438 26.3215 2.4722 26.2659C2.59331 26.1993 2.67707 26.1371 2.62117 26.0949C2.52801 26.0194 2.37901 26.0128 2.20666 26.0394C2.0576 26.0616 1.89923 26.0638 1.74552 26.0772C1.4707 26.1016 1.24716 26.0439 1.21455 25.9461C1.12605 25.6885 1.03286 25.4331 0.953678 25.1754C0.944362 25.1443 0.967588 25.1043 1.00485 25.0777C1.13528 24.9844 1.27507 24.8956 1.41016 24.8045C1.56853 24.7001 1.8201 24.7201 2.03437 24.7001C2.33714 24.6713 2.33704 24.6735 2.74229 24.4602C2.90066 24.3758 3.1755 24.4092 3.33853 24.3337C3.38977 24.3092 3.46895 24.2692 3.45498 24.247C3.43635 24.2182 3.34324 24.1959 3.27337 24.1826C3.20815 24.1693 3.12898 24.1626 3.05911 24.1693C2.21135 24.2337 1.36827 24.3026 0.520513 24.3648C0.376114 24.3759 0.217737 24.327 0.166499 24.2581C0.115261 24.1937 0.129189 24.116 0.119873 24.0427C0.254956 23.9516 0.408611 23.8672 0.525062 23.7695C0.613565 23.694 0.716059 23.6607 0.893064 23.6562C1.12597 23.6496 1.35423 23.6229 1.61508 23.6029C2.09952 23.2787 2.5746 22.9389 3.0963 22.6146C3.30591 22.4835 3.25476 22.3503 3.29668 22.2103C3.3386 22.0815 3.65067 22.1015 3.86028 22.0638C4.02797 22.0327 4.08379 21.9616 4.01858 21.9127C3.98132 21.8839 3.89752 21.8505 3.83231 21.8505C3.67859 21.8505 3.52488 21.8705 3.37117 21.8816C3.21745 21.8927 3.04045 21.8861 2.91469 21.9238C2.79358 21.9594 2.71435 22.0349 2.63516 22.0993C2.54666 22.1704 2.43029 22.1948 2.25328 22.1992C2.02504 22.2037 1.79681 22.2237 1.56857 22.2392C1.31704 22.1526 1.05613 22.0682 0.813914 21.9771C0.767334 21.9594 0.757968 21.9083 0.762626 21.875C0.771942 21.7884 0.70209 21.735 0.548375 21.6928C0.41795 21.6573 0.310807 21.6062 0.189698 21.5618C0.282858 21.5018 0.385371 21.4441 0.4599 21.3797C0.622931 21.2442 0.827907 21.1465 1.18192 21.1509C1.32166 21.0643 1.43342 20.9577 1.61508 20.8977C1.78743 20.84 2.0809 20.8977 2.21132 20.7667C2.27653 20.7023 2.37441 20.629 2.50017 20.6023C2.70047 20.5601 2.96131 20.5823 3.07776 20.458C3.14763 20.3869 3.25007 20.3225 3.38515 20.3047C3.53887 20.2847 3.6972 20.2803 3.80899 20.2381C3.86955 20.2159 3.93477 20.1803 3.93477 20.1492C3.93477 20.1292 3.84168 20.0981 3.77647 20.0848C3.71591 20.0693 3.63664 20.0582 3.56677 20.0626C3.33386 20.0759 3.10563 20.1004 2.87273 20.1137C2.80751 20.1181 2.73301 20.1026 2.66314 20.0893C2.45818 20.0537 2.47213 20.0093 2.63516 19.9294C2.79819 19.8516 2.91471 19.7517 3.04979 19.6606C3.19885 19.6451 3.38514 19.6517 3.48762 19.6095C3.65996 19.5407 3.78104 19.4407 3.92078 19.3541C4.0745 19.3408 4.23286 19.3363 4.37726 19.3119C4.43781 19.303 4.46578 19.2542 4.51702 19.2253C4.61018 19.1698 4.68943 19.0898 4.8152 19.0632C5.02015 19.0232 5.27168 19.0387 5.39279 18.9166C5.46266 18.8455 5.56975 18.77 5.70018 18.7655C6.0635 18.7567 6.21722 18.6345 6.40354 18.519C6.54329 18.4324 6.84141 18.4768 6.99512 18.3902C7.0976 18.3346 7.17217 18.2658 7.27465 18.2125C7.31657 18.1903 7.40504 18.1792 7.47491 18.1725C7.85687 18.1392 8.24347 18.1148 8.62543 18.0792C8.68599 18.0726 8.74193 18.0393 8.78851 18.0126C8.88633 17.9549 8.94681 17.8749 9.06792 17.8371C9.18903 17.7994 9.36135 17.7994 9.51041 17.7883C9.99019 17.755 10.0275 17.7638 10.2464 17.575C10.4234 17.4218 10.8567 17.5306 11.0011 17.3618C11.0849 17.2641 11.2386 17.1842 11.5134 17.1731C11.9 17.1575 12.2819 17.1153 12.6686 17.0864C13.0133 17.0598 13.0086 17.0598 13.3813 16.8532C13.5489 16.7599 13.7959 16.7733 14.0148 16.7555C14.2477 16.7377 14.4619 16.7111 14.5737 16.6C14.6855 16.4912 14.8905 16.4556 15.128 16.4401C15.3469 16.4246 15.5939 16.4357 15.7662 16.3468C16.1854 16.1336 16.1808 16.1314 16.4742 16.1092C16.9354 16.0736 17.3965 16.0381 17.8577 16.0003C18.1651 15.9759 18.4865 15.9715 18.7753 15.9226C18.9849 15.8871 19.078 15.7627 19.2131 15.6761C19.5951 15.6428 19.977 15.6094 20.359 15.5783C20.8946 15.5339 21.435 15.494 21.9753 15.4518C22.2082 15.3674 22.2409 15.1808 22.6321 15.1719C22.865 15.1675 23.0933 15.1386 23.3262 15.1208C23.7128 15.0897 24.0948 15.0497 24.4814 15.0342C24.7748 15.0231 24.826 14.9031 24.9797 14.8276C25.0309 14.801 25.0776 14.7632 25.1381 14.7566C25.7437 14.6944 26.3678 14.6811 26.9594 14.59C27.0199 14.5811 27.0758 14.5345 27.0898 14.5011C27.0991 14.4834 27.0199 14.4501 26.9687 14.4345C26.9081 14.4168 26.829 14.399 26.7638 14.4034C24.84 14.5522 22.9163 14.7033 20.9925 14.8521C20.7223 14.8743 20.7224 14.8721 20.0656 15.1164C20.0097 15.1364 19.9444 15.1586 19.8745 15.1652C19.5671 15.1919 19.255 15.2075 18.9522 15.2408C18.7054 15.2674 18.5005 15.2407 18.3235 15.1608C18.1977 15.103 18.0672 15.0853 17.9088 15.0897C17.7318 15.0964 17.6155 15.1208 17.513 15.1808C17.3779 15.263 17.308 15.3696 17.0239 15.3918C15.715 15.4873 14.406 15.5939 13.1017 15.6961C12.9201 15.665 12.8316 15.6183 12.8782 15.5628C12.9061 15.5295 12.962 15.4851 13.0179 15.4806C13.5536 15.434 14.0939 15.394 14.6296 15.3496C14.7041 15.3429 14.8066 15.3473 14.8485 15.3251C15.0534 15.2252 15.1281 15.0631 15.5147 15.052C15.7383 15.0453 15.9665 15.012 16.1807 14.9809C16.2413 14.972 16.2972 14.9254 16.3112 14.892C16.3158 14.8743 16.2413 14.841 16.1854 14.8254C15.9804 14.761 15.7429 14.8388 15.538 14.7943C15.4681 14.7788 15.3702 14.7566 15.3563 14.7299C15.3469 14.7055 15.4261 14.6655 15.482 14.6411C15.5333 14.6189 15.6031 14.5989 15.673 14.5922C16.2878 14.5411 16.9028 14.4878 17.5176 14.4478C17.7692 14.4323 17.9461 14.3768 18.0579 14.2746C18.1418 14.1991 18.2442 14.1591 18.4026 14.148C19.4786 14.0658 20.5546 13.9748 21.6353 13.8993C21.9054 13.8815 22.0452 13.8082 22.157 13.7127C22.2455 13.6372 22.348 13.6105 22.5204 13.5972C24.0622 13.4817 25.5946 13.3529 27.1364 13.2418C27.4206 13.2218 27.5044 13.1263 27.6488 13.0442C27.7001 13.0153 27.7326 12.9798 27.7978 12.962C27.863 12.9442 27.9469 12.9464 28.0261 12.942C29.2558 12.8465 30.4856 12.7443 31.72 12.6555C32.0088 12.6355 32.0646 12.5244 32.2136 12.4467C32.2649 12.4223 32.3115 12.3823 32.372 12.3756C33.2943 12.3001 34.2166 12.229 35.1389 12.1558C35.7537 12.1069 36.3686 12.058 36.9834 12.0114C37.2862 11.9892 37.2862 11.9869 37.6961 11.7759C37.7427 11.7515 37.808 11.7226 37.8685 11.716C39.6386 11.5738 41.4039 11.4384 43.174 11.2984C43.323 11.2873 43.4301 11.2362 43.5047 11.1607C43.5792 11.0852 43.6864 11.0341 43.8308 11.023C45.2143 10.912 46.5977 10.8031 47.9857 10.6987C48.2373 10.681 48.4142 10.6277 48.526 10.5277C48.6099 10.4522 48.7124 10.4122 48.8707 10.4011C50.2542 10.2945 51.6377 10.1812 53.0258 10.0791C53.2913 10.0591 53.4216 9.98357 53.5521 9.89473C53.5986 9.86364 53.6359 9.81255 53.6918 9.80811C54.3812 9.74592 55.0659 9.6815 55.76 9.63931C56.0488 9.62154 56.1466 9.52825 56.2631 9.43941C56.3562 9.36833 56.4634 9.34391 56.6404 9.33502C57.027 9.31504 57.4089 9.27729 57.7862 9.23954C57.8421 9.23287 57.912 9.18401 57.9167 9.15291C57.926 9.09517 57.8188 9.05518 57.6418 9.03519C55.7972 9.17956 53.9481 9.32391 52.1035 9.46828C51.8007 9.49271 51.8007 9.49273 51.3908 9.70372C51.3442 9.72816 51.2789 9.75703 51.2137 9.7637C49.4437 9.90362 47.6783 10.0413 45.9083 10.1813C45.7592 10.1924 45.6521 10.2434 45.5776 10.319C45.5031 10.3945 45.3958 10.4456 45.2514 10.4567C43.5606 10.5899 41.8697 10.7254 40.1742 10.852C39.9227 10.8698 39.7457 10.9208 39.6339 11.023C39.5501 11.0985 39.4476 11.1385 39.2892 11.1496C37.6729 11.274 36.0612 11.405 34.4402 11.525C34.2771 11.5361 34.1561 11.4717 34.1654 11.4117C34.1701 11.3806 34.2398 11.3295 34.2957 11.3251C35.1388 11.2518 35.9774 11.1763 36.8251 11.1207C37.1093 11.103 37.1931 11.0052 37.3374 10.9231C37.384 10.8942 37.4213 10.8564 37.4819 10.8409C37.5471 10.8231 37.6309 10.8254 37.7101 10.8209C39.7084 10.6632 41.7068 10.5033 43.7097 10.3545C43.9985 10.3323 44.0543 10.2234 44.2034 10.1457C44.2546 10.1191 44.3012 10.0791 44.3618 10.0746C44.9766 10.0213 45.5915 9.97469 46.2063 9.92805C47.2824 9.84365 48.3583 9.75925 49.439 9.67485C49.7511 9.65042 49.7511 9.65041 50.1517 9.44163C50.1983 9.4172 50.2635 9.38613 50.3241 9.38169C53.1701 9.15736 56.0162 8.93303 58.8623 8.71093C59.0113 8.69982 59.1185 8.64874 59.193 8.57323C59.2675 8.49993 59.3746 8.44663 59.519 8.4333C63.3665 8.13124 67.2094 7.82917 71.057 7.53155C71.3085 7.51156 71.4855 7.46491 71.5972 7.36052C71.6764 7.28501 71.7836 7.24504 71.9419 7.23171C76.1714 6.90078 80.4009 6.56985 84.6351 6.2367C87.4811 6.01459 90.3272 5.78805 93.1732 5.57039C93.4341 5.5504 93.5738 5.48153 93.7042 5.39047C93.7461 5.35938 93.7881 5.30829 93.844 5.30385C94.4542 5.24832 95.0644 5.19725 95.6746 5.14616C95.8655 5.20613 96.0565 5.26389 96.2475 5.32386C96.3919 5.23946 96.5317 5.15283 96.6761 5.06843C97.5984 5.00402 98.5067 4.90408 99.4383 4.87298C99.4988 4.87076 99.564 4.91297 99.6292 4.93518C100.062 5.0751 100.309 5.06399 100.584 4.87743C100.682 4.8108 100.766 4.75083 100.915 4.73972C101.376 4.69975 101.842 4.67309 102.298 4.62645C102.545 4.60202 102.75 4.62422 102.927 4.70418C103.053 4.76193 103.183 4.78637 103.337 4.77305C104.185 4.70641 105.028 4.642 105.876 4.57092C105.936 4.56648 105.992 4.52871 106.039 4.50206C106.136 4.44431 106.22 4.38214 106.314 4.32217C106.439 4.35993 106.579 4.3888 106.682 4.43767C106.812 4.49541 106.933 4.4954 107.11 4.47985C110.492 4.21111 113.878 3.94903 117.26 3.67806C117.549 3.65585 117.674 3.74915 117.87 3.79801C117.935 3.81578 118.001 3.83798 118.07 3.84242C118.145 3.84686 118.224 3.83355 118.299 3.82688C120.837 3.62699 123.376 3.4293 125.915 3.22941C126.25 3.20276 126.25 3.20276 126.748 3.34046C126.809 3.35823 126.888 3.37822 126.953 3.37156C128.108 3.28494 129.264 3.19167 130.414 3.10282C130.563 3.09172 130.689 3.12725 130.824 3.17833C131.09 3.27828 131.108 3.27829 131.304 3.1317C131.397 3.06285 131.495 3.02063 131.648 3.00064C131.816 2.97843 131.951 2.98512 132.082 3.02509C132.268 3.08062 132.403 3.17389 132.687 3.14946C133.917 3.04507 135.151 2.95846 136.376 2.85185C136.656 2.82742 136.805 2.90293 136.991 2.95845C137.057 2.97844 137.117 3.00954 137.187 3.0162C137.257 3.02286 137.341 3.0073 137.415 3.00064C138.952 2.8807 140.494 2.76301 142.027 2.63419C142.315 2.60976 142.441 2.70525 142.637 2.75411C142.702 2.77188 142.777 2.80299 142.837 2.79854C143.759 2.72969 144.686 2.65638 145.609 2.58308C145.939 2.55643 145.939 2.55865 146.442 2.69414C146.503 2.7119 146.582 2.72968 146.647 2.72523C147.723 2.64306 148.804 2.55866 149.88 2.47426C150.211 2.4476 150.211 2.44761 151.166 2.5631C151.236 2.57199 151.31 2.58533 151.38 2.58089C152.61 2.48538 153.844 2.39209 155.074 2.28992C155.321 2.26993 155.526 2.28769 155.703 2.36765C155.828 2.4254 155.959 2.44984 156.112 2.43652C157.496 2.32769 158.884 2.2233 160.263 2.10781C160.528 2.0856 160.701 2.13444 160.887 2.19885C160.947 2.22106 161.008 2.25216 161.078 2.26105C161.148 2.26993 161.227 2.26104 161.302 2.25438C162.685 2.14555 164.073 2.04338 165.452 1.92567C165.731 1.90124 165.88 1.97675 166.067 2.03227C166.132 2.05226 166.202 2.09224 166.258 2.09002C166.798 2.05226 167.338 2.01896 167.874 1.96343C168.163 1.93234 168.289 2.03449 168.484 2.08335C168.549 2.0989 168.624 2.13223 168.684 2.12779C169.84 2.04117 170.995 1.95011 172.145 1.85683C172.308 1.8435 172.43 1.86347 172.56 1.92122C172.732 1.99896 172.933 2.03005 173.184 2.00562C173.72 1.95454 174.26 1.91901 174.8 1.87681C175.117 1.85238 175.117 1.85239 176.086 1.96788C176.156 1.97677 176.23 1.99008 176.3 1.98564C177.223 1.91457 178.15 1.84572 179.067 1.76798C179.314 1.74577 179.519 1.76576 179.696 1.84571C179.822 1.90346 179.948 1.9279 180.106 1.91458C180.954 1.84795 181.797 1.78131 182.645 1.71468C182.952 1.69025 183.259 1.64804 183.567 1.64804C183.79 1.65026 183.954 1.75686 184.154 1.81017C184.21 1.82572 184.303 1.80797 184.377 1.80353C185.453 1.71913 186.534 1.64138 187.605 1.54588C187.885 1.52145 188.034 1.59696 188.22 1.65249C188.285 1.67247 188.355 1.71246 188.411 1.71023C188.798 1.6858 189.18 1.65248 189.566 1.62361C190.028 1.58807 190.493 1.56142 190.95 1.51256C191.322 1.47258 191.462 1.6658 191.76 1.67247C191.989 1.67913 192.221 1.64138 192.45 1.62361C192.911 1.58807 193.372 1.5481 193.833 1.51701C193.996 1.5059 194.122 1.47035 194.173 1.39039C194.183 1.37484 194.103 1.34154 194.052 1.32155C193.433 1.09501 193.433 1.095 192.808 1.14386C192.422 1.17495 192.04 1.20605 191.653 1.23271C191.588 1.23715 191.513 1.21938 191.448 1.20606C191.262 1.1683 191.281 1.12388 191.439 1.04392C191.597 0.963967 191.718 0.866251 191.853 0.775188C192.044 0.832935 192.231 0.890662 192.422 0.948408C192.576 0.937303 192.729 0.923997 192.883 0.912891C193.652 0.855145 194.42 0.795172 195.189 0.741868C195.245 0.737426 195.314 0.781853 195.38 0.804063C195.566 0.868473 195.734 0.923983 196.004 0.899552C196.693 0.835142 197.387 0.788501 198.077 0.732975C198.379 0.708543 198.379 0.708546 198.91 0.84625C198.971 0.861797 199.05 0.879566 199.115 0.875124C199.809 0.82404 200.499 0.768521 201.193 0.715216C201.342 0.704111 201.486 0.732983 201.593 0.797393C201.635 0.824046 201.626 0.868458 201.803 1.23271C202.353 1.5281 202.73 1.49702 203.112 1.47037C203.275 1.45927 203.419 1.44815 203.526 1.40373C203.582 1.3793 203.652 1.34376 203.652 1.31488C203.652 1.29267 203.55 1.25713 203.485 1.25269C203.023 1.20827 202.586 1.30156 202.134 1.32155C201.924 1.33044 201.743 1.2527 201.705 1.1261C201.696 1.09057 201.682 1.05281 201.668 1.01727C201.654 0.981737 201.645 0.943981 201.631 0.908445C201.449 0.89734 201.342 0.937312 201.263 1.01283C201.198 1.07502 201.104 1.14609 200.979 1.1794C200.853 1.21494 200.68 1.20829 200.527 1.21939C200.378 1.2305 200.215 1.25937 200.075 1.24382C199.935 1.22605 199.823 1.16163 199.693 1.12166C199.632 1.10167 199.558 1.0728 199.497 1.07725C198.962 1.115 198.431 1.15275 197.9 1.20161C197.62 1.22826 197.48 1.13499 197.303 1.07725C197.164 1.03282 197.024 1.04392 197.001 1.14608C196.94 1.3904 197.154 1.49256 197.629 1.44592C198.021 1.40594 198.375 1.3993 198.682 1.55033C198.724 1.57032 198.822 1.5792 198.882 1.57475C199.264 1.5481 199.642 1.51478 200.024 1.48813C200.094 1.48369 200.168 1.49256 200.233 1.50144C201.184 1.62138 201.184 1.62361 201.505 1.59696C201.659 1.58363 201.808 1.57253 201.794 1.23493C202.087 0.872902 202.553 0.848475 203.005 0.79517C203.298 0.761855 203.424 0.859584 203.615 0.910668C203.68 0.928436 203.75 0.963966 203.811 0.959524C204.812 0.88623 205.809 0.808483 206.806 0.726305C206.973 0.712979 207.095 0.726307 207.225 0.784054C207.393 0.857348 207.579 0.904 207.844 0.877347C208.376 0.824042 208.916 0.790735 209.456 0.746314C209.731 0.724104 209.731 0.724081 210.285 0.861785C210.346 0.877332 210.425 0.895101 210.49 0.890659C211.031 0.852902 211.566 0.806274 212.102 0.766296C212.251 0.755191 212.386 0.786282 212.503 0.84625C212.619 0.906217 212.759 0.937309 212.903 0.926203C213.443 0.886225 213.979 0.841818 214.515 0.80184C214.58 0.797398 214.659 0.812944 214.72 0.828491C215.288 0.966195 215.288 0.966172 215.549 0.943962C215.931 0.910646 216.322 0.895117 216.699 0.850696C217.067 0.806275 217.258 0.935084 217.51 1.00616C218.199 0.955074 218.893 0.912885 219.578 0.850696C219.857 0.824044 220.007 0.897331 220.193 0.955078C220.258 0.975067 220.323 1.01727 220.384 1.01505C220.617 1.00617 220.845 0.981739 221.073 0.963971C221.302 0.946202 221.534 0.928436 221.763 0.910668C222.024 0.975078 222.196 1.12611 222.569 1.07502C222.792 1.04393 223.03 1.03726 223.258 1.0195C223.486 1.00173 223.719 0.983962 223.947 0.966194C224.101 0.955089 224.259 0.948416 224.408 0.928427C224.683 0.895111 224.818 1.00395 225.014 1.05282C225.079 1.06836 225.154 1.095 225.214 1.09056C225.675 1.05946 226.141 1.03281 226.593 0.981729C226.942 0.941751 227.18 1.00839 227.427 1.10167C227.478 1.12166 227.567 1.13277 227.632 1.12832C228.172 1.09057 228.708 1.04391 229.243 1.00393C229.388 0.992829 229.528 1.02836 229.644 1.08611C229.765 1.14608 229.9 1.17497 230.049 1.16387C230.585 1.12389 231.125 1.07946 231.661 1.03948C231.726 1.03504 231.805 1.05281 231.866 1.07058C232.388 1.20828 232.388 1.2105 232.695 1.18385C232.77 1.17719 232.849 1.17273 232.923 1.16607C233.305 1.13497 233.701 1.12388 234.074 1.07058C234.502 1.01061 234.814 1.08613 235.117 1.21273C235.499 1.18607 235.89 1.17052 236.263 1.1261C236.543 1.09279 236.692 1.17718 236.878 1.23271C236.943 1.2527 237.013 1.29267 237.069 1.28823C237.609 1.25048 238.15 1.21717 238.681 1.16165C238.969 1.13055 239.095 1.23048 239.291 1.28156C239.356 1.29933 239.426 1.33044 239.486 1.326C239.794 1.30823 240.101 1.28157 240.409 1.25713C240.767 1.22826 240.767 1.23048 241.243 1.36596C241.466 1.43037 241.69 1.37929 241.909 1.36374C242.142 1.34597 242.36 1.33265 242.547 1.42371C242.663 1.48146 242.803 1.517 242.947 1.50811C243.255 1.48812 243.567 1.46814 243.87 1.43483C244.112 1.40818 244.321 1.42593 244.498 1.50811C244.624 1.56586 244.755 1.59475 244.908 1.58142C245.598 1.52812 246.292 1.47257 246.981 1.42149C247.042 1.41705 247.126 1.43704 247.181 1.45703C247.312 1.49701 247.438 1.54142 247.563 1.58584C247.866 1.56585 248.178 1.55699 248.476 1.5259C248.793 1.4948 249.082 1.4837 249.329 1.60585C249.38 1.6325 249.455 1.67024 249.515 1.66802C249.748 1.65914 249.976 1.63693 250.205 1.61916C250.433 1.6014 250.666 1.58363 250.894 1.56586C251.159 1.62139 251.327 1.7813 251.7 1.73022C251.923 1.69912 252.161 1.69246 252.389 1.67469C252.617 1.65692 252.85 1.63693 253.079 1.62139C253.153 1.61695 253.237 1.60583 253.302 1.61472C253.372 1.6236 253.433 1.6547 253.493 1.67691C253.679 1.74132 253.852 1.80574 254.117 1.76798C254.341 1.73689 254.578 1.73022 254.807 1.71023C255.119 1.6858 255.119 1.68581 255.636 1.82573C255.845 1.88348 256.083 1.80797 256.283 1.85683C256.418 1.89015 256.535 1.94566 256.665 1.98342C256.721 1.99896 256.81 2.00562 256.875 2.00118C257.182 1.98119 257.494 1.96121 257.797 1.92789C258.044 1.90124 258.249 1.92789 258.421 2.00784C258.547 2.06559 258.673 2.09004 258.831 2.07671C259.6 2.01452 260.368 1.9612 261.132 1.89235C261.393 1.86792 261.603 1.90568 261.747 1.98564C261.994 2.12334 262.343 1.96121 262.6 2.07226C262.758 2.14112 262.916 2.22108 263.205 2.18776C263.736 2.13001 264.276 2.0989 264.812 2.05892C265.003 2.11889 265.194 2.17887 265.39 2.23884C265.697 2.21441 266.005 2.18996 266.312 2.16775C266.54 2.14998 266.773 2.13 267.001 2.11445C267.076 2.11001 267.155 2.10112 267.225 2.11223C267.295 2.12333 267.351 2.15221 267.416 2.17442C267.737 2.28325 267.737 2.28548 268.268 2.24106C268.497 2.22107 268.716 2.20775 268.907 2.29659C269.084 2.37877 269.293 2.39431 269.535 2.36987C269.992 2.32545 270.453 2.29214 270.919 2.26105C271.063 2.24994 271.198 2.2877 271.319 2.34545C271.501 2.43651 271.725 2.42763 271.953 2.40319C272.256 2.3721 272.554 2.34101 272.81 2.46539C272.861 2.49204 272.94 2.52978 272.996 2.52756C273.378 2.50979 273.765 2.49647 274.138 2.45427C274.51 2.41207 274.692 2.54977 274.948 2.61641C275.33 2.58753 275.717 2.55866 276.099 2.52978C276.173 2.52312 276.262 2.50314 276.327 2.51425C276.602 2.56089 276.76 2.72746 277.137 2.67638C277.356 2.6475 277.594 2.63863 277.822 2.63197C277.883 2.62975 277.962 2.66749 278.004 2.69636C278.027 2.71191 278.004 2.7541 277.976 2.77631C277.892 2.8385 277.789 2.89627 277.715 2.96068C277.706 2.96956 277.794 3.00952 277.845 3.02729C277.971 3.06727 278.115 3.06062 278.283 3.04285C278.428 3.02731 278.577 3.0584 278.679 3.12503C278.721 3.15168 278.707 3.1961 278.618 3.34269C278.618 3.45152 278.716 3.40264 278.749 3.33157C278.8 3.2294 278.702 3.19609 278.516 3.25162C278.386 3.2916 278.32 3.34935 278.353 3.39599C278.372 3.42042 278.46 3.45152 278.618 3.34269C279.028 3.20942 279.336 3.18501 279.643 3.16057C279.723 3.15391 279.816 3.13169 279.872 3.14501C280.072 3.19832 280.258 3.26274 280.454 3.32271C280.677 3.30938 280.887 3.27605 281.106 3.36267C281.413 3.48483 281.427 3.47372 281.725 3.44929C281.879 3.43597 282.033 3.42488 282.187 3.41377C282.34 3.40267 282.461 3.43598 282.596 3.48706C282.871 3.59145 282.895 3.59144 283.076 3.44929C283.183 3.36267 283.258 3.33381 283.393 3.37378C283.84 3.50927 283.845 3.51814 284.227 3.47817C284.544 3.44485 284.842 3.43597 285.075 3.56257C285.233 3.65141 285.284 3.63142 285.41 3.53814C285.745 3.2916 285.899 3.29604 286.528 3.47372C286.821 3.55812 287.124 3.46707 287.422 3.45596C287.674 3.44708 287.851 3.50037 287.869 3.6403C287.883 3.72692 287.925 3.78912 288.093 3.81799C288.158 3.8291 288.237 3.84464 288.303 3.8402C288.689 3.81354 289.071 3.78244 289.458 3.75135C289.653 3.7358 289.761 3.63143 289.723 3.49373C289.681 3.34714 289.756 3.29382 290.035 3.25162C290.203 3.22719 290.338 3.23165 290.473 3.27163C290.622 3.31605 290.58 3.35602 290.45 3.43598C290.138 3.63143 290.175 3.75135 290.576 3.88683C290.715 3.93347 290.827 3.97569 290.86 4.04454C290.878 4.08008 290.86 4.12672 290.902 4.15337C291.13 4.30218 291.447 4.39769 291.801 4.46876C292.141 4.4088 292.374 4.50872 292.635 4.58868C292.839 4.65087 293.082 4.59758 293.301 4.57537C293.547 4.55094 293.752 4.5687 293.929 4.65088C294.055 4.70862 294.186 4.73527 294.339 4.72416C294.647 4.69973 294.959 4.68419 295.262 4.64865C295.522 4.61756 295.718 4.66199 295.881 4.7375C296.086 4.83301 296.314 4.76858 296.529 4.78191C296.817 4.79746 296.962 4.99512 297.339 4.94182C297.563 4.91072 297.796 4.89962 298.029 4.89074C298.089 4.88852 298.164 4.92628 298.215 4.95293C298.462 5.07509 298.751 5.06842 299.067 5.03289C299.286 5.00846 299.5 4.98626 299.715 5.07066C300.069 5.2128 300.46 5.33719 300.833 5.46823C300.884 5.5704 300.847 5.69031 301.112 5.75028C301.252 5.78137 301.382 5.82803 301.489 5.87911C301.62 5.93908 301.741 5.95463 301.909 5.93909C302.211 5.90799 302.528 5.90131 302.826 5.86133C303.101 5.82579 303.273 5.89911 303.441 5.96796C303.576 6.02349 303.702 6.05013 303.865 6.01015C304.033 5.97239 304.154 5.99681 304.289 6.05678C304.48 6.13896 304.494 6.13009 305.127 6.15452C305.193 6.15674 305.272 6.19004 305.309 6.21891C305.328 6.23446 305.286 6.27891 305.253 6.30112C305.211 6.32777 305.146 6.35884 305.085 6.36551C304.396 6.42325 303.702 6.47434 303.013 6.53208C302.943 6.53875 302.868 6.55431 302.817 6.57652C302.761 6.60095 302.691 6.63425 302.691 6.66534C302.691 6.68755 302.784 6.71421 302.85 6.72976C303.055 6.78084 303.297 6.70311 303.497 6.76086C303.632 6.79861 303.744 6.85191 303.879 6.88744C303.935 6.90299 304.023 6.90078 304.093 6.89634C304.326 6.88079 304.554 6.85858 304.787 6.84526C304.853 6.84304 304.927 6.86526 304.988 6.88302C305.435 7.01629 305.435 7.01628 305.821 6.98741C305.975 6.9763 306.138 6.94298 306.283 6.95631C306.422 6.96964 306.543 7.0296 306.669 7.06736C306.93 7.14732 307.177 7.22505 307.196 7.39829C307.205 7.46492 307.359 7.52266 307.512 7.5271C307.661 7.53154 307.82 7.50713 307.973 7.49381C308.337 7.46716 308.337 7.46715 308.807 7.60264C308.938 7.64039 309.077 7.64483 309.245 7.62262C309.31 7.61373 309.389 7.62263 309.459 7.63373C309.688 7.66705 309.688 7.70924 309.539 7.7892C309.329 7.90691 309.347 7.91802 309.934 8.01797C310.158 8.05573 310.33 8.1268 310.517 8.18899C310.819 8.28894 310.815 8.28892 310.615 8.41996C310.568 8.44883 310.526 8.47994 310.479 8.51103C310.344 8.59765 310.237 8.69093 309.958 8.69981C309.65 8.7087 309.343 8.74425 309.035 8.76868C308.737 8.79311 308.658 8.84639 308.686 8.99742C308.719 9.17955 308.779 9.19954 309.315 9.19732C309.469 9.19732 309.604 9.21509 309.72 9.27505C309.664 9.34613 309.562 9.40165 309.413 9.41498C309.031 9.44829 308.644 9.47717 308.262 9.50605C307.955 9.53048 307.647 9.5549 307.34 9.57933C307.149 9.59488 307.028 9.71038 307.079 9.8392C307.107 9.9125 307.13 9.98579 307.154 10.0591C307.205 10.2057 307.303 10.2434 307.615 10.2368C307.694 10.2346 307.768 10.2168 307.843 10.2212C308.146 10.2368 308.29 10.4211 308.653 10.3833C308.956 10.3523 309.273 10.3456 309.571 10.3056C309.846 10.2701 310 10.3501 310.191 10.41C310.256 10.43 310.326 10.4722 310.382 10.47C310.768 10.4455 311.155 10.4211 311.532 10.3789C311.709 10.3612 311.816 10.3745 311.956 10.4278C312.291 10.5566 312.301 10.5499 312.799 10.51C313.162 10.4789 313.167 10.4833 313.633 10.6188C313.763 10.6565 313.903 10.6565 314.071 10.6388C314.29 10.6166 314.518 10.581 314.746 10.6143C314.816 10.6232 314.905 10.6499 314.928 10.6788C314.942 10.6987 314.877 10.7476 314.821 10.7632C314.411 10.8787 313.931 10.8587 313.484 10.9053C313.344 10.9186 313.204 10.8764 313.088 10.8165C312.967 10.7565 312.836 10.7321 312.678 10.7432C312.371 10.7676 312.059 10.7831 311.756 10.8187C311.495 10.8498 311.313 10.7987 311.132 10.7298C311.071 10.7076 311.001 10.6654 310.941 10.6676C310.251 10.7121 309.557 10.7565 308.872 10.8187C308.598 10.8453 308.439 10.7743 308.253 10.7143C308.188 10.6943 308.123 10.6521 308.062 10.6543C307.829 10.6632 307.601 10.6876 307.368 10.7054C306.52 10.772 305.677 10.8387 304.829 10.9009C304.773 10.9053 304.703 10.8587 304.638 10.8387C304.513 10.7987 304.382 10.7609 304.252 10.7232C304.019 10.7409 303.79 10.7631 303.558 10.7765C303.39 10.7854 303.241 10.8165 303.218 10.9009C303.204 10.9564 303.357 11.0075 303.52 11.003C303.679 10.9986 303.837 10.9719 303.968 11.0008C304.615 11.1429 304.615 11.1452 305.02 11.1163C305.374 11.0896 305.337 11.0674 305.649 11.1896C305.784 11.2429 305.905 11.274 306.059 11.2607C306.441 11.2296 306.828 11.1985 307.214 11.1718C307.275 11.1674 307.354 11.1896 307.414 11.2074C307.871 11.3406 307.871 11.3451 308.248 11.3117C308.742 11.2718 308.761 11.2607 309.091 11.3961C309.32 11.4894 309.529 11.425 309.748 11.4206C310 11.5072 310.275 11.5849 310.503 11.6827C310.773 11.7982 311.057 11.7782 311.364 11.7448C311.593 11.7204 311.816 11.7115 312.003 11.8026C312.18 11.887 312.394 11.8959 312.636 11.8737C312.855 11.8537 313.079 11.8115 313.307 11.8603C313.367 11.8737 313.461 11.907 313.456 11.927C313.451 11.9581 313.391 12.0025 313.33 12.0158C312.902 12.1069 312.431 12.1047 311.979 12.1469C311.919 12.1535 311.84 12.1291 311.779 12.1113C311.649 12.0713 311.523 12.0247 311.397 11.9825C311.169 11.9958 310.936 12.0003 310.712 12.0269C310.54 12.0469 310.41 12.0447 310.284 11.9914C310.167 11.9425 310.042 11.8826 309.902 11.867C309.762 11.8515 309.599 11.8848 309.445 11.8981C309.292 11.9114 309.115 11.9048 308.994 11.9403C308.872 11.9758 308.798 12.0536 308.719 12.1158C308.63 12.1846 308.509 12.2068 308.332 12.2135C308.169 12.2202 308.039 12.2113 307.918 12.1491C307.866 12.1224 307.796 12.1024 307.727 12.0847C307.661 12.0691 307.587 12.0447 307.526 12.0491C306.832 12.1002 306.143 12.1557 305.449 12.2091C305.104 12.2357 305.109 12.2357 304.391 12.1046C304.326 12.0935 304.247 12.078 304.182 12.0824C303.795 12.1091 303.413 12.1402 303.027 12.1713C302.635 12.2024 302.64 12.1979 301.974 12.058C301.853 12.0314 301.676 12.0669 301.531 12.0625C301.229 12.0514 301.08 11.8648 300.726 11.9003C300.423 11.9314 300.106 11.9381 299.803 11.9781C299.528 12.0136 299.37 11.9359 299.184 11.8759C299.119 11.8559 299.049 11.8115 298.993 11.8159C298.299 11.8648 297.609 11.9203 296.687 11.927C296.459 11.927 296.561 11.9736 296.71 11.9892C296.925 12.0136 296.995 11.967 296.878 11.8781C296.794 11.8159 296.673 11.7848 296.575 11.8004C296.524 11.8092 296.459 11.8515 296.687 11.927C296.929 12.0114 296.915 12.058 296.957 12.0847C297.06 12.1491 297.204 12.1757 297.353 12.1668C297.586 12.1513 297.814 12.1291 298.047 12.1158C298.112 12.1113 298.192 12.1269 298.252 12.1446C298.765 12.2823 298.769 12.2912 299.314 12.2379C299.487 12.2224 299.612 12.2224 299.747 12.2646C299.934 12.3223 300.069 12.42 300.353 12.3889C300.73 12.3467 301.117 12.3223 301.503 12.2979C301.564 12.2935 301.629 12.3334 301.699 12.3512C301.89 12.4045 302.03 12.5045 302.314 12.4623C302.533 12.4289 302.77 12.42 303.003 12.4134C303.064 12.4111 303.157 12.4467 303.185 12.4756C303.241 12.5267 303.171 12.5866 303.013 12.6288C302.947 12.6466 302.859 12.6421 302.784 12.6488C302.477 12.6732 302.17 12.6999 301.862 12.7199C301.699 12.731 301.545 12.7643 301.527 12.8465C301.513 12.902 301.68 12.9509 301.839 12.9464C302.072 12.9398 302.305 12.922 302.528 12.8931C302.924 12.8443 303.269 12.8576 303.59 12.9975C303.818 13.0952 303.804 13.0597 304.047 13.3484C304.107 13.4217 304.289 13.4284 304.447 13.424C304.829 13.4128 305.006 13.4462 304.974 13.515C304.932 13.5994 304.797 13.6261 304.624 13.6372C304.317 13.6549 304.009 13.6838 303.702 13.7083C303.627 13.7149 303.544 13.7282 303.474 13.7238C303.404 13.7193 303.339 13.6927 303.278 13.6727C303.148 13.6305 303.036 13.5661 302.896 13.5505C302.756 13.535 302.593 13.5683 302.44 13.5816C302.286 13.5927 302.123 13.6261 301.983 13.6105C301.843 13.595 301.727 13.5283 301.601 13.4884C301.541 13.4684 301.466 13.4373 301.406 13.4395C301.098 13.4573 300.791 13.4861 300.483 13.5084C300.106 13.5372 300.106 13.5372 299.65 13.3995C299.519 13.3595 299.384 13.3618 299.212 13.3795C298.839 13.4151 298.834 13.4084 298.154 13.2796C298.089 13.2663 298.01 13.2507 297.945 13.2574C297.251 13.3085 296.561 13.364 295.872 13.4173C295.28 13.4639 295.28 13.4639 294.954 13.686C294.712 13.8504 294.707 13.8504 294.945 13.9259C295.136 13.9881 295.308 14.0792 295.518 14.1125C295.713 14.1436 295.956 14.0436 296.17 14.1458C296.277 14.1969 296.417 14.2524 296.552 14.2613C296.766 14.2724 296.994 14.208 297.199 14.3057C297.302 14.3546 297.456 14.4057 297.586 14.4079C297.814 14.4123 298.047 14.3768 298.275 14.3612C298.345 14.3568 298.424 14.3568 298.49 14.3679C298.56 14.3812 298.62 14.4079 298.681 14.4301C298.867 14.5056 299.067 14.5411 299.31 14.5034C299.705 14.4412 300.059 14.4723 300.367 14.6144C300.409 14.6344 300.511 14.6366 300.576 14.6278C300.744 14.6055 300.889 14.6033 301.014 14.6455C301.066 14.6633 301.14 14.6944 301.131 14.7144C301.117 14.7477 301.061 14.7921 301 14.8032C300.562 14.8787 300.092 14.8876 299.64 14.9276C299.58 14.932 299.505 14.9031 299.445 14.8832C299.314 14.8432 299.202 14.7766 299.063 14.761C298.923 14.7455 298.76 14.7743 298.606 14.7854C298.452 14.7965 298.289 14.8299 298.15 14.8165C298.01 14.801 297.879 14.7455 297.768 14.6966C297.637 14.6411 297.512 14.6344 297.339 14.6566C297.116 14.6855 296.883 14.6899 296.654 14.7055C296.529 14.6633 296.403 14.6166 296.272 14.5767C296.212 14.5567 296.137 14.5322 296.072 14.5345C295.765 14.5522 295.457 14.5789 295.15 14.6033C294.842 14.6277 294.842 14.6278 294.321 14.4901C294.26 14.4745 294.181 14.4567 294.116 14.4612C293.729 14.4878 293.347 14.5211 292.961 14.5478C292.812 14.5589 292.676 14.5278 292.555 14.4678C292.439 14.4079 292.299 14.3745 292.155 14.3856C291.54 14.4323 290.925 14.4767 290.31 14.5322C290.063 14.5545 289.854 14.5345 289.686 14.4545C289.49 14.3635 289.271 14.3857 289.043 14.4034C288.526 14.4479 288.521 14.4456 288.191 14.3323C288.126 14.3101 288.06 14.2679 288 14.2702C287.464 14.3035 286.924 14.3346 286.393 14.3879C286.113 14.4167 285.964 14.339 285.778 14.2813C285.713 14.2613 285.643 14.2191 285.587 14.2235C285.2 14.2479 284.814 14.2702 284.436 14.3146C284.059 14.359 283.915 14.1525 283.631 14.1547C283.244 14.1569 282.862 14.208 282.48 14.2391C282.173 14.2635 281.865 14.2879 281.558 14.3124C281.25 14.3368 280.943 14.3568 280.635 14.3856C280.472 14.4012 280.351 14.3812 280.216 14.3257C280.044 14.2524 279.839 14.1947 279.653 14.128C279.369 14.0325 279.368 14.0325 279.024 14.0592C278.949 14.0658 278.87 14.0703 278.796 14.0769C278.232 14.1258 278.232 14.1214 277.515 13.9814C277.482 13.9748 277.398 13.9992 277.366 14.017C277.268 14.0747 277.179 14.1369 277.091 14.1969C276.965 14.1613 276.811 14.1413 276.727 14.0903C276.49 13.9459 276.117 14.1436 275.875 14.0014C275.786 13.9481 275.633 13.9015 275.493 13.8881C275.349 13.8748 275.186 13.9059 275.036 13.9192C274.65 13.9526 274.65 13.9503 274.319 14.148C274.151 14.2457 273.909 14.228 273.69 14.2502C273.462 14.2746 273.243 14.2879 273.052 14.1969C272.88 14.1147 272.67 14.0947 272.423 14.1214C272.121 14.1547 271.809 14.1747 271.501 14.1946C271.436 14.1991 271.357 14.188 271.291 14.1747C270.579 14.0436 270.579 14.0414 270.234 14.0703C270.08 14.0836 269.922 14.088 269.773 14.108C269.521 14.1436 269.33 14.0969 269.149 14.0258C269.088 14.0036 269.018 13.9615 268.958 13.9637C268.65 13.9748 268.348 13.9948 268.045 14.0148C267.812 14.0303 267.579 14.0392 267.355 14.0703C266.983 14.1214 266.801 13.977 266.545 13.9103C266.163 13.9392 265.776 13.9592 265.394 13.9992C265.217 14.017 265.101 14.0103 264.966 13.957C264.794 13.8904 264.635 13.8149 264.356 13.8482C263.983 13.8926 263.592 13.9081 263.21 13.9348C262.954 13.8659 262.767 13.726 262.399 13.7771C262.176 13.8082 261.938 13.8148 261.71 13.8326C261.403 13.857 261.095 13.8793 260.788 13.9059C260.457 13.9326 260.462 13.9259 259.954 13.7949C259.66 13.7171 259.358 13.8038 259.059 13.8171C258.827 13.8282 258.71 13.9303 258.766 14.0614C258.822 14.1924 258.696 14.2946 258.482 14.3124C257.946 14.3546 257.406 14.399 256.87 14.4367C256.805 14.4412 256.726 14.4256 256.665 14.4101C256.092 14.2702 256.092 14.2724 255.836 14.2924C255.454 14.3257 255.063 14.3434 254.686 14.3856C254.425 14.4145 254.234 14.3679 254.066 14.2924C253.936 14.2346 253.815 14.2213 253.647 14.2346C251.802 14.3834 249.958 14.5211 248.118 14.6744C247.843 14.6966 247.685 14.6322 247.498 14.5722C247.433 14.5522 247.372 14.51 247.307 14.51C247.154 14.51 247 14.53 246.846 14.5434C246.157 14.5967 245.467 14.6611 244.773 14.701C244.48 14.7188 244.401 14.821 244.275 14.9054C244.177 14.9698 244.065 14.9964 243.893 15.0053C243.725 15.0142 243.604 15.0031 243.474 14.9454C243.306 14.8698 243.115 14.8232 242.854 14.8543C242.551 14.8898 242.244 14.9054 241.932 14.9298C241.774 14.9409 241.652 14.9809 241.601 15.0608C241.592 15.0742 241.69 15.1075 241.746 15.1275C241.932 15.1941 242.109 15.2719 242.319 15.3185C242.533 15.3651 242.766 15.3118 242.989 15.2985C243.068 15.294 243.143 15.2807 243.217 15.283C243.287 15.2852 243.371 15.2963 243.423 15.3163C243.665 15.4162 243.921 15.4851 244.256 15.4251C244.545 15.454 244.694 15.6383 245.062 15.5895C245.286 15.5606 245.519 15.5473 245.752 15.5362C245.812 15.5339 245.877 15.5739 245.942 15.5939C246.129 15.6494 246.278 15.7383 246.557 15.7005C246.855 15.6605 247.172 15.6539 247.475 15.6228C247.643 15.605 247.764 15.6206 247.894 15.6783C248.062 15.7516 248.253 15.8071 248.514 15.7716C248.737 15.7405 248.975 15.7338 249.203 15.7138C249.501 15.6894 249.501 15.6916 250.032 15.8293C250.093 15.8449 250.172 15.8626 250.237 15.8582C250.624 15.8315 251.006 15.7982 251.392 15.7716C251.541 15.7605 251.686 15.7893 251.788 15.8537C251.83 15.8804 251.816 15.9248 251.83 15.9626C251.062 16.0226 250.293 16.0736 249.529 16.1469C249.24 16.1758 249.11 16.0847 248.919 16.0337C248.854 16.0159 248.784 15.9781 248.723 15.9826C248.183 16.0203 247.647 16.0603 247.112 16.1092C246.944 16.1247 246.818 16.1158 246.692 16.0514C246.371 15.8804 245.98 15.9737 245.616 15.9981C245.337 16.0159 245.248 16.0847 245.281 16.2313C245.323 16.4046 245.491 16.4579 245.919 16.4268C246.073 16.4157 246.227 16.4001 246.38 16.3912C246.529 16.3824 246.665 16.4112 246.786 16.4712C246.902 16.5312 247.042 16.5623 247.186 16.5534C247.494 16.5334 247.806 16.5134 248.104 16.4801C248.351 16.4534 248.556 16.4756 248.728 16.5578C248.919 16.6489 249.143 16.6289 249.366 16.6089C249.888 16.5645 249.892 16.5667 250.219 16.6778C250.284 16.7 250.349 16.7422 250.41 16.74C250.945 16.7066 251.486 16.6778 252.012 16.6245C252.287 16.5978 252.445 16.6689 252.627 16.7266C252.692 16.7466 252.757 16.791 252.818 16.7866C253.204 16.7622 253.591 16.7377 253.968 16.6955C254.145 16.6755 254.252 16.6889 254.397 16.7422C254.741 16.8732 254.751 16.8688 255.24 16.8266C255.389 16.8132 255.552 16.7888 255.692 16.8066C255.831 16.8243 255.943 16.8888 256.074 16.9287C256.134 16.9465 256.209 16.9709 256.274 16.9665C256.581 16.9487 256.889 16.9221 257.196 16.8976C257.485 16.8732 257.485 16.8754 258.025 17.0131C258.244 17.0709 258.473 17.022 258.692 17.0043C258.929 16.9843 259.143 16.9843 259.325 17.0709C259.507 17.1575 259.726 17.1531 259.959 17.1353C260.177 17.1175 260.401 17.0687 260.625 17.1286C261.137 17.2663 261.137 17.2685 261.454 17.2419C261.915 17.2041 262.371 17.1686 262.837 17.1353C262.898 17.1308 262.977 17.1575 263.037 17.1753C263.168 17.2153 263.28 17.2819 263.419 17.2974C263.559 17.3152 263.722 17.2885 263.871 17.2752C264.351 17.233 264.384 17.2175 264.705 17.3641C264.975 17.484 265.311 17.3108 265.562 17.4485C265.707 17.5262 265.902 17.5884 266.172 17.5506C266.396 17.5195 266.629 17.5106 266.862 17.4929C267.23 17.464 267.23 17.4662 267.695 17.5995C267.756 17.6173 267.835 17.6395 267.896 17.635C268.203 17.6172 268.515 17.6017 268.813 17.5617C269.163 17.5151 269.386 17.5995 269.647 17.6817C269.852 17.7461 270.094 17.6928 270.313 17.6706C270.551 17.6484 270.765 17.655 270.942 17.7416C271.128 17.8305 271.347 17.8194 271.58 17.8016C271.799 17.786 272.023 17.735 272.246 17.7971C272.726 17.9349 272.726 17.9349 273.076 17.9082C273.383 17.8838 273.69 17.8571 273.998 17.8394C274.058 17.8349 274.133 17.8638 274.193 17.8838C274.324 17.9237 274.436 17.9904 274.575 18.0059C274.715 18.0215 274.878 17.9926 275.032 17.9815C275.186 17.9704 275.349 17.9371 275.488 17.9504C275.628 17.9637 275.759 18.0193 275.87 18.0681C276.001 18.1259 276.122 18.1325 276.299 18.1103C276.522 18.0814 276.755 18.0748 276.984 18.0592C277.109 18.1014 277.24 18.1436 277.361 18.1903C277.487 18.2391 277.622 18.2347 277.794 18.2191C278.367 18.1658 278.372 18.1725 278.851 18.3102C279.07 18.3724 279.299 18.3213 279.518 18.3058C279.75 18.288 279.969 18.2791 280.151 18.368C280.328 18.4524 280.547 18.4635 280.78 18.4368C280.929 18.419 281.087 18.408 281.241 18.4013C281.311 18.3991 281.395 18.4079 281.446 18.4257C281.693 18.519 281.935 18.6034 282.275 18.5434C282.573 18.5612 282.722 18.7433 283.081 18.7078C283.384 18.6767 283.7 18.67 283.999 18.63C284.273 18.5945 284.469 18.6567 284.609 18.7344C284.86 18.8721 285.214 18.6856 285.466 18.8211C285.61 18.8988 285.797 18.961 286.076 18.9277C286.383 18.8921 286.481 18.9388 286.57 19.0787C286.621 19.1586 286.612 19.2231 286.519 19.2853C286.425 19.3497 286.323 19.3386 286.174 19.2653C286.002 19.1831 285.797 19.1675 285.55 19.1853C285.307 19.2031 285.158 19.0876 284.958 19.0432C284.758 18.9965 284.52 19.0743 284.311 19.0143C283.817 18.8744 283.817 18.8744 283.482 18.901C283.253 18.9188 283.016 18.9277 282.792 18.9588C282.527 18.9965 282.354 18.9277 282.173 18.8655C282.107 18.8433 282.042 18.8011 281.986 18.8033C281.451 18.8366 280.91 18.8677 280.379 18.9232C280.1 18.9521 279.951 18.8721 279.764 18.8166C279.699 18.7966 279.629 18.7567 279.573 18.7611C279.112 18.7922 278.656 18.8322 278.195 18.8699C278.106 18.9299 278.008 18.9876 277.924 19.052C277.836 19.1187 277.715 19.1476 277.538 19.1453C277.244 19.1453 276.956 19.2386 276.662 19.1209C276.359 19.001 276.336 19.0076 276.043 19.0365C275.67 19.0743 275.274 19.0654 274.925 19.152C274.864 19.1675 274.799 19.2097 274.799 19.2408C274.794 19.2608 274.892 19.2897 274.953 19.3075C275.158 19.3608 275.395 19.283 275.6 19.3386C275.735 19.3741 275.847 19.4274 275.982 19.4651C276.038 19.4807 276.122 19.4785 276.196 19.4763C276.276 19.474 276.35 19.4585 276.425 19.4607C276.494 19.4629 276.569 19.4763 276.625 19.4962C276.881 19.5806 277.151 19.6584 277.379 19.7583C277.603 19.8561 277.813 19.7894 278.036 19.785C278.931 19.9405 278.931 19.9427 279.532 19.8938C279.681 19.8827 279.834 19.8694 279.988 19.8716C280.053 19.8716 280.114 19.9116 280.179 19.9338C280.365 20.0004 280.542 20.0604 280.803 20.0248C281.027 19.9938 281.264 19.9871 281.493 19.9671C281.8 19.9427 281.8 19.9427 282.322 20.0826C282.452 20.1181 282.592 20.1137 282.76 20.0959C282.904 20.0804 283.053 20.1137 283.155 20.1781C283.197 20.2048 283.183 20.2492 283.197 20.2869C282.736 20.3225 282.27 20.3469 281.823 20.4002C281.534 20.4335 281.404 20.338 281.213 20.2869C281.148 20.2692 281.078 20.2314 281.017 20.2359C280.561 20.2692 280.104 20.3069 279.648 20.3513C279.592 20.3558 279.522 20.4069 279.518 20.438C279.508 20.4957 279.625 20.5512 279.792 20.549C280.016 20.5468 280.235 20.509 280.435 20.6001C280.603 20.68 280.812 20.7156 281.059 20.6801C281.208 20.6601 281.367 20.6601 281.516 20.6423C281.912 20.589 282.27 20.6001 282.568 20.7511C282.797 20.7911 283.02 20.7534 283.239 20.7334C283.402 20.7178 283.561 20.7023 283.677 20.7445C283.924 20.8333 284.166 20.9221 284.506 20.8622C284.874 20.9244 285.154 21.0554 285.461 21.162C285.606 21.2131 285.717 21.242 285.885 21.2087C285.955 21.1954 286.039 21.1953 286.113 21.1887C286.267 21.1776 286.43 21.1442 286.57 21.1576C286.71 21.1731 286.826 21.2375 286.952 21.2775C287.012 21.2975 287.082 21.3308 287.143 21.3286C287.376 21.3175 287.604 21.2953 287.832 21.2775C288.06 21.262 288.289 21.2464 288.517 21.2309C288.708 21.2886 288.903 21.3464 289.094 21.4041C289.402 21.3797 289.709 21.3552 290.012 21.333C290.352 21.3064 290.352 21.3086 290.841 21.4463C291.06 21.5085 291.293 21.4685 291.503 21.4396C291.852 21.393 292.085 21.4774 292.332 21.5663C292.383 21.584 292.476 21.5951 292.537 21.5862C292.779 21.5551 292.988 21.5796 293.165 21.6617C293.291 21.7195 293.417 21.7462 293.571 21.7351C294.106 21.6929 294.642 21.6484 295.178 21.6107C295.243 21.6062 295.318 21.6262 295.378 21.644C295.853 21.7795 295.858 21.7861 296.207 21.7506C296.519 21.7195 296.808 21.7062 297.055 21.8283C297.106 21.855 297.185 21.8927 297.241 21.8905C297.623 21.8683 298.01 21.8439 298.387 21.8061C298.56 21.7884 298.681 21.795 298.816 21.8461C298.988 21.9105 299.142 21.9883 299.426 21.9594C300.213 21.8772 300.218 21.8905 301.149 22.0438C301.215 22.0549 301.303 22.0371 301.378 22.0282C301.536 22.006 301.652 22.0371 301.792 22.0882C302.104 22.2037 302.114 22.197 302.412 22.1726C302.64 22.1526 302.878 22.1482 303.101 22.1148C303.446 22.066 303.674 22.1526 303.93 22.2348C304.135 22.2992 304.373 22.2459 304.592 22.2259C304.829 22.2037 305.044 22.2103 305.221 22.2947C305.342 22.3525 305.472 22.3836 305.626 22.3725C306.161 22.3325 306.697 22.2881 307.233 22.2481C307.298 22.2437 307.377 22.2614 307.438 22.277C307.969 22.4147 307.969 22.4214 308.495 22.3703C308.663 22.3547 308.803 22.3503 308.928 22.3969C309.049 22.4413 309.18 22.4835 309.306 22.5257C309.534 22.5102 309.767 22.5058 309.99 22.4791C310.163 22.4591 310.284 22.468 310.419 22.5146C310.596 22.5746 310.745 22.679 311.024 22.6279C311.169 22.6035 311.336 22.6101 311.481 22.5879C311.653 22.5591 311.77 22.5768 311.905 22.6346C312.073 22.7034 312.245 22.7745 312.515 22.7389C312.813 22.699 313.13 22.6923 313.433 22.6612C313.6 22.6434 313.717 22.6612 313.852 22.719C314.02 22.7923 314.211 22.8389 314.471 22.81C315.002 22.7545 315.007 22.7656 315.524 22.9055C315.654 22.9411 315.794 22.9366 315.962 22.9189C316.106 22.9033 316.255 22.9366 316.358 23.001C316.456 23.0721 316.446 23.1165 316.456 23.1543ZM274.948 3.12281C274.794 3.13391 274.641 3.14724 274.417 2.95401C274.403 2.92069 274.412 2.88072 274.38 2.85185C274.305 2.79188 274.189 2.74968 274.049 2.74302C273.798 2.73413 273.495 2.80964 273.499 2.86738C273.504 2.91625 273.583 2.95844 273.737 2.99842C273.802 3.01396 273.853 3.04062 273.914 3.05839C274.091 3.10947 274.231 3.20943 274.487 3.15835C274.44 3.02065 274.464 3.0895 274.487 3.15835C274.464 3.24275 274.533 3.30272 274.701 3.32715C274.748 3.33381 274.818 3.32936 274.855 3.31604C274.999 3.26717 275.023 3.20056 274.915 3.02509C274.897 3.05397 274.911 3.10503 274.953 3.11836C274.995 3.13169 275.097 3.1206 275.148 3.10505C275.279 3.06285 275.344 3.00732 275.311 2.96068C275.293 2.93624 275.204 2.90515 275.148 2.90515C275.05 2.90515 274.962 2.95401 274.948 3.12281ZM312.613 28.8801C312.273 28.9223 311.882 28.9068 311.542 28.9934C311.481 29.0089 311.42 29.0489 311.416 29.08C311.411 29.1 311.504 29.1289 311.56 29.1444C311.686 29.18 311.826 29.1688 311.989 29.1577C312.236 29.1422 312.38 29.2443 312.571 29.2954C312.631 29.311 312.711 29.3221 312.776 29.3176C313.153 29.291 313.526 29.2621 313.903 29.231C313.968 29.2244 314.038 29.2088 314.094 29.1888C314.28 29.1244 314.262 29.0822 314.08 29.0334C313.88 28.9801 313.721 28.8912 313.516 28.849C313.223 28.789 312.925 28.869 312.613 28.8801ZM286.16 30.5015C285.932 30.5192 285.708 30.537 285.48 30.5548C285.405 30.5614 285.326 30.5636 285.256 30.5725C285.112 30.5881 285.005 30.6347 284.935 30.708C285.042 30.7658 285.172 30.7991 285.317 30.7924C285.545 30.7791 285.769 30.7502 285.997 30.7435C286.244 30.7347 286.388 30.8346 286.579 30.8857C286.64 30.9012 286.714 30.9035 286.784 30.9057C287.129 30.9146 287.338 30.7991 287.273 30.6369C287.227 30.5103 287.05 30.4348 286.835 30.4504C286.612 30.4659 286.384 30.4837 286.16 30.5015ZM314.206 25.5974C314.262 25.5597 314.322 25.533 314.35 25.4997C314.434 25.3864 314.401 25.302 314.248 25.2132C314.061 25.1043 313.833 25.1776 313.624 25.1887C313.572 25.191 313.516 25.2376 313.489 25.2665C313.47 25.2865 313.47 25.3287 313.498 25.3398C313.726 25.4286 313.968 25.5108 314.206 25.5974ZM273.798 19.0365C273.574 19.0543 273.346 19.0676 273.122 19.092C273.066 19.0987 273.015 19.1409 272.982 19.1698C272.922 19.2231 272.987 19.2964 273.178 19.303C273.397 19.3119 273.625 19.2741 273.853 19.2564C274.142 19.2342 274.314 19.152 274.207 19.0809C274.105 19.0121 273.965 18.9987 273.798 19.0365ZM28.6037 14.2902C28.7527 14.2791 28.9064 14.2702 29.0555 14.2546C29.1952 14.2391 29.3024 14.1902 29.3723 14.1169C29.2558 14.0592 29.1254 14.0281 28.981 14.0347C28.7527 14.0481 28.5292 14.0658 28.3056 14.088C28.1658 14.1014 28.0308 14.1502 27.9982 14.2257C27.9656 14.2835 28.2776 14.3168 28.6037 14.2902ZM254.099 13.9481C254.159 13.9681 254.22 14.0081 254.28 14.0081C254.429 14.0081 254.583 13.9948 254.723 13.9725C254.783 13.9637 254.83 13.9237 254.858 13.8926C254.877 13.8726 254.872 13.8371 254.844 13.8193C254.709 13.7127 254.169 13.7504 254.08 13.8726C254.071 13.8948 254.094 13.9237 254.099 13.9481ZM239.403 1.78574C239.417 1.82128 239.421 1.85681 239.44 1.89235C239.477 1.95898 239.58 2.00785 239.729 2.04117C239.845 1.98564 239.906 1.92346 239.901 1.85683C239.896 1.82129 239.882 1.78573 239.864 1.7502C239.826 1.68357 239.724 1.63472 239.575 1.60141C239.459 1.65471 239.403 1.71689 239.403 1.78574ZM324.971 30.8879C324.929 30.9168 324.887 30.9457 324.84 30.9723C324.966 31.0367 325.082 31.0567 325.171 31.0212C325.227 30.999 325.259 30.9657 325.301 30.9368C325.176 30.8724 325.064 30.8546 324.971 30.8879ZM322.073 31.19C322.134 31.21 322.19 31.2366 322.255 31.25C322.362 31.2722 322.46 31.2344 322.534 31.1544C322.474 31.1344 322.418 31.1078 322.353 31.0945C322.246 31.0723 322.148 31.11 322.073 31.19ZM323.908 30.7835C323.876 30.8368 323.941 30.8813 324.113 30.919C324.155 30.8901 324.211 30.8635 324.239 30.8324C324.286 30.7813 324.207 30.7347 324.039 30.6991C323.992 30.7258 323.95 30.7547 323.908 30.7835ZM314.075 28.3893C314.043 28.4426 314.108 28.487 314.28 28.5247C314.322 28.4959 314.378 28.4692 314.406 28.4381C314.453 28.387 314.374 28.3404 314.206 28.3049C314.159 28.3315 314.117 28.3604 314.075 28.3893ZM300.679 12.6732C300.637 12.7021 300.595 12.731 300.549 12.7576C300.674 12.8221 300.791 12.842 300.879 12.8065C300.935 12.7843 300.968 12.751 301.01 12.7221C300.884 12.6577 300.772 12.6399 300.679 12.6732ZM287.846 4.33548C287.958 4.35103 288.051 4.31995 288.13 4.23777C288.07 4.21778 288.014 4.19112 287.949 4.1778C287.841 4.15559 287.744 4.19336 287.669 4.27331C287.73 4.29552 287.79 4.31549 287.846 4.33548ZM281.031 3.81354C280.99 3.84242 280.948 3.87129 280.901 3.89794C281.027 3.96235 281.143 3.98234 281.232 3.9468C281.288 3.92459 281.32 3.89127 281.362 3.8624C281.236 3.79799 281.125 3.78245 281.031 3.81354ZM234.819 1.78352C234.777 1.81239 234.735 1.84127 234.689 1.86792C234.815 1.93233 234.931 1.95231 235.019 1.91677C235.075 1.89456 235.108 1.86125 235.15 1.83237C235.024 1.76796 234.912 1.75242 234.819 1.78352ZM4.71728 19.8538C4.65673 19.8338 4.59623 19.8139 4.54033 19.7917C4.40525 19.8516 4.36334 19.9071 4.43787 19.9493C4.48445 19.976 4.55427 19.9915 4.61482 20.0115C4.75456 19.9516 4.78716 19.8982 4.71728 19.8538Z" fill="#FFE492"/>
<path d="M31.7347 12.0114C31.1991 12.0536 30.6681 12.1069 30.1324 12.1335C29.8483 12.1469 29.7459 12.2424 29.6294 12.3312C29.5362 12.4023 29.4291 12.4245 29.2567 12.4378C27.8034 12.5466 26.3548 12.6621 24.9061 12.7754C24.7244 12.7465 24.6359 12.6999 24.6779 12.6444C24.7012 12.6111 24.7571 12.5644 24.813 12.56C25.8051 12.4778 26.7926 12.3934 27.7894 12.329C28.0735 12.3112 28.1528 12.2135 28.2972 12.1335C28.3437 12.1069 28.381 12.0669 28.4416 12.0514C28.5021 12.0336 28.5906 12.0358 28.6698 12.0314C30.2722 11.9048 31.8746 11.7804 33.4769 11.6538C33.6586 11.6827 33.7471 11.7293 33.7052 11.7848C33.6819 11.8182 33.626 11.8648 33.5701 11.8692C32.9552 11.9159 32.3449 11.9625 31.7347 12.0114Z" fill="#FFE492"/>
<path d="M325.032 23.8383C324.79 23.865 324.482 23.9027 324.231 23.7739C324.11 23.7117 323.979 23.6918 323.821 23.7051C323.592 23.7273 323.36 23.7451 323.127 23.7584C323.066 23.7606 322.987 23.7362 322.926 23.7162C322.796 23.6762 322.684 23.6096 322.544 23.5918C322.405 23.574 322.237 23.6229 322.093 23.6118C321.902 23.5962 321.822 23.5363 321.874 23.4808C321.902 23.4497 321.958 23.4052 322.018 23.3986C322.88 23.3164 322.884 23.3164 323.127 23.3964C323.313 23.4586 323.485 23.5274 323.751 23.4896C323.974 23.4585 324.212 23.4519 324.44 23.4319C324.757 23.4052 324.757 23.4075 325.269 23.5474C325.4 23.5829 325.539 23.5807 325.707 23.5607C325.852 23.5452 325.991 23.5807 326.108 23.6407C326.033 23.7162 325.926 23.765 325.782 23.7784C325.549 23.8006 325.321 23.8161 325.032 23.8383Z" fill="#FFE492"/>
<path d="M316.454 23.1544C317.041 23.1077 317.633 23.0678 318.22 23.0145C318.462 22.9923 318.653 23.0167 318.821 23.0922C319.002 23.1744 319.207 23.1677 319.431 23.1522C319.571 23.1433 319.706 23.1788 319.799 23.241C319.836 23.2654 319.827 23.3099 319.841 23.3454C319.328 23.3854 318.811 23.4276 318.294 23.4631C318.234 23.4675 318.159 23.4453 318.103 23.4276C317.978 23.3898 317.87 23.3232 317.735 23.3099C317.447 23.2788 317.158 23.3387 316.864 23.3498C316.725 23.3543 316.589 23.321 316.496 23.261C316.459 23.2321 316.468 23.1899 316.454 23.1544Z" fill="#FFE492"/>
<path d="M104.352 4.05792C104.962 4.00906 105.572 3.96244 106.182 3.91357C106.364 3.94467 106.448 3.98908 106.411 4.04461C106.387 4.07792 106.331 4.12457 106.275 4.12901C105.055 4.22895 103.835 4.32444 102.619 4.41995C102.437 4.38885 102.354 4.34444 102.391 4.28892C102.414 4.2556 102.47 4.20896 102.526 4.20452C103.131 4.15343 103.742 4.10678 104.352 4.05792Z" fill="#FFE492"/>
<path d="M10.3242 16.4001C10.0494 16.4045 9.76061 16.4867 9.45318 16.4245C9.39263 16.4134 9.30876 16.3779 9.31342 16.3579C9.32273 16.3245 9.37864 16.2823 9.43919 16.269C9.7047 16.2135 10.0355 16.2068 10.1705 16.0514C10.2357 15.9714 10.3569 15.9448 10.5199 15.9292C10.6922 15.9115 10.8133 15.9181 10.9484 15.9647C11.1254 16.0247 11.2745 16.1358 11.554 16.078C11.5679 16.1135 11.6005 16.1535 11.5865 16.1868C11.5725 16.2202 11.5121 16.2513 11.4562 16.2757C11.4049 16.2979 11.335 16.3179 11.2698 16.3245C10.9623 16.3512 10.6549 16.3734 10.3242 16.4001Z" fill="#FFE492"/>
<path d="M252.58 15.9535C252.809 15.9358 253.046 15.9269 253.27 15.8958C253.447 15.8714 253.559 15.8869 253.698 15.9402C253.936 16.0335 253.95 16.0246 254.532 16.0379C254.597 16.0402 254.677 16.0735 254.714 16.1023C254.737 16.1179 254.704 16.1601 254.677 16.1823C254.635 16.2112 254.574 16.2489 254.518 16.2489C254.15 16.2556 253.778 16.3866 253.419 16.2356C253.237 16.1601 253.037 16.1245 252.79 16.1579C252.641 16.1778 252.483 16.1867 252.329 16.1956C252.18 16.2045 252.026 16.1801 251.933 16.1134C251.798 16.0157 251.877 15.978 252.119 15.9846C252.273 15.9891 252.427 15.9646 252.58 15.9535Z" fill="#FFE492"/>
<path d="M337.002 31.2634C337.295 31.2412 337.589 31.2146 337.887 31.1968C337.947 31.1924 338.022 31.2168 338.078 31.2324C338.302 31.299 338.269 31.4122 338.278 31.5122C338.283 31.6166 337.766 31.701 337.547 31.6299C337.305 31.55 337.086 31.4589 336.75 31.5078C336.62 31.5255 336.466 31.4856 336.382 31.4211C336.257 31.3279 336.327 31.2901 336.564 31.2968C336.704 31.3012 336.853 31.2768 337.002 31.2634Z" fill="#FFE492"/>
<path d="M189.119 1.03319C189.422 1.00876 189.725 0.97102 190.028 0.968799C190.205 0.966578 190.293 1.03986 190.251 1.09316C190.228 1.12648 190.172 1.17312 190.116 1.17756C189.511 1.23087 188.905 1.2753 188.3 1.32416C188.123 1.29306 188.034 1.24643 188.076 1.19313C188.099 1.15981 188.155 1.11539 188.211 1.10873C188.514 1.07763 188.817 1.05762 189.119 1.03319Z" fill="#FFE492"/>
<path d="M331.195 24.0335C331.488 24.0113 331.786 23.9779 332.08 23.9668C332.233 23.9624 332.354 24.0135 332.373 24.0712C332.382 24.0979 332.308 24.1445 332.247 24.1556C331.828 24.2311 331.376 24.24 330.938 24.2778C330.799 24.2889 330.65 24.2533 330.566 24.1911C330.44 24.0956 330.51 24.0601 330.747 24.0668C330.897 24.069 331.046 24.0446 331.195 24.0335Z" fill="#FFE492"/>
<path d="M260.275 16.2537C260.424 16.2426 260.578 16.2137 260.723 16.2226C260.876 16.2337 260.974 16.2981 261.021 16.3625C261.072 16.4358 261.067 16.5047 261.021 16.5669C260.946 16.6735 260.872 16.6691 260.699 16.598C260.434 16.4869 260.415 16.5003 259.889 16.5047C259.828 16.5047 259.754 16.4714 259.707 16.4425C259.637 16.3981 259.675 16.3292 259.838 16.2893C259.959 16.2604 260.126 16.2648 260.275 16.2537Z" fill="#FFE492"/>
<path d="M320.281 23.305C320.5 23.2872 320.719 23.2584 320.938 23.2584C321.092 23.2561 321.213 23.3072 321.227 23.3628C321.232 23.3894 321.162 23.4338 321.106 23.4472C320.84 23.5071 320.542 23.5116 320.253 23.5316C320.118 23.5404 319.969 23.5049 319.885 23.4427C319.76 23.3494 319.834 23.3072 320.063 23.3205C320.132 23.325 320.207 23.3117 320.281 23.305Z" fill="#FFE492"/>
<path d="M285.825 20.5801C285.499 20.6067 285.192 20.5734 285.215 20.5157C285.248 20.4402 285.383 20.3913 285.522 20.378C285.746 20.3558 285.97 20.338 286.198 20.3247C286.342 20.3158 286.473 20.3491 286.589 20.4068C286.519 20.4779 286.412 20.529 286.272 20.5445C286.128 20.5601 285.974 20.569 285.825 20.5801Z" fill="#FFE492"/>
<path d="M283.685 20.2962C283.904 20.2784 284.123 20.2496 284.342 20.2496C284.496 20.2474 284.617 20.2984 284.631 20.354C284.635 20.3806 284.566 20.425 284.51 20.4384C284.244 20.4983 283.946 20.5028 283.657 20.5228C283.522 20.5316 283.373 20.4961 283.289 20.4339C283.163 20.3406 283.238 20.2985 283.466 20.3118C283.536 20.3162 283.611 20.3029 283.685 20.2962Z" fill="#FFE492"/>
<path d="M257.635 16.2357C257.854 16.218 258.073 16.1891 258.292 16.1868C258.446 16.1846 258.567 16.2357 258.581 16.2912C258.586 16.3179 258.516 16.3601 258.46 16.3756C258.194 16.4356 257.896 16.4401 257.607 16.46C257.472 16.4689 257.323 16.4334 257.239 16.3712C257.114 16.2779 257.188 16.2357 257.416 16.249C257.486 16.2535 257.561 16.2402 257.635 16.2357Z" fill="#FFE492"/>
<path d="M256.409 16.1048C256.642 16.087 256.716 16.0759 256.791 16.0759C256.931 16.0759 257.075 16.1026 257.159 16.167C257.285 16.2603 257.21 16.2869 256.982 16.2914C256.688 16.2958 256.4 16.3425 256.106 16.3514C255.952 16.3558 255.831 16.3025 255.822 16.247C255.817 16.2203 255.887 16.1737 255.943 16.1648C256.139 16.1315 256.353 16.1115 256.409 16.1048Z" fill="#FFE492"/>
<path d="M281.789 3.03838C281.64 3.04949 281.482 3.08059 281.342 3.06948C281.156 3.05393 281.081 2.99397 281.128 2.93845C281.156 2.90735 281.207 2.86293 281.263 2.85627C281.561 2.82518 281.864 2.80517 282.162 2.78296C282.339 2.81627 282.418 2.86291 282.372 2.91844C282.344 2.94953 282.292 2.99173 282.237 3.00062C282.092 3.02283 281.938 3.02728 281.789 3.03838Z" fill="#FFE492"/>
<path d="M101.013 4.31994C101.158 4.31772 101.288 4.34659 101.4 4.40212C101.33 4.47319 101.228 4.51983 101.088 4.53982C101.018 4.54871 100.939 4.55536 100.864 4.55758C100.72 4.56202 100.589 4.53093 100.478 4.4754C100.547 4.40433 100.655 4.35769 100.79 4.3377C100.859 4.32882 100.939 4.32661 101.013 4.31994Z" fill="#FFE492"/>
<path d="M329.602 24.0247C329.597 23.9603 329.882 23.887 330.138 23.8892C330.273 23.8914 330.413 23.9225 330.492 23.9825C330.613 24.0736 330.543 24.1091 330.315 24.1024C330.175 24.098 330.026 24.1357 329.886 24.1291C329.728 24.1269 329.635 24.078 329.602 24.0247Z" fill="#FFE492"/>
<path d="M261.627 16.5226C261.622 16.4982 261.599 16.4693 261.613 16.4471C261.701 16.3249 262.237 16.2872 262.377 16.3938C262.4 16.4138 262.409 16.4471 262.391 16.4671C262.363 16.4982 262.312 16.5381 262.256 16.547C262.111 16.5692 261.962 16.5803 261.813 16.5826C261.748 16.5826 261.687 16.5448 261.627 16.5226Z" fill="#FFE492"/>
<path d="M11.9842 16.0451C11.4346 16.0917 11.4253 16.0873 11.5231 15.9762C11.6116 15.8763 11.7747 15.8163 12.0122 15.8163C12.0821 15.8163 12.1566 15.8119 12.2171 15.8207C12.2823 15.8318 12.3756 15.854 12.3895 15.8807C12.4175 15.9318 12.3382 15.9873 12.1985 16.0251C12.1379 16.0428 12.0588 16.0384 11.9842 16.0451Z" fill="#FFE492"/>
<path d="M107.892 4.00691C107.729 4.04467 107.589 4.03135 107.487 3.96028C107.384 3.88921 107.547 3.8048 107.832 3.78481C107.906 3.78037 107.985 3.76261 108.055 3.7715C108.125 3.77816 108.195 3.80479 108.237 3.83144C108.311 3.87586 108.265 3.93585 108.116 3.98693C108.055 4.00692 107.967 4.00247 107.892 4.00691Z" fill="#FFE492"/>
<path d="M328.631 23.8581C328.673 23.8292 328.715 23.8003 328.762 23.7737C328.934 23.8114 329.009 23.8559 328.962 23.9069C328.934 23.938 328.878 23.9647 328.836 23.9936C328.664 23.9558 328.594 23.9092 328.631 23.8581Z" fill="#FFE492"/>
<path d="M19.3623 41.3288C19.3623 41.3021 19.4275 41.2599 19.4788 41.251C19.5766 41.2355 19.6976 41.2666 19.7815 41.3288C19.8979 41.4176 19.8281 41.4642 19.6139 41.4398C19.4648 41.422 19.3623 41.3776 19.3623 41.3288Z" fill="#FFE492"/>
<path d="M263.523 14.4548C263.584 14.4748 263.645 14.4948 263.701 14.517C263.621 14.5992 263.523 14.6347 263.421 14.6125C263.356 14.5992 263.3 14.5725 263.239 14.5525C263.318 14.4703 263.412 14.4392 263.523 14.4548Z" fill="#FFE492"/>
<path d="M261.911 14.3551C262.005 14.3218 262.116 14.3395 262.247 14.404C262.205 14.4328 262.168 14.4661 262.116 14.4884C262.028 14.5239 261.911 14.5061 261.786 14.4395C261.823 14.4128 261.865 14.3839 261.911 14.3551Z" fill="#FFE492"/>
<path d="M260.676 14.4526C260.737 14.4726 260.798 14.4926 260.853 14.5148C260.774 14.597 260.681 14.6325 260.574 14.6103C260.509 14.597 260.453 14.5703 260.392 14.5504C260.472 14.4682 260.565 14.4349 260.676 14.4526Z" fill="#FFE492"/>
<path d="M259.767 14.3347C259.837 14.3791 259.8 14.4324 259.665 14.4923C259.604 14.4724 259.534 14.4568 259.488 14.4302C259.413 14.388 259.45 14.3324 259.59 14.2725C259.646 14.2947 259.706 14.3147 259.767 14.3347Z" fill="#FFE492"/>
</svg>
