<svg width="333" height="27" viewBox="0 0 333 27" fill="none" xmlns="http://www.w3.org/2000/svg">
<path d="M313.096 14.1114C312.64 14.1328 312.18 14.1475 311.734 14.1796C311.444 14.1996 311.32 14.1408 311.126 14.1101C311.062 14.0994 310.993 14.078 310.933 14.0807C310.482 14.1021 310.031 14.1261 309.58 14.1502C309.442 14.2023 309.354 14.2718 309.143 14.2972C308.936 14.3212 308.692 14.3212 308.462 14.3333C308.158 14.3479 307.854 14.3627 307.55 14.376C307.399 14.3827 307.274 14.4081 307.224 14.4562C307.214 14.4642 307.316 14.4842 307.371 14.4963C307.555 14.5363 307.734 14.5818 307.937 14.6125C308.13 14.6419 308.37 14.5938 308.577 14.6312C309.041 14.7154 309.046 14.7141 309.4 14.698C309.704 14.6833 310.008 14.6673 310.312 14.6566C310.371 14.6539 310.44 14.674 310.505 14.6847C310.698 14.7141 310.822 14.7809 311.108 14.7555C311.324 14.7355 311.563 14.7314 311.789 14.7208C311.978 14.7595 312.152 14.8036 312.355 14.8343C312.544 14.8637 312.599 14.8864 312.498 14.9252C312.406 14.9613 312.277 14.976 312.106 14.9786C311.955 14.98 311.803 14.992 311.651 14.9987C311.573 15.0027 311.499 15.0054 311.425 15.0094C311.135 15.0241 311.135 15.0241 310.606 14.9386C310.399 14.9052 310.164 14.9519 309.966 14.9198C309.833 14.8985 309.718 14.8664 309.589 14.8437C309.534 14.8343 309.446 14.833 309.377 14.8357C309.147 14.845 308.917 14.8517 308.696 14.8691C308.54 14.8811 308.448 14.9185 308.466 14.9559C308.471 14.9706 308.581 14.992 308.646 14.9933C308.793 14.996 308.949 14.9773 309.092 14.9867C309.23 14.996 309.373 15.0227 309.474 15.0521C309.681 15.1136 309.916 15.0588 310.114 15.0749C310.321 15.0922 310.491 15.1457 310.689 15.1777C310.74 15.1858 310.836 15.1724 310.914 15.1684C311.14 15.159 311.366 15.151 311.591 15.1417C311.78 15.1804 311.982 15.2152 312.152 15.2592C312.461 15.3394 312.792 15.3701 313.193 15.3314C313.418 15.31 313.639 15.318 313.818 15.3701C314.002 15.4236 314.214 15.4183 314.449 15.4076C314.665 15.3969 314.886 15.3675 315.107 15.4049C315.586 15.4877 315.59 15.4917 316.156 15.4597C316.327 15.4503 316.455 15.4477 316.584 15.4784C316.704 15.5064 316.833 15.5305 316.957 15.5572C317.183 15.5479 317.413 15.5385 317.638 15.5278C317.928 15.5131 318.089 15.5318 318.158 15.6067C318.2 15.6521 318.218 15.6935 318.319 15.7242C318.439 15.7617 318.568 15.7603 318.743 15.7496C318.908 15.7403 319.028 15.7256 319.097 15.6775C319.125 15.6574 319.18 15.6387 319.23 15.6227C319.272 15.6107 319.336 15.592 319.373 15.5946C319.442 15.6 319.534 15.6147 319.557 15.632C319.783 15.7937 319.783 15.7951 320.013 15.8418C320.266 15.8939 320.528 15.9407 320.758 15.9995C320.965 16.0516 321.173 16.0289 321.398 16.0289C321.568 16.0289 321.679 16.0636 321.665 16.0984C321.656 16.1184 321.591 16.1478 321.536 16.1505C321.085 16.1772 320.63 16.1999 320.174 16.2186C320.119 16.2213 320.05 16.1973 319.985 16.1852C319.856 16.1612 319.741 16.1238 319.603 16.1157C319.465 16.1077 319.304 16.1278 319.152 16.1345C319 16.1411 318.839 16.1585 318.701 16.1478C318.563 16.1371 318.453 16.0984 318.324 16.073C318.264 16.061 318.181 16.0436 318.131 16.0476C317.795 16.0797 317.546 16.0356 317.307 15.9768C317.256 15.9648 317.169 15.9567 317.104 15.9594C316.571 15.9821 316.041 16.0089 315.507 16.0342C315.291 16.0449 315.116 15.9982 315.07 15.9193C315.047 15.8752 315.001 15.8311 315.001 15.787C315.001 15.7069 314.748 15.6628 314.564 15.6721C314.26 15.6855 313.952 15.6962 313.653 15.7162C313.409 15.7323 313.202 15.7162 313.036 15.6681C312.843 15.6133 312.622 15.624 312.401 15.6387C312.235 15.6494 312.189 15.6935 312.198 15.8044C312.208 15.8939 312.129 15.922 311.83 15.9367C311.453 15.9554 311.071 15.9741 310.689 15.9888C310.629 15.9915 310.56 15.9688 310.5 15.9567C310.371 15.9327 310.256 15.8939 310.118 15.8859C309.98 15.8766 309.819 15.8966 309.667 15.9046C309.515 15.9113 309.354 15.93 309.216 15.9207C309.078 15.9113 308.963 15.8712 308.839 15.8458C308.779 15.8338 308.705 15.8164 308.646 15.8191C308.342 15.8298 308.038 15.8458 307.734 15.8605C307.394 15.8766 307.394 15.8766 306.911 15.7937C306.69 15.7563 306.469 15.7857 306.253 15.7964C306.022 15.8071 305.806 15.8124 305.627 15.759C305.507 15.7242 305.374 15.7029 305.231 15.7095C304.849 15.7256 304.472 15.7456 304.09 15.7617C304.025 15.7643 303.938 15.7577 303.887 15.7456C303.643 15.6895 303.404 15.6454 303.063 15.6735C302.769 15.6975 302.451 15.6989 302.157 15.7216C301.996 15.7336 301.922 15.7764 301.954 15.8098C301.973 15.8271 302.069 15.8472 302.134 15.8472C302.281 15.8485 302.442 15.8285 302.58 15.8365C302.865 15.8525 303.008 15.9648 303.381 15.934C303.602 15.9153 303.832 15.9086 304.062 15.9033C304.122 15.902 304.186 15.9273 304.251 15.9407C304.435 15.9768 304.596 16.0235 304.863 15.9995C305.084 15.9808 305.318 15.9755 305.544 15.9648C305.903 15.9474 305.903 15.9487 306.368 16.0302C306.589 16.069 306.809 16.0383 307.026 16.0289C307.187 16.0222 307.339 16.0089 307.467 16.0276C307.665 16.0556 307.808 16.1198 308.052 16.1157C308.282 16.1117 308.508 16.093 308.738 16.0864C308.88 16.0823 309.014 16.1037 309.129 16.1398C309.249 16.1759 309.377 16.1919 309.534 16.1839C309.759 16.1732 309.989 16.1598 310.22 16.1532C310.284 16.1518 310.358 16.1639 310.418 16.1745C310.546 16.1986 310.671 16.2267 310.795 16.252C311.02 16.244 311.25 16.2414 311.471 16.2253C311.642 16.2133 311.761 16.2186 311.899 16.2454C312.074 16.2814 312.217 16.3456 312.502 16.3149C312.645 16.3002 312.811 16.3042 312.953 16.2908C313.128 16.2734 313.248 16.2801 313.372 16.3202C313.607 16.3964 313.901 16.3977 314.205 16.3683C314.536 16.3362 314.785 16.3736 315.033 16.4324C315.296 16.4939 315.296 16.4926 315.498 16.6409C315.558 16.6836 315.728 16.7037 315.871 16.6957C316.11 16.6823 316.317 16.689 316.492 16.7398C316.676 16.7945 316.897 16.7879 317.123 16.7732C317.422 16.7531 317.721 16.7358 317.965 16.8133C318.085 16.8507 318.213 16.86 318.375 16.8507C318.83 16.8266 319.29 16.8119 319.737 16.7825C320.008 16.7638 320.165 16.8066 320.349 16.8426C320.597 16.8921 320.869 16.9362 320.869 17.0417C320.869 17.0591 320.933 17.0792 320.988 17.0925C321.108 17.1206 321.237 17.1446 321.361 17.1714C321.545 17.2114 321.725 17.2448 321.978 17.2235C322.199 17.2061 322.434 17.2007 322.659 17.1887C322.885 17.1767 323.092 17.17 323.294 17.2208C323.529 17.2782 323.777 17.333 324.044 17.3758C324.233 17.4065 324.482 17.3544 324.684 17.3958C324.808 17.4212 324.928 17.4506 325.061 17.472C325.117 17.4814 325.204 17.4747 325.278 17.472C325.43 17.4667 325.586 17.4627 325.733 17.4493C325.904 17.4346 326.032 17.4373 326.161 17.468C326.281 17.4961 326.401 17.5348 326.539 17.5428C326.746 17.5548 326.976 17.5014 327.183 17.5629C327.289 17.5936 327.422 17.623 327.56 17.6324C327.698 17.6417 327.859 17.6217 328.007 17.623C328.071 17.623 328.149 17.6444 328.186 17.6617C328.209 17.6711 328.177 17.6965 328.145 17.7098C328.103 17.7259 328.044 17.7473 327.984 17.7499C327.528 17.774 327.072 17.794 326.617 17.8167C326.345 17.8301 326.345 17.8301 325.798 17.7459C325.669 17.7259 325.526 17.7299 325.365 17.7392C325.149 17.7513 324.928 17.774 324.702 17.7499C324.408 17.6591 324.044 17.651 323.658 17.6858C323.497 17.7005 323.349 17.7005 323.23 17.6751C322.977 17.6243 322.71 17.5776 322.484 17.5174C322.309 17.4707 322.226 17.4667 322.153 17.5308C322.13 17.5508 322.107 17.5722 322.111 17.5909C322.139 17.6577 322.19 17.7232 322.217 17.79C322.226 17.8087 322.19 17.8301 322.167 17.8502C322.093 17.9063 321.996 17.9023 321.835 17.8555C321.674 17.8087 321.481 17.778 321.223 17.7994C321.002 17.8181 320.763 17.8154 320.542 17.8355C320.202 17.8649 319.962 17.8221 319.718 17.7646C319.668 17.7526 319.58 17.7459 319.516 17.7486C318.83 17.7793 318.149 17.8141 317.463 17.8448C317.316 17.8515 317.183 17.8314 317.068 17.7954C316.948 17.7593 316.814 17.7406 316.667 17.7473C316.06 17.7753 315.452 17.8007 314.845 17.8355C314.596 17.8502 314.398 17.8328 314.228 17.786C314.099 17.7513 313.979 17.7406 313.818 17.7446C313.644 17.7486 313.519 17.762 313.432 17.8007C313.349 17.8381 313.409 17.8608 313.593 17.8902C313.791 17.9223 313.975 17.9637 314.164 18.0011C314.315 17.9958 314.467 17.9851 314.615 17.9864C314.679 17.9864 314.739 18.0105 314.803 18.0239C314.987 18.0626 315.158 18.1014 315.42 18.08C315.641 18.0613 315.876 18.0573 316.101 18.0452C316.414 18.0305 316.414 18.0305 316.92 18.1147C317.049 18.1361 317.187 18.1348 317.353 18.1227C317.495 18.1134 317.643 18.1321 317.744 18.1722C317.785 18.1882 317.772 18.2149 317.684 18.3031C317.684 18.3686 317.781 18.3392 317.813 18.2964C317.864 18.235 317.767 18.2149 317.583 18.2483C317.454 18.2724 317.39 18.3071 317.422 18.3352C317.44 18.3499 317.528 18.3686 317.684 18.3031C318.089 18.223 318.398 18.2136 318.692 18.1922C318.867 18.1802 318.977 18.1855 319.115 18.2203C319.281 18.2617 319.447 18.3058 319.718 18.2844C320.013 18.2604 320.326 18.2577 320.625 18.2376C320.901 18.2189 321.044 18.2777 321.219 18.3125C321.43 18.3539 321.665 18.3071 321.858 18.3312C322.061 18.3552 322.203 18.414 322.438 18.4247C322.779 18.3886 322.995 18.4555 323.253 18.4995C323.455 18.533 323.694 18.5035 323.911 18.4888C324.155 18.4728 324.357 18.4875 324.527 18.5356C324.721 18.5904 324.937 18.5784 325.158 18.5664C325.673 18.5396 325.692 18.5356 325.991 18.6091C326.207 18.6626 326.414 18.6385 326.631 18.6318C326.819 18.6679 327.003 18.7067 327.201 18.7387C327.252 18.7467 327.349 18.7334 327.427 18.7294C327.652 18.7187 327.882 18.708 328.108 18.6973C328.26 18.6906 328.421 18.6706 328.559 18.6786C328.697 18.688 328.812 18.7267 328.936 18.7521C329.061 18.7775 329.189 18.8029 329.309 18.8296C329.493 18.8697 329.668 18.9031 329.926 18.883C330.147 18.8657 330.377 18.8603 330.607 18.8483C330.897 18.8336 330.888 18.8376 331.426 18.9178C331.716 18.9619 332.015 18.9084 332.31 18.9031C332.457 18.9004 332.6 18.9151 332.701 18.9539C332.742 18.9699 332.728 18.9966 332.742 19.0193C331.983 19.0554 331.219 19.0861 330.469 19.1302C330.179 19.1476 330.027 19.0995 329.871 19.0594C329.613 18.9953 329.272 19.0888 329.028 19.006C328.881 18.9565 328.669 18.9285 328.416 18.9525C328.269 18.9659 328.113 18.9645 327.961 18.9766C327.574 19.006 327.22 19.0073 326.911 18.9151C326.806 18.883 326.654 18.8657 326.543 18.8349C326.414 18.8015 326.29 18.7828 326.138 18.7895C325.453 18.8216 324.771 18.8536 324.09 18.8884C324.03 18.891 323.971 18.9111 323.92 18.9258C323.791 18.9632 323.833 18.9926 324.04 19.0167C324.109 19.0247 324.164 19.042 324.228 19.0554C324.353 19.0808 324.468 19.1209 324.606 19.1302C324.744 19.1396 324.905 19.1209 325.057 19.1142C325.209 19.1075 325.37 19.0875 325.508 19.0955C325.646 19.1048 325.761 19.1436 325.89 19.1677C325.95 19.1797 326.023 19.1997 326.083 19.1984C326.387 19.1904 326.686 19.1757 326.99 19.1636C327.178 19.1997 327.339 19.2518 327.565 19.2639C327.708 19.2719 327.859 19.2572 328.007 19.2598C328.071 19.2612 328.154 19.2812 328.186 19.2986C328.205 19.3093 328.145 19.336 328.099 19.3494C327.924 19.4002 327.685 19.3908 327.468 19.4068C327.234 19.4242 327.022 19.4189 326.842 19.3667C326.723 19.332 326.589 19.3133 326.442 19.32C326.06 19.3374 325.683 19.3574 325.301 19.3721C325.236 19.3748 325.158 19.3627 325.098 19.3534C324.615 19.2719 324.615 19.2692 324.274 19.2866C323.773 19.312 323.773 19.312 323.437 19.2411C323.372 19.2278 323.303 19.2024 323.248 19.2037C322.714 19.2251 322.185 19.2465 321.656 19.2772C321.481 19.2866 321.361 19.2866 321.232 19.2518C321.122 19.2224 320.993 19.189 320.855 19.181C320.712 19.173 320.556 19.193 320.404 19.1997C320.252 19.2064 320.091 19.2238 319.958 19.2131C319.82 19.2024 319.7 19.165 319.58 19.1383C319.456 19.1102 319.323 19.1115 319.152 19.1222C318.628 19.1529 318.623 19.1489 318.103 19.0661C318.043 19.0567 317.965 19.0461 317.901 19.0487C317.519 19.0648 317.141 19.0848 316.759 19.1008C316.612 19.1075 316.469 19.0902 316.368 19.0514C316.327 19.0354 316.34 19.0086 316.313 18.9565C316.281 18.9445 316.317 18.9659 316.327 18.9859C316.396 18.9833 316.478 18.9859 316.529 18.9752C316.658 18.9498 316.722 18.9164 316.69 18.8884C316.672 18.8737 316.584 18.855 316.529 18.855C316.428 18.855 316.34 18.8844 316.313 18.9565C316.023 19.0006 315.714 19.01 315.415 19.0314C315.24 19.0447 315.13 19.038 314.992 19.0033C314.826 18.9605 314.656 18.9191 314.384 18.9405C314.09 18.9645 313.777 18.9686 313.473 18.9873C313.123 19.0086 312.972 18.8884 312.677 18.8911C312.373 18.8937 312.07 18.9164 311.766 18.9325C311.499 18.9458 311.499 18.9458 310.947 18.859C310.744 18.8269 310.505 18.8737 310.307 18.8403C310.174 18.8189 310.059 18.7868 309.93 18.7641C309.874 18.7548 309.787 18.7548 309.718 18.7574C309.336 18.7735 308.949 18.7842 308.581 18.8136C308.162 18.8483 307.845 18.8109 307.546 18.732C307.168 18.7467 306.786 18.7548 306.414 18.7801C306.142 18.7989 305.986 18.7548 305.802 18.7187C305.737 18.7067 305.682 18.6866 305.613 18.6813C305.544 18.6759 305.461 18.6866 305.387 18.6906C305.084 18.7053 304.771 18.712 304.476 18.7361C304.113 18.7668 303.975 18.6572 303.694 18.6439C303.505 18.7093 303.404 18.7988 303.031 18.8055C302.727 18.8109 302.424 18.8323 302.12 18.847C301.968 18.8536 301.816 18.8617 301.664 18.8683C301.42 18.8804 301.305 18.9325 301.356 19.0126C301.384 19.0567 301.407 19.1008 301.43 19.1449C301.476 19.2238 301.361 19.2906 301.167 19.2999C300.633 19.3253 300.104 19.352 299.57 19.3748C299.428 19.3814 299.29 19.3587 299.174 19.3226C299.055 19.2866 298.921 19.2705 298.774 19.2772C298.24 19.3026 297.711 19.3293 297.177 19.3521C297.117 19.3547 297.039 19.3414 296.979 19.3307C296.851 19.3066 296.726 19.2786 296.602 19.2532C296.298 19.2652 295.999 19.2732 295.7 19.2892C295.217 19.3133 295.217 19.3146 294.862 19.2411C294.798 19.2278 294.734 19.2024 294.674 19.2037C294.444 19.2091 294.218 19.2224 293.988 19.2345C293.312 19.2692 293.311 19.2692 293.114 19.2291C292.934 19.1917 292.773 19.1463 292.501 19.1677C292.207 19.1917 291.894 19.1997 291.59 19.2131C291.365 19.2224 291.139 19.2331 290.914 19.2358C290.854 19.2371 290.79 19.2117 290.725 19.1984C290.541 19.157 290.361 19.1236 290.108 19.1463C289.961 19.1596 289.805 19.1623 289.653 19.169C289.257 19.1877 289.257 19.1877 288.608 19.1075C288.544 19.0995 288.465 19.0901 288.401 19.0942C287.867 19.1182 287.338 19.1449 286.804 19.1677C286.74 19.1703 286.661 19.1623 286.597 19.1556C285.87 19.0781 285.87 19.0781 285.097 19.1155C284.802 19.1289 284.793 19.1342 284.485 19.0634C284.347 19.0327 284.232 19.018 284.07 19.0273C283.463 19.0594 282.851 19.0808 282.248 19.1182C281.977 19.1342 281.82 19.0942 281.636 19.0581C281.572 19.046 281.503 19.0193 281.447 19.0207C280.84 19.0461 280.232 19.0768 279.625 19.1022C279.57 19.1049 279.501 19.0781 279.436 19.0661C279.312 19.042 279.192 19.006 279.054 18.998C278.911 18.9899 278.755 19.01 278.599 19.0167C278.217 19.034 278.217 19.0327 277.775 18.9539C277.715 18.9432 277.637 18.9285 277.577 18.9311C276.969 18.9579 276.357 18.9806 275.754 19.0193C275.409 19.0407 275.175 19.002 274.931 18.9458C274.88 18.9338 274.793 18.9285 274.728 18.9311C274.042 18.9619 273.361 18.9966 272.676 19.0273C272.533 19.034 272.395 19.0113 272.28 18.9766C272.096 18.9218 271.88 18.9285 271.649 18.9405C271.12 18.9685 271.116 18.9672 270.803 18.9031C270.738 18.8897 270.683 18.8724 270.614 18.8657C270.549 18.859 270.467 18.863 270.398 18.8657C270.094 18.879 269.79 18.8937 269.486 18.9084C269.183 18.9231 268.874 18.9311 268.575 18.9539C268.207 18.9819 268.032 18.8951 267.774 18.855C267.397 18.8723 267.01 18.883 266.638 18.9111C266.352 18.9325 266.219 18.8737 266.03 18.8429C265.966 18.8323 265.897 18.8095 265.837 18.8122C265.151 18.8416 264.465 18.8737 263.784 18.9098C263.619 18.9178 263.508 18.9071 263.37 18.875C263.062 18.8029 263.048 18.8055 262.533 18.8323C262.307 18.8443 262.091 18.855 261.897 18.8002C261.727 18.7508 261.52 18.7387 261.276 18.7548C260.977 18.7748 260.669 18.7855 260.365 18.7989C260.061 18.8136 259.758 18.8336 259.454 18.8403C259.21 18.847 259.063 18.7842 258.869 18.7521C258.81 18.7427 258.727 18.7414 258.658 18.7441C258.354 18.7561 258.041 18.7654 257.746 18.7882C257.388 18.8162 257.19 18.7427 256.937 18.7C256.881 18.6906 256.789 18.696 256.72 18.7C256.186 18.724 255.657 18.7507 255.123 18.7761C254.935 18.7401 254.741 18.7053 254.553 18.6693C254.249 18.6826 253.945 18.6973 253.641 18.7107C253.411 18.7214 253.177 18.7254 252.96 18.7454C252.68 18.7721 252.541 18.7093 252.353 18.6786C252.288 18.6679 252.219 18.6452 252.159 18.6479C251.777 18.6626 251.396 18.6786 251.018 18.7013C250.659 18.724 250.517 18.6038 250.222 18.6051C249.918 18.6064 249.605 18.6238 249.311 18.6479C248.97 18.6759 248.731 18.6332 248.487 18.5757C248.436 18.5637 248.349 18.557 248.285 18.5597C247.903 18.5757 247.525 18.5958 247.143 18.6118C247.079 18.6145 247.001 18.6078 246.936 18.5998C246.209 18.5209 246.209 18.5196 245.891 18.5356C245.666 18.5463 245.436 18.5597 245.206 18.5664C245.141 18.569 245.063 18.557 245.003 18.5463C244.525 18.4648 244.525 18.4635 244.179 18.4795C243.876 18.4942 243.572 18.5089 243.268 18.5236C243.079 18.4875 242.886 18.4528 242.698 18.4167C242.32 18.4341 241.934 18.4474 241.561 18.4715C241.386 18.4822 241.271 18.4782 241.137 18.4448C240.972 18.4047 240.806 18.3579 240.53 18.3806C240.235 18.4047 239.923 18.4073 239.623 18.4274C239.264 18.4514 239.117 18.3299 238.827 18.3312C238.523 18.3325 238.211 18.3499 237.916 18.3739C237.575 18.402 237.336 18.3593 237.092 18.3018C237.042 18.2898 236.954 18.2831 236.89 18.2858C236.052 18.3245 235.219 18.3632 234.382 18.4047C233.866 18.4301 233.866 18.4314 232.886 18.3579C232.817 18.3526 232.743 18.3472 232.674 18.3499C232.37 18.3619 232.057 18.3713 231.763 18.394C231.404 18.422 231.206 18.3499 230.953 18.3058C230.898 18.2964 230.81 18.3018 230.737 18.3045C230.507 18.3138 230.281 18.3258 230.051 18.3365C229.747 18.3512 229.444 18.3659 229.14 18.3806C228.951 18.3459 228.758 18.3098 228.569 18.2751C228.192 18.2924 227.805 18.3018 227.432 18.3298C227.147 18.3512 227.014 18.2951 226.825 18.263C226.76 18.2523 226.691 18.2296 226.632 18.231C225.946 18.2604 225.26 18.2911 224.579 18.3285C224.298 18.3445 224.17 18.2844 223.981 18.2537C223.916 18.2443 223.843 18.227 223.783 18.2296C223.327 18.2483 222.872 18.2711 222.416 18.2938C222.158 18.3071 222.158 18.3071 221.597 18.2243C221.533 18.2149 221.459 18.2056 221.395 18.2083C219.949 18.2751 218.509 18.3459 217.064 18.4127C216.917 18.4194 216.783 18.3993 216.668 18.3633C216.548 18.3272 216.415 18.3085 216.268 18.3152C215.66 18.3432 215.048 18.3686 214.445 18.4033C214.197 18.418 213.999 18.4007 213.829 18.3539C213.7 18.3192 213.58 18.3058 213.419 18.3138C213.115 18.3298 212.812 18.3432 212.508 18.3579C212.204 18.3726 211.9 18.3873 211.597 18.402C211.293 18.4167 210.985 18.4247 210.685 18.4474C210.317 18.4755 210.138 18.3927 209.885 18.3512C209.429 18.3713 208.973 18.3913 208.522 18.4127C207.915 18.4408 207.307 18.4715 206.7 18.4982C206.645 18.5009 206.576 18.4768 206.511 18.4648C206.323 18.4314 206.184 18.3846 205.904 18.3993C204.542 18.4702 203.17 18.5303 201.803 18.5998C201.518 18.6145 201.394 18.557 201.2 18.5263C201.136 18.5169 201.062 18.4982 201.003 18.5009C200.243 18.5343 199.484 18.5717 198.725 18.6078C198.416 18.6225 198.416 18.6225 197.901 18.5396C197.841 18.5303 197.763 18.5182 197.698 18.5209C196.709 18.5663 195.724 18.6145 194.734 18.6612C194.587 18.6679 194.454 18.6492 194.334 18.6131C194.219 18.577 194.081 18.557 193.938 18.5637C193.027 18.6064 192.111 18.6479 191.205 18.6946C190.961 18.708 190.758 18.696 190.583 18.6479C190.459 18.6131 190.335 18.5984 190.178 18.6064C188.812 18.6719 187.445 18.7347 186.078 18.8042C185.816 18.8176 185.632 18.7922 185.466 18.7481C185.332 18.7133 185.217 18.7067 185.052 18.712C184.877 18.7187 184.771 18.7334 184.674 18.7735C184.55 18.8256 184.472 18.8911 184.177 18.8951C183.874 18.8991 183.565 18.9151 183.266 18.9378C182.981 18.9605 182.847 18.9004 182.668 18.8643C182.534 18.8389 182.41 18.8349 182.24 18.847C182.083 18.8577 181.987 18.8804 181.895 18.9231C181.692 19.014 181.674 19.014 181.425 18.9565C181.292 18.9258 181.172 18.9017 181.025 18.9071C180.417 18.9338 179.81 18.9632 179.202 18.9939C178.853 19.0113 178.848 19.014 178.586 18.9472C178.457 18.9138 178.333 18.8977 178.181 18.9057C176.51 18.9859 174.84 19.0634 173.169 19.1476C172.911 19.161 172.736 19.1329 172.552 19.0928C172.493 19.0795 172.433 19.0607 172.364 19.0554C172.295 19.0501 172.216 19.0554 172.143 19.0581C170.928 19.1155 169.708 19.1703 168.498 19.2345C168.222 19.2492 168.075 19.2064 167.886 19.1717C167.821 19.1596 167.766 19.1409 167.697 19.1356C167.628 19.1316 167.545 19.1409 167.472 19.1449C166.257 19.2024 165.037 19.2572 163.827 19.3213C163.537 19.336 163.413 19.2799 163.224 19.2505C163.159 19.2398 163.09 19.2198 163.031 19.2224C162.649 19.2371 162.271 19.2572 161.889 19.2745C160.978 19.3186 160.067 19.3601 159.156 19.4055C158.806 19.4229 158.654 19.3039 158.359 19.3093C157.977 19.316 157.6 19.3427 157.218 19.3614C156.914 19.3761 156.611 19.3895 156.307 19.4055C156.008 19.4202 156.008 19.4202 155.262 19.3427C155.198 19.336 155.12 19.3267 155.055 19.3293C153.992 19.3788 152.924 19.4282 151.866 19.4817C151.622 19.4937 151.42 19.487 151.245 19.4376C151.12 19.4028 150.992 19.3854 150.84 19.3935C149.243 19.4696 147.65 19.5458 146.053 19.6206C145.994 19.6233 145.915 19.6099 145.856 19.5992C145.727 19.5752 145.602 19.5471 145.478 19.5218C145.386 19.5525 145.267 19.5805 145.207 19.6153C145.124 19.662 145.013 19.6754 144.839 19.6834C144.664 19.6914 144.553 19.6888 144.415 19.654C144.249 19.6113 144.079 19.5779 143.808 19.5912C142.137 19.6754 140.466 19.7516 138.796 19.8344C138.52 19.8478 138.391 19.789 138.198 19.7582C138.133 19.7489 138.06 19.7342 138 19.7369C137.314 19.7676 136.633 19.801 135.947 19.8331C134.047 19.9239 132.146 20.0108 130.25 20.107C129.905 20.1244 129.67 20.091 129.426 20.0335C129.375 20.0215 129.288 20.0148 129.224 20.0175C126.564 20.1431 123.904 20.27 121.248 20.397C121.106 20.4036 120.967 20.3823 120.852 20.3475C120.733 20.3114 120.599 20.2941 120.452 20.3008C119.237 20.3582 118.022 20.4157 116.807 20.4745C116.503 20.4892 116.499 20.4905 116.186 20.4263C116.121 20.413 116.052 20.3876 116.002 20.3903C115.896 20.397 115.795 20.4304 115.721 20.4758C115.647 20.5239 115.532 20.5373 115.362 20.5466C115.187 20.556 115.072 20.552 114.939 20.5199C114.768 20.4798 114.612 20.4411 114.336 20.4544C110.843 20.6255 107.35 20.7898 103.857 20.9595C103.576 20.9729 103.447 20.9167 103.254 20.886C103.189 20.8767 103.125 20.8633 103.056 20.8606C102.982 20.8579 102.904 20.866 102.831 20.87C97.1332 21.1412 91.4358 21.4138 85.7384 21.6851C85.3979 21.7011 85.4024 21.7011 85.0297 21.824C84.9836 21.8387 84.9238 21.8588 84.8593 21.8614C83.1151 21.947 81.3664 22.0298 79.6176 22.1126C78.8582 22.1487 78.0989 22.1861 77.3396 22.2209C77.0681 22.2329 77.0681 22.2329 76.4192 22.3772C76.3639 22.3892 76.2994 22.4053 76.235 22.408C73.1976 22.5536 70.1602 22.6992 67.1182 22.8422C66.8789 22.8529 66.6857 22.877 66.5752 22.9411C66.497 22.9865 66.3957 23.0133 66.2439 23.0213C64.1177 23.1228 61.9916 23.2257 59.8608 23.3246C59.6077 23.3366 59.4558 23.374 59.3315 23.4302C59.2901 23.4489 59.2532 23.4702 59.1934 23.4836C59.1382 23.4956 59.0554 23.4996 58.9863 23.5036C57.1639 23.5905 55.3415 23.68 53.5145 23.7629C53.243 23.7749 53.1325 23.8243 52.999 23.8764C52.953 23.8938 52.9207 23.9179 52.8609 23.9299C52.8011 23.9406 52.7137 23.9406 52.64 23.9433C51.1213 24.0154 49.6027 24.0889 48.084 24.1611C47.7895 24.1544 47.725 24.2319 47.5823 24.2786C47.5317 24.2947 47.495 24.3161 47.4351 24.3267C47.3707 24.3374 47.2878 24.3361 47.2095 24.3388C45.9946 24.3962 44.7797 24.4577 43.5601 24.5111C43.2794 24.5232 43.2241 24.5913 43.0722 24.6381C43.0216 24.6528 42.9711 24.6755 42.9112 24.6795C42.1519 24.7183 41.3926 24.7543 40.6332 24.7891C40.3801 24.8011 40.3801 24.7998 39.9337 24.9321C39.8831 24.9467 39.8232 24.9628 39.7588 24.9668C38.622 25.0229 37.4808 25.0764 36.3394 25.1311C36.1922 25.1378 36.0909 25.1699 36.0173 25.2153C35.9437 25.2608 35.8378 25.2902 35.6906 25.2968C34.7794 25.3409 33.8681 25.3864 32.9568 25.4264C32.7037 25.4371 32.5381 25.4705 32.4276 25.5307C32.3448 25.5761 32.2436 25.5988 32.0825 25.6068C31.1713 25.6496 30.2601 25.6964 29.3443 25.7338C29.0773 25.7445 28.9392 25.7899 28.8288 25.846C28.7413 25.8914 28.6401 25.9075 28.4698 25.9155C26.7992 25.993 25.1241 26.0705 23.4582 26.156C23.1774 26.1707 23.0347 26.1239 22.8506 26.0905C22.5883 26.0438 22.3445 25.993 22.3445 25.8888C22.3445 25.8727 22.2662 25.854 22.211 25.8407C21.8014 25.7404 21.8014 25.7405 21.737 25.6336C21.7002 25.5681 21.6587 25.5013 21.6265 25.4345C21.5667 25.3249 21.4194 25.2968 20.996 25.3169C20.8441 25.3236 20.6923 25.3329 20.5404 25.3382C20.3149 25.3476 20.1446 25.3035 20.1032 25.2233C20.0802 25.1792 20.0526 25.1351 20.0296 25.0911C20.2597 25.0804 20.2551 25.079 20.66 24.9174C20.8303 24.8492 20.8304 24.8492 20.5036 24.7811C20.3794 24.7557 20.2597 24.7276 20.1262 24.7035C20.0664 24.6929 19.9882 24.6862 19.9238 24.6889C19.5418 24.7049 19.1644 24.7236 18.7871 24.7423C18.1796 24.7717 18.1795 24.7717 17.5628 24.6354C17.5122 24.6247 17.434 24.6047 17.4432 24.594C17.4938 24.5445 17.618 24.5232 17.7745 24.5178C18.0046 24.5098 18.2301 24.4964 18.4556 24.4857C18.6075 24.4791 18.7594 24.4711 18.9112 24.4644C19.0539 24.4136 19.2012 24.3642 19.3347 24.312C19.5464 24.2319 19.5463 24.2292 19.2564 24.1731C19.0723 24.1357 18.8744 24.1023 18.6857 24.0675C18.4602 24.0782 18.2301 24.0902 18.0046 24.0996C17.7193 24.1116 17.6042 24.0862 17.5306 23.9994C17.4662 23.9232 17.5444 23.8577 17.7653 23.8417C17.9908 23.8257 18.2026 23.815 18.3176 23.7468C18.4281 23.6814 18.6214 23.656 18.8607 23.6506C19.0125 23.6466 19.1644 23.6373 19.3163 23.6292C19.5142 23.6186 19.62 23.5504 19.5786 23.4742C19.5556 23.4248 19.5096 23.3834 19.3301 23.3727C18.5339 23.3259 18.5247 23.3273 18.1289 23.2364C18.0921 23.2284 18.0645 23.2043 18.0783 23.1923C18.1013 23.1723 18.152 23.1429 18.2072 23.1389C18.7364 23.1095 19.2657 23.0827 19.7949 23.0627C19.9698 23.056 20.0987 23.0466 20.1585 22.9972C20.2413 22.9291 20.2045 22.8663 20.0434 22.8195C19.9928 22.8048 19.9099 22.7861 19.8547 22.7874C19.2472 22.8115 18.6443 22.8422 18.0369 22.8663C17.9816 22.8689 17.8804 22.8462 17.8574 22.8289C17.8114 22.7968 17.8804 22.754 18.0415 22.7393C18.2532 22.7193 18.4695 22.7179 18.6121 22.6511C18.81 22.5563 19.0539 22.4694 19.2748 22.3786C19.3116 22.3625 19.3715 22.3318 19.3577 22.3291C19.2427 22.2997 19.1092 22.277 18.9895 22.2489C18.787 22.2022 18.787 22.1367 18.833 22.0739C18.8698 22.0231 19.0079 22.0031 19.1782 22.0031C19.2518 22.0031 19.3439 22.0031 19.4037 21.9911C19.5602 21.9617 19.6108 21.9242 19.5326 21.8962C19.4865 21.8801 19.4037 21.8574 19.3485 21.8601C18.3637 21.9042 17.3741 21.947 16.3939 22.0017C16.104 22.0178 15.9706 21.967 15.7957 21.9309C15.6622 21.9029 15.5379 21.8922 15.3722 21.9122C15.2158 21.9309 15.064 21.9202 14.9673 21.8761C14.8891 21.8401 15.0271 21.8093 15.3999 21.7746C15.4689 21.7679 15.5471 21.7639 15.5977 21.7505C16.1316 21.6062 16.1316 21.6049 16.4997 21.5862C16.8587 21.5688 16.8588 21.5675 17.0475 21.49C17.1349 21.4539 17.2315 21.4178 17.3143 21.3804C17.3465 21.3657 17.4018 21.339 17.3834 21.331C17.2822 21.2895 17.144 21.2802 16.983 21.2896C16.624 21.3123 16.2007 21.2936 16.012 21.4205C15.9384 21.4686 15.8233 21.482 15.6576 21.49C13.9917 21.5675 12.3256 21.6503 10.6551 21.7252C10.3836 21.7372 10.2594 21.7866 10.1535 21.8414C10.0615 21.8868 9.96022 21.9002 9.78534 21.9082C9.61046 21.9162 9.47233 21.9202 9.37108 21.8761C9.31125 21.8494 9.36189 21.812 9.49995 21.7746C9.69784 21.7211 9.66101 21.6543 9.59658 21.5915C9.55056 21.5501 9.4079 21.5207 9.25603 21.5234C9.03053 21.5287 8.81429 21.5434 8.6256 21.49C8.51515 21.4592 8.37706 21.4379 8.2528 21.4111C8.01349 21.3563 7.77418 21.3002 7.43822 21.3363C7.20812 21.323 7.04704 21.2749 6.86296 21.2374C6.55462 21.176 6.52701 21.1666 6.74791 21.1011C6.99642 21.0276 6.8031 20.9314 6.94116 20.8593C7.08843 20.7818 7.29099 20.7136 7.47047 20.6415C7.51649 20.6228 7.55793 20.6054 7.60395 20.5867C7.4981 20.56 7.40147 20.5266 7.27722 20.5079C7.11614 20.4838 7.0333 20.4544 7.0425 20.3716C7.01029 20.3596 7.024 20.3903 7.06082 20.3983C7.10224 20.4063 7.20356 20.3996 7.25418 20.3903C7.38304 20.3649 7.4474 20.3315 7.41519 20.3034C7.39678 20.2887 7.30941 20.27 7.25418 20.27C7.15294 20.27 7.06551 20.2994 7.0379 20.3716C6.52246 20.4264 5.98853 20.4531 5.45469 20.4745C5.39947 20.4771 5.33047 20.4504 5.26604 20.437C5.05435 20.3916 5.05432 20.3929 4.43304 20.3796C4.36861 20.3783 4.28121 20.3596 4.249 20.3408C4.11554 20.2593 4.12018 20.1698 4.05575 20.083C4.1754 20.0268 4.29496 19.972 4.41922 19.9173C4.66773 19.8064 4.98995 19.7088 5.18324 19.5872C5.14182 19.5217 5.08659 19.4563 5.28908 19.4028C5.86434 19.336 5.85977 19.336 6.01624 19.2719C6.46265 19.0902 6.90442 18.9071 7.36924 18.728C7.49349 18.6813 7.49351 18.6559 7.27261 18.6358C7.20358 18.6305 7.12985 18.6292 7.05621 18.6318C6.82611 18.6412 6.59601 18.6652 6.3705 18.6599C6.145 18.6559 5.97932 18.5971 5.79524 18.561C5.60655 18.5236 5.41788 18.4848 5.22919 18.4461C5.01289 18.4501 4.79663 18.4875 4.58034 18.4274C4.41466 18.3806 4.20758 18.3472 4.01889 18.3085C4.16156 18.2069 4.42852 18.1294 4.63562 18.0399C4.8243 17.9584 4.8288 17.9597 5.33503 17.8969C5.57434 17.8675 5.65718 17.7165 5.45469 17.6724C5.21078 17.619 4.95311 17.5695 4.7046 17.5188C4.4883 17.5228 4.26745 17.5589 4.06035 17.4987C3.89928 17.4533 3.71516 17.4226 3.44824 17.4399C2.99723 17.4693 2.53704 17.484 2.08143 17.5081C1.92496 17.5161 1.75463 17.5108 1.6856 17.4653C1.63958 17.4333 1.77305 17.3892 1.92492 17.3798C2.15502 17.3664 2.36209 17.3504 2.47715 17.2836C2.5876 17.2168 2.79007 17.1967 3.02937 17.1874C3.0938 17.1847 3.16749 17.1687 3.19971 17.1526C3.36538 17.0751 3.54948 17.0083 3.90384 17.011C4.05111 16.9843 4.12929 16.9509 4.08327 16.9188C4.05566 16.9014 3.95907 16.8787 3.90384 16.8814C3.52187 16.8948 3.13991 16.9081 2.76714 16.9322C2.59226 16.9429 2.45872 16.9455 2.34827 16.9054C2.27004 16.8787 2.31145 16.8426 2.45872 16.8039C2.58758 16.7705 2.62443 16.7317 2.61523 16.6863C2.59222 16.5807 2.45413 16.55 2.01233 16.5567C1.69478 16.562 1.61654 16.5447 1.54751 16.4538C1.5291 16.4324 1.48316 16.403 1.51538 16.3883C1.71327 16.2975 1.84214 16.1852 2.21491 16.1425C2.36217 16.1264 2.51858 16.1264 2.61062 16.0917C2.70267 16.057 2.78554 16.0169 2.88219 15.9835C3.00184 15.9434 3.0846 15.906 3.02937 15.8806C2.93733 15.8352 2.79011 15.8311 2.61984 15.8472C2.47257 15.8605 2.3161 15.8619 2.16423 15.8699C1.89271 15.8846 1.67186 15.8498 1.63964 15.7911C1.5522 15.6361 1.46013 15.4824 1.3819 15.3274C1.3727 15.3087 1.39564 15.2846 1.43246 15.2686C1.56132 15.2125 1.69944 15.159 1.8329 15.1042C1.98937 15.0414 2.23792 15.0535 2.44962 15.0414C2.74875 15.0241 2.74865 15.0254 3.14903 14.8971C3.30551 14.8463 3.57704 14.8664 3.73812 14.821C3.78874 14.8063 3.86697 14.7822 3.85317 14.7689C3.83476 14.7515 3.74277 14.7381 3.67374 14.7301C3.60931 14.7221 3.53109 14.7181 3.46206 14.7221C2.62448 14.7608 1.79152 14.8023 0.953935 14.8397C0.81127 14.8464 0.654795 14.817 0.604171 14.7755C0.553548 14.7368 0.56731 14.69 0.558105 14.6459C0.691566 14.5911 0.843377 14.5404 0.95843 14.4816C1.04587 14.4361 1.14713 14.4161 1.32201 14.4134C1.55212 14.4094 1.77764 14.3934 2.03536 14.3814C2.51398 14.1863 2.98336 13.9818 3.4988 13.7867C3.70589 13.7079 3.65535 13.6277 3.69677 13.5435C3.73819 13.466 4.04651 13.4781 4.2536 13.4554C4.41928 13.4367 4.47443 13.3939 4.41 13.3645C4.37319 13.3471 4.29039 13.3271 4.22597 13.3271C4.0741 13.3271 3.92223 13.3391 3.77036 13.3458C3.61849 13.3525 3.44362 13.3485 3.31937 13.3712C3.19971 13.3926 3.12143 13.438 3.04319 13.4767C2.95575 13.5195 2.84078 13.5342 2.6659 13.5369C2.4404 13.5395 2.21491 13.5516 1.98941 13.5609C1.74089 13.5088 1.48312 13.458 1.24381 13.4033C1.19779 13.3926 1.18854 13.3618 1.19314 13.3418C1.20235 13.2897 1.13333 13.2576 0.981463 13.2322C0.852604 13.2108 0.746747 13.1801 0.627092 13.1534C0.719134 13.1173 0.820416 13.0826 0.89405 13.0438C1.05512 12.9623 1.25764 12.9035 1.6074 12.9062C1.74546 12.8541 1.85588 12.7899 2.03536 12.7539C2.20564 12.7191 2.49558 12.7538 2.62444 12.675C2.68887 12.6363 2.78557 12.5922 2.90983 12.5761C3.10772 12.5507 3.36543 12.5641 3.48048 12.4893C3.54952 12.4465 3.65072 12.4078 3.78418 12.3971C3.93605 12.3851 4.09248 12.3824 4.20293 12.357C4.26276 12.3436 4.3272 12.3223 4.3272 12.3036C4.3272 12.2915 4.23523 12.2728 4.1708 12.2648C4.11097 12.2555 4.03265 12.2488 3.96361 12.2514C3.73351 12.2595 3.50801 12.2742 3.27791 12.2822C3.21348 12.2848 3.13987 12.2755 3.07083 12.2675C2.86834 12.2461 2.88212 12.2194 3.04319 12.1713C3.20427 12.1245 3.31938 12.0644 3.45284 12.0096C3.60011 12.0002 3.78417 12.0042 3.88541 11.9789C4.05569 11.9374 4.17532 11.8773 4.31338 11.8252C4.46525 11.8172 4.62171 11.8145 4.76438 11.7998C4.8242 11.7945 4.85184 11.7651 4.90246 11.7477C4.9945 11.7143 5.0728 11.6662 5.19706 11.6502C5.39955 11.6261 5.64806 11.6354 5.76771 11.562C5.83675 11.5192 5.94255 11.4738 6.07141 11.4711C6.43038 11.4658 6.58225 11.3923 6.76633 11.3228C6.9044 11.2707 7.19894 11.2974 7.35081 11.2453C7.45206 11.2119 7.52573 11.1704 7.62698 11.1384C7.6684 11.125 7.75581 11.1183 7.82484 11.1143C8.20221 11.0943 8.58417 11.0796 8.96154 11.0582C9.02137 11.0542 9.07664 11.0342 9.12266 11.0181C9.21931 10.9834 9.27907 10.9353 9.39872 10.9126C9.51838 10.8898 9.68863 10.8899 9.8359 10.8832C10.3099 10.8631 10.3468 10.8685 10.5631 10.7549C10.7379 10.6627 11.166 10.7282 11.3087 10.6266C11.3915 10.5678 11.5433 10.5197 11.8148 10.513C12.1968 10.5037 12.5742 10.4783 12.9561 10.4609C13.2967 10.4449 13.2921 10.4449 13.6603 10.3206C13.8259 10.2645 14.0699 10.2725 14.2862 10.2618C14.5163 10.2511 14.728 10.2351 14.8384 10.1683C14.9489 10.1028 15.1514 10.0814 15.3861 10.0721C15.6024 10.0627 15.8463 10.0694 16.0166 10.016C16.4308 9.8877 16.4262 9.88635 16.7161 9.87299C17.1717 9.85161 17.6273 9.83023 18.0829 9.80752C18.3867 9.79282 18.7042 9.79015 18.9895 9.76075C19.1966 9.73938 19.2886 9.66455 19.4221 9.61244C19.7995 9.59239 20.1768 9.57234 20.5542 9.55364C21.0834 9.52691 21.6173 9.50287 22.1511 9.47748C22.3812 9.4267 22.4135 9.31446 22.8001 9.30912C23.0302 9.30644 23.2557 9.28907 23.4858 9.27839C23.8678 9.25968 24.2451 9.23563 24.6271 9.22627C24.917 9.21959 24.9676 9.14743 25.1195 9.102C25.1701 9.08596 25.2161 9.06325 25.276 9.05925C25.8742 9.02183 26.4909 9.01381 27.0753 8.95903C27.1352 8.95369 27.1904 8.92562 27.2042 8.90558C27.2134 8.89489 27.1352 8.87486 27.0846 8.8655C27.0247 8.85481 26.9465 8.84412 26.8821 8.84679C24.9814 8.93632 23.0808 9.02718 21.1801 9.11671C20.9132 9.13007 20.9132 9.12873 20.2643 9.27571C20.2091 9.28774 20.1446 9.3011 20.0756 9.3051C19.7718 9.32114 19.4635 9.3305 19.1644 9.35055C18.9205 9.36658 18.718 9.35053 18.5431 9.30243C18.4189 9.26769 18.29 9.257 18.1335 9.25968C17.9586 9.26369 17.8436 9.27839 17.7424 9.31447C17.6089 9.3639 17.5399 9.42804 17.2591 9.4414C15.966 9.49886 14.6727 9.56299 13.3841 9.62446C13.2046 9.60575 13.1172 9.57769 13.1632 9.54429C13.1908 9.52425 13.2461 9.49752 13.3013 9.49485C13.8305 9.46679 14.3644 9.44274 14.8936 9.41602C14.9672 9.41201 15.0685 9.41467 15.1099 9.40131C15.3124 9.34118 15.3861 9.24364 15.7681 9.23696C15.989 9.23295 16.2144 9.21291 16.4261 9.1942C16.486 9.18886 16.5412 9.1608 16.555 9.14075C16.5596 9.13006 16.486 9.11001 16.4307 9.10066C16.2283 9.06191 15.9936 9.10869 15.7911 9.08197C15.7221 9.07261 15.6254 9.05925 15.6116 9.04321C15.6024 9.02851 15.6806 9.00446 15.7358 8.98976C15.7864 8.9764 15.8554 8.96438 15.9245 8.96037C16.5319 8.92964 17.1395 8.89756 17.747 8.87351C17.9955 8.86416 18.1703 8.83075 18.2808 8.76928C18.3636 8.72385 18.4649 8.69981 18.6213 8.69313C19.6844 8.64369 20.7475 8.5889 21.8152 8.54347C22.0821 8.53278 22.2202 8.48869 22.3307 8.43124C22.4181 8.3858 22.5194 8.36977 22.6896 8.36175C24.2129 8.29227 25.727 8.21477 27.2503 8.14796C27.531 8.13593 27.6139 8.07848 27.7566 8.02904C27.8072 8.01167 27.8393 7.99029 27.9037 7.9796C27.9682 7.96891 28.051 7.97023 28.1292 7.96756C29.3442 7.9101 30.5592 7.84865 31.7788 7.7952C32.0641 7.78317 32.1193 7.71636 32.2665 7.66959C32.3172 7.65489 32.3632 7.63085 32.423 7.62684C33.3343 7.58141 34.2454 7.53865 35.1567 7.49455C35.7641 7.46516 36.3716 7.43576 36.9791 7.4077C37.2782 7.39433 37.2782 7.39299 37.6832 7.26605C37.7292 7.25135 37.7937 7.23398 37.8535 7.22997C39.6023 7.14445 41.3465 7.06296 43.0953 6.97878C43.2425 6.9721 43.3484 6.94135 43.422 6.89592C43.4956 6.85049 43.6016 6.81976 43.7442 6.81307C45.1111 6.74626 46.4779 6.6808 47.8493 6.61799C48.0978 6.6073 48.2726 6.57523 48.3831 6.5151C48.4659 6.46967 48.5672 6.44563 48.7236 6.43895C50.0905 6.37481 51.4574 6.30665 52.8288 6.24519C53.0911 6.23316 53.2199 6.18774 53.3488 6.13429C53.3948 6.11558 53.4316 6.08485 53.4869 6.08217C54.168 6.04476 54.8445 6.00601 55.5302 5.98062C55.8155 5.96993 55.9122 5.91381 56.0272 5.86036C56.1193 5.8176 56.2251 5.80291 56.4 5.79756C56.782 5.78553 57.1594 5.76283 57.5321 5.74011C57.5873 5.7361 57.6564 5.70671 57.661 5.688C57.6702 5.65326 57.5643 5.6292 57.3894 5.61718C55.567 5.70403 53.74 5.79088 51.9176 5.87773C51.6184 5.89243 51.6184 5.89244 51.2134 6.01938C51.1674 6.03407 51.1029 6.05145 51.0385 6.05546C49.2897 6.13964 47.5456 6.22248 45.7968 6.30666C45.6495 6.31334 45.5437 6.34408 45.47 6.38951C45.3964 6.43494 45.2905 6.46567 45.1478 6.47235C43.4772 6.55252 41.8067 6.63404 40.1316 6.7102C39.883 6.72089 39.7082 6.75161 39.5978 6.81307C39.5149 6.85851 39.4137 6.88257 39.2572 6.88925C37.6603 6.96408 36.0679 7.0429 34.4663 7.11506C34.3053 7.12174 34.1857 7.08299 34.1949 7.04691C34.1995 7.0282 34.2684 6.99749 34.3237 6.99481C35.1566 6.95072 35.9851 6.90528 36.8227 6.87188C37.1034 6.86119 37.1862 6.80239 37.3288 6.75295C37.3749 6.73558 37.4117 6.71287 37.4715 6.70351C37.536 6.69282 37.6188 6.69416 37.697 6.69149C39.6713 6.59662 41.6457 6.50042 43.6246 6.41089C43.9099 6.39753 43.9651 6.33205 44.1123 6.28528C44.1629 6.26925 44.209 6.2452 44.2688 6.24253C44.8763 6.21046 45.4838 6.18239 46.0913 6.15433C47.1543 6.10356 48.2174 6.05278 49.2851 6.002C49.5934 5.98731 49.5934 5.9873 49.9892 5.8617C50.0352 5.847 50.0997 5.8283 50.1595 5.82563C52.9714 5.69068 55.7834 5.55572 58.5952 5.4221C58.7425 5.41541 58.8483 5.38468 58.922 5.33925C58.9956 5.29516 59.1014 5.26309 59.2441 5.25507C63.0454 5.07335 66.8422 4.89161 70.6435 4.71256C70.892 4.70054 71.0668 4.67247 71.1773 4.60967C71.2555 4.56424 71.3614 4.54019 71.5179 4.53218C75.6966 4.33308 79.8753 4.13399 84.0586 3.93356C86.8705 3.79994 89.6824 3.66365 92.4943 3.5327C92.752 3.52067 92.89 3.47924 93.0189 3.42446C93.0603 3.40575 93.1017 3.37501 93.1569 3.37234C93.7598 3.33894 94.3627 3.30821 94.9655 3.27748C95.1542 3.31355 95.3429 3.3483 95.5316 3.38438C95.6742 3.3336 95.8124 3.28149 95.955 3.23071C96.8663 3.19196 97.7636 3.13183 98.6841 3.11313C98.7439 3.11179 98.8083 3.13718 98.8727 3.15054C99.3007 3.23472 99.5446 3.22804 99.8162 3.1158C99.9128 3.07571 99.9956 3.03964 100.143 3.03296C100.598 3.00891 101.059 2.99287 101.51 2.96481C101.754 2.95011 101.956 2.96347 102.131 3.01157C102.255 3.04631 102.384 3.06102 102.536 3.053C103.374 3.01292 104.207 2.97416 105.044 2.9314C105.104 2.92873 105.159 2.90601 105.205 2.88997C105.302 2.85523 105.385 2.81783 105.477 2.78175C105.601 2.80446 105.739 2.82184 105.84 2.85123C105.969 2.88598 106.089 2.88597 106.264 2.87661C109.605 2.71493 112.951 2.55726 116.292 2.39425C116.577 2.38088 116.701 2.43701 116.895 2.46641C116.959 2.4771 117.023 2.49045 117.092 2.49312C117.166 2.4958 117.244 2.48779 117.318 2.48378C119.826 2.36352 122.334 2.24459 124.842 2.12433C125.174 2.1083 125.174 2.1083 125.666 2.19114C125.726 2.20183 125.804 2.21386 125.869 2.20985C127.01 2.15774 128.151 2.10162 129.288 2.04817C129.435 2.04149 129.56 2.06287 129.693 2.0936C129.955 2.15373 129.974 2.15373 130.167 2.06554C130.259 2.02412 130.356 1.99872 130.508 1.9867C130.673 1.97333 130.807 1.97736 130.936 2.00141C131.12 2.03481 131.253 2.09093 131.534 2.07623C132.749 2.01343 133.968 1.96132 135.179 1.89718C135.455 1.88248 135.602 1.92791 135.786 1.96132C135.851 1.97334 135.91 1.99205 135.979 1.99606C136.049 2.00007 136.131 1.99071 136.205 1.9867C137.724 1.91454 139.247 1.84374 140.761 1.76624C141.046 1.75154 141.171 1.80898 141.364 1.83838C141.428 1.84907 141.502 1.86779 141.562 1.86511C142.473 1.82369 143.389 1.77958 144.3 1.73549C144.627 1.71945 144.627 1.72079 145.124 1.8023C145.184 1.81299 145.262 1.82368 145.326 1.82101C146.389 1.77157 147.457 1.72079 148.52 1.67002C148.847 1.65398 148.847 1.65398 149.79 1.72347C149.859 1.72881 149.933 1.73684 150.002 1.73417C151.217 1.67671 152.437 1.62058 153.652 1.55912C153.895 1.54709 154.098 1.55778 154.273 1.60588C154.397 1.64062 154.526 1.65533 154.678 1.64731C156.045 1.58184 157.416 1.51904 158.778 1.44956C159.041 1.43619 159.211 1.46558 159.395 1.50433C159.455 1.51769 159.515 1.5364 159.584 1.54175C159.653 1.54709 159.731 1.54174 159.805 1.53773C161.171 1.47226 162.543 1.4108 163.905 1.33998C164.181 1.32528 164.328 1.37071 164.513 1.40411C164.577 1.41614 164.646 1.44019 164.701 1.43885C165.235 1.41614 165.769 1.3961 166.298 1.3627C166.583 1.34399 166.708 1.40545 166.901 1.43484C166.965 1.4442 167.039 1.46425 167.099 1.46158C168.24 1.40946 169.382 1.35468 170.518 1.29856C170.679 1.29055 170.799 1.30256 170.928 1.3373C171.098 1.38407 171.296 1.40278 171.545 1.38808C172.074 1.35735 172.608 1.33597 173.141 1.31058C173.454 1.29589 173.454 1.29589 174.412 1.36537C174.481 1.37072 174.554 1.37873 174.623 1.37606C175.535 1.3333 176.45 1.29188 177.357 1.24511C177.601 1.23175 177.803 1.24377 177.978 1.29188C178.103 1.32662 178.227 1.34132 178.383 1.33331C179.221 1.29322 180.054 1.25313 180.891 1.21304C181.195 1.19835 181.499 1.17295 181.803 1.17295C182.024 1.17429 182.185 1.23842 182.383 1.27049C182.438 1.27984 182.53 1.26917 182.603 1.2665C183.666 1.21572 184.734 1.16895 185.793 1.11149C186.069 1.09679 186.216 1.14222 186.4 1.17563C186.465 1.18765 186.534 1.2117 186.589 1.21037C186.971 1.19567 187.348 1.17563 187.73 1.15825C188.186 1.13688 188.646 1.12084 189.097 1.09144C189.465 1.06739 189.603 1.18364 189.898 1.18765C190.123 1.19166 190.353 1.16894 190.579 1.15825C191.034 1.13688 191.49 1.11283 191.946 1.09412C192.107 1.08744 192.231 1.06605 192.282 1.01795C192.291 1.00859 192.213 0.988558 192.162 0.976533C191.55 0.840239 191.55 0.840233 190.933 0.86963C190.551 0.888336 190.174 0.907047 189.792 0.923081C189.727 0.925753 189.654 0.915064 189.589 0.907047C189.405 0.884332 189.424 0.85761 189.58 0.809507C189.737 0.761403 189.856 0.702615 189.99 0.647831C190.178 0.682572 190.363 0.717301 190.551 0.752043C190.703 0.745362 190.855 0.737356 191.007 0.730675C191.766 0.695934 192.525 0.659854 193.285 0.627785C193.34 0.625112 193.409 0.65184 193.473 0.665202C193.658 0.703952 193.823 0.737348 194.09 0.72265C194.771 0.6839 195.457 0.65584 196.138 0.622435C196.437 0.607736 196.437 0.607738 196.962 0.690582C197.022 0.699936 197.1 0.710626 197.164 0.707954C197.85 0.677221 198.531 0.64382 199.217 0.611751C199.364 0.60507 199.507 0.62244 199.613 0.66119C199.654 0.677224 199.645 0.703943 199.82 0.923081C200.363 1.1008 200.736 1.0821 201.113 1.06606C201.274 1.05938 201.417 1.0527 201.523 1.02597C201.578 1.01127 201.647 0.989891 201.647 0.97252C201.647 0.959158 201.546 0.937775 201.481 0.935102C201.026 0.908378 200.593 0.964507 200.147 0.976533C199.939 0.981877 199.76 0.935109 199.723 0.858946C199.714 0.837566 199.7 0.814852 199.686 0.793473C199.673 0.772094 199.663 0.749379 199.65 0.728C199.47 0.721319 199.364 0.745367 199.286 0.790798C199.222 0.828212 199.129 0.87097 199.005 0.891013C198.881 0.912393 198.711 0.908391 198.559 0.915072C198.412 0.921753 198.251 0.939122 198.112 0.929769C197.974 0.919079 197.864 0.880322 197.735 0.856271C197.675 0.844245 197.602 0.826881 197.542 0.829553C197.013 0.852269 196.488 0.874976 195.963 0.904372C195.687 0.920407 195.549 0.864294 195.374 0.829553C195.236 0.802829 195.098 0.809501 195.075 0.870967C195.015 1.01795 195.227 1.07941 195.696 1.05135C196.083 1.0273 196.433 1.0233 196.736 1.11417C196.778 1.12619 196.874 1.13153 196.934 1.12886C197.312 1.11283 197.684 1.09278 198.062 1.07675C198.131 1.07408 198.205 1.07941 198.269 1.08476C199.208 1.15691 199.208 1.15826 199.525 1.14222C199.677 1.1342 199.824 1.12752 199.811 0.924419C200.101 0.706617 200.561 0.691921 201.007 0.659852C201.297 0.639809 201.421 0.698605 201.61 0.729338C201.674 0.740027 201.744 0.761403 201.803 0.75873C202.793 0.714635 203.778 0.667862 204.762 0.618422C204.928 0.610405 205.048 0.618423 205.177 0.653165C205.342 0.697259 205.526 0.725326 205.789 0.709291C206.313 0.677222 206.847 0.657184 207.381 0.63046C207.653 0.617098 207.653 0.617084 208.2 0.699929C208.26 0.709282 208.338 0.719972 208.403 0.7173C208.937 0.694584 209.466 0.666533 209.995 0.642481C210.142 0.6358 210.276 0.654505 210.391 0.690582C210.506 0.72666 210.644 0.745365 210.787 0.738684C211.32 0.714632 211.85 0.687916 212.379 0.663865C212.443 0.661192 212.522 0.670545 212.581 0.679899C213.143 0.762743 213.143 0.76273 213.401 0.749368C213.778 0.729325 214.165 0.719982 214.537 0.693257C214.901 0.666533 215.09 0.744027 215.338 0.786785C216.019 0.756053 216.705 0.730671 217.381 0.693257C217.658 0.677223 217.805 0.721314 217.989 0.756055C218.053 0.768081 218.118 0.793472 218.178 0.792135C218.408 0.786791 218.633 0.772095 218.859 0.761405C219.084 0.750716 219.314 0.740027 219.54 0.729338C219.798 0.768088 219.968 0.858948 220.336 0.828216C220.557 0.809509 220.792 0.8055 221.017 0.79481C221.243 0.784121 221.473 0.773432 221.698 0.762743C221.85 0.756062 222.007 0.752047 222.154 0.740021C222.425 0.719978 222.559 0.78546 222.752 0.814857C222.817 0.82421 222.89 0.840234 222.95 0.837562C223.406 0.818855 223.866 0.802822 224.312 0.772089C224.657 0.748037 224.892 0.788129 225.136 0.844249C225.187 0.856275 225.274 0.862956 225.338 0.860283C225.872 0.837568 226.401 0.8095 226.931 0.785448C227.073 0.778767 227.212 0.800145 227.327 0.834887C227.446 0.870964 227.58 0.888348 227.727 0.881667C228.256 0.857615 228.79 0.830883 229.319 0.806832C229.384 0.804159 229.462 0.814851 229.522 0.825541C230.037 0.908385 230.037 0.909723 230.341 0.893688C230.415 0.88968 230.493 0.886997 230.566 0.882988C230.944 0.864281 231.335 0.85761 231.703 0.825541C232.127 0.789463 232.435 0.834896 232.734 0.91106C233.111 0.895025 233.498 0.88567 233.866 0.858946C234.142 0.838903 234.29 0.889676 234.474 0.923081C234.538 0.935107 234.607 0.959159 234.662 0.956486C235.196 0.933771 235.73 0.913735 236.255 0.88033C236.54 0.861623 236.664 0.921741 236.857 0.952474C236.922 0.963163 236.991 0.98188 237.051 0.979208C237.354 0.968518 237.658 0.952476 237.962 0.937777C238.316 0.920407 238.316 0.921742 238.786 1.00325C239.007 1.042 239.228 1.01127 239.444 1.00191C239.674 0.991223 239.89 0.983208 240.074 1.03799C240.189 1.07273 240.328 1.09411 240.47 1.08877C240.774 1.07674 241.082 1.06472 241.381 1.04468C241.621 1.02865 241.828 1.03933 242.003 1.08877C242.127 1.12351 242.256 1.14089 242.408 1.13287C243.089 1.10081 243.774 1.06739 244.456 1.03666C244.515 1.03398 244.598 1.04601 244.653 1.05804C244.782 1.08209 244.907 1.10881 245.031 1.13553C245.33 1.12351 245.638 1.11818 245.933 1.09947C246.246 1.08076 246.531 1.07408 246.775 1.14757C246.826 1.16361 246.899 1.18631 246.959 1.18497C247.189 1.17963 247.415 1.16627 247.64 1.15558C247.866 1.14489 248.096 1.1342 248.321 1.12351C248.584 1.15692 248.749 1.25312 249.118 1.22239C249.338 1.20368 249.573 1.19967 249.799 1.18898C250.024 1.1783 250.254 1.16627 250.48 1.15692C250.553 1.15424 250.636 1.14756 250.701 1.1529C250.77 1.15825 250.829 1.17696 250.889 1.19032C251.073 1.22907 251.244 1.26783 251.506 1.24511C251.727 1.2264 251.962 1.22239 252.187 1.21037C252.495 1.19567 252.495 1.19567 253.006 1.27985C253.213 1.3146 253.448 1.26917 253.646 1.29856C253.779 1.31861 253.894 1.352 254.023 1.37472C254.079 1.38407 254.166 1.38808 254.23 1.3854C254.534 1.37338 254.842 1.36136 255.142 1.34131C255.386 1.32528 255.588 1.34131 255.758 1.38942C255.883 1.42416 256.007 1.43886 256.163 1.43085C256.923 1.39343 257.682 1.36135 258.437 1.31993C258.695 1.30523 258.902 1.32795 259.044 1.37606C259.288 1.4589 259.633 1.36136 259.886 1.42817C260.043 1.46959 260.199 1.5177 260.485 1.49766C261.009 1.46292 261.543 1.4442 262.072 1.42015C262.261 1.45622 262.45 1.49231 262.643 1.52839C262.947 1.51369 263.251 1.49898 263.554 1.48562C263.78 1.47493 264.01 1.4629 264.235 1.45355C264.309 1.45088 264.387 1.44553 264.456 1.45221C264.525 1.45889 264.581 1.47627 264.645 1.48963C264.963 1.55511 264.962 1.55645 265.487 1.52972C265.713 1.5177 265.929 1.50968 266.118 1.56313C266.293 1.61257 266.5 1.62192 266.739 1.60722C267.19 1.58049 267.646 1.56045 268.106 1.54175C268.248 1.53506 268.382 1.55778 268.502 1.59252C268.681 1.64731 268.902 1.64196 269.127 1.62726C269.427 1.60856 269.721 1.58985 269.974 1.66468C270.025 1.68072 270.103 1.70342 270.158 1.70208C270.536 1.69139 270.918 1.68338 271.286 1.65799C271.654 1.63261 271.833 1.71545 272.087 1.75554C272.464 1.73816 272.846 1.72079 273.223 1.70342C273.297 1.69941 273.384 1.68739 273.449 1.69407C273.72 1.72214 273.877 1.82235 274.25 1.79162C274.466 1.77424 274.701 1.76891 274.926 1.7649C274.986 1.76356 275.064 1.78627 275.106 1.80364C275.129 1.81299 275.106 1.83838 275.078 1.85174C274.995 1.88915 274.894 1.9239 274.82 1.96265C274.811 1.968 274.898 1.99204 274.949 2.00273C275.073 2.02678 275.216 2.02278 275.382 2.01209C275.524 2.00274 275.672 2.02145 275.773 2.06153C275.814 2.07757 275.8 2.10429 275.713 2.19248C275.713 2.25795 275.81 2.22855 275.842 2.18579C275.892 2.12432 275.796 2.10428 275.612 2.13769C275.483 2.16174 275.419 2.19648 275.451 2.22455C275.469 2.23924 275.557 2.25795 275.713 2.19248C276.118 2.11231 276.422 2.09761 276.726 2.08292C276.804 2.07891 276.896 2.06554 276.951 2.07355C277.149 2.10562 277.333 2.14438 277.526 2.18046C277.747 2.17244 277.954 2.15239 278.171 2.2045C278.474 2.27799 278.488 2.27131 278.783 2.25661C278.935 2.2486 279.086 2.24193 279.238 2.23525C279.39 2.22856 279.51 2.2486 279.643 2.27933C279.915 2.34214 279.938 2.34213 280.117 2.25661C280.223 2.2045 280.297 2.18713 280.43 2.21119C280.872 2.29269 280.877 2.29804 281.254 2.27398C281.567 2.25394 281.861 2.2486 282.092 2.32476C282.248 2.37821 282.299 2.36619 282.423 2.31006C282.754 2.16175 282.906 2.16441 283.527 2.27131C283.817 2.32209 284.116 2.26731 284.411 2.26063C284.66 2.25528 284.834 2.28734 284.853 2.37152C284.867 2.42364 284.908 2.46106 285.074 2.47843C285.138 2.48511 285.216 2.49446 285.281 2.49179C285.663 2.47575 286.04 2.45704 286.422 2.43833C286.615 2.42898 286.721 2.36619 286.684 2.28335C286.643 2.19516 286.717 2.16308 286.993 2.13769C287.158 2.12299 287.292 2.12567 287.425 2.14973C287.573 2.17645 287.531 2.2005 287.402 2.2486C287.094 2.36619 287.131 2.43833 287.527 2.51984C287.665 2.5479 287.775 2.5733 287.807 2.61472C287.826 2.6361 287.807 2.66416 287.849 2.6802C288.074 2.76972 288.387 2.82718 288.737 2.86994C289.073 2.83387 289.303 2.89398 289.561 2.94209C289.763 2.9795 290.003 2.94744 290.219 2.93408C290.463 2.91938 290.665 2.93007 290.84 2.97951C290.964 3.01425 291.093 3.03028 291.245 3.02359C291.549 3.0089 291.857 2.99955 292.156 2.97817C292.414 2.95946 292.607 2.98619 292.768 3.03162C292.971 3.08908 293.196 3.05032 293.408 3.05834C293.693 3.06769 293.836 3.18661 294.209 3.15454C294.43 3.13583 294.66 3.12915 294.89 3.12381C294.95 3.12247 295.023 3.14519 295.074 3.16123C295.318 3.23472 295.603 3.23071 295.916 3.20933C296.133 3.19463 296.344 3.18127 296.556 3.23205C296.906 3.31757 297.292 3.3924 297.66 3.47124C297.711 3.5327 297.674 3.60484 297.937 3.64092C298.075 3.65963 298.203 3.6877 298.309 3.71843C298.438 3.75451 298.558 3.76387 298.723 3.75451C299.023 3.7358 299.336 3.73178 299.63 3.70773C299.902 3.68635 300.072 3.73046 300.238 3.77188C300.371 3.80529 300.495 3.82131 300.656 3.79726C300.822 3.77455 300.942 3.78924 301.075 3.82532C301.264 3.87476 301.278 3.86942 301.904 3.88412C301.968 3.88546 302.046 3.90549 302.083 3.92286C302.101 3.93221 302.06 3.95895 302.028 3.97231C301.986 3.98835 301.922 4.00704 301.862 4.01105C301.181 4.04579 300.495 4.07653 299.814 4.11127C299.745 4.11528 299.672 4.12464 299.621 4.138C299.566 4.1527 299.497 4.17273 299.497 4.19144C299.497 4.2048 299.589 4.22084 299.653 4.23019C299.856 4.26093 300.095 4.21416 300.293 4.2489C300.426 4.27162 300.537 4.30368 300.67 4.32506C300.725 4.33441 300.813 4.33308 300.882 4.33041C301.112 4.32105 301.338 4.3077 301.568 4.29968C301.632 4.29834 301.706 4.31171 301.766 4.3224C302.207 4.40257 302.207 4.40257 302.589 4.3852C302.741 4.37852 302.902 4.35847 303.045 4.36649C303.183 4.37451 303.303 4.41058 303.427 4.4333C303.685 4.4814 303.928 4.52817 303.947 4.63239C303.956 4.67248 304.108 4.70721 304.26 4.70989C304.407 4.71256 304.564 4.69787 304.715 4.68986C305.074 4.67382 305.074 4.67382 305.539 4.75533C305.668 4.77804 305.806 4.78071 305.972 4.76735C306.036 4.76201 306.115 4.76736 306.184 4.77404C306.409 4.79408 306.409 4.81946 306.262 4.86757C306.055 4.93839 306.073 4.94507 306.653 5.0052C306.874 5.02792 307.044 5.07068 307.228 5.10809C307.527 5.16822 307.523 5.16821 307.325 5.24704C307.279 5.26441 307.237 5.28313 307.191 5.30183C307.058 5.35395 306.952 5.41006 306.676 5.41541C306.372 5.42075 306.068 5.44214 305.765 5.45684C305.47 5.47154 305.392 5.50359 305.42 5.59445C305.452 5.70402 305.512 5.71605 306.041 5.71472C306.193 5.71472 306.326 5.7254 306.441 5.76148C306.386 5.80424 306.285 5.83765 306.138 5.84566C305.76 5.86571 305.378 5.88308 305.001 5.90045C304.697 5.91515 304.393 5.92984 304.09 5.94454C303.901 5.95389 303.781 6.02338 303.832 6.10088C303.859 6.14498 303.882 6.18907 303.905 6.23317C303.956 6.32136 304.053 6.34408 304.361 6.34007C304.439 6.33873 304.513 6.32803 304.587 6.33071C304.886 6.34006 305.028 6.45096 305.387 6.42825C305.686 6.40954 306 6.40553 306.294 6.38148C306.566 6.3601 306.717 6.40822 306.906 6.4443C306.97 6.45632 307.04 6.4817 307.095 6.48036C307.477 6.46566 307.859 6.45098 308.232 6.42559C308.406 6.4149 308.512 6.42291 308.65 6.45498C308.982 6.53248 308.991 6.52847 309.483 6.50442C309.842 6.48571 309.847 6.48838 310.307 6.56989C310.436 6.59261 310.574 6.5926 310.74 6.58191C310.956 6.56855 311.181 6.54717 311.407 6.56722C311.476 6.57256 311.563 6.5886 311.586 6.60597C311.6 6.618 311.536 6.6474 311.481 6.65675C311.076 6.72623 310.602 6.71421 310.16 6.74227C310.022 6.75029 309.884 6.72489 309.769 6.68882C309.649 6.65274 309.52 6.63805 309.364 6.64473C309.06 6.65943 308.752 6.66877 308.452 6.69015C308.195 6.70886 308.015 6.67812 307.836 6.6367C307.776 6.62334 307.707 6.59795 307.647 6.59929C306.966 6.62601 306.28 6.65274 305.604 6.69015C305.332 6.70619 305.176 6.66343 304.992 6.62736C304.927 6.61533 304.863 6.58994 304.803 6.59128C304.573 6.59662 304.347 6.61132 304.117 6.62201C303.28 6.66209 302.447 6.70218 301.609 6.73959C301.554 6.74227 301.485 6.7142 301.42 6.70218C301.296 6.67812 301.167 6.65541 301.038 6.63269C300.808 6.64338 300.583 6.65674 300.353 6.66476C300.187 6.6701 300.04 6.68882 300.017 6.73959C300.003 6.773 300.155 6.80373 300.316 6.80105C300.472 6.79838 300.629 6.78235 300.758 6.79972C301.397 6.88523 301.397 6.88657 301.798 6.8692C302.148 6.85317 302.111 6.8398 302.419 6.91329C302.552 6.94536 302.672 6.96408 302.824 6.95606C303.201 6.93735 303.583 6.91864 303.965 6.90261C304.025 6.89993 304.103 6.9133 304.163 6.92399C304.614 7.00416 304.614 7.00683 304.987 6.98679C305.475 6.96274 305.493 6.95606 305.82 7.03756C306.046 7.09369 306.253 7.05493 306.469 7.05226C306.717 7.10437 306.989 7.15115 307.214 7.20994C307.481 7.27942 307.762 7.26739 308.066 7.24734C308.291 7.23264 308.512 7.2273 308.696 7.28208C308.871 7.33286 309.083 7.33821 309.322 7.32485C309.538 7.31283 309.759 7.28743 309.985 7.31683C310.045 7.32484 310.137 7.34489 310.132 7.35692C310.128 7.37563 310.068 7.40235 310.008 7.41037C309.584 7.46516 309.12 7.46382 308.673 7.4892C308.613 7.49321 308.535 7.47851 308.475 7.46782C308.347 7.44377 308.222 7.41571 308.098 7.39033C307.873 7.39834 307.642 7.40101 307.422 7.41704C307.251 7.42907 307.122 7.42774 306.998 7.39568C306.883 7.36628 306.759 7.33019 306.621 7.32084C306.483 7.31149 306.322 7.33153 306.17 7.33955C306.018 7.34757 305.843 7.34355 305.723 7.36493C305.604 7.38631 305.53 7.43308 305.452 7.47049C305.364 7.51192 305.245 7.52529 305.07 7.5293C304.909 7.5333 304.78 7.52795 304.66 7.49054C304.61 7.47451 304.541 7.46248 304.471 7.45179C304.407 7.44243 304.333 7.42773 304.274 7.4304C303.588 7.46113 302.907 7.49455 302.221 7.52662C301.881 7.54266 301.885 7.54264 301.176 7.46381C301.112 7.45713 301.034 7.44778 300.969 7.45045C300.587 7.46648 300.21 7.48519 299.828 7.5039C299.441 7.52261 299.446 7.51993 298.788 7.43575C298.668 7.41972 298.493 7.4411 298.351 7.43843C298.052 7.43175 297.904 7.31951 297.555 7.34089C297.256 7.35959 296.942 7.3636 296.643 7.38765C296.372 7.40903 296.215 7.36227 296.031 7.32619C295.967 7.31416 295.898 7.28744 295.843 7.29011C295.157 7.31951 294.476 7.35291 293.565 7.35692C293.339 7.35692 293.44 7.38498 293.588 7.39434C293.799 7.40904 293.868 7.38098 293.753 7.32753C293.67 7.29011 293.551 7.27139 293.454 7.28075C293.403 7.28609 293.339 7.31149 293.565 7.35692C293.804 7.4077 293.79 7.43575 293.832 7.45179C293.933 7.49054 294.075 7.50657 294.223 7.50122C294.453 7.49187 294.678 7.47851 294.908 7.47049C294.973 7.46782 295.051 7.47718 295.111 7.48787C295.617 7.57071 295.622 7.57606 296.16 7.54399C296.33 7.53464 296.455 7.53464 296.588 7.56003C296.772 7.59477 296.906 7.65355 297.186 7.63485C297.559 7.60946 297.941 7.59477 298.323 7.58007C298.383 7.5774 298.447 7.60145 298.516 7.61214C298.705 7.64421 298.843 7.70434 299.124 7.67895C299.34 7.65891 299.575 7.65355 299.805 7.64954C299.865 7.64821 299.957 7.66959 299.984 7.68696C300.04 7.71769 299.971 7.75378 299.814 7.77917C299.75 7.78986 299.662 7.78718 299.589 7.79119C299.285 7.80589 298.981 7.82191 298.678 7.83394C298.516 7.84062 298.365 7.86067 298.346 7.91011C298.332 7.94352 298.498 7.97291 298.655 7.97023C298.885 7.96623 299.115 7.95554 299.336 7.93817C299.727 7.90877 300.067 7.91678 300.385 8.00096C300.61 8.05976 300.597 8.03839 300.836 8.2121C300.896 8.25619 301.075 8.26019 301.232 8.25752C301.609 8.25084 301.784 8.27089 301.752 8.31231C301.71 8.36309 301.577 8.37911 301.407 8.38579C301.103 8.39648 300.799 8.41386 300.495 8.42856C300.422 8.43257 300.339 8.44058 300.27 8.43791C300.201 8.43523 300.136 8.4192 300.077 8.40718C299.948 8.38179 299.837 8.34303 299.699 8.33368C299.561 8.32433 299.4 8.34437 299.248 8.35239C299.096 8.35907 298.935 8.37911 298.797 8.36976C298.659 8.36041 298.544 8.32033 298.42 8.29628C298.36 8.28425 298.286 8.26553 298.227 8.26687C297.923 8.27756 297.619 8.29494 297.315 8.3083C296.943 8.32567 296.943 8.32567 296.492 8.24283C296.363 8.21877 296.229 8.22011 296.059 8.2308C295.691 8.25218 295.686 8.24817 295.014 8.17067C294.95 8.16265 294.872 8.1533 294.807 8.15731C294.121 8.18804 293.44 8.22144 292.759 8.25351C292.175 8.28157 292.175 8.28158 291.853 8.4152C291.613 8.51408 291.609 8.51408 291.843 8.55951C292.032 8.59692 292.202 8.6517 292.409 8.67174C292.603 8.69045 292.842 8.63032 293.054 8.69179C293.16 8.72252 293.298 8.75593 293.431 8.76127C293.643 8.76796 293.868 8.7292 294.071 8.78799C294.172 8.81739 294.324 8.84813 294.453 8.84947C294.678 8.85214 294.908 8.83075 295.134 8.8214C295.203 8.81872 295.281 8.81873 295.346 8.82541C295.415 8.83343 295.474 8.84947 295.534 8.86283C295.718 8.90826 295.916 8.92963 296.156 8.90692C296.547 8.8695 296.897 8.88821 297.2 8.97373C297.242 8.98575 297.343 8.9871 297.407 8.98175C297.573 8.96839 297.716 8.96705 297.84 8.99244C297.891 9.00313 297.964 9.02182 297.955 9.03385C297.941 9.05389 297.886 9.08062 297.826 9.0873C297.393 9.13273 296.929 9.13808 296.482 9.16214C296.422 9.16481 296.349 9.14743 296.289 9.1354C296.16 9.11135 296.05 9.07127 295.912 9.06192C295.774 9.05257 295.613 9.06994 295.461 9.07662C295.309 9.0833 295.148 9.10334 295.01 9.09533C294.872 9.08597 294.743 9.05256 294.632 9.02317C294.503 8.98976 294.379 8.98576 294.209 8.99912C293.988 9.01649 293.758 9.01916 293.532 9.02852C293.408 9.00313 293.284 8.97506 293.155 8.95101C293.095 8.93898 293.022 8.92429 292.957 8.92563C292.653 8.93632 292.35 8.95234 292.046 8.96704C291.742 8.98174 291.742 8.98175 291.227 8.89891C291.167 8.88955 291.089 8.87886 291.024 8.88154C290.642 8.89757 290.265 8.9176 289.883 8.93363C289.736 8.94032 289.602 8.92161 289.483 8.88553C289.367 8.84945 289.229 8.82941 289.087 8.83609C288.479 8.86415 287.872 8.89088 287.264 8.92429C287.02 8.93765 286.813 8.92563 286.648 8.87752C286.454 8.82274 286.238 8.8361 286.013 8.84679C285.502 8.87352 285.497 8.87217 285.17 8.80403C285.106 8.79066 285.042 8.76527 284.982 8.76661C284.452 8.78665 283.919 8.80536 283.394 8.83743C283.118 8.8548 282.971 8.80804 282.786 8.7733C282.722 8.76127 282.653 8.73588 282.598 8.73855C282.216 8.75325 281.834 8.76662 281.461 8.79334C281.088 8.82007 280.946 8.6958 280.665 8.69714C280.283 8.69848 279.906 8.72921 279.528 8.74792C279.224 8.76261 278.921 8.77731 278.617 8.792C278.313 8.8067 278.009 8.81872 277.706 8.83609C277.545 8.84545 277.425 8.83342 277.292 8.80001C277.121 8.75592 276.919 8.72119 276.735 8.68111C276.454 8.62365 276.454 8.62364 276.113 8.63968C276.04 8.64368 275.962 8.64635 275.888 8.65036C275.331 8.67976 275.331 8.67709 274.622 8.59291C274.59 8.5889 274.507 8.60361 274.475 8.6143C274.378 8.64904 274.291 8.68644 274.204 8.72252C274.079 8.70114 273.927 8.68912 273.845 8.65838C273.61 8.57153 273.242 8.69045 273.002 8.60493C272.915 8.57286 272.763 8.5448 272.625 8.53678C272.482 8.52877 272.321 8.54748 272.174 8.55549C271.792 8.57554 271.792 8.5742 271.465 8.69313C271.3 8.75192 271.06 8.74123 270.844 8.75459C270.619 8.76929 270.402 8.7773 270.214 8.72252C270.043 8.67308 269.836 8.66106 269.592 8.67709C269.293 8.69714 268.985 8.70916 268.681 8.72118C268.617 8.72385 268.538 8.71718 268.474 8.70916C267.77 8.63032 267.77 8.62899 267.429 8.64636C267.277 8.65438 267.121 8.65704 266.974 8.66907C266.725 8.69045 266.536 8.66239 266.357 8.61963C266.297 8.60627 266.228 8.58089 266.168 8.58223C265.865 8.58891 265.565 8.60093 265.266 8.61296C265.036 8.62231 264.806 8.62766 264.585 8.64636C264.217 8.6771 264.038 8.59023 263.784 8.55014C263.407 8.56751 263.025 8.57954 262.648 8.6036C262.473 8.61428 262.358 8.61028 262.224 8.57822C262.054 8.53813 261.898 8.4927 261.621 8.51274C261.253 8.53947 260.867 8.54882 260.489 8.56486C260.236 8.52343 260.052 8.43924 259.689 8.46997C259.468 8.48868 259.233 8.49269 259.007 8.50338C258.704 8.51808 258.4 8.53145 258.096 8.54748C257.77 8.56352 257.774 8.55951 257.272 8.48067C256.983 8.43391 256.683 8.48602 256.389 8.49403C256.159 8.50071 256.044 8.56218 256.099 8.64101C256.154 8.71985 256.03 8.78131 255.818 8.792C255.289 8.81739 254.755 8.84411 254.226 8.86682C254.161 8.8695 254.083 8.86014 254.023 8.85079C253.457 8.76661 253.457 8.76796 253.204 8.77998C252.827 8.80003 252.44 8.81071 252.067 8.83609C251.81 8.85346 251.621 8.82541 251.455 8.77998C251.326 8.74524 251.207 8.73722 251.041 8.74524C249.219 8.83477 247.396 8.91761 245.578 9.00981C245.307 9.02317 245.151 8.98442 244.966 8.94835C244.902 8.93632 244.842 8.91093 244.778 8.91093C244.626 8.91093 244.474 8.92296 244.322 8.93098C243.641 8.96304 242.96 9.00179 242.274 9.02584C241.984 9.03653 241.906 9.098 241.782 9.14878C241.685 9.18753 241.575 9.20356 241.404 9.2089C241.239 9.21424 241.119 9.20756 240.99 9.17282C240.824 9.12739 240.636 9.09932 240.378 9.11803C240.079 9.13941 239.775 9.14878 239.467 9.16347C239.31 9.17015 239.191 9.1942 239.14 9.24231C239.131 9.25032 239.228 9.27037 239.283 9.2824C239.467 9.32248 239.642 9.36925 239.849 9.39731C240.061 9.42537 240.291 9.39329 240.512 9.38527C240.59 9.3826 240.663 9.37459 240.737 9.37593C240.806 9.37726 240.889 9.38395 240.94 9.39597C241.179 9.4561 241.432 9.49752 241.763 9.46144C242.049 9.47882 242.196 9.58972 242.56 9.56032C242.78 9.54295 243.011 9.53494 243.241 9.52826C243.3 9.52692 243.365 9.55097 243.429 9.563C243.613 9.5964 243.761 9.64985 244.037 9.62713C244.331 9.60308 244.644 9.59908 244.943 9.58037C245.109 9.56968 245.229 9.57903 245.358 9.61377C245.523 9.65787 245.712 9.69126 245.97 9.66988C246.191 9.65118 246.425 9.64717 246.651 9.63514C246.945 9.62044 246.945 9.62178 247.47 9.70463C247.53 9.71398 247.608 9.72467 247.672 9.722C248.054 9.70596 248.432 9.68592 248.814 9.66988C248.961 9.6632 249.104 9.68057 249.205 9.71932C249.246 9.73536 249.233 9.7621 249.246 9.78481C248.487 9.82089 247.728 9.85162 246.973 9.89571C246.688 9.91308 246.559 9.8583 246.37 9.82756C246.306 9.81687 246.237 9.79416 246.177 9.79683C245.643 9.81955 245.114 9.84359 244.584 9.87299C244.419 9.88234 244.295 9.877 244.17 9.83825C243.853 9.73536 243.466 9.79148 243.107 9.80618C242.831 9.81687 242.744 9.8583 242.776 9.94649C242.817 10.0507 242.983 10.0828 243.406 10.0641C243.558 10.0574 243.71 10.048 243.862 10.0427C244.009 10.0373 244.143 10.0547 244.262 10.0908C244.377 10.1269 244.515 10.1456 244.658 10.1402C244.962 10.1282 245.27 10.1162 245.565 10.0961C245.809 10.0801 246.011 10.0935 246.181 10.1429C246.37 10.1977 246.591 10.1857 246.812 10.1736C247.327 10.1469 247.332 10.1483 247.654 10.2151C247.718 10.2284 247.783 10.2538 247.843 10.2525C248.372 10.2324 248.906 10.2151 249.426 10.183C249.697 10.167 249.854 10.2097 250.033 10.2445C250.098 10.2565 250.162 10.2832 250.222 10.2805C250.604 10.2658 250.986 10.2511 251.359 10.2258C251.534 10.2137 251.639 10.2217 251.782 10.2538C252.123 10.3326 252.132 10.33 252.615 10.3046C252.762 10.2966 252.923 10.2819 253.061 10.2926C253.2 10.3033 253.31 10.342 253.439 10.3661C253.499 10.3767 253.572 10.3914 253.637 10.3888C253.94 10.3781 254.244 10.362 254.548 10.3474C254.833 10.3327 254.833 10.334 255.367 10.4168C255.583 10.4516 255.809 10.4222 256.025 10.4115C256.26 10.3995 256.472 10.3995 256.651 10.4516C256.831 10.5037 257.047 10.501 257.277 10.4903C257.493 10.4796 257.714 10.4502 257.935 10.4863C258.441 10.5692 258.441 10.5705 258.754 10.5545C259.21 10.5317 259.661 10.5104 260.121 10.4903C260.181 10.4876 260.259 10.5037 260.319 10.5144C260.448 10.5384 260.558 10.5785 260.696 10.5879C260.834 10.5985 260.996 10.5825 261.143 10.5745C261.617 10.5491 261.649 10.5398 261.967 10.628C262.233 10.7001 262.565 10.5959 262.813 10.6787C262.956 10.7255 263.149 10.7629 263.416 10.7402C263.637 10.7215 263.867 10.7161 264.097 10.7054C264.461 10.6881 264.461 10.6894 264.921 10.7696C264.981 10.7803 265.059 10.7936 265.119 10.791C265.423 10.7803 265.731 10.7709 266.026 10.7469C266.371 10.7188 266.592 10.7696 266.849 10.819C267.052 10.8578 267.291 10.8257 267.508 10.8123C267.742 10.799 267.954 10.803 268.129 10.8551C268.313 10.9085 268.529 10.9019 268.759 10.8912C268.976 10.8818 269.196 10.8511 269.417 10.8885C269.891 10.9713 269.891 10.9713 270.237 10.9553C270.54 10.9406 270.844 10.9246 271.148 10.9139C271.208 10.9112 271.281 10.9286 271.341 10.9406C271.47 10.9647 271.58 11.0048 271.718 11.0141C271.856 11.0235 272.018 11.0061 272.169 10.9994C272.321 10.9927 272.482 10.9727 272.62 10.9807C272.758 10.9887 272.887 11.0221 272.998 11.0515C273.127 11.0863 273.246 11.0903 273.421 11.0769C273.642 11.0595 273.872 11.0555 274.098 11.0462C274.222 11.0716 274.351 11.097 274.47 11.125C274.595 11.1544 274.728 11.1517 274.898 11.1424C275.464 11.1103 275.469 11.1143 275.943 11.1972C276.159 11.2346 276.385 11.2039 276.601 11.1945C276.831 11.1838 277.048 11.1785 277.227 11.2319C277.402 11.2827 277.618 11.2894 277.848 11.2733C277.996 11.2626 278.152 11.256 278.304 11.252C278.373 11.2506 278.456 11.256 278.507 11.2667C278.75 11.3228 278.99 11.3736 279.326 11.3375C279.62 11.3482 279.767 11.4577 280.122 11.4364C280.421 11.4177 280.734 11.4136 281.028 11.3896C281.3 11.3682 281.493 11.4056 281.631 11.4524C281.88 11.5352 282.23 11.423 282.478 11.5045C282.621 11.5513 282.805 11.5887 283.081 11.5686C283.385 11.5473 283.481 11.5753 283.569 11.6595C283.619 11.7076 283.61 11.7464 283.518 11.7838C283.426 11.8225 283.325 11.8158 283.178 11.7718C283.007 11.7223 282.805 11.7129 282.561 11.7236C282.322 11.7343 282.174 11.6649 281.977 11.6381C281.779 11.6101 281.544 11.6568 281.337 11.6208C280.849 11.5366 280.849 11.5366 280.518 11.5526C280.292 11.5633 280.057 11.5686 279.837 11.5874C279.574 11.6101 279.404 11.5686 279.224 11.5312C279.16 11.5179 279.096 11.4925 279.04 11.4938C278.511 11.5139 277.977 11.5326 277.453 11.566C277.176 11.5833 277.029 11.5352 276.845 11.5018C276.781 11.4898 276.712 11.4658 276.656 11.4684C276.201 11.4871 275.75 11.5112 275.294 11.5339C275.207 11.57 275.11 11.6047 275.027 11.6435C274.94 11.6836 274.82 11.7009 274.645 11.6996C274.355 11.6996 274.07 11.7557 273.78 11.6849C273.481 11.6127 273.458 11.6167 273.168 11.6341C272.8 11.6568 272.409 11.6515 272.064 11.7036C272.004 11.713 271.939 11.7383 271.939 11.757C271.935 11.7691 272.031 11.7864 272.091 11.7971C272.294 11.8292 272.528 11.7824 272.731 11.8158C272.864 11.8372 272.975 11.8693 273.108 11.892C273.163 11.9014 273.246 11.9 273.32 11.8987C273.398 11.8973 273.472 11.888 273.545 11.8893C273.614 11.8907 273.688 11.8987 273.743 11.9107C273.997 11.9615 274.263 12.0083 274.489 12.0684C274.71 12.1272 274.917 12.0871 275.138 12.0844C276.021 12.178 276.021 12.1793 276.615 12.1499C276.762 12.1432 276.914 12.1352 277.066 12.1365C277.131 12.1365 277.19 12.1606 277.255 12.1739C277.439 12.214 277.614 12.2501 277.871 12.2287C278.092 12.21 278.327 12.206 278.553 12.194C278.856 12.1793 278.856 12.1793 279.372 12.2635C279.501 12.2848 279.639 12.2822 279.804 12.2715C279.947 12.2621 280.094 12.2822 280.195 12.3209C280.237 12.337 280.223 12.3637 280.237 12.3864C279.781 12.4078 279.321 12.4225 278.879 12.4546C278.594 12.4746 278.465 12.4171 278.276 12.3864C278.212 12.3757 278.143 12.353 278.083 12.3557C277.632 12.3757 277.181 12.3984 276.73 12.4251C276.675 12.4278 276.606 12.4585 276.601 12.4773C276.592 12.512 276.707 12.5454 276.873 12.5441C277.094 12.5427 277.31 12.52 277.508 12.5748C277.674 12.6229 277.881 12.6443 278.124 12.6229C278.272 12.6109 278.428 12.6109 278.576 12.6002C278.967 12.5681 279.321 12.5748 279.616 12.6657C279.841 12.6897 280.062 12.667 280.278 12.655C280.439 12.6456 280.596 12.6363 280.711 12.6617C280.955 12.7151 281.194 12.7686 281.53 12.7325C281.894 12.7699 282.17 12.8487 282.474 12.9129C282.616 12.9436 282.727 12.961 282.892 12.9409C282.961 12.9329 283.044 12.9329 283.118 12.9289C283.27 12.9222 283.431 12.9022 283.569 12.9102C283.707 12.9195 283.822 12.9583 283.946 12.9823C284.006 12.9944 284.075 13.0144 284.135 13.0131C284.365 13.0064 284.59 12.993 284.816 12.9823C285.041 12.973 285.267 12.9636 285.492 12.9543C285.681 12.989 285.874 13.0238 286.063 13.0585C286.367 13.0438 286.671 13.0291 286.97 13.0158C287.306 12.9997 287.306 13.0011 287.789 13.0839C288.005 13.1213 288.235 13.0973 288.442 13.0799C288.788 13.0518 289.018 13.1026 289.262 13.1561C289.312 13.1667 289.404 13.1734 289.464 13.1681C289.703 13.1494 289.91 13.1641 290.085 13.2135C290.21 13.2482 290.334 13.2643 290.486 13.2576C291.015 13.2322 291.544 13.2055 292.073 13.1828C292.138 13.1801 292.212 13.1921 292.271 13.2028C292.741 13.2843 292.745 13.2883 293.091 13.267C293.399 13.2483 293.684 13.2402 293.928 13.3137C293.979 13.3298 294.057 13.3525 294.112 13.3511C294.49 13.3378 294.872 13.3231 295.244 13.3004C295.415 13.2897 295.534 13.2937 295.668 13.3244C295.838 13.3632 295.99 13.4099 296.271 13.3926C297.048 13.3431 297.053 13.3511 297.973 13.4433C298.038 13.45 298.125 13.4393 298.199 13.434C298.355 13.4206 298.47 13.4393 298.608 13.4701C298.917 13.5395 298.926 13.5355 299.221 13.5208C299.446 13.5088 299.681 13.5061 299.902 13.4861C300.242 13.4567 300.468 13.5088 300.721 13.5583C300.923 13.597 301.158 13.5649 301.374 13.5529C301.609 13.5395 301.821 13.5435 301.996 13.5943C302.115 13.6291 302.244 13.6478 302.396 13.6411C302.925 13.6171 303.455 13.5903 303.984 13.5663C304.048 13.5636 304.126 13.5743 304.186 13.5836C304.711 13.6665 304.711 13.6705 305.231 13.6398C305.397 13.6304 305.535 13.6277 305.659 13.6558C305.779 13.6825 305.907 13.7079 306.032 13.7333C306.257 13.7239 306.487 13.7213 306.708 13.7052C306.878 13.6932 306.998 13.6986 307.132 13.7266C307.306 13.7627 307.454 13.8255 307.73 13.7948C307.872 13.7801 308.038 13.7841 308.181 13.7707C308.351 13.7533 308.466 13.764 308.6 13.7988C308.765 13.8402 308.936 13.8829 309.202 13.8616C309.497 13.8375 309.81 13.8335 310.109 13.8148C310.275 13.8041 310.39 13.8148 310.523 13.8495C310.689 13.8936 310.878 13.9217 311.135 13.9043C311.66 13.8709 311.665 13.8776 312.175 13.9618C312.304 13.9832 312.442 13.9805 312.608 13.9698C312.751 13.9605 312.898 13.9805 312.999 14.0192C313.096 14.062 313.087 14.0887 313.096 14.1114ZM272.087 2.06019C271.935 2.06688 271.783 2.07489 271.562 1.95864C271.548 1.9386 271.557 1.91455 271.525 1.89718C271.452 1.8611 271.336 1.83572 271.198 1.83171C270.95 1.82636 270.651 1.87179 270.655 1.90653C270.66 1.93592 270.738 1.96131 270.89 1.98536C270.954 1.99471 271.005 2.01075 271.065 2.02144C271.24 2.05217 271.378 2.11231 271.631 2.08158C271.585 1.99873 271.608 2.04016 271.631 2.08158C271.608 2.13235 271.677 2.16843 271.843 2.18313C271.889 2.18714 271.958 2.18446 271.995 2.17644C272.137 2.14705 272.16 2.10697 272.054 2.00141C272.036 2.01878 272.05 2.0495 272.091 2.05752C272.133 2.06554 272.234 2.05886 272.284 2.04951C272.413 2.02412 272.478 1.99071 272.446 1.96265C272.427 1.94796 272.34 1.92925 272.284 1.92925C272.188 1.92925 272.1 1.95864 272.087 2.06019ZM309.299 17.5562C308.963 17.5816 308.577 17.5722 308.241 17.6243C308.181 17.6337 308.121 17.6577 308.116 17.6764C308.112 17.6885 308.204 17.7058 308.259 17.7152C308.383 17.7366 308.521 17.7299 308.682 17.7232C308.926 17.7139 309.069 17.7753 309.258 17.806C309.318 17.8154 309.396 17.8221 309.46 17.8194C309.833 17.8034 310.201 17.786 310.574 17.7673C310.638 17.7633 310.707 17.7539 310.763 17.7419C310.947 17.7032 310.928 17.6778 310.749 17.6484C310.551 17.6163 310.395 17.5629 310.192 17.5375C309.902 17.5014 309.607 17.5495 309.299 17.5562ZM283.164 18.5316C282.938 18.5423 282.717 18.553 282.492 18.5637C282.418 18.5677 282.34 18.569 282.271 18.5744C282.128 18.5837 282.022 18.6118 281.953 18.6559C282.059 18.6906 282.188 18.7107 282.331 18.7067C282.556 18.6986 282.777 18.6813 283.003 18.6773C283.247 18.6719 283.389 18.732 283.578 18.7628C283.638 18.7721 283.711 18.7735 283.78 18.7748C284.121 18.7801 284.328 18.7107 284.264 18.6131C284.218 18.537 284.043 18.4915 283.831 18.5009C283.61 18.5102 283.385 18.5209 283.164 18.5316ZM310.873 15.5813C310.928 15.5585 310.988 15.5425 311.016 15.5225C311.099 15.4543 311.066 15.4035 310.914 15.3501C310.73 15.2846 310.505 15.3287 310.298 15.3354C310.247 15.3367 310.192 15.3648 310.164 15.3822C310.146 15.3942 310.146 15.4196 310.174 15.4263C310.399 15.4797 310.638 15.5292 310.873 15.5813ZM270.95 11.6341C270.729 11.6448 270.504 11.6528 270.283 11.6675C270.227 11.6715 270.177 11.6969 270.145 11.7143C270.085 11.7464 270.149 11.7904 270.338 11.7945C270.554 11.7998 270.78 11.7771 271.005 11.7664C271.29 11.753 271.461 11.7036 271.355 11.6608C271.254 11.6194 271.116 11.6114 270.95 11.6341ZM28.6999 8.77865C28.8472 8.77197 28.999 8.76662 29.1463 8.75726C29.2844 8.74791 29.3903 8.71851 29.4593 8.67442C29.3443 8.63968 29.2154 8.62097 29.0727 8.62498C28.8472 8.633 28.6263 8.64368 28.4054 8.65705C28.2674 8.66506 28.1339 8.69446 28.1017 8.73989C28.0695 8.77463 28.3778 8.79468 28.6999 8.77865ZM251.488 8.57287C251.547 8.58489 251.607 8.60895 251.667 8.60895C251.814 8.60895 251.966 8.60092 252.104 8.58756C252.164 8.58222 252.21 8.55817 252.238 8.53946C252.256 8.52743 252.252 8.50606 252.224 8.49537C252.091 8.43123 251.557 8.45395 251.469 8.52744C251.46 8.5408 251.483 8.55817 251.488 8.57287ZM236.968 1.2558C236.982 1.27717 236.986 1.29855 237.005 1.31993C237.042 1.36002 237.143 1.38942 237.29 1.40946C237.405 1.37606 237.465 1.33865 237.46 1.29856C237.456 1.27718 237.442 1.25579 237.424 1.23441C237.387 1.19433 237.286 1.16494 237.138 1.1449C237.023 1.17696 236.968 1.21437 236.968 1.2558ZM321.508 18.7641C321.467 18.7815 321.426 18.7989 321.38 18.8149C321.504 18.8536 321.619 18.8657 321.706 18.8443C321.762 18.8309 321.794 18.8109 321.835 18.7935C321.711 18.7548 321.601 18.7441 321.508 18.7641ZM318.646 18.9458C318.706 18.9579 318.761 18.9739 318.826 18.9819C318.931 18.9953 319.028 18.9726 319.102 18.9245C319.042 18.9124 318.987 18.8964 318.922 18.8884C318.816 18.875 318.72 18.8977 318.646 18.9458ZM320.459 18.7013C320.427 18.7334 320.491 18.7601 320.662 18.7828C320.703 18.7655 320.758 18.7494 320.786 18.7307C320.832 18.7 320.754 18.6719 320.588 18.6505C320.542 18.6666 320.501 18.6839 320.459 18.7013ZM310.744 17.2609C310.712 17.293 310.776 17.3197 310.947 17.3424C310.988 17.325 311.043 17.309 311.071 17.2903C311.117 17.2595 311.039 17.2315 310.873 17.2101C310.827 17.2261 310.786 17.2435 310.744 17.2609ZM297.509 7.80588C297.467 7.82325 297.426 7.84063 297.38 7.85666C297.504 7.89541 297.619 7.90743 297.706 7.88605C297.762 7.87269 297.794 7.85265 297.835 7.83528C297.711 7.79653 297.601 7.78584 297.509 7.80588ZM284.83 2.78976C284.94 2.79911 285.032 2.78041 285.111 2.73097C285.051 2.71895 284.995 2.70291 284.931 2.69489C284.825 2.68153 284.729 2.70425 284.655 2.75236C284.715 2.76572 284.775 2.77773 284.83 2.78976ZM278.097 2.47575C278.056 2.49312 278.014 2.51049 277.968 2.52653C278.092 2.56528 278.207 2.5773 278.295 2.55592C278.35 2.54256 278.382 2.52252 278.424 2.50515C278.299 2.4664 278.189 2.45705 278.097 2.47575ZM232.44 1.25446C232.398 1.27183 232.357 1.2892 232.311 1.30523C232.435 1.34398 232.55 1.35601 232.637 1.33463C232.693 1.32126 232.725 1.30122 232.766 1.28385C232.642 1.2451 232.532 1.23575 232.44 1.25446ZM5.10032 12.1258C5.04049 12.1138 4.98072 12.1018 4.92549 12.0884C4.79203 12.1245 4.75063 12.1579 4.82426 12.1833C4.87028 12.1993 4.93926 12.2087 4.99909 12.2207C5.13715 12.1846 5.16935 12.1526 5.10032 12.1258Z" fill="#FFE492"/>
</svg>
